<svg width="16" height="16" viewBox="0 0 16 16" fill="none" xmlns="http://www.w3.org/2000/svg">
<g opacity="0.72">
<path fill-rule="evenodd" clip-rule="evenodd" d="M5 2.00966C4.44772 2.00966 4 2.45953 4 3.01448V13.9866L6.75061 11.7755C7.48105 11.1883 8.51895 11.1883 9.24939 11.7755L12 13.9866V3.01448C12 2.45953 11.5523 2.00966 11 2.00966H5ZM2 3.01448C2 1.34963 3.34315 0 5 0H11C12.6569 0 14 1.34963 14 3.01448V13.9866C14 15.6717 12.0601 16.6085 10.7506 15.5558L8 13.3447L5.24939 15.5558C3.93986 16.6085 2 15.6717 2 13.9866V3.01448Z" fill="#6F7A90"/>
</g>
</svg>
