<svg id="svg157" width="294" height="184" fill="none" inkscape:version="1.1.1 (1:1.1+202109281949+c3084ef5ed)" sodipodi:docname="Collection_WMN1.svg" version="1.1" viewBox="0 0 294 184" xmlns="http://www.w3.org/2000/svg" xmlns:inkscape="http://www.inkscape.org/namespaces/inkscape" xmlns:sodipodi="http://sodipodi.sourceforge.net/DTD/sodipodi-0.dtd">
 <sodipodi:namedview id="namedview159" bordercolor="#666666" borderopacity="1.0" inkscape:current-layer="svg157" inkscape:cx="186.01852" inkscape:cy="135.65741" inkscape:pagecheckerboard="0" inkscape:pageopacity="0.0" inkscape:pageshadow="2" inkscape:window-height="997" inkscape:window-maximized="1" inkscape:window-width="1920" inkscape:window-x="0" inkscape:window-y="28" inkscape:zoom="1.1020408" pagecolor="#ffffff" showgrid="false"/>
 <g id="g132" clip-path="url(#clip0_116_18200)">
  <rect id="rect2" width="294" height="184" rx="16" fill="url(#paint0_linear_116_18200)"/>
  <g fill="#C0D6F6">
   <path id="path4" d="m52.587 159.69c-0.706-0.306-1.4781 0.267-1.3908 1.031l1.1187 9.791c0.0873 0.763 0.9669 1.147 1.5859 0.692l7.9674-5.858c0.6219-0.458 0.5132-1.417-0.1952-1.724l-9.086-3.932z"/>
   <path id="path6" d="m57.629 31.784c-0.7059-0.3055-1.478 0.2671-1.3907 1.0313l1.1187 9.7904c0.0872 0.7633 0.9669 1.1472 1.5859 0.6921l7.9674-5.8579c0.6219-0.4573 0.5132-1.4169-0.1952-1.7235l-9.0861-3.9324z"/>
   <path id="path8" d="m190.11 169.31c-0.706-0.307-1.479 0.266-1.392 1.031l1.119 9.806c0.087 0.763 0.967 1.147 1.586 0.692l7.969-5.859c0.622-0.457 0.514-1.416-0.194-1.723l-9.088-3.947z"/>
   <path id="path10" d="m216.37 9.2305c-0.771 0-1.252 0.83543-0.865 1.5021l4.953 8.53c0.385 0.6633 1.343 0.6639 1.729 1e-3l4.966-8.53c0.388-0.6666-0.093-1.5031-0.864-1.5031h-9.919z"/>
   <path id="path12" d="m252.2 49.128c-0.706-0.3055-1.478 0.267-1.391 1.0312l1.119 9.7904c0.087 0.7633 0.967 1.1472 1.586 0.6921l7.967-5.8579c0.622-0.4573 0.513-1.4168-0.195-1.7234l-9.086-3.9324z"/>
   <path id="path14" d="m15.684 37.687c0.7059-0.3055 1.4781 0.267 1.3908 1.0312l-1.1187 9.7904c-0.0873 0.7633-0.9669 1.1472-1.5859 0.6921l-7.9674-5.8579c-0.62191-0.4573-0.51324-1.4168 0.19517-1.7234l9.086-3.9324z"/>
  </g>
  <g fill="#BB9AF4">
   <path id="path16" d="m75.571 165.49c-0.3851-0.664-1.3439-0.664-1.7297-1e-3l-4.9678 8.546c-0.3875 0.667 0.0935 1.503 0.8646 1.503h9.9218c0.7706 0 1.2516-0.835 0.8652-1.502l-4.9541-8.546z"/>
   <path id="path18" d="m31.554 17.236c-0.386-0.6629-1.3438-0.6623-1.729 0.0011l-4.9527 8.5299c-0.3871 0.6667 0.0939 1.5022 0.8648 1.5022h9.919c0.7715 0 1.2524-0.8365 0.8642-1.5032l-4.9663-8.53z"/>
   <path id="path20" d="m279.03 15.391c0.201-0.7402 1.127-0.9876 1.671-0.4465l6.991 6.9574c0.547 0.5438 0.298 1.4753-0.446 1.6748l-9.581 2.5672c-0.746 0.1997-1.427-0.4838-1.224-1.2282l2.589-9.5247z"/>
   <path id="path22" d="m200.68 3.0264c-0.385-0.66338-1.343-0.66395-1.729-0.00104l-4.966 8.53c-0.388 0.6666 0.093 1.5031 0.864 1.5031h9.919c0.771 0 1.252-0.8354 0.865-1.5021l-4.953-8.53z"/>
   <path id="path24" d="m257.62 146.35c-0.385-0.664-1.343-0.664-1.729-1e-3l-4.966 8.53c-0.389 0.666 0.092 1.503 0.864 1.503h9.919c0.771 0 1.252-0.836 0.865-1.502l-4.953-8.53z"/>
   <path id="path26" d="m13.384 139.3c0.3851-0.664 1.343-0.664 1.729-1e-3l4.9663 8.53c0.3882 0.666-0.0928 1.503-0.8642 1.503h-9.919c-0.77089 0-1.2519-0.835-0.86479-1.502l4.9527-8.53z"/>
  </g>
  <path id="path28" d="m46.65 140.76c-0.7309 0.249-0.9155 1.197-0.3316 1.702l7.4775 6.47c0.5803 0.502 1.4866 0.19 1.6353-0.563l1.9103-9.67c0.1492-0.755-0.5751-1.388-1.3037-1.14l-9.3878 3.201z" fill="#D06E0B"/>
  <path id="path30" d="m127 3.0585c-0.771 0.05154-1.195 0.91976-0.761 1.5589l5.548 8.1841c0.431 0.6352 1.387 0.5687 1.725-0.12l4.348-8.846c0.34-0.69087-0.196-1.4903-0.964-1.4389l-9.896 0.66191z" fill="#E9A35D"/>
  <path id="path32" d="m245.65 169.74c-0.731 0.249-0.917 1.197-0.334 1.703l7.478 6.483c0.58 0.503 1.487 0.191 1.636-0.562l1.911-9.67c0.149-0.755-0.574-1.388-1.303-1.141l-9.388 3.187z" fill="#D06E0B"/>
  <path id="path34" d="m25.349 162.69c0.7313 0.248 0.9171 1.196 0.3335 1.702l-7.4778 6.483c-0.5802 0.503-1.4873 0.192-1.6361-0.562l-1.9104-9.67c-0.1491-0.755 0.5741-1.388 1.3025-1.141l9.3883 3.188z" fill="#D06E0B"/>
  <g fill="#F7CFD5">
   <path id="path36" d="m216.68 176.19c-0.518 0.572-0.22 1.49 0.535 1.65l9.701 2.048c0.753 0.159 1.396-0.558 1.156-1.29l-3.07-9.371c-0.238-0.729-1.176-0.929-1.691-0.36l-6.631 7.323z"/>
   <path id="path38" d="m45.141 11.51c-0.5176 0.5727-0.2186 1.4911 0.537 1.6493l9.7174 2.0348c0.7538 0.1578 1.3955-0.5598 1.1548-1.2914l-3.0844-9.3736c-0.2399-0.72886-1.1773-0.92721-1.6918-0.35796l-6.633 7.3389z"/>
   <path id="path40" d="m28.399 93.99c-0.7409 0.2177-0.966 1.1572-0.4042 1.687l7.1896 6.7796c0.5584 0.527 1.4773 0.254 1.658-0.492l2.3193-9.573c0.1812-0.7481-0.5153-1.4119-1.2538-1.1949l-9.5089 2.7933z"/>
  </g>
  <path id="path42" d="m285.17 94.281c0.74 0.2177 0.966 1.1572 0.404 1.687l-7.19 6.7796c-0.558 0.527-1.477 0.254-1.658-0.492l-2.319-9.573c-0.181-0.7481 0.515-1.4119 1.254-1.1949l9.509 2.7933z" fill="#E9A35D"/>
  <path id="path44" d="m258.07 79.014c-0.518 0.5726-0.219 1.4908 0.537 1.6492l9.701 2.0344c0.754 0.158 1.396-0.5586 1.156-1.29l-3.07-9.3717c-0.239-0.7298-1.178-0.9289-1.692-0.3592l-6.632 7.3373z" fill="#F7CFD5"/>
  <path id="path46" d="m17.933 73.616c0.5175 0.5726 0.2187 1.4908-0.5367 1.6492l-9.7017 2.0344c-0.75328 0.1579-1.3952-0.5587-1.1555-1.2901l3.0702-9.3717c0.23905-0.7297 1.1773-0.9289 1.6922-0.3592l6.6316 7.3374z" fill="#fff"/>
  <path id="path48" d="m27.816 122.23c-0.3623 0.68 0.1481 1.497 0.9181 1.47l9.9054-0.353c0.7707-0.027 1.2216-0.88 0.8103-1.532l-5.2665-8.354c-0.4093-0.649-1.3674-0.614-1.7284 0.063l-4.6389 8.706z" fill="#81ABEE"/>
  <path id="path50" d="m284.56 124.23c0.362 0.68-0.148 1.497-0.918 1.47l-9.905-0.353c-0.771-0.027-1.222-0.88-0.811-1.532l5.267-8.354c0.409-0.649 1.367-0.614 1.728 0.063l4.639 8.706z" fill="#81ABEE"/>
  <g fill="#C7E6A8">
   <path id="path52" d="m159.73 170.14c-0.768-0.06-1.312 0.734-0.98 1.429l4.258 8.898c0.331 0.692 1.286 0.768 1.724 0.138l5.636-8.125c0.44-0.634 0.026-1.507-0.744-1.567l-9.894-0.773z"/>
   <path id="path54" d="m94.728 7.1352c-0.7678-0.06008-1.3125 0.73387-0.9801 1.4286l4.2567 8.8957c0.3314 0.6927 1.2874 0.7688 1.7244 0.1375l5.6206-8.1228c0.439-0.63435 0.025-1.5058-0.744-1.566l-9.8776-0.77295z"/>
   <path id="path56" d="m30.731 65.135c-0.7684-0.06-1.313 0.735-0.9794 1.4298l4.2712 8.8977c0.3321 0.6917 1.2873 0.7672 1.7239 0.1363l5.6222-8.1246c0.439-0.6344 0.0248-1.5059-0.7444-1.566l-9.8935-0.7732z"/>
   <path id="path58" d="m284.63 60.135c0.768-0.06 1.313 0.735 0.979 1.4298l-4.271 8.8977c-0.332 0.6917-1.287 0.7672-1.724 0.1363l-5.622-8.1246c-0.439-0.6344-0.025-1.5059 0.744-1.566l9.894-0.7732z"/>
  </g>
  <path id="path60" d="m233.24 33.487c-0.768-0.061-1.314 0.7328-0.982 1.428l4.259 8.9129c0.331 0.6926 1.286 0.7696 1.724 0.1389l5.637-8.1261c0.439-0.6338 0.026-1.5057-0.743-1.5668l-9.895-0.7869z" fill="#8DC95E"/>
  <path id="path62" d="m253.66 100.11c-0.769-0.061-1.314 0.733-0.982 1.428l4.257 8.911c0.331 0.693 1.288 0.769 1.725 0.138l5.622-8.124c0.438-0.634 0.025-1.505-0.743-1.566l-9.879-0.787z" fill="#C7E6A8"/>
  <path id="path64" d="m17.346 93.064c0.768-0.0611 1.3138 0.7327 0.9816 1.428l-4.2573 8.9105c-0.3311 0.693-1.2876 0.77-1.7246 0.138l-5.6219-8.124c-0.43863-0.6338-0.02545-1.5047 0.74293-1.5659l9.8793-0.7866z" fill="#C7E6A8"/>
  <g fill="#E14761">
   <path id="path66" d="m95.51 173.78c-0.6694 0.384-0.67 1.349-1e-3 1.734l8.5819 4.936c0.667 0.384 1.499-0.098 1.499-0.867v-9.859c0-0.768-0.831-1.249-1.498-0.867l-8.5819 4.923z"/>
   <path id="path68" d="m31.51 44.782c-0.6694 0.384-0.67 1.3495-1e-3 1.7343l8.582 4.9362c0.6667 0.3835 1.4986-0.0977 1.4986-0.8668v-9.859c0-0.7685-0.8309-1.2498-1.4976-0.8674l-8.582 4.9227z"/>
   <path id="path70" d="m282.08 40.782c0.669 0.384 0.67 1.3495 1e-3 1.7343l-8.582 4.9362c-0.667 0.3835-1.499-0.0977-1.499-0.8668v-9.859c0-0.7685 0.831-1.2498 1.498-0.8674l8.582 4.9227z"/>
   <path id="path72" d="m159.87 11.85c-0.501 0.5864-0.178 1.4955 0.581 1.6336l9.719 1.769c0.755 0.1375 1.377-0.5923 1.122-1.3164l-3.28-9.3002c-0.257-0.7263-1.203-0.90257-1.704-0.31716l-6.438 7.5311z"/>
   <path id="path74" d="m254.3 131.94c-0.67 0.385-0.67 1.351 1e-3 1.735l8.598 4.924c0.666 0.382 1.497-0.099 1.497-0.867v-9.862c0-0.769-0.832-1.25-1.498-0.867l-8.598 4.937z"/>
   <path id="path76" d="m17.096 118.8c0.6698 0.385 0.6692 1.351-1e-3 1.735l-8.5981 4.924c-0.66666 0.382-1.497-0.1-1.497-0.868v-9.862c0-0.768 0.83134-1.25 1.498-0.867l8.598 4.938z"/>
  </g>
  <path id="path78" d="m28.062 149.59c-0.0276 0.769 0.7863 1.279 1.4663 0.92l8.7613-4.625c0.6825-0.36 0.7169-1.325 0.0618-1.733l-8.4065-5.236c-0.6525-0.406-1.5004 0.045-1.528 0.813l-0.3549 9.861z" fill="#8DC95E"/>
  <g fill="#E9A35D">
   <path id="path80" d="m289.77 151.59c0.028 0.769-0.786 1.279-1.466 0.92l-8.762-4.625c-0.682-0.36-0.716-1.325-0.061-1.733l8.406-5.236c0.653-0.406 1.5 0.045 1.528 0.813l0.355 9.861z"/>
   <path id="path82" d="m66.865 15.342c-0.0276 0.7682 0.7857 1.2791 1.4657 0.9206l8.7774-4.6266c0.6832-0.3602 0.7176-1.326 0.0617-1.7339l-8.4224-5.2372c-0.6525-0.40573-1.4998 0.0454-1.5274 0.81325l-0.355 9.8639z"/>
   <path id="path84" d="m257.59 28.638c-0.028 0.7685 0.786 1.2793 1.466 0.9203l8.761-4.6254c0.683-0.3603 0.717-1.3251 0.062-1.7331l-8.407-5.2358c-0.652-0.4064-1.5 0.0447-1.528 0.8129l-0.354 9.8611z"/>
   <path id="path86" d="m18.767 19.587c0.0276 0.7684-0.7863 1.2793-1.4663 0.9202l-8.7613-4.6253c-0.6825-0.3604-0.7169-1.3252-0.06181-1.7332l8.4065-5.2358c0.6525-0.40638 1.5004 0.04469 1.528 0.81287l0.3549 9.8612z"/>
   <path id="path88" d="m123.06 179.57c-0.028 0.768 0.785 1.279 1.465 0.922l8.775-4.612c0.684-0.36 0.719-1.327 0.063-1.735l-8.421-5.236c-0.652-0.406-1.499 0.046-1.527 0.813l-0.355 9.848z"/>
  </g>
  <g fill="#fff">
   <path id="path90" d="m32.284 169.84c-0.5694 0.52-0.36 1.462 0.3763 1.692l9.4563 2.957c0.7346 0.23 1.4424-0.422 1.2742-1.173l-2.1559-9.629c-0.1679-0.75-1.0834-1.038-1.6506-0.52l-7.3003 6.673z"/>
   <path id="path92" d="m282.27 167.79c0.57 0.52 0.36 1.462-0.376 1.693l-9.456 2.956c-0.735 0.23-1.443-0.422-1.274-1.173l2.155-9.629c0.168-0.75 1.084-1.038 1.651-0.52l7.3 6.673z"/>
   <path id="path94" d="m241.31 8.5323c-0.57 0.52046-0.36 1.4623 0.376 1.6925l9.456 2.9567c0.735 0.2297 1.443-0.4218 1.275-1.1729l-2.156-9.6296c-0.168-0.74976-1.084-1.038-1.651-0.51963l-7.3 6.6729z"/>
   <path id="path96" d="m225.24 152.7c-0.57 0.521-0.36 1.464 0.378 1.694l9.47 2.943c0.735 0.228 1.441-0.423 1.273-1.174l-2.156-9.616c-0.168-0.75-1.083-1.038-1.65-0.52l-7.315 6.673z"/>
  </g>
  <path id="path98" d="m147 168c56.333 0 102-34.026 102-76 0-41.974-45.667-76-102-76s-102 34.026-102 76c0 41.974 45.667 76 102 76z" fill="url(#paint1_linear_116_18200)"/>
  <path id="path100" d="m54.75 92c0-36.538 41.373-66.256 92.25-66.256 50.859 0 92.25 29.718 92.25 66.256 0 36.538-41.373 66.256-92.25 66.256-50.859 0-92.25-29.718-92.25-66.256zm-1.7501 0c0 37.567 42.091 68 94 68 51.909 0 94-30.451 94-68 0-37.567-42.091-68-94-68-51.909 0-94 30.451-94 68z" fill="url(#paint2_linear_116_18200)"/>
  <path id="path102" d="m110.15 76.8h2.88v4.432h0.8l3.424-4.432h3.136l-4.32 5.232 4.48 5.968h-3.36l-3.36-4.752h-0.8v4.752h-2.88v-11.2zm13.93 11.408c-0.459 0-0.87-0.0693-1.232-0.208-0.352-0.1387-0.651-0.3253-0.896-0.56-0.246-0.2453-0.432-0.528-0.56-0.848-0.128-0.3307-0.192-0.688-0.192-1.072 0-0.8427 0.256-1.488 0.768-1.936 0.522-0.448 1.306-0.672 2.352-0.672h2.416v-0.352c0-0.512-0.123-0.864-0.368-1.056-0.246-0.2027-0.582-0.304-1.008-0.304-0.406 0-0.704 0.064-0.896 0.192s-0.299 0.3307-0.32 0.608h-2.464c0.021-0.384 0.117-0.736 0.288-1.056 0.17-0.3307 0.41-0.6133 0.72-0.848 0.32-0.2453 0.709-0.4373 1.168-0.576 0.458-0.1387 0.986-0.208 1.584-0.208 0.554 0 1.061 0.064 1.52 0.192 0.469 0.1173 0.869 0.3147 1.2 0.592 0.33 0.2667 0.586 0.6187 0.768 1.056 0.181 0.4267 0.272 0.9493 0.272 1.568v3.12c0 0.448 0.01 0.8427 0.032 1.184 0.021 0.3307 0.053 0.656 0.096 0.976h-2.336c-0.022-0.1813-0.043-0.3413-0.064-0.48-0.011-0.1387-0.016-0.3093-0.016-0.512-0.256 0.3413-0.614 0.6293-1.072 0.864-0.448 0.224-1.035 0.336-1.76 0.336zm0.8-1.728c0.522 0 0.96-0.1493 1.312-0.448 0.362-0.2987 0.544-0.7093 0.544-1.232v-0.352h-1.936c-0.363 0-0.635 0.096-0.816 0.288-0.171 0.192-0.256 0.416-0.256 0.672 0 0.3093 0.085 0.5653 0.256 0.768 0.181 0.2027 0.48 0.304 0.896 0.304zm5.841-6.96h2.272v1.152c0.107-0.1707 0.24-0.336 0.4-0.496 0.171-0.1707 0.368-0.32 0.592-0.448s0.475-0.2293 0.752-0.304 0.576-0.112 0.896-0.112c1.195 0 2.101 0.352 2.72 1.056s0.928 1.7547 0.928 3.152v0.32c0 0.7253-0.085 1.36-0.256 1.904s-0.416 0.9973-0.736 1.36-0.704 0.64-1.152 0.832c-0.448 0.1813-0.949 0.272-1.504 0.272-0.48 0-0.939-0.1067-1.376-0.32-0.427-0.224-0.784-0.544-1.072-0.96v4.272h-2.464v-11.68zm4.32 6.656c0.491 0 0.896-0.1973 1.216-0.592 0.331-0.3947 0.496-0.976 0.496-1.744v-0.32c0-0.736-0.16-1.28-0.48-1.632-0.309-0.3627-0.72-0.544-1.232-0.544-0.523 0-0.965 0.1653-1.328 0.496-0.352 0.32-0.528 0.8-0.528 1.44v0.8c0 0.672 0.176 1.1893 0.528 1.552 0.363 0.3627 0.805 0.544 1.328 0.544zm7.495-4.64h-2.608v-2.016h7.68v2.016h-2.608v6.464h-2.464v-6.464zm10.029 6.672c-0.598 0-1.158-0.0853-1.68-0.256-0.523-0.1813-0.982-0.4533-1.376-0.816-0.395-0.3627-0.704-0.816-0.928-1.36-0.224-0.5547-0.336-1.2-0.336-1.936v-0.32c0-0.6933 0.112-1.3013 0.336-1.824s0.533-0.96 0.928-1.312c0.394-0.352 0.853-0.6187 1.376-0.8 0.522-0.1813 1.082-0.272 1.68-0.272 0.597 0 1.157 0.0907 1.68 0.272 0.522 0.1813 0.981 0.448 1.376 0.8 0.394 0.352 0.704 0.7893 0.928 1.312s0.336 1.1307 0.336 1.824v0.32c0 0.7253-0.112 1.3653-0.336 1.92-0.224 0.544-0.534 0.9973-0.928 1.36-0.395 0.3627-0.854 0.6347-1.376 0.816-0.523 0.1813-1.083 0.272-1.68 0.272zm0-2.048c0.576 0 1.018-0.208 1.328-0.624 0.309-0.416 0.464-0.9813 0.464-1.696v-0.32c0-0.64-0.155-1.1573-0.464-1.552-0.31-0.4053-0.752-0.608-1.328-0.608s-1.019 0.2027-1.328 0.608c-0.31 0.3947-0.464 0.912-0.464 1.552v0.32c0 0.736 0.154 1.3067 0.464 1.712 0.309 0.4053 0.752 0.608 1.328 0.608zm10.569-1.136c-0.245 0.1387-0.528 0.2667-0.848 0.384s-0.736 0.176-1.248 0.176c-1.077 0-1.866-0.256-2.368-0.768-0.501-0.512-0.752-1.2907-0.752-2.336v-2.96h2.464v2.72c0 0.4693 0.102 0.8053 0.304 1.008 0.203 0.192 0.56 0.288 1.072 0.288 0.363 0 0.662-0.0427 0.896-0.128 0.235-0.096 0.395-0.1867 0.48-0.272v-3.616h2.464v8.48h-2.464v-2.976zm4.228-5.504h2.464v3.216h0.64l2.368-3.216h2.688l-3.12 3.984 3.28 4.496h-2.912l-2.304-3.376h-0.64v3.376h-2.464v-8.48zm11.765 8.688c-0.459 0-0.87-0.0693-1.232-0.208-0.352-0.1387-0.651-0.3253-0.896-0.56-0.246-0.2453-0.432-0.528-0.56-0.848-0.128-0.3307-0.192-0.688-0.192-1.072 0-0.8427 0.256-1.488 0.768-1.936 0.522-0.448 1.306-0.672 2.352-0.672h2.416v-0.352c0-0.512-0.123-0.864-0.368-1.056-0.246-0.2027-0.582-0.304-1.008-0.304-0.406 0-0.704 0.064-0.896 0.192s-0.299 0.3307-0.32 0.608h-2.464c0.021-0.384 0.117-0.736 0.288-1.056 0.17-0.3307 0.41-0.6133 0.72-0.848 0.32-0.2453 0.709-0.4373 1.168-0.576 0.458-0.1387 0.986-0.208 1.584-0.208 0.554 0 1.061 0.064 1.52 0.192 0.469 0.1173 0.869 0.3147 1.2 0.592 0.33 0.2667 0.586 0.6187 0.768 1.056 0.181 0.4267 0.272 0.9493 0.272 1.568v3.12c0 0.448 0.01 0.8427 0.032 1.184 0.021 0.3307 0.053 0.656 0.096 0.976h-2.336c-0.022-0.1813-0.043-0.3413-0.064-0.48-0.011-0.1387-0.016-0.3093-0.016-0.512-0.256 0.3413-0.614 0.6293-1.072 0.864-0.448 0.224-1.035 0.336-1.76 0.336zm0.8-1.728c0.522 0 0.96-0.1493 1.312-0.448 0.362-0.2987 0.544-0.7093 0.544-1.232v-0.352h-1.936c-0.363 0-0.635 0.096-0.816 0.288-0.171 0.192-0.256 0.416-0.256 0.672 0 0.3093 0.085 0.5653 0.256 0.768 0.181 0.2027 0.48 0.304 0.896 0.304zm-96.98 21.728c-0.6293 0-1.2106-0.091-1.744-0.272-0.5226-0.181-0.976-0.453-1.36-0.816s-0.6826-0.816-0.896-1.36c-0.2133-0.544-0.32-1.184-0.32-1.92v-0.32c0-0.672 0.112-1.269 0.336-1.792 0.2347-0.523 0.544-0.96 0.928-1.312 0.3947-0.363 0.8534-0.6347 1.376-0.816 0.5227-0.192 1.0827-0.288 1.68-0.288 0.64 0 1.2 0.0853 1.68 0.256 0.4907 0.1707 0.9014 0.4053 1.232 0.704 0.3307 0.288 0.5867 0.629 0.768 1.024 0.1814 0.395 0.288 0.816 0.32 1.264h-2.528c-0.0853-0.384-0.2453-0.677-0.48-0.88-0.224-0.213-0.5546-0.32-0.992-0.32-0.5226 0-0.9546 0.181-1.296 0.544-0.3306 0.352-0.496 0.891-0.496 1.616v0.32c0 0.789 0.16 1.371 0.48 1.744 0.3307 0.373 0.768 0.56 1.312 0.56 0.3734 0 0.688-0.096 0.944-0.288 0.2667-0.203 0.4427-0.501 0.528-0.896h2.528c-0.032 0.501-0.1493 0.955-0.352 1.36-0.2026 0.395-0.48 0.731-0.832 1.008-0.3413 0.277-0.752 0.496-1.232 0.656-0.4693 0.149-0.9973 0.224-1.584 0.224zm8.7188-8.688h8v8.48h-2.464v-6.464h-3.072v6.464h-2.464v-8.48zm9.5938 0h2.272v1.152c0.107-0.171 0.24-0.336 0.4-0.496 0.171-0.171 0.368-0.32 0.592-0.448s0.475-0.2293 0.752-0.304 0.576-0.112 0.896-0.112c1.195 0 2.101 0.352 2.72 1.056s0.928 1.755 0.928 3.152v0.32c0 0.725-0.085 1.36-0.256 1.904s-0.416 0.997-0.736 1.36-0.704 0.64-1.152 0.832c-0.448 0.181-0.949 0.272-1.504 0.272-0.48 0-0.939-0.107-1.376-0.32-0.427-0.224-0.784-0.544-1.072-0.96v4.272h-2.464v-11.68zm4.32 6.656c0.491 0 0.896-0.197 1.216-0.592 0.331-0.395 0.496-0.976 0.496-1.744v-0.32c0-0.736-0.16-1.28-0.48-1.632-0.309-0.363-0.72-0.544-1.232-0.544-0.523 0-0.965 0.165-1.328 0.496-0.352 0.32-0.528 0.8-0.528 1.44v0.8c0 0.672 0.176 1.189 0.528 1.552 0.363 0.363 0.805 0.544 1.328 0.544zm9.604 2.032c-0.619 0-1.2-0.085-1.744-0.256-0.534-0.181-0.998-0.453-1.392-0.816-0.395-0.363-0.704-0.816-0.928-1.36-0.224-0.555-0.336-1.2-0.336-1.936v-0.32c0-0.704 0.106-1.317 0.32-1.84 0.224-0.523 0.522-0.96 0.896-1.312 0.384-0.352 0.832-0.6133 1.344-0.784 0.522-0.1813 1.082-0.272 1.68-0.272 1.397 0 2.453 0.3627 3.168 1.088 0.714 0.715 1.072 1.755 1.072 3.12v0.88h-5.952c0.01 0.331 0.069 0.613 0.176 0.848 0.106 0.224 0.245 0.411 0.416 0.56 0.17 0.149 0.362 0.261 0.576 0.336 0.224 0.064 0.458 0.096 0.704 0.096 0.469 0 0.837-0.069 1.104-0.208 0.277-0.149 0.458-0.347 0.544-0.592h2.272c-0.171 0.928-0.592 1.621-1.264 2.08s-1.558 0.688-2.656 0.688zm-0.08-6.944c-0.224 0-0.443 0.027-0.656 0.08-0.203 0.053-0.39 0.144-0.56 0.272-0.16 0.117-0.294 0.272-0.4 0.464-0.096 0.192-0.15 0.427-0.16 0.704h3.52c0-0.299-0.048-0.544-0.144-0.736s-0.224-0.347-0.384-0.464c-0.15-0.117-0.331-0.197-0.544-0.24-0.214-0.053-0.438-0.08-0.672-0.08zm4.799 4.72h0.896c0.224-0.331 0.384-0.784 0.48-1.36 0.096-0.587 0.144-1.381 0.144-2.384v-2.72h6.96v6.464h0.96v4.016h-2.08v-2h-5.28v2h-2.08v-4.016zm6.016 0v-4.448h-2.224v1.024c0 0.8-0.043 1.477-0.128 2.032-0.075 0.555-0.192 1.019-0.352 1.392h2.704zm8.466 2.224c-0.629 0-1.211-0.091-1.744-0.272-0.523-0.181-0.976-0.453-1.36-0.816s-0.683-0.816-0.896-1.36-0.32-1.184-0.32-1.92v-0.32c0-0.672 0.112-1.269 0.336-1.792 0.235-0.523 0.544-0.96 0.928-1.312 0.395-0.363 0.853-0.6347 1.376-0.816 0.523-0.192 1.083-0.288 1.68-0.288 0.64 0 1.2 0.0853 1.68 0.256 0.491 0.1707 0.901 0.4053 1.232 0.704 0.331 0.288 0.587 0.629 0.768 1.024s0.288 0.816 0.32 1.264h-2.528c-0.085-0.384-0.245-0.677-0.48-0.88-0.224-0.213-0.555-0.32-0.992-0.32-0.523 0-0.955 0.181-1.296 0.544-0.331 0.352-0.496 0.891-0.496 1.616v0.32c0 0.789 0.16 1.371 0.48 1.744 0.331 0.373 0.768 0.56 1.312 0.56 0.373 0 0.688-0.096 0.944-0.288 0.267-0.203 0.443-0.501 0.528-0.896h2.528c-0.032 0.501-0.149 0.955-0.352 1.36-0.203 0.395-0.48 0.731-0.832 1.008-0.341 0.277-0.752 0.496-1.232 0.656-0.469 0.149-0.997 0.224-1.584 0.224zm5.203-8.688h2.464v3.216h0.64l2.368-3.216h2.688l-3.12 3.984 3.28 4.496h-2.912l-2.304-3.376h-0.64v3.376h-2.464v-8.48zm11.765 8.688c-0.459 0-0.869-0.069-1.232-0.208-0.352-0.139-0.651-0.325-0.896-0.56-0.245-0.245-0.432-0.528-0.56-0.848-0.128-0.331-0.192-0.688-0.192-1.072 0-0.843 0.256-1.488 0.768-1.936 0.523-0.448 1.307-0.672 2.352-0.672h2.416v-0.352c0-0.512-0.123-0.864-0.368-1.056-0.245-0.203-0.581-0.304-1.008-0.304-0.405 0-0.704 0.064-0.896 0.192s-0.299 0.331-0.32 0.608h-2.464c0.021-0.384 0.117-0.736 0.288-1.056 0.171-0.331 0.411-0.613 0.72-0.848 0.32-0.2453 0.709-0.4373 1.168-0.576s0.987-0.208 1.584-0.208c0.555 0 1.061 0.064 1.52 0.192 0.469 0.1173 0.869 0.3147 1.2 0.592 0.331 0.267 0.587 0.619 0.768 1.056 0.181 0.427 0.272 0.949 0.272 1.568v3.12c0 0.448 0.011 0.843 0.032 1.184 0.021 0.331 0.053 0.656 0.096 0.976h-2.336c-0.021-0.181-0.043-0.341-0.064-0.48-0.011-0.139-0.016-0.309-0.016-0.512-0.256 0.341-0.613 0.629-1.072 0.864-0.448 0.224-1.035 0.336-1.76 0.336zm0.8-1.728c0.523 0 0.96-0.149 1.312-0.448 0.363-0.299 0.544-0.709 0.544-1.232v-0.352h-1.936c-0.363 0-0.635 0.096-0.816 0.288-0.171 0.192-0.256 0.416-0.256 0.672 0 0.309 0.085 0.565 0.256 0.768 0.181 0.203 0.48 0.304 0.896 0.304zm9.457 1.728c-1.376 0-2.378-0.267-3.008-0.8-0.629-0.533-0.965-1.296-1.008-2.288h2.528c0.022 0.16 0.048 0.304 0.08 0.432 0.043 0.128 0.112 0.24 0.208 0.336 0.107 0.096 0.251 0.171 0.432 0.224 0.182 0.043 0.427 0.064 0.736 0.064 0.534 0 0.918-0.085 1.152-0.256 0.235-0.181 0.352-0.379 0.352-0.592 0-0.277-0.106-0.48-0.32-0.608-0.213-0.139-0.56-0.208-1.04-0.208h-1.104v-1.632h0.976c0.822 0 1.232-0.261 1.232-0.784 0-0.213-0.101-0.395-0.304-0.544-0.202-0.149-0.512-0.224-0.928-0.224-0.458 0-0.784 0.085-0.976 0.256s-0.304 0.416-0.336 0.736h-2.528c0.054-1.003 0.406-1.755 1.056-2.256 0.662-0.5013 1.59-0.752 2.784-0.752 1.195 0 2.107 0.224 2.736 0.672 0.63 0.437 0.944 1.045 0.944 1.824 0 0.405-0.096 0.768-0.288 1.088s-0.512 0.555-0.96 0.704c0.619 0.139 1.035 0.373 1.248 0.704 0.224 0.331 0.336 0.72 0.336 1.168 0 0.395-0.09 0.763-0.272 1.104-0.181 0.331-0.442 0.619-0.784 0.864-0.341 0.235-0.762 0.421-1.264 0.56-0.49 0.139-1.05 0.208-1.68 0.208zm7.915 0c-0.459 0-0.869-0.069-1.232-0.208-0.352-0.139-0.651-0.325-0.896-0.56-0.245-0.245-0.432-0.528-0.56-0.848-0.128-0.331-0.192-0.688-0.192-1.072 0-0.843 0.256-1.488 0.768-1.936 0.523-0.448 1.307-0.672 2.352-0.672h2.416v-0.352c0-0.512-0.123-0.864-0.368-1.056-0.245-0.203-0.581-0.304-1.008-0.304-0.405 0-0.704 0.064-0.896 0.192s-0.299 0.331-0.32 0.608h-2.464c0.021-0.384 0.117-0.736 0.288-1.056 0.171-0.331 0.411-0.613 0.72-0.848 0.32-0.2453 0.709-0.4373 1.168-0.576s0.987-0.208 1.584-0.208c0.555 0 1.061 0.064 1.52 0.192 0.469 0.1173 0.869 0.3147 1.2 0.592 0.331 0.267 0.587 0.619 0.768 1.056 0.181 0.427 0.272 0.949 0.272 1.568v3.12c0 0.448 0.011 0.843 0.032 1.184 0.021 0.331 0.053 0.656 0.096 0.976h-2.336c-0.021-0.181-0.043-0.341-0.064-0.48-0.011-0.139-0.016-0.309-0.016-0.512-0.256 0.341-0.613 0.629-1.072 0.864-0.448 0.224-1.035 0.336-1.76 0.336zm0.8-1.728c0.523 0 0.96-0.149 1.312-0.448 0.363-0.299 0.544-0.709 0.544-1.232v-0.352h-1.936c-0.363 0-0.635 0.096-0.816 0.288-0.171 0.192-0.256 0.416-0.256 0.672 0 0.309 0.085 0.565 0.256 0.768 0.181 0.203 0.48 0.304 0.896 0.304zm5.841-6.96h2.464v3.152h3.232v-3.152h2.464v8.48h-2.464v-3.312h-3.232v3.312h-2.464v-8.48zm9.766 0h2.4v5.12l3.6-5.12h2.16v8.48h-2.4v-5.12l-3.6 5.12h-2.16v-8.48zm13.845 8.688c-0.618 0-1.2-0.085-1.744-0.256-0.533-0.181-0.997-0.453-1.392-0.816-0.394-0.363-0.704-0.816-0.928-1.36-0.224-0.555-0.336-1.2-0.336-1.936v-0.32c0-0.704 0.107-1.317 0.32-1.84 0.224-0.523 0.523-0.96 0.896-1.312 0.384-0.352 0.832-0.6133 1.344-0.784 0.523-0.1813 1.083-0.272 1.68-0.272 1.398 0 2.454 0.3627 3.168 1.088 0.715 0.715 1.072 1.755 1.072 3.12v0.88h-5.952c0.011 0.331 0.07 0.613 0.176 0.848 0.107 0.224 0.246 0.411 0.416 0.56 0.171 0.149 0.363 0.261 0.576 0.336 0.224 0.064 0.459 0.096 0.704 0.096 0.47 0 0.838-0.069 1.104-0.208 0.278-0.149 0.459-0.347 0.544-0.592h2.272c-0.17 0.928-0.592 1.621-1.264 2.08s-1.557 0.688-2.656 0.688zm-0.08-6.944c-0.224 0-0.442 0.027-0.656 0.08-0.202 0.053-0.389 0.144-0.56 0.272-0.16 0.117-0.293 0.272-0.4 0.464-0.096 0.192-0.149 0.427-0.16 0.704h3.52c0-0.299-0.048-0.544-0.144-0.736s-0.224-0.347-0.384-0.464c-0.149-0.117-0.33-0.197-0.544-0.24-0.213-0.053-0.437-0.08-0.672-0.08zm5.438-1.744h2.992l2.016 4.208 2.016-4.208h2.896v8.48h-2.336v-5.2l-1.824 3.6h-1.6l-1.824-3.6v5.2h-2.336v-8.48z" fill="#091F52"/>
  <g id="g130" clip-path="url(#clip1_116_18200)">
   <path id="path106" d="m181.23 41.793-19.031-13.11c-1.139-0.7841-3.137-0.8642-4.462-0.1771l-36.647 19.066c-1.325 0.6872-1.469 1.8843-0.33 2.6684l16.262 11.204h-0.301l0.557 2.5545h4.643v-0.0084c0.817 0.0379 1.663-0.1138 2.332-0.4595l36.643-19.066c1.329-0.6913 1.473-1.8843 0.334-2.6725z" fill="#C0D6F6"/>
   <path id="path108" d="m171.85 38.43c8e-3 0.4426-0.24 0.8936-0.751 1.2604l-31.323 22.607c-1.131 0.8178-3.128 0.94-4.457 0.2782l-22.206-11.061c-0.726-0.3625-1.106-0.8852-1.114-1.4164l0.021 1.0033c8e-3 0.5311 0.388 1.0538 1.114 1.4163l22.201 11.061c1.333 0.6618 3.327 0.5395 4.458-0.2782l31.322-22.603c0.512-0.371 0.76-0.822 0.751-1.2604l-0.016-1.0075z" fill="#81ABEE"/>
   <path id="path110" d="m170.74 37.014c1.333 0.6618 1.494 1.8632 0.363 2.6768l-31.322 22.607c-1.131 0.8178-3.129 0.94-4.458 0.2782l-22.205-11.061c-1.333-0.6618-1.494-1.8632-0.363-2.6768l31.322-22.603c1.131-0.8177 3.129-0.94 4.458-0.2782l22.205 11.057z" fill="#E4EDFB"/>
   <path id="path112" d="m173.31 39.62-34.113 20.246c-1.23 0.7293-3.236 0.7293-4.474 0l-20.665-12.187c-0.624-0.3668-0.937-0.8515-0.933-1.3321l-4e-3 1.0117c0 0.4806 0.309 0.9653 0.932 1.3321l20.666 12.187c1.238 0.7292 3.244 0.7292 4.474 0l34.113-20.246c0.611-0.3626 0.916-0.8389 0.92-1.3152l4e-3 -1.0117c0 0.4763-0.309 0.9484-0.92 1.3152z" fill="#81ABEE"/>
   <path id="path114" d="m173.3 36.972c1.238 0.7292 1.246 1.9137 0.016 2.6472l-34.116 20.246c-1.23 0.7293-3.236 0.7293-4.474 0l-20.666-12.187c-1.238-0.7293-1.247-1.9138-0.017-2.6473l34.113-20.246c1.23-0.7292 3.236-0.7292 4.474 0l20.67 12.187z" fill="#E4EDFB"/>
   <path id="path116" d="m176.1 36.227c4e-3 0.5353-0.368 1.0664-1.098 1.4458l-36.643 19.066c-1.325 0.6871-3.318 0.6071-4.462-0.177l-19.035-13.11c-0.512-0.3541-0.764-0.7883-0.768-1.2267l9e-3 1.0033c4e-3 0.4342 0.255 0.8726 0.767 1.2267l19.031 13.11c1.144 0.7882 3.137 0.8641 4.462 0.177l36.643-19.066c0.726-0.3794 1.102-0.9105 1.098-1.4459l-4e-3 -1.0032z" fill="#81ABEE"/>
   <path id="path118" d="m175.33 35c1.143 0.7883 0.995 1.9812-0.33 2.6683l-36.639 19.07c-1.325 0.6872-3.318 0.6071-4.461-0.177l-19.036-13.11c-1.139-0.784-0.994-1.9812 0.33-2.6683l36.643-19.07c1.325-0.6871 3.323-0.607 4.462 0.177l19.031 13.11z" fill="#E4EDFB"/>
   <path id="path120" d="m178.88 36.074c5e-3 0.6028-0.47 1.2014-1.362 1.5766l-39.791 16.748c-1.437 0.6028-3.405 0.4047-4.4-0.4468l-16.584-14.214c-0.376-0.3246-0.561-0.6913-0.561-1.0623l8e-3 1.0033c4e-3 0.3667 0.186 0.7376 0.561 1.0622l16.584 14.214c0.995 0.8515 2.964 1.0539 4.4 0.4469l39.792-16.752c0.891-0.3752 1.37-0.9737 1.362-1.5765l-9e-3 -0.9991z" fill="#81ABEE"/>
   <path id="path122" d="m178.31 35.012c0.995 0.8515 0.636 2.0318-0.801 2.6388l-39.792 16.748c-1.436 0.6028-3.405 0.4047-4.399-0.4468l-16.584-14.214c-0.995-0.8515-0.64-2.0318 0.796-2.6388l39.792-16.752c1.437-0.6028 3.405-0.4047 4.4 0.4468l16.588 14.218z" fill="#E4EDFB"/>
   <path id="path124" d="m175.73 35.21c0.912 0.7798 0.582 1.8632-0.73 2.4154l-36.445 15.344c-1.317 0.5522-3.12 0.371-4.032-0.4089l-15.189-13.017c-0.912-0.7798-0.582-1.8632 0.73-2.4154l36.445-15.344c1.317-0.5523 3.12-0.371 4.032 0.4088l15.189 13.017z" fill="#81ABEE"/>
   <path id="path126" d="m173.44 35.387c0.838 0.7166 0.537 1.7114-0.673 2.2215l-33.485 14.096c-1.209 0.51-2.868 0.3414-3.706-0.3794l-13.959-11.963c-0.838-0.7166-0.536-1.7115 0.673-2.2215l33.489-14.096c1.21-0.5101 2.869-0.3415 3.707 0.3794l13.954 11.963z" fill="#214EB0"/>
   <path id="path128" d="m154.51 41.724-2.922-2.6262c0.013-0.0084 0.029-0.0169 0.041-0.0253 9e-3 -0.0042 0.017-0.0084 0.025-0.0126l4.437 1.7367-3.781-2.2131c0.017-0.0168 0.033-0.0295 0.05-0.0463l4.949 1.155-4.474-1.703c0.012-0.0169 0.02-0.0338 0.033-0.0506l5.241 0.5227-4.973-1.1171c4e-3 -0.0168 0.012-0.0379 0.016-0.0548l5.304-0.1307-5.25-0.4847c0-0.0169-4e-3 -0.038-4e-3 -0.0548l5.134-0.7799-5.299 0.1686c-8e-3 -0.0168-0.017-0.0337-0.025-0.0548l4.738-1.3952-5.118 0.8177c-0.012-0.0168-0.028-0.0337-0.041-0.0505l4.136-1.9475-4.71 1.429c-0.02-0.0127-0.037-0.0295-0.057-0.0422l3.355-2.4154-4.094 1.977c-0.013-0.0042-0.021-0.0126-0.033-0.0169l2.468-2.761-3.339 2.4196c-0.029-0.0084-0.054-0.0169-0.083-0.0253l1.437-3.0098-2.411 2.7822c-0.029-0.0042-0.062-0.0084-0.09-0.0127l0.338-3.1236-1.37 3.0183c-0.029 0-0.062-0.0043-0.091-0.0043l-0.772-3.0983-0.272 3.1236c-0.029 0.0042-0.062 0.0042-0.091 0.0085l-1.849-2.9424 0.838 3.0941c-0.029 0.0042-0.058 0.0127-0.087 0.0211l-2.844-2.6557 1.911 2.9297c-0.025 0.0084-0.053 0.0211-0.078 0.0295l-3.715-2.251 2.902 2.6346c-0.021 0.0126-0.042 0.0211-0.062 0.0337 0 0-4e-3 0-4e-3 0.0042l-4.425-1.7493 3.764 2.2215c-0.016 0.0168-0.033 0.0295-0.049 0.0463l-4.937-1.1676 4.454 1.7241c-0.013 0.0168-0.021 0.0337-0.033 0.0505l-5.238-0.5395 4.961 1.1339c-4e-3 0.0169-0.012 0.0379-0.016 0.0548l-5.304 0.1138 5.246 0.4974c0 0.0169 4e-3 0.038 4e-3 0.0548l-5.138 0.763 5.299-0.156c8e-3 0.0169 0.017 0.0338 0.025 0.0548l-4.747 1.3869 5.122-0.8009c0.013 0.0168 0.029 0.0337 0.042 0.0506l-4.152 1.9306 4.721-1.4164c0.021 0.0127 0.037 0.0295 0.058 0.0422l-3.372 2.4028 4.111-1.9644c0.025 0.0126 0.049 0.0253 0.07 0.0337l-2.447 2.7695 3.318-2.428c0.029 0.0084 0.058 0.0168 0.082 0.0253l-1.411 3.0139 2.386-2.7863c0.028 0.0042 0.057 0.0084 0.09 0.0126l-0.313 3.1236 1.345-3.0224c0.029 0 0.062 0.0042 0.091 0.0042l0.797 3.0983 0.247-3.1278c0.029-0.0042 0.062-0.0042 0.091-0.0084l1.874 2.9381-0.863-3.0941c0.029-0.0042 0.058-0.0126 0.087-0.0211l2.864 2.6473-1.935-2.9213c0.024-0.0084 0.053-0.0168 0.078-0.0295l3.739 2.2384z" fill="#E9A35D"/>
  </g>
 </g>
 <defs id="defs155">
  <linearGradient id="paint0_linear_116_18200" x1="293.26" x2="199.36" y1="183.11" y2="-74.191" gradientUnits="userSpaceOnUse">
   <stop id="stop134" stop-color="#091F52" offset="0"/>
   <stop id="stop136" stop-color="#3D75E4" offset="1"/>
  </linearGradient>
  <linearGradient id="paint1_linear_116_18200" x1="45" x2="148.22" y1="168" y2="-35.195" gradientUnits="userSpaceOnUse">
   <stop id="stop139" stop-color="#E4EDFB" offset="0"/>
   <stop id="stop141" stop-color="#F6F9FE" offset="1"/>
  </linearGradient>
  <linearGradient id="paint2_linear_116_18200" x1="240.53" x2="163.35" y1="159.34" y2="-23.611" gradientUnits="userSpaceOnUse">
   <stop id="stop144" stop-color="#091F52" offset="0"/>
   <stop id="stop146" stop-color="#3D75E4" offset="1"/>
  </linearGradient>
  <clipPath id="clip0_116_18200">
   <rect id="rect149" width="294" height="184" fill="#fff"/>
  </clipPath>
  <clipPath id="clip1_116_18200">
   <rect id="rect152" transform="translate(112 20)" width="70" height="44" fill="#fff"/>
  </clipPath>
 </defs>
</svg>
