<svg id="svg149" width="294" height="184" fill="none" inkscape:version="1.1.1 (1:1.1+202109281949+c3084ef5ed)" sodipodi:docname="Collection_WMN (1).svg" version="1.1" viewBox="0 0 294 184" xmlns="http://www.w3.org/2000/svg" xmlns:inkscape="http://www.inkscape.org/namespaces/inkscape" xmlns:sodipodi="http://sodipodi.sourceforge.net/DTD/sodipodi-0.dtd">
 <sodipodi:namedview id="namedview151" bordercolor="#666666" borderopacity="1.0" inkscape:current-layer="svg149" inkscape:cx="111.6443" inkscape:cy="85.016496" inkscape:pagecheckerboard="0" inkscape:pageopacity="0.0" inkscape:pageshadow="2" inkscape:window-height="997" inkscape:window-maximized="1" inkscape:window-width="1920" inkscape:window-x="0" inkscape:window-y="28" inkscape:zoom="1.5585211" pagecolor="#ffffff" showgrid="false"/>
 <g id="g134" clip-path="url(#clip0_121_18406)">
  <rect id="rect2" width="294" height="184" rx="16" fill="url(#paint0_linear_121_18406)"/>
  <rect id="rect4" x="16" y="16" width="262" height="152" rx="16" fill="#fff"/>
  <g fill="#C0D6F6">
   <path id="path6" d="m37.119 172.21c-0.2831-0.716-1.2339-0.857-1.7126-0.255l-4.4783 5.634c-0.4781 0.602-0.1275 1.495 0.632 1.611l7.1398 1.089c0.7631 0.117 1.3647-0.639 1.0806-1.356l-2.6615-6.723z"/>
   <path id="path8" d="m192.02 171.7c-0.706-0.312-1.484 0.259-1.399 1.026l0.843 7.531c0.087 0.769 0.975 1.153 1.594 0.689l6.004-4.5c0.612-0.458 0.504-1.405-0.195-1.715l-6.847-3.031z"/>
   <path id="path10" d="m198.26 3c-0.761 0-1.243 0.81497-0.877 1.4814l3.804 6.925c0.379 0.691 1.372 0.6915 1.752 1e-3l3.814-6.925c0.367-0.66646-0.115-1.4824-0.876-1.4824h-7.617z"/>
   <path id="path12" d="m10.408 39.551c0.7058-0.3118 1.4838 0.2592 1.398 1.0259l-0.8431 7.532c-0.0861 0.7689-0.97528 1.153-1.5941 0.6885l-6.0042-4.5066c-0.61115-0.4587-0.50281-1.4057 0.19616-1.7145l6.8472-3.0253z"/>
  </g>
  <path id="path14" d="m5.73 16.718c0.08837-0.7641 0.97029-1.1465 1.5885-0.6888l5.8154 4.3061c0.6175 0.4572 0.5102 1.411-0.1935 1.7195l-6.6507 2.9161c-0.70695 0.3099-1.4836-0.264-1.3949-1.0308l0.83528-7.2221z" fill="#8DC95E"/>
  <g fill="#BB9AF4">
   <path id="path16" d="m91.788 172.4c-0.3895-0.639-1.3162-0.639-1.7065-1e-3l-3.7221 6.082c-0.4078 0.666 0.0718 1.522 0.853 1.522h7.4339c0.7806 0 1.2602-0.855 0.8536-1.521l-3.7119-6.082z"/>
   <path id="path18" d="m47.37 4.5926c-0.3804-0.69055-1.3729-0.68998-1.7525 0.00102l-3.8034 6.925c-0.3661 0.6664 0.1161 1.4814 0.8765 1.4814h7.6174c0.7609 0 1.243-0.816 0.8759-1.4824l-3.8139-6.925z"/>
   <path id="path20" d="m275.42 5.5203c0.202-0.74022 1.127-0.98758 1.671-0.44649l5.28 5.2542c0.546 0.5438 0.298 1.4753-0.447 1.6748l-7.235 1.9388c-0.745 0.1996-1.426-0.4839-1.224-1.2283l1.955-7.1931z"/>
   <path id="path22" d="m177.95 4.5936c-0.379-0.69099-1.372-0.69157-1.752-0.00102l-3.814 6.925c-0.367 0.6664 0.115 1.4824 0.876 1.4824h7.617c0.761 0 1.243-0.815 0.877-1.4814l-3.804-6.925z"/>
   <path id="path24" d="m276.79 171.4c-0.39-0.639-1.317-0.639-1.707-1e-3l-3.722 6.082c-0.408 0.666 0.072 1.522 0.853 1.522h7.434c0.781 0 1.26-0.855 0.854-1.521l-3.712-6.082z"/>
   <path id="path26" d="m7.0997 144.38c0.36812-0.737 1.4199-0.738 1.7888-1e-3l3.3867 6.764c0.3329 0.665-0.1506 1.448-0.8942 1.448h-6.764c-0.74314 0-1.2266-0.782-0.89467-1.447l3.3773-6.764z"/>
  </g>
  <path id="path28" d="m60.969 174.08c-0.7035 0.256-0.8864 1.166-0.3365 1.674l5.4284 5.015c0.5783 0.535 1.5187 0.222 1.6619-0.552l1.3869-7.497c0.1407-0.761-0.5986-1.386-1.3255-1.122l-6.8152 2.482z" fill="#D06E0B"/>
  <path id="path30" d="m119.69 4.1064c-0.771 0.05154-1.194 0.91976-0.761 1.5589l4.19 6.1808c0.431 0.6352 1.387 0.5687 1.725-0.12l3.284-6.6807c0.34-0.69087-0.196-1.4903-0.964-1.4389l-7.474 0.49989z" fill="#E9A35D"/>
  <path id="path32" d="m245.13 174.06c-0.744 0.245-0.93 1.21-0.331 1.714l6.102 5.137c0.581 0.488 1.473 0.178 1.624-0.566l1.559-7.661c0.153-0.753-0.564-1.39-1.293-1.15l-7.661 2.526z" fill="#D06E0B"/>
  <path id="path34" d="m17.298 170.33c0.7435 0.245 0.9299 1.211 0.331 1.715l-5.3061 4.466c-0.5806 0.488-1.4725 0.178-1.6238-0.566l-1.3556-6.662c-0.1531-0.752 0.56372-1.389 1.2929-1.149l6.6616 2.196z" fill="#D06E0B"/>
  <path id="path36" d="m217.7 176.5c-0.548 0.57-0.25 1.52 0.525 1.674l7.493 1.489c0.758 0.15 1.394-0.58 1.139-1.31l-2.371-6.812c-0.245-0.704-1.148-0.902-1.665-0.364l-5.121 5.323z" fill="#F7CFD5"/>
  <path id="path38" d="m281.11 155.55c-0.5 0.573-0.202 1.473 0.542 1.634l6.658 1.446c0.751 0.163 1.398-0.547 1.165-1.28l-2.113-6.659c-0.236-0.743-1.194-0.942-1.707-0.354l-4.545 5.213z" fill="#F7CFD5"/>
  <path id="path40" d="m289.48 77.425c0.702 0.2277 0.924 1.1118 0.413 1.6441l-4.402 4.5812c-0.554 0.5763-1.527 0.3022-1.698-0.4785l-1.42-6.4685c-0.166-0.7546 0.55-1.4039 1.285-1.1657l5.822 1.8874z" fill="#E9A35D"/>
  <path id="path42" d="m12.733 71.357c0.5478 0.5704 0.2482 1.5207-0.5276 1.6738l-7.4936 1.4788c-0.75795 0.1496-1.392-0.5802-1.138-1.3098l2.3714-6.8124c0.24539-0.7049 1.1486-0.9022 1.6657-0.3639l5.1221 5.3335z" fill="#F7CFD5"/>
  <path id="path44" d="m290.21 107.48c0.354 0.679-0.157 1.488-0.923 1.46l-6.569-0.239c-0.766-0.028-1.217-0.871-0.815-1.524l3.492-5.672c0.407-0.662 1.38-0.627 1.739 0.062l3.076 5.913z" fill="#81ABEE"/>
  <g fill="#C7E6A8">
   <path id="path46" d="m165.15 171.14c-0.766-0.061-1.311 0.73-0.982 1.425l3.25 6.867c0.33 0.697 1.292 0.774 1.729 0.138l4.303-6.271c0.435-0.634 0.021-1.502-0.746-1.562l-7.554-0.597z"/>
   <path id="path48" d="m93.18 3.0213c-0.7261-0.25676-1.4577 0.36917-1.3164 1.1262l1.3663 7.321c0.1409 0.7548 1.0446 1.0758 1.63 0.579l5.6877-4.8265c0.588-0.49912 0.414-1.4481-0.313-1.7053l-7.0546-2.4945z"/>
   <path id="path50" d="m290.27 51.135c0.768-0.0601 1.313 0.7347 0.979 1.4295l-2.821 5.8826c-0.332 0.6921-1.288 0.7676-1.725 0.1363l-3.714-5.3715c-0.439-0.6344-0.024-1.5056 0.744-1.5657l6.537-0.5112z"/>
   <path id="path52" d="m11.275 89.986c0.767-0.0616 1.3132 0.7299 0.9836 1.4251l-3.2548 6.8661c-0.33028 0.6968-1.2916 0.7734-1.728 0.1377l-4.298-6.26c-0.43521-0.6339-0.02204-1.5013 0.7444-1.5628l7.5527-0.6061z"/>
  </g>
  <g fill="#E14761">
   <path id="path54" d="m114 175.12c-0.686 0.38-0.687 1.367-1e-3 1.748l5.941 3.305c0.666 0.371 1.486-0.111 1.486-0.874v-6.601c0-0.762-0.819-1.244-1.485-0.874l-5.941 3.296z"/>
   <path id="path56" d="m289.43 30.12c0.686 0.3806 0.687 1.3669 1e-3 1.7483l-5.941 3.305c-0.666 0.3708-1.486-0.1111-1.486-0.8739v-6.6009c0-0.7622 0.819-1.2442 1.485-0.8745l5.941 3.296z"/>
   <path id="path58" d="m144.62 9.4482c-0.502 0.58637-0.178 1.4955 0.581 1.6337l7.339 1.3359c0.755 0.1375 1.377-0.5924 1.122-1.3165l-2.477-7.0233c-0.256-0.7263-1.203-0.90257-1.703-0.31716l-4.862 5.6874z"/>
   <path id="path60" d="m11.76 121.2c0.5474 0.545 0.2968 1.478-0.45 1.676l-7.0355 1.858c-0.74276 0.197-1.4202-0.483-1.2214-1.225l1.8746-6.996c0.19898-0.743 1.1265-0.992 1.6714-0.45l5.1609 5.137z"/>
  </g>
  <g fill="#E9A35D">
   <path id="path62" d="m289.94 132.19c0.026 0.787-0.826 1.293-1.505 0.895l-5.083-2.98c-0.631-0.37-0.665-1.27-0.063-1.686l4.877-3.373c0.651-0.451 1.543-2e-3 1.568 0.79l0.206 6.354z"/>
   <path id="path64" d="m66.059 11.207c-0.0259 0.7828 0.8174 1.2901 1.4968 0.9006l6.0527-3.4699c0.6419-0.36798 0.6757-1.2814 0.0628-1.6959l-5.8079-3.9278c-0.6517-0.44074-1.5336 0.00896-1.5596 0.79529l-0.2448 7.3977z"/>
   <path id="path66" d="m246.63 11.29c-0.028 0.7646 0.778 1.2763 1.458 0.9254l6.896-3.5581c0.694-0.3579 0.729-1.337 0.062-1.7429l-6.617-4.0277c-0.652-0.39712-1.491 0.05416-1.519 0.8174l-0.28 7.5859z"/>
   <path id="path68" d="m26.937 11.29c0.0282 0.7646-0.7778 1.2763-1.4578 0.9254l-6.8962-3.5581c-0.6937-0.3579-0.7282-1.337-0.0615-1.7429l6.617-4.0277c0.6524-0.39712 1.4911 0.05416 1.5192 0.8174l0.2793 7.5859z"/>
   <path id="path70" d="m137.49 179.36c-0.03 0.75 0.744 1.264 1.423 0.946l6.737-3.154c0.739-0.347 0.774-1.385 0.06-1.781l-6.464-3.581c-0.651-0.361-1.453 0.091-1.483 0.834l-0.273 6.736z"/>
  </g>
  <path id="path72" d="m222.88 8.4414c-0.579 0.51951-0.369 1.4719 0.375 1.7001l7.657 2.351c0.735 0.2258 1.439-0.4284 1.268-1.1782l-1.746-7.6569c-0.169-0.74351-1.075-1.0313-1.643-0.52189l-5.911 5.3059z" fill="#F7CFD5"/>
  <path id="path76" d="m134.68 45.461c0 9.7385 6.886 21.648 15.349 26.548 2.317 1.3421 4.608 2.0511 6.623 2.0511 4.786 0 7.76-3.9327 7.76-10.264 0-9.7385-6.886-21.648-15.349-26.548-2.317-1.3422-4.608-2.051-6.623-2.051-4.786 0-7.76 3.9326-7.76 10.264z" fill="#F6F9FE"/>
  <path id="path78" d="m150.19 72.96c-8.997-5.2094-16.974-18.9-16.974-29.255 0-7.413 5.99-11.705 11.878-11.705 2.389 0 4.942 0.7771 7.59 2.3104 8.997 5.2095 16.315 17.872 16.315 28.228 0 7.4128-6.12 13.175-12.008 13.175-2.389 0-4.153-1.219-6.801-2.7524zm-14.383-28.227c0 9.7385 6.886 21.648 15.349 26.548 2.317 1.342 4.607 2.051 6.623 2.051 4.786 0 7.76-3.9327 7.76-10.264 0-9.7385-6.886-21.648-15.349-26.548-2.317-1.342-4.608-2.051-6.623-2.051-4.786 0-7.76 3.9327-7.76 10.264z" fill="#3D75E4"/>
  <path id="path80" d="m149.06 73.689c-8.997-5.2094-16.315-17.872-16.315-28.227 0-7.413 3.804-12.202 9.692-12.202 2.388 0 4.941 0.7771 7.589 2.3104 8.997 5.2095 16.316 17.872 16.316 28.227 0 7.4129-3.805 12.202-9.693 12.202-2.388 0-4.941-0.777-7.589-2.3104zm-14.383-28.227c0 9.7385 6.886 21.648 15.349 26.548 2.317 1.342 4.608 2.051 6.623 2.051 4.786 0 7.76-3.9326 7.76-10.264 0-9.7385-6.886-21.648-15.349-26.548-2.317-1.3422-4.607-2.0511-6.623-2.0511-4.786 0-7.76 3.9327-7.76 10.264z" fill="#81ABEE"/>
  <path id="path82" d="m125.01 41.015 2.952-1.7203 4.96 2.8719-2.952 1.7203-4.96-2.8719z" fill="#F196A5"/>
  <path id="path84" d="m133.62 49.968 2.952-1.7204-0.017 5.8394-2.952 1.7203 0.017-5.8393z" fill="#E14761"/>
  <path id="path86" d="m138.59 48.88 2.952-1.7203-0.011 3.9596-2.952 1.7203 0.011-3.9596z" fill="#E14761"/>
  <path id="path88" d="m133.63 46.009 2.951-1.7203 4.96 2.8719-2.951 1.7203-4.96-2.8719z" fill="#F196A5"/>
  <path id="path90" d="m133.65 40.154 2.952-1.7203-0.017 5.8548-2.951 1.7203 0.016-5.8548z" fill="#E14761"/>
  <path id="path92" d="m129.99 38.033 2.951-1.7203 3.664 2.1212-2.952 1.7203-3.663-2.1212z" fill="#F196A5"/>
  <path id="path94" d="m133.65 40.154-0.017 5.8548 4.96 2.8719-0.011 3.9596-4.96-2.8719-0.016 5.8393-3.664-2.1211 0.017-5.8394-4.96-2.8719 0.011-3.9596 4.96 2.8719 0.017-5.8548 3.663 2.1212z" fill="#F7CFD5"/>
  <path id="path96" d="m141.06 57.562 2.951-1.7203 4.158 2.4076-2.952 1.7203-4.157-2.4076z" fill="#F196A5"/>
  <path id="path98" d="m145.22 59.968 2.952-1.7204c0.051 0.8012 0.304 1.5647 0.757 2.3055 0.453 0.7406 1.121 1.3744 2.003 1.8854 0.96 0.5557 1.694 0.6846 2.202 0.3885l-2.952 1.7203c-0.508 0.2961-1.242 0.1672-2.202-0.3885-0.882-0.5109-1.55-1.1448-2.003-1.8854-0.453-0.7408-0.706-1.5043-0.757-2.3054z" fill="#E14761"/>
  <path id="path100" d="m145.76 56.039 2.952-1.7203c-0.02 0.0118-0.04 0.0241-0.06 0.037l-2.952 1.7204c0.02-0.0129 0.04-0.0253 0.06-0.0371z" fill="#AC8C8E"/>
  <path id="path102" d="m145.7 56.076 2.951-1.7203c-0.122 0.0802-0.234 0.1815-0.336 0.3039l-2.951 1.7203c0.102-0.1224 0.213-0.2237 0.336-0.3039z" fill="#E14761"/>
  <path id="path104" d="m154.67 67.338 2.952-1.7203c-0.295 0.7072-0.703 1.2311-1.223 1.5715l-2.951 1.7203c0.52-0.3404 0.927-0.8643 1.222-1.5715z" fill="#F196A5"/>
  <path id="path106" d="m153.44 68.908 2.951-1.7203c-0.039 0.0257-0.079 0.0503-0.119 0.0739l-2.952 1.7203c0.041-0.0236 0.081-0.0482 0.12-0.0739z" fill="#AC8C8E"/>
  <path id="path108" d="m145.67 48.052 2.951-1.7203-0.011 4.0829-2.952 1.7204 0.012-4.083z" fill="#E14761"/>
  <path id="path110" d="m145.66 52.136 2.952-1.7203c0.389-0.1761 0.857-0.1978 1.433-0.0499 0.562 0.1402 1.19 0.4117 1.899 0.822 0.936 0.5418 1.791 1.2069 2.552 1.9716 0.775 0.7879 1.428 1.6601 1.961 2.6325 0.546 0.9798 0.972 2.0442 1.263 3.185 0.292 1.1565 0.435 2.3662 0.432 3.6451-4e-3 1.2171-0.181 2.2105-0.531 2.9952l-2.951 1.7204c0.35-0.7848 0.527-1.7782 0.53-2.9953 4e-3 -1.2789-0.14-2.4886-0.431-3.6451-0.292-1.1407-0.717-2.2052-1.263-3.1849-0.533-0.9724-1.187-1.8447-1.961-2.6326-0.762-0.7647-1.617-1.4298-2.553-1.9715-0.708-0.4104-1.337-0.6819-1.899-0.8221-0.575-0.1479-1.044-0.1262-1.433 0.0499z" fill="#F196A5"/>
  <path id="path112" d="m154.15 49.001-0.011 3.9596-8.476-4.9078-0.011 4.0829c0.389-0.1761 0.857-0.1978 1.433-0.0499 0.562 0.1401 1.19 0.4117 1.899 0.822 0.936 0.5418 1.791 1.2069 2.552 1.9716 0.775 0.7879 1.428 1.6601 1.961 2.6325 0.546 0.9798 0.972 2.0442 1.263 3.185 0.292 1.1565 0.435 2.3662 0.432 3.6451-4e-3 1.2171-0.181 2.2105-0.531 2.9952-0.337 0.808-0.821 1.3768-1.451 1.706-0.63 0.3451-1.394 0.4431-2.277 0.3018-0.897-0.1488-1.873-0.5289-2.97-1.1638-1.23-0.7123-2.285-1.5087-3.14-2.3583-0.855-0.8655-1.562-1.7531-2.122-2.6794-0.546-0.9336-0.959-1.867-1.224-2.8229-0.265-0.9558-0.41-1.8732-0.42-2.7591l4.157 2.4076c0.052 0.8012 0.304 1.5647 0.757 2.3055 0.453 0.7406 1.121 1.3744 2.004 1.8854 2.032 1.1766 3.052 0.4401 3.059-2.1946 2e-3 -0.7087-0.077-1.3408-0.249-1.9344-0.159-0.586-0.385-1.1028-0.652-1.5656-0.28-0.4553-0.6-0.8568-0.974-1.2123-0.374-0.3554-0.761-0.6568-1.162-0.8891-0.642-0.3717-1.177-0.5427-1.606-0.5132-0.429 0.0298-0.764 0.206-1.033 0.5288l-3.877-2.2449 0.036-12.449 12.633 7.3155z" fill="#F7CFD5"/>
  <path id="path114" d="m154.15 49.002 2.952-1.7204-0.011 3.9597-2.952 1.7203 0.011-3.9596z" fill="#E14761"/>
  <path id="path116" d="m141.52 41.685 2.951-1.7204 12.634 7.3155-2.952 1.7203-12.633-7.3154z" fill="#F196A5"/>
  <path id="path122" d="m120.54 153.75c-4.1 0-6.439-2.815-6.536-7.5h2.054c0.067 3.438 1.581 4.895 2.78 5.195v-5.195h1.934v2.965c1.185-0.127 2.429-1.479 2.848-2.965h1.934c-0.322 1.832-1.671 3.183-2.631 3.739 0.96 0.45 2.496 1.629 3.081 3.761h-2.129c-0.457-1.426-1.596-2.53-3.103-2.68v2.68h-0.232z" fill="#fff"/>
  <path id="path126" d="m151.15 144.1v1.9h-1.146c-0.418 0-0.7 0.087-0.846 0.26-0.146 0.172-0.219 0.431-0.219 0.777v1.36h2.138l-0.285 2.131h-1.853v5.463h-2.233v-5.463h-1.86v-2.131h1.86v-1.569c0-0.892 0.253-1.585 0.759-2.076 0.506-0.492 1.18-0.738 2.021-0.738 0.715 0 1.27 0.029 1.664 0.086z" fill="#fff"/>
  <g id="g132" clip-path="url(#clip1_121_18406)">
   <path id="path130" d="m182 146.91c-0.449 0.199-0.926 0.33-1.414 0.388 0.515-0.308 0.9-0.792 1.084-1.362-0.483 0.287-1.012 0.489-1.564 0.597-0.371-0.396-0.862-0.659-1.397-0.747-0.535-0.089-1.085 2e-3 -1.563 0.258-0.479 0.256-0.859 0.663-1.083 1.157-0.223 0.494-0.276 1.048-0.152 1.576-0.979-0.049-1.937-0.303-2.811-0.746s-1.645-1.065-2.264-1.825c-0.218 0.376-0.333 0.803-0.333 1.237 0 0.853 0.435 1.607 1.095 2.048-0.391-0.012-0.773-0.118-1.115-0.307v0.03c0 0.568 0.197 1.119 0.557 1.559 0.36 0.439 0.861 0.741 1.418 0.854-0.363 0.098-0.743 0.113-1.112 0.042 0.157 0.489 0.463 0.917 0.875 1.223 0.413 0.307 0.911 0.477 1.425 0.486-0.511 0.401-1.096 0.697-1.721 0.872-0.626 0.175-1.279 0.225-1.924 0.147 1.125 0.723 2.435 1.107 3.774 1.106 4.528 0 7.005-3.749 7.005-7.001 0-0.106-3e-3 -0.213-8e-3 -0.317 0.482-0.349 0.899-0.78 1.229-1.274l-1e-3 -1e-3z" fill="#fff"/>
  </g>
 </g>
 <defs id="defs147">
  <linearGradient id="paint0_linear_121_18406" x1="293.26" x2="199.36" y1="183.11" y2="-74.191" gradientUnits="userSpaceOnUse">
   <stop id="stop136" stop-color="#091F52" offset="0"/>
   <stop id="stop138" stop-color="#3D75E4" offset="1"/>
  </linearGradient>
  <clipPath id="clip0_121_18406">
   <rect id="rect141" width="294" height="184" fill="#fff"/>
  </clipPath>
  <clipPath id="clip1_121_18406">
   <rect id="rect144" transform="translate(170 145)" width="12" height="12" fill="#fff"/>
  </clipPath>
 </defs>
</svg>
