<svg width="20" height="20" viewBox="0 0 20 20" fill="none" xmlns="http://www.w3.org/2000/svg">
<circle cx="10" cy="10" r="10" fill="#4EA0EB"/>
<g clip-path="url(#clip0_121_18498)">
<path d="M15.9994 6.90743C15.55 7.10609 15.0734 7.23656 14.5854 7.29453C15.0997 6.98711 15.4847 6.50328 15.6686 5.93322C15.1858 6.22031 14.6566 6.4215 14.105 6.53034C13.7345 6.13417 13.2433 5.87143 12.708 5.78296C12.1726 5.6945 11.623 5.78526 11.1446 6.04115C10.6662 6.29703 10.2857 6.7037 10.0625 7.19792C9.83919 7.69215 9.78557 8.24625 9.90993 8.77408C8.93099 8.72504 7.97331 8.47083 7.09907 8.02793C6.22483 7.58503 5.45357 6.96335 4.83536 6.20325C4.61654 6.57884 4.50154 7.00581 4.50216 7.44042C4.50216 8.29344 4.93662 9.04704 5.59714 9.48826C5.20625 9.47596 4.82396 9.37047 4.48214 9.18058V9.21118C4.48226 9.77929 4.67899 10.3299 5.03896 10.7696C5.39894 11.2093 5.90001 11.5111 6.45722 11.6238C6.09436 11.722 5.71388 11.7365 5.34458 11.6661C5.50169 12.1551 5.80789 12.5828 6.22032 12.8892C6.63276 13.1957 7.13077 13.3656 7.64462 13.3751C7.13392 13.7759 6.54916 14.0722 5.92379 14.247C5.29842 14.4219 4.6447 14.4718 4 14.394C5.12541 15.1173 6.4355 15.5012 7.77355 15.5C12.3024 15.5 14.779 11.7508 14.779 8.49934C14.779 8.39345 14.7761 8.28638 14.7714 8.18167C15.2535 7.8335 15.6695 7.40219 16 6.90802L15.9994 6.90743Z" fill="white"/>
</g>
<defs>
<clipPath id="clip0_121_18498">
<rect width="12" height="12" fill="white" transform="translate(4 5)"/>
</clipPath>
</defs>
</svg>
