<svg width="20" height="20" viewBox="0 0 20 20" fill="none" xmlns="http://www.w3.org/2000/svg">
<path d="M0 4C0 1.79086 1.79086 0 4 0H16C18.2091 0 20 1.79086 20 4V10C20 10.5523 19.5523 11 19 11C18.4477 11 18 10.5523 18 10V4C18 2.89543 17.1046 2 16 2H4C2.89543 2 2 2.89543 2 4V16C2 17.1046 2.89543 18 4 18H10C10.5523 18 11 18.4477 11 19C11 19.5523 10.5523 20 10 20H4C1.79086 20 0 18.2091 0 16V4Z" fill="#3D75E4"/>
<path d="M10 15C10 14.4477 10.4477 14 11 14H14V11C14 10.4477 14.4477 10 15 10C15.5523 10 16 10.4477 16 11V14H19C19.5523 14 20 14.4477 20 15C20 15.5523 19.5523 16 19 16H16V19C16 19.5523 15.5523 20 15 20C14.4477 20 14 19.5523 14 19V16H11C10.4477 16 10 15.5523 10 15Z" fill="#3D75E4"/>
</svg>
