<svg width="20" height="20" viewBox="0 0 20 20" fill="none" xmlns="http://www.w3.org/2000/svg">
<path d="M1 3C1 1.34315 2.34315 0 4 0H13C15.7614 0 18 2.23858 18 5V6C18 6.55228 17.5523 7 17 7H12C11.4477 7 11 6.55228 11 6V4C11 3.44772 11.4477 3 12 3C12.5523 3 13 3.44772 13 4V5H16C16 3.34315 14.6569 2 13 2H4C3.44772 2 3 2.44772 3 3V17C3 17.5523 3.44772 18 4 18H15C15.5523 18 16 17.5523 16 17V9C16 8.44772 16.4477 8 17 8C17.5523 8 18 8.44772 18 9V17C18 18.6569 16.6569 20 15 20H4C2.34315 20 1 18.6569 1 17V3Z" fill="#3D75E4"/>
<path d="M13.7071 9.29289C14.0976 9.68342 14.0976 10.3166 13.7071 10.7071L9.70711 14.7071C9.31658 15.0976 8.68342 15.0976 8.29289 14.7071L6.29289 12.7071C5.90237 12.3166 5.90237 11.6834 6.29289 11.2929C6.68342 10.9024 7.31658 10.9024 7.70711 11.2929L9 12.5858L12.2929 9.29289C12.6834 8.90237 13.3166 8.90237 13.7071 9.29289Z" fill="#3D75E4"/>
</svg>
