<svg width="20" height="20" viewBox="0 0 20 20" fill="none" xmlns="http://www.w3.org/2000/svg">
<path fill-rule="evenodd" clip-rule="evenodd" d="M0 4C0 3.44772 0.447715 3 1 3H19C19.5523 3 20 3.44772 20 4C20 4.55228 19.5523 5 19 5H1C0.447715 5 0 4.55228 0 4ZM3 8C3 7.44772 3.44772 7 4 7H16C16.5523 7 17 7.44772 17 8C17 8.55228 16.5523 9 16 9H4C3.44772 9 3 8.55228 3 8ZM0 12C0 11.4477 0.447715 11 1 11H19C19.5523 11 20 11.4477 20 12C20 12.5523 19.5523 13 19 13H1C0.447715 13 0 12.5523 0 12ZM3 16C3 15.4477 3.44772 15 4 15H16C16.5523 15 17 15.4477 17 16C17 16.5523 16.5523 17 16 17H4C3.44772 17 3 16.5523 3 16Z" fill="#3D75E4"/>
</svg>
