<svg width="20" height="20" viewBox="0 0 20 20" fill="none" xmlns="http://www.w3.org/2000/svg">
<path d="M6.62469 3.78091C7.05596 3.4359 7.12588 2.8066 6.78087 2.37534C6.43586 1.94408 5.80657 1.87416 5.3753 2.21917L0.375305 6.21917C0.13809 6.40894 0 6.69625 0 7.00004C0 7.30382 0.13809 7.59113 0.375305 7.78091L5.3753 11.7809C5.80657 12.1259 6.43586 12.056 6.78087 11.6247C7.12588 11.1935 7.05596 10.5642 6.62469 10.2192L3.85074 8H13.6875C16.1272 8 18 9.84711 18 12C18 14.1529 16.1272 16 13.6875 16C13.1352 16 12.6875 16.4477 12.6875 17C12.6875 17.5523 13.1352 18 13.6875 18C17.1158 18 20 15.37 20 12C20 8.63004 17.1158 6 13.6875 6H3.85083L6.62469 3.78091Z" fill="#3D75E4"/>
</svg>
