<svg width="20" height="20" viewBox="0 0 20 20" fill="none" xmlns="http://www.w3.org/2000/svg">
<path fill-rule="evenodd" clip-rule="evenodd" d="M0 4C0 2.89543 0.895429 2 2 2H18C19.1046 2 20 2.89543 20 4V5.88889C20 6.99346 19.1046 7.88889 18 7.88889H2C0.895432 7.88889 0 6.99346 0 5.88889V4ZM18 4L2 4V5.88889L18 5.88889V4ZM2.63636 9C3.18865 9 3.63636 9.44772 3.63636 10V16C3.63636 16.5523 4.08408 17 4.63636 17H15.3636C15.9159 17 16.3636 16.5523 16.3636 16V10C16.3636 9.44772 16.8114 9 17.3636 9C17.9159 9 18.3636 9.44772 18.3636 10V16C18.3636 17.6569 17.0205 19 15.3636 19H4.63636C2.97951 19 1.63636 17.6569 1.63636 16V10C1.63636 9.44772 2.08408 9 2.63636 9ZM7.36364 11C7.36364 10.4477 7.81135 10 8.36364 10H11.6364C12.1886 10 12.6364 10.4477 12.6364 11C12.6364 11.5523 12.1886 12 11.6364 12H8.36364C7.81135 12 7.36364 11.5523 7.36364 11Z" fill="#3D75E4"/>
</svg>
