<svg width="20" height="20" viewBox="0 0 20 20" fill="none" xmlns="http://www.w3.org/2000/svg">
<path d="M10 13C6.41016 13 3.50001 10.0899 3.50001 6.5C3.50001 2.91015 6.41016 0 10 0C13.5899 0 16.5 2.91015 16.5 6.5C16.5 10.0899 13.5899 13 10 13ZM10 11C12.4853 11 14.5 8.98528 14.5 6.5C14.5 4.01472 12.4853 2 10 2C7.51473 2 5.50001 4.01472 5.50001 6.5C5.50001 8.98528 7.51473 11 10 11ZM2.6633 19.7484C2.25 20.1147 1.61798 20.0766 1.25165 19.6633C0.885325 19.25 0.923411 18.618 1.33672 18.2516C3.77707 16.0887 6.68001 15.0001 9.99999 15C13.32 14.9999 16.223 16.0885 18.6633 18.2517C19.0766 18.618 19.1147 19.25 18.7483 19.6633C18.382 20.0766 17.75 20.1147 17.3367 19.7483C15.2642 17.9113 12.8339 16.9999 10 17C7.16617 17.0001 4.73577 17.9115 2.6633 19.7484Z" fill="#3D75E4"/>
</svg>
