<svg width="20" height="20" viewBox="0 0 20 20" fill="none" xmlns="http://www.w3.org/2000/svg">
<path fill-rule="evenodd" clip-rule="evenodd" d="M3 2C3 1.44772 3.44772 1 4 1H12C13.3261 1 14.5979 1.52678 15.5355 2.46447C16.4732 3.40215 17 4.67392 17 6C17 7.32608 16.4732 8.59785 15.5355 9.53553C15.5025 9.56857 15.4691 9.60109 15.4352 9.63309C15.8352 9.85611 16.206 10.1349 16.5355 10.4645C17.4732 11.4021 18 12.6739 18 14C18 15.3261 17.4732 16.5979 16.5355 17.5355C15.5979 18.4732 14.3261 19 13 19H4C3.44772 19 3 18.5523 3 18V2ZM5 3V9H12C12.7956 9 13.5587 8.68393 14.1213 8.12132C14.6839 7.55871 15 6.79565 15 6C15 5.20435 14.6839 4.44129 14.1213 3.87868C13.5587 3.31607 12.7956 3 12 3H5ZM5 11V17H13C13.7956 17 14.5587 16.6839 15.1213 16.1213C15.6839 15.5587 16 14.7956 16 14C16 13.2044 15.6839 12.4413 15.1213 11.8787C14.5587 11.3161 13.7956 11 13 11H5Z" fill="#3D75E4"/>
</svg>
