<svg width="20" height="20" viewBox="0 0 20 20" fill="none" xmlns="http://www.w3.org/2000/svg">
<path d="M6 0C6.55228 0 7 0.447715 7 1V2L11 2C11.5523 2 12 2.44771 12 3C12 3.55228 11.5523 4 11 4L6 4C5.44772 4 5 3.55228 5 3V1C5 0.447715 5.44772 0 6 0Z" fill="#3D75E4"/>
<path d="M3 4C2.44772 4 2 4.44772 2 5V6H16.026C16.5783 6 17.026 6.44772 17.026 7C17.026 7.55228 16.5783 8 16.026 8H2V17C2 17.5523 2.44772 18 3 18H17C17.5523 18 18 17.5523 18 17V5C18 4.44772 17.5523 4 17 4H14C13.4477 4 13 3.55228 13 3V1C13 0.447715 13.4477 0 14 0C14.5523 0 15 0.447715 15 1V2H17C18.6569 2 20 3.34315 20 5V17C20 18.6569 18.6569 20 17 20H3C1.34315 20 0 18.6569 0 17V5C0 3.34315 1.34315 2 3 2C3.55228 2 4 2.44772 4 3C4 3.55228 3.55228 4 3 4Z" fill="#3D75E4"/>
<path d="M5 10C4.44772 10 4 10.4477 4 11V13C4 13.5523 4.44772 14 5 14H8C8.55228 14 9 13.5523 9 13V11C9 10.4477 8.55228 10 8 10H5Z" fill="#3D75E4"/>
</svg>
