<svg width="20" height="20" viewBox="0 0 20 20" fill="none" xmlns="http://www.w3.org/2000/svg">
<path d="M4 15C4 14.4477 4.44772 14 5 14H10C10.5523 14 11 14.4477 11 15C11 15.5523 10.5523 16 10 16H5C4.44772 16 4 15.5523 4 15Z" fill="#3D75E4"/>
<path d="M5 10C4.44772 10 4 10.4477 4 11C4 11.5523 4.44772 12 5 12H7C7.55229 12 8 11.5523 8 11C8 10.4477 7.55229 10 7 10H5Z" fill="#3D75E4"/>
<path d="M12 14V16C12 16.5523 12.4477 17 13 17C13.5523 17 14 16.5523 14 16H15C15.5523 16 16 15.5523 16 15C16 14.4477 15.5523 14 15 14H14C14 13.4477 13.5523 13 13 13C12.4477 13 12 13.4477 12 14Z" fill="#3D75E4"/>
<path d="M10 10C9.44772 10 9 10.4477 9 11C9 11.5523 9.44772 12 10 12L15 12C15.5523 12 16 11.5523 16 11C16 10.4477 15.5523 10 15 10L10 10Z" fill="#3D75E4"/>
<path d="M14 3C13.4477 3 13 3.44772 13 4C13 4.55229 13.4477 5 14 5H15C15.5523 5 16 4.55229 16 4C16 3.44772 15.5523 3 15 3H14Z" fill="#3D75E4"/>
<path d="M16 7C16 7.55229 15.5523 8 15 8C14.4477 8 14 7.55229 14 7C14 6.44772 14.4477 6 15 6C15.5523 6 16 6.44772 16 7Z" fill="#3D75E4"/>
<path fill-rule="evenodd" clip-rule="evenodd" d="M8 3C5.79086 3 4 4.79086 4 7C4 7.55229 4.44772 8 5 8H11C11.5523 8 12 7.55229 12 7C12 4.79086 10.2091 3 8 3ZM9.73244 6H6.26757C6.61337 5.4022 7.25972 5 8 5C8.74028 5 9.38663 5.4022 9.73244 6Z" fill="#3D75E4"/>
<path fill-rule="evenodd" clip-rule="evenodd" d="M3 20C1.34315 20 0 18.6569 0 17V3C0 1.34315 1.34315 0 3 0H17C18.6569 0 20 1.34314 20 3V17C20 18.6569 18.6569 20 17 20H3ZM2 17C2 17.5523 2.44772 18 3 18H17C17.5523 18 18 17.5523 18 17V3C18 2.44772 17.5523 2 17 2L3 2C2.44772 2 2 2.44772 2 3L2 17Z" fill="#3D75E4"/>
</svg>
