<svg width="20" height="20" viewBox="0 0 20 20" fill="none" xmlns="http://www.w3.org/2000/svg">
<path d="M4 0C4.55228 0 5 0.447715 5 1V8C5 8.55228 4.55228 9 4 9C3.44772 9 3 8.55228 3 8V1C3 0.447715 3.44772 0 4 0Z" fill="#3D75E4"/>
<path d="M2 4C2 3.44772 1.55228 3 1 3C0.447715 3 0 3.44772 0 4V8C0 8.55228 0.447715 9 1 9C1.55228 9 2 8.55228 2 8V4Z" fill="#3D75E4"/>
<path d="M13.7619 15.1761L18.293 19.7072C18.6835 20.0977 19.3167 20.0977 19.7072 19.7072C20.0977 19.3167 20.0977 18.6835 19.7072 18.293L15.1762 13.7619C16.3185 12.3146 17.0003 10.4869 17.0003 8.49995C17.0003 4.18899 13.7919 0.629006 9.63234 0.0747931C9.0849 0.00185274 8.58197 0.386516 8.50903 0.933963C8.43609 1.48141 8.82076 1.98433 9.3682 2.05727C12.5473 2.48085 15.0003 5.20475 15.0003 8.49995C15.0003 12.0898 12.0901 14.9999 8.50027 14.9999C5.67169 14.9999 3.26266 13.1926 2.36987 10.6667C2.18582 10.146 1.6145 9.87306 1.09378 10.0571C0.573068 10.2412 0.300144 10.8125 0.48419 11.3332C1.65058 14.6332 4.79775 16.9999 8.50027 16.9999C10.4871 16.9999 12.3146 16.3183 13.7619 15.1761Z" fill="#3D75E4"/>
<path d="M8 3C8 2.44772 7.55228 2 7 2C6.44772 2 6 2.44772 6 3V8C6 8.55228 6.44772 9 7 9C7.55228 9 8 8.55228 8 8V3Z" fill="#3D75E4"/>
<path d="M10 4C10.5523 4 11 4.44772 11 5V8C11 8.55228 10.5523 9 10 9C9.44771 9 9 8.55228 9 8V5C9 4.44772 9.44771 4 10 4Z" fill="#3D75E4"/>
</svg>
