<svg width="20" height="20" viewBox="0 0 20 20" fill="none" xmlns="http://www.w3.org/2000/svg">
<path d="M2 10C2 5.58172 5.58172 2 10 2C14.4183 2 18 5.58172 18 10C18 10.8307 17.8737 11.63 17.64 12.3809C17.4759 12.9082 17.7703 13.4687 18.2977 13.6329C18.825 13.797 19.3855 13.5026 19.5497 12.9752C19.8426 12.0342 20 11.0345 20 10C20 4.47715 15.5228 0 10 0C4.47715 0 0 4.47715 0 10C0 15.5228 4.47715 20 10 20C12.9138 20 15.5378 18.7525 17.3641 16.7654C17.7379 16.3588 17.7112 15.7262 17.3046 15.3524C16.898 14.9787 16.2654 15.0054 15.8916 15.412C14.4281 17.0043 12.3311 18 10 18C5.58172 18 2 14.4183 2 10Z" fill="#3D75E4"/>
<path d="M11 4C11 3.44772 10.5523 3 10 3C9.44771 3 9 3.44772 9 4V9.58579C9 10.1162 9.21071 10.6249 9.58579 11L13.2929 14.7071C13.6834 15.0976 14.3166 15.0976 14.7071 14.7071C15.0976 14.3166 15.0976 13.6834 14.7071 13.2929L11 9.58579V4Z" fill="#3D75E4"/>
</svg>
