<svg width="20" height="20" viewBox="0 0 20 20" fill="none" xmlns="http://www.w3.org/2000/svg">
<path fill-rule="evenodd" clip-rule="evenodd" d="M3 0C1.34315 0 0 1.34315 0 3V13C0 14.6569 1.34315 16 3 16H13C14.6569 16 16 14.6569 16 13V3C16 1.34315 14.6569 0 13 0H3ZM2 3C2 2.44772 2.44772 2 3 2H13C13.5523 2 14 2.44772 14 3V13C14 13.5523 13.5523 14 13 14H3C2.44772 14 2 13.5523 2 13V3Z" fill="#3D75E4"/>
<path d="M20 5C20 4.44772 19.5523 4 19 4C18.4477 4 18 4.44772 18 5V13C18 15.7614 15.7614 18 13 18H6C5.44772 18 5 18.4477 5 19C5 19.5523 5.44772 20 6 20H13C16.866 20 20 16.866 20 13V5Z" fill="#3D75E4"/>
</svg>
