<svg width="20" height="20" viewBox="0 0 20 20" fill="none" xmlns="http://www.w3.org/2000/svg">
<path d="M13.4496 2.77901C13.948 3.01707 14.5449 2.80607 14.783 2.30773C15.0211 1.80938 14.8101 1.21241 14.3117 0.97435C10.6019 -0.797856 6.02373 -0.153204 2.94395 2.91393L2.92879 2.92879L2.9139 2.94399C0.976063 4.89 0.00481936 7.43501 0.000168424 9.98146L0 10L0.000169085 10.0186C0.00492288 12.5716 0.981228 15.1231 2.92908 17.0709C6.83433 20.9762 13.166 20.9762 17.0712 17.0709C20.1511 13.991 20.8007 9.40407 19.0256 5.68827C18.7876 5.18993 18.1906 4.97893 17.6923 5.21699C17.1939 5.45505 16.9829 6.05203 17.221 6.55037C17.5937 7.33058 17.8327 8.15856 17.938 9H17.0711C16.5189 9 16.0711 9.44771 16.0711 10C16.0711 10.5523 16.5189 11 17.0711 11H17.9379C17.7244 12.7028 16.9638 14.3499 15.657 15.6567C12.5328 18.7809 7.46749 18.7809 4.3433 15.6567C3.0361 14.3495 2.27585 12.7025 2.06254 11H2.41421C2.9665 11 3.41421 10.5523 3.41421 10C3.41421 9.44771 2.9665 9 2.41421 9H2.0625C2.23668 7.60936 2.77579 6.25571 3.67982 5.09403L4.343 5.75721C4.73352 6.14774 5.36669 6.14774 5.75721 5.75721C6.14774 5.36669 6.14774 4.73352 5.75721 4.343L5.094 3.67979C6.25557 2.77577 7.6094 2.23638 9.00043 2.06208L9.00027 2.92859C9.00017 3.48087 9.44781 3.92867 10.0001 3.92877C10.5524 3.92887 11.0002 3.48123 11.0003 2.92895L11.0004 2.06202C11.8417 2.1674 12.6695 2.40636 13.4496 2.77901Z" fill="#3D75E4"/>
<path fill-rule="evenodd" clip-rule="evenodd" d="M17.0714 4.34285C17.4619 3.95232 17.4619 3.31916 17.0714 2.92864C16.6808 2.53811 16.0477 2.53811 15.6572 2.92864L11.2936 7.29215C10.1785 6.75938 8.80235 6.95482 7.87868 7.87849C6.70711 9.05007 6.70711 10.9496 7.87868 12.1211C9.05025 13.2927 10.9497 13.2927 12.1213 12.1211C13.0449 11.1975 13.2404 9.82154 12.7078 8.70643L17.0714 4.34285ZM9.29289 9.29271C9.68342 8.90218 10.3166 8.90218 10.7071 9.29271C11.0976 9.68323 11.0976 10.3164 10.7071 10.7069C10.3166 11.0974 9.68342 11.0974 9.29289 10.7069C8.90237 10.3164 8.90237 9.68323 9.29289 9.29271Z" fill="#3D75E4"/>
<path d="M13 15C13 15.5523 12.5523 16 12 16H8C7.44772 16 7 15.5523 7 15C7 14.4477 7.44772 14 8 14H12C12.5523 14 13 14.4477 13 15Z" fill="#3D75E4"/>
</svg>
