<svg width="20" height="20" viewBox="0 0 20 20" fill="none" xmlns="http://www.w3.org/2000/svg">
<path fill-rule="evenodd" clip-rule="evenodd" d="M7 3V2C7 0.89543 7.89543 0 9 0H12C13.1046 0 14 0.89543 14 2V3H19C19.5523 3 20 3.44772 20 4C20 4.55228 19.5523 5 19 5H18V17C18 18.6569 16.6569 20 15 20H6C4.34315 20 3 18.6569 3 17V5H2C1.44772 5 1 4.55228 1 4C1 3.44772 1.44772 3 2 3H7ZM16 5H5V17C5 17.5523 5.44772 18 6 18H15C15.5523 18 16 17.5523 16 17V5ZM11.9142 11.5L13.3284 12.9142C13.719 13.3047 13.719 13.9379 13.3284 14.3284C12.9379 14.719 12.3047 14.719 11.9142 14.3284L10.5 12.9142L9.08579 14.3284C8.69526 14.719 8.0621 14.719 7.67157 14.3284C7.28105 13.9379 7.28105 13.3047 7.67157 12.9142L9.08579 11.5L7.67157 10.0858C7.28105 9.69526 7.28105 9.0621 7.67157 8.67157C8.0621 8.28105 8.69526 8.28105 9.08579 8.67157L10.5 10.0858L11.9142 8.67157C12.3047 8.28105 12.9379 8.28105 13.3284 8.67157C13.719 9.0621 13.719 9.69526 13.3284 10.0858L11.9142 11.5ZM9.5 2C9.22386 2 9 2.22386 9 2.5V3H12V2.5C12 2.22386 11.7761 2 11.5 2H9.5Z" fill="#3D75E4"/>
</svg>
