<svg width="20" height="20" viewBox="0 0 20 20" fill="none" xmlns="http://www.w3.org/2000/svg">
<path fill-rule="evenodd" clip-rule="evenodd" d="M10.5002 20C10.0533 20 9.66069 19.7035 9.5384 19.2736C9.4102 18.823 9.28647 18.3513 9.16113 17.8735C8.94475 17.0487 8.72357 16.2055 8.46651 15.4215C8.26799 14.816 8.06952 14.3184 7.87172 13.9633C7.71824 13.6877 7.61609 13.5914 7.5892 13.566C7.58423 13.5613 7.58216 13.5585 7.58216 13.5585L7.58351 13.5586C7.07607 13.3645 6.81532 12.7989 7.00039 12.2856C7.18769 11.766 7.76071 11.4967 8.28027 11.684C8.93721 11.9208 9.35484 12.5159 9.619 12.9901C9.9092 13.5112 10.1544 14.1502 10.367 14.7984C10.6394 15.6292 10.8941 16.5975 11.1229 17.4671L11.1236 17.4697C11.1616 17.6143 11.1989 17.7561 11.2355 17.8941C11.2848 17.8717 11.3047 17.8539 11.3079 17.8507C11.312 17.8469 11.3249 17.8346 11.3398 17.7877C11.3578 17.7306 11.3752 17.6322 11.3752 17.4726C11.3752 17.1319 11.3025 16.7168 11.2034 16.1516L11.2027 16.1478C11.111 15.6243 11.0002 14.9853 11.0002 14.3548C11.0002 13.7335 11.0956 13.1437 11.3663 12.6411C11.6535 12.108 12.096 11.7516 12.6295 11.5566C13.131 11.3733 13.6821 11.3427 14.2186 11.375C14.7622 11.4078 15.3619 11.5104 15.9949 11.6473C16.5371 11.7646 16.833 11.769 16.9765 11.747C16.9934 11.6657 17.0112 11.5002 16.9914 11.1997C16.965 10.8002 16.8833 10.2883 16.7608 9.62591C16.7012 9.30357 16.6487 8.975 16.5982 8.65857L16.5872 8.58919C16.5325 8.24664 16.4792 7.91716 16.4174 7.59473C16.293 6.94601 16.1429 6.37566 15.9174 5.8879C15.6968 5.41079 15.4101 5.02603 15.0121 4.73119C14.6129 4.43544 14.0448 4.18815 13.1988 4.07377C11.801 3.8848 10.2205 4.07883 8.77524 4.42617C7.67746 4.69001 6.69989 5.03196 6 5.32258V11C6 12.1045 5.10457 13 4 13H3C1.89543 13 1 12.1045 1 11V4.99997C1 3.8954 1.89543 2.99997 3 2.99997H4C4.48424 2.99997 4.92828 3.17207 5.2743 3.45843C6.06861 3.13107 7.12947 2.76477 8.30787 2.48155C9.87708 2.10441 11.7276 1.85669 13.4667 2.0918C14.5813 2.24248 15.4837 2.59156 16.2026 3.1241C16.9227 3.65755 17.4019 4.333 17.7328 5.04863C18.0587 5.75362 18.2456 6.50853 18.3816 7.21821C18.45 7.57499 18.5077 7.93298 18.5621 8.27377L18.5723 8.33769C18.6238 8.65973 18.6725 8.96519 18.7274 9.26223C18.85 9.92509 18.9521 10.5397 18.987 11.0679C19.0204 11.5737 19.0055 12.1468 18.7743 12.6468C18.5019 13.236 17.9993 13.5846 17.3856 13.7053C16.8453 13.8116 16.2242 13.7432 15.5721 13.6021C14.9798 13.474 14.4938 13.3953 14.0983 13.3714C13.6957 13.3471 13.4541 13.3846 13.3161 13.435C13.2102 13.4738 13.1664 13.5168 13.1271 13.5896C13.0714 13.6931 13.0002 13.9159 13.0002 14.3548C13.0002 14.7846 13.077 15.2563 13.1727 15.8025L13.1895 15.8981C13.2747 16.3815 13.3752 16.9524 13.3752 17.4726C13.3752 18.0373 13.2598 18.7497 12.6925 19.294C12.1397 19.8244 11.3588 20 10.5002 20ZM3 11H4V4.99997H3V11Z" fill="#3D75E4"/>
</svg>
