<svg width="20" height="20" viewBox="0 0 20 20" fill="none" xmlns="http://www.w3.org/2000/svg">
<path fill-rule="evenodd" clip-rule="evenodd" d="M11.6876 12.857C10.6976 12.657 9.89055 12.267 9.28155 11.667C8.764 11.1529 8.39647 10.5074 8.21855 9.8C5.86855 10.384 4.82855 11.45 4.82855 13.044C4.82855 14.848 4.06955 16.284 2.62455 17.285C3.35855 17.752 4.46455 18 5.98355 18C9.39355 18 11.4086 16.29 11.6885 12.857H11.6876ZM13.7076 12.562C13.4986 17.333 10.5786 20 5.98355 20C3.15055 20 1.16455 19.22 0.147551 17.566C0.0727162 17.444 0.0249489 17.3073 0.00747736 17.1653C-0.00999417 17.0232 0.00323728 16.879 0.0462774 16.7425C0.0893175 16.606 0.161163 16.4803 0.256958 16.3739C0.352753 16.2676 0.470265 16.183 0.601551 16.126C2.13455 15.46 2.82955 14.478 2.82955 13.044C2.82955 10.274 4.73555 8.492 8.22455 7.748C8.2654 7.68984 8.31233 7.63621 8.36455 7.588L16.2966 0.266C16.4811 0.0952603 16.7231 0.000289158 16.9746 0C17.9065 0 18.6586 0.233 19.1875 0.755C19.6896 1.25 19.9576 1.906 19.9976 2.67C20.0085 2.88302 19.951 3.09396 19.8335 3.272L13.7166 12.551C13.7139 12.5547 13.7112 12.5584 13.7086 12.562H13.7076ZM17.3416 2.022L10.0586 8.745C10.1166 9.404 10.3286 9.89 10.6856 10.24C11.0446 10.594 11.6016 10.836 12.3795 10.946L17.9585 2.484C17.9289 2.36831 17.8688 2.26267 17.7845 2.178C17.7146 2.109 17.5725 2.051 17.3426 2.02L17.3416 2.022Z" fill="#3D75E4"/>
</svg>
