<svg width="20" height="20" viewBox="0 0 20 20" fill="none" xmlns="http://www.w3.org/2000/svg">
<path fill-rule="evenodd" clip-rule="evenodd" d="M0 6C0 4.34315 1.34315 3 3 3H17C18.6569 3 20 4.34315 20 6V14C20 15.6569 18.6569 17 17 17H3C1.34315 17 0 15.6569 0 14V6ZM2 13.5858V6.41421L7.87868 12.2929C9.05025 13.4645 10.9497 13.4645 12.1213 12.2929L18 6.41421V13.5858L15.7071 11.2929C15.3166 10.9024 14.6834 10.9024 14.2929 11.2929C13.9024 11.6834 13.9024 12.3166 14.2929 12.7071L16.5858 15H3.41421L5.70711 12.7071C6.09763 12.3166 6.09763 11.6834 5.70711 11.2929C5.31658 10.9024 4.68342 10.9024 4.29289 11.2929L2 13.5858ZM3.41421 5H16.5858L10.7071 10.8787C10.3166 11.2692 9.68342 11.2692 9.29289 10.8787L3.41421 5Z" fill="#3D75E4"/>
</svg>
