<svg width="20" height="20" viewBox="0 0 20 20" fill="none" xmlns="http://www.w3.org/2000/svg">
<path fill-rule="evenodd" clip-rule="evenodd" d="M10 0C6.21302 0 3 2.8461 3 6.52632C3 7.04718 3.01853 7.57523 3.08108 8.09069C3.24247 9.42075 3.79809 10.6465 4.29251 11.7175L4.34729 11.8361C4.84265 12.9084 5.2705 13.8346 5.44329 14.7895C5.67487 16.0693 6.78909 17 8.08967 17H11.9103C13.2109 17 14.3251 16.0693 14.5567 14.7895C14.7295 13.8346 15.1574 12.9085 15.6527 11.8361L15.7075 11.7175C16.2019 10.6465 16.7575 9.42075 16.9189 8.09069C16.9815 7.57523 17 7.04717 17 6.52632C17 2.8461 13.787 0 10 0ZM5 6.52632C5 4.10234 7.15956 2 10 2C12.8404 2 15 4.10234 15 6.52632C15 7.00457 14.9826 7.44467 14.9335 7.84976C14.8154 8.82277 14.4008 9.77623 13.8916 10.8793L13.8026 11.0717C13.3371 12.077 12.8085 13.2186 12.5887 14.4334C12.5293 14.7614 12.2437 15 11.9103 15H11L11 11.414L12.7071 9.70715C13.0976 9.31665 13.0977 8.68349 12.7072 8.29294C12.3167 7.90239 11.6835 7.90235 11.2929 8.29285L9.99983 9.58579L8.70715 8.29294C8.31665 7.90239 7.68349 7.90235 7.29294 8.29285C6.90239 8.68335 6.90235 9.31651 7.29285 9.70706L9 11.4144L9 15H8.08967C7.7563 15 7.47069 14.7614 7.41133 14.4334C7.19151 13.2186 6.6629 12.077 6.19737 11.0717L6.10837 10.8793C5.59918 9.77623 5.18458 8.82277 5.06651 7.84976C5.01735 7.44467 5 7.00457 5 6.52632Z" fill="#3D75E4"/>
<path d="M8 18C7.44772 18 7 18.4477 7 19C7 19.5523 7.44772 20 8 20H12C12.5523 20 13 19.5523 13 19C13 18.4477 12.5523 18 12 18H8Z" fill="#3D75E4"/>
</svg>
