<svg width="22" height="20" viewBox="0 0 22 20" fill="none" xmlns="http://www.w3.org/2000/svg">
<path d="M2.71079 3.12509C3.49184 2.34404 4.75817 2.34405 5.53921 3.12509L7.33211 4.91799C7.72263 5.30851 7.72263 5.94168 7.33211 6.3322C6.94158 6.72272 6.30842 6.72272 5.91789 6.3322L5.125 5.5393L5.125 13.8357L5.91789 13.0428C6.30842 12.6523 6.94158 12.6523 7.33211 13.0428C7.72263 13.4333 7.72263 14.0665 7.33211 14.457L5.53921 16.2499C4.75816 17.031 3.49183 17.031 2.71079 16.2499L0.917893 14.457C0.527369 14.0665 0.527369 13.4333 0.917893 13.0428C1.30842 12.6523 1.94158 12.6523 2.33211 13.0428L3.125 13.8357L3.125 5.53931L2.33211 6.3322C1.94158 6.72272 1.30842 6.72272 0.917893 6.3322C0.527369 5.94168 0.527369 5.30851 0.917894 4.91799L2.71079 3.12509Z" fill="#3D75E4"/>
<path d="M10.375 2.75C9.82271 2.75 9.375 3.19772 9.375 3.75C9.375 4.30228 9.82271 4.75 10.375 4.75H20.375C20.9273 4.75 21.375 4.30228 21.375 3.75C21.375 3.19772 20.9273 2.75 20.375 2.75H10.375Z" fill="#3D75E4"/>
<path d="M9.375 10C9.375 9.44772 9.82271 9 10.375 9H20.375C20.9273 9 21.375 9.44772 21.375 10C21.375 10.5523 20.9273 11 20.375 11H10.375C9.82271 11 9.375 10.5523 9.375 10Z" fill="#3D75E4"/>
<path d="M10.375 15.25C9.82271 15.25 9.375 15.6977 9.375 16.25C9.375 16.8023 9.82271 17.25 10.375 17.25H20.375C20.9273 17.25 21.375 16.8023 21.375 16.25C21.375 15.6977 20.9273 15.25 20.375 15.25H10.375Z" fill="#3D75E4"/>
</svg>
