<svg width="20" height="20" viewBox="0 0 20 20" fill="none" xmlns="http://www.w3.org/2000/svg">
<g clip-path="url(#clip0)">
<path fill-rule="evenodd" clip-rule="evenodd" d="M9.29289 0.292893C9.68342 -0.0976311 10.3166 -0.0976311 10.7071 0.292893L15.7071 5.29289C16.0976 5.68342 16.0976 6.31658 15.7071 6.70711C15.3166 7.09763 14.6834 7.09763 14.2929 6.70711L11 3.41421V13C11 13.5523 10.5523 14 10 14C9.44771 14 9 13.5523 9 13V3.41421L5.70711 6.70711C5.31658 7.09763 4.68342 7.09763 4.29289 6.70711C3.90237 6.31658 3.90237 5.68342 4.29289 5.29289L9.29289 0.292893ZM1 13C1.55228 13 2 13.4477 2 14V16C2 17.1046 2.89543 18 4 18H16C17.1046 18 18 17.1046 18 16V14C18 13.4477 18.4477 13 19 13C19.5523 13 20 13.4477 20 14V16C20 18.2091 18.2091 20 16 20H4C1.79086 20 0 18.2091 0 16V14C0 13.4477 0.447715 13 1 13Z" fill="#3D75E4"/>
</g>
<defs>
<clipPath id="clip0">
<rect width="20" height="20" fill="white"/>
</clipPath>
</defs>
</svg>
