<svg width="20" height="20" viewBox="0 0 20 20" fill="none" xmlns="http://www.w3.org/2000/svg">
<path d="M18.7141 9.41336C13.0927 0.560449 6.27872 1.17046 1.27483 9.41007C1.10149 9.69549 1.08895 10.0585 1.24397 10.3543C5.88692 19.2133 14.3269 19.2152 18.7644 10.3601C18.9143 10.0608 18.8936 9.69594 18.7141 9.41336Z" stroke="#3D75E4" stroke-width="2" stroke-linecap="round" stroke-linejoin="round"/>
<path d="M11 12.8293C10.6872 12.9398 10.3506 13 10 13C8.34315 13 7 11.6569 7 10C7 8.34315 8.34315 7 10 7C11.6569 7 13 8.34315 13 10C13 10.3506 12.9398 10.6872 12.8293 11" stroke="#3D75E4" stroke-width="2" stroke-linecap="round"/>
</svg>
