<svg width="20" height="20" viewBox="0 0 20 20" fill="none" xmlns="http://www.w3.org/2000/svg">
<path fill-rule="evenodd" clip-rule="evenodd" d="M6 2.01023C5.44772 2.01023 5 2.46024 5 3.01535V17.986L8.73618 14.9242C9.47195 14.3212 10.5281 14.3212 11.2638 14.9242L15 17.986V3.01535C15 2.46024 14.5523 2.01023 14 2.01023H6ZM3 3.01535C3 1.35002 4.34315 0 6 0H14C15.6569 0 17 1.35002 17 3.01535V17.986C17 19.6802 15.0426 20.6146 13.7362 19.544L10 16.4822L6.26382 19.544C4.95737 20.6146 3 19.6802 3 17.986V3.01535Z" fill="#3D75E4"/>
</svg>
