<svg width="20" height="20" viewBox="0 0 20 20" fill="none" xmlns="http://www.w3.org/2000/svg">
<path d="M10.099 5.99516C10.0665 5.99836 10.0334 6 10 6H1C0.447715 6 0 5.55228 0 5C0 4.44772 0.447715 4 1 4H10C10.0334 4 10.0665 4.00164 10.099 4.00484C10.5604 1.72019 12.5793 0 15 0C17.7614 0 20 2.23858 20 5C20 7.76142 17.7614 10 15 10C12.5793 10 10.5604 8.27981 10.099 5.99516ZM9.90096 14.0048C9.93354 14.0016 9.96658 14 10 14H19C19.5523 14 20 14.4477 20 15C20 15.5523 19.5523 16 19 16H10C9.96658 16 9.93354 15.9984 9.90096 15.9952C9.43956 18.2798 7.42067 20 5 20C2.23858 20 0 17.7614 0 15C0 12.2386 2.23858 10 5 10C7.42067 10 9.43956 11.7202 9.90096 14.0048ZM5 18C6.65685 18 8 16.6569 8 15C8 13.3431 6.65685 12 5 12C3.34315 12 2 13.3431 2 15C2 16.6569 3.34315 18 5 18ZM15 8C16.6569 8 18 6.65685 18 5C18 3.34315 16.6569 2 15 2C13.3431 2 12 3.34315 12 5C12 6.65685 13.3431 8 15 8Z" fill="#3D75E4"/>
</svg>
