<svg width="20" height="20" viewBox="0 0 20 20" fill="none" xmlns="http://www.w3.org/2000/svg">
<path d="M2.7894 19.614C2.45033 20.0499 1.82205 20.1285 1.38611 19.7894C0.950159 19.4503 0.871626 18.8221 1.2107 18.3861L7.73319 10L1.21069 1.61399C0.871624 1.17804 0.950159 0.549765 1.3861 0.210694C1.82205 -0.128376 2.45033 -0.0498425 2.7894 0.386105L9.7894 9.3861C10.0703 9.74721 10.0703 10.2529 9.7894 10.614L2.7894 19.614Z" fill="#3D75E4"/>
<path d="M11.7894 19.614C11.4503 20.0499 10.8221 20.1285 10.3861 19.7894C9.95016 19.4503 9.87162 18.8221 10.2107 18.3861L16.7332 10L10.2107 1.61399C9.87162 1.17804 9.95016 0.549765 10.3861 0.210694C10.8221 -0.128376 11.4503 -0.0498406 11.7894 0.386105L18.7894 9.3861C19.0703 9.74721 19.0703 10.2529 18.7894 10.614L11.7894 19.614Z" fill="#3D75E4"/>
</svg>
