<svg width="20" height="20" viewBox="0 0 20 20" fill="none" xmlns="http://www.w3.org/2000/svg">
<path fill-rule="evenodd" clip-rule="evenodd" d="M10 1.81818C8.35629 1.81818 6.77576 2.50097 5.60725 3.7232C4.43807 4.94612 3.77778 6.60902 3.77778 8.34711C3.77778 10.8819 5.35562 13.3485 7.09655 15.2706C7.95002 16.2129 8.80637 16.9846 9.4502 17.5208C9.65909 17.6948 9.84486 17.8434 10 17.9644C10.1551 17.8434 10.3409 17.6948 10.5498 17.5208C11.1936 16.9846 12.05 16.2129 12.9035 15.2706C14.6444 13.3485 16.2222 10.8819 16.2222 8.34711C16.2222 6.60902 15.5619 4.94612 14.3928 3.7232C13.2242 2.50097 11.6437 1.81818 10 1.81818ZM10 19.0909C9.49926 19.842 9.49903 19.8419 9.49878 19.8417L9.49815 19.8413L9.49639 19.84L9.49095 19.8362L9.47248 19.8231C9.45685 19.812 9.43466 19.7962 9.40635 19.7757C9.34972 19.7346 9.26854 19.675 9.16633 19.5978C8.96198 19.4434 8.67301 19.2183 8.32758 18.9306C7.63808 18.3563 6.71664 17.5267 5.79234 16.5062C3.97772 14.5027 2 11.5975 2 8.34711C2 6.13983 2.83811 4.01895 4.33612 2.45207C5.8348 0.884505 7.87174 0 10 0C12.1283 0 14.1652 0.884505 15.6639 2.45207C17.1619 4.01895 18 6.13983 18 8.34711C18 11.5975 16.0223 14.5027 14.2077 16.5062C13.2834 17.5267 12.3619 18.3563 11.6724 18.9306C11.327 19.2183 11.038 19.4434 10.8337 19.5978C10.7315 19.675 10.6503 19.7346 10.5937 19.7757C10.5653 19.7962 10.5431 19.812 10.5275 19.8231L10.509 19.8362L10.5036 19.84L10.5019 19.8413L10.5012 19.8417C10.501 19.8419 10.5007 19.842 10 19.0909ZM10 19.0909L10.5007 19.842C10.1987 20.0527 9.80132 20.0527 9.49926 19.842L10 19.0909ZM10 6.77686C9.20053 6.77686 8.51852 7.46052 8.51852 8.34711C8.51852 9.2337 9.20053 9.91735 10 9.91735C10.7995 9.91735 11.4815 9.2337 11.4815 8.34711C11.4815 7.46052 10.7995 6.77686 10 6.77686ZM6.74074 8.34711C6.74074 6.4951 8.18124 4.95868 10 4.95868C11.8188 4.95868 13.2593 6.4951 13.2593 8.34711C13.2593 10.1991 11.8188 11.7355 10 11.7355C8.18123 11.7355 6.74074 10.1991 6.74074 8.34711Z" fill="#3D75E4"/>
</svg>
