<svg width="20" height="20" viewBox="0 0 20 20" fill="none" xmlns="http://www.w3.org/2000/svg">
<g clip-path="url(#clip0)">
<path fill-rule="evenodd" clip-rule="evenodd" d="M7.56195 10.5596C7.17399 10.0573 6.42231 10.0388 6.01013 10.5214L1.76043 15.4973C1.40175 15.9172 0.770542 15.9669 0.350578 15.6082C-0.0693859 15.2496 -0.119069 14.6183 0.239607 14.1984L4.4893 9.22254C5.72584 7.77471 7.98088 7.83015 9.14477 9.337L10.9697 11.6997L11.9037 10.4905C13.0282 9.03463 15.1861 8.92444 16.453 10.2581L19.725 13.7026C20.1054 14.103 20.0892 14.7359 19.6887 15.1163C19.2883 15.4967 18.6554 15.4804 18.275 15.08L15.003 11.6356C14.5807 11.191 13.8614 11.2278 13.4865 11.713L12.2357 13.3324L15.7884 17.8848C16.1281 18.3202 16.0506 18.9486 15.6152 19.2883C15.1799 19.6281 14.5515 19.5506 14.2117 19.1152L10.1783 13.9469L7.56195 10.5596Z" fill="#3D75E4"/>
<path fill-rule="evenodd" clip-rule="evenodd" d="M16 2H4.00002C2.89545 2 2.00002 2.89543 2.00002 4V16C2.00002 17.1046 2.89545 18 4.00002 18H16C17.1046 18 18 17.1046 18 16V4C18 2.89543 17.1046 2 16 2ZM4.00002 0C1.79088 0 1.89515e-05 1.79086 1.89515e-05 4V16C1.89515e-05 18.2091 1.79088 20 4.00002 20H16C18.2092 20 20 18.2091 20 16V4C20 1.79086 18.2092 0 16 0H4.00002Z" fill="#3D75E4"/>
</g>
<defs>
<clipPath id="clip0">
<rect width="20" height="20" fill="white"/>
</clipPath>
</defs>
</svg>
