<svg width="20" height="20" viewBox="0 0 20 20" fill="none" xmlns="http://www.w3.org/2000/svg">
<path fill-rule="evenodd" clip-rule="evenodd" d="M7.5 2V3.6H12.5V2H7.5ZM5.5 1.9C5.5 0.877401 6.3131 0 7.375 0H12.625C13.6869 0 14.5 0.877401 14.5 1.9V3.7C14.5 4.7226 13.6869 5.6 12.625 5.6H7.375C6.3131 5.6 5.5 4.7226 5.5 3.7V1.9ZM4.20964 2.61021C4.60563 2.9952 4.61454 3.6283 4.22956 4.02429C4.08566 4.17229 4 4.37888 4 4.6V17.2C4 17.4211 4.08566 17.6277 4.22956 17.7757C4.37252 17.9228 4.56032 18 4.75 18H15.25C15.4397 18 15.6275 17.9228 15.7704 17.7757C15.9143 17.6277 16 17.4211 16 17.2V4.6C16 4.37888 15.9143 4.17229 15.7704 4.02429C15.3855 3.6283 15.3944 2.9952 15.7904 2.61021C16.1863 2.22523 16.8194 2.23414 17.2044 2.63013C17.7169 3.15725 18 3.86634 18 4.6V17.2C18 17.9337 17.7169 18.6427 17.2044 19.1699C16.691 19.698 15.9886 20 15.25 20H4.75C4.01142 20 3.30898 19.698 2.79557 19.1699C2.28308 18.6427 2 17.9337 2 17.2V4.6C2 3.86634 2.28308 3.15726 2.79557 2.63013C3.18055 2.23414 3.81366 2.22523 4.20964 2.61021Z" fill="#3D75E4"/>
</svg>
