<svg width="20" height="20" viewBox="0 0 20 20" fill="none" xmlns="http://www.w3.org/2000/svg">
<path fill-rule="evenodd" clip-rule="evenodd" d="M12.977 1.00003H8C7.44772 1.00003 7 1.44774 7 2.00003C7 2.55231 7.44772 3.00003 8 3.00003H11.557L6.307 17H3C2.44772 17 2 17.4477 2 18C2 18.5523 2.44772 19 3 19H6.97666C6.99216 19.0004 7.00762 19.0004 7.02304 19H12C12.5523 19 13 18.5523 13 18C13 17.4477 12.5523 17 12 17H8.443L13.693 3.00003H17C17.5523 3.00003 18 2.55231 18 2.00003C18 1.44774 17.5523 1.00003 17 1.00003H13.0233C13.0078 0.999665 12.9924 0.999666 12.977 1.00003Z" fill="#3D75E4"/>
</svg>
