<svg width="20" height="20" viewBox="0 0 20 20" fill="none" xmlns="http://www.w3.org/2000/svg">
<path fill-rule="evenodd" clip-rule="evenodd" d="M13.0102 2.01666C11.2284 0.673481 8.77234 0.673485 6.99058 2.01666L1.68437 6.01672C0.0194943 7.27178 0.110936 9.80051 1.86212 10.932L7.28682 14.4372C8.93847 15.5045 11.0623 15.5045 12.714 14.4372L18.1387 10.932C19.8899 9.80051 19.9813 7.27178 18.3164 6.01672L13.0102 2.01666ZM8.1945 3.61371C9.26356 2.8078 10.7372 2.8078 11.8063 3.61371L17.1125 7.61377C17.6675 8.03212 17.637 8.87503 17.0532 9.25221L11.6285 12.7574C10.6376 13.3977 9.36324 13.3977 8.37225 12.7574L2.94755 9.25221C2.36382 8.87503 2.33334 8.03212 2.8883 7.61377L8.1945 3.61371Z" fill="#3D75E4"/>
<path d="M2.51465 13.1424C2.04107 12.8583 1.42681 13.0118 1.14266 13.4854C0.85851 13.959 1.01208 14.5733 1.48566 14.8574L6.39868 17.8052C8.61546 19.1353 11.3848 19.1353 13.6016 17.8052L18.5146 14.8574C18.9882 14.5733 19.1418 13.959 18.8576 13.4854C18.5735 13.0118 17.9592 12.8583 17.4857 13.1424L12.5726 16.0902C10.9892 17.0403 9.01108 17.0403 7.42767 16.0902L2.51465 13.1424Z" fill="#3D75E4"/>
</svg>
