<svg width="20" height="20" viewBox="0 0 20 20" fill="none" xmlns="http://www.w3.org/2000/svg">
<path fill-rule="evenodd" clip-rule="evenodd" d="M10.5002 0C10.0533 0 9.66069 0.29652 9.5384 0.726359C9.4102 1.17695 9.28647 1.64864 9.16113 2.12644C8.94476 2.95127 8.72357 3.79444 8.46651 4.57847C8.26799 5.18394 8.06952 5.68153 7.87172 6.03667C7.71824 6.31223 7.6161 6.40861 7.5892 6.43398C7.58423 6.43868 7.58183 6.44094 7.58216 6.44146C7.58228 6.44164 7.58272 6.4416 7.58351 6.44139C7.07607 6.63549 6.81532 7.20104 7.00039 7.7144C7.18769 8.23396 7.76071 8.5033 8.28027 8.316C8.93721 8.07916 9.35484 7.48412 9.619 7.00983C9.9092 6.48877 10.1544 5.84977 10.367 5.20157C10.6394 4.37081 10.8941 3.40243 11.1229 2.53283C11.1581 2.3989 11.1927 2.26732 11.2267 2.13894C11.2323 2.14443 11.3049 2.21563 11.3127 2.55077C11.3207 2.89426 11.2599 3.31504 11.1754 3.87567L11.1717 3.89995C11.0939 4.41588 11.0002 5.03659 11.0002 5.64516C11.0002 6.26645 11.0956 6.85627 11.3663 7.35883C11.6535 7.89197 12.096 8.24837 12.6295 8.44339C13.131 8.62669 13.6821 8.6573 14.2186 8.62494C14.7622 8.59217 15.3619 8.48959 15.9949 8.35266C16.5371 8.23539 16.833 8.23094 16.9765 8.25302C16.9934 8.33426 17.0112 8.49975 16.9914 8.80029C16.965 9.19976 16.8833 9.71166 16.7608 10.3741C16.7012 10.6964 16.6487 11.025 16.5982 11.3414L16.5872 11.4108C16.5325 11.7533 16.4792 12.0828 16.4174 12.4052C16.293 13.054 16.1429 13.6243 15.9174 14.1121C15.6968 14.5892 15.4101 14.9739 15.0121 15.2688C14.6129 15.5645 14.0448 15.8118 13.1988 15.9262C11.801 16.1152 10.2205 15.9211 8.77524 15.5738C7.67746 15.31 6.69989 14.968 6 14.6774V9C6 7.89543 5.10457 7 4 7H3C1.89543 7 1 7.89543 1 9V15C1 16.1046 1.89543 17 3 17H4C4.48424 17 4.92828 16.8279 5.2743 16.5415C6.06861 16.8689 7.12947 17.2352 8.30787 17.5184C9.87708 17.8956 11.7276 18.1433 13.4667 17.9082C14.5813 17.7575 15.4837 17.4084 16.2026 16.8759C16.9227 16.3424 17.4019 15.667 17.7328 14.9513C18.0587 14.2464 18.2456 13.4914 18.3816 12.7818C18.45 12.425 18.5077 12.067 18.5621 11.7262L18.5723 11.6623C18.6238 11.3402 18.6725 11.0348 18.7274 10.7377C18.85 10.0749 18.9521 9.4603 18.987 8.93209C19.0204 8.42632 19.0055 7.85318 18.7743 7.3532C18.5019 6.76398 17.9993 6.41533 17.3856 6.29466C16.8453 6.1884 16.2242 6.25682 15.5721 6.39786C14.9798 6.52598 14.4938 6.60472 14.0983 6.62857C13.6957 6.65284 13.4541 6.61537 13.3161 6.56493C13.2102 6.52622 13.1664 6.48322 13.1271 6.41035C13.0714 6.3069 13.0002 6.08408 13.0002 5.64516C13.0002 5.2031 13.0702 4.72301 13.153 4.17393L13.161 4.12082C13.2362 3.62286 13.3246 3.03773 13.3122 2.50407C13.2991 1.94595 13.1744 1.25114 12.632 0.715877C12.0917 0.182635 11.3326 0 10.5002 0ZM3 9H4V15H3V9Z" fill="#3D75E4"/>
</svg>
