<svg width="20" height="20" viewBox="0 0 20 20" fill="none" xmlns="http://www.w3.org/2000/svg">
<path fill-rule="evenodd" clip-rule="evenodd" d="M6 6C3.79086 6 2 7.79086 2 10C2 12.2091 3.79086 14 6 14H7.5C8.05228 14 8.5 14.4477 8.5 15C8.5 15.5523 8.05228 16 7.5 16H6C2.68629 16 0 13.3137 0 10C0 6.68629 2.68629 4 6 4H7.5C8.05228 4 8.5 4.44772 8.5 5C8.5 5.55228 8.05228 6 7.5 6H6ZM11.5 5C11.5 4.44772 11.9477 4 12.5 4H14C17.3137 4 20 6.68629 20 10C20 13.3137 17.3137 16 14 16H12.5C11.9477 16 11.5 15.5523 11.5 15C11.5 14.4477 11.9477 14 12.5 14H14C16.2091 14 18 12.2091 18 10C18 7.79086 16.2091 6 14 6H12.5C11.9477 6 11.5 5.55228 11.5 5Z" fill="#3D75E4"/>
<path fill-rule="evenodd" clip-rule="evenodd" d="M5 10C5 9.44772 5.44772 9 6 9H14C14.5523 9 15 9.44772 15 10C15 10.5523 14.5523 11 14 11H6C5.44772 11 5 10.5523 5 10Z" fill="#3D75E4"/>
</svg>
