<svg width="20" height="20" viewBox="0 0 20 20" fill="none" xmlns="http://www.w3.org/2000/svg">
<g clip-path="url(#clip0)">
<path fill-rule="evenodd" clip-rule="evenodd" d="M10 -3.05176e-05C10.5523 -3.05176e-05 11 0.447685 11 0.999969V10.5858L14.2929 7.29286C14.6834 6.90234 15.3166 6.90234 15.7071 7.29286C16.0976 7.68339 16.0976 8.31655 15.7071 8.70708L10.7071 13.7071C10.3166 14.0976 9.68342 14.0976 9.29289 13.7071L4.29289 8.70708C3.90237 8.31655 3.90237 7.68339 4.29289 7.29286C4.68342 6.90234 5.31658 6.90234 5.70711 7.29286L9 10.5858V0.999969C9 0.447685 9.44771 -3.05176e-05 10 -3.05176e-05ZM1 12C1.55228 12 2 12.4477 2 13L2 16C2 17.1046 2.89543 18 4 18H16C17.1046 18 18 17.1046 18 16V13C18 12.4477 18.4477 12 19 12C19.5523 12 20 12.4477 20 13V16C20 18.2092 18.2091 20 16 20H4C1.79086 20 -5.96046e-08 18.2092 0 16L1.19209e-07 13C1.19209e-07 12.4477 0.447715 12 1 12Z" fill="#3D75E4"/>
</g>
<defs>
<clipPath id="clip0">
<rect width="20" height="20" fill="white"/>
</clipPath>
</defs>
</svg>
