<svg width="20" height="20" viewBox="0 0 20 20" fill="none" xmlns="http://www.w3.org/2000/svg">
<path opacity="0.85" d="M9.99957 4.55773C9.45955 4.55773 9.02954 4.12795 9.02954 3.58822V0.969518C9.02954 0.429786 9.45955 0 9.99957 0C10.5396 0 10.9696 0.429786 10.9696 0.969518V3.59821C10.9696 4.12795 10.5396 4.55773 9.99957 4.55773Z" fill="#3D75E4"/>
<path opacity="0.9" d="M12.7198 5.28736C12.2598 5.0175 12.0998 4.42779 12.3698 3.96802L13.6798 1.69915C13.9498 1.23938 14.5398 1.07946 14.9998 1.34932C15.4599 1.61919 15.6199 2.20889 15.3499 2.66867L14.0398 4.93754C13.7698 5.39731 13.1798 5.55723 12.7198 5.28736Z" fill="#3D75E4"/>
<path opacity="0.95" d="M14.7096 7.27643C14.4396 6.81666 14.5996 6.21696 15.0596 5.95709L17.3297 4.64774C17.7997 4.37787 18.3897 4.53779 18.6597 4.99756C18.9297 5.45733 18.7697 6.05704 18.3097 6.31691L16.0397 7.62626C15.5696 7.89612 14.9696 7.7462 14.7096 7.27643Z" fill="#3D75E4"/>
<path d="M15.4395 9.99506C15.4395 9.45533 15.8695 9.02554 16.4095 9.02554H19.0396C19.5696 9.02554 19.9996 9.45533 19.9996 9.99506C19.9996 10.5348 19.5696 10.9646 19.0296 10.9646H16.3995C15.8695 10.9646 15.4395 10.5348 15.4395 9.99506Z" fill="#3D75E4"/>
<path opacity="0.45" d="M14.7096 12.7137C14.9796 12.2539 15.5696 12.094 16.0297 12.3639L18.2997 13.6732C18.7597 13.9431 18.9197 14.5328 18.6497 14.9926C18.3797 15.4523 17.7897 15.6123 17.3297 15.3424L15.0596 14.033C14.5996 13.7632 14.4396 13.1735 14.7096 12.7137Z" fill="#3D75E4"/>
<path opacity="0.5" d="M12.72 14.7027C13.1801 14.4328 13.7801 14.5927 14.0401 15.0525L15.3501 17.3214C15.6201 17.7811 15.4601 18.3808 15.0001 18.6407C14.5401 18.9106 13.9401 18.7507 13.6801 18.2909L12.37 16.022C12.1 15.5622 12.25 14.9625 12.72 14.7027Z" fill="#3D75E4"/>
<path opacity="0.55" d="M9.99932 15.4323C10.5393 15.4323 10.9694 15.8621 10.9694 16.4018V19.0305C10.9694 19.5702 10.5393 20 9.99932 20C9.45931 20 9.0293 19.5702 9.0293 19.0305V16.3918C9.0293 15.8621 9.45931 15.4323 9.99932 15.4323Z" fill="#3D75E4"/>
<path opacity="0.6" d="M7.27914 14.7027C7.73916 14.9725 7.89916 15.5623 7.62915 16.022L6.31912 18.2909C6.05911 18.7607 5.45909 18.9206 4.99908 18.6507C4.53907 18.3808 4.37907 17.7911 4.64907 17.3314L5.95911 15.0625C6.22912 14.5927 6.81913 14.4328 7.27914 14.7027Z" fill="#3D75E4"/>
<path opacity="0.65" d="M5.29059 12.7137C5.56059 13.1735 5.40059 13.7732 4.94058 14.0331L2.67052 15.3424C2.2005 15.6123 1.61049 15.4524 1.34048 14.9926C1.07047 14.5328 1.23048 13.9331 1.69049 13.6732L3.96055 12.3639C4.43056 12.094 5.03058 12.244 5.29059 12.7137Z" fill="#3D75E4"/>
<path opacity="0.7" d="M4.56012 9.99506C4.56012 10.5348 4.13011 10.9646 3.5901 10.9646H0.970026C0.430012 10.9646 0 10.5348 0 9.99506C0 9.45533 0.430012 9.02554 0.970026 9.02554H3.6001C4.13011 9.02554 4.56012 9.45533 4.56012 9.99506Z" fill="#3D75E4"/>
<path opacity="0.75" d="M5.29059 7.27643C5.03058 7.7462 4.43056 7.89612 3.97055 7.63625L1.69049 6.31691C1.23048 6.05704 1.07047 5.45733 1.34048 4.99756C1.61049 4.53779 2.2005 4.37787 2.66052 4.64774L4.93058 5.95709C5.40059 6.22695 5.56059 6.81666 5.29059 7.27643Z" fill="#3D75E4"/>
<path opacity="0.8" d="M7.27914 5.28736C6.81913 5.55723 6.22912 5.39731 5.95911 4.93754L4.64907 2.65867C4.37907 2.1989 4.53907 1.60919 4.99908 1.33933C5.45909 1.06946 6.05911 1.22938 6.31912 1.68915L7.62915 3.95803C7.89916 4.42779 7.74916 5.02749 7.27914 5.28736Z" fill="#3D75E4"/>
</svg>
