<svg width="21" height="20" viewBox="0 0 21 20" fill="none" xmlns="http://www.w3.org/2000/svg">
<path d="M0 10C-2.41412e-08 9.44771 0.447715 9 1 9H2.06189C2.51314 5.38128 5.38128 2.51314 9 2.06189V1C9 0.447716 9.44772 2.41412e-08 10 0C10.5523 -2.41412e-08 11 0.447716 11 1V2.06189C14.6187 2.51314 17.4869 5.38128 17.9381 9H19.0012C19.5535 9 20.0012 9.44772 20.0012 10C20.0012 10.5523 19.5535 11 19.0012 11H17.9381C17.6401 13.3888 16.2886 15.45 14.3668 16.704C13.9043 17.0058 13.2847 16.8755 12.9829 16.413C12.6811 15.9505 12.8113 15.3309 13.2739 15.0291C14.9173 13.9567 16 12.1045 16 10C16 6.68629 13.3137 4 10 4C6.68629 4 4 6.68629 4 10C4 13.3137 6.68629 16 10 16C10.5523 16 11 16.4477 11 17C11 17.0135 10.9997 17.027 10.9992 17.0404C10.9997 17.0538 11 17.0673 11 17.0808V19C11 19.5522 10.5523 20 10 20C9.44771 20 9 19.5522 9 19V17.9381C5.38128 17.4869 2.51314 14.6187 2.06189 11H1C0.447715 11 2.41412e-08 10.5523 0 10Z" fill="#3D75E4"/>
<path fill-rule="evenodd" clip-rule="evenodd" d="M10 7C8.34315 7 7 8.34315 7 10C7 11.6569 8.34315 13 10 13C11.6569 13 13 11.6569 13 10C13 8.34315 11.6569 7 10 7ZM9 10C9 9.44772 9.44771 9 10 9C10.5523 9 11 9.44772 11 10C11 10.5523 10.5523 11 10 11C9.44771 11 9 10.5523 9 10Z" fill="#3D75E4"/>
</svg>
