<svg width="20" height="20" viewBox="0 0 20 20" fill="none" xmlns="http://www.w3.org/2000/svg">
<path d="M11.3284 0.505712C10.5706 -0.168571 9.42875 -0.168571 8.671 0.505712L0.335636 7.92295C-0.0771334 8.29025 -0.114313 8.92299 0.252593 9.3362C0.619499 9.74942 1.25155 9.78664 1.66432 9.41934L9.99968 2.0021L18.3351 9.41934C18.7478 9.78664 19.3799 9.74942 19.7468 9.3362C20.1137 8.92299 20.0765 8.29025 19.6637 7.92295L11.3284 0.505712Z" fill="#3D75E4"/>
<path d="M1.99993 20C1.44767 20 0.999967 19.5518 0.999967 18.9989C0.999967 18.4461 1.44767 17.9979 1.99993 17.9979L1.99993 10.9905C1.99993 10.4377 2.44763 9.98948 2.9999 9.98948C3.55217 9.98948 3.99987 10.4377 3.99987 10.9905L3.99987 17.9979H9.99967C10.5519 17.9979 10.9996 18.4461 10.9996 18.9989C10.9996 19.5518 10.5519 20 9.99967 20H1.99993Z" fill="#3D75E4"/>
<path fill-rule="evenodd" clip-rule="evenodd" d="M13.9995 17.9979C14.756 17.9979 15.4634 17.7877 16.0667 17.4224C16.1111 17.5031 16.1675 17.579 16.2359 17.6475L18.2929 19.7068C18.6835 20.0977 19.3166 20.0977 19.7071 19.7068C20.0976 19.3159 20.0976 18.682 19.7071 18.2911L17.65 16.2318C17.5816 16.1633 17.5057 16.1068 17.425 16.0623C17.7896 15.4586 17.9994 14.7506 17.9994 13.9937C17.9994 11.7822 16.2086 9.98948 13.9995 9.98948C11.7905 9.98948 9.99967 11.7822 9.99967 13.9937C9.99967 16.2051 11.7905 17.9979 13.9995 17.9979ZM13.9995 11.9916C12.895 11.9916 11.9996 12.888 11.9996 13.9937C11.9996 15.0994 12.895 15.9958 13.9995 15.9958C15.1041 15.9958 15.9995 15.0994 15.9995 13.9937C15.9995 12.888 15.1041 11.9916 13.9995 11.9916Z" fill="#3D75E4"/>
</svg>
