<svg width="20" height="20" viewBox="0 0 20 20" fill="none" xmlns="http://www.w3.org/2000/svg">
<path d="M2 1C0.89543 1 0 1.89543 0 3V8C0 8.06904 0.00699555 8.13644 0.0203164 8.20153C0.113563 8.65722 0.516751 9 1 9L6 9C6.35349 9 6.68072 8.81337 6.86069 8.50913L7.8148 6.89618L10.1876 10.5452C10.3685 10.8232 10.6754 10.9935 11.007 10.9998C11.3386 11.0061 11.6518 10.8476 11.843 10.5766L12.9557 9H15C15.5523 9 16 8.55229 16 8C16 7.44772 15.5523 7 15 7H12.4374C12.1125 7 11.8078 7.1579 11.6204 7.4234L11.0598 8.21771L8.61294 4.45485C8.42435 4.16484 8.09926 3.99289 7.7534 4.00023C7.40754 4.00756 7.09004 4.19313 6.91391 4.49087L5.42968 7H2V3H18V12H2V11C2 10.4477 1.55228 10 1 10C0.447715 10 0 10.4477 0 11V12C0 13.1046 0.895432 14 2 14H18C19.1046 14 20 13.1046 20 12V3C20 1.89543 19.1046 1 18 1H2Z" fill="#3D75E4"/>
<path d="M11 16C11 15.4477 10.5523 15 10 15C9.44771 15 9 15.4477 9 16V17H6C5.44772 17 5 17.4477 5 18C5 18.5523 5.44772 19 6 19H14C14.5523 19 15 18.5523 15 18C15 17.4477 14.5523 17 14 17H11V16Z" fill="#3D75E4"/>
</svg>
