<svg width="21" height="21" viewBox="0 0 21 21" fill="none" xmlns="http://www.w3.org/2000/svg">
<path fill-rule="evenodd" clip-rule="evenodd" d="M7.375 0.875C5.71815 0.875 4.375 2.21815 4.375 3.875V13.625C4.375 15.2819 5.71815 16.625 7.375 16.625H17.125C18.7819 16.625 20.125 15.2819 20.125 13.625V3.875C20.125 2.21815 18.7819 0.875 17.125 0.875H7.375ZM6.375 3.875C6.375 3.32272 6.82272 2.875 7.375 2.875H17.125C17.6773 2.875 18.125 3.32272 18.125 3.875V13.625C18.125 14.1773 17.6773 14.625 17.125 14.625H7.375C6.82272 14.625 6.375 14.1773 6.375 13.625V3.875Z" fill="#3D75E4"/>
<path d="M0.25 7.625C0.25 8.17728 0.697715 8.625 1.25 8.625C1.80228 8.625 2.25 8.17728 2.25 7.625C2.25 7.07272 1.80228 6.625 1.25 6.625C0.697715 6.625 0.25 7.07272 0.25 7.625Z" fill="#3D75E4"/>
<path d="M1.25 12.625C0.697715 12.625 0.25 12.1773 0.25 11.625C0.25 11.0727 0.697715 10.625 1.25 10.625C1.80228 10.625 2.25 11.0727 2.25 11.625C2.25 12.1773 1.80228 12.625 1.25 12.625Z" fill="#3D75E4"/>
<path d="M1.25 16.625C0.697715 16.625 0.25 16.1773 0.25 15.625C0.25 15.0727 0.697715 14.625 1.25 14.625C1.80228 14.625 2.25 15.0727 2.25 15.625C2.25 16.1773 1.80228 16.625 1.25 16.625Z" fill="#3D75E4"/>
<path d="M13 20.5C12.4477 20.5 12 20.0523 12 19.5C12 18.9477 12.4477 18.5 13 18.5C13.5523 18.5 14 18.9477 14 19.5C14 20.0523 13.5523 20.5 13 20.5Z" fill="#3D75E4"/>
<path d="M8 19.5C8 20.0523 8.44772 20.5 9 20.5C9.55228 20.5 10 20.0523 10 19.5C10 18.9477 9.55228 18.5 9 18.5C8.44772 18.5 8 18.9477 8 19.5Z" fill="#3D75E4"/>
<path d="M5 20.5C4.44772 20.5 4 20.0523 4 19.5C4 18.9477 4.44772 18.5 5 18.5C5.55228 18.5 6 18.9477 6 19.5C6 20.0523 5.55228 20.5 5 20.5Z" fill="#3D75E4"/>
<path d="M0.25 19.5C0.25 20.0523 0.697715 20.5 1.25 20.5C1.80228 20.5 2.25 20.0523 2.25 19.5C2.25 18.9477 1.80228 18.5 1.25 18.5C0.697715 18.5 0.25 18.9477 0.25 19.5Z" fill="#3D75E4"/>
</svg>
