<svg width="20" height="20" viewBox="0 0 20 20" fill="none" xmlns="http://www.w3.org/2000/svg">
<g clip-path="url(#clip0)">
<path fill-rule="evenodd" clip-rule="evenodd" d="M12 15C12 13.3432 13.3431 12 15 12H20V15C20 16.6569 18.6569 18 17 18H15C13.3431 18 12 16.6569 12 15ZM15 14C14.4477 14 14 14.4477 14 15C14 15.5523 14.4477 16 15 16H17C17.5523 16 18 15.5523 18 15V14H15ZM0 17C0 15.3432 1.34315 14 3 14H8V17C8 18.6569 6.65685 20 5 20H3C1.34315 20 0 18.6569 0 17ZM3 16C2.44772 16 2 16.4477 2 17C2 17.5523 2.44772 18 3 18H5C5.55228 18 6 17.5523 6 17V16H3Z" fill="#3D75E4"/>
<path fill-rule="evenodd" clip-rule="evenodd" d="M19.6464 0.236988C19.8707 0.426991 20 0.706055 20 1.00001V13C20 13.5523 19.5523 14 19 14C18.4477 14 18 13.5523 18 13V2.18047L8 3.84713V15C8 15.5523 7.55228 16 7 16C6.44772 16 6 15.5523 6 15V3.00001C6 2.51117 6.35341 2.09398 6.8356 2.01361L18.8356 0.0136136C19.1256 -0.0347118 19.4221 0.0469841 19.6464 0.236988Z" fill="#3D75E4"/>
<path fill-rule="evenodd" clip-rule="evenodd" d="M16.9852 5.82867C17.0798 6.37278 16.7155 6.89059 16.1713 6.98522L4.67134 8.98522C4.12722 9.07985 3.60942 8.71547 3.51479 8.17135C3.42016 7.62723 3.78454 7.10942 4.32866 7.0148L15.8287 5.0148C16.3728 4.92017 16.8906 5.28455 16.9852 5.82867Z" fill="#3D75E4"/>
</g>
<defs>
<clipPath id="clip0">
<rect width="20" height="20" fill="white"/>
</clipPath>
</defs>
</svg>
