<svg width="20" height="20" viewBox="0 0 20 20" fill="none" xmlns="http://www.w3.org/2000/svg">
<path d="M13.0572 0.374352C12.7725 0.0194437 12.2841 -0.0985523 11.8688 0.0872296C11.4535 0.273011 11.2159 0.715735 11.2907 1.16452C11.6654 3.41151 11.1748 5.13618 10.4445 6.06862C10.0834 6.52962 9.68756 6.77288 9.32215 6.85498C8.97038 6.93401 8.55224 6.88612 8.07588 6.58934C7.60713 6.2973 6.99038 6.44056 6.69834 6.90932C6.4063 7.37807 6.54956 7.99482 7.01831 8.28686C7.89365 8.8322 8.84456 9.01213 9.76057 8.80633C10.6629 8.60359 11.4335 8.04936 12.019 7.30183C12.6327 6.51829 13.0681 5.49746 13.2776 4.31921C14.8706 7.31073 15.3173 10.3662 14.9346 12.8269C14.4287 16.08 12.5864 18.0001 10.2768 18.0001C8.63576 18.0001 7.4914 17.5319 6.69998 16.8407C5.89883 16.1409 5.37214 15.1357 5.11609 13.9191C4.59708 11.453 5.24267 8.33306 6.63351 6.01448C6.91761 5.54087 6.76399 4.92662 6.29038 4.64252C5.81677 4.35842 5.20252 4.51204 4.91842 4.98565C3.30993 7.66707 2.52047 11.2971 3.15897 14.331C3.48168 15.8644 4.18188 17.2967 5.3843 18.347C6.59644 19.4057 8.23232 20.0001 10.2768 20.0001C13.9805 20.0001 16.3261 16.8942 16.9108 13.1342C17.5024 9.33033 16.4076 4.55117 13.0572 0.374352Z" fill="#3D75E4"/>
<path d="M10.6081 11.1731C10.0488 11.4177 9.4232 11.6912 8.5494 12.3713C7.46158 13.218 7.1769 15.0774 8.3359 15.8877C10.8667 17.6572 13.3238 14.2882 13.0498 10.2892C13.0265 9.94808 12.6043 9.82699 12.3583 10.0645C11.708 10.6922 11.1944 10.9167 10.6081 11.1731Z" fill="#3D75E4"/>
</svg>
