<svg width="20" height="20" viewBox="0 0 20 20" fill="none" xmlns="http://www.w3.org/2000/svg">
<path d="M8.00012 10C8.00012 10.5523 7.5524 11 7.00012 11C6.44783 11 6.00012 10.5523 6.00012 10C6.00012 9.44775 6.44783 9.00004 7.00012 9.00004C7.5524 9.00004 8.00012 9.44775 8.00012 10Z" fill="#3D75E4"/>
<path d="M11.0001 10C11.0001 10.5523 10.5524 11 10.0001 11C9.44783 11 9.00012 10.5523 9.00012 10C9.00012 9.44775 9.44783 9.00004 10.0001 9.00004C10.5524 9.00004 11.0001 9.44775 11.0001 10Z" fill="#3D75E4"/>
<path d="M14.0001 10C14.0001 10.5523 13.5524 11 13.0001 11C12.4478 11 12.0001 10.5523 12.0001 10C12.0001 9.44775 12.4478 9.00004 13.0001 9.00004C13.5524 9.00004 14.0001 9.44775 14.0001 10Z" fill="#3D75E4"/>
<path fill-rule="evenodd" clip-rule="evenodd" d="M7.17169 1.41425C8.73379 -0.147848 11.2664 -0.147848 12.8285 1.41425L18.4854 7.0711C20.0475 8.6332 20.0475 11.1659 18.4854 12.728L12.8285 18.3848C11.2664 19.9469 8.73379 19.9469 7.17169 18.3848L1.51483 12.728C-0.0472625 11.1659 -0.0472625 8.6332 1.51483 7.0711L7.17169 1.41425ZM11.4143 2.82846C10.6333 2.04741 9.36695 2.04741 8.5859 2.82846L2.92905 8.48532C2.148 9.26637 2.148 10.5327 2.92905 11.3137L8.5859 16.9706C9.36695 17.7516 10.6333 17.7516 11.4143 16.9706L17.0712 11.3137C17.8522 10.5327 17.8522 9.26637 17.0712 8.48532L11.4143 2.82846Z" fill="#3D75E4"/>
</svg>
