<svg width="20" height="20" viewBox="0 0 20 20" fill="none" xmlns="http://www.w3.org/2000/svg">
<path fill-rule="evenodd" clip-rule="evenodd" d="M13.9994 6.99991H1.99996C1.44998 6.99991 1 6.54993 1 5.99996C1 5.44998 1.44998 5 1.99996 5H13.9994C14.5494 5 14.9994 5.44998 14.9994 5.99996C14.9994 6.54993 14.5494 6.99991 13.9994 6.99991ZM13.9994 11H1.99996C1.44998 11 1 10.55 1 10.0001C1 9.45008 1.44998 9.0001 1.99996 9.0001H13.9994C14.5494 9.0001 14.9994 9.45008 14.9994 10.0001C14.9994 10.55 14.5494 11 13.9994 11ZM1.99996 14.9999H13.9994C14.5494 14.9999 14.9994 14.5499 14.9994 13.9999C14.9994 13.4499 14.5494 13 13.9994 13H1.99996C1.44998 13 1 13.4499 1 13.9999C1 14.5499 1.44998 14.9999 1.99996 14.9999ZM19.0003 13.9999C19.0003 14.5522 18.5526 14.9999 18.0004 14.9999C17.4481 14.9999 17.0004 14.5522 17.0004 13.9999C17.0004 13.4476 17.4481 13 18.0004 13C18.5526 13 19.0003 13.4476 19.0003 13.9999ZM18.0004 5.00024C17.4481 5.00024 17.0004 5.44794 17.0004 6.0002C17.0004 6.55246 17.4481 7.00016 18.0004 7.00016C18.5526 7.00016 19.0003 6.55246 19.0003 6.0002C19.0003 5.44794 18.5526 5.00024 18.0004 5.00024ZM19.0003 10.0001C19.0003 10.5523 18.5526 11 18.0004 11C17.4481 11 17.0004 10.5523 17.0004 10.0001C17.0004 9.44779 17.4481 9.0001 18.0004 9.0001C18.5526 9.0001 19.0003 9.44779 19.0003 10.0001Z" fill="#3D75E4"/>
</svg>
