<svg width="20" height="20" viewBox="0 0 20 20" fill="none" xmlns="http://www.w3.org/2000/svg">
<path d="M14.2807 0.293921C14.0696 0.0827647 13.7754 -0.0233796 13.478 0.0043366C13.1807 0.0320529 12.9111 0.19075 12.7427 0.437295L8.45471 6.71158C7.60426 6.48976 6.70153 6.4671 5.85751 6.60554C4.74582 6.78788 3.64366 7.26557 2.85212 8.0571C2.46027 8.44895 2.46022 9.08423 2.85201 9.47614L5.97792 12.603L0.29392 18.2869C-0.0979735 18.6788 -0.0979732 19.3142 0.29392 19.7061C0.685813 20.098 1.3212 20.098 1.71309 19.7061L8.09611 13.3232C8.0996 13.3198 8.10307 13.3163 8.10652 13.3129C8.16095 13.2585 8.20782 13.1994 8.24714 13.1369C8.49127 12.7492 8.44451 12.2309 8.10688 11.8932C8.09963 11.886 8.09228 11.8788 8.08486 11.8719L5.11898 8.90506C5.4359 8.7596 5.79561 8.64949 6.18237 8.58605C6.97669 8.45577 7.79319 8.53818 8.4487 8.82642C8.8908 9.02082 9.40866 8.87275 9.68116 8.47402L13.7171 2.56853L17.4021 6.25354L11.3537 10.1006C10.9356 10.3665 10.7742 10.8977 10.9736 11.3513C11.2723 12.0304 11.3974 12.9192 11.3068 13.7748C11.2646 14.1729 11.1794 14.5344 11.0614 14.8471L10.6651 14.4508C10.2732 14.0589 9.63781 14.0589 9.24591 14.4508C8.85402 14.8427 8.85402 15.4781 9.24591 15.87L10.5247 17.1487C10.9166 17.5406 11.552 17.5406 11.9438 17.1487C12.771 16.3215 13.1816 15.1294 13.3026 13.9861C13.394 13.1232 13.3298 12.2092 13.1007 11.368L19.535 7.27546C19.7919 7.11208 19.9607 6.84094 19.994 6.53834C20.0272 6.23574 19.9213 5.93441 19.7061 5.71916L14.2807 0.293921Z" fill="#3D75E4"/>
</svg>
