<svg width="20" height="20" viewBox="0 0 20 20" fill="none" xmlns="http://www.w3.org/2000/svg">
<path fill-rule="evenodd" clip-rule="evenodd" d="M4 2C4 0.89543 4.89543 0 6 0H14C15.1046 0 16 0.89543 16 2V5H18C19.1046 5 20 5.89543 20 7V14C20 15.1046 19.1046 16 18 16C17.4477 16 17 15.5523 17 15C17 14.4477 17.4477 14 18 14V7H2V14C2.55228 14 3 14.4477 3 15C3 15.5523 2.55228 16 2 16C0.895431 16 0 15.1046 0 14V7C0 5.89543 0.895431 5 2 5H4V2ZM14 2V5H6V2H14Z" fill="#3D75E4"/>
<path fill-rule="evenodd" clip-rule="evenodd" d="M5 13C4.44772 13 4 13.4477 4 14V19C4 19.5523 4.44772 20 5 20H15C15.5523 20 16 19.5523 16 19V14C16 13.4477 15.5523 13 15 13H5ZM6 18V15H14V18H6Z" fill="#3D75E4"/>
<path d="M15 11C15.5523 11 16 10.5523 16 10C16 9.44771 15.5523 9 15 9C14.4477 9 14 9.44771 14 10C14 10.5523 14.4477 11 15 11Z" fill="#3D75E4"/>
</svg>
