<svg width="20" height="20" viewBox="0 0 20 20" fill="none" xmlns="http://www.w3.org/2000/svg">
<path fill-rule="evenodd" clip-rule="evenodd" d="M13.6805 8.26721C14.0852 8.64301 14.1086 9.27574 13.7328 9.68045L10.0185 13.6805C9.8293 13.8842 9.56378 14 9.28572 14C9.00765 14 8.74213 13.8842 8.55292 13.6805L6.26721 11.2189C5.8914 10.8142 5.91484 10.1815 6.31955 9.80567C6.72426 9.42987 7.35699 9.4533 7.73279 9.85801L9.28572 11.5304L12.2672 8.31955C12.643 7.91484 13.2757 7.8914 13.6805 8.26721Z" fill="#3D75E4"/>
<path fill-rule="evenodd" clip-rule="evenodd" d="M2 3C2 1.89543 2.89543 1 4 1H4.75C5.30228 1 5.75 1.44772 5.75 2C5.75 2.55228 5.30228 3 4.75 3H4V18H16L16 3H15.25C14.6977 3 14.25 2.55228 14.25 2C14.25 1.44772 14.6977 1 15.25 1H16C17.1046 1 18 1.89543 18 3V18C18 19.1046 17.1046 20 16 20H4C2.89543 20 2 19.1046 2 18V3Z" fill="#3D75E4"/>
<path d="M7 2C7 0.895431 7.89543 0 9 0H11C12.1046 0 13 0.895431 13 2C13 2.55228 12.5523 3 12 3H8C7.44772 3 7 2.55228 7 2Z" fill="#3D75E4"/>
</svg>
