<svg width="20" height="20" viewBox="0 0 20 20" fill="none" xmlns="http://www.w3.org/2000/svg">
<g clip-path="url(#clip0)">
<path d="M8.21065 19.6139C8.54972 20.0498 9.17799 20.1284 9.61394 19.7893C10.0499 19.4502 10.1284 18.822 9.78935 18.386L3.26686 9.99995L9.78935 1.6139C10.1284 1.17795 10.0499 0.549673 9.61394 0.210602C9.178 -0.128468 8.54972 -0.0499328 8.21065 0.386013L1.21065 9.38601C0.929784 9.74712 0.929784 10.2528 1.21065 10.6139L8.21065 19.6139Z" fill="#3D75E4"/>
<path d="M17.2106 19.6139C17.5497 20.0498 18.178 20.1284 18.6139 19.7893C19.0499 19.4502 19.1284 18.822 18.7894 18.386L12.2669 9.99995L18.7894 1.6139C19.1284 1.17795 19.0499 0.549673 18.6139 0.210602C18.178 -0.128468 17.5497 -0.0499328 17.2106 0.386013L10.2106 9.38601C9.92978 9.74712 9.92978 10.2528 10.2106 10.6139L17.2106 19.6139Z" fill="#3D75E4"/>
</g>
<defs>
<clipPath id="clip0">
<rect width="20" height="20" fill="white"/>
</clipPath>
</defs>
</svg>
