<svg width="20" height="20" viewBox="0 0 20 20" fill="none" xmlns="http://www.w3.org/2000/svg">
<path fill-rule="evenodd" clip-rule="evenodd" d="M9.20402 8.10146C7.35251 6.24814 7.35251 3.24331 9.20402 1.38999C11.0555 -0.46333 14.0574 -0.46333 15.9089 1.38999C17.4695 2.95204 17.7147 5.33209 16.6447 7.15126L19.707 10.2166C20.0976 10.6075 20.0976 11.2413 19.707 11.6322C19.3165 12.0231 18.6834 12.0231 18.2928 11.6322L15.2887 8.62511C13.4382 9.93424 10.8606 9.75969 9.20402 8.10146ZM10.6182 2.80559C9.54777 3.87709 9.54777 5.61435 10.6182 6.68586C11.6887 7.75737 13.4243 7.75737 14.4947 6.68586C15.5652 5.61435 15.5652 3.87709 14.4947 2.80559C13.4243 1.73408 11.6887 1.73408 10.6182 2.80559Z" fill="#3D75E4"/>
<path d="M7.55481 9.15735C8.01433 9.464 8.13851 10.0855 7.83216 10.5455L1.83216 19.5542C1.5258 20.0142 0.904935 20.1385 0.445406 19.8319C-0.0141227 19.5252 -0.138296 18.9037 0.168056 18.4438L6.16806 9.43497C6.47441 8.97499 7.09528 8.85069 7.55481 9.15735Z" fill="#3D75E4"/>
<path d="M13.4452 10.6588C12.9857 10.9655 12.8615 11.5869 13.1678 12.0469L18.1678 19.5542C18.4742 20.0142 19.0951 20.1385 19.5546 19.8319C20.0141 19.5252 20.1383 18.9037 19.8319 18.4438L14.8319 10.9364C14.5256 10.4765 13.9047 10.3522 13.4452 10.6588Z" fill="#3D75E4"/>
<path d="M11 11.9921C11 11.4392 10.5523 10.9911 10 10.9911C9.44771 10.9911 9 11.4392 9 11.9921V13.994C9 14.5468 9.44771 14.995 10 14.995C10.5523 14.995 11 14.5468 11 13.994V11.9921Z" fill="#3D75E4"/>
<path d="M11 16.9969C11 16.4441 10.5523 15.996 10 15.996C9.44771 15.996 9 16.4441 9 16.9969V18.9989C9 19.5517 9.44771 19.9999 10 19.9999C10.5523 19.9999 11 19.5517 11 18.9989V16.9969Z" fill="#3D75E4"/>
</svg>
