<svg width="20" height="20" viewBox="0 0 20 20" fill="none" xmlns="http://www.w3.org/2000/svg">
<path d="M5 14C5 13.4477 5.44772 13 6 13H14C14.5523 13 15 13.4477 15 14C15 14.5523 14.5523 15 14 15H6C5.44772 15 5 14.5523 5 14Z" fill="#3D75E4"/>
<path fill-rule="evenodd" clip-rule="evenodd" d="M14 2V9H6V1C6 0.447715 5.55228 0 5 0H3C1.34315 0 0 1.34315 0 3V17C0 18.6569 1.34315 20 3 20H17C18.6569 20 20 18.6569 20 17V3C20 1.34315 18.6569 0 17 0H8.5C7.94772 0 7.5 0.447715 7.5 1C7.5 1.55228 7.94772 2 8.5 2H14ZM2 3C2 2.44772 2.44772 2 3 2H4V10C4 10.5523 4.44772 11 5 11H15C15.5523 11 16 10.5523 16 10V2H17C17.5523 2 18 2.44772 18 3V17C18 17.5523 17.5523 18 17 18H3C2.44772 18 2 17.5523 2 17V3Z" fill="#3D75E4"/>
<path d="M11 7C11 7.55228 11.4477 8 12 8C12.5523 8 13 7.55228 13 7V4C13 3.44772 12.5523 3 12 3C11.4477 3 11 3.44772 11 4V7Z" fill="#3D75E4"/>
</svg>
