<svg width="20" height="20" viewBox="0 0 20 20" fill="none" xmlns="http://www.w3.org/2000/svg">
<path fill-rule="evenodd" clip-rule="evenodd" d="M9 1C9 0.447715 8.55229 0 8 0C3.58172 0 0 3.58172 0 8C0 8.55228 0.447715 9 1 9H8C8.55229 9 9 8.55228 9 8V1ZM7 2.08296V7H2.08296C2.50448 4.4875 4.4875 2.50448 7 2.08296Z" fill="#3D75E4"/>
<path d="M15.1761 13.7619C16.3185 12.3145 17.0003 10.4868 17.0003 8.49978C17.0003 4.79726 14.6335 1.6501 11.3335 0.483702C10.8128 0.299655 10.2415 0.57258 10.0574 1.0933C9.87338 1.61401 10.1463 2.18534 10.667 2.36938C13.193 3.26217 15.0003 5.6712 15.0003 8.49978C15.0003 12.0896 12.0901 14.9998 8.50027 14.9998C5.67169 14.9998 3.26266 13.1925 2.36987 10.6665C2.18582 10.1458 1.6145 9.87289 1.09378 10.0569C0.573068 10.241 0.300144 10.8123 0.48419 11.333C1.65058 14.6331 4.79775 16.9998 8.50027 16.9998C10.487 16.9998 12.3146 16.3182 13.7618 15.176L18.293 19.7072C18.6835 20.0977 19.3167 20.0977 19.7072 19.7072C20.0977 19.3167 20.0977 18.6835 19.7072 18.293L15.1761 13.7619Z" fill="#3D75E4"/>
</svg>
