<svg width="20" height="20" viewBox="0 0 20 20" fill="none" xmlns="http://www.w3.org/2000/svg">
<path fill-rule="evenodd" clip-rule="evenodd" d="M8.99013 2.25778C8.64107 2.42505 8.27615 2.66602 7.81454 2.97616C7.80369 2.98345 7.7928 2.99076 7.78187 2.99811C7.10502 3.45296 6.26526 4.01729 5.19334 4.36415C4.81765 4.48573 4.49577 4.68474 4.28963 4.90747C4.09372 5.11914 4.02519 5.32057 4.03981 5.52025C4.30152 9.09619 5.83433 13.0651 8.12221 15.8676C8.47147 16.2954 8.40779 16.9254 7.97996 17.2746C7.55213 17.6239 6.92218 17.5602 6.57292 17.1324C4.01627 14.0006 2.33581 9.63775 2.04514 5.66623C1.9168 3.91254 3.40046 2.84221 4.5776 2.4613C5.36409 2.2068 5.99727 1.78763 6.69917 1.31605C6.71505 1.30538 6.73101 1.29466 6.74704 1.28388C7.30022 0.912014 7.94638 0.477637 8.67864 0.226617C9.31532 0.00836133 9.93476 0.189315 10.3591 0.567826C10.7639 0.928954 10.9901 1.45915 10.9901 2.00662L10.99 16.85C13.7458 14.0621 15.6621 9.55201 15.9598 5.51932C15.9745 5.31989 15.9062 5.11879 15.7105 4.90732C15.5045 4.68473 15.1826 4.48576 14.8068 4.36416C13.7349 4.01729 12.8952 3.45297 12.2183 2.99811L12.1857 2.97616C11.7272 2.66816 11.6053 2.04685 11.9133 1.58842C12.2213 1.13 12.8426 1.00805 13.301 1.31605C14.0029 1.78763 14.6361 2.2068 15.4226 2.4613C16.5994 2.84209 18.0838 3.91225 17.9543 5.66655C17.6168 10.2387 15.4248 15.3645 12.1528 18.5122C11.5449 19.097 10.7221 19.1713 10.0699 18.8544C9.43457 18.5456 8.99003 17.8849 8.99004 17.0948L8.99013 2.25778Z" fill="#3D75E4"/>
</svg>
