<svg width="20" height="20" viewBox="0 0 20 20" fill="none" xmlns="http://www.w3.org/2000/svg">
<g clip-path="url(#clip0)">
<path fill-rule="evenodd" clip-rule="evenodd" d="M6.66001 14.538L2.14001 10.03C1.90473 9.79521 1.58591 9.66334 1.25351 9.66334C0.921115 9.66334 0.602295 9.79521 0.367012 10.03C-0.122988 10.518 -0.122988 11.31 0.367012 11.798L5.66701 17.084C5.93901 17.355 6.30401 17.476 6.66001 17.445C7.01501 17.475 7.38101 17.355 7.65301 17.084L19.633 5.134C20.123 4.647 20.123 3.855 19.633 3.367C19.3978 3.13251 19.0792 3.00084 18.747 3.00084C18.4149 3.00084 18.0963 3.13251 17.861 3.367L6.66001 14.538Z" fill="#3D75E4"/>
</g>
<defs>
<clipPath id="clip0">
<rect width="20" height="20" fill="white"/>
</clipPath>
</defs>
</svg>
