<svg width="20" height="20" viewBox="0 0 20 20" fill="none" xmlns="http://www.w3.org/2000/svg">
<path d="M19.4451 5.5306C19.8424 5.91421 19.8536 6.54728 19.4699 6.9446L12.4605 14.2044C11.281 15.426 9.32356 15.426 8.14406 14.2044L5.35872 11.3196C4.97511 10.9223 4.98622 10.2892 5.38353 9.9056C5.78085 9.52199 6.41391 9.53309 6.79753 9.93041L9.58286 12.8152C9.97603 13.2224 10.6285 13.2224 11.0217 12.8152L18.0311 5.55541C18.4148 5.15809 19.0478 5.14699 19.4451 5.5306Z" fill="#3D75E4"/>
<path d="M14.0389 6.35019C14.4362 6.73381 14.4473 7.36687 14.0637 7.76419L11.0465 10.8892C10.6629 11.2865 10.0298 11.2976 9.63248 10.914C9.23516 10.5304 9.22406 9.89731 9.60767 9.5L12.6249 6.375C13.0085 5.97769 13.6416 5.96658 14.0389 6.35019Z" fill="#3D75E4"/>
<path d="M1.9694 9.93041C1.58579 9.53309 0.952721 9.52199 0.555406 9.9056C0.158092 10.2892 0.146986 10.9223 0.5306 11.3196L4.75474 15.6946C5.13835 16.0919 5.77142 16.103 6.16873 15.7194C6.56605 15.3358 6.57715 14.7027 6.19354 14.3054L1.9694 9.93041Z" fill="#3D75E4"/>
</svg>
