<svg width="20" height="20" viewBox="0 0 20 20" fill="none" xmlns="http://www.w3.org/2000/svg">
<path fill-rule="evenodd" clip-rule="evenodd" d="M8.60741 17.9992L8.3337 18.4727C7.91898 19.1901 7.00046 19.4359 6.28213 19.0217L3.68085 17.5217C2.96253 17.1075 2.71641 16.1901 3.13114 15.4727L3.40429 15.0002C3.11608 14.648 2.85244 14.2681 2.61736 13.8615C2.39016 13.4684 2.19795 13.0648 2.03979 12.6542H1.50185C0.672401 12.6542 0 11.9826 0 11.1542V8.15415C0 7.32572 0.672401 6.65415 1.50185 6.65415H2.00863C2.33295 5.77982 2.80148 4.95601 3.40375 4.22185L3.13114 3.75025C2.71641 3.03281 2.96253 2.11543 3.68085 1.70121L6.28213 0.201212C7.00046 -0.213001 7.91898 0.0328115 8.3337 0.75025L8.60631 1.22185C9.54403 1.06799 10.4926 1.07463 11.4129 1.23128L11.6663 0.792936C12.081 0.0754967 12.9995 -0.170316 13.7179 0.243898L16.3191 1.7439C17.0375 2.15811 17.2836 3.0755 16.8689 3.79294L16.5999 4.25823C16.8769 4.60035 17.1308 4.96842 17.358 5.36147C17.593 5.76813 17.7906 6.18612 17.9518 6.61147H18.4981C19.3276 6.61147 20 7.28304 20 8.11147V11.1115C20 11.9399 19.3276 12.6115 18.4981 12.6115H17.9507C17.6271 13.4699 17.164 14.2789 16.5716 15.0011L16.8442 15.4727C17.2589 16.1901 17.0128 17.1075 16.2945 17.5217L13.6932 19.0217C12.9749 19.4359 12.0563 19.1901 11.6416 18.4727L11.369 18.0011C10.4466 18.1524 9.5136 18.1485 8.60741 17.9992ZM14.0709 4.54778L14.6094 3.61628C14.7476 3.37713 14.6656 3.07133 14.4261 2.93326L13.5591 2.43326C13.3196 2.29519 13.0134 2.37713 12.8752 2.61628L12.336 3.54912C10.8579 2.97903 9.18314 2.94963 7.63902 3.54851L7.10013 2.61628C6.96189 2.37713 6.65572 2.29519 6.41627 2.43326L5.54918 2.93326C5.30974 3.07133 5.2277 3.37713 5.36594 3.61628L5.90483 4.54851C4.61349 5.58467 3.80162 7.04794 3.5569 8.61147H2.47841C2.20193 8.61147 1.97779 8.83532 1.97779 9.11147V10.1115C1.97779 10.3876 2.20193 10.6115 2.47841 10.6115H3.55535C3.67535 11.3826 3.93742 12.145 4.35155 12.8615C4.76569 13.5779 5.29575 14.1858 5.90441 14.6751L5.36594 15.6067C5.2277 15.8458 5.30974 16.1516 5.54918 16.2897L6.41627 16.7897C6.65572 16.9277 6.96189 16.8458 7.10013 16.6067L7.63937 15.6738C9.11746 16.2439 10.7922 16.2733 12.3363 15.6744L12.8752 16.6067C13.0134 16.8458 13.3196 16.9277 13.5591 16.7897L14.4261 16.2897C14.6656 16.1516 14.7476 15.8458 14.6094 15.6067L14.0705 14.6744C15.3618 13.6383 16.1737 12.175 16.4184 10.6115H17.4969C17.7734 10.6115 17.9975 10.3876 17.9975 10.1115V9.11147C17.9975 8.83532 17.7734 8.61147 17.4969 8.61147H16.42C16.3 7.84031 16.0379 7.07788 15.6238 6.36147C15.2096 5.64505 14.6796 5.03716 14.0709 4.54778ZM11.9997 13.0756C10.0868 14.1801 7.64086 13.5246 6.53648 11.6115C5.43209 9.6983 6.08748 7.25193 8.00033 6.14736C9.91319 5.0428 12.3591 5.6983 13.4635 7.61147C14.5679 9.52464 13.9125 11.971 11.9997 13.0756ZM10.9998 11.3435C11.9563 10.7912 12.284 9.56805 11.7318 8.61147C11.1796 7.65488 9.95659 7.32713 9.00017 7.87942C8.04374 8.4317 7.71605 9.65488 8.26824 10.6115C8.82043 11.5681 10.0434 11.8958 10.9998 11.3435Z" fill="#3D75E4"/>
</svg>
