<svg width="20" height="20" viewBox="0 0 20 20" fill="none" xmlns="http://www.w3.org/2000/svg">
<path fill-rule="evenodd" clip-rule="evenodd" d="M4 8C2.89543 8 2 8.89543 2 10C2 11.1046 2.89543 12 4 12C5.10457 12 6 11.1046 6 10C6 8.89543 5.10457 8 4 8ZM0 10C0 7.79086 1.79086 6 4 6C6.20914 6 8 7.79086 8 10C8 12.2091 6.20914 14 4 14C1.79086 14 0 12.2091 0 10Z" fill="#3D75E4"/>
<path fill-rule="evenodd" clip-rule="evenodd" d="M16 2C14.8954 2 14 2.89543 14 4C14 5.10457 14.8954 6 16 6C17.1046 6 18 5.10457 18 4C18 2.89543 17.1046 2 16 2ZM12 4C12 1.79086 13.7909 0 16 0C18.2091 0 20 1.79086 20 4C20 6.20914 18.2091 8 16 8C13.7909 8 12 6.20914 12 4Z" fill="#3D75E4"/>
<path fill-rule="evenodd" clip-rule="evenodd" d="M16 14C14.8954 14 14 14.8954 14 16C14 17.1046 14.8954 18 16 18C17.1046 18 18 17.1046 18 16C18 14.8954 17.1046 14 16 14ZM12 16C12 13.7909 13.7909 12 16 12C18.2091 12 20 13.7909 20 16C20 18.2091 18.2091 20 16 20C13.7909 20 12 18.2091 12 16Z" fill="#3D75E4"/>
<path fill-rule="evenodd" clip-rule="evenodd" d="M11.848 5.47C12.1407 5.93834 11.9983 6.55529 11.53 6.848L7.53 9.348C7.06166 9.64071 6.44471 9.49833 6.152 9.03C5.85929 8.56166 6.00166 7.94471 6.47 7.652L10.47 5.152C10.9383 4.85929 11.5553 5.00166 11.848 5.47Z" fill="#3D75E4"/>
<path fill-rule="evenodd" clip-rule="evenodd" d="M8.10557 12.0528C8.35256 11.5588 8.95324 11.3586 9.44721 11.6056L13.4472 13.6056C13.9412 13.8526 14.1414 14.4532 13.8944 14.9472C13.6474 15.4412 13.0468 15.6414 12.5528 15.3944L8.55279 13.3944C8.05881 13.1474 7.85858 12.5468 8.10557 12.0528Z" fill="#3D75E4"/>
</svg>
