<svg width="20" height="20" viewBox="0 0 20 20" fill="none" xmlns="http://www.w3.org/2000/svg">
<path d="M1 3C1 2.44772 1.44772 2 2 2H18C18.5523 2 19 2.44772 19 3C19 3.55228 18.5523 4 18 4H2C1.44772 4 1 3.55228 1 3Z" fill="#3D75E4"/>
<path d="M5 10C5 9.44772 5.44772 9 6 9H18C18.5523 9 19 9.44772 19 10C19 10.5523 18.5523 11 18 11H6C5.44772 11 5 10.5523 5 10Z" fill="#3D75E4"/>
<path d="M10 16C9.44771 16 9 16.4477 9 17C9 17.5523 9.44771 18 10 18H18C18.5523 18 19 17.5523 19 17C19 16.4477 18.5523 16 18 16H10Z" fill="#3D75E4"/>
</svg>
