<svg width="20" height="20" viewBox="0 0 20 20" fill="none" xmlns="http://www.w3.org/2000/svg">
<path fill-rule="evenodd" clip-rule="evenodd" d="M13.2154 8.23335C12.4494 8.18141 11.7808 7.69563 11.4947 6.98323L9.99949 3.25972L8.50423 6.98323C8.21815 7.69563 7.54953 8.18141 6.78358 8.23335L2.78026 8.50479L5.85946 11.0775C6.4486 11.5697 6.70399 12.3557 6.51669 13.1002L5.53776 16.9915L8.93607 14.858C9.58626 14.4498 10.4127 14.4498 11.0629 14.858L14.4612 16.9915L13.4823 13.1002C13.295 12.3557 13.5504 11.5697 14.1395 11.0775L17.2187 8.5048L13.2154 8.23335ZM11.3914 1.359C10.8876 0.104294 9.11138 0.104292 8.60753 1.359L6.64828 6.23793L1.4027 6.59361C0.0537111 6.68508 -0.495167 8.37435 0.542427 9.24127L4.57713 12.6123L3.29442 17.711C2.96455 19.0223 4.40154 20.0663 5.54666 19.3474L9.99949 16.5519L14.4523 19.3474C15.5974 20.0663 17.0344 19.0223 16.7045 17.7111L15.4218 12.6123L19.4565 9.24127C20.4941 8.37435 19.9453 6.68508 18.5963 6.59361L13.3507 6.23793L11.3914 1.359Z" fill="#3D75E4"/>
</svg>
