<svg width="20" height="20" viewBox="0 0 20 20" fill="none" xmlns="http://www.w3.org/2000/svg">
<path fill-rule="evenodd" clip-rule="evenodd" d="M5 7C5 4.23858 7.23858 2 10 2C12.7614 2 15 4.23858 15 7V7.5V11V11.5C15 12.8807 16.1193 14 17.5 14C18.8807 14 20 12.8807 20 11.5V7.5C20 6.11929 18.8807 5 17.5 5C17.2364 5 16.9823 5.04081 16.7437 5.11645C15.9211 2.1653 13.2134 0 10 0C6.78656 0 4.07886 2.1653 3.25633 5.11645C3.01773 5.04081 2.76363 5 2.5 5C1.11929 5 0 6.11929 0 7.5V11.5C0 12.8807 1.11929 14 2.5 14C3.88071 14 5 12.8807 5 11.5V11V7.5V7ZM17 11V7.5C17 7.22386 17.2239 7 17.5 7C17.7761 7 18 7.22386 18 7.5V11.5C18 11.7761 17.7761 12 17.5 12C17.2239 12 17 11.7761 17 11.5V11ZM3 7.5V11V11.5C3 11.7761 2.77614 12 2.5 12C2.22386 12 2 11.7761 2 11.5V7.5C2 7.22386 2.22386 7 2.5 7C2.77599 7 2.99975 7.22361 3 7.49954L3 7.5ZM5.40093 15.4993C5.12438 15.0212 4.51266 14.8579 4.0346 15.1344C3.55654 15.4109 3.39317 16.0227 3.66972 16.5007C4.5327 17.9926 6.14812 18.9999 8 19H8.00019H8.26756C8.61337 19.5978 9.25972 20 10 20C11.1046 20 12 19.1046 12 18C12 16.8954 11.1046 16 10 16C9.25972 16 8.61337 16.4022 8.26756 17H8.00019H8C6.89092 16.9999 5.92112 16.3985 5.40093 15.4993Z" fill="#3D75E4"/>
</svg>
