<svg width="20" height="20" viewBox="0 0 20 20" fill="none" xmlns="http://www.w3.org/2000/svg">
<path d="M14 15.5C14.8284 15.5 15.5 14.8284 15.5 14C15.5 13.1716 14.8284 12.5 14 12.5C13.1716 12.5 12.5 13.1716 12.5 14C12.5 14.8284 13.1716 15.5 14 15.5Z" fill="#3D75E4"/>
<path fill-rule="evenodd" clip-rule="evenodd" d="M9.11285 2L6.77951 9H5V6C5 5.44772 4.55228 5 4 5H3C2.44772 5 2 5.44772 2 6C2 6.55228 2.44772 7 3 7V9.12602C1.27477 9.57006 0 11.1362 0 13C0 13.5523 0.447715 14 1 14C1.55228 14 2 13.5523 2 13C2 11.8954 2.89543 11 4 11H7.47718C7.4927 11.0004 7.5082 11.0004 7.52365 11H8.80269C8.29218 11.8825 8 12.9071 8 14C8 14.3407 8.0284 14.6748 8.08296 15H5.23611C4.68679 14.3863 3.8885 14 3 14C1.34315 14 0 15.3431 0 17C0 18.6569 1.34315 20 3 20C4.65685 20 6 18.6569 6 17H8.80269C9.84012 18.7934 11.7792 20 14 20C17.3137 20 20 17.3137 20 14C20 12.4782 19.4335 11.0888 18.4998 10.031C18.5001 10.0207 18.5003 10.0104 18.5003 10V3C18.5003 1.34315 17.1571 0 15.5003 0H8C7.44772 0 7 0.447715 7 1C7 1.55228 7.44772 2 8 2H9.11285ZM11.221 2H13V6C13 6.55228 13.4477 7 14 7C14.5523 7 15 6.55228 15 6V2H15.5003C16.0526 2 16.5003 2.44772 16.5003 3V8.54417C15.7391 8.19479 14.8923 8 14 8C12.7648 8 11.6167 8.37326 10.6625 9.01314C10.6096 9.0045 10.5553 9 10.5 9H8.8877L11.221 2ZM10 14C10 11.7909 11.7909 10 14 10C16.2091 10 18 11.7909 18 14C18 16.2091 16.2091 18 14 18C11.7909 18 10 16.2091 10 14ZM2 17C2 16.4477 2.44772 16 3 16C3.55228 16 4 16.4477 4 17C4 17.5523 3.55228 18 3 18C2.44772 18 2 17.5523 2 17Z" fill="#3D75E4"/>
</svg>
