<svg width="20" height="20" viewBox="0 0 20 20" fill="none" xmlns="http://www.w3.org/2000/svg">
<path fill-rule="evenodd" clip-rule="evenodd" d="M7 1C7 0.447715 7.44772 0 8 0H12C12.5523 0 13 0.447715 13 1C13 1.55228 12.5523 2 12 2H11V4C11 4.02071 10.9994 4.04127 10.9981 4.06166C14.9453 4.55293 18 7.91974 18 12C18 16.4183 14.4183 20 10 20C5.58172 20 2 16.4183 2 12C2 7.91974 5.05465 4.55293 9.00187 4.06166C9.00063 4.04127 9 4.02071 9 4V2H8C7.44772 2 7 1.55228 7 1ZM10 18C13.3137 18 16 15.3137 16 12C16 8.68629 13.3137 6 10 6C6.68629 6 4 8.68629 4 12C4 15.3137 6.68629 18 10 18ZM13.8766 11.0101C14.0128 11.5453 13.5523 12 13 12H11C10.4477 12 10 11.5523 10 11V9C10 8.44771 10.4547 7.98717 10.9899 8.12343C12.4037 8.48335 13.5167 9.59633 13.8766 11.0101Z" fill="#3D75E4"/>
</svg>
