<svg width="20" height="20" viewBox="0 0 20 20" fill="none" xmlns="http://www.w3.org/2000/svg">
<path fill-rule="evenodd" clip-rule="evenodd" d="M1 6C0.447715 6 0 5.55228 0 5C0 4.44772 0.447715 4 1 4C1 2.34315 2.34315 1 4 1H5.26756C5.61337 0.402199 6.25972 0 7 0H13C13.7403 0 14.3866 0.402199 14.7324 1H16C17.6569 1 19 2.34315 19 4C19.5523 4 20 4.44772 20 5C20 5.55228 19.5523 6 19 6H1ZM5 3H4C3.44772 3 3 3.44772 3 4H5V3ZM17 4C17 3.44772 16.5523 3 16 3H15V4H17ZM13 2H7V4H13V2Z" fill="#3D75E4"/>
<path d="M3 8C3 7.44772 2.55228 7 2 7C1.44772 7 1 7.44772 1 8V16C1 17.3209 1.85366 18.4424 3.03938 18.8429C3.19447 19.5061 3.78955 20 4.5 20C5.15311 20 5.70873 19.5826 5.91465 19H14.0854C14.2913 19.5826 14.8469 20 15.5 20C16.2104 20 16.8055 19.5061 16.9606 18.8429C18.1463 18.4424 19 17.3209 19 16V8C19 7.44772 18.5523 7 18 7C17.4477 7 17 7.44772 17 8V16C17 16.5523 16.5523 17 16 17H4C3.44772 17 3 16.5523 3 16V8Z" fill="#3D75E4"/>
<path d="M14 9C14 9.55229 13.5523 10 13 10H7C6.44772 10 6 9.55229 6 9C6 8.44772 6.44772 8 7 8H13C13.5523 8 14 8.44771 14 9Z" fill="#3D75E4"/>
</svg>
