<svg width="20" height="20" viewBox="0 0 20 20" fill="none" xmlns="http://www.w3.org/2000/svg">
<path fill-rule="evenodd" clip-rule="evenodd" d="M11.7763 4.23992C10.7368 3.954 9.63691 3.92303 8.58075 4.15026C7.52468 4.37747 6.55095 4.85444 5.74905 5.53216C4.94744 6.20964 4.34441 7.06478 3.99084 8.01483C3.79821 8.53244 3.22246 8.79588 2.70485 8.60326C2.18725 8.41063 1.92381 7.83487 2.11643 7.31727C2.59278 6.0373 3.40024 4.89865 4.45807 4.00463C5.51563 3.11084 6.78972 2.48983 8.16008 2.195C9.53036 1.90019 10.9565 1.94016 12.3067 2.31153C13.6518 2.68148 14.8819 3.36949 15.8812 4.3164L18 6.20953V3.77614C18 3.22386 18.4477 2.77614 19 2.77614C19.5523 2.77614 20 3.22386 20 3.77614V8.44404C20 8.99632 19.5523 9.44404 19 9.44404H14.0909C13.5386 9.44404 13.0909 8.99632 13.0909 8.44404C13.0909 7.89175 13.5386 7.44404 14.0909 7.44404H16.3799L14.5374 5.79774C14.5296 5.79079 14.5219 5.78373 14.5144 5.77655C13.7571 5.05609 12.8158 4.52581 11.7763 4.23992ZM0 11.556C0 11.0037 0.447715 10.556 1 10.556H5.90909C6.46138 10.556 6.90909 11.0037 6.90909 11.556C6.90909 12.1082 6.46138 12.556 5.90909 12.556H3.62009L5.46264 14.2023C5.47041 14.2092 5.47807 14.2163 5.48562 14.2235C6.24293 14.9439 7.18423 15.4742 8.22367 15.7601C9.26323 16.046 10.3631 16.077 11.4193 15.8497C12.4753 15.6225 13.449 15.1456 14.2509 14.4678C15.0526 13.7904 15.6556 12.9352 16.0092 11.9852C16.2018 11.4676 16.7775 11.2041 17.2951 11.3967C17.8127 11.5894 18.0762 12.1651 17.8836 12.6827C17.4072 13.9627 16.5998 15.1014 15.5419 15.9954C14.4844 16.8892 13.2103 17.5102 11.8399 17.805C10.4696 18.0998 9.04353 18.0598 7.69329 17.6885C6.34818 17.3185 5.11809 16.6305 4.11881 15.6836L2 13.7905V16.2239C2 16.7761 1.55228 17.2239 1 17.2239C0.447715 17.2239 0 16.7761 0 16.2239V11.556Z" fill="#3D75E4"/>
</svg>
