<svg width="20" height="20" viewBox="0 0 20 20" fill="none" xmlns="http://www.w3.org/2000/svg">
<path fill-rule="evenodd" clip-rule="evenodd" d="M2 2C0.895431 2 0 2.89543 0 4V5C0 6.10457 0.895432 7 2 7H18C19.1046 7 20 6.10457 20 5V4C20 2.89543 19.1046 2 18 2H2ZM2 4H18V5H2V4Z" fill="#3D75E4"/>
<path d="M11 12C11 12.5523 10.5523 13 10 13C9.44771 13 9 12.5523 9 12C9 11.4477 9.44771 11 10 11C10.5523 11 11 11.4477 11 12Z" fill="#3D75E4"/>
<path fill-rule="evenodd" clip-rule="evenodd" d="M3 9C3 8.44772 2.55228 8 2 8C1.44772 8 1 8.44772 1 9C1 13.9706 5.02944 18 10 18C14.9706 18 19 13.9706 19 9C19 8.44772 18.5523 8 18 8C17.4477 8 17 8.44772 17 9C17 11.3787 15.8135 13.4804 14 14.7453V12C14 9.79086 12.2091 8 10 8C7.79086 8 6 9.79086 6 12V14.7453C4.18652 13.4804 3 11.3787 3 9ZM8 15.7101C8.63371 15.8987 9.30503 16 10 16C10.695 16 11.3663 15.8987 12 15.7101V12C12 10.8954 11.1046 10 10 10C8.89543 10 8 10.8954 8 12V15.7101Z" fill="#3D75E4"/>
</svg>
