<svg width="40" height="40" viewBox="0 0 40 40" fill="none" xmlns="http://www.w3.org/2000/svg">
<path d="M19 7C19 6.44769 19.4477 6 20 6H29C29.5523 6 30 6.44769 30 7C30 7.55231 29.5523 8 29 8H20C19.4477 8 19 7.55231 19 7Z" fill="#3D75E4"/>
<path d="M32 6C31.4477 6 31 6.44769 31 7C31 7.55231 31.4477 8 32 8H35C35.5523 8 36 7.55231 36 7C36 6.44769 35.5523 6 35 6H32Z" fill="#3D75E4"/>
<path fill-rule="evenodd" clip-rule="evenodd" d="M0 6C0 3.79083 1.79083 2 4 2H36C38.2092 2 40 3.79083 40 6V8C40 10.2092 38.2092 12 36 12H4C1.79083 12 0 10.2092 0 8V6ZM4 4C2.89545 4 2 4.89545 2 6V8C2 9.10455 2.89545 10 4 10H36C37.1046 10 38 9.10455 38 8V6C38 4.89545 37.1046 4 36 4H4Z" fill="#3D75E4"/>
<path d="M20 24.5C20.8284 24.5 21.5 23.8284 21.5 23C21.5 22.1716 20.8284 21.5 20 21.5C19.1716 21.5 18.5 22.1716 18.5 23C18.5 23.8284 19.1716 24.5 20 24.5Z" fill="#3D75E4"/>
<path fill-rule="evenodd" clip-rule="evenodd" d="M20 18C17.2386 18 15 20.2386 15 23C15 25.7614 17.2386 28 20 28C22.7614 28 25 25.7614 25 23C25 20.2386 22.7614 18 20 18ZM17 23C17 21.3431 18.3431 20 20 20C21.6569 20 23 21.3431 23 23C23 24.6569 21.6569 26 20 26C18.3431 26 17 24.6569 17 23Z" fill="#3D75E4"/>
<path fill-rule="evenodd" clip-rule="evenodd" d="M37 19C37 25.0837 33.8043 30.4211 29 33.4249V23C29 18.0294 24.9706 14 20 14C15.0294 14 11 18.0294 11 23V33.4249C6.19568 30.4211 3 25.0837 3 19C3 17.7001 3.14569 16.4356 3.42126 15.2213C3.54346 14.6827 3.20593 14.147 2.6673 14.0248C2.12872 13.9025 1.59302 14.2401 1.47083 14.7787C1.16254 16.1373 1 17.5502 1 19C1 29.4934 9.50659 38 20 38C30.4934 38 39 29.4934 39 19C39 17.5502 38.8375 16.1373 38.5292 14.7787C38.407 14.2401 37.8713 13.9025 37.3327 14.0248C36.7941 14.147 36.4565 14.6827 36.5787 15.2213C36.8543 16.4356 37 17.7001 37 19ZM20 16C23.866 16 27 19.134 27 23V34.4965C24.8653 35.4623 22.4954 36 20 36C17.5046 36 15.1347 35.4623 13 34.4965V23C13 19.134 16.134 16 20 16Z" fill="#3D75E4"/>
</svg>
