<svg width="20" height="20" viewBox="0 0 20 20" fill="none" xmlns="http://www.w3.org/2000/svg">
<path fill-rule="evenodd" clip-rule="evenodd" d="M16 0C16.5523 0 17 0.447715 17 1C17 1.55228 16.5523 2 16 2H15V6.33667C15 7.35746 14.4809 8.3082 13.6223 8.8602L11.8493 10L13.6223 11.1398C14.4809 11.6918 15 12.6425 15 13.6633V16C15 16.5523 14.5523 17 14 17C13.4477 17 13 16.5523 13 16V13.6633C13 13.3231 12.827 13.0062 12.5408 12.8222L10.5408 11.5364C10.2113 11.3247 9.78865 11.3247 9.45924 11.5364L7.45924 12.8222C7.17302 13.0062 7 13.3231 7 13.6633L7 16C7 16.5523 6.55228 17 6 17C5.44771 17 5 16.5523 5 16L5 13.6633C5 12.6425 5.51906 11.6918 6.37773 11.1398L8.15074 10L6.37773 8.8602C5.51906 8.3082 5 7.35746 5 6.33667V2H4C3.44772 2 3 1.55228 3 1C3 0.447715 3.44772 0 4 0H16ZM13 2V6C13 6.55228 12.5523 7 12 7H8C7.44772 7 7 6.55228 7 6V2H13Z" fill="#3D75E4"/>
<path d="M4 18C3.44772 18 3 18.4477 3 19C3 19.5523 3.44772 20 4 20H16C16.5523 20 17 19.5523 17 19C17 18.4477 16.5523 18 16 18H4Z" fill="#3D75E4"/>
</svg>
