<svg width="20" height="21" viewBox="0 0 20 21" fill="none" xmlns="http://www.w3.org/2000/svg">
<g clip-path="url(#clip0)">
<path d="M16.6659 5.91036C14.2239 2.22892 9.25989 1.22417 5.57845 3.66618C1.89701 6.1082 0.89226 11.0722 3.33427 14.7537C5.77629 18.4351 10.7403 19.4399 14.4218 16.9979C14.882 16.6926 15.5026 16.8182 15.8079 17.2784C16.1132 17.7386 15.9875 18.3592 15.5273 18.6645C10.9254 21.7171 4.7202 20.4611 1.66761 15.8592C-1.38498 11.2573 -0.129006 5.05211 4.4729 1.99952C9.07482 -1.05307 15.28 0.202903 18.3326 4.80481C20.211 7.63664 20.457 11.0758 19.2988 14.0104C19.0668 14.5982 18.7783 15.1663 18.4351 15.7056C18.1386 16.1716 17.5205 16.3089 17.0546 16.0124C16.5887 15.7159 16.4513 15.0978 16.7478 14.6319C17.022 14.201 17.2527 13.7467 17.4385 13.2762C18.367 10.9235 18.1678 8.17449 16.6659 5.91036Z" fill="#3D75E4"/>
<path d="M10 12.332C9.44771 12.332 9 11.8843 9 11.332V6.33203C9 5.77975 9.44771 5.33203 10 5.33203C10.5523 5.33203 11 5.77975 11 6.33203V11.332C11 11.8843 10.5523 12.332 10 12.332Z" fill="#3D75E4"/>
<path d="M10 13.332C9.44772 13.332 9 13.7797 9 14.332C9 14.8843 9.44771 15.332 10 15.332C10.5523 15.332 11 14.8843 11 14.332C11 13.7797 10.5523 13.332 10 13.332Z" fill="#3D75E4"/>
</g>
<defs>
<clipPath id="clip0">
<rect width="20" height="20" fill="white" transform="translate(0 0.331909)"/>
</clipPath>
</defs>
</svg>
