<svg width="20" height="21" viewBox="0 0 20 21" fill="none" xmlns="http://www.w3.org/2000/svg">
<path d="M10 2C5.58172 2 2 5.58172 2 10C2 10.9368 2.16061 11.834 2.45496 12.6668C2.639 13.1875 2.36608 13.7588 1.84536 13.9428C1.32465 14.1269 0.753324 13.854 0.569277 13.3332C0.200319 12.2894 0 11.167 0 10C0 4.47715 4.47715 0 10 0C15.5228 0 20 4.47715 20 10C20 11.167 19.7997 12.2894 19.4307 13.3332C19.2467 13.854 18.6754 14.1269 18.1546 13.9428C17.6339 13.7588 17.361 13.1875 17.545 12.6668C17.8394 11.834 18 10.9368 18 10C18 5.58172 14.4183 2 10 2Z" fill="#3D75E4"/>
<path fill-rule="evenodd" clip-rule="evenodd" d="M3 10C3 6.13401 6.13401 3 10 3C13.866 3 17 6.13401 17 10V16C17 16.5523 16.5523 17 16 17C15.4477 17 15 16.5523 15 16V11H14V13C14 13.5523 13.5523 14 13 14C12.4477 14 12 13.5523 12 13V11H8V14C8 14.5523 7.55228 15 7 15C6.44772 15 6 14.5523 6 14V11H5V16C5 16.5523 4.55228 17 4 17C3.44772 17 3 16.5523 3 16V10ZM5.10002 9C5.56329 6.71776 7.58104 5 10 5C12.419 5 14.4367 6.71776 14.9 9H5.10002Z" fill="#3D75E4"/>
<path d="M11 13C11 12.4477 10.5523 12 10 12C9.44771 12 9 12.4477 9 13V15C9 15.5523 9.44771 16 10 16C10.5523 16 11 15.5523 11 15V13Z" fill="#3D75E4"/>
<path d="M13 15C13.5523 15 14 15.4477 14 16V17.0402C14.432 17.1861 14.8383 17.4293 15.185 17.7697C15.192 17.7763 15.199 17.7831 15.2058 17.79C15.6435 18.2276 16.3531 18.2276 16.7908 17.79C16.7968 17.784 16.8028 17.7781 16.8089 17.7723C17.4167 17.174 18.2107 16.875 19.0013 16.8759C19.5535 16.8765 20.0008 17.3248 20.0002 17.877C19.9995 18.4293 19.5513 18.8765 18.999 18.8759C18.7102 18.8756 18.4247 18.9848 18.2053 19.2042C18.1993 19.2101 18.1933 19.216 18.1872 19.2218C16.974 20.4161 15.0265 20.417 13.8122 19.2245C13.8051 19.2179 13.7981 19.2111 13.7912 19.2042C13.3536 18.7665 12.644 18.7665 12.2063 19.2042C12.2003 19.2101 12.1943 19.216 12.1882 19.2218C10.9681 20.4229 9.00543 20.417 7.79261 19.2042L7.77814 19.1894C7.3394 18.7666 6.64093 18.7715 6.20823 19.2042C6.20228 19.2101 6.19626 19.216 6.19019 19.2218C4.97011 20.4229 3.00738 20.417 1.79456 19.2042L1.78071 19.1901C1.56333 18.9802 1.28386 18.8756 1.00133 18.876C0.449042 18.8766 0.000801082 18.4294 0.000151747 17.8772C-0.00049761 17.3249 0.446691 16.8766 0.998975 16.876C1.79731 16.875 2.59924 17.1799 3.20935 17.79L3.22317 17.8041C3.66187 18.2276 4.36081 18.2229 4.79372 17.79C4.79968 17.784 4.80569 17.7781 4.81176 17.7724C5.15913 17.4304 5.56669 17.1863 6 17.04V17C6 16.4477 6.44772 16 7 16C7.55228 16 8 16.4477 8 17V17.0395C8.44124 17.1882 8.85582 17.4384 9.20739 17.79L9.22189 17.8048C9.66063 18.2276 10.3591 18.2226 10.7918 17.79C10.7977 17.784 10.8037 17.7781 10.8098 17.7723C11.1577 17.4299 11.566 17.1855 12 17.0393V16C12 15.4477 12.4477 15 13 15Z" fill="#3D75E4"/>
</svg>
