<svg width="16" height="16" viewBox="0 0 16 16" fill="none" xmlns="http://www.w3.org/2000/svg">
<path d="M1 4C1 2.34315 2.34315 1 4 1H12C13.6569 1 15 2.34315 15 4V8C15 8.55228 14.5523 9 14 9C13.4477 9 13 8.55228 13 8V4C13 3.44772 12.5523 3 12 3H4C3.44772 3 3 3.44772 3 4V12C3 12.5523 3.44772 13 4 13H6.90909C7.46138 13 7.90909 13.4477 7.90909 14C7.90909 14.5523 7.46138 15 6.90909 15H4C2.34315 15 1 13.6569 1 12V4Z" fill="#3D75E4"/>
<path d="M7 11C7 10.4477 7.44772 10 8 10H10V8C10 7.44772 10.4477 7 11 7C11.5523 7 12 7.44772 12 8V10H14C14.5523 10 15 10.4477 15 11C15 11.5523 14.5523 12 14 12H12V14C12 14.5523 11.5523 15 11 15C10.4477 15 10 14.5523 10 14V12H8C7.44772 12 7 11.5523 7 11Z" fill="#3D75E4"/>
</svg>
