<svg width="16" height="16" viewBox="0 0 16 16" fill="none" xmlns="http://www.w3.org/2000/svg">
<path fill-rule="evenodd" clip-rule="evenodd" d="M3 2H9V5C9 5.55228 9.44771 6 10 6H14C14.5523 6 15 5.55228 15 5C15 2.23858 12.7614 0 10 0H2C1.44772 0 1 0.447715 1 1V15C1 15.5523 1.44772 16 2 16H14C14.5523 16 15 15.5523 15 15V8C15 7.44772 14.5523 7 14 7C13.4477 7 13 7.44772 13 8V14H3V2ZM11.015 3.98853V2.2019C11.5591 2.41801 11.9579 2.66215 12.2114 2.93433C12.4648 3.2065 12.6722 3.5579 12.8335 3.98853H11.015ZM9.83605 7.69635L7.44761 10.0848L6.55412 9.19129C6.22435 8.86152 5.68968 8.86152 5.3599 9.19129C5.03013 9.52107 5.03013 10.0557 5.3599 10.3855L6.8505 11.8761C7.01539 12.041 7.2315 12.1234 7.44761 12.1234C7.66372 12.1234 7.87984 12.041 8.04472 11.8761L11.0303 8.89057C11.36 8.5608 11.36 8.02613 11.0303 7.69635C10.7005 7.36658 10.1658 7.36658 9.83605 7.69635Z" fill="#3D75E4"/>
</svg>
