<svg width="16" height="16" viewBox="0 0 16 16" fill="none" xmlns="http://www.w3.org/2000/svg">
<path fill-rule="evenodd" clip-rule="evenodd" d="M0 3C0 2.44772 0.447715 2 1 2H15C15.5523 2 16 2.44772 16 3C16 3.55228 15.5523 4 15 4H1C0.447715 4 0 3.55228 0 3ZM2.33333 6.33333C2.33333 5.78105 2.78105 5.33333 3.33333 5.33333H12.6667C13.219 5.33333 13.6667 5.78105 13.6667 6.33333C13.6667 6.88562 13.219 7.33333 12.6667 7.33333H3.33333C2.78105 7.33333 2.33333 6.88562 2.33333 6.33333ZM0 9.66667C0 9.11438 0.447715 8.66667 1 8.66667H15C15.5523 8.66667 16 9.11438 16 9.66667C16 10.219 15.5523 10.6667 15 10.6667H1C0.447715 10.6667 0 10.219 0 9.66667ZM2.33333 13C2.33333 12.4477 2.78105 12 3.33333 12H12.6667C13.219 12 13.6667 12.4477 13.6667 13C13.6667 13.5523 13.219 14 12.6667 14H3.33333C2.78105 14 2.33333 13.5523 2.33333 13Z" fill="#3D75E4"/>
</svg>
