<svg width="16" height="16" viewBox="0 0 16 16" fill="none" xmlns="http://www.w3.org/2000/svg">
<path fill-rule="evenodd" clip-rule="evenodd" d="M0 3C0 2.44772 0.447715 2 1 2H15C15.5523 2 16 2.44772 16 3C16 3.55228 15.5523 4 15 4H1C0.447715 4 0 3.55228 0 3ZM0 6.33333C0 5.78105 0.447715 5.33333 1 5.33333H11.8889C12.4412 5.33333 12.8889 5.78105 12.8889 6.33333C12.8889 6.88562 12.4412 7.33333 11.8889 7.33333H1C0.447715 7.33333 0 6.88562 0 6.33333ZM0 9.66667C0 9.11438 0.447715 8.66667 1 8.66667H15C15.5523 8.66667 16 9.11438 16 9.66667C16 10.219 15.5523 10.6667 15 10.6667H1C0.447715 10.6667 0 10.219 0 9.66667ZM0 13C0 12.4477 0.447715 12 1 12H11.8889C12.4412 12 12.8889 12.4477 12.8889 13C12.8889 13.5523 12.4412 14 11.8889 14H1C0.447715 14 0 13.5523 0 13Z" fill="#3D75E4"/>
</svg>
