<svg width="16" height="16" viewBox="0 0 16 16" fill="none" xmlns="http://www.w3.org/2000/svg">
<path fill-rule="evenodd" clip-rule="evenodd" d="M0 3C0 2.44772 0.447715 2 1 2H15C15.5523 2 16 2.44772 16 3C16 3.55228 15.5523 4 15 4H1C0.447715 4 0 3.55228 0 3ZM3.11111 6.33333C3.11111 5.78105 3.55883 5.33333 4.11111 5.33333H15C15.5523 5.33333 16 5.78105 16 6.33333C16 6.88562 15.5523 7.33333 15 7.33333H4.11111C3.55883 7.33333 3.11111 6.88562 3.11111 6.33333ZM0 9.66667C0 9.11438 0.447715 8.66667 1 8.66667H15C15.5523 8.66667 16 9.11438 16 9.66667C16 10.219 15.5523 10.6667 15 10.6667H1C0.447715 10.6667 0 10.219 0 9.66667ZM3.11111 13C3.11111 12.4477 3.55883 12 4.11111 12H15C15.5523 12 16 12.4477 16 13C16 13.5523 15.5523 14 15 14H4.11111C3.55883 14 3.11111 13.5523 3.11111 13Z" fill="#3D75E4"/>
</svg>
