<svg width="16" height="16" viewBox="0 0 16 16" fill="none" xmlns="http://www.w3.org/2000/svg">
<path d="M5.49147 2.76306C5.89898 2.35974 5.89898 1.70582 5.49147 1.30249C5.08397 0.899169 4.42328 0.899169 4.01577 1.30249L0.305628 4.9746C0.193119 5.08595 0.111674 5.21641 0.0612905 5.35542C0.022261 5.4631 0.00187188 5.57592 0.000123055 5.68897C4.073e-05 5.69429 -2.87687e-07 5.69961 1.52352e-09 5.70494C1.52352e-09 5.70496 1.52352e-09 5.70492 1.52352e-09 5.70494C1.52352e-09 5.86842 0.0383775 6.02308 0.106702 6.16048C0.135911 6.2193 0.171117 6.27594 0.212319 6.3295C0.243616 6.37024 0.277899 6.40861 0.314847 6.44429L4.01577 10.1073C4.42328 10.5106 5.08397 10.5106 5.49147 10.1073C5.89898 9.70394 5.89898 9.05002 5.49147 8.6467L3.56277 6.73777H10.5629C12.4642 6.73777 13.913 8.17422 13.913 9.83611C13.913 11.498 12.4642 12.9344 10.5629 12.9344C9.98663 12.9344 9.51945 13.3968 9.51945 13.9672C9.51945 14.5376 9.98663 15 10.5629 15C13.5147 15 16 12.7373 16 9.83611C16 6.93489 13.5147 4.67221 10.5629 4.67221H3.56254L5.49147 2.76306Z" fill="#3D75E4"/>
</svg>
