<svg width="16" height="17" viewBox="0 0 16 17" fill="none" xmlns="http://www.w3.org/2000/svg">
<g clip-path="url(#clip0)">
<path d="M0 2.33191C0 1.22734 0.89543 0.331909 2 0.331909H11C12.1046 0.331909 13 1.22734 13 2.33191V10.3319C13 10.8842 12.5523 11.3319 12 11.3319C11.4477 11.3319 11 10.8842 11 10.3319V2.33191L2 2.33191V14.3319H8C8.55228 14.3319 9 14.7796 9 15.3319C9 15.8842 8.55228 16.3319 8 16.3319H2C0.89543 16.3319 0 15.4365 0 14.3319V2.33191Z" fill="#3D75E4"/>
<path d="M15.6 10.5319C16.0418 10.8633 16.1314 11.4901 15.8 11.9319L12.8 15.9319C12.6261 16.1638 12.3601 16.3088 12.0709 16.3294C11.7817 16.3499 11.4979 16.244 11.2929 16.039L9.29289 14.039C8.90237 13.6485 8.90237 13.0153 9.29289 12.6248C9.68342 12.2343 10.3166 12.2343 10.7071 12.6248L11.8918 13.8095L14.2 10.7319C14.5314 10.2901 15.1582 10.2005 15.6 10.5319Z" fill="#3D75E4"/>
<path d="M4 4.33191C3.44772 4.33191 3 4.77962 3 5.33191C3 5.88419 3.44772 6.33191 4 6.33191H9C9.55228 6.33191 10 5.88419 10 5.33191C10 4.77962 9.55228 4.33191 9 4.33191H4Z" fill="#3D75E4"/>
<path d="M3 8.33191C3 7.77962 3.44772 7.33191 4 7.33191H9C9.55228 7.33191 10 7.77962 10 8.33191C10 8.88419 9.55228 9.33191 9 9.33191H4C3.44772 9.33191 3 8.88419 3 8.33191Z" fill="#3D75E4"/>
<path d="M4 10.3319C3.44772 10.3319 3 10.7796 3 11.3319C3 11.8842 3.44772 12.3319 4 12.3319H6C6.55228 12.3319 7 11.8842 7 11.3319C7 10.7796 6.55228 10.3319 6 10.3319H4Z" fill="#3D75E4"/>
</g>
<defs>
<clipPath id="clip0">
<rect width="16" height="16" fill="white" transform="translate(0 0.331909)"/>
</clipPath>
</defs>
</svg>
