<svg width="16" height="16" viewBox="0 0 16 16" fill="none" xmlns="http://www.w3.org/2000/svg">
<path fill-rule="evenodd" clip-rule="evenodd" d="M0 3C0 1.89543 0.895432 1 2 1H14C15.1046 1 16 1.89543 16 3V4.33333C16 5.4379 15.1046 6.33333 14 6.33333H2C0.895432 6.33333 0 5.4379 0 4.33333V3ZM14 3L2 3V4.33333L14 4.33333V3ZM2.27273 7.0001C2.82501 7.0001 3.27273 7.44782 3.27273 8.0001V12C3.27273 12.5523 3.72044 13 4.27273 13H11.7273C12.2796 13 12.7273 12.5523 12.7273 12V8.0001C12.7273 7.44782 13.175 7.0001 13.7273 7.0001C14.2796 7.0001 14.7273 7.44782 14.7273 8.0001V12C14.7273 13.6569 13.3841 15 11.7273 15H4.27273C2.61587 15 1.27273 13.6569 1.27273 12V8.0001C1.27273 7.44782 1.72044 7.0001 2.27273 7.0001ZM5.54091 9.07153C5.54091 8.51925 5.98862 8.07153 6.54091 8.07153H9.45757C10.0099 8.07153 10.4576 8.51925 10.4576 9.07153C10.4576 9.62382 10.0099 10.0715 9.45757 10.0715H6.54091C5.98862 10.0715 5.54091 9.62382 5.54091 9.07153Z" fill="#3D75E4"/>
</svg>
