<svg width="16" height="16" viewBox="0 0 16 16" fill="none" xmlns="http://www.w3.org/2000/svg">
<g clip-path="url(#clip0)">
<path fill-rule="evenodd" clip-rule="evenodd" d="M13.4318 4.37099C14.8842 5.30546 15.9998 6.83883 15.9998 8.5001C15.9998 11.2562 13.9546 13.4451 11.9916 14.6774C10.9876 15.3076 9.90841 15.7534 8.9518 15.9203C8.47492 16.0034 7.98028 16.0258 7.52127 15.9321C7.05692 15.8373 6.56361 15.607 6.22917 15.1361C5.42123 13.9983 5.64699 12.7611 5.78223 12.02C5.78729 11.9923 5.79221 11.9653 5.79695 11.939C5.87429 11.5105 5.91076 11.2712 5.89602 11.0865C5.88663 10.969 5.865 10.9405 5.80828 10.8948C5.61012 10.7352 5.45066 10.7145 5.21468 10.774C4.90687 10.8517 4.55259 11.0542 4.08601 11.3565C4.03848 11.3873 3.98816 11.4203 3.93546 11.4549C3.55995 11.7015 3.06353 12.0274 2.59454 12.1838C2.29989 12.282 1.91157 12.3537 1.493 12.2442C1.05166 12.1288 0.71621 11.8494 0.477899 11.5018C-0.485505 10.0966 0.164662 8.45922 1.0452 7.32312C1.97393 6.12482 3.44111 5.05421 5.03684 4.46034C5.55511 4.26746 6.13185 4.53062 6.32501 5.04813C6.51818 5.56564 6.25463 6.14152 5.73636 6.3344C4.46562 6.80732 3.31388 7.66377 2.6292 8.54718C1.9921 9.36918 1.94074 9.92926 2.0644 10.2457C2.25127 10.162 2.48834 10.0081 2.85309 9.7713C2.89865 9.74172 2.9462 9.71084 2.9959 9.67865C3.44059 9.39058 4.05255 9.00435 4.72411 8.83495C5.4675 8.64743 6.30053 8.72147 7.06617 9.33844C7.62568 9.78931 7.84784 10.3665 7.89263 10.9276C7.93028 11.3992 7.84177 11.8875 7.77718 12.2438C7.77411 12.2607 7.7711 12.2774 7.76816 12.2937C7.61894 13.1206 7.57961 13.5563 7.84312 13.9503C7.85748 13.9561 7.88257 13.9645 7.92245 13.9726C8.05739 14.0001 8.28402 14.0064 8.60719 13.9501C9.25071 13.8379 10.0869 13.5106 10.9255 12.9842C12.6477 11.9031 13.9969 10.244 13.9969 8.5001C13.9969 7.73198 13.4334 6.75126 12.3469 6.05221C11.2943 5.37493 9.90268 5.0734 8.50432 5.51768C7.97725 5.68513 7.41403 5.39424 7.24633 4.86796C7.07863 4.34167 7.36995 3.77928 7.89701 3.61183C9.93827 2.96329 11.9455 3.41473 13.4318 4.37099ZM1.91102 10.3C1.91103 10.3 1.91165 10.2999 1.91285 10.2998L1.91102 10.3Z" fill="#3D75E4"/>
<path fill-rule="evenodd" clip-rule="evenodd" d="M12.8922 11.7838C13.3551 11.4815 13.9758 11.6112 14.2785 12.0734L15.8366 14.4527C16.1393 14.9149 16.0094 15.5346 15.5465 15.8369C15.0836 16.1392 14.4629 16.0095 14.1602 15.5472L12.6021 13.168C12.2994 12.7058 12.4293 12.086 12.8922 11.7838Z" fill="#3D75E4"/>
<path d="M8.22912 2.97789C7.93021 2.5132 7.31064 2.37845 6.84527 2.67692C6.37989 2.97539 6.24495 3.59405 6.54386 4.05874L10.1553 9.6732C9.69893 10.1114 9.52158 10.6753 9.76159 11.064C10.0599 11.547 10.8897 11.5765 11.6152 11.1299C12.3406 10.6833 12.6869 9.92965 12.3886 9.4466C12.3784 9.43004 12.3676 9.41401 12.3561 9.39852C12.3446 9.37752 12.3323 9.35677 12.3192 9.33633L8.22912 2.97789Z" fill="#3D75E4"/>
<path d="M5.58049 0.30085C6.28417 0.739689 6.49834 1.66505 6.05886 2.36769C5.61937 3.07034 4.69265 3.2842 3.98897 2.84536C2.13067 1.09696 0.84175 1.2699 1.28124 0.567258C1.72072 -0.135388 4.8768 -0.137988 5.58049 0.30085Z" fill="#3D75E4"/>
</g>
<defs>
<clipPath id="clip0">
<rect width="16" height="16" fill="white"/>
</clipPath>
</defs>
</svg>
