<svg width="16" height="16" viewBox="0 0 16 16" fill="none" xmlns="http://www.w3.org/2000/svg">
<path d="M8.00143 10.5C5.24 10.5 3.00143 8.26142 3.00143 5.5C3.00143 2.73858 5.24 0.5 8.00143 0.5C10.7629 0.5 13.0014 2.73858 13.0014 5.5C13.0014 8.26142 10.7629 10.5 8.00143 10.5ZM8.00143 8.5C9.65828 8.5 11.0014 7.15685 11.0014 5.5C11.0014 3.84315 9.65828 2.5 8.00143 2.5C6.34457 2.5 5.00143 3.84315 5.00143 5.5C5.00143 7.15685 6.34457 8.5 8.00143 8.5ZM13.7561 13.8616C14.1398 14.2457 14.1287 14.8577 13.7315 15.2287C13.3342 15.5996 12.7011 15.5889 12.3175 15.2048C10.0156 12.9003 6.21716 12.8362 3.83348 15.0616C3.81064 15.083 3.81064 15.083 3.788 15.1045C3.39471 15.4794 2.76156 15.475 2.37382 15.0948C1.98608 14.7146 1.99059 14.1024 2.38388 13.7276C2.4139 13.6991 2.4139 13.6991 2.44416 13.6707C5.6224 10.7034 10.687 10.7889 13.7561 13.8616Z" fill="#3D75E4"/>
</svg>
