<svg width="16" height="16" viewBox="0 0 16 16" fill="none" xmlns="http://www.w3.org/2000/svg">
<path d="M3 5C2.44772 5 2 5.44772 2 6V10C2 10.5523 2.44772 11 3 11H3.5C4.05228 11 4.5 11.4477 4.5 12C4.5 12.5523 4.05228 13 3.5 13H3C1.34315 13 0 11.6569 0 10V6C0 4.34315 1.34315 3 3 3H12C13.6569 3 15 4.34315 15 6C15.5523 6 16 6.44772 16 7V9C16 9.55228 15.5523 10 15 10C15 11.6569 13.6569 13 12 13H6.5C5.94772 13 5.5 12.5523 5.5 12C5.5 11.4477 5.94772 11 6.5 11H12C12.5523 11 13 10.5523 13 10V6C13 5.44772 12.5523 5 12 5H3Z" fill="#3D75E4"/>
<path d="M4.33984 5.71875C4.89213 5.71875 5.33984 6.16647 5.33984 6.71875V9.28097C5.33984 9.83326 4.89213 10.281 4.33984 10.281C3.78756 10.281 3.33984 9.83326 3.33984 9.28097V6.71875C3.33984 6.16647 3.78756 5.71875 4.33984 5.71875Z" fill="#3D75E4"/>
<path d="M8.5 6.71875C8.5 6.16647 8.05229 5.71875 7.5 5.71875C6.94772 5.71875 6.5 6.16647 6.5 6.71875V9.28097C6.5 9.83326 6.94772 10.281 7.5 10.281C8.05229 10.281 8.5 9.83326 8.5 9.28097V6.71875Z" fill="#3D75E4"/>
<path d="M10.6602 5.71875C11.2124 5.71875 11.6602 6.16647 11.6602 6.71875V9.28097C11.6602 9.83326 11.2124 10.281 10.6602 10.281C10.1079 10.281 9.66016 9.83326 9.66016 9.28097V6.71875C9.66016 6.16647 10.1079 5.71875 10.6602 5.71875Z" fill="#3D75E4"/>
</svg>
