<svg width="16" height="16" viewBox="0 0 16 16" fill="none" xmlns="http://www.w3.org/2000/svg">
<path fill-rule="evenodd" clip-rule="evenodd" d="M2.19995 1.59998C2.19995 1.04769 2.64767 0.599976 3.19995 0.599976H9.59995C10.7139 0.599976 11.7821 1.04247 12.5698 1.83013C13.3575 2.61778 13.8 3.68607 13.8 4.79998C13.8 5.86578 13.3948 6.88982 12.6699 7.66622C12.9208 7.82738 13.1557 8.016 13.3698 8.23013C14.1575 9.01778 14.6 10.0861 14.6 11.2C14.6 12.3139 14.1575 13.3822 13.3698 14.1698C12.5821 14.9575 11.5139 15.4 10.4 15.4H3.19995C2.64767 15.4 2.19995 14.9523 2.19995 14.4V1.59998ZM4.19995 2.59998V6.99998H9.59995C10.1834 6.99998 10.743 6.76819 11.1556 6.35561C11.5682 5.94303 11.8 5.38345 11.8 4.79998C11.8 4.2165 11.5682 3.65692 11.1556 3.24434C10.743 2.83176 10.1834 2.59998 9.59995 2.59998H4.19995ZM4.19995 8.99998V13.4H10.4C10.9834 13.4 11.543 13.1682 11.9556 12.7556C12.3682 12.343 12.6 11.7835 12.6 11.2C12.6 10.6165 12.3682 10.0569 11.9556 9.64434C11.543 9.23176 10.9834 8.99998 10.4 8.99998H4.19995Z" fill="#3D75E4"/>
</svg>
