<svg width="16" height="16" viewBox="0 0 16 16" fill="none" xmlns="http://www.w3.org/2000/svg">
<path d="M5 8.0116C4.44772 8.0116 4 8.46017 4 9.01351V10.1267C4 10.6801 4.44772 11.1286 5 11.1286H6.88889C7.44117 11.1286 7.88889 10.6801 7.88889 10.1267V9.01351C7.88889 8.46017 7.44117 8.0116 6.88889 8.0116H5Z" fill="#3D75E4"/>
<path fill-rule="evenodd" clip-rule="evenodd" d="M5.88867 1.00557C5.88867 0.452232 5.44096 0.00366211 4.88867 0.00366211C4.33639 0.00366211 3.88867 0.452232 3.88867 1.00557V1.33229L2.55556 1.33233C1.14416 1.33233 0 2.47847 0 3.89256V12.9943C0 14.6543 1.34315 16 3 16H13C14.6569 16 16 14.6543 16 12.9943V4.33785C16 2.67783 14.6569 1.33212 13 1.33212H12.1113V1.00557C12.1113 0.452232 11.6636 0.00366211 11.1113 0.00366211C10.559 0.00366211 10.1113 0.452232 10.1113 1.00557V1.33207L5.88867 1.33222V1.00557ZM11.1113 3.33602L11.093 3.33586L4.9045 3.33607L4.88867 3.33619L4.87291 3.33607L2.55469 3.33615L2.54287 3.33608C2.24191 3.34284 2 3.58939 2 3.89256V5.00587H11.9612C12.5135 5.00587 12.9612 5.45444 12.9612 6.00778C12.9612 6.56112 12.5135 7.00969 11.9612 7.00969H2V12.9943C2 13.5476 2.44772 13.9962 3 13.9962H13C13.5523 13.9962 14 13.5476 14 12.9943V4.33785C14 3.78451 13.5523 3.33594 13 3.33594H11.1242L11.1113 3.33602Z" fill="#3D75E4"/>
</svg>
