<svg width="16" height="16" viewBox="0 0 16 16" fill="none" xmlns="http://www.w3.org/2000/svg">
<path fill-rule="evenodd" clip-rule="evenodd" d="M6 1C6.55228 1 7 1.44772 7 2V14C7 14.5523 6.55228 15 6 15C5.44772 15 5 14.5523 5 14V2C5 1.44772 5.44772 1 6 1ZM10 4.42857C10.5523 4.42857 11 4.87629 11 5.42857V14C11 14.5523 10.5523 15 10 15C9.44772 15 9 14.5523 9 14V5.42857C9 4.87629 9.44772 4.42857 10 4.42857ZM2 7C2.55228 7 3 7.44772 3 8V14C3 14.5523 2.55228 15 2 15C1.44772 15 1 14.5523 1 14V8C1 7.44772 1.44772 7 2 7Z" fill="#3D75E4"/>
<path fill-rule="evenodd" clip-rule="evenodd" d="M14 3C14.5523 3 15 3.44772 15 4L14.8662 14C14.8662 14.5523 14.4185 15 13.8662 15C13.3139 15 12.8662 14.5523 12.8662 14L13 4C13 3.44772 13.4477 3 14 3Z" fill="#3D75E4"/>
</svg>
