<svg width="16" height="16" viewBox="0 0 16 16" fill="none" xmlns="http://www.w3.org/2000/svg">
<path fill-rule="evenodd" clip-rule="evenodd" d="M15.9141 1.40639C16.1384 0.901704 15.9111 0.310742 15.4064 0.086438C14.9017 -0.137866 14.3107 0.089427 14.0864 0.594111L10.2542 9.21663C9.58591 9.45767 9.05338 9.86138 8.6717 10.3831C8.15365 11.0913 7.96998 11.938 8.00392 12.7147C8.03768 13.4873 8.28917 14.2663 8.73906 14.8766C9.19297 15.4923 9.90781 16.0005 10.8281 16.0005H15C15.4132 16.0005 15.7839 15.7463 15.9328 15.3609C16.0817 14.9754 15.9782 14.538 15.6722 14.2602C14.4453 13.1461 13.7751 12.4067 13.3136 11.7533C12.8769 11.1348 12.6043 10.5634 12.218 9.7226L15.9141 1.40639ZM10.8281 14.0005C10.7054 14.0005 10.5338 13.9406 10.3489 13.6898C10.16 13.4336 10.0204 13.0478 10.002 12.6273C9.9838 12.2108 10.0869 11.8359 10.2859 11.564C10.3815 11.4333 10.5138 11.3057 10.7012 11.202C10.981 11.7851 11.2733 12.3311 11.6799 12.9069C11.9286 13.2591 12.2154 13.6164 12.5619 14.0005H10.8281Z" fill="#3D75E4"/>
<path d="M0.22742 5.36558C0.41737 5.13444 0.700831 5.00049 1.00001 5.00049H2.72463L1.62229 2.97953C1.35783 2.49468 1.53649 1.88724 2.02134 1.62278C2.50619 1.35832 3.11362 1.53698 3.37808 2.02183L5.00281 5.00049H9.00001C9.29919 5.00049 9.58265 5.13444 9.7726 5.36558C9.96255 5.59672 10.039 5.90077 9.98105 6.19427L9.53661 8.44427C9.42958 8.98609 8.90359 9.33856 8.36178 9.23153C7.81996 9.12451 7.4675 8.59852 7.57452 8.0567L7.78316 7.00049H6.09372L6.37808 7.52183C6.64255 8.00667 6.46389 8.61411 5.97904 8.87857C5.49419 9.14304 4.88676 8.96438 4.62229 8.47953L3.81554 7.00049H2.21686L3.59958 14.0005H7.00001C7.55229 14.0005 8.00001 14.4482 8.00001 15.0005C8.00001 15.5528 7.55229 16.0005 7.00001 16.0005H2.77779C2.30021 16.0005 1.88929 15.6628 1.79674 15.1943L0.0189648 6.19427C-0.0390117 5.90077 0.0374702 5.59672 0.22742 5.36558Z" fill="#3D75E4"/>
</svg>
