<svg width="17" height="17" viewBox="0 0 17 17" fill="none" xmlns="http://www.w3.org/2000/svg">
<path d="M2.80518 11.0013C1.14833 8.13158 2.13158 4.46204 5.00134 2.80518C7.87109 1.14833 11.5406 2.13158 13.1975 5.00134C13.8024 6.04907 14.0549 7.20045 13.9935 8.32246C13.9634 8.87392 14.386 9.34541 14.9375 9.37557C15.4889 9.40572 15.9604 8.98312 15.9906 8.43166C16.0725 6.93384 15.7344 5.39534 14.9295 4.00134C12.7204 0.174995 7.82768 -1.13601 4.00134 1.07313C0.174995 3.28227 -1.13601 8.17499 1.07313 12.0013C3.28227 15.8277 8.17499 17.1387 12.0013 14.9295C13.0623 14.317 13.9319 13.4961 14.5858 12.5478C14.8994 12.0932 14.785 11.4704 14.3303 11.1569C13.8756 10.8434 13.2529 10.9578 12.9394 11.4124C12.4504 12.1215 11.7999 12.7365 11.0013 13.1975C8.13158 14.8543 4.46204 13.8711 2.80518 11.0013Z" fill="#3D75E4"/>
<path d="M9.00087 4.00136C9.00087 3.44907 8.55315 3.00136 8.00087 3.00136C7.44858 3.00136 7.00087 3.44907 7.00087 4.00136V7.46617C7.00087 8.13488 7.33507 8.75934 7.89147 9.13027L10.4462 10.8334C10.9057 11.1398 11.5266 11.0156 11.8329 10.5561C12.1393 10.0965 12.0151 9.47566 11.5556 9.1693L9.00087 7.46617V4.00136Z" fill="#3D75E4"/>
</svg>
