<svg width="16" height="16" viewBox="0 0 16 16" fill="none" xmlns="http://www.w3.org/2000/svg">
<path fill-rule="evenodd" clip-rule="evenodd" d="M3 0C1.34315 0 0 1.34315 0 3V10C0 11.6569 1.34315 13 3 13H10C11.6569 13 13 11.6569 13 10V3C13 1.34315 11.6569 0 10 0H3ZM2 3C2 2.44772 2.44772 2 3 2H10C10.5523 2 11 2.44772 11 3V10C11 10.5523 10.5523 11 10 11H3C2.44772 11 2 10.5523 2 10V3Z" fill="#3D75E4"/>
<path d="M16 4C16 3.44772 15.5523 3 15 3C14.4477 3 14 3.44772 14 4V10C14 12.2091 12.2091 14 10 14H5C4.44772 14 4 14.4477 4 15C4 15.5523 4.44772 16 5 16H10C13.3137 16 16 13.3137 16 10V4Z" fill="#3D75E4"/>
</svg>
