<svg width="16" height="16" viewBox="0 0 16 16" fill="none" xmlns="http://www.w3.org/2000/svg">
<path fill-rule="evenodd" clip-rule="evenodd" d="M2 3H5V2C5 0.89543 5.89543 0 7 0H9C10.1046 0 11 0.89543 11 2V3H14C14.5523 3 15 3.44772 15 4C15 4.55228 14.5523 5 14 5V14C14 15.1046 13.1046 16 12 16H4C2.89543 16 2 15.1046 2 14V5C1.44772 5 1 4.55228 1 4C1 3.44772 1.44772 3 2 3ZM4 5V14H12V5H4ZM9.41421 9.5L10.1213 10.2071C10.5118 10.5976 10.5118 11.2308 10.1213 11.6213C9.7308 12.0118 9.09763 12.0118 8.70711 11.6213L8 10.9142L7.29289 11.6213C6.90237 12.0118 6.2692 12.0118 5.87868 11.6213C5.48816 11.2308 5.48816 10.5976 5.87868 10.2071L6.58579 9.5L5.87868 8.79289C5.48816 8.40237 5.48816 7.7692 5.87868 7.37868C6.2692 6.98816 6.90237 6.98816 7.29289 7.37868L8 8.08579L8.70711 7.37868C9.09763 6.98816 9.7308 6.98816 10.1213 7.37868C10.5118 7.7692 10.5118 8.40237 10.1213 8.79289L9.41421 9.5ZM7 2V3H9V2H7Z" fill="#3D75E4"/>
</svg>
