<svg width="17" height="16" viewBox="0 0 17 16" fill="none" xmlns="http://www.w3.org/2000/svg">
<path fill-rule="evenodd" clip-rule="evenodd" d="M5.78104 8.8514C6.87541 10.3113 7.95053 12.3301 8.55757 13.7582C8.58904 13.68 8.62046 13.577 8.64874 13.4412C8.75679 12.9224 8.73707 12.2228 8.64154 11.5528C8.54632 10.8849 8.76353 10.2302 9.12789 9.74804C9.49346 9.26431 10.0965 8.84438 10.8556 8.84438L12.9787 8.84438C12.9294 8.32308 12.8034 7.61932 12.6124 6.87442C12.3663 5.91466 12.0411 5.00042 11.7137 4.41684C11.598 4.21055 11.2821 4.01808 10.5786 4.00523C7.13711 3.94238 4.5376 4.94655 3.00195 5.77651L3.00195 10.0092C3.00195 10.5621 2.55424 11.0104 2.00195 11.0104C1.44967 11.0104 1.00195 10.5621 1.00195 10.0092V3.00115C1.00195 2.44823 1.44967 2 2.00195 2C2.55424 2 3.00195 2.44823 3.00195 3.00115V3.54269C4.79679 2.72507 7.38271 1.94423 10.6151 2.00326C11.4989 2.0194 12.7958 2.25682 13.4575 3.43631C13.9079 4.23921 14.285 5.34477 14.5495 6.37651C14.8138 7.40681 14.9948 8.47731 15.0019 9.23001C15.0067 9.73901 14.7783 10.1754 14.4241 10.4626C14.0894 10.7341 13.68 10.8467 13.3008 10.8467H10.8556L10.8521 10.8474C10.8484 10.8485 10.8401 10.8513 10.8276 10.8583C10.8013 10.8732 10.7624 10.9038 10.7228 10.9562C10.6347 11.0727 10.6116 11.2008 10.6215 11.2699C10.7317 12.0433 10.7826 13.0051 10.6066 13.8499C10.4368 14.6652 9.96384 15.7167 8.76408 15.9667C8.24133 16.0756 7.78357 15.9028 7.46341 15.6573C7.15653 15.422 6.94654 15.1044 6.82315 14.7979C6.29793 13.493 5.22866 11.4503 4.18143 10.0533C3.84991 9.61107 3.93925 8.98352 4.38097 8.65162C4.82269 8.31972 5.44952 8.40917 5.78104 8.8514Z" fill="#3D75E4"/>
</svg>
