<svg width="16" height="16" viewBox="0 0 16 16" fill="none" xmlns="http://www.w3.org/2000/svg">
<path d="M7.44069 5.05459L2.63629 9.859L2.26073 13.7701L6.17182 13.3945L10.9762 8.59013L7.44069 5.05459ZM8.85491 3.64038L12.3904 7.17591L13.7823 5.78407L10.2468 2.24854L8.85491 3.64038ZM1.22207 8.44479L8.83254 0.834322C9.61359 0.053273 10.8799 0.053273 11.661 0.834322L15.1965 4.36986C15.9775 5.1509 15.9775 6.41723 15.1965 7.19828L7.58603 14.8087C7.25766 15.1371 6.82525 15.341 6.36299 15.3854L1.245 15.8768C0.695243 15.9296 0.206783 15.5267 0.153993 14.977C0.147888 14.9134 0.147888 14.8494 0.153993 14.7858L0.645444 9.66783C0.689832 9.20557 0.8937 8.77316 1.22207 8.44479Z" fill="#3D75E4"/>
</svg>
