<svg width="16" height="16" viewBox="0 0 16 16" fill="none" xmlns="http://www.w3.org/2000/svg">
<path fill-rule="evenodd" clip-rule="evenodd" d="M8.99732 10.498C8.31232 10.318 7.74032 10.009 7.29332 9.562C6.89432 9.163 6.61032 8.676 6.43732 8.113C4.73732 8.506 4.00032 9.421 4.00032 10.998C4.00032 12.098 3.58632 13.061 2.80032 13.866C3.19455 13.9604 3.59898 14.0054 4.00432 14C7.10932 14 8.85432 12.955 8.99732 10.499V10.498ZM11.0053 10.338C10.9253 14.244 8.15532 16 4.00532 16C2.44032 16 1.18632 15.583 0.300319 14.714C0.190636 14.6066 0.107158 14.4754 0.056351 14.3305C0.00554429 14.1856 -0.011226 14.031 0.00733951 13.8786C0.0259051 13.7262 0.0793079 13.5801 0.16341 13.4517C0.247512 13.3233 0.360055 13.2159 0.492319 13.138C1.54032 12.518 2.00032 11.828 2.00032 10.998C2.00032 8.271 3.59432 6.567 6.49832 6.062C6.51593 6.04296 6.53428 6.02461 6.55332 6.007L12.7433 0.267C12.9282 0.0954275 13.1711 5.76759e-05 13.4233 0C14.2033 0 14.8463 0.202 15.3053 0.662C15.7343 1.092 15.9613 1.658 15.9943 2.308C16.0049 2.51823 15.9489 2.72645 15.8343 2.903L11.0903 10.224C11.0643 10.264 11.0353 10.302 11.0053 10.337V10.338ZM13.7813 2.032L8.26632 7.147C8.32932 7.595 8.48032 7.92 8.70732 8.147C8.92732 8.367 9.26932 8.529 9.74832 8.617L13.9413 2.147C13.9279 2.12042 13.9103 2.09612 13.8893 2.075C13.8763 2.062 13.8413 2.045 13.7813 2.032Z" fill="#3D75E4"/>
</svg>
