<svg width="16" height="16" viewBox="0 0 16 16" fill="none" xmlns="http://www.w3.org/2000/svg">
<path fill-rule="evenodd" clip-rule="evenodd" d="M7.1328 0.19802C7.68083 -0.0660064 8.31917 -0.0660066 8.8672 0.198019L14.868 3.08905C16.3773 3.8162 16.3773 5.96709 14.868 6.69424L8.8672 9.58527C8.31917 9.8493 7.68083 9.8493 7.1328 9.58527L2.00235 7.11356V10.9985C2.00235 11.5509 1.55482 11.9988 1.00276 11.9988C0.450704 11.9988 0.00317252 11.5509 0.00317252 10.9985V5.00587C-0.0388938 4.24931 0.337376 3.47187 1.13198 3.08905L7.1328 0.19802ZM14.0008 4.89165L8 2.00061L1.99918 4.89165L8 7.78268L14.0008 4.89165Z" fill="#3D75E4"/>
<path d="M4.00153 8.99873C4.55359 8.99873 5.00112 9.44658 5.00112 9.99903V12.767C5.007 12.7832 5.02834 12.8336 5.09554 12.9174C5.20666 13.0561 5.39974 13.2284 5.68437 13.3982C6.25267 13.7371 7.07536 13.9994 7.99989 13.9994C8.92442 13.9994 9.74711 13.7371 10.3154 13.3982C10.6 13.2284 10.7931 13.0561 10.9042 12.9174C10.9714 12.8336 10.9928 12.7832 10.9987 12.767V9.99903C10.9987 9.44658 11.4462 8.99873 11.9983 8.99873C12.5503 8.99873 12.9978 9.44658 12.9978 9.99903V12.7901C12.9978 13.3378 12.7501 13.8119 12.4638 14.1691C12.1703 14.5353 11.7778 14.855 11.3389 15.1167C10.4601 15.6409 9.2836 16 7.99989 16C6.71619 16 5.5397 15.6409 4.66088 15.1167C4.22194 14.855 3.82948 14.5353 3.53595 14.1691C3.24968 13.8119 3.00194 13.3378 3.00194 12.7901V9.99903C3.00194 9.44658 3.44947 8.99873 4.00153 8.99873Z" fill="#3D75E4"/>
</svg>
