<svg width="16" height="16" viewBox="0 0 16 16" fill="none" xmlns="http://www.w3.org/2000/svg">
<path fill-rule="evenodd" clip-rule="evenodd" d="M0 5C0 3.34315 1.34315 2 3 2H13C14.6569 2 16 3.34315 16 5V11C16 12.6569 14.6569 14 13 14H3C1.34315 14 0 12.6569 0 11V5ZM2 10.6621V5.41421L5.87868 9.29289C7.05025 10.4645 8.94975 10.4645 10.1213 9.29289L14 5.41421V10.662L12.4144 9.2526C12.0016 8.88568 11.3695 8.92286 11.0026 9.33565C10.6357 9.74843 10.6729 10.3805 11.0856 10.7474L12.4948 12H3.50522L4.91437 10.7474C5.32716 10.3805 5.36434 9.74843 4.99742 9.33565C4.6305 8.92286 3.99843 8.88568 3.58565 9.2526L2 10.6621ZM3.41421 4H12.5858L8.70711 7.87868C8.31658 8.2692 7.68342 8.2692 7.29289 7.87868L3.41421 4Z" fill="#3D75E4"/>
</svg>
