<svg width="16" height="16" viewBox="0 0 16 16" fill="none" xmlns="http://www.w3.org/2000/svg">
<path d="M1 2C1 0.89543 1.89543 0 3 0H11C12.1046 0 13 0.89543 13 2V4C13 4.55228 12.5523 5 12 5C11.4477 5 11 4.55228 11 4V2H3V14H11V13.5C11 12.9477 11.4477 12.5 12 12.5C12.5523 12.5 13 12.9477 13 13.5V14C13 15.1046 12.1046 16 11 16H3C1.89543 16 1 15.1046 1 14V2Z" fill="#3D75E4"/>
<path d="M9.81387 11.4384C9.37622 11.1016 9.29452 10.4737 9.6314 10.036L13.2076 5.39004C13.5444 4.95239 14.1723 4.8707 14.61 5.20757C15.0476 5.54444 15.1293 6.17231 14.7924 6.60996L11.2163 11.256C10.8794 11.6936 10.2515 11.7753 9.81387 11.4384Z" fill="#3D75E4"/>
<path d="M4.99231 4.03079C4.44004 4.03504 3.99578 4.48618 4.00003 5.03845C4.00428 5.59072 4.45542 6.03498 5.00769 6.03073L9.00769 5.99997C9.55996 5.99572 10.0042 5.54458 9.99997 4.99231C9.99572 4.44004 9.54458 3.99578 8.99231 4.00003L4.99231 4.03079Z" fill="#3D75E4"/>
<path d="M4.00005 8.04101C3.99439 7.48876 4.43749 7.03648 4.98975 7.03081L7.98975 7.00005C8.542 6.99439 8.99428 7.43749 8.99995 7.98975C9.00561 8.542 8.56251 8.99428 8.01025 8.99995L5.01025 9.03071C4.458 9.03637 4.00572 8.59327 4.00005 8.04101Z" fill="#3D75E4"/>
<path d="M4.98462 10.0309C4.4324 10.0394 3.99162 10.4939 4.00012 11.0461C4.00861 11.5984 4.46316 12.0391 5.01538 12.0306L7.01538 11.9999C7.5676 11.9914 8.00838 11.5368 7.99988 10.9846C7.99139 10.4324 7.53684 9.99162 6.98462 10.0001L4.98462 10.0309Z" fill="#3D75E4"/>
</svg>
