<svg width="16" height="16" viewBox="0 0 16 16" fill="none" xmlns="http://www.w3.org/2000/svg">
<path fill-rule="evenodd" clip-rule="evenodd" d="M4.40991 5.05263C4.40991 3.48013 5.89661 2 8.00011 2C10.1036 2 11.5903 3.48013 11.5903 5.05263C11.5903 5.67568 11.5416 6.05734 11.4335 6.33942C11.3015 6.68371 11.1124 6.9981 10.8727 7.39662L10.8725 7.39693L10.8723 7.39718C10.8166 7.48985 10.7581 7.58708 10.697 7.69028C10.4003 8.19117 10.0508 8.82296 9.9176 9.56986L9.66263 11H9L9 8.17479L9.96246 6.94664C10.3031 6.51194 10.2269 5.88338 9.79219 5.54272C9.35749 5.20205 8.72893 5.27829 8.38827 5.71299L7.99999 6.20845L7.61195 5.71312C7.27136 5.27836 6.64281 5.20202 6.20805 5.54262C5.77329 5.88321 5.69696 6.51175 6.03755 6.94651L7 8.17506L7 11H6.3376L6.08262 9.56983C5.94946 8.82294 5.59991 8.19116 5.30323 7.69028C5.24197 7.58686 5.18339 7.48946 5.12754 7.39662L5.12754 7.39661L5.12753 7.3966C4.88784 6.99809 4.69874 6.68371 4.56675 6.33943C4.4586 6.05735 4.40991 5.67569 4.40991 5.05263ZM9.66263 13H8H6.3376C5.36845 13 4.53876 12.3051 4.36865 11.351L4.11367 9.92087C4.04868 9.55633 3.86774 9.19121 3.58243 8.70952C3.53992 8.63775 3.49398 8.5618 3.44582 8.48217L3.44577 8.48208L3.44568 8.48194C3.20178 8.07867 2.90085 7.58112 2.69929 7.05539C2.4549 6.41795 2.40991 5.7323 2.40991 5.05263C2.40991 2.14872 5.03342 0 8.00011 0C10.9668 0 13.5903 2.14872 13.5903 5.05263C13.5903 5.73229 13.5453 6.41793 13.3009 7.05537C13.0994 7.58111 12.7984 8.07867 12.5545 8.48195C12.5063 8.56166 12.4603 8.63769 12.4178 8.70952C12.1325 9.19122 11.9515 9.55634 11.8866 9.92089L11.6316 11.351C11.4615 12.3051 10.6318 13 9.66263 13ZM6.41919 14C5.8669 14 5.41919 14.4477 5.41919 15C5.41919 15.5523 5.8669 16 6.41919 16H9.58099C10.1333 16 10.581 15.5523 10.581 15C10.581 14.4477 10.1333 14 9.58099 14H6.41919Z" fill="#3D75E4"/>
</svg>
