<svg width="16" height="16" viewBox="0 0 16 16" fill="none" xmlns="http://www.w3.org/2000/svg">
<g clip-path="url(#clip0)">
<path fill-rule="evenodd" clip-rule="evenodd" d="M0 8.00012C-2.41411e-08 7.44784 0.447715 7.00012 1 7.00012L7.91909 7.00012L5.73731 4.81834C5.34679 4.42781 5.34679 3.79465 5.73732 3.40412C6.12784 3.0136 6.76101 3.0136 7.15153 3.40413L11.0404 7.29302C11.4309 7.68354 11.4309 8.3167 11.0404 8.70723L7.15153 12.5961C6.76101 12.9866 6.12784 12.9866 5.73732 12.5961C5.34679 12.2056 5.34679 11.5724 5.73731 11.1819L7.91909 9.00012L1 9.00012C0.447715 9.00012 2.41411e-08 8.55241 0 8.00012ZM9.33335 15.0001C9.33335 14.4478 9.78107 14.0001 10.3334 14.0001H13.4445C13.5918 14.0001 13.7331 13.9416 13.8373 13.8374C13.9415 13.7332 14 13.5919 14 13.4446L14 2.55568C14 2.40833 13.9415 2.26703 13.8373 2.16284C13.7331 2.05865 13.5918 2.00012 13.4445 2.00012L10.3334 2.00012C9.78107 2.00012 9.33335 1.55241 9.33335 1.00012C9.33335 0.447837 9.78107 0.00012223 10.3334 0.000122206L13.4445 0.00012207C14.1222 0.000122041 14.7722 0.269369 15.2515 0.748629C15.7308 1.22789 16 1.8779 16 2.55568L16 13.4446C16 14.1223 15.7308 14.7724 15.2515 15.2516C14.7722 15.7309 14.1222 16.0001 13.4445 16.0001H10.3334C9.78107 16.0001 9.33335 15.5524 9.33335 15.0001Z" fill="#3D75E4"/>
</g>
<defs>
<clipPath id="clip0">
<rect width="16" height="16" fill="white"/>
</clipPath>
</defs>
</svg>
