<svg width="16" height="16" viewBox="0 0 16 16" fill="none" xmlns="http://www.w3.org/2000/svg">
<path d="M1.58579 2.50009C2.36684 1.71904 3.63317 1.71905 4.41421 2.50009L5.70711 3.79299C6.09763 4.18351 6.09763 4.81668 5.70711 5.2072C5.31658 5.59772 4.68342 5.59772 4.29289 5.2072L4 4.9143L4 10.5857L4.29289 10.2928C4.68342 9.90228 5.31658 9.90227 5.70711 10.2928C6.09763 10.6833 6.09763 11.3165 5.70711 11.707L4.41421 12.9999C3.63316 13.781 2.36683 13.781 1.58579 12.9999L0.292893 11.707C-0.0976311 11.3165 -0.097631 10.6833 0.292893 10.2928C0.683418 9.90227 1.31658 9.90227 1.70711 10.2928L2 10.5857L2 4.91431L1.70711 5.2072C1.31658 5.59772 0.683418 5.59772 0.292894 5.2072C-0.0976307 4.81668 -0.0976307 4.18351 0.292894 3.79299L1.58579 2.50009Z" fill="#3D75E4"/>
<path d="M8 2C7.44772 2 7 2.44772 7 3C7 3.55228 7.44772 4 8 4H15C15.5523 4 16 3.55228 16 3C16 2.44772 15.5523 2 15 2H8Z" fill="#3D75E4"/>
<path d="M7 8C7 7.44772 7.44772 7 8 7H15C15.5523 7 16 7.44772 16 8C16 8.55228 15.5523 9 15 9H8C7.44772 9 7 8.55228 7 8Z" fill="#3D75E4"/>
<path d="M8 12C7.44772 12 7 12.4477 7 13C7 13.5523 7.44772 14 8 14H15C15.5523 14 16 13.5523 16 13C16 12.4477 15.5523 12 15 12H8Z" fill="#3D75E4"/>
</svg>
