<svg width="17" height="16" viewBox="0 0 17 16" fill="none" xmlns="http://www.w3.org/2000/svg">
<path fill-rule="evenodd" clip-rule="evenodd" d="M5.00195 2.00966C4.44967 2.00966 4.00195 2.45953 4.00195 3.01448V13.9866L6.75256 11.7755C7.483 11.1883 8.52091 11.1883 9.25134 11.7755L12.002 13.9866V3.01448C12.002 2.45953 11.5542 2.00966 11.002 2.00966H5.00195ZM2.00195 3.01448C2.00195 1.34963 3.3451 0 5.00195 0H11.002C12.6588 0 14.002 1.34963 14.002 3.01448V13.9866C14.002 15.6717 12.0621 16.6085 10.7526 15.5558L8.00195 13.3447L5.25134 15.5558C3.94182 16.6085 2.00195 15.6717 2.00195 13.9866V3.01448Z" fill="#3D75E4"/>
</svg>
