<svg width="17" height="16" viewBox="0 0 17 16" fill="none" xmlns="http://www.w3.org/2000/svg">
<path fill-rule="evenodd" clip-rule="evenodd" d="M4.50195 2.5C3.94967 2.5 3.50195 2.94772 3.50195 3.5V12.5C3.50195 13.0523 3.94967 13.5 4.50195 13.5H11.502C12.0542 13.5 12.502 13.0523 12.502 12.5V9.5C12.502 9.38791 12.4668 9.3034 12.3223 9.20705C12.1481 9.09094 11.8536 9 11.502 9H11.002C9.3451 9 8.00195 7.65685 8.00195 6V4.5C8.00195 3.94772 8.44967 3.5 9.00195 3.5C9.55424 3.5 10.002 3.94772 10.002 4.5V6C10.002 6.55228 10.4497 7 11.002 7H11.502C12.1503 7 12.8558 7.15906 13.4317 7.54295C14.0371 7.9466 14.502 8.61209 14.502 9.5V12.5C14.502 14.1569 13.1588 15.5 11.502 15.5H4.50195C2.8451 15.5 1.50195 14.1569 1.50195 12.5V3.5C1.50195 1.84315 2.8451 0.5 4.50195 0.5H9.58208C10.4579 0.5 11.2899 0.882688 11.8599 1.54763C11.8772 1.56782 11.8937 1.5887 11.9093 1.61021L14.3107 4.9118C14.6355 5.35843 14.5368 5.98386 14.0902 6.30871C13.6435 6.63357 13.0181 6.53484 12.6932 6.0882L10.3194 2.82445C10.1303 2.61809 9.86296 2.5 9.58208 2.5H4.50195Z" fill="#3D75E4"/>
</svg>
