<svg width="16" height="16" viewBox="0 0 16 16" fill="none" xmlns="http://www.w3.org/2000/svg">
<path d="M8.12406 4.99238C8.08342 4.99741 8.04201 5 8 5H1C0.447715 5 0 4.55228 0 4C0 3.44772 0.447715 3 1 3H8C8.04201 3 8.08342 3.00259 8.12406 3.00762C8.56545 1.27853 10.1334 0 12 0C14.2091 0 16 1.79086 16 4C16 6.20914 14.2091 8 12 8C10.1334 8 8.56545 6.72147 8.12406 4.99238ZM7.87594 11.0076C7.91658 11.0026 7.95799 11 8 11H15C15.5523 11 16 11.4477 16 12C16 12.5523 15.5523 13 15 13H8C7.95799 13 7.91658 12.9974 7.87594 12.9924C7.43455 14.7215 5.86658 16 4 16C1.79086 16 0 14.2091 0 12C0 9.79086 1.79086 8 4 8C5.86658 8 7.43455 9.27853 7.87594 11.0076ZM4 14C5.10457 14 6 13.1046 6 12C6 10.8954 5.10457 10 4 10C2.89543 10 2 10.8954 2 12C2 13.1046 2.89543 14 4 14ZM12 6C13.1046 6 14 5.10457 14 4C14 2.89543 13.1046 2 12 2C10.8954 2 10 2.89543 10 4C10 5.10457 10.8954 6 12 6Z" fill="#3D75E4"/>
</svg>
