<svg width="16" height="16" viewBox="0 0 16 16" fill="none" xmlns="http://www.w3.org/2000/svg">
<g clip-path="url(#clip0)">
<path d="M9.88441 0.356486C9.52905 -0.0662833 8.89825 -0.120926 8.47548 0.234439C8.05271 0.589804 7.99806 1.22061 8.35343 1.64338L13.6965 7.99993L8.35343 14.3565C7.99806 14.7793 8.0527 15.4101 8.47547 15.7654C8.89824 16.1208 9.52905 16.0661 9.88441 15.6434L15.7684 8.64338C16.081 8.27139 16.081 7.72847 15.7684 7.35649L9.88441 0.356486Z" fill="#3D75E4"/>
<path d="M1.76527 0.356487C1.40991 -0.0662833 0.779106 -0.120926 0.356336 0.234439C-0.0664335 0.589803 -0.121076 1.22061 0.234289 1.64338L5.57737 7.99993L0.234286 14.3565C-0.121078 14.7793 -0.0664361 15.4101 0.356334 15.7654C0.779104 16.1208 1.40991 16.0661 1.76527 15.6434L7.64921 8.64338C7.96189 8.27139 7.96189 7.72847 7.64922 7.35649L1.76527 0.356487Z" fill="#3D75E4"/>
</g>
<defs>
<clipPath id="clip0">
<rect width="16" height="16" fill="white" transform="translate(16 16) rotate(-180)"/>
</clipPath>
</defs>
</svg>
