<svg width="16" height="16" viewBox="0 0 16 16" fill="none" xmlns="http://www.w3.org/2000/svg">
<path fill-rule="evenodd" clip-rule="evenodd" d="M9.48993 11.8704C10.8997 10.247 12 8.35041 12 6.54545C12 5.28648 11.5399 4.11033 10.7683 3.26857C10.0021 2.43263 9.00193 2 8 2C6.99807 2 5.99794 2.43263 5.23167 3.26857C4.46005 4.11033 4 5.28648 4 6.54545C4 8.35041 5.10026 10.247 6.51007 11.8704C7.02992 12.4691 7.55306 12.986 8 13.3951C8.44694 12.986 8.97008 12.4691 9.48993 11.8704ZM14 6.54545C14 11.6364 8 16 8 16C8 16 2 11.6364 2 6.54545C2 4.80949 2.63214 3.14463 3.75736 1.91712C4.88258 0.689608 6.4087 0 8 0C9.5913 0 11.1174 0.689608 12.2426 1.91712C13.3679 3.14463 14 4.80949 14 6.54545Z" fill="#3D75E4"/>
<path d="M10 6C10 7.10457 9.10457 8 8 8C6.89543 8 6 7.10457 6 6C6 4.89543 6.89543 4 8 4C9.10457 4 10 4.89543 10 6Z" fill="#3D75E4"/>
</svg>
