<svg width="16" height="16" viewBox="0 0 16 16" fill="none" xmlns="http://www.w3.org/2000/svg">
<path d="M8 0C12.4183 0 16 3.58172 16 8C16 12.4183 12.4183 16 8 16C3.58172 16 0 12.4183 0 8C0 3.58172 3.58172 0 8 0ZM8 1.6C4.46538 1.6 1.6 4.46538 1.6 8C1.6 11.5346 4.46538 14.4 8 14.4C11.5346 14.4 14.4 11.5346 14.4 8C14.4 4.46538 11.5346 1.6 8 1.6ZM8.50492 9.66098C8.20614 9.93984 7.73788 9.92369 7.45902 9.62492C7.18016 9.32614 7.19631 8.85788 7.49508 8.57902C7.53753 8.53941 8.53776 7.63901 8.77059 7.40383C9.27359 6.89574 9.48 6.53062 9.48 6.16C9.48 5.39203 8.78563 4.68 8 4.68C7.21437 4.68 6.52 5.39203 6.52 6.16C6.52 6.56869 6.18869 6.9 5.78 6.9C5.37131 6.9 5.04 6.56869 5.04 6.16C5.04 4.58285 6.38855 3.2 8 3.2C9.61145 3.2 10.96 4.58285 10.96 6.16C10.96 7.00251 10.5733 7.68652 9.82236 8.44506C9.5541 8.71604 8.51944 9.64743 8.50492 9.66098ZM8 12.8C7.42562 12.8 6.96 12.3344 6.96 11.76C6.96 11.1856 7.42562 10.72 8 10.72C8.57438 10.72 9.04 11.1856 9.04 11.76C9.04 12.3344 8.57438 12.8 8 12.8Z" fill="#3D75E4"/>
</svg>
