<svg width="16" height="16" viewBox="0 0 16 16" fill="none" xmlns="http://www.w3.org/2000/svg">
<g clip-path="url(#clip0)">
<path fill-rule="evenodd" clip-rule="evenodd" d="M5.75455 9.86722C5.55929 9.67196 5.24271 9.67196 5.04745 9.86722L2.10803 12.8066C1.7175 13.1972 1.08434 13.1972 0.693812 12.8066C0.303288 12.4161 0.303288 11.783 0.693812 11.3924L3.63323 8.45301C4.60954 7.4767 6.19246 7.4767 7.16877 8.45301L8.80107 10.0853L9.63319 9.25318C10.6096 8.27677 12.1927 8.27689 13.169 9.25345L15.7077 11.793C16.0982 12.1835 16.0981 12.8167 15.7075 13.2072C15.3169 13.5976 14.6838 13.5975 14.2933 13.207L11.7546 10.6674C11.5593 10.4721 11.2427 10.4721 11.0474 10.6674L10.2153 11.4995L12.5082 13.7925C12.8988 14.183 12.8988 14.8162 12.5082 15.2067C12.1177 15.5972 11.4845 15.5972 11.094 15.2067L5.75455 9.86722Z" fill="#3D75E4"/>
<path fill-rule="evenodd" clip-rule="evenodd" d="M12 2H4C2.89543 2 2 2.89543 2 4V12C2 13.1046 2.89543 14 4 14H12C13.1046 14 14 13.1046 14 12V4C14 2.89543 13.1046 2 12 2ZM4 0C1.79086 0 0 1.79086 0 4V12C0 14.2091 1.79086 16 4 16H12C14.2091 16 16 14.2091 16 12V4C16 1.79086 14.2091 0 12 0H4Z" fill="#3D75E4"/>
</g>
<defs>
<clipPath id="clip0">
<rect width="16" height="16" fill="white"/>
</clipPath>
</defs>
</svg>
