<svg width="16" height="16" viewBox="0 0 16 16" fill="none" xmlns="http://www.w3.org/2000/svg">
<path d="M7.91233 0C7.35399 0 6.90137 0.447715 6.90137 1C6.90137 1.55228 7.35399 2 7.91233 2C11.2624 2 13.9781 4.68629 13.9781 8C13.9781 11.3137 11.2624 14 7.91233 14C6.96498 14 6.07103 13.7859 5.27472 13.4048C4.44998 13.0102 3.72832 12.4356 3.16256 11.7322C2.81494 11.3 2.17895 11.2284 1.74202 11.5723C1.3051 11.9161 1.23271 12.5452 1.58033 12.9774C2.333 13.9132 3.29365 14.6786 4.39422 15.2052C5.45912 15.7148 6.65348 16 7.91233 16C12.379 16 16 12.4183 16 8C16 3.58172 12.379 0 7.91233 0Z" fill="#3D75E4"/>
<path d="M7.98864 4.76125C7.98864 4.20896 8.44767 3.74909 8.99064 3.87775C10.874 4.32403 12.274 6.00039 12.274 8.00019C12.274 10.3413 10.3554 12.2391 7.98864 12.2391C6.95035 12.2391 5.99846 11.8739 5.2569 11.2662C4.82672 10.9136 4.92278 10.2747 5.36968 9.94311L7.98864 8.00019V4.76125Z" fill="#3D75E4"/>
<path d="M2.02784 9.55469C2.02784 10.107 1.57522 10.5547 1.01688 10.5547C0.458545 10.5547 0.00592359 10.107 0.00592359 9.55469C0.00592359 9.0024 0.458545 8.55469 1.01688 8.55469C1.57522 8.55469 2.02784 9.0024 2.02784 9.55469Z" fill="#3D75E4"/>
<path d="M1.01096 7.43701C1.5693 7.43701 2.02192 6.9893 2.02192 6.43701C2.02192 5.88473 1.5693 5.43701 1.01096 5.43701C0.452622 5.43701 0 5.88473 0 6.43701C0 6.9893 0.452622 7.43701 1.01096 7.43701Z" fill="#3D75E4"/>
<path d="M3.39027 3.63281C3.39027 4.1851 2.93764 4.63281 2.37931 4.63281C1.82097 4.63281 1.36835 4.1851 1.36835 3.63281C1.36835 3.08053 1.82097 2.63281 2.37931 2.63281C2.93764 2.63281 3.39027 3.08053 3.39027 3.63281Z" fill="#3D75E4"/>
<path d="M4.83562 2.69531C5.39396 2.69531 5.84658 2.2476 5.84658 1.69531C5.84658 1.14303 5.39396 0.695312 4.83562 0.695312C4.27728 0.695312 3.82466 1.14303 3.82466 1.69531C3.82466 2.2476 4.27728 2.69531 4.83562 2.69531Z" fill="#3D75E4"/>
</svg>
