<svg width="16" height="16" viewBox="0 0 16 16" fill="none" xmlns="http://www.w3.org/2000/svg">
<path d="M9 1.5C9 2.32843 8.32843 3 7.5 3C6.67157 3 6 2.32843 6 1.5C6 0.671573 6.67157 0 7.5 0C8.32843 0 9 0.671573 9 1.5Z" fill="#3D75E4"/>
<path d="M8 5C8 4.44772 7.55228 4 7 4C6.44772 4 6 4.44772 6 5V10C6 10.5523 6.44772 11 7 11H10.5858L12.2929 12.7071C12.6834 13.0976 13.3166 13.0976 13.7071 12.7071L14.7071 11.7071C15.0976 11.3166 15.0976 10.6834 14.7071 10.2929C14.3166 9.90237 13.6834 9.90237 13.2929 10.2929L13 10.5858L11.7071 9.29289C11.5196 9.10536 11.2652 9 11 9H8V7H11C11.5523 7 12 6.55228 12 6C12 5.44772 11.5523 5 11 5H8Z" fill="#3D75E4"/>
<path d="M4.55626 7.58882C5.01521 7.28161 5.13822 6.66051 4.83101 6.20155C4.52379 5.7426 3.90269 5.61959 3.44374 5.9268C1.97228 6.91177 1 8.59216 1 10.5C1 13.5376 3.46243 16 6.5 16C8.22819 16 9.77069 15.2018 10.7774 13.9578C11.1248 13.5284 11.0584 12.8987 10.629 12.5513C10.1997 12.2039 9.57004 12.2703 9.22263 12.6997C8.57936 13.4946 7.59907 14 6.5 14C4.567 14 3 12.433 3 10.5C3 9.2875 3.61575 8.21838 4.55626 7.58882Z" fill="#3D75E4"/>
</svg>
