<svg width="16" height="16" viewBox="0 0 16 16" fill="none" xmlns="http://www.w3.org/2000/svg">
<path fill-rule="evenodd" clip-rule="evenodd" d="M10.3769 0.600002H6.3999C5.84762 0.600002 5.3999 1.04772 5.3999 1.6C5.3999 2.15229 5.84762 2.6 6.3999 2.6H8.9569L4.9069 13.4H2.3999C1.84762 13.4 1.3999 13.8477 1.3999 14.4C1.3999 14.9523 1.84762 15.4 2.3999 15.4H5.57657C5.59206 15.4004 5.60752 15.4004 5.62294 15.4H9.5999C10.1522 15.4 10.5999 14.9523 10.5999 14.4C10.5999 13.8477 10.1522 13.4 9.5999 13.4H7.0429L11.0929 2.6H13.5999C14.1522 2.6 14.5999 2.15229 14.5999 1.6C14.5999 1.04772 14.1522 0.600002 13.5999 0.600002H10.4232C10.4078 0.59964 10.3923 0.599642 10.3769 0.600002Z" fill="#3D75E4"/>
</svg>
