<svg width="16" height="16" viewBox="0 0 16 16" fill="none" xmlns="http://www.w3.org/2000/svg">
<path fill-rule="evenodd" clip-rule="evenodd" d="M9.83645 1.15847C8.75488 0.320549 7.2434 0.32055 6.16183 1.15847L1.44115 4.81571C0.386871 5.63248 0.4122 7.23276 1.49179 8.01576L6.2378 11.4579C7.28841 12.2199 8.70987 12.2199 9.76048 11.4579L14.5065 8.01576C15.5861 7.23275 15.6114 5.63248 14.5571 4.8157L9.83645 1.15847ZM7.38671 2.73951C7.74723 2.4602 8.25106 2.4602 8.61158 2.73951L13.3323 6.39675L8.58626 9.83891C8.23605 10.0929 7.76223 10.0929 7.41203 9.83891L2.66602 6.39675L7.38671 2.73951Z" fill="#3D75E4"/>
<path d="M2.55481 10.6681C2.09528 10.3617 1.47441 10.4859 1.16806 10.9454C0.861704 11.4049 0.985877 12.0258 1.44541 12.3322L5.22661 14.853C6.9061 15.9726 9.09411 15.9726 10.7736 14.853L14.5548 12.3322C15.0143 12.0258 15.1385 11.4049 14.8322 10.9454C14.5258 10.4859 13.9049 10.3617 13.4454 10.6681L9.66421 13.1889C8.65651 13.8607 7.3437 13.8607 6.33601 13.1889L2.55481 10.6681Z" fill="#3D75E4"/>
</svg>
