<svg width="17" height="16" viewBox="0 0 17 16" fill="none" xmlns="http://www.w3.org/2000/svg">
<path fill-rule="evenodd" clip-rule="evenodd" d="M9.8384 1.15847C8.75683 0.320549 7.24536 0.32055 6.16379 1.15847L1.4431 4.81571C0.388824 5.63248 0.414153 7.23276 1.49375 8.01576L6.23976 11.4579C7.29037 12.2199 8.71183 12.2199 9.76244 11.4579L14.5084 8.01576C15.588 7.23275 15.6134 5.63248 14.5591 4.8157L9.8384 1.15847Z" fill="#3D75E4"/>
<path d="M2.55676 10.6681C2.09723 10.3617 1.47636 10.4859 1.17001 10.9454C0.863657 11.4049 0.98783 12.0258 1.44736 12.3322L5.22856 14.853C6.90806 15.9726 9.09606 15.9726 10.7756 14.853L14.5568 12.3322C15.0163 12.0258 15.1405 11.4049 14.8341 10.9454C14.5278 10.4859 13.9069 10.3617 13.4474 10.6681L9.66616 13.1889C8.65846 13.8607 7.34566 13.8607 6.33796 13.1889L2.55676 10.6681Z" fill="#3D75E4"/>
</svg>
