<svg width="17" height="16" viewBox="0 0 17 16" fill="none" xmlns="http://www.w3.org/2000/svg">
<path fill-rule="evenodd" clip-rule="evenodd" d="M5.78104 7.1486C6.87541 5.68875 7.95053 3.66991 8.55757 2.24179C8.58904 2.32001 8.62046 2.42304 8.64874 2.5588C8.75679 3.07765 8.73707 3.77715 8.64154 4.4472C8.54632 5.11507 8.76353 5.76984 9.12789 6.25196C9.49346 6.73569 10.0965 7.15562 10.8556 7.15562L12.9787 7.15562C12.9294 7.67692 12.8034 8.38068 12.6124 9.12558C12.3663 10.0853 12.0411 10.9996 11.7137 11.5832C11.598 11.7894 11.2821 11.9819 10.5786 11.9948C7.13711 12.0576 4.5376 11.0534 3.00195 10.2235L3.00195 5.99078C3.00195 5.43786 2.55424 4.98963 2.00195 4.98963C1.44967 4.98963 1.00195 5.43786 1.00195 5.99078V10.8046V12.9988C1.00195 13.5518 1.44967 14 2.00195 14C2.55424 14 3.00195 13.5518 3.00195 12.9988V12.4573C4.79679 13.2749 7.38271 14.0558 10.6151 13.9967C11.4989 13.9806 12.7958 13.7432 13.4575 12.5637C13.9079 11.7608 14.285 10.6552 14.5495 9.62349C14.8138 8.59319 14.9948 7.52269 15.0019 6.76999C15.0067 6.26099 14.7783 5.82462 14.4241 5.53742C14.0894 5.26593 13.68 5.15332 13.3008 5.15332L10.8556 5.15332L10.8521 5.15256C10.8484 5.15153 10.8401 5.14874 10.8276 5.14168C10.8013 5.12677 10.7624 5.09616 10.7228 5.04384C10.6347 4.92728 10.6116 4.79916 10.6215 4.73015C10.7317 3.95669 10.7826 2.99486 10.6066 2.15011C10.4368 1.33477 9.96384 0.283264 8.76408 0.0332749C8.24133 -0.0756486 7.78357 0.0972477 7.46341 0.342727C7.15653 0.578022 6.94654 0.895574 6.82315 1.20212C6.29793 2.50702 5.22866 4.54973 4.18143 5.9467C3.84991 6.38893 3.93925 7.01648 4.38097 7.34838C4.82269 7.68028 5.44952 7.59083 5.78104 7.1486Z" fill="#3D75E4"/>
</svg>
