<svg width="17" height="16" viewBox="0 0 17 16" fill="none" xmlns="http://www.w3.org/2000/svg">
<path fill-rule="evenodd" clip-rule="evenodd" d="M5.00195 5C3.3451 5 2.00195 6.34315 2.00195 8C2.00195 9.65685 3.3451 11 5.00195 11H6.00195C6.55424 11 7.00195 11.4477 7.00195 12C7.00195 12.5523 6.55424 13 6.00195 13H5.00195C2.24053 13 0.00195312 10.7614 0.00195312 8C0.00195312 5.23858 2.24053 3 5.00195 3H6.00195C6.55424 3 7.00195 3.44772 7.00195 4C7.00195 4.55228 6.55424 5 6.00195 5H5.00195ZM9.00195 4C9.00195 3.44772 9.44967 3 10.002 3H11.002C13.7634 3 16.002 5.23858 16.002 8C16.002 10.7614 13.7634 13 11.002 13H10.002C9.44967 13 9.00195 12.5523 9.00195 12C9.00195 11.4477 9.44967 11 10.002 11H11.002C12.6588 11 14.002 9.65685 14.002 8C14.002 6.34315 12.6588 5 11.002 5H10.002C9.44967 5 9.00195 4.55228 9.00195 4Z" fill="#3D75E4"/>
<path fill-rule="evenodd" clip-rule="evenodd" d="M4.00195 8C4.00195 7.44772 4.44967 7 5.00195 7H11.002C11.5542 7 12.002 7.44772 12.002 8C12.002 8.55228 11.5542 9 11.002 9H5.00195C4.44967 9 4.00195 8.55228 4.00195 8Z" fill="#3D75E4"/>
</svg>
