<svg width="16" height="17" viewBox="0 0 16 17" fill="none" xmlns="http://www.w3.org/2000/svg">
<g clip-path="url(#clip0)">
<path d="M5 6.33191C5.55228 6.33191 6 5.88419 6 5.33191C6 4.77962 5.55228 4.33191 5 4.33191C4.44772 4.33191 4 4.77962 4 5.33191C4 5.88419 4.44772 6.33191 5 6.33191Z" fill="#3D75E4"/>
<path d="M6 8.33191C6 8.88419 5.55228 9.33191 5 9.33191C4.44772 9.33191 4 8.88419 4 8.33191C4 7.77962 4.44772 7.33191 5 7.33191C5.55228 7.33191 6 7.77962 6 8.33191Z" fill="#3D75E4"/>
<path d="M5 12.3319C5.55228 12.3319 6 11.8842 6 11.3319C6 10.7796 5.55228 10.3319 5 10.3319C4.44772 10.3319 4 10.7796 4 11.3319C4 11.8842 4.44772 12.3319 5 12.3319Z" fill="#3D75E4"/>
<path d="M7 5.33191C7 4.77962 7.44772 4.33191 8 4.33191H11C11.5523 4.33191 12 4.77962 12 5.33191C12 5.88419 11.5523 6.33191 11 6.33191H8C7.44772 6.33191 7 5.88419 7 5.33191Z" fill="#3D75E4"/>
<path d="M8 7.33191C7.44772 7.33191 7 7.77962 7 8.33191C7 8.88419 7.44772 9.33191 8 9.33191H11C11.5523 9.33191 12 8.88419 12 8.33191C12 7.77962 11.5523 7.33191 11 7.33191H8Z" fill="#3D75E4"/>
<path fill-rule="evenodd" clip-rule="evenodd" d="M4 0.331909C2.34315 0.331909 1 1.67505 1 3.33191V13.3319C1 14.9888 2.34315 16.3319 4 16.3319H12C13.6569 16.3319 15 14.9888 15 13.3319V3.33191C15 1.67506 13.6569 0.331909 12 0.331909H4ZM3 3.33191C3 2.77962 3.44772 2.33191 4 2.33191H12C12.5523 2.33191 13 2.77962 13 3.33191V13.3319C13 13.8842 12.5523 14.3319 12 14.3319H4C3.44772 14.3319 3 13.8842 3 13.3319V3.33191Z" fill="#3D75E4"/>
</g>
<defs>
<clipPath id="clip0">
<rect width="16" height="16" fill="white" transform="translate(0 0.331909)"/>
</clipPath>
</defs>
</svg>
