<svg width="16" height="16" viewBox="0 0 16 16" fill="none" xmlns="http://www.w3.org/2000/svg">
<g clip-path="url(#clip0)">
<path opacity="0.85" d="M7.97 4.08C7.44 4.08 7 3.65 7 3.11V0.97C7 0.43 7.44 0 7.97 0C8.51 0 8.94 0.43 8.94 0.97V3.11C8.94 3.65 8.51 4.08 7.97 4.08Z" fill="#3D75E4"/>
<path opacity="0.9" d="M9.93071 4.58996C9.47071 4.31996 9.31071 3.72996 9.58071 3.26996L10.6507 1.40996C10.9207 0.949958 11.5107 0.789958 11.9707 1.05996C12.4307 1.32996 12.5907 1.91996 12.3207 2.37996L11.2507 4.23996C10.9907 4.69996 10.4007 4.85996 9.93071 4.58996Z" fill="#3D75E4"/>
<path opacity="0.95" d="M11.3795 6.01002C11.1095 5.55002 11.2695 4.95002 11.7295 4.69002L13.5895 3.62002C14.0495 3.35002 14.6495 3.51002 14.9095 3.97002C15.1795 4.43002 15.0195 5.03002 14.5595 5.29002L12.6995 6.37002C12.2395 6.64002 11.6495 6.48002 11.3795 6.01002Z" fill="#3D75E4"/>
<path d="M11.9199 7.97C11.9199 7.43 12.3499 7 12.8899 7H15.0299C15.5699 7 15.9999 7.44 15.9999 7.97C15.9999 8.51 15.5699 8.94 15.0299 8.94H12.8899C12.3499 8.94 11.9199 8.51 11.9199 7.97Z" fill="#3D75E4"/>
<path opacity="0.45" d="M11.4108 9.92998C11.6808 9.46998 12.2708 9.30998 12.7308 9.57998L14.5908 10.65C15.0508 10.92 15.2108 11.51 14.9408 11.97C14.6708 12.43 14.0808 12.59 13.6208 12.32L11.7608 11.25C11.3008 10.99 11.1408 10.4 11.4108 9.92998Z" fill="#3D75E4"/>
<path opacity="0.5" d="M9.98918 11.38C10.4492 11.11 11.0492 11.27 11.3092 11.73L12.3792 13.59C12.6492 14.05 12.4892 14.65 12.0292 14.91C11.5692 15.18 10.9692 15.02 10.7092 14.56L9.62918 12.7C9.35918 12.24 9.51918 11.65 9.98918 11.38Z" fill="#3D75E4"/>
<path opacity="0.55" d="M8.03055 11.92C8.57055 11.92 9.00055 12.35 9.00055 12.89V15.03C9.00055 15.57 8.56055 16 8.03055 16C7.49055 16 7.06055 15.57 7.06055 15.03V12.89C7.06055 12.35 7.49055 11.92 8.03055 11.92Z" fill="#3D75E4"/>
<path opacity="0.6" d="M6.07032 11.4101C6.53032 11.6801 6.69032 12.2701 6.42032 12.7301L5.35032 14.5901C5.08032 15.0501 4.49032 15.2101 4.03032 14.9401C3.57032 14.6701 3.41032 14.0801 3.68032 13.6201L4.75032 11.7601C5.01032 11.3001 5.60032 11.1401 6.07032 11.4101Z" fill="#3D75E4"/>
<path opacity="0.65" d="M4.62048 9.99003C4.89048 10.45 4.73048 11.05 4.27048 11.31L2.41048 12.38C1.95048 12.65 1.35048 12.49 1.09048 12.03C0.820475 11.57 0.980475 10.97 1.44048 10.71L3.30048 9.63003C3.76048 9.36003 4.35048 9.52003 4.62048 9.99003Z" fill="#3D75E4"/>
<path opacity="0.7" d="M4.08 8.03006C4.08 8.56006 3.65 9.00006 3.11 9.00006H0.97C0.43 9.00006 0 8.56006 0 8.03006C0 7.49006 0.43 7.06006 0.97 7.06006H3.11C3.65 7.06006 4.08 7.49006 4.08 8.03006Z" fill="#3D75E4"/>
<path opacity="0.75" d="M4.58923 6.06995C4.31923 6.52995 3.72923 6.68995 3.26923 6.41995L1.40923 5.34995C0.949225 5.07995 0.789225 4.48995 1.05923 4.02995C1.31923 3.55995 1.91923 3.39995 2.37923 3.66995L4.23923 4.73995C4.69923 5.00995 4.85923 5.59995 4.58923 6.06995Z" fill="#3D75E4"/>
<path opacity="0.8" d="M6.00977 4.61999C5.54977 4.88999 4.95977 4.72999 4.68977 4.26999L3.61977 2.40999C3.34977 1.94999 3.50977 1.34999 3.96977 1.08999C4.43977 0.819987 5.02977 0.979987 5.29977 1.43999L6.36977 3.29999C6.63977 3.75999 6.47977 4.34999 6.00977 4.61999Z" fill="#3D75E4"/>
</g>
<defs>
<clipPath id="clip0">
<rect width="16" height="16" fill="white"/>
</clipPath>
</defs>
</svg>
