<svg width="16" height="16" viewBox="0 0 16 16" fill="none" xmlns="http://www.w3.org/2000/svg">
<g clip-path="url(#clip0)">
<path fill-rule="evenodd" clip-rule="evenodd" d="M8 0C8.55228 0 9 0.447715 9 1V7.91909L11.1818 5.73731C11.5723 5.34679 12.2055 5.34679 12.596 5.73732C12.9865 6.12784 12.9865 6.76101 12.596 7.15153L8.7071 11.0404C8.31658 11.4309 7.68342 11.4309 7.29289 11.0404L3.40401 7.15153C3.01348 6.76101 3.01348 6.12784 3.404 5.73732C3.79453 5.34679 4.42769 5.34679 4.81822 5.73731L7 7.91909V1C7 0.447715 7.44771 0 8 0ZM1 9.33335C1.55228 9.33335 2 9.78107 2 10.3334V13.4445C2 13.5918 2.05853 13.7331 2.16272 13.8373C2.2669 13.9415 2.40821 14 2.55556 14H13.4444C13.5918 14 13.7331 13.9415 13.8373 13.8373C13.9415 13.7331 14 13.5918 14 13.4445V10.3334C14 9.78107 14.4477 9.33335 15 9.33335C15.5523 9.33335 16 9.78107 16 10.3334V13.4445C16 14.1222 15.7308 14.7722 15.2515 15.2515C14.7722 15.7308 14.1222 16 13.4444 16H2.55556C1.87778 16 1.22777 15.7308 0.748506 15.2515C0.269246 14.7722 0 14.1222 0 13.4445V10.3334C0 9.78107 0.447715 9.33335 1 9.33335Z" fill="#3D75E4"/>
</g>
<defs>
<clipPath id="clip0">
<rect width="16" height="16" fill="white"/>
</clipPath>
</defs>
</svg>
