<svg width="16" height="16" viewBox="0 0 16 16" fill="none" xmlns="http://www.w3.org/2000/svg">
<path d="M0 8C-2.41411e-08 7.44772 0.447716 7 1 7H1.56855C1.99937 4.20667 4.2066 1.99957 7 1.56896V1C7 0.447715 7.44772 2.41416e-08 8 0C8.55229 -2.41407e-08 9 0.447716 9 1V1.56911C11.7929 2.00009 13.9997 4.20699 14.4305 7H15.0005C15.5528 7 16.0005 7.44772 16.0005 8C16.0005 8.55228 15.5528 9 15.0005 9H14.4304C14.1428 10.8638 13.0642 12.466 11.5517 13.453C11.0892 13.7548 10.4696 13.6246 10.1677 13.162C9.86593 12.6995 9.99621 12.0799 10.4587 11.7781C11.694 10.9721 12.5068 9.58069 12.5068 8C12.5068 5.51067 10.4888 3.49268 7.99951 3.49268C5.51971 3.49268 3.50764 5.49526 3.49228 7.97145C3.49254 7.98093 3.49268 7.99045 3.49268 8C3.49268 8.00955 3.49254 8.01907 3.49228 8.02855C3.50764 10.5047 5.51971 12.5073 7.99951 12.5073C8.5518 12.5073 9 12.955 9 13.5073V15C9 15.5523 8.55229 16 8 16C7.44772 16 7 15.5523 7 15V14.431C4.2066 14.0004 1.99937 11.7933 1.56855 9H1C0.447716 9 2.41411e-08 8.55228 0 8Z" fill="#3D75E4"/>
<path d="M8 10C9.10457 10 10 9.10457 10 8C10 6.89543 9.10457 6 8 6C6.89543 6 6 6.89543 6 8C6 9.10457 6.89543 10 8 10Z" fill="#3D75E4"/>
</svg>
