<svg width="16" height="16" viewBox="0 0 16 16" fill="none" xmlns="http://www.w3.org/2000/svg">
<path fill-rule="evenodd" clip-rule="evenodd" d="M3.76923 2C3.76923 0.895429 4.66466 0 5.76923 0H10.2308C11.3353 0 12.2308 0.89543 12.2308 2V3.76923L14 3.76923C15.1046 3.76923 16 4.66466 16 5.76923V8C16 8.55228 15.5523 9 15 9C14.4477 9 14 8.55228 14 8L14 5.76923H12.2308C11.1262 5.76923 10.2308 4.8738 10.2308 3.76923L10.2308 2L5.76923 2V3.76923C5.76923 4.8738 4.8738 5.76923 3.76923 5.76923H1.96334C1.84578 6.19075 1.45901 6.5 1 6.5C0.447715 6.5 0 6.05228 0 5.5C0 4.54412 0.774892 3.76923 1.73077 3.76923H3.76923V2ZM1 7C1.55228 7 2 7.44772 2 8V10.2308H3.76923C4.8738 10.2308 5.76923 11.1262 5.76923 12.2308V14L10.2308 14V12.2308C10.2308 11.1262 11.1262 10.2308 12.2308 10.2308H14.0367C14.1542 9.80925 14.541 9.5 15 9.5C15.5523 9.5 16 9.94771 16 10.5C16 11.4559 15.2251 12.2308 14.2692 12.2308H12.2308V14C12.2308 15.1046 11.3353 16 10.2308 16H5.76923C4.66466 16 3.76923 15.1046 3.76923 14V12.2308H2C0.895429 12.2308 0 11.3353 0 10.2308V8C0 7.44772 0.447715 7 1 7Z" fill="#3D75E4"/>
<path fill-rule="evenodd" clip-rule="evenodd" d="M8.01515 4.00012C8.45111 4.00672 8.83254 4.29503 8.95783 4.71265L9.76478 7.40249C9.9517 7.15156 10.248 7 10.5667 7H15C15.5523 7 16 7.44772 16 8C16 8.55229 15.5523 9 15 9H11.1667L10.3824 10.4706C10.1917 10.8281 9.80411 11.0352 9.40091 10.9951C8.99772 10.9549 8.6586 10.6754 8.54217 10.2873L7.94982 8.31283L7.44868 9.81623C7.32962 10.1734 7.02003 10.4334 6.64766 10.489C6.27528 10.5446 5.90324 10.3864 5.68504 10.0795L4.91738 9H1C0.447715 9 0 8.55229 0 8C0 7.44772 0.447715 7 1 7H5.43333C5.71571 7 5.98285 7.11923 6.17098 7.32479L7.05132 4.68377C7.1892 4.27014 7.57918 3.99351 8.01515 4.00012Z" fill="#3D75E4"/>
</svg>
