<svg width="16" height="16" viewBox="0 0 16 16" fill="none" xmlns="http://www.w3.org/2000/svg">
<path fill-rule="evenodd" clip-rule="evenodd" d="M1 15C0.447715 15 0 14.5523 0 14C0 13.4477 0.447715 13 1 13H15C15.5523 13 16 13.4477 16 14C16 14.5523 15.5523 15 15 15H1ZM16 8C16 8.55228 15.5523 9 15 9H1C0.447715 9 0 8.55228 0 8C0 7.44772 0.447715 7 1 7H15C15.5523 7 16 7.44772 16 8ZM16 2C16 2.55228 15.5523 3 15 3H1C0.447715 3 0 2.55228 0 2C0 1.44772 0.447715 1 1 1H15C15.5523 1 16 1.44772 16 2Z" fill="#3D75E4"/>
</svg>
