<svg width="16" height="16" viewBox="0 0 16 16" fill="none" xmlns="http://www.w3.org/2000/svg">
<path fill-rule="evenodd" clip-rule="evenodd" d="M8.25 2C7.83228 2 7.5 2.33228 7.5 2.75V8.25C7.5 8.66772 7.83228 9 8.25 9C8.66772 9 9 8.66772 9 8.25V2.75C9 2.33228 8.66772 2 8.25 2ZM5.5 2.75C5.5 1.22772 6.72772 0 8.25 0C9.77228 0 11 1.22772 11 2.75V8.25C11 9.77228 9.77228 11 8.25 11C6.72772 11 5.5 9.77228 5.5 8.25V2.75Z" fill="#3D75E4"/>
<path fill-rule="evenodd" clip-rule="evenodd" d="M4 6.8C4.55228 6.8 5 7.24772 5 7.8V8.35C5 10.1477 6.45228 11.6 8.25 11.6C10.0477 11.6 11.5 10.1477 11.5 8.35V7.8C11.5 7.24772 11.9477 6.8 12.5 6.8C13.0523 6.8 13.5 7.24772 13.5 7.8V8.35C13.5 11.2523 11.1523 13.6 8.25 13.6C5.34772 13.6 3 11.2523 3 8.35V7.8C3 7.24772 3.44772 6.8 4 6.8Z" fill="#3D75E4"/>
<path fill-rule="evenodd" clip-rule="evenodd" d="M8.25 11.6C8.80228 11.6 9.25 12.0477 9.25 12.6V14H10.65C11.2023 14 11.65 14.4477 11.65 15C11.65 15.5523 11.2023 16 10.65 16H5.85C5.29772 16 4.85 15.5523 4.85 15C4.85 14.4477 5.29772 14 5.85 14H7.25V12.6C7.25 12.0477 7.69772 11.6 8.25 11.6Z" fill="#3D75E4"/>
</svg>
