<svg width="16" height="16" viewBox="0 0 16 16" fill="none" xmlns="http://www.w3.org/2000/svg">
<path fill-rule="evenodd" clip-rule="evenodd" d="M6 0C4.34315 0 3 1.34315 3 3V10C3 11.6569 4.34315 13 6 13H13C14.6569 13 16 11.6569 16 10V3C16 1.34315 14.6569 0 13 0H6ZM5 3C5 2.44772 5.44772 2 6 2H13C13.5523 2 14 2.44772 14 3V10C14 10.5523 13.5523 11 13 11H6C5.44772 11 5 10.5523 5 10V3Z" fill="#3D75E4"/>
<path d="M0.199219 5.5C0.199219 6.05228 0.646934 6.5 1.19922 6.5C1.7515 6.5 2.19922 6.05228 2.19922 5.5C2.19922 4.94772 1.7515 4.5 1.19922 4.5C0.646934 4.5 0.199219 4.94772 0.199219 5.5Z" fill="#3D75E4"/>
<path d="M1.19922 9.69995C0.646934 9.69995 0.199219 9.25224 0.199219 8.69995C0.199219 8.14767 0.646934 7.69995 1.19922 7.69995C1.7515 7.69995 2.19922 8.14767 2.19922 8.69995C2.19922 9.25224 1.7515 9.69995 1.19922 9.69995Z" fill="#3D75E4"/>
<path d="M1.19922 12.8999C0.646934 12.8999 0.199219 12.4522 0.199219 11.8999C0.199219 11.3476 0.646934 10.8999 1.19922 10.8999C1.7515 10.8999 2.19922 11.3476 2.19922 11.8999C2.19922 12.4522 1.7515 12.8999 1.19922 12.8999Z" fill="#3D75E4"/>
<path d="M10.5996 16C10.0473 16 9.59961 15.5523 9.59961 15C9.59961 14.4477 10.0473 14 10.5996 14C11.1519 14 11.5996 14.4477 11.5996 15C11.5996 15.5523 11.1519 16 10.5996 16Z" fill="#3D75E4"/>
<path d="M6.40039 15C6.40039 15.5523 6.84811 16 7.40039 16C7.95267 16 8.40039 15.5523 8.40039 15C8.40039 14.4477 7.95267 14 7.40039 14C6.84811 14 6.40039 14.4477 6.40039 15Z" fill="#3D75E4"/>
<path d="M4.19922 16C3.64693 16 3.19922 15.5523 3.19922 15C3.19922 14.4477 3.64693 14 4.19922 14C4.7515 14 5.19922 14.4477 5.19922 15C5.19922 15.5523 4.7515 16 4.19922 16Z" fill="#3D75E4"/>
<path d="M0.199219 15C0.199219 15.5523 0.646934 16 1.19922 16C1.7515 16 2.19922 15.5523 2.19922 15C2.19922 14.4477 1.7515 14 1.19922 14C0.646934 14 0.199219 14.4477 0.199219 15Z" fill="#3D75E4"/>
</svg>
