<svg width="16" height="16" viewBox="0 0 16 16" fill="none" xmlns="http://www.w3.org/2000/svg">
<g clip-path="url(#clip0)">
<path fill-rule="evenodd" clip-rule="evenodd" d="M1 13.5C1 12.2333 1.9372 11 3.33333 11H6C6.55228 11 7 11.4477 7 12V13.5C7 14.7667 6.0628 16 4.66667 16H3.33333C1.9372 16 1 14.7667 1 13.5ZM3.13793 13.1037C3.06285 13.1882 3 13.3254 3 13.5C3 13.6746 3.06285 13.8118 3.13793 13.8963C3.21139 13.9789 3.28222 14 3.33333 14H4.66667C4.71778 14 4.78861 13.9789 4.86207 13.8963C4.93715 13.8118 5 13.6746 5 13.5V13H3.33333C3.28222 13 3.21139 13.0211 3.13793 13.1037Z" fill="#3D75E4"/>
<path fill-rule="evenodd" clip-rule="evenodd" d="M9 12.5C9 11.2333 9.93719 10 11.3333 10H14C14.5523 10 15 10.4477 15 11V12.5C15 13.7667 14.0628 15 12.6667 15H11.3333C9.93719 15 9 13.7667 9 12.5ZM11.1379 12.1037C11.0629 12.1882 11 12.3254 11 12.5C11 12.6746 11.0629 12.8118 11.1379 12.8963C11.2114 12.9789 11.2822 13 11.3333 13H12.6667C12.7178 13 12.7886 12.9789 12.8621 12.8963C12.9371 12.8118 13 12.6746 13 12.5V12H11.3333C11.2822 12 11.2114 12.0211 11.1379 12.1037Z" fill="#3D75E4"/>
<path fill-rule="evenodd" clip-rule="evenodd" d="M14.6413 0.232719C14.8686 0.422718 15 0.703737 15 1.00001V10.5574C15 11.1097 14.5523 11.5574 14 11.5574C13.4477 11.5574 13 11.1097 13 10.5574V2.19647L7 3.27843V12C7 12.5523 6.55228 13 6 13C5.44772 13 5 12.5523 5 12V2.44263C5 1.9588 5.34638 1.54437 5.82253 1.4585L13.8225 0.015881C14.1141 -0.0366968 14.414 0.0427199 14.6413 0.232719Z" fill="#3D75E4"/>
<path fill-rule="evenodd" clip-rule="evenodd" d="M12.4864 4.83561C12.5772 5.38038 12.2092 5.89561 11.6644 5.9864L2.6644 7.4864C2.11963 7.5772 1.6044 7.20918 1.51361 6.66441C1.42281 6.11964 1.79083 5.60441 2.3356 5.51361L11.3356 4.01361C11.8804 3.92282 12.3956 4.29084 12.4864 4.83561Z" fill="#3D75E4"/>
</g>
<defs>
<clipPath id="clip0">
<rect width="16" height="16" fill="white"/>
</clipPath>
</defs>
</svg>
