<svg width="16" height="16" viewBox="0 0 16 16" fill="none" xmlns="http://www.w3.org/2000/svg">
<path d="M3 3C2.44772 3 2 3.44772 2 4V12C2 12.5523 2.44772 13 3 13H8C8.55228 13 9 13.4477 9 14C9 14.5523 8.55228 15 8 15H3C1.34315 15 0 13.6569 0 12V4C0 2.34315 1.34315 1 3 1H5.94749C6.79369 1 7.60053 1.35737 8.16917 1.98403L8.53417 2.38628C8.72372 2.59516 8.99267 2.71429 9.27473 2.71429H13C14.6569 2.71429 16 4.05743 16 5.71429V8.85714C16 9.40943 15.5523 9.85714 15 9.85714C14.4477 9.85714 14 9.40943 14 8.85714V5.71429C14 5.162 13.5523 4.71429 13 4.71429H9.27473C8.42853 4.71429 7.62169 4.35692 7.05305 3.73026L6.68805 3.32801C6.49851 3.11912 6.22956 3 5.94749 3H3Z" fill="#3D75E4"/>
<path d="M12 9C12.5523 9 13 9.44771 13 10V11H14C14.5523 11 15 11.4477 15 12C15 12.5523 14.5523 13 14 13H13V14C13 14.5523 12.5523 15 12 15C11.4477 15 11 14.5523 11 14V13H10C9.44771 13 9 12.5523 9 12C9 11.4477 9.44771 11 10 11H11V10C11 9.44771 11.4477 9 12 9Z" fill="#3D75E4"/>
</svg>
