<svg width="17" height="16" viewBox="0 0 17 16" fill="none" xmlns="http://www.w3.org/2000/svg">
<path d="M10.7034 0.324315C10.4029 -0.00645715 9.92083 -0.094763 9.52429 0.108322C9.12776 0.311407 8.91384 0.756155 9.00105 1.19616C9.34584 2.93571 8.90918 4.05196 8.37818 4.57346C7.8875 5.05535 7.16159 5.19542 6.34611 4.68496C5.88101 4.39383 5.27008 4.53828 4.98156 5.0076C4.69304 5.47692 4.83619 6.09338 5.3013 6.38452C6.83064 7.34182 8.56836 7.17757 9.76058 6.00669C10.3102 5.46694 10.7035 4.75561 10.9175 3.92182C12.2281 6.11041 12.6994 8.33873 12.4593 10.1149C12.2989 11.302 11.8283 12.2601 11.1152 12.9186C10.4089 13.5709 9.38875 14 7.99055 14C6.59752 14 5.63859 13.5741 4.97604 12.9593C4.29926 12.3313 3.85201 11.4309 3.63464 10.3616C3.19148 8.18161 3.76292 5.59284 4.83291 4.08128C5.15103 3.63186 5.04788 3.00731 4.6025 2.68631C4.15713 2.3653 3.53819 2.46939 3.22006 2.9188C1.81251 4.90723 1.14518 8.06847 1.69304 10.7635C1.97117 12.1317 2.57688 13.4501 3.63437 14.4314C4.70611 15.426 6.16277 16 7.99055 16C9.81314 16 11.3325 15.4292 12.4534 14.394C13.5675 13.365 14.2119 11.9481 14.4232 10.3852C14.8431 7.27842 13.5815 3.49255 10.7034 0.324315Z" fill="#3D75E4"/>
<path d="M6.07028 11.8357C7.12386 13.8119 11.7943 11.9399 10.66 7.95734C10.6181 7.81002 10.4294 7.77165 10.3141 7.87142C9.82988 8.2904 9.21611 8.47052 8.63047 8.64239C8.24911 8.7543 7.87967 8.86272 7.56569 9.03131C6.23358 9.74657 5.51486 10.7939 6.07028 11.8357Z" fill="#3D75E4"/>
</svg>
