<svg width="16" height="16" viewBox="0 0 16 16" fill="none" xmlns="http://www.w3.org/2000/svg">
<path fill-rule="evenodd" clip-rule="evenodd" d="M9.35898 2.1358C9.44945 1.94276 9.5 1.72728 9.5 1.5C9.5 0.671573 8.82843 0 8 0C7.17157 0 6.5 0.671573 6.5 1.5C6.5 1.75588 6.56407 1.9968 6.67705 2.20759C4.57072 2.80946 2.9294 4.66369 2.9294 7.02703C2.9294 7.06086 2.93026 7.09468 2.93198 7.12847C2.93878 7.26237 2.92554 7.51591 2.86502 7.84949C2.80627 8.17329 2.71529 8.50429 2.60574 8.78658C2.55189 8.92534 2.50163 9.03149 2.46015 9.10907C1.67629 9.37977 1.11328 10.1241 1.11328 11C1.11328 12.1046 2.00871 13 3.11328 13H5C5 14.6569 6.34315 16 8 16C9.65685 16 11 14.6569 11 13H12.9996C14.0441 13 14.9128 12.1962 14.9936 11.1549C15.061 10.2878 14.5633 9.4991 13.7991 9.16632C13.7903 9.15286 13.7807 9.13732 13.7703 9.11955C13.6373 8.89075 13.3859 8.28241 13.3859 7.02703C13.3859 4.5602 11.5977 2.64805 9.35898 2.1358ZM8 14C7.44772 14 7 13.5523 7 13H9C9 13.5523 8.55228 14 8 14ZM3.11328 11H12.9996C12.7026 10.9536 11.9685 10.463 11.6017 9C11.4702 8.47546 11.3859 7.82592 11.3859 7.02703C11.3859 5.35525 9.94056 4 8.15765 4C6.37473 4 4.9294 5.35525 4.9294 7.02703C4.95633 7.55736 4.85165 8.30006 4.64388 9C4.33282 10.0479 3.7907 11 3.11328 11Z" fill="#3D75E4"/>
<path d="M3.85011 2.30006C4.29193 1.96869 4.38148 1.34189 4.05011 0.900059C3.71873 0.458231 3.09193 0.368688 2.65011 0.700059C0.806065 2.08309 0.120382 3.97559 0.00782742 4.87602C-0.0606751 5.42404 0.328051 5.92383 0.876071 5.99234C1.42409 6.06084 1.92388 5.67211 1.99238 5.12409C2.0465 4.6912 2.49415 3.31703 3.85011 2.30006Z" fill="#3D75E4"/>
<path d="M15.0543 6.38168C14.5059 6.44775 14.0079 6.0568 13.9418 5.50848C13.7391 3.8257 12.7729 2.75094 12.425 2.48763C11.9847 2.15429 11.8979 1.5271 12.2312 1.08675C12.5646 0.646402 13.1918 0.55965 13.6321 0.892985C14.3556 1.44068 15.6518 2.98075 15.9275 5.26925C15.9935 5.81757 15.6026 6.31562 15.0543 6.38168Z" fill="#3D75E4"/>
</svg>
