<svg width="16" height="16" viewBox="0 0 16 16" fill="none" xmlns="http://www.w3.org/2000/svg">
<path fill-rule="evenodd" clip-rule="evenodd" d="M6.50964 2.61733C7.33274 1.79422 8.66726 1.79422 9.49036 2.61733L13.3827 6.50964C14.2058 7.33274 14.2058 8.66726 13.3827 9.49036L9.49036 13.3827C8.66726 14.2058 7.33274 14.2058 6.50964 13.3827L2.61733 9.49036C1.79422 8.66726 1.79422 7.33274 2.61733 6.50964L6.50964 2.61733ZM10.9046 1.20312C9.30042 -0.401037 6.69958 -0.401039 5.09543 1.20311L1.20312 5.09542C-0.401037 6.69958 -0.401039 9.30042 1.20311 10.9046L5.09542 14.7969C6.69958 16.401 9.30042 16.401 10.9046 14.7969L14.7969 10.9046C16.401 9.30042 16.401 6.69958 14.7969 5.09543L10.9046 1.20312ZM5 9C5.55228 9 6 8.55229 6 8C6 7.44772 5.55228 7 5 7C4.44772 7 4 7.44772 4 8C4 8.55229 4.44772 9 5 9ZM9 8C9 8.55229 8.55229 9 8 9C7.44772 9 7 8.55229 7 8C7 7.44772 7.44772 7 8 7C8.55229 7 9 7.44772 9 8ZM11 9C11.5523 9 12 8.55229 12 8C12 7.44772 11.5523 7 11 7C10.4477 7 10 7.44772 10 8C10 8.55229 10.4477 9 11 9Z" fill="#3D75E4"/>
</svg>
