<svg width="16" height="16" viewBox="0 0 16 16" fill="none" xmlns="http://www.w3.org/2000/svg">
<path fill-rule="evenodd" clip-rule="evenodd" d="M11.5545 6H0.888807C0.399963 6 0 5.55 0 5C0 4.45 0.399963 4 0.888807 4H11.5545C12.0433 4 12.4433 4.45 12.4433 5C12.4433 5.55 12.0433 6 11.5545 6ZM11.5545 9.55562H0.888807C0.399963 9.55562 0 9.10562 0 8.55562C0 8.00562 0.399963 7.55562 0.888807 7.55562H11.5545C12.0433 7.55562 12.4433 8.00562 12.4433 8.55562C12.4433 9.10562 12.0433 9.55562 11.5545 9.55562ZM0.888807 13.1107H11.5545C12.0433 13.1107 12.4433 12.6607 12.4433 12.1107C12.4433 11.5607 12.0433 11.1107 11.5545 11.1107H0.888807C0.399963 11.1107 0 11.5607 0 12.1107C0 12.6607 0.399963 13.1107 0.888807 13.1107ZM16 12.1106C16 12.6629 15.5523 13.1106 15 13.1106C14.4477 13.1106 14 12.6629 14 12.1106C14 11.5583 14.4477 11.1106 15 11.1106C15.5523 11.1106 16 11.5583 16 12.1106ZM15 4C14.4477 4 14 4.44772 14 5C14 5.55228 14.4477 6 15 6C15.5523 6 16 5.55228 16 5C16 4.44772 15.5523 4 15 4ZM16 8.55542C16 9.1077 15.5523 9.55542 15 9.55542C14.4477 9.55542 14 9.1077 14 8.55542C14 8.00314 14.4477 7.55542 15 7.55542C15.5523 7.55542 16 8.00314 16 8.55542Z" fill="#3D75E4"/>
</svg>
