<svg width="17" height="16" viewBox="0 0 17 16" fill="none" xmlns="http://www.w3.org/2000/svg">
<path d="M12.4803 0.291596C12.2708 0.0821102 11.9789 -0.0231947 11.6839 0.00430231C11.3889 0.0317994 11.1215 0.189241 10.9543 0.433837L7.69935 5.1963C7.04917 5.04923 6.37063 5.0414 5.73581 5.14552C4.83682 5.29297 3.93395 5.68065 3.27898 6.33556C2.89021 6.72431 2.89015 7.35457 3.27887 7.74338L5.56174 10.0268L1.28771 14.3005C0.898889 14.6893 0.898889 15.3196 1.28771 15.7084C1.67653 16.0972 2.30693 16.0972 2.69575 15.7084L7.67393 10.7306C8.06275 10.3419 8.06275 9.7115 7.67393 9.32271C7.66772 9.3165 7.66145 9.31039 7.65511 9.30438L5.5784 7.22715C5.72854 7.17772 5.88916 7.13808 6.05813 7.11037C6.64224 7.01457 7.23504 7.07701 7.70173 7.28221C8.14036 7.47507 8.65416 7.32817 8.92452 6.93259L11.9211 2.54822L14.4186 5.04553L9.93476 7.89725C9.51998 8.16105 9.35982 8.68806 9.5577 9.13802C9.77323 9.62813 9.86731 10.2819 9.80016 10.916C9.78303 11.0778 9.75647 11.2296 9.72219 11.3703L9.6652 11.3133C9.27638 10.9245 8.64598 10.9245 8.25716 11.3133C7.86834 11.7021 7.86834 12.3325 8.25716 12.7213L9.2528 13.7168C9.64162 14.1056 10.272 14.1056 10.6608 13.7168C11.3512 13.0265 11.683 12.0452 11.7804 11.1257C11.8485 10.4821 11.8098 9.8015 11.6562 9.16216L16.5348 6.05937C16.7896 5.89728 16.9571 5.62828 16.9901 5.32808C17.0231 5.02788 16.918 4.72893 16.7045 4.51537L12.4803 0.291596Z" fill="#3D75E4"/>
</svg>
