<svg width="16" height="16" viewBox="0 0 16 16" fill="none" xmlns="http://www.w3.org/2000/svg">
<path fill-rule="evenodd" clip-rule="evenodd" d="M4.01899 5.59823C3.73123 5.43018 3.46829 5.23726 3.24214 5.01822C2.79033 4.5806 2.4375 3.98583 2.4375 3.26674C2.4375 2.05466 3.39921 1.23021 4.32873 0.768365C5.31986 0.275902 6.61906 0 7.99955 0C9.38004 0 10.6792 0.275902 11.6704 0.768365C12.5999 1.23021 13.5616 2.05466 13.5616 3.26674C13.5616 3.98583 13.2088 4.5806 12.757 5.01822C12.5311 5.23702 12.2684 5.42976 11.981 5.59768C11.8979 6.90163 11.5443 8.10771 10.9788 9.05017C10.3398 10.1152 9.31769 11.0001 8 11.0001C6.68231 11.0001 5.66021 10.1152 5.02119 9.05017C4.45579 8.10784 4.10218 6.90197 4.01899 5.59823ZM4.4375 3.26674C4.4375 3.22693 4.49704 2.91801 5.21866 2.55946C5.87866 2.23152 6.86049 2 7.99955 2C9.13861 2 10.1204 2.23152 10.7804 2.55946C11.5021 2.91801 11.5616 3.22693 11.5616 3.26674C11.5616 3.29194 11.5534 3.39959 11.3655 3.58162C11.2467 3.69666 11.0764 3.81932 10.8518 3.93755C10.6613 3.89456 10.4124 3.84105 10.1326 3.78745C9.51976 3.67007 8.69232 3.53906 8 3.53906C7.30768 3.53906 6.48024 3.67007 5.86739 3.78745C5.58724 3.84111 5.33817 3.89467 5.1476 3.93769C4.92288 3.81942 4.75242 3.6967 4.63361 3.58162C4.44567 3.39959 4.4375 3.29194 4.4375 3.26674ZM6.73617 8.02118C6.39762 7.45693 6.13998 6.68595 6.04249 5.79136C6.10716 5.77828 6.17437 5.76501 6.24361 5.75175C6.83443 5.63859 7.50699 5.53906 8 5.53906C8.49301 5.53906 9.16557 5.63859 9.75639 5.75175C9.82563 5.76501 9.89284 5.77828 9.9575 5.79136C9.86002 6.68595 9.60238 7.45693 9.26383 8.02118C8.81707 8.76578 8.33917 9.00014 8 9.00014C7.66083 9.00014 7.18293 8.76578 6.73617 8.02118Z" fill="#3D75E4"/>
<path fill-rule="evenodd" clip-rule="evenodd" d="M4.44707 10.1057C4.17531 9.9701 3.84534 9.95952 3.55279 10.1058L1.55279 11.1058C1.31558 11.2244 1.13519 11.4324 1.05132 11.684L0.051324 14.684C-0.0503253 14.9889 0.000813857 15.3242 0.188765 15.5849C0.376716 15.8457 0.678564 16.0002 1.00001 16.0002H15C15.3215 16.0002 15.6233 15.8457 15.8112 15.5849C15.9992 15.3242 16.0503 14.9889 15.9487 14.684L14.9487 11.684C14.8648 11.4324 14.6844 11.2244 14.4472 11.1058L12.4472 10.1058C12.1546 9.9595 11.8246 9.9701 11.5528 10.1057L8.44716 11.6583C8.16563 11.799 7.83426 11.799 7.55273 11.6583L4.44707 10.1057ZM11.9997 12.1181L9.34159 13.4471C8.49701 13.8694 7.50289 13.8694 6.65831 13.4471L4.0003 12.1181L2.8177 12.7094L2.38743 14.0002H13.6126L13.1823 12.7094L11.9997 12.1181Z" fill="#3D75E4"/>
</svg>
