<svg width="16" height="16" viewBox="0 0 16 16" fill="none" xmlns="http://www.w3.org/2000/svg">
<path fill-rule="evenodd" clip-rule="evenodd" d="M3 2C3 0.895432 3.89543 0 5 0H11C12.1046 0 13 0.895432 13 2V4H14C15.1046 4 16 4.89543 16 6V12C16 12.5523 15.5523 13 15 13C14.4477 13 14 12.5523 14 12V6H2V12C2 12.5523 1.55228 13 1 13C0.447716 13 0 12.5523 0 12V6C0 4.89543 0.895432 4 2 4H3V2ZM11 2V4H5V2H11Z" fill="#3D75E4"/>
<path fill-rule="evenodd" clip-rule="evenodd" d="M4 10C3.44772 10 3 10.4477 3 11V15C3 15.5523 3.44772 16 4 16H12C12.5523 16 13 15.5523 13 15V11C13 10.4477 12.5523 10 12 10H4ZM11 14H5V12H11V14Z" fill="#3D75E4"/>
<path d="M12 9C12.5523 9 13 8.55228 13 8C13 7.44772 12.5523 7 12 7C11.4477 7 11 7.44772 11 8C11 8.55228 11.4477 9 12 9Z" fill="#3D75E4"/>
</svg>
