<svg width="16" height="16" viewBox="0 0 16 16" fill="none" xmlns="http://www.w3.org/2000/svg">
<path fill-rule="evenodd" clip-rule="evenodd" d="M11.6805 6.26721C12.0852 6.64301 12.1086 7.27574 11.7328 7.68045L8.01851 11.6805C7.8293 11.8842 7.56378 12 7.28572 12C7.00765 12 6.74213 11.8842 6.55292 11.6805L4.26721 9.21891C3.8914 8.8142 3.91484 8.18147 4.31955 7.80567C4.72426 7.42987 5.35699 7.4533 5.73279 7.85801L7.28572 9.53039L10.2672 6.31955C10.643 5.91484 11.2757 5.8914 11.6805 6.26721Z" fill="#3D75E4"/>
<path fill-rule="evenodd" clip-rule="evenodd" d="M1 3C1 1.89543 1.89543 1 3 1C3.55228 1 4 1.44772 4 2C4 2.55228 3.55228 3 3 3V14H13V3C12.4477 3 12 2.55228 12 2C12 1.44772 12.4477 1 13 1C14.1046 1 15 1.89543 15 3V14C15 15.1046 14.1046 16 13 16H3C1.89543 16 1 15.1046 1 14V3Z" fill="#3D75E4"/>
<path d="M5 2C5 0.895431 5.89543 0 7 0H9C10.1046 0 11 0.895431 11 2C11 2.55228 10.5523 3 10 3H6C5.44772 3 5 2.55228 5 2Z" fill="#3D75E4"/>
</svg>
