<svg width="16" height="16" viewBox="0 0 16 16" fill="none" xmlns="http://www.w3.org/2000/svg">
<path d="M8.99988 3C8.99988 2.64441 9.45169 2 10.4999 2C11.5481 2 11.9999 2.64441 11.9999 3C11.9999 3.55228 12.4476 4 12.9999 4C13.5522 4 13.9999 3.55228 13.9999 3C13.9999 1.14645 12.2131 0 10.4999 0C9.59593 0 8.67151 0.319159 7.99988 0.892943C7.32824 0.319159 6.40382 0 5.49988 0C3.78665 0 1.99988 1.14645 1.99988 3C1.99988 3.55228 2.44759 4 2.99988 4C3.55216 4 3.99988 3.55228 3.99988 3C3.99988 2.64441 4.45169 2 5.49988 2C6.54807 2 6.99988 2.64441 6.99988 3C6.99988 3.55228 7.44759 4 7.99988 4C8.55216 4 8.99988 3.55228 8.99988 3Z" fill="#3D75E4"/>
<path fill-rule="evenodd" clip-rule="evenodd" d="M8.99988 9.89446C10.7335 9.52264 12.1224 8.2057 12.8564 6.54074C13.1841 5.79742 12.6253 5 11.8507 5H4.14907C3.3745 5 2.81563 5.79742 3.14332 6.54074C3.87731 8.2057 5.2663 9.52264 6.99988 9.89446V11H2.53721C1.57308 11 0.803442 12.1294 1.51234 13.0514C2.90652 14.8645 5.32618 16 7.99996 16C10.6737 16 13.0934 14.8645 14.4876 13.0514C15.1965 12.1294 14.4268 11 13.4627 11H8.99988V9.89446ZM5.80732 7C6.42671 7.64489 7.20387 8 7.99988 8C8.79588 8 9.57304 7.64489 10.1924 7H5.80732ZM4.39605 13C5.36389 13.6152 6.61038 14 7.99996 14C9.38953 14 10.636 13.6152 11.6039 13H4.39605Z" fill="#3D75E4"/>
</svg>
