<svg width="16" height="16" viewBox="0 0 16 16" fill="none" xmlns="http://www.w3.org/2000/svg">
<path d="M9 3.5C9 1.567 10.567 0 12.5 0C14.433 0 16 1.567 16 3.5V15C16 15.5523 15.5523 16 15 16C14.4477 16 14 15.5523 14 15V3.5C14 2.67157 13.3284 2 12.5 2C11.6716 2 11 2.67157 11 3.5V4.26758C11.5978 4.61339 12 5.25972 12 6C12 6.55228 11.5523 7 11 7H9C8.44771 7 8 6.55228 8 6C8 5.25972 8.40222 4.61339 9 4.26758V3.5Z" fill="#3D75E4"/>
<path fill-rule="evenodd" clip-rule="evenodd" d="M2 16C2.55228 16 3 15.5523 3 15H8C8 15.5523 8.44771 16 9 16C9.55229 16 10 15.5523 10 15C10.5523 15 11 14.5523 11 14C11 13.4477 10.5523 13 10 13V11C10 10.4477 9.55228 10 9 10H7.86804L7.21672 8.69736C7.49193 8.41457 7.57535 7.99579 7.42848 7.62861L6.67338 5.74084L6.70711 5.70711C7.01147 5.40275 7.08693 4.93778 6.89443 4.55279L4.89443 0.552786C4.72504 0.214002 4.37878 0 4 0C3.62123 0 3.27497 0.214002 3.10558 0.552786L1.10558 4.55279C0.913083 4.93778 0.988538 5.40275 1.2929 5.70711L1.32663 5.74084L0.571528 7.62861C0.448292 7.9367 0.485907 8.28586 0.671937 8.56063C0.857967 8.8354 1.16818 9 1.5 9H2.5C3.05229 9 3.5 8.55228 3.5 8C3.5 7.60439 3.27027 7.26243 2.93694 7.10025L3.42848 5.87139C3.57535 5.50421 3.49193 5.08543 3.21672 4.80263L4 3.23607L4.78329 4.80263C4.50808 5.08543 4.42466 5.50421 4.57153 5.87139L5.32663 7.75916L5.2929 7.79289C4.98854 8.09725 4.91308 8.56223 5.10558 8.94721L5.63197 10H2C1.44772 10 1 10.4477 1 11V13C0.447715 13 0 13.4477 0 14C0 14.5523 0.447715 15 1 15C1 15.5523 1.44772 16 2 16ZM8 13V12H3V13H8Z" fill="#3D75E4"/>
</svg>
