<svg width="16" height="16" viewBox="0 0 16 16" fill="none" xmlns="http://www.w3.org/2000/svg">
<g clip-path="url(#clip0)">
<path d="M6.1165 15.6435C6.47186 16.0662 7.10267 16.1209 7.52544 15.7655C7.94821 15.4102 8.00285 14.7793 7.64748 14.3566L2.3044 8.00002L7.64748 1.64347C8.00285 1.2207 7.94821 0.589896 7.52544 0.234531C7.10267 -0.120835 6.47186 -0.0661912 6.1165 0.356578L0.232555 7.35658C-0.0801224 7.72856 -0.0801225 8.27148 0.232555 8.64347L6.1165 15.6435Z" fill="#3D75E4"/>
<path d="M14.2356 15.6435C14.591 16.0662 15.2218 16.1209 15.6446 15.7655C16.0673 15.4102 16.122 14.7793 15.7666 14.3566L10.4235 8.00002L15.7666 1.64347C16.122 1.2207 16.0673 0.589896 15.6446 0.234531C15.2218 -0.120834 14.591 -0.0661924 14.2356 0.356578L8.3517 7.35658C8.03902 7.72856 8.03902 8.27148 8.3517 8.64347L14.2356 15.6435Z" fill="#3D75E4"/>
</g>
<defs>
<clipPath id="clip0">
<rect width="16" height="16" fill="white"/>
</clipPath>
</defs>
</svg>
