<svg width="12" height="16" viewBox="0 0 12 16" fill="none" xmlns="http://www.w3.org/2000/svg">
<path d="M0.576352 4.68688C-0.192117 5.46841 -0.192117 6.73552 0.576351 7.51705L5.01611 12.0323V13.9988H4.03249C3.4891 13.9988 3.0486 14.4468 3.0486 14.9994C3.0486 15.5521 3.4891 16.0001 4.03249 16.0001H7.96807C8.51146 16.0001 8.95196 15.5521 8.95196 14.9994C8.95196 14.4468 8.51146 13.9988 7.96807 13.9988H6.98389L6.98389 11.6178C6.98389 11.3524 6.88023 11.0979 6.69572 10.9102L1.96779 6.10197L6 2.00123L10.0322 6.10197L7.33815 8.84181C6.95392 9.23258 6.95392 9.86613 7.33815 10.2569C7.72238 10.6477 8.34535 10.6477 8.72959 10.2569L11.4236 7.51705C12.1921 6.73552 12.1921 5.46841 11.4236 4.68688L7.39144 0.586146C6.62297 -0.195382 5.37703 -0.195382 4.60856 0.586146L0.576352 4.68688Z" fill="#3D75E4"/>
</svg>
