<svg width="16" height="16" viewBox="0 0 16 16" fill="none" xmlns="http://www.w3.org/2000/svg">
<path fill-rule="evenodd" clip-rule="evenodd" d="M7.22198 6.84996C5.65988 5.28294 5.65988 2.74229 7.22198 1.17527C8.78408 -0.391756 11.3167 -0.391756 12.8788 1.17527C14.1967 2.49726 14.4027 4.51221 13.497 6.05091L15.7076 8.26841C16.0981 8.66017 16.0981 9.29533 15.7076 9.68709C15.317 10.0788 14.6839 10.0788 14.2933 9.68709L12.083 7.46972C10.549 8.37873 8.54001 8.17215 7.22198 6.84996ZM8.6362 2.59394C7.85515 3.37745 7.85515 4.64778 8.6362 5.43129C9.41724 6.2148 10.6836 6.2148 11.4646 5.43129C12.2457 4.64778 12.2457 3.37745 11.4646 2.59394C10.6836 1.81043 9.41724 1.81043 8.6362 2.59394Z" fill="#3D75E4"/>
<path d="M5.85595 7.54284C6.31818 7.84606 6.44787 8.46775 6.14561 8.93144L1.83706 15.5411C1.5348 16.0048 0.915059 16.1349 0.452827 15.8317C-0.00940445 15.5285 -0.139089 14.9068 0.16317 14.4431L4.47172 7.83341C4.77398 7.36972 5.39372 7.23963 5.85595 7.54284Z" fill="#3D75E4"/>
<path d="M10.7393 8.70741C10.2826 9.01896 10.1642 9.64291 10.4748 10.101L14.173 15.5563C14.4836 16.0144 15.1056 16.1332 15.5622 15.8217C16.0189 15.5101 16.1374 14.8862 15.8268 14.4281L12.1286 8.9728C11.818 8.51468 11.196 8.39585 10.7393 8.70741Z" fill="#3D75E4"/>
<path d="M9 9.76949C9 9.21546 8.55228 8.76633 8 8.76633C7.44772 8.76633 7 9.21546 7 9.76949V11.0751C7 11.6291 7.44772 12.0783 8 12.0783C8.55228 12.0783 9 11.6291 9 11.0751V9.76949Z" fill="#3D75E4"/>
<path d="M9 13.6863C9 13.1323 8.55228 12.6832 8 12.6832C7.44772 12.6832 7 13.1323 7 13.6863V14.9919C7 15.546 7.44772 15.9951 8 15.9951C8.55228 15.9951 9 15.546 9 14.9919V13.6863Z" fill="#3D75E4"/>
</svg>
