<svg width="16" height="16" viewBox="0 0 16 16" fill="none" xmlns="http://www.w3.org/2000/svg">
<path d="M4 11C4 10.4477 4.44772 10 5 10H11C11.5523 10 12 10.4477 12 11C12 11.5523 11.5523 12 11 12H5C4.44772 12 4 11.5523 4 11Z" fill="#3D75E4"/>
<path fill-rule="evenodd" clip-rule="evenodd" d="M2 0C0.89543 0 0 0.895431 0 2V14C0 15.1046 0.89543 16 2 16H14C15.1046 16 16 15.1046 16 14V2C16 0.89543 15.1046 0 14 0H7C6.44772 0 6 0.447715 6 1C6 1.55228 6.44772 2 7 2H11V7H5V1C5 0.447715 4.55228 0 4 0H2ZM3 2H2V14H14V2H13V8C13 8.55228 12.5523 9 12 9H4C3.44772 9 3 8.55228 3 8V2Z" fill="#3D75E4"/>
<path d="M8 5C8 5.55228 8.44771 6 9 6C9.55229 6 10 5.55228 10 5V4C10 3.44772 9.55228 3 9 3C8.44771 3 8 3.44772 8 4V5Z" fill="#3D75E4"/>
</svg>
