<svg width="16" height="16" viewBox="0 0 16 16" fill="none" xmlns="http://www.w3.org/2000/svg">
<g clip-path="url(#clip0)">
<path fill-rule="evenodd" clip-rule="evenodd" d="M6.99214 2.34345C6.8166 2.44709 6.62523 2.57319 6.39835 2.72409C6.39024 2.72948 6.3821 2.7349 6.37391 2.74034C5.93956 3.02928 5.39842 3.38925 4.74511 3.66035C4.35169 3.82361 4.02704 4.04445 3.83009 4.27295C3.64757 4.48471 3.60522 4.65834 3.63217 4.82757C3.87526 6.35399 4.46288 8.24779 5.33455 10.0009C5.81971 10.9766 6.3783 11.8794 6.99207 12.6427L6.99214 2.34345ZM7.98578 16C8.23038 16.0032 8.47308 15.9169 8.6621 15.7497C11.8858 13.4002 14.0135 9.04881 14.4263 5.09476C14.5176 4.22041 14.1681 3.49004 13.6905 2.9546C13.2239 2.43166 12.6079 2.05645 12.0214 1.81311C11.7615 1.70527 11.5161 1.57215 11.2682 1.42048C10.7971 1.13227 10.1815 1.28054 9.89328 1.75166C9.60506 2.22277 9.75333 2.83833 10.2244 3.12655C10.5279 3.31219 10.8689 3.50023 11.2549 3.66039C11.6496 3.82418 11.9855 4.04778 12.198 4.286C12.3994 4.51173 12.4561 4.70488 12.4371 4.88708C12.1439 7.69501 10.8637 10.679 8.99207 12.7596L8.99214 2.00657C8.99215 1.45942 8.76464 0.923715 8.35026 0.564496C7.90989 0.18275 7.26631 0.0205509 6.6273 0.289057C6.1396 0.493985 5.69646 0.788842 5.32456 1.03629C5.31324 1.04383 5.30197 1.05132 5.29078 1.05877C4.83567 1.36145 4.43915 1.62196 3.97857 1.81308C3.39082 2.05697 2.77332 2.43566 2.31518 2.96717C1.84262 3.51542 1.51694 4.26228 1.65706 5.14212C1.93358 6.87844 2.58627 8.96573 3.54371 10.8913C4.47746 12.7693 5.74693 14.5858 7.32949 15.749C7.39079 15.8033 7.4593 15.8504 7.53404 15.8889C7.67646 15.9623 7.83132 15.999 7.98578 16Z" fill="#3D75E4"/>
</g>
<defs>
<clipPath id="clip0">
<rect width="16" height="16" fill="white"/>
</clipPath>
</defs>
</svg>
