<svg width="16" height="16" viewBox="0 0 16 16" fill="none" xmlns="http://www.w3.org/2000/svg">
<g clip-path="url(#clip0)">
<path d="M15.6939 4.2806C16.0912 4.66421 16.1023 5.29728 15.7187 5.6946L9.67944 11.9495C8.89311 12.7639 7.58817 12.7639 6.80184 11.9495L4.14193 9.1946C3.75831 8.79728 3.76942 8.16421 4.16673 7.7806C4.56405 7.39699 5.19712 7.40809 5.58073 7.80541L8.24064 10.5603L14.2799 4.30541C14.6635 3.90809 15.2965 3.89699 15.6939 4.2806Z" fill="#3D75E4"/>
<path d="M10.8662 4.2806C11.2635 4.66421 11.2746 5.29728 10.891 5.6946L8.47721 8.1946C8.0936 8.59191 7.46053 8.60302 7.06322 8.2194C6.6659 7.83579 6.6548 7.20272 7.03841 6.80541L9.45221 4.30541C9.83582 3.90809 10.4689 3.89699 10.8662 4.2806Z" fill="#3D75E4"/>
<path d="M1.7194 7.80541C1.33579 7.40809 0.702721 7.39699 0.305406 7.7806C-0.091908 8.16421 -0.103014 8.79728 0.280599 9.1946L3.65991 12.6946C4.04352 13.0919 4.67659 13.103 5.07391 12.7194C5.47122 12.3358 5.48233 11.7027 5.09871 11.3054L1.7194 7.80541Z" fill="#3D75E4"/>
</g>
<defs>
<clipPath id="clip0">
<rect width="16" height="16" fill="white"/>
</clipPath>
</defs>
</svg>
