<svg width="16" height="16" viewBox="0 0 16 16" fill="none" xmlns="http://www.w3.org/2000/svg">
<path fill-rule="evenodd" clip-rule="evenodd" d="M6.88593 14.3994L6.66696 14.7781C6.33518 15.3521 5.60037 15.5487 5.02571 15.2174L2.94468 14.0174C2.37002 13.686 2.17313 12.9521 2.50491 12.3781L2.72343 12.0001C2.49286 11.7184 2.28195 11.4145 2.09389 11.0892C1.91213 10.7747 1.75836 10.4518 1.63183 10.1233H1.20148C0.537921 10.1233 0 9.58606 0 8.92332V6.52332C0 5.86058 0.537921 5.32332 1.20148 5.32332H1.60691C1.86636 4.62386 2.24119 3.96481 2.723 3.37748L2.50491 3.0002C2.17313 2.42625 2.37002 1.69234 2.94468 1.36097L5.02571 0.16097C5.60037 -0.170401 6.33518 0.0262492 6.66696 0.6002L6.88505 0.977478C7.63523 0.854394 8.3941 0.859705 9.13033 0.985025L9.33304 0.634349C9.66482 0.0603973 10.3996 -0.136253 10.9743 0.195118L13.0553 1.39512C13.63 1.72649 13.8269 2.4604 13.4951 3.03435L13.2799 3.40658C13.5015 3.68028 13.7046 3.97473 13.8864 4.28917C14.0744 4.6145 14.2325 4.9489 14.3615 5.28917H14.7985C15.4621 5.28917 16 5.82643 16 6.48917V8.88917C16 9.55192 15.4621 10.0892 14.7985 10.0892H14.3606C14.1017 10.7759 13.7312 11.4231 13.2573 12.0009L13.4753 12.3781C13.8071 12.9521 13.6102 13.686 13.0356 14.0174L10.9546 15.2174C10.3799 15.5487 9.64508 15.3521 9.3133 14.7781L9.09521 14.4009C8.35725 14.5219 7.61088 14.5188 6.88593 14.3994ZM11.2567 3.63823L11.6875 2.89302C11.7981 2.7017 11.7325 2.45707 11.5409 2.34661L10.8472 1.94661C10.6557 1.83615 10.4107 1.9017 10.3002 2.09302L9.86876 2.8393C8.68629 2.38323 7.34651 2.35971 6.11121 2.83881L5.6801 2.09302C5.56951 1.9017 5.32457 1.83615 5.13302 1.94661L4.43934 2.34661C4.24779 2.45707 4.18216 2.7017 4.29275 2.89302L4.72386 3.63881C3.69079 4.46773 3.04129 5.63835 2.84552 6.88917H1.98273C1.76154 6.88917 1.58223 7.06826 1.58223 7.28917V8.08917C1.58223 8.31009 1.76154 8.48917 1.98273 8.48917H2.84428C2.94028 9.1061 3.14993 9.71604 3.48124 10.2892C3.81255 10.8623 4.2366 11.3486 4.72353 11.7401L4.29275 12.4853C4.18216 12.6766 4.24779 12.9213 4.43934 13.0317L5.13302 13.4317C5.32457 13.5422 5.56951 13.4766 5.6801 13.2853L6.1115 12.5391C7.29397 12.9951 8.63375 13.0186 9.86905 12.5395L10.3002 13.2853C10.4107 13.4766 10.6557 13.5422 10.8472 13.4317L11.5409 13.0317C11.7325 12.9213 11.7981 12.6766 11.6875 12.4853L11.2564 11.7395C12.2895 10.9106 12.939 9.74 13.1347 8.48917H13.9975C14.2187 8.48917 14.398 8.31009 14.398 8.08917V7.28917C14.398 7.06826 14.2187 6.88917 13.9975 6.88917H13.136C13.04 6.27225 12.8303 5.66231 12.499 5.08917C12.1677 4.51604 11.7437 4.02973 11.2567 3.63823ZM9.59973 10.4605C8.06945 11.3441 6.11269 10.8197 5.22918 9.28917C4.34567 7.75864 4.86999 5.80155 6.40027 4.91789C7.93055 4.03424 9.88731 4.55864 10.7708 6.08917C11.6543 7.61971 11.13 9.5768 9.59973 10.4605ZM8.79987 9.07481C9.56501 8.63299 9.82716 7.65444 9.38541 6.88917C8.94366 6.12391 7.96527 5.8617 7.20013 6.30353C6.43499 6.74536 6.17284 7.72391 6.61459 8.48917C7.05634 9.25444 8.03473 9.51664 8.79987 9.07481Z" fill="#3D75E4"/>
</svg>
