<svg width="16" height="16" viewBox="0 0 16 16" fill="none" xmlns="http://www.w3.org/2000/svg">
<path fill-rule="evenodd" clip-rule="evenodd" d="M3.5 7C2.67157 7 2 7.67157 2 8.5C2 9.32843 2.67157 10 3.5 10C4.32843 10 5 9.32843 5 8.5C5 7.67157 4.32843 7 3.5 7ZM0 8.5C0 6.567 1.567 5 3.5 5C5.433 5 7 6.567 7 8.5C7 10.433 5.433 12 3.5 12C1.567 12 0 10.433 0 8.5Z" fill="#3D75E4"/>
<path fill-rule="evenodd" clip-rule="evenodd" d="M12.5 2C11.6716 2 11 2.67157 11 3.5C11 4.32843 11.6716 5 12.5 5C13.3284 5 14 4.32843 14 3.5C14 2.67157 13.3284 2 12.5 2ZM9 3.5C9 1.567 10.567 0 12.5 0C14.433 0 16 1.567 16 3.5C16 5.433 14.433 7 12.5 7C10.567 7 9 5.433 9 3.5Z" fill="#3D75E4"/>
<path fill-rule="evenodd" clip-rule="evenodd" d="M12.5 11C11.6716 11 11 11.6716 11 12.5C11 13.3284 11.6716 14 12.5 14C13.3284 14 14 13.3284 14 12.5C14 11.6716 13.3284 11 12.5 11ZM9 12.5C9 10.567 10.567 9 12.5 9C14.433 9 16 10.567 16 12.5C16 14.433 14.433 16 12.5 16C10.567 16 9 14.433 9 12.5Z" fill="#3D75E4"/>
<path fill-rule="evenodd" clip-rule="evenodd" d="M8.89443 5.05279C9.14142 5.54677 8.94119 6.14744 8.44721 6.39443L6.44721 7.39443C5.95324 7.64142 5.35256 7.44119 5.10557 6.94721C4.85858 6.45324 5.05881 5.85256 5.55279 5.60557L7.55279 4.60557C8.04677 4.35858 8.64744 4.55881 8.89443 5.05279Z" fill="#3D75E4"/>
<path fill-rule="evenodd" clip-rule="evenodd" d="M7.10557 10.0528C7.35256 9.55881 7.95324 9.35858 8.44721 9.60557L10.4472 10.6056C10.9412 10.8526 11.1414 11.4532 10.8944 11.9472C10.6474 12.4412 10.0468 12.6414 9.55279 12.3944L7.55279 11.3944C7.05881 11.1474 6.85858 10.5468 7.10557 10.0528Z" fill="#3D75E4"/>
</svg>
