<svg width="16" height="16" viewBox="0 0 16 16" fill="none" xmlns="http://www.w3.org/2000/svg">
<path fill-rule="evenodd" clip-rule="evenodd" d="M8 15C7.44772 15 7 14.5523 7 14C7 13.4477 7.44772 13 8 13H14C14.5523 13 15 13.4477 15 14C15 14.5523 14.5523 15 14 15H8ZM15 8C15 8.55228 14.5523 9 14 9H5C4.44772 9 4 8.55228 4 8C4 7.44772 4.44772 7 5 7H14C14.5523 7 15 7.44772 15 8ZM15 2C15 2.55228 14.5523 3 14 3H2C1.44772 3 1 2.55228 1 2C1 1.44772 1.44772 1 2 1H14C14.5523 1 15 1.44772 15 2Z" fill="#3D75E4"/>
</svg>
