<svg width="16" height="16" viewBox="0 0 16 16" fill="none" xmlns="http://www.w3.org/2000/svg">
<path d="M9.33471 3.65354C10.1286 3.87668 11.1212 2.79034 11.3751 1.85337C11.5986 1.0284 11.1248 0.310714 10.3309 0.087582C9.53695 -0.13555 8.79916 0.0358869 8.5453 0.972862C8.29144 1.90984 8.54079 3.43041 9.33471 3.65354Z" fill="#3D75E4"/>
<path d="M10.6855 16C11.4211 16 12.0175 15.3926 12.0175 14.6434C12.0175 13.8941 11.4211 13.2868 10.6855 13.2868C9.94986 13.2868 9.35352 13.8941 9.35352 14.6434C9.35352 15.3926 9.94986 16 10.6855 16Z" fill="#3D75E4"/>
<path d="M2.26284 6.45012L5.40147 5.50031L3.04455 11.1015C2.83076 11.6096 3.06184 12.198 3.56069 12.4157C4.05954 12.6335 4.63724 12.3981 4.85103 11.89L6.35427 8.31761L4.48074 14.7127C4.32556 15.2424 4.62136 15.8 5.14143 15.958C5.6615 16.1161 6.2089 15.8148 6.36408 15.2851L9.2698 5.36669C9.4386 4.89004 9.22926 4.35104 8.77123 4.12643C8.53539 4.01077 8.31082 3.82396 8.13242 3.6422C8.04687 3.55503 7.97998 3.47731 7.93617 3.42361C7.91442 3.39696 7.89884 3.37682 7.88995 3.3651L7.88182 3.35424C7.63662 3.01315 7.20724 2.86561 6.80905 2.98611L1.70307 4.53129C1.18282 4.68872 0.886381 5.2459 1.04096 5.77577C1.19554 6.30564 1.74259 6.60756 2.26284 6.45012Z" fill="#3D75E4"/>
<path d="M14.8566 5.04043C15.2908 4.70877 15.3788 4.08142 15.0532 3.63921C14.7275 3.197 14.1116 3.10737 13.6774 3.43903L11.974 4.74017H10.6709C10.2324 4.74017 9.84699 5.03604 9.72621 5.46536L9.54665 6.10364C9.45669 6.42341 9.6924 6.74192 10.019 6.74192H12.3016C12.5142 6.74192 12.7211 6.67168 12.8912 6.54174L14.8566 5.04043Z" fill="#3D75E4"/>
</svg>
