<svg width="17" height="16" viewBox="0 0 17 16" fill="none" xmlns="http://www.w3.org/2000/svg">
<g clip-path="url(#clip0)">
<path fill-rule="evenodd" clip-rule="evenodd" d="M10.5149 6.93599C9.82416 6.8541 9.22559 6.41921 8.93426 5.7876L8 3.76213L7.06574 5.7876C6.77441 6.41921 6.17584 6.8541 5.48511 6.93599L3.27007 7.19862L4.90771 8.71306C5.41838 9.18531 5.64701 9.88897 5.51145 10.5712L5.07674 12.759L7.02312 11.6695C7.63006 11.3297 8.36994 11.3297 8.97688 11.6695L10.9233 12.759L10.4885 10.5712C10.353 9.88897 10.5816 9.18531 11.0923 8.71306L12.7299 7.19862L10.5149 6.93599ZM8.90935 0.958568C8.55143 0.182595 7.44858 0.182593 7.09065 0.958565L5.24963 4.9499L0.884732 5.46743C0.0361342 5.56805 -0.304667 6.61692 0.322723 7.19711L3.5498 10.1814L2.69318 14.4926C2.52663 15.3308 3.41886 15.979 4.16453 15.5616L8 13.4147L11.8355 15.5616C12.5811 15.979 13.4734 15.3308 13.3068 14.4926L12.4502 10.1814L15.6773 7.19711C16.3047 6.61692 15.9639 5.56805 15.1153 5.46743L10.7504 4.9499L8.90935 0.958568Z" fill="#3D75E4"/>
</g>
<defs>
<clipPath id="clip0">
<rect width="16" height="16" fill="white" transform="translate(0.00195312)"/>
</clipPath>
</defs>
</svg>
