<svg width="16" height="16" viewBox="0 0 16 16" fill="none" xmlns="http://www.w3.org/2000/svg">
<path fill-rule="evenodd" clip-rule="evenodd" d="M8 2C5.79086 2 4 3.79086 4 6V9C4 10.1046 3.10457 11 2 11C0.89543 11 0 10.1046 0 9V6C0 4.89543 0.895431 4 2 4C2.11304 4 2.22388 4.00938 2.3318 4.0274C3.14769 1.68271 5.37734 0 8 0C10.6227 0 12.8523 1.68271 13.6682 4.0274C13.7761 4.00938 13.887 4 14 4C15.1046 4 16 4.89543 16 6V9C16 10.1046 15.1046 11 14 11C12.8954 11 12 10.1046 12 9V6C12 3.79086 10.2091 2 8 2ZM6.06284 13.5007C5.4573 13.1649 4.94773 12.6762 4.58603 12.0858C4.29753 11.6148 3.68188 11.4669 3.21094 11.7554C2.74 12.0439 2.59209 12.6596 2.88059 13.1305C3.93362 14.8495 5.83201 16 8 16C9.10457 16 10 15.1046 10 14C10 12.8954 9.10457 12 8 12C7.06784 12 6.28463 12.6377 6.06284 13.5007ZM1.5 6C1.5 5.72386 1.72386 5.5 2 5.5C2.27614 5.5 2.5 5.72386 2.5 6V9C2.5 9.27614 2.27614 9.5 2 9.5C1.72386 9.5 1.5 9.27614 1.5 9V6ZM14 5.5C13.7239 5.5 13.5 5.72386 13.5 6V9C13.5 9.27614 13.7239 9.5 14 9.5C14.2761 9.5 14.5 9.27614 14.5 9V6C14.5 5.72386 14.2761 5.5 14 5.5Z" fill="#3D75E4"/>
</svg>
