<svg width="16" height="16" viewBox="0 0 16 16" fill="none" xmlns="http://www.w3.org/2000/svg">
<path fill-rule="evenodd" clip-rule="evenodd" d="M8.39917 11.8381C8.17872 12.054 7.82128 12.054 7.60083 11.8381L5.66534 9.9434C5.44489 9.72759 5.44489 9.37768 5.66534 9.16186C5.8858 8.94605 6.24323 8.94605 6.46369 9.16186L8 10.6658L9.53631 9.16186C9.75677 8.94605 10.1142 8.94605 10.3347 9.16186C10.5551 9.37768 10.5551 9.72759 10.3347 9.9434L8.39917 11.8381Z" fill="#3D75E4"/>
<path fill-rule="evenodd" clip-rule="evenodd" d="M7.60083 4.16186C7.82128 3.94605 8.17872 3.94605 8.39917 4.16186L10.3347 6.0566C10.5551 6.27241 10.5551 6.62232 10.3347 6.83814C10.1142 7.05395 9.75677 7.05395 9.53631 6.83814L8 5.33417L6.46369 6.83814C6.24323 7.05395 5.8858 7.05395 5.66534 6.83814C5.44489 6.62232 5.44489 6.27241 5.66534 6.0566L7.60083 4.16186Z" fill="#3D75E4"/>
</svg>
