<svg width="16" height="16" viewBox="0 0 16 16" fill="none" xmlns="http://www.w3.org/2000/svg">
<path d="M6 9.5C6 10.0523 5.55228 10.5 5 10.5C4.44772 10.5 4 10.0523 4 9.5C4 8.94771 4.44772 8.5 5 8.5C5.55228 8.5 6 8.94771 6 9.5Z" fill="#3D75E4"/>
<path d="M11 10.5C11.5523 10.5 12 10.0523 12 9.5C12 8.94771 11.5523 8.5 11 8.5C10.4477 8.5 10 8.94771 10 9.5C10 10.0523 10.4477 10.5 11 10.5Z" fill="#3D75E4"/>
<path fill-rule="evenodd" clip-rule="evenodd" d="M7 0C6.44772 0 6 0.447715 6 1H3.68046C2.70278 1 1.8684 1.70683 1.70767 2.6712L1.31954 5H1C0.447715 5 0 5.44772 0 6C0 6.55228 0.447715 7 1 7V11C1 11.0441 1.00285 11.0875 1.00837 11.13C0.762407 11.2696 0.579301 11.5113 0.520832 11.8044L0.0416907 14.2066C-0.143403 15.1346 0.566465 16 1.51271 16H14.4948C15.4422 16 16.1523 15.1327 15.9653 14.2039L15.4818 11.8026C15.4228 11.5091 15.2387 11.2674 14.9918 11.1284C14.9972 11.0864 15 11.0435 15 11V7C15.5523 7 16 6.55228 16 6C16 5.44772 15.5523 5 15 5H14.6805L14.2923 2.6712C14.1316 1.70683 13.2972 1 12.3195 1H10C10 0.447715 9.55228 0 9 0H7ZM3 11V8H13V11H9.50151C8.94923 11 8.50151 11.4477 8.50151 12C8.50151 12.5523 8.94923 13 9.50151 13H13.6828L13.8841 14H2.12229L2.32175 13H6.50151C7.0538 13 7.50151 12.5523 7.50151 12C7.50151 11.4477 7.0538 11 6.50151 11H3ZM3.18046 6H12.8195L12.3195 3L3.68046 3L3.18046 6Z" fill="#3D75E4"/>
</svg>
