<svg width="16" height="16" viewBox="0 0 16 16" fill="none" xmlns="http://www.w3.org/2000/svg">
<path d="M2 2C2 0.89543 2.89543 0 4 0H12C13.1046 0 14 0.89543 14 2V4C14 4.55228 13.5523 5 13 5C12.4477 5 12 4.55228 12 4V2H10C10 2.55228 9.55228 3 9 3H7C6.44772 3 6 2.55228 6 2H4V14H12V7C12 6.44772 12.4477 6 13 6C13.5523 6 14 6.44772 14 7V14C14 15.1046 13.1046 16 12 16H4C2.89543 16 2 15.1046 2 14V2Z" fill="#3D75E4"/>
<path d="M8 13C8.55228 13 9 12.5523 9 12C9 11.4477 8.55228 11 8 11C7.44772 11 7 11.4477 7 12C7 12.5523 7.44772 13 8 13Z" fill="#3D75E4"/>
</svg>
