<svg width="16" height="16" viewBox="0 0 16 16" fill="none" xmlns="http://www.w3.org/2000/svg">
<path fill-rule="evenodd" clip-rule="evenodd" d="M9 3.07645C12.1151 3.55745 14.5 6.25021 14.5 9.5C14.5 13.0899 11.5899 16 8 16C4.41015 16 1.5 13.0899 1.5 9.5C1.5 6.25021 3.88491 3.55745 7 3.07645V2H6.5C5.94772 2 5.5 1.55228 5.5 1C5.5 0.447715 5.94772 0 6.5 0H9.5C10.0523 0 10.5 0.447715 10.5 1C10.5 1.55228 10.0523 2 9.5 2H9V3.07645ZM8 5C5.51472 5 3.5 7.01472 3.5 9.5C3.5 11.9853 5.51472 14 8 14C10.4853 14 12.5 11.9853 12.5 9.5C12.5 7.01472 10.4853 5 8 5ZM8.00854 7.96338C8.00854 7.42441 8.45031 6.95702 8.95991 7.13252C9.38197 7.27787 9.76093 7.53865 10.0968 7.91484C10.4093 8.26487 10.6363 8.63042 10.7779 9.0115C10.9702 9.52921 10.5061 9.99048 9.9538 9.99048H9.00855C8.45626 9.99048 8.00854 9.54276 8.00854 8.99048V7.96338Z" fill="#3D75E4"/>
</svg>
