<svg width="16" height="16" viewBox="0 0 16 16" fill="none" xmlns="http://www.w3.org/2000/svg">
<path d="M5.92848 0.628875C5.72336 0.116092 5.14139 -0.133324 4.62861 0.0717893C4.11583 0.276903 3.86641 0.858873 4.07152 1.37166L4.52297 2.50027H4C1.79141 2.50027 0.000883722 4.29024 0 6.49863V14.0002C0 15.1048 0.895431 16.0002 2 16.0002H4C4.74028 16.0002 5.38663 15.598 5.73244 15.0002H10.2676C10.6134 15.598 11.2597 16.0002 12 16.0002H14C15.1046 16.0002 16 15.1048 16 14.0002V6.50027L16 6.49702C15.9982 4.28937 14.2081 2.50027 12 2.50027H11.477L11.9285 1.37166C12.1336 0.858873 11.8842 0.276903 11.3714 0.0717893C10.8586 -0.133324 10.2766 0.116092 10.0715 0.628875L9.07152 3.12888C8.94829 3.43697 8.9859 3.78612 9.17193 4.06089C9.35796 4.33567 9.66818 4.50027 10 4.50027H12C13.1046 4.50027 14 5.3957 14 6.50027V14.0002H12C12 13.448 11.5523 13.0002 11 13.0002H5C4.44772 13.0002 4 13.448 4 14.0002H2V6.50027C2 5.3957 2.89543 4.50027 4 4.50027H6C6.33182 4.50027 6.64204 4.33567 6.82807 4.06089C7.0141 3.78612 7.05171 3.43697 6.92848 3.12888L5.92848 0.628875Z" fill="#3D75E4"/>
<path d="M6 5.50024C5.44772 5.50024 5 5.94796 5 6.50024C5 7.05253 5.44772 7.50024 6 7.50024H10C10.5523 7.50024 11 7.05253 11 6.50024C11 5.94796 10.5523 5.50024 10 5.50024H6Z" fill="#3D75E4"/>
<path d="M4 10.0002C3.44772 10.0002 3 10.448 3 11.0002C3 11.5525 3.44772 12.0002 4 12.0002H5C5.55228 12.0002 6 11.5525 6 11.0002C6 10.448 5.55228 10.0002 5 10.0002H4Z" fill="#3D75E4"/>
<path d="M11 10.0002C10.4477 10.0002 10 10.448 10 11.0002C10 11.5525 10.4477 12.0002 11 12.0002H12C12.5523 12.0002 13 11.5525 13 11.0002C13 10.448 12.5523 10.0002 12 10.0002H11Z" fill="#3D75E4"/>
</svg>
