<svg width="16" height="16" viewBox="0 0 16 16" fill="none" xmlns="http://www.w3.org/2000/svg">
<path fill-rule="evenodd" clip-rule="evenodd" d="M0.600098 1.59998C0.600098 1.04769 1.04781 0.599976 1.6001 0.599976H14.4001C14.9524 0.599976 15.4001 1.04769 15.4001 1.59998V3.99998C15.4001 4.55226 14.9524 4.99998 14.4001 4.99998C13.8478 4.99998 13.4001 4.55226 13.4001 3.99998V2.59998H9.0001V13.4H10.4001C10.9524 13.4 11.4001 13.8477 11.4001 14.4C11.4001 14.9523 10.9524 15.4 10.4001 15.4H5.6001C5.04781 15.4 4.6001 14.9523 4.6001 14.4C4.6001 13.8477 5.04781 13.4 5.6001 13.4H7.0001V2.59998H2.6001V3.99998C2.6001 4.55226 2.15238 4.99998 1.6001 4.99998C1.04781 4.99998 0.600098 4.55226 0.600098 3.99998V1.59998Z" fill="#3D75E4"/>
</svg>
