<svg width="18" height="16" viewBox="0 0 18 16" fill="none" xmlns="http://www.w3.org/2000/svg">
<path fill-rule="evenodd" clip-rule="evenodd" d="M10.3688 3.58468C9.56823 3.36449 8.72097 3.34061 7.90745 3.51563C7.09402 3.69064 6.34508 4.05782 5.72912 4.57839C5.11345 5.09872 4.65147 5.75447 4.38089 6.48153C4.18827 6.99913 3.61251 7.26258 3.09491 7.06995C2.5773 6.87732 2.31386 6.30157 2.50649 5.78396C2.89984 4.72699 3.56625 3.78772 4.43814 3.05085C5.30975 2.31422 6.35906 1.803 7.48678 1.56038C8.61441 1.31777 9.78792 1.35064 10.8992 1.65629C12.0053 1.96051 13.0178 2.52626 13.8412 3.30582L15.2008 4.52063V3.02082C15.2008 2.46853 15.6485 2.02082 16.2008 2.02082C16.7531 2.02082 17.2008 2.46853 17.2008 3.02082V6.75513C17.2008 7.30742 16.7531 7.75513 16.2008 7.75513H12.2735C11.7212 7.75513 11.2735 7.30742 11.2735 6.75513C11.2735 6.20285 11.7212 5.75513 12.2735 5.75513H13.5807L12.4974 4.78723C12.4896 4.78029 12.482 4.77322 12.4744 4.76604C11.893 4.21289 11.1693 3.80483 10.3688 3.58468ZM0.800781 9.24467C0.800781 8.69239 1.2485 8.24467 1.80078 8.24467H5.72805C6.28034 8.24467 6.72805 8.69239 6.72805 9.24467C6.72805 9.79696 6.28034 10.2447 5.72805 10.2447H4.42087L5.50415 11.2126C5.51192 11.2195 5.51958 11.2266 5.52713 11.2338C6.10857 11.7869 6.8323 12.195 7.63276 12.4151C8.43334 12.6353 9.2806 12.6592 10.0941 12.4842C10.9075 12.3092 11.6565 11.942 12.2724 11.4214C12.8881 10.9011 13.3501 10.2453 13.6207 9.51828C13.8133 9.00067 14.3891 8.73723 14.9067 8.92986C15.4243 9.12248 15.6877 9.69824 15.4951 10.2158C15.1017 11.2728 14.4353 12.2121 13.5634 12.949C12.6918 13.6856 11.6425 14.1968 10.5148 14.4394C9.38715 14.682 8.21364 14.6492 7.10237 14.3435C5.99628 14.0393 4.9838 13.4735 4.16041 12.694L2.80078 11.4792V12.979C2.80078 13.5313 2.35307 13.979 1.80078 13.979C1.2485 13.979 0.800781 13.5313 0.800781 12.979V9.24467Z" fill="#3D75E4"/>
</svg>
