<svg width="16" height="16" viewBox="0 0 16 16" fill="none" xmlns="http://www.w3.org/2000/svg">
<path fill-rule="evenodd" clip-rule="evenodd" d="M7.188 0.0304328C7.60036 0.134444 7.90183 0.487886 7.9395 0.911491C8.16205 3.41423 8.28351 4.75885 8.68432 6.12049C9.9392 6.37914 10.9458 7.25073 11.6262 8.1279C12.4308 9.1651 13 10.4907 13 11.5001C13 12.0524 12.5523 12.5001 12 12.5001C11.4478 12.5001 11 12.0524 11 11.5001C11 11.0935 10.6953 10.1908 10.046 9.35377C9.40356 8.52564 8.64499 8.04358 7.9321 8.04358C7.50767 8.04358 7.12947 7.77565 6.9887 7.37524C6.49044 5.95792 6.29263 4.68993 6.11754 2.93868C5.75351 3.07435 5.40966 3.12591 5.1231 3.15259C4.9866 3.16531 4.84536 3.17353 4.72914 3.1803C4.69431 3.18232 4.66173 3.18422 4.6322 3.18607C4.48871 3.19504 4.38891 3.20411 4.30691 3.21809C4.29871 3.21949 4.29092 3.2209 4.28354 3.2223C4.10361 3.78589 3.77924 4.30481 3.30343 4.70862C3.00696 4.96023 2.66583 5.15516 2.28857 5.28861C2.36971 5.38612 2.46772 5.47742 2.5823 5.56224C2.98295 5.85886 3.55552 6.04358 4.14758 6.04358C4.56658 6.04358 4.94115 6.3048 5.08596 6.69798C5.45709 7.7057 5.29367 8.9922 5.02665 10.0356C4.74938 11.1191 4.29087 12.2027 3.82328 12.9076C3.638 13.1869 3.32512 13.3548 2.98995 13.3548C2.5047 13.3548 2.34152 13.4812 2.28133 13.5415C2.2114 13.6116 2.13284 13.7437 2.07698 14.0001H3.50004C4.05232 14.0001 4.50004 14.4478 4.50004 15.0001C4.50004 15.5524 4.05232 16.0001 3.50004 16.0001H1.99957C0.965508 16.0001 -0.123086 15.1255 0.0717407 13.8516C0.156919 13.2946 0.354862 12.6404 0.86588 12.1285C1.27084 11.7229 1.78984 11.4873 2.39203 11.3973C2.64637 10.9088 2.90956 10.2413 3.08909 9.53978C3.24633 8.92532 3.31303 8.38578 3.30167 7.96963C2.61398 7.84892 1.94784 7.58099 1.39225 7.16966C0.593832 6.57855 0 5.66419 0 4.50011C0 3.94782 0.447715 3.50011 1 3.50011C1.48734 3.50011 1.80536 3.35683 2.00931 3.18374C2.21804 3.0066 2.36782 2.7467 2.42707 2.41662C2.46108 2.22714 2.54906 2.0515 2.68045 1.91079C3.08524 1.4773 3.56633 1.31549 3.97079 1.24654C4.16365 1.21366 4.35238 1.19966 4.50732 1.18997C4.55478 1.187 4.59856 1.18445 4.63999 1.18203C4.74725 1.17576 4.83876 1.17042 4.93763 1.16121C5.19299 1.13743 5.37551 1.09586 5.53723 1.01251C5.69029 0.933611 5.88787 0.784384 6.10853 0.449661C6.3426 0.0945975 6.77564 -0.0735783 7.188 0.0304328ZM1.99628 13.9996L1.99728 13.9999L1.99628 13.9996ZM15 10.5001C15.5523 10.5001 16 10.9478 16 11.5001C16 12.2258 15.8042 13.2945 15.2279 14.2157C14.6216 15.1848 13.5763 16.0001 12 16.0001H6.00004C5.44775 16.0001 5.00004 15.5524 5.00004 15.0001C5.00004 13.8292 5.23815 12.8162 5.8892 12.0994C6.56105 11.3597 7.48604 11.1361 8.39313 11.1361C8.94542 11.1361 9.39313 11.5838 9.39313 12.1361C9.39313 12.6884 8.94542 13.1361 8.39313 13.1361C7.78784 13.1361 7.51628 13.2827 7.36968 13.4441C7.27874 13.5442 7.17753 13.7135 7.10403 14.0001H12C12.7706 14.0001 13.2253 13.6457 13.5323 13.155C13.8693 12.6164 14 11.935 14 11.5001C14 10.9478 14.4478 10.5001 15 10.5001Z" fill="#3D75E4"/>
</svg>
