<svg width="16" height="16" viewBox="0 0 16 16" fill="none" xmlns="http://www.w3.org/2000/svg">
<path fill-rule="evenodd" clip-rule="evenodd" d="M13 0C13.5523 0 14 0.447715 14 1C14 1.55228 13.5523 2 13 2H12V4.92963C12 5.93269 11.4987 6.86939 10.6641 7.42578L9.80278 8L10.6641 8.57422C11.4987 9.13061 12 10.0673 12 11.0704V14H13C13.5523 14 14 14.4477 14 15C14 15.5523 13.5523 16 13 16H3C2.44772 16 2 15.5523 2 15C2 14.4477 2.44772 14 3 14H4L4 11.0704C4 10.0673 4.5013 9.13061 5.3359 8.57422L6.19723 8L5.3359 7.42578C4.5013 6.86939 4 5.93269 4 4.92963V2H3C2.44772 2 2 1.55228 2 1C2 0.447715 2.44772 0 3 0H13ZM10 2V4C10 4.55228 9.55228 5 9 5H7C6.44772 5 6 4.55228 6 4V2H10ZM10 14V11.0704C10 10.736 9.8329 10.4238 9.5547 10.2383L8.5547 9.57165C8.2188 9.34772 7.7812 9.34772 7.4453 9.57165L6.4453 10.2383C6.1671 10.4238 6 10.736 6 11.0704L6 14H10Z" fill="#3D75E4"/>
</svg>
