<svg width="16" height="17" viewBox="0 0 16 17" fill="none" xmlns="http://www.w3.org/2000/svg">
<g clip-path="url(#clip0)">
<path d="M13.0009 5.01613C11.1691 2.25471 7.44564 1.50106 4.68422 3.33279C1.92281 5.16452 1.16915 8.88801 3.00088 11.6494C4.83261 14.4108 8.5561 15.1645 11.3175 13.3328C11.7777 13.0275 12.3983 13.1531 12.7036 13.6133C13.0089 14.0736 12.8833 14.6941 12.4231 14.9994C8.74117 17.4417 3.77653 16.4369 1.33422 12.755C-1.10809 9.07308 -0.103215 4.10844 3.57867 1.66613C7.26056 -0.776182 12.2252 0.228694 14.6675 3.91058C16.1705 6.1764 16.367 8.92823 15.4406 11.2756C15.255 11.7459 15.0242 12.2004 14.7496 12.632C14.4531 13.0979 13.835 13.2353 13.369 12.9388C12.9031 12.6423 12.7657 12.0242 13.0622 11.5582C13.2679 11.2351 13.4409 10.8944 13.5803 10.5414C14.277 8.776 14.1273 6.71426 13.0009 5.01613Z" fill="#3D75E4"/>
<path d="M8 9.33203C7.44772 9.33203 7 8.88432 7 8.33203L7 5.33203C7 4.77975 7.44772 4.33203 8 4.33203C8.55229 4.33203 9 4.77975 9 5.33203V8.33203C9 8.88432 8.55229 9.33203 8 9.33203Z" fill="#3D75E4"/>
<path d="M8 10.332C7.44772 10.332 7 10.7797 7 11.332C7 11.8843 7.44772 12.332 8 12.332C8.55229 12.332 9 11.8843 9 11.332C9 10.7797 8.55229 10.332 8 10.332Z" fill="#3D75E4"/>
</g>
<defs>
<clipPath id="clip0">
<rect width="16" height="16" fill="white" transform="translate(0 0.331909)"/>
</clipPath>
</defs>
</svg>
