<svg width="16" height="16" viewBox="0 0 16 16" fill="none" xmlns="http://www.w3.org/2000/svg">
<path d="M0.292893 11.3603C-0.097631 10.9698 -0.0976311 10.3366 0.292893 9.94607C0.683417 9.55554 1.31658 9.55554 1.70711 9.94607C2.08077 10.3197 2.68112 10.3286 3.0655 9.97257C3.07383 9.96362 3.08235 9.95478 3.09107 9.94607C4.24887 8.78826 6.12235 8.78233 7.28749 9.92827C7.29363 9.93411 7.29971 9.94004 7.30574 9.94607C7.68206 10.3224 8.28828 10.3287 8.67229 9.96494C8.67832 9.95859 8.68445 9.9523 8.69068 9.94607C9.84848 8.78827 11.7219 8.78233 12.8871 9.92825C12.8932 9.9341 12.8993 9.94003 12.9053 9.94607C13.2881 10.3288 13.9086 10.3288 14.2913 9.94607C14.6818 9.55554 15.315 9.55554 15.7055 9.94607C16.096 10.3366 16.096 10.9698 15.7055 11.3603C14.5477 12.5181 12.6742 12.524 11.5091 11.3781C11.503 11.3722 11.4969 11.3663 11.4908 11.3603C11.1145 10.984 10.5083 10.9777 10.1243 11.3414C10.1183 11.3478 10.1121 11.354 10.1059 11.3603C8.94809 12.5181 7.07461 12.524 5.90947 11.3781C5.90333 11.3722 5.89725 11.3663 5.89122 11.3603C5.51756 10.9866 4.91722 10.9778 4.53283 11.3338C4.5245 11.3427 4.51598 11.3516 4.50726 11.3603C3.34349 12.524 1.45666 12.524 0.292893 11.3603Z" fill="#3D75E4"/>
<path d="M0.292893 15.1274C-0.097631 14.7368 -0.0976311 14.1037 0.292893 13.7132C0.683417 13.3226 1.31658 13.3226 1.70711 13.7132C2.08077 14.0868 2.68112 14.0957 3.0655 13.7397C3.07383 13.7307 3.08235 13.7219 3.09107 13.7132C4.24887 12.5554 6.12235 12.5494 7.28749 13.6954C7.29363 13.7012 7.29971 13.7071 7.30574 13.7132C7.68206 14.0895 8.28828 14.0958 8.67229 13.732C8.67832 13.7257 8.68445 13.7194 8.69068 13.7132C9.84848 12.5554 11.7219 12.5494 12.8871 13.6953C12.8932 13.7012 12.8993 13.7071 12.9053 13.7132C13.2881 14.0959 13.9086 14.0959 14.2913 13.7132C14.6818 13.3226 15.315 13.3226 15.7055 13.7132C16.096 14.1037 16.096 14.7368 15.7055 15.1274C14.5477 16.2852 12.6742 16.2911 11.5091 15.1452C11.503 15.1393 11.4969 15.1334 11.4908 15.1274C11.1145 14.751 10.5083 14.7448 10.1243 15.1085C10.1183 15.1148 10.1121 15.1211 10.1059 15.1274C8.94809 16.2852 7.07461 16.2911 5.90947 15.1452C5.90333 15.1393 5.89725 15.1334 5.89122 15.1274C5.51756 14.7537 4.91722 14.7449 4.53283 15.1009C4.5245 15.1098 4.51598 15.1187 4.50726 15.1274C3.34349 16.2911 1.45666 16.2911 0.292893 15.1274Z" fill="#3D75E4"/>
<path fill-rule="evenodd" clip-rule="evenodd" d="M7.30302 0.280069C7.48286 0.106657 7.72751 5.00877e-08 7.99707 5.00877e-08C8.02726 -9.48666e-06 8.05748 0.00134282 8.08758 0.00405507C8.29754 0.0229798 8.50271 0.108143 8.66951 0.259543L8.67123 0.261114L8.67382 0.263477L8.68152 0.270544L8.70665 0.293875C8.72758 0.313438 8.75671 0.340977 8.79287 0.37591C8.86512 0.445707 8.96586 0.545429 9.08562 0.670441C9.32403 0.919298 9.64346 1.27424 9.96519 1.69769C10.5705 2.49434 11.3405 3.73288 11.3405 5.04092C11.3405 6.88673 9.84229 8.38041 7.9974 8.38041C6.15252 8.38041 4.6543 6.88673 4.6543 5.04092C4.6543 3.73288 5.42432 2.49434 6.02961 1.69769C6.35135 1.27424 6.67078 0.919298 6.90918 0.670441C7.02895 0.545429 7.12968 0.445707 7.20193 0.37591C7.23809 0.340977 7.26723 0.313438 7.28815 0.293875L7.30302 0.280069ZM8.37271 2.90765C8.24563 2.74038 8.11801 2.58496 7.9974 2.44534C7.8768 2.58496 7.74918 2.74038 7.62209 2.90765C7.05583 3.65293 6.6543 4.43485 6.6543 5.04092C6.6543 5.77924 7.25417 6.38041 7.9974 6.38041C8.74064 6.38041 9.34051 5.77924 9.34051 5.04092C9.34051 4.43485 8.93898 3.65293 8.37271 2.90765Z" fill="#3D75E4"/>
</svg>
