<svg width="295" height="184" viewBox="0 0 295 184" fill="none" xmlns="http://www.w3.org/2000/svg">
<g clip-path="url(#clip0)">
<rect width="295" height="184" rx="1.5" fill="#113079"/>
<path fill-rule="evenodd" clip-rule="evenodd" d="M41.1741 110.255L20.1367 98.0332L41.2284 85.8251L20.1367 73.5716L41.2281 61.3637L20.1367 49.1103L41.1735 36.9341L20.1367 24.7124L41.985 12.0664L63.101 24.2885L84.2169 12.0664L84.408 12.1941L105.243 24.2986L105.301 24.2652L105.334 24.2875L126.448 12.0664L147.528 24.2675L147.532 24.2652L147.536 24.2678L168.616 12.0664L168.807 12.1941L189.642 24.2987L189.7 24.2652L189.734 24.2874L210.848 12.0664L231.987 24.3017L253.015 12.1301L274.864 24.7761L253.772 36.9842L274.864 49.2378L253.718 61.4151L274.864 73.6998L253.774 85.8448L274.864 98.0971L253.842 110.264L274.864 122.432L253.786 134.693L274.864 146.893L253.825 159.132L274.864 171.355L253.015 184.001L252.824 183.873L232.038 171.797L210.848 184.001L189.736 171.781L189.7 171.802L189.697 171.799L168.616 184.001L168.425 183.873L147.59 171.769L147.532 171.802L147.497 171.782L126.448 184.001L105.306 171.799L105.301 171.802L105.297 171.799L84.2169 184.001L84.0258 183.873L63.1903 171.768L63.1327 171.802L63.0996 171.78L41.985 184.001L41.794 183.873L20.1367 171.291L41.1578 159.124L20.1367 146.957L41.283 134.717L20.1367 122.432L41.1741 110.255ZM21.6655 24.7763L41.93 36.4962L41.985 36.4643L42.02 36.4877L50.2046 31.7743L62.3046 24.7763L41.985 13.0244L21.6655 24.7763ZM42.7945 36.9514L61.8822 48.0406L63.069 48.727L83.3886 36.9752L63.1327 25.2234L43.2104 36.7094L42.7945 36.9514ZM42.7534 61.3754L44.7904 60.1964L63.1327 49.6213L83.3886 61.3731L63.069 73.125L42.7534 61.3754ZM63.907 49.1753L84.2662 37.4507L104.533 49.1717L84.2169 60.9258L63.907 49.1753ZM64.5693 73.2473L63.9581 73.6028L84.2167 85.3287L104.477 73.6017L84.2169 61.8841L64.5693 73.2473ZM41.985 61.8836L62.2777 73.6199L41.9662 85.3764L21.6655 73.6355L41.985 61.8836ZM42.796 110.274L63.1518 98.4916L83.3938 110.262L63.0821 122.019L53.952 116.755L42.796 110.274ZM47.7382 162.004L42.8242 159.149L48.1485 156.053L63.2053 147.382L83.3936 159.122L63.0819 170.878L47.7382 162.004ZM104.536 171.355L104.536 171.355L84.2169 183.107L63.901 171.357L84.2169 159.603L104.536 171.355ZM105.301 170.908L104.07 170.196L85.0284 159.133L105.301 147.404L125.616 159.153L105.301 170.908ZM41.985 135.142L41.9845 135.141L21.6655 146.893L41.985 158.645L62.3046 146.893L41.9856 135.141L41.985 135.142ZM106.067 171.356L126.384 183.106L146.704 171.355L126.384 159.603L106.845 170.903L106.067 171.356ZM126.384 158.645L106.073 146.893L126.384 135.141L146.704 146.893L126.384 158.645ZM105.301 146.446L84.9837 134.696L85.8491 134.192L105.301 122.942L125.616 134.692L105.301 146.446ZM104.532 146.891L84.266 135.17L63.903 146.896L84.2169 158.645L104.532 146.891ZM83.4486 134.692L63.1327 146.446L42.8131 134.694L63.1327 122.942L83.4486 134.692ZM62.3046 122.496L50.4809 129.334L41.9669 134.237L21.6655 122.496L41.985 110.744L62.3046 122.496ZM105.334 122.007L105.301 121.984L105.296 121.987L85.0438 110.264L105.301 98.5442L125.594 110.281L105.334 122.007ZM125.41 133.684L106.114 122.474L126.433 110.772L146.704 122.496L126.385 134.247L126.384 134.247L125.41 133.684ZM127.213 159.156L127.417 159.038L147.532 147.404L167.792 159.122L147.481 170.878L127.213 159.156ZM169.426 159.132L188.395 170.152L189.7 170.908L210.02 159.156L189.7 147.404L170.089 158.746L169.426 159.132ZM168.665 159.631L148.302 171.358L168.616 183.107L188.936 171.355L168.665 159.631ZM104.473 122.463L84.1653 134.218L63.9007 122.498L84.2169 110.744L104.473 122.463ZM210.848 159.603L190.528 171.355L210.848 183.106L231.167 171.355L210.848 159.603ZM188.928 146.893L168.616 135.141L148.3 146.895L168.616 158.645L188.928 146.893ZM189.7 146.446L210.02 134.694L189.7 122.942L169.389 134.694L189.7 146.446ZM168.616 134.247L188.928 122.495L168.616 110.744L148.304 122.495L168.616 134.247ZM167.844 134.694L147.532 146.446L127.217 134.697L147.532 122.942L167.844 134.694ZM146.246 121.304L147.532 122.048L167.848 110.294L147.532 98.5444L127.259 110.274L146.246 121.304ZM84.2164 86.2816L84.2169 86.2819L84.2174 86.2816L104.536 98.0332L84.2169 109.785L63.8998 98.0347L64.7637 97.5321L84.2164 86.2816ZM63.069 97.5867L42.753 85.837L44.5661 84.7876L63.1327 74.0831L83.3886 85.8349L63.069 97.5867ZM125.038 84.6082L106.112 73.6133L126.385 61.8836L146.677 73.6198L126.366 85.3763L125.038 84.6082ZM108.399 96.6876L106.07 98.0358L126.385 109.785L146.704 98.0332L126.448 86.2815L108.399 96.6876ZM169.386 110.295L189.682 122.037L209.993 110.28L189.7 98.5442L170.053 109.907L169.386 110.295ZM41.9847 60.9258L21.6655 49.1742L41.985 37.4224L62.3046 49.1742L41.9854 60.9258L41.985 60.9256L41.9847 60.9258ZM232.7 171.357L253.015 183.107L273.335 171.355L253.015 159.603L232.7 171.357ZM231.983 147.37L252.192 159.121L231.881 170.878L211.616 159.158L231.983 147.37ZM231.163 146.891L210.848 158.645L190.528 146.893L202.629 139.894L210.865 135.151L231.163 146.891ZM147.532 97.5865L127.216 85.8371L147.532 74.0831L167.843 85.8346L147.532 97.5866L147.532 97.5863L147.532 97.5865ZM84.9871 85.8383L105.35 74.1116L125.62 85.8349L105.301 97.5867L84.9871 85.8383ZM232.702 146.896L253.065 135.17L273.335 146.893L253.015 158.645L232.702 146.896ZM253.016 134.247L273.335 122.496L253.015 110.744L232.7 122.498L253.015 134.247L253.015 134.247L253.016 134.247ZM252.247 134.692L231.932 122.942L211.617 134.696L231.932 146.446L252.247 134.692ZM210.798 134.219L231.161 122.492L210.865 110.754L202.847 115.371L190.528 122.496L210.798 134.219ZM230.509 121.225L231.881 122.019L252.193 110.262L231.983 98.51L211.659 110.274L230.509 121.225ZM188.931 98.0357L168.616 109.785L148.299 98.0347L149.163 97.5321L168.616 86.2816L168.616 86.2819L168.617 86.2816L188.931 98.0357ZM189.7 97.5866L210.02 85.8347L189.75 74.1114L169.391 85.8357L189.7 97.5866ZM148.357 73.6028L168.667 85.3583L188.932 73.6336L168.616 61.8841L148.968 73.2474L148.357 73.6028ZM105.301 73.125L84.987 61.3765L105.35 49.6498L125.62 61.3731L105.301 73.125ZM231.163 98.0311L210.848 109.785L190.528 98.0332L210.847 86.2816L210.848 86.2819L210.848 86.2816L231.163 98.0311ZM231.932 97.5866L231.932 97.5863L231.931 97.5865L211.616 85.8371L231.932 74.0831L252.243 85.8345L231.932 97.5866ZM148.304 49.1741L168.616 37.4223L188.932 49.1718L168.616 60.9258L148.304 49.1741ZM127.217 61.3756L147.532 73.125L167.848 61.3753L147.532 49.6213L127.217 61.3756ZM106.069 49.1764L126.385 60.926L146.704 49.1742L126.385 37.4224L106.069 49.1764ZM147.532 48.7269L146.394 48.0687L127.258 36.9513L128.03 36.5023L147.532 25.2232L167.848 36.9728L147.532 48.7269ZM146.677 24.7603L126.452 36.4666L126.448 36.4643L126.361 36.5147L125.269 35.883L106.109 24.7512L126.385 13.0244L146.677 24.7603ZM105.301 25.2232L125.593 36.9594L105.282 48.7158L84.9853 36.9775L105.301 25.2232ZM104.477 24.7419L84.2169 13.0244L63.8973 24.7763L84.1656 36.4984L104.477 24.7419ZM253.015 86.2816L253.015 86.2819L253.016 86.2816L273.335 98.0332L253.015 109.785L232.699 98.0348L233.671 97.469L253.015 86.2816ZM210.797 85.3583L231.106 73.6028L230.499 73.2492L210.848 61.8841L190.528 73.6359L210.797 85.3583ZM232.757 73.6028L253.067 85.3581L273.335 73.6359L253.015 61.8841L233.477 73.1839L232.757 73.6028ZM189.7 73.125L169.386 61.3764L189.749 49.6497L210.02 61.3731L189.7 73.125ZM168.565 36.4985L167.451 35.8541L148.34 24.7513L168.616 13.0244L188.877 24.742L168.565 36.4985ZM231.16 49.1742L210.848 60.926L190.528 49.1742L210.848 37.4224L231.16 49.1742ZM232.704 49.1742L253.015 37.4222L273.335 49.174L253.015 60.9258L232.704 49.1742ZM211.614 61.3743L231.932 73.125L252.247 61.3755L231.932 49.6213L212.281 60.9865L211.614 61.3743ZM231.983 48.6975L211.673 36.9421L212.281 36.5885L231.932 25.2234L252.243 36.975L231.983 48.6975ZM210.903 36.4962L210.848 36.4643L210.793 36.4962L195.657 27.7425L190.54 24.7696L210.848 13.0244L231.163 24.774L210.903 36.4962ZM189.7 25.2232L209.993 36.9593L189.681 48.7158L169.385 36.9774L189.7 25.2232ZM232.7 24.7737L253.015 36.5279L273.335 24.7761L253.015 13.0242L232.7 24.7737ZM21.6655 98.0332L41.985 109.785L62.3046 98.0332L41.985 86.2815L21.6655 98.0332ZM41.985 183.107L21.6655 171.355L41.985 159.603L62.3046 171.355L41.985 183.107Z" fill="url(#paint0_radial)"/>
<path d="M249.032 81.0832C249.033 79.6428 248.259 78.3227 247.007 77.6119L205.571 54.0988C204.92 53.7292 204.122 54.1685 204.114 54.9173C204.051 61.1003 204.13 80.4806 204.1 85.9237C204.046 95.817 202.564 98.6369 191.127 107.576C187.488 110.421 171.433 119.156 158.405 125.992C153.119 128.766 152.266 132.305 149.594 134.566C148.442 135.54 147.234 136.2 146.146 136.692C144.746 137.324 144.627 138.989 145.957 139.757L186.549 163.197C187.175 163.559 187.961 163.584 188.637 163.328C190.038 162.798 192.367 161.932 194.481 160.143C197.154 157.882 198.007 154.343 203.292 151.57C216.32 144.733 232.376 135.998 236.015 133.154C247.451 124.214 248.933 121.394 248.988 111.501C249.015 106.465 249.028 87.6935 249.032 81.0832Z" fill="#C0D6F6"/>
<path d="M209.517 79.6424C208.85 79.2634 208.022 79.7449 208.022 80.5117V84.652C208.022 85.3713 208.409 86.0352 209.034 86.3907L222.522 94.0579C223.188 94.4368 224.016 93.9554 224.016 93.1885V89.0482C224.016 88.3289 223.63 87.665 223.004 87.3095L209.517 79.6424Z" fill="#3D75E4"/>
<path d="M209.976 68.2293C209.31 67.8634 208.495 68.3456 208.495 69.1058V75.4851C208.495 76.2127 208.89 76.8829 209.527 77.2351L244.221 96.432C244.879 96.7961 245.688 96.3308 245.705 95.579L245.846 89.1506C245.863 88.4051 245.463 87.7123 244.809 87.3535L209.976 68.2293Z" fill="#3D75E4"/>
<path d="M234.645 77.1023C233.979 76.7364 233.164 77.2186 233.164 77.9789V78.2142C233.164 78.9417 233.559 79.6119 234.196 79.9641L244.194 85.4963C244.852 85.8604 245.661 85.3952 245.678 84.6433L245.683 84.3903C245.7 83.6448 245.3 82.9521 244.646 82.5932L234.645 77.1023Z" fill="#3D75E4"/>
<path d="M209.772 64.9C209.332 64.6585 208.794 64.9768 208.794 65.4785C208.794 65.9587 209.055 66.401 209.475 66.6335L215.444 69.9362C215.881 70.1779 216.418 69.8691 216.429 69.37C216.44 68.8752 216.174 68.4153 215.74 68.1771L209.772 64.9Z" fill="#3D75E4"/>
<path d="M209.772 61.8492C209.332 61.6078 208.794 61.926 208.794 62.4278C208.794 62.9079 209.055 63.3502 209.475 63.5827L215.444 66.8854C215.881 67.1271 216.418 66.8183 216.429 66.3192C216.44 65.8244 216.174 65.3646 215.74 65.1263L209.772 61.8492Z" fill="#3D75E4"/>
<path d="M232.778 129.843C233.484 130.248 234.369 130.183 235.007 129.678C242.675 123.61 244.816 120.971 245.408 116.178C245.503 115.412 245.098 114.676 244.425 114.298L231.453 107.002C230.815 106.644 230.021 107.07 229.912 107.794C229.237 112.268 227.009 114.927 219.688 120.729C219.132 121.17 219.189 122.038 219.804 122.391L232.778 129.843Z" fill="#3D75E4"/>
<path d="M202.529 102.621C202.277 102.48 201.969 102.526 201.772 102.736C201.493 103.033 201.556 103.523 201.912 103.722L222.675 115.329C222.919 115.465 223.234 115.42 223.436 115.227C223.744 114.932 223.664 114.436 223.292 114.228L202.529 102.621Z" fill="#3D75E4"/>
<path d="M196.537 108.055C196.312 107.929 196.038 107.949 195.838 108.112C195.492 108.393 195.532 108.939 195.921 109.156L216.598 120.715C216.699 120.771 216.825 120.764 216.916 120.693C217.358 120.347 217.304 119.664 216.814 119.39L196.537 108.055Z" fill="#3D75E4"/>
<path d="M227.44 106.282C227.865 106.52 228.394 106.271 228.441 105.786C228.467 105.516 228.329 105.245 228.093 105.112L207.704 93.645C207.303 93.4198 206.798 93.659 206.688 94.1054C206.615 94.4059 206.748 94.7148 207.018 94.8658L227.44 106.282Z" fill="#3D75E4"/>
<path d="M198.634 106.299C198.404 106.17 198.124 106.195 197.923 106.367C197.592 106.652 197.636 107.187 198.018 107.4L218.562 118.884C218.787 119.01 219.075 118.981 219.276 118.819C219.624 118.538 219.568 118.001 219.178 117.783L198.634 106.299Z" fill="#3D75E4"/>
<path d="M205.662 98.5182C205.366 98.3524 204.994 98.4579 204.822 98.7508C204.645 99.0527 204.741 99.4488 205.046 99.6197L225.995 111.331C226.302 111.502 226.694 111.399 226.869 111.095C227.048 110.786 226.923 110.403 226.611 110.229L205.662 98.5182Z" fill="#3D75E4"/>
<path d="M206.795 96.2224C206.467 96.0388 206.053 96.196 205.912 96.5449C205.794 96.8355 205.906 97.1708 206.179 97.3237L227.003 108.965C227.363 109.166 227.816 109.001 227.931 108.606C228.014 108.317 227.881 108.01 227.619 107.863L206.795 96.2224Z" fill="#3D75E4"/>
<path d="M200.646 104.496C200.407 104.363 200.116 104.395 199.916 104.582C199.606 104.873 199.658 105.389 200.029 105.597L220.668 117.135C220.9 117.264 221.198 117.229 221.4 117.056C221.734 116.77 221.669 116.248 221.285 116.034L200.646 104.496Z" fill="#3D75E4"/>
<path d="M204.223 100.641C203.953 100.49 203.618 100.558 203.429 100.803C203.194 101.106 203.272 101.556 203.607 101.742L224.496 113.42C224.763 113.569 225.107 113.504 225.305 113.272C225.565 112.966 225.463 112.515 225.113 112.319L204.223 100.641Z" fill="#3D75E4"/>
<path d="M156.882 134.208C156.008 133.733 154.931 133.983 154.305 134.756C153.75 135.442 153.135 136.118 152.387 136.751C151.69 137.341 151.726 138.479 152.518 138.934L187.729 159.135C188.25 159.434 188.879 159.489 189.433 159.257C190.545 158.793 191.857 158.141 193.037 157.143C193.201 157.005 193.36 156.852 193.517 156.687C194.357 155.804 194.003 154.367 192.933 153.786L156.882 134.208Z" fill="#3D75E4"/>
<path d="M174.376 137.548C174.963 137.869 175.671 137.876 176.263 137.564C178.711 136.277 182.501 134.271 186.656 132.03C187.35 131.656 187.357 130.663 186.668 130.279L173.466 122.913C172.868 122.579 172.141 122.575 171.538 122.901C167.459 125.106 163.667 127.117 161.058 128.492C160.352 128.864 160.344 129.872 161.045 130.255L174.376 137.548Z" fill="#3D75E4"/>
<path d="M212.533 142.517C212.721 142.622 212.953 142.622 213.142 142.52C213.58 142.284 213.582 141.659 213.147 141.417L176.024 120.701C175.835 120.595 175.604 120.595 175.414 120.699C174.978 120.937 174.975 121.562 175.409 121.804L212.533 142.517Z" fill="#3D75E4"/>
<path d="M178.67 119.249C178.48 119.143 178.249 119.142 178.058 119.247C177.624 119.487 177.621 120.111 178.054 120.352L215.193 141.077C215.382 141.182 215.614 141.182 215.804 141.078C216.241 140.841 216.241 140.218 215.807 139.976L178.67 119.249Z" fill="#3D75E4"/>
<path d="M183.913 116.316C183.72 116.208 183.488 116.208 183.296 116.317C182.868 116.56 182.867 117.18 183.296 117.42L220.475 138.174C220.666 138.28 220.902 138.278 221.093 138.172C221.525 137.932 221.521 137.314 221.09 137.073L183.913 116.316Z" fill="#3D75E4"/>
<path d="M181.3 117.787C181.109 117.68 180.877 117.679 180.686 117.786C180.255 118.027 180.253 118.65 180.684 118.891L217.84 139.629C218.03 139.734 218.265 139.733 218.455 139.628C218.889 139.39 218.887 138.769 218.455 138.528L181.3 117.787Z" fill="#3D75E4"/>
<path d="M191.536 111.784C191.333 111.67 191.1 111.669 190.905 111.795C190.504 112.052 190.503 112.656 190.919 112.888L228.254 133.741C228.45 133.851 228.702 133.841 228.896 133.727C229.315 133.479 229.294 132.877 228.869 132.64L191.536 111.784Z" fill="#3D75E4"/>
<path d="M189.048 113.325C188.851 113.215 188.618 113.214 188.424 113.33C188.008 113.58 188.008 114.192 188.431 114.429L225.688 135.234C225.882 135.342 226.126 135.337 226.318 135.226C226.744 134.982 226.731 134.372 226.303 134.133L189.048 113.325Z" fill="#3D75E4"/>
<path d="M186.498 114.832C186.303 114.723 186.071 114.722 185.878 114.834C185.455 115.08 185.454 115.697 185.881 115.935L223.092 136.711C223.284 136.818 223.523 136.815 223.715 136.707C224.144 136.465 224.136 135.85 223.706 135.61L186.498 114.832Z" fill="#3D75E4"/>
<path d="M207.896 89.0396C207.896 89.2849 208.028 89.5113 208.241 89.6321L244.694 110.235C245.147 110.492 245.709 110.164 245.709 109.643C245.709 109.397 245.577 109.171 245.363 109.05L208.911 88.447C208.457 88.1906 207.896 88.5184 207.896 89.0396Z" fill="#3D75E4"/>
<path d="M225.837 93.0806C225.837 93.326 225.969 93.5525 226.183 93.6732L244.693 104.136C245.147 104.392 245.709 104.064 245.709 103.543C245.709 103.298 245.577 103.071 245.363 102.95L226.853 92.4881C226.399 92.2316 225.837 92.5594 225.837 93.0806Z" fill="#3D75E4"/>
<path d="M226.936 89.3591C226.446 89.0804 225.837 89.4346 225.837 89.9986C225.837 90.2638 225.98 90.5085 226.211 90.639L244.651 101.061C245.123 101.329 245.709 100.987 245.709 100.444C245.709 100.189 245.572 99.953 245.35 99.8269L226.936 89.3591Z" fill="#3D75E4"/>
<path d="M225.837 96.1313C225.837 96.3767 225.969 96.6031 226.183 96.7238L244.693 107.186C245.147 107.443 245.709 107.115 245.709 106.594C245.709 106.348 245.577 106.122 245.363 106.001L226.852 95.5388C226.399 95.2824 225.837 95.6101 225.837 96.1313Z" fill="#3D75E4"/>
<path d="M180.835 138.083C180.649 137.979 180.408 137.983 180.219 138.083C179.777 138.318 179.782 138.943 180.22 139.187L199.175 149.766C199.379 149.88 199.62 149.873 199.813 149.742C200.199 149.482 200.198 148.892 199.791 148.665L180.835 138.083Z" fill="#3D75E4"/>
<path d="M183.525 136.656C183.338 136.552 183.103 136.553 182.913 136.654C182.472 136.889 182.472 137.516 182.909 137.76L201.73 148.266C201.916 148.37 202.144 148.372 202.333 148.272C202.776 148.039 202.782 147.408 202.344 147.164L183.525 136.656Z" fill="#3D75E4"/>
<path d="M178.137 139.505C177.951 139.401 177.724 139.398 177.536 139.497C177.092 139.73 177.083 140.363 177.521 140.608L196.991 151.472C197.223 151.602 197.504 151.572 197.701 151.394C198.018 151.107 197.98 150.579 197.606 150.371L178.137 139.505Z" fill="#3D75E4"/>
<path d="M188.882 133.786C188.693 133.681 188.461 133.681 188.271 133.783C187.832 134.02 187.83 134.647 188.265 134.89L207.116 145.417C207.303 145.522 207.533 145.523 207.722 145.422C208.164 145.188 208.168 144.559 207.731 144.315L188.882 133.786Z" fill="#3D75E4"/>
<path d="M186.208 135.223C186.02 135.118 185.787 135.119 185.597 135.22C185.157 135.456 185.156 136.083 185.592 136.327L204.427 146.843C204.614 146.947 204.843 146.949 205.032 146.849C205.474 146.615 205.479 145.985 205.042 145.741L186.208 135.223Z" fill="#3D75E4"/>
<path d="M191.546 132.345C191.358 132.24 191.128 132.238 190.938 132.341C190.501 132.579 190.496 133.207 190.931 133.45L209.796 143.987C209.984 144.092 210.214 144.093 210.404 143.992C210.845 143.756 210.849 143.128 210.413 142.885L191.546 132.345Z" fill="#3D75E4"/>
<path d="M91.8351 83.2353C92.4858 83.6106 93.0149 84.5185 93.0149 85.263C93.0149 86.0075 92.4858 86.3162 91.8351 85.941C91.1844 85.5657 90.6553 84.6577 90.6553 83.9132C90.6614 83.1627 91.1904 82.86 91.8351 83.2353Z" fill="#C0D6F6"/>
<path d="M87.8673 80.9716C88.518 81.3469 89.0471 82.2548 89.0471 82.9993C89.0471 83.7438 88.518 84.0525 87.8673 83.6773C87.2166 83.302 86.6875 82.394 86.6875 81.6495C86.6936 80.899 87.2227 80.5963 87.8673 80.9716Z" fill="#C0D6F6"/>
<path d="M83.8985 78.7022C84.5493 79.0775 85.0784 79.9855 85.0784 80.73C85.0784 81.4745 84.5493 81.7832 83.8985 81.4079C83.2478 81.0326 82.7188 80.1247 82.7188 79.3802C82.7248 78.6357 83.2539 78.333 83.8985 78.7022Z" fill="#C0D6F6"/>
<path d="M79.9308 76.4423C80.5815 76.8176 81.1106 77.7255 81.1106 78.4701C81.1106 79.2146 80.5815 79.5233 79.9308 79.148C79.2801 78.7727 78.751 77.8648 78.751 77.1202C78.7571 76.3697 79.2861 76.067 79.9308 76.4423Z" fill="#C0D6F6"/>
<path d="M221.781 33.7742C222.488 34.1779 223.154 34.7679 223.747 35.4614C223.841 31.6005 226.619 30.0582 230.052 32.0249C231.155 32.6563 232.185 33.5672 233.079 34.654C234.609 32.0042 237.771 31.3831 241.434 33.4843C246.583 36.4447 250.766 43.6385 250.766 49.5592C250.766 50.0457 250.724 50.5011 250.672 50.9462C251.411 50.7599 252.305 50.9048 253.283 51.4741C255.749 52.8922 257.747 56.339 257.747 59.1648C257.747 62.0009 255.749 63.1499 253.283 61.7318L221.77 43.6282C219.398 42.2619 217.474 38.9599 217.474 36.2273C217.474 33.4947 219.409 32.4182 221.781 33.7742Z" fill="#C0D6F6"/>
<path d="M63.805 52.457C63.2039 52.7965 62.6312 53.2918 62.1322 53.8706C62.0528 50.6315 59.6883 49.3403 56.7737 50.9932C55.8381 51.522 54.9648 52.29 54.1993 53.1972C52.9008 50.971 50.2131 50.4534 47.1 52.2177C42.7112 54.6999 39.1615 60.7385 39.1615 65.703C39.1615 66.1149 39.1955 66.4933 39.2409 66.8662C38.6171 66.7048 37.8516 66.8328 37.0181 67.3059C34.9257 68.4914 33.2246 71.3799 33.2246 73.7564C33.2246 76.1329 34.9257 77.0957 37.0181 75.9047L63.805 60.7274C65.818 59.5865 67.4567 56.8092 67.4567 54.5218C67.4567 52.2399 65.8236 51.316 63.805 52.457Z" fill="#C0D6F6"/>
<path d="M173.325 40.4238C173.325 40.7769 173.511 41.1038 173.814 41.2839L176.238 42.7213C176.905 43.1166 177.748 42.6362 177.748 41.8612V38.9919C177.748 38.6388 177.562 38.3119 177.258 38.1318L174.835 36.6945C174.168 36.2991 173.325 36.7795 173.325 37.5546V40.4238Z" fill="#C0D6F6"/>
<path d="M167.133 36.7915C167.133 37.1496 167.324 37.4803 167.635 37.6586L170.11 39.0807C170.777 39.4637 171.608 38.9825 171.608 38.2136V35.3256C171.608 34.9676 171.417 34.6369 171.107 34.4585L168.631 33.0364C167.964 32.6534 167.133 33.1347 167.133 33.9035V36.7915Z" fill="#C0D6F6"/>
<path d="M173.273 47.1783C173.273 47.5363 173.464 47.867 173.774 48.0454L176.25 49.4674C176.917 49.8504 177.748 49.3692 177.748 48.6003V45.7123C177.748 45.3543 177.557 45.0236 177.246 44.8452L174.771 43.4231C174.104 43.0402 173.273 43.5214 173.273 44.2902V47.1783Z" fill="#C0D6F6"/>
<path d="M167.133 43.6138C167.133 43.9719 167.324 44.3026 167.635 44.4809L170.11 45.903C170.777 46.286 171.608 45.8047 171.608 45.0359V42.1479C171.608 41.7898 171.417 41.4591 171.107 41.2808L168.631 39.8587C167.964 39.4757 167.133 39.957 167.133 40.7258V43.6138Z" fill="#C0D6F6"/>
<path d="M120.038 102.927C121.324 102.186 122.362 100.383 122.358 98.908C122.354 97.4327 121.309 96.8381 120.023 97.5794C118.731 98.3243 117.693 100.12 117.697 101.595C117.702 103.07 118.746 103.672 120.038 102.927ZM120.008 94.2279C122.909 92.5554 125.267 93.8949 125.276 97.2253C125.29 101.887 123.031 106.803 121.48 109.625C121.091 110.336 120.564 110.884 120.036 111.188C119.514 111.489 118.992 111.552 118.601 111.3C117.123 110.364 115.019 108.282 114.788 104.012C114.617 100.778 116.678 96.4343 119.57 94.5009C119.717 94.4024 119.864 94.3113 120.008 94.2279Z" fill="#C0D6F6"/>
<path d="M42.7767 98.3603C43.0869 97.967 43.4326 97.6145 43.8014 97.3244C43.9799 97.1839 44.1637 97.0581 44.3516 96.9494C45.2084 96.4534 45.9847 96.4074 46.5452 96.7339L48.4652 97.9987C48.4634 97.9977 48.4614 97.9971 48.4596 97.9961C49.016 98.3171 49.3615 99.0035 49.3642 99.9811C49.3698 101.943 47.9945 104.332 46.2917 105.318C45.4275 105.818 44.6464 105.859 44.0849 105.522C44.0899 105.525 44.0938 105.53 44.0989 105.533L42.1788 104.268C41.9627 104.142 41.7785 103.961 41.6342 103.729C41.4656 103.457 41.3513 103.116 41.3038 102.712C41.2879 102.577 41.2794 102.434 41.279 102.285C41.2753 100.987 41.8763 99.5019 42.7767 98.3603Z" fill="#A2ABBE"/>
<path d="M44.9391 100.246C45.1839 99.936 45.4566 99.658 45.7474 99.4291C45.8882 99.3183 46.0332 99.219 46.1815 99.1333C46.8574 98.7421 47.4697 98.7057 47.9118 98.9633L55.9538 103.949C55.9523 103.948 55.9507 103.947 55.9492 103.946C56.3883 104.2 56.6609 104.741 56.6631 105.512C56.6675 107.06 55.5826 108.945 54.2394 109.722C53.5576 110.117 52.9414 110.149 52.4984 109.883C52.5024 109.886 52.5055 109.89 52.5095 109.892L44.4675 104.907C44.297 104.807 44.1518 104.664 44.0379 104.481C43.9049 104.267 43.8147 103.997 43.7773 103.679C43.7647 103.572 43.7581 103.46 43.7577 103.342C43.7548 102.318 44.2289 101.147 44.9391 100.246Z" fill="#6F7A90"/>
<path d="M67.3413 125.845L82.0234 117.291L79.5621 111.416L64.88 119.97L67.3413 125.845Z" fill="#6F7A90"/>
<path d="M64.8794 119.97L79.5615 111.416L58.0116 98.9434L43.3294 107.497L64.8794 119.97Z" fill="#A2ABBE"/>
<path d="M74.6547 130.077L89.3369 121.524L82.0239 117.291L67.3417 125.845L74.6547 130.077Z" fill="#A2ABBE"/>
<path d="M74.6045 147.854L89.2866 139.3L89.3369 121.523L74.6547 130.077L74.6045 147.854Z" fill="#6F7A90"/>
<path d="M43.331 107.496L43.2829 124.509C43.2738 127.73 44.9867 130.711 47.7744 132.324L53.7988 135.811L64.8181 142.189L74.605 147.854L74.6553 130.077L67.3423 125.844L64.8809 119.969L43.331 107.496Z" fill="#495469"/>
<path d="M78.1867 130.974C78.6034 130.446 79.0677 129.973 79.563 129.583C79.8027 129.394 80.0496 129.225 80.3019 129.079C81.4527 128.413 82.4952 128.351 83.2479 128.79L94.7232 135.475C94.7207 135.474 94.718 135.473 94.7155 135.471C95.4629 135.903 95.9269 136.825 95.9306 138.138C95.9381 140.772 94.091 143.982 91.804 145.305C90.6435 145.977 89.5946 146.031 88.8405 145.58C88.8471 145.584 88.8523 145.59 88.859 145.594L77.3838 138.909C77.0934 138.74 76.8461 138.496 76.6522 138.184C76.4258 137.819 76.2724 137.361 76.2086 136.819C76.1872 136.637 76.1759 136.445 76.1753 136.245C76.1703 134.501 76.9775 132.507 78.1867 130.974Z" fill="#495469"/>
<path d="M84.3999 133.827C84.9495 133.131 85.5621 132.506 86.2155 131.992C86.5318 131.743 86.8575 131.52 87.1904 131.327C88.7086 130.449 90.0839 130.367 91.077 130.946L99.5875 135.922C99.5843 135.92 99.5808 135.919 99.5777 135.917C100.564 136.486 101.176 137.702 101.181 139.434C101.19 142.91 98.7535 147.144 95.7364 148.891C94.0532 149.865 92.547 149.856 91.5412 149.057C91.6402 149.136 91.7427 149.209 91.8511 149.272L83.3406 144.296C82.9574 144.072 82.6311 143.751 82.3755 143.339C82.0767 142.858 81.8742 142.254 81.7901 141.538C81.7618 141.298 81.7469 141.045 81.7462 140.781C81.7397 138.481 82.8045 135.85 84.3999 133.827Z" fill="#A2ABBE"/>
<path d="M86.9254 137.591C87.0197 137.27 87.1949 136.95 87.4162 136.693C87.5566 136.529 87.7157 136.391 87.8843 136.294L99.2359 129.723C99.5253 129.556 99.7874 129.54 99.9765 129.65L105.013 132.584C104.824 132.474 104.561 132.49 104.272 132.657L92.9204 139.228C92.7518 139.325 92.5928 139.464 92.4524 139.627C92.2312 139.884 92.0558 140.204 91.9616 140.525C91.9118 140.694 91.8846 140.864 91.885 141.026L91.922 154.102C91.923 154.431 92.0387 154.663 92.2254 154.772L87.1893 151.838C87.0025 151.729 86.8868 151.497 86.8858 151.168L86.8489 138.092C86.8484 137.93 86.8756 137.76 86.9254 137.591Z" fill="#495469"/>
<path d="M92.9205 139.229L104.272 132.659C104.847 132.327 105.314 132.592 105.316 133.254L105.353 146.33C105.354 146.992 104.89 147.798 104.316 148.13L92.9642 154.7C92.3899 155.033 91.924 154.765 91.9221 154.104L91.8851 141.027C91.8833 140.365 92.3461 139.562 92.9205 139.229Z" fill="#6F7A90"/>
<path d="M98.3948 137.737C95.5463 139.385 93.2457 143.38 93.2549 146.662C93.2642 149.943 95.5799 151.269 98.4285 149.62C101.277 147.971 103.578 143.974 103.568 140.692C103.559 137.411 101.243 136.088 98.3948 137.737Z" fill="#81ABEE"/>
<path d="M78.7911 115.27L82.031 113.383L91.9229 119.108L91.908 124.367L88.6681 126.254L78.7762 120.529L78.7911 115.27Z" fill="#495469"/>
<path d="M86.5383 121.808C86.6402 121.414 86.8125 121.01 86.9381 120.783C87.0731 120.54 87.0904 120.509 87.2736 120.242C87.3682 120.104 87.55 119.892 87.5515 119.891C87.6439 119.789 87.7702 119.657 87.868 119.562C87.9249 119.506 88.0065 119.437 88.0668 119.385C88.2131 119.259 88.4517 119.094 88.5213 119.051C88.8247 118.866 89.0795 118.712 89.6425 118.537C89.8258 118.481 90.2097 118.383 90.7219 118.369C90.9312 118.363 91.3537 118.371 91.8325 118.495C91.9741 118.531 92.1617 118.587 92.297 118.643C92.479 118.718 92.714 118.835 92.8877 118.927L100.822 123.55C100.266 123.226 99.4997 123.262 98.6495 123.737C96.9206 124.703 95.4991 127.115 95.4746 129.124C95.4621 130.145 95.8128 130.865 96.3877 131.2L88.4532 126.578C88.3224 126.498 88.1486 126.389 88.0281 126.294C87.8759 126.174 87.6832 126 87.5464 125.863C87.3811 125.697 87.1188 125.366 86.9581 125.078C86.8752 124.929 86.7748 124.726 86.7086 124.569C86.6536 124.439 86.5904 124.26 86.5551 124.123C86.511 123.952 86.4574 123.723 86.4344 123.548C86.4009 123.293 86.4003 123.255 86.3932 122.888C86.3978 122.629 86.4185 122.271 86.5383 121.808Z" fill="#E9A35D"/>
<path d="M98.6484 123.739C99.4986 123.264 100.265 123.227 100.821 123.552C100.952 123.632 101.122 123.745 101.246 123.836C101.325 123.893 101.423 123.979 101.496 124.042C101.534 124.075 101.735 124.252 101.961 124.533C102.421 125.103 102.608 125.661 102.67 125.845C102.776 126.162 102.824 126.478 102.84 126.581C102.858 126.705 102.88 126.919 102.881 127.241C102.881 127.244 102.876 127.572 102.834 127.838C102.777 128.193 102.735 128.331 102.673 128.542C102.561 128.916 102.344 129.375 102.121 129.711C101.84 130.134 101.584 130.423 101.207 130.744C100.995 130.925 100.755 131.076 100.753 131.078C100.64 131.148 100.374 131.312 100.126 131.412C99.7484 131.565 99.6773 131.584 99.3132 131.672C99.1362 131.715 98.893 131.736 98.7118 131.754C98.5573 131.768 98.3488 131.769 98.1943 131.753C97.7682 131.711 97.7682 131.711 97.3966 131.623C97.2677 131.592 97.0992 131.537 96.9771 131.486C96.7957 131.411 96.5603 131.294 96.3866 131.202C95.8117 130.867 95.461 130.147 95.4734 129.126C95.498 127.117 96.9194 124.705 98.6484 123.739Z" fill="#F8D6B5"/>
<path d="M56.0885 104.426C56.089 104.245 56.1128 104.091 56.1553 103.957C56.1656 103.926 56.1769 103.896 56.1894 103.867C56.2295 103.772 56.2807 103.69 56.3428 103.621C56.3947 103.563 56.4539 103.514 56.5191 103.476L59.2109 101.908C59.1456 101.946 59.0865 101.995 59.0345 102.053C58.9724 102.121 58.9213 102.204 58.881 102.298C58.8687 102.328 58.8573 102.358 58.8471 102.389C58.8045 102.523 58.7807 102.677 58.7803 102.858L58.7614 109.526L56.0696 111.094L56.0885 104.426Z" fill="#495469"/>
<path d="M56.5931 97.3946C56.8326 97.2552 57.0956 97.1563 57.3785 97.0998C57.7917 97.018 58.248 97.0263 58.7361 97.1336C59.2244 97.241 59.7422 97.4474 60.2742 97.7553L77.762 107.877C78.1401 108.096 78.5112 108.358 78.869 108.656C79.1825 108.916 79.4858 109.204 79.7746 109.513C80.2128 109.98 80.6185 110.496 80.9832 111.043C81.3922 111.658 81.7495 112.312 82.0428 112.984C82.3197 113.621 82.5398 114.275 82.6891 114.924C82.7971 115.39 82.869 115.855 82.9002 116.307C82.9124 116.483 82.9184 116.658 82.9179 116.83L82.899 123.497L80.2073 125.065L80.2262 118.398C80.2267 118.226 80.2207 118.052 80.2085 117.875C80.1773 117.423 80.1054 116.958 79.9973 116.492C79.8482 115.843 79.628 115.19 79.3512 114.552C79.0578 113.88 78.7005 113.226 78.2914 112.612C77.9267 112.064 77.521 111.548 77.0829 111.081C76.794 110.772 76.4907 110.485 76.1774 110.224C75.8195 109.927 75.4484 109.664 75.0703 109.445L57.5825 99.3235C57.0504 99.0155 56.5326 98.8092 56.0444 98.7018C55.5562 98.5945 55.1 98.5862 54.6867 98.668C54.4038 98.7245 54.1409 98.8233 53.9013 98.9629L56.5931 97.3946Z" fill="#A2ABBE"/>
<path d="M52.3744 108.956L52.3932 102.288C52.3955 101.471 52.543 100.766 52.8077 100.205C53.2042 99.3599 53.8607 98.8331 54.6871 98.6682C55.1003 98.5864 55.5566 98.5947 56.0448 98.702C56.5329 98.8093 57.0508 99.0157 57.5828 99.3237L75.0706 109.445C75.78 109.856 76.4645 110.42 77.0832 111.081C78.013 112.073 78.7967 113.281 79.3515 114.553C79.6283 115.19 79.8485 115.843 79.9976 116.492C80.148 117.14 80.2283 117.785 80.2265 118.398L80.2077 125.066L76.5123 122.927L76.5312 116.259C76.5319 116.018 76.4915 115.776 76.4178 115.53C76.3079 115.163 76.1191 114.789 75.8824 114.468C75.764 114.308 75.6357 114.162 75.4984 114.032C75.3611 113.904 75.216 113.793 75.0586 113.701L57.5708 103.579C57.3613 103.459 57.1717 103.397 56.9962 103.381C56.7332 103.355 56.5032 103.442 56.3428 103.622C56.2616 103.711 56.199 103.825 56.1554 103.958C56.1128 104.092 56.089 104.246 56.0885 104.427L56.0697 111.095C56.0697 111.102 52.3743 108.963 52.3744 108.956Z" fill="#495469"/>
<path d="M45.2699 117.499L49.1044 119.719L49.1045 114.059L45.27 111.84L45.2699 117.499Z" fill="#2E3648"/>
<path d="M52.1126 117.396C52.1126 116.324 52.8637 115.889 53.7902 116.425C54.7168 116.961 55.4678 118.265 55.4678 119.338C55.4678 120.41 54.7167 120.845 53.7901 120.309C52.8637 119.773 52.1126 118.469 52.1126 117.396Z" fill="#2E3648"/>
<path d="M52.1126 123.531C52.1126 122.458 52.8637 122.024 53.7902 122.56C54.7168 123.096 55.4678 124.4 55.4678 125.473C55.4678 126.545 54.7167 126.98 53.7901 126.444C52.8637 125.907 52.1126 124.603 52.1126 123.531Z" fill="#2E3648"/>
<path d="M52.1126 129.523C52.1126 128.45 52.8637 128.016 53.7902 128.552C54.7168 129.088 55.4678 130.392 55.4678 131.465C55.4678 132.537 54.7167 132.972 53.7901 132.436C52.8637 131.9 52.1126 130.595 52.1126 129.523Z" fill="#2E3648"/>
<path d="M45.1106 125.958C45.1106 126.997 45.8378 128.26 46.7351 128.779L46.8411 128.841C47.7384 129.36 48.4657 128.939 48.4657 127.9L48.4658 124.448C48.4658 123.41 47.7384 122.147 46.8412 121.628L46.7352 121.566C45.838 121.047 45.1106 121.468 45.1106 122.507V125.958Z" fill="#2E3648"/>
<path d="M129.499 66.8543L129.503 65.1488L131.537 54.9899L129.529 53.7598L125.505 55.9625L125.477 69.055C125.475 69.9357 125.807 70.5328 126.319 70.7265L128.107 71.8409L128.333 70.9981L128.641 69.4624C129.156 68.7075 129.497 67.741 129.499 66.8543Z" fill="#F196A5"/>
<path d="M129.489 71.8052C128.377 72.4143 127.479 71.7333 127.483 70.2875L127.511 57.1949L131.535 54.9922L131.507 68.0847C131.505 69.5326 130.601 71.1961 129.489 71.8052Z" fill="#E14761"/>
<path d="M123.569 59.9821L115.347 47.7363L131.281 38.6119V38.6139C132.24 38.0048 133.593 38.0587 135.096 38.9174C137.998 40.579 140.351 44.619 140.351 47.942C140.351 49.5736 139.783 50.7259 138.862 51.2831V51.285L138.828 51.305C138.816 51.313 138.802 51.319 138.79 51.327L123.569 59.9821Z" fill="#3D75E4"/>
<path d="M100.56 47.9511L102.274 46.9506C103.509 46.2496 105.052 46.0819 106.774 46.5132C112.645 46.5512 118.452 45.2351 123.729 42.663C123.769 42.643 123.809 42.623 123.852 42.6031C123.86 42.5991 123.868 42.5951 123.876 42.5911L123.896 42.5811L123.898 42.5831C124.847 42.1817 126.085 42.3175 127.443 43.0943C130.428 44.8038 132.849 48.9596 132.849 52.3785C132.849 54.102 132.232 55.3082 131.239 55.8614C126.367 59.1824 122.349 63.5879 119.505 68.7202C119.227 69.5929 118.828 70.3358 118.329 70.9409L118.27 71.0528L118.256 71.0308C117.886 71.4622 117.463 71.8216 116.994 72.1012H116.996L116.939 72.1332C116.931 72.1372 116.923 72.1431 116.915 72.1471L115.37 73.0418C115.368 73.0438 115.364 73.0458 115.362 73.0458L115.348 73.0538V73.0518C113.473 74.1162 110.887 73.9564 108.033 72.3229C102.307 69.0438 97.662 61.0716 97.662 54.5154C97.664 51.3241 98.7678 49.0595 100.56 47.9511Z" fill="#C0D6F6"/>
<path d="M100.702 64.6523C96.6522 57.698 96.6523 50.181 100.702 47.8626C104.752 45.5442 111.318 49.3025 115.367 56.2568C119.417 63.2112 119.417 70.7282 115.367 73.0465C111.317 75.3649 104.751 71.6067 100.702 64.6523Z" fill="#81ABEE"/>
<path d="M101.602 64.1375C98.0487 58.0361 98.0486 51.4412 101.601 49.4074C105.154 47.3736 110.914 50.671 114.467 56.7725C118.02 62.8739 118.02 69.4688 114.467 71.5026C110.915 73.5364 105.155 70.2389 101.602 64.1375Z" fill="#3D75E4"/>
<path d="M115.988 59.954L109.173 62.7279L106.673 58.2985L112.447 53.8711C113.932 55.6684 115.162 57.7813 115.988 59.954Z" fill="#E14761"/>
<path d="M106.749 61.1908C106.04 59.9721 106.04 58.6546 106.75 58.2482C107.46 57.8418 108.611 58.5003 109.32 59.719C110.03 60.9378 110.03 62.2553 109.32 62.6617C108.61 63.0681 107.459 62.4096 106.749 61.1908Z" fill="#F196A5"/>
<path d="M126.513 66.9684L126.442 66.9285C126.179 66.7787 125.963 66.3733 125.963 66.0258L125.955 63.5016C125.953 63.1521 126.167 62.9923 126.43 63.1421L126.501 63.1821C126.765 63.3318 126.98 63.7372 126.98 64.0847L126.988 66.609C126.99 66.9565 126.777 67.1182 126.513 66.9684Z" fill="#E14761"/>
<path d="M163.147 78.9124C164.673 79.8066 165.922 81.9583 165.894 83.7188L165.866 95.5672C165.866 97.3277 164.618 98.0543 163.091 97.1601L156.987 93.6111C156.959 93.6391 156.876 93.667 156.793 93.667L148.995 94.4774C148.884 94.4774 148.773 94.4774 148.69 94.4215C148.523 94.3097 148.44 94.0862 148.551 93.8067L150.05 89.5592L146.748 87.631C145.221 86.7368 143.973 84.5851 144 82.8246L144.028 70.9762C144.028 69.2157 145.277 68.4891 146.803 69.3834L163.147 78.9124Z" fill="#E9A35D"/>
<path d="M171.993 76.344C173.103 76.9867 174.019 78.5795 174.019 79.8929L173.991 88.6116C173.991 89.897 173.075 90.4279 171.938 89.7852L169.496 88.36L170.578 92.7473C170.661 93.0547 170.606 93.1665 170.467 93.0827C170.411 93.0547 170.328 92.9709 170.245 92.8591L164.529 85.5936C164.473 85.5097 164.418 85.4538 164.39 85.37L159.895 82.7712C158.785 82.1284 157.869 80.5077 157.869 79.2222L157.897 70.5036C157.897 69.2181 158.813 68.6872 159.95 69.3299L171.993 76.344Z" fill="#3D75E4"/>
<path d="M165.923 78.491C166.645 78.9102 167.228 79.9162 167.228 80.7545C167.228 81.5928 166.645 81.9282 165.923 81.509C165.202 81.0898 164.619 80.0838 164.619 79.2455C164.619 78.4072 165.202 78.0718 165.923 78.491Z" fill="#C0D6F6"/>
<path d="M169.916 80.8113C170.638 81.2305 171.221 82.2365 171.221 83.0748C171.221 83.9131 170.638 84.2485 169.916 83.8293C169.195 83.4101 168.612 82.4041 168.612 81.5658C168.612 80.7275 169.195 80.3922 169.916 80.8113Z" fill="#C0D6F6"/>
<path d="M161.927 76.1746C162.649 76.5938 163.231 77.5998 163.231 78.4381C163.231 79.2764 162.649 79.6118 161.927 79.1926C161.206 78.7734 160.623 77.7674 160.623 76.9291C160.623 76.0908 161.206 75.7554 161.927 76.1746Z" fill="#C0D6F6"/>
</g>
<defs>
<radialGradient id="paint0_radial" cx="0" cy="0" r="1" gradientUnits="userSpaceOnUse" gradientTransform="translate(147.5 98.0336) rotate(90) scale(85.9672 127.363)">
<stop stop-color="#3D75E4" stop-opacity="0.64"/>
<stop offset="1" stop-color="#3D75E4" stop-opacity="0"/>
</radialGradient>
<clipPath id="clip0">
<rect width="295" height="184" rx="16" fill="white"/>
</clipPath>
</defs>
</svg>
