<svg width="40" height="40" viewBox="0 0 40 40" fill="none" xmlns="http://www.w3.org/2000/svg">
<circle cx="20" cy="20" r="20" fill="#5085F1"/>
<path d="M20.0005 22C17.239 22 15.0005 19.7614 15.0005 17C15.0005 14.2386 17.239 12 20.0005 12C22.7619 12 25.0005 14.2386 25.0005 17C25.0005 19.7614 22.7619 22 20.0005 22ZM20.0005 20C21.6573 20 23.0005 18.6569 23.0005 17C23.0005 15.3431 21.6573 14 20.0005 14C18.3436 14 17.0005 15.3431 17.0005 17C17.0005 18.6569 18.3436 20 20.0005 20ZM25.7552 26.3616C26.1388 26.7457 26.1278 27.3577 25.7305 27.7287C25.3332 28.0996 24.7001 28.0889 24.3165 27.7048C22.0146 25.4003 18.2162 25.3362 15.8325 27.5616C15.8097 27.583 15.8097 27.583 15.787 27.6045C15.3937 27.9794 14.7606 27.975 14.3728 27.5948C13.9851 27.2146 13.9896 26.6024 14.3829 26.2276C14.4129 26.1991 14.4129 26.1991 14.4432 26.1707C17.6214 23.2034 22.686 23.2889 25.7552 26.3616Z" fill="white"/>
</svg>
