<svg width="32" height="32" viewBox="0 0 32 32" fill="none" xmlns="http://www.w3.org/2000/svg">
<path d="M1 8C1 4.13401 4.13401 1 8 1H24C27.866 1 31 4.13401 31 8V16C31 16.5523 30.5523 17 30 17C29.4477 17 29 16.5523 29 16V8C29 5.23858 26.7614 3 24 3H8C5.23858 3 3 5.23858 3 8V24C3 26.7614 5.23858 29 8 29H16C16.5523 29 17 29.4477 17 30C17 30.5523 16.5523 31 16 31H8C4.13401 31 1 27.866 1 24V8Z" fill="#3D75E4"/>
<path d="M15 23C15 22.4477 15.4477 22 16 22H22V16C22 15.4477 22.4477 15 23 15C23.5523 15 24 15.4477 24 16V22H30C30.5523 22 31 22.4477 31 23C31 23.5523 30.5523 24 30 24H24V30C24 30.5523 23.5523 31 23 31C22.4477 31 22 30.5523 22 30V24H16C15.4477 24 15 23.5523 15 23Z" fill="#3D75E4"/>
</svg>
