<svg width="33" height="32" viewBox="0 0 33 32" fill="none" xmlns="http://www.w3.org/2000/svg">
<path d="M6.00195 3C5.44967 3 5.00195 3.44772 5.00195 4V28C5.00195 28.5523 5.44967 29 6.00195 29H26.002C26.5542 29 27.002 28.5523 27.002 28V13C27.002 12.4477 27.4497 12 28.002 12C28.5542 12 29.002 12.4477 29.002 13V28C29.002 29.6569 27.6588 31 26.002 31H6.00195C4.3451 31 3.00195 29.6569 3.00195 28V4C3.00195 2.34315 4.3451 1 6.00195 1H21.002C25.4202 1 29.002 4.58172 29.002 9V10C29.002 10.5523 28.5542 11 28.002 11H20.002C19.4497 11 19.002 10.5523 19.002 10V5C19.002 4.44772 19.4497 4 20.002 4C20.5542 4 21.002 4.44772 21.002 5V9H27.002C27.002 5.68629 24.3157 3 21.002 3H6.00195Z" fill="#3D75E4"/>
<path d="M22.5083 15.2929C22.8988 15.6834 22.8988 16.3166 22.5083 16.7071L16.1083 23.1071C15.7178 23.4976 15.0846 23.4976 14.6941 23.1071L11.4941 19.9071C11.1035 19.5166 11.1035 18.8834 11.4941 18.4929C11.8846 18.1024 12.5178 18.1024 12.9083 18.4929L15.4012 20.9858L21.0941 15.2929C21.4846 14.9024 22.1178 14.9024 22.5083 15.2929Z" fill="#3D75E4"/>
</svg>
