<svg width="32" height="32" viewBox="0 0 32 32" fill="none" xmlns="http://www.w3.org/2000/svg">
<path fill-rule="evenodd" clip-rule="evenodd" d="M0.600098 6.40002C0.600098 5.84774 1.04781 5.40002 1.6001 5.40002H30.4001C30.9524 5.40002 31.4001 5.84774 31.4001 6.40002C31.4001 6.95231 30.9524 7.40002 30.4001 7.40002H1.6001C1.04781 7.40002 0.600098 6.95231 0.600098 6.40002ZM5.4001 12.8C5.4001 12.2477 5.84781 11.8 6.4001 11.8H25.6001C26.1524 11.8 26.6001 12.2477 26.6001 12.8C26.6001 13.3523 26.1524 13.8 25.6001 13.8H6.4001C5.84781 13.8 5.4001 13.3523 5.4001 12.8ZM0.600098 19.2C0.600098 18.6477 1.04781 18.2 1.6001 18.2H30.4001C30.9524 18.2 31.4001 18.6477 31.4001 19.2C31.4001 19.7523 30.9524 20.2 30.4001 20.2H1.6001C1.04781 20.2 0.600098 19.7523 0.600098 19.2ZM5.4001 25.6C5.4001 25.0477 5.84781 24.6 6.4001 24.6H25.6001C26.1524 24.6 26.6001 25.0477 26.6001 25.6C26.6001 26.1523 26.1524 26.6 25.6001 26.6H6.4001C5.84781 26.6 5.4001 26.1523 5.4001 25.6Z" fill="#3D75E4"/>
</svg>
