<svg width="32" height="32" viewBox="0 0 32 32" fill="none" xmlns="http://www.w3.org/2000/svg">
<path fill-rule="evenodd" clip-rule="evenodd" d="M0.600098 6.40002C0.600098 5.84774 1.04781 5.40002 1.6001 5.40002H30.4001C30.9524 5.40002 31.4001 5.84774 31.4001 6.40002C31.4001 6.95231 30.9524 7.40002 30.4001 7.40002H1.6001C1.04781 7.40002 0.600098 6.95231 0.600098 6.40002ZM7.0001 12.8C7.0001 12.2477 7.44781 11.8 8.0001 11.8H30.4001C30.9524 11.8 31.4001 12.2477 31.4001 12.8C31.4001 13.3523 30.9524 13.8 30.4001 13.8H8.0001C7.44781 13.8 7.0001 13.3523 7.0001 12.8ZM0.600098 19.2C0.600098 18.6477 1.04781 18.2 1.6001 18.2H30.4001C30.9524 18.2 31.4001 18.6477 31.4001 19.2C31.4001 19.7523 30.9524 20.2 30.4001 20.2H1.6001C1.04781 20.2 0.600098 19.7523 0.600098 19.2ZM7.0001 25.6C7.0001 25.0477 7.44781 24.6 8.0001 24.6H30.4001C30.9524 24.6 31.4001 25.0477 31.4001 25.6C31.4001 26.1523 30.9524 26.6 30.4001 26.6H8.0001C7.44781 26.6 7.0001 26.1523 7.0001 25.6Z" fill="#3D75E4"/>
</svg>
