<svg width="32" height="32" viewBox="0 0 32 32" fill="none" xmlns="http://www.w3.org/2000/svg">
<path fill-rule="evenodd" clip-rule="evenodd" d="M0.600098 6.40002C0.600098 5.84774 1.04781 5.40002 1.6001 5.40002H30.4001C30.9524 5.40002 31.4001 5.84774 31.4001 6.40002C31.4001 6.95231 30.9524 7.40002 30.4001 7.40002H1.6001C1.04781 7.40002 0.600098 6.95231 0.600098 6.40002ZM0.600098 12.8C0.600098 12.2477 1.04781 11.8 1.6001 11.8H24.0001C24.5524 11.8 25.0001 12.2477 25.0001 12.8C25.0001 13.3523 24.5524 13.8 24.0001 13.8H1.6001C1.04781 13.8 0.600098 13.3523 0.600098 12.8ZM0.600098 19.2C0.600098 18.6477 1.04781 18.2 1.6001 18.2H30.4001C30.9524 18.2 31.4001 18.6477 31.4001 19.2C31.4001 19.7523 30.9524 20.2 30.4001 20.2H1.6001C1.04781 20.2 0.600098 19.7523 0.600098 19.2ZM0.600098 25.6C0.600098 25.0477 1.04781 24.6 1.6001 24.6H24.0001C24.5524 24.6 25.0001 25.0477 25.0001 25.6C25.0001 26.1523 24.5524 26.6 24.0001 26.6H1.6001C1.04781 26.6 0.600098 26.1523 0.600098 25.6Z" fill="#3D75E4"/>
</svg>
