<svg width="32" height="32" viewBox="0 0 32 32" fill="none" xmlns="http://www.w3.org/2000/svg">
<path d="M10.2243 5.58095C10.6556 5.23594 10.7255 4.60665 10.3805 4.17539C10.0355 3.74413 9.40618 3.67421 8.97491 4.01922L0.974914 10.4192C0.737699 10.609 0.599609 10.8963 0.599609 11.2001C0.599609 11.5039 0.737699 11.7912 0.974914 11.981L8.97491 18.381C9.40618 18.726 10.0355 18.656 10.3805 18.2248C10.7255 17.7935 10.6556 17.1642 10.2243 16.8192L4.45022 12.2H21.8992C26.0993 12.2 29.3992 15.3902 29.3992 19.2C29.3992 23.0097 26.0993 26.2 21.8992 26.2C21.3469 26.2 20.8992 26.6477 20.8992 27.2C20.8992 27.7522 21.3469 28.2 21.8992 28.2C27.0879 28.2 31.3992 24.2268 31.3992 19.2C31.3992 14.1731 27.0879 10.2 21.8992 10.2H4.45056L10.2243 5.58095Z" fill="#3D75E4"/>
</svg>
