<svg width="32" height="32" viewBox="0 0 32 32" fill="none" xmlns="http://www.w3.org/2000/svg">
<path fill-rule="evenodd" clip-rule="evenodd" d="M0 6C0 4.34314 1.34315 3 3 3H29C30.6569 3 32 4.34315 32 6V8.11111C32 9.76797 30.6569 11.1111 29 11.1111H3C1.34315 11.1111 0 9.76797 0 8.11111V6ZM3 5C2.44771 5 2 5.44771 2 6V8.11111C2 8.6634 2.44772 9.11111 3 9.11111H29C29.5523 9.11111 30 8.6634 30 8.11111V6C30 5.44772 29.5523 5 29 5H3ZM3.72727 13C4.27956 13 4.72727 13.4477 4.72727 14V24C4.72727 25.6569 6.07042 27 7.72727 27H24.2727C25.9296 27 27.2727 25.6569 27.2727 24V14C27.2727 13.4477 27.7204 13 28.2727 13C28.825 13 29.2727 13.4477 29.2727 14V24C29.2727 26.7614 27.0342 29 24.2727 29H7.72727C4.96585 29 2.72727 26.7614 2.72727 24V14C2.72727 13.4477 3.17499 13 3.72727 13ZM12.2727 15C12.2727 14.4477 12.7204 14 13.2727 14H18.7273C19.2796 14 19.7273 14.4477 19.7273 15C19.7273 15.5523 19.2796 16 18.7273 16H13.2727C12.7204 16 12.2727 15.5523 12.2727 15Z" fill="#3D75E4"/>
</svg>
