<svg width="32" height="32" viewBox="0 0 32 32" fill="none" xmlns="http://www.w3.org/2000/svg">
<path d="M13 9C13 10.1046 12.1046 11 11 11C9.89543 11 9 10.1046 9 9C9 7.89543 9.89543 7 11 7C12.1046 7 13 7.89543 13 9Z" fill="#3D75E4"/>
<path d="M9 24C9.55228 24 10 23.5523 10 23C10 22.4477 9.55228 22 9 22C8.44772 22 8 22.4477 8 23C8 23.5523 8.44772 24 9 24Z" fill="#3D75E4"/>
<path d="M22 18.5C22 19.3284 21.3284 20 20.5 20C19.6716 20 19 19.3284 19 18.5C19 17.6716 19.6716 17 20.5 17C21.3284 17 22 17.6716 22 18.5Z" fill="#3D75E4"/>
<path d="M23 8C23.5523 8 24 7.55228 24 7C24 6.44772 23.5523 6 23 6C22.4477 6 22 6.44772 22 7C22 7.55228 22.4477 8 23 8Z" fill="#3D75E4"/>
<path fill-rule="evenodd" clip-rule="evenodd" d="M8 0C5.23858 0 3 2.23858 3 5V27C3 29.7614 5.23858 32 8 32H14.007C15.3925 32 16.7159 31.4251 17.6615 30.4124L27.6545 19.7102C28.5191 18.7843 29 17.5647 29 16.2978V5C29 2.23858 26.7614 0 24 0H8ZM17 2H8C6.34315 2 5 3.34315 5 5V16H13.1272C13.4055 16 13.6711 15.8841 13.8604 15.68L16.7332 12.5828C16.9047 12.3979 17 12.155 17 11.9028V2ZM13 30H8C6.34315 30 5 28.6569 5 27V18H13V30ZM15 29.8309V17.3437C15.1156 17.2513 15.2248 17.15 15.3267 17.0401L18.1465 14H27V16.2978C27 17.0579 26.7115 17.7897 26.1927 18.3453L16.1997 29.0474C15.8655 29.4053 15.4527 29.6721 15 29.8309ZM27 12V5C27 3.34315 25.6569 2 24 2H19V11.9028C19 11.9352 18.9995 11.9676 18.9984 12H27Z" fill="#3D75E4"/>
</svg>
