<svg width="32" height="32" viewBox="0 0 32 32" fill="none" xmlns="http://www.w3.org/2000/svg">
<path fill-rule="evenodd" clip-rule="evenodd" d="M2.5014 1.12511C2.16389 1.31253 1.96441 1.67736 1.98883 2.06252C2.01325 2.44768 2.25722 2.78441 2.6157 2.92774C3.42965 3.25319 3.99261 3.74045 4.67618 4.33212C4.8832 4.5113 5.10128 4.70007 5.34075 4.89681C6.34438 5.72136 7.56452 6.49927 9.48994 6.49927C10.6565 6.49927 11.6491 6.17078 12.268 5.44461C12.904 4.6983 12.9619 3.74864 12.69 2.93304C12.1573 1.33589 10.3494 -0.000732422 7.98932 -0.000732422C6.28345 -0.000732422 4.93778 0.265815 4.0055 0.539902C3.5396 0.676873 3.17715 0.815657 2.92455 0.923873C2.79822 0.977988 2.69929 1.02449 2.62853 1.05936C2.59315 1.07679 2.5648 1.09132 2.54358 1.10245L2.51711 1.11652L2.5079 1.12152L2.50431 1.1235L2.50277 1.12435C2.50184 1.12487 3.31246 2.58443 2.5014 1.12511ZM5.33357 2.26638C5.61691 2.49255 5.87708 2.71942 6.11813 2.9296C6.29192 3.08115 6.45578 3.22403 6.61121 3.35173C7.43334 4.02717 8.21403 4.49927 9.48994 4.49927C10.3242 4.49927 10.6446 4.26526 10.7448 4.14768C10.8279 4.05024 10.895 3.8749 10.7918 3.5655C10.5741 2.91265 9.63089 1.99927 7.98932 1.99927C6.92678 1.99927 6.03593 2.11712 5.33357 2.26638Z" fill="#3D75E4"/>
<path fill-rule="evenodd" clip-rule="evenodd" d="M12.321 6.99722C13.6288 5.99275 15.4903 6.23599 16.5005 7.511C19.2803 6.83864 22.8948 6.69676 25.9362 7.64888C27.5697 8.16024 29.0922 9.0049 30.2102 10.3095C31.3413 11.6295 32 13.3534 32 15.4993C32 17.8711 31.1007 20.2584 29.7548 22.4115C29.3596 23.0436 28.9228 23.6607 28.4532 24.2572L31.5166 28.2586C32.3127 29.2983 32.0944 30.7896 31.0337 31.5579C30.0381 32.279 28.6532 32.1021 27.871 31.1539L25.066 27.7536C24.9102 27.8854 24.7533 28.0148 24.5955 28.1415C22.6285 29.7222 20.4781 30.9437 18.4798 31.5265C16.5154 32.0994 14.4637 32.1132 12.9773 30.8932C11.9406 30.0423 11.4886 29.0334 11.3924 27.9734C11.3023 26.981 11.5304 25.9754 11.7353 25.1266L11.746 25.0822C12.1946 23.2246 12.4797 22.0436 11.6194 21.0116C11.3146 20.646 10.8758 20.4983 10.0704 20.6385C9.22921 20.7848 8.23911 21.2105 7.12899 21.7204C7.02122 21.7699 6.912 21.8204 6.80166 21.8714C5.84205 22.3148 4.79663 22.7978 3.86485 23.0352C2.84148 23.2959 1.5181 23.3663 0.630772 22.2622C-0.110632 21.3396 -0.121757 20.2184 0.204428 19.1962C0.524909 18.1918 1.19822 17.1634 2.04176 16.1908C3.73764 14.2353 6.32826 12.2696 9.03272 10.8758C9.52381 10.6227 10.1272 10.8155 10.3804 11.3064C10.6336 11.7973 10.4407 12.4004 9.94963 12.6535C7.43035 13.9518 5.05492 15.7697 3.55359 17.5008C2.79854 18.3715 2.31545 19.1621 2.11065 19.8039C1.91154 20.4279 2.00624 20.7802 2.19066 21.0097C2.30312 21.1496 2.53915 21.309 3.37068 21.0972C4.11195 20.9083 4.9805 20.508 5.98555 20.0449L6.29354 19.9031C7.36514 19.4109 8.58811 18.8663 9.7272 18.6681C10.9021 18.4636 12.2107 18.5968 13.1565 19.7312C14.6815 21.5606 14.1457 23.7185 13.7598 25.273C13.7323 25.3838 13.7055 25.4915 13.6803 25.5958C13.4686 26.4727 13.3288 27.1736 13.385 27.7927C13.4351 28.3443 13.6435 28.8521 14.247 29.3475C14.9777 29.9472 16.2079 30.1057 17.9194 29.6066C19.597 29.1173 21.5163 28.0498 23.3419 26.5828C25.162 25.1202 26.8408 23.2988 28.0579 21.3517C29.2793 19.3978 29.9992 17.3775 29.9992 15.4993C29.9992 13.7905 29.486 12.5389 28.6906 11.6106C27.8821 10.6671 26.7234 9.99109 25.3382 9.55747C22.9796 8.81911 20.1233 8.83528 17.75 9.28689L23.7865 17.9114C24.5529 19.0063 24.3215 20.5102 23.2614 21.3244C22.2014 22.1386 20.688 21.9747 19.8269 20.9525L11.7624 11.3786C10.6609 10.0709 10.8735 8.10896 12.2296 7.06743L12.321 6.99722ZM26.5421 26.3993L29.4147 29.8815C29.5248 30.0149 29.7197 30.0398 29.8597 29.9383C30.009 29.8302 30.0397 29.6204 29.9277 29.4741L27.1191 25.8056C26.9299 26.007 26.7375 26.205 26.5421 26.3993ZM14.9693 8.80282C14.6425 8.33593 13.9921 8.23595 13.5401 8.58313L13.4487 8.65334C12.9966 9.00051 12.9258 9.6545 13.2929 10.0904L21.3575 19.6643C21.5292 19.8682 21.831 19.9009 22.0424 19.7385C22.2538 19.5761 22.2999 19.2763 22.1471 19.0579L14.9693 8.80282Z" fill="#3D75E4"/>
<path fill-rule="evenodd" clip-rule="evenodd" d="M18.1678 20.0834C18.6637 20.3269 18.8682 20.9262 18.6245 21.4219C18.5431 21.5876 18.5193 21.7021 18.5156 21.7629C18.5156 21.7638 18.5155 21.7646 18.5155 21.7655C18.5705 21.791 18.7119 21.8343 19.0164 21.8075C19.489 21.7657 20.1275 21.5557 20.782 21.1412C21.4365 20.7266 21.8991 20.2391 22.1386 19.8297C22.3294 19.5037 22.3167 19.3571 22.3128 19.33C22.0353 18.8663 22.1769 18.2634 22.6361 17.9725C23.1028 17.6769 23.7209 17.8154 24.0166 18.2819C24.5687 19.1528 24.2683 20.1515 23.8657 20.8395C23.4342 21.577 22.7207 22.2809 21.853 22.8305C20.9853 23.3802 20.0439 23.7245 19.1924 23.7997C18.3982 23.8698 17.3664 23.7149 16.8143 22.8441C16.3227 22.0686 16.5121 21.1843 16.8287 20.54C17.0724 20.0443 17.6719 19.8399 18.1678 20.0834ZM18.5164 21.8C18.5164 21.8 18.5163 21.7996 18.5161 21.7987L18.5164 21.8Z" fill="#3D75E4"/>
</svg>
