<svg width="32" height="32" viewBox="0 0 32 32" fill="none" xmlns="http://www.w3.org/2000/svg">
<path fill-rule="evenodd" clip-rule="evenodd" d="M17.8375 2.42957C21.0774 -0.809853 26.3302 -0.809858 29.5701 2.42956C32.81 5.66899 32.81 10.9211 29.5701 14.1605L14.1572 29.5713C10.9186 32.8096 5.66767 32.8096 2.429 29.5713C-0.811592 26.3312 -0.809382 21.0772 2.43393 17.8397L9.51759 10.7689C11.6936 8.59691 15.2181 8.59839 17.3922 10.7722C19.5699 12.9496 19.5673 16.4806 17.3866 18.6548L11.5899 24.434C11.1865 24.8362 10.5334 24.8353 10.1311 24.4319C9.7289 24.0286 9.72984 23.3755 10.1332 22.9733L15.9299 17.1941C17.3031 15.8251 17.3047 13.6018 15.9335 12.2308C14.5645 10.862 12.3452 10.8611 10.9751 12.2287L3.89146 19.2995C1.45495 21.7316 1.4533 25.6786 3.88776 28.1128C6.32077 30.5455 10.2655 30.5455 12.6985 28.1128L28.1113 12.702C30.5456 10.2681 30.5456 6.32201 28.1113 3.88813C25.6771 1.45425 21.7305 1.45425 19.2963 3.88813L18.0121 5.17218C17.6093 5.57495 16.9561 5.57495 16.5533 5.17218C16.1505 4.76941 16.1505 4.11639 16.5533 3.71362L17.8375 2.42957Z" fill="#3D75E4"/>
</svg>
