<svg width="32" height="32" viewBox="0 0 32 32" fill="none" xmlns="http://www.w3.org/2000/svg">
<path d="M9 19C9 18.4477 8.55228 18 8 18C7.44772 18 7 18.4477 7 19V21C7 21.5523 7.44772 22 8 22C8.55228 22 9 21.5523 9 21V19Z" fill="#3D75E4"/>
<path d="M13 19C13 18.4477 12.5523 18 12 18C11.4477 18 11 18.4477 11 19V21C11 21.5523 11.4477 22 12 22C12.5523 22 13 21.5523 13 21V19Z" fill="#3D75E4"/>
<path d="M16 18C16.5523 18 17 18.4477 17 19V21C17 21.5523 16.5523 22 16 22C15.4477 22 15 21.5523 15 21V19C15 18.4477 15.4477 18 16 18Z" fill="#3D75E4"/>
<path d="M21 19C21 18.4477 20.5523 18 20 18C19.4477 18 19 18.4477 19 19V21C19 21.5523 19.4477 22 20 22C20.5523 22 21 21.5523 21 21V19Z" fill="#3D75E4"/>
<path d="M24 18C24.5523 18 25 18.4477 25 19V21C25 21.5523 24.5523 22 24 22C23.4477 22 23 21.5523 23 21V19C23 18.4477 23.4477 18 24 18Z" fill="#3D75E4"/>
<path fill-rule="evenodd" clip-rule="evenodd" d="M15.9996 0C16.3034 0 16.5907 0.13809 16.7805 0.375305L24.7648 10.3557C24.9116 10.5297 25 10.7545 25 11V13H28C29.1046 13 30 13.8954 30 15V18.2718C30 18.5722 29.9323 18.8688 29.802 19.1394L27.4 24.1282V30C27.4 31.1046 26.5046 32 25.4 32H19C18.4477 32 18 31.5523 18 31V28.4286C18 28.0707 17.7826 27.4241 17.3326 26.8469C16.8815 26.2682 16.3901 26 16 26C15.5865 26 15.0952 26.261 14.66 26.8059C14.2253 27.35 14 27.9935 14 28.4285V30.9991C14 31.5514 13.5523 32 13 32H6.6C5.49543 32 4.6 31.1046 4.6 30V24.1282L2.198 19.1394C2.06767 18.8688 2 18.5722 2 18.2718V15C2 13.8954 2.89543 13 4 13H7V11C7 10.7637 7.08194 10.5466 7.21895 10.3755L15.2188 0.375305C15.4085 0.13809 15.6958 0 15.9996 0ZM25.4 30H20V29H23C23.5523 29 24 28.5523 24 28C24 27.4477 23.5523 27 23 27H19.701C19.5076 26.5084 19.2321 26.0305 18.91 25.6173C18.2754 24.8032 17.2667 24 16 24C14.7567 24 13.7479 24.7432 13.0973 25.5576C12.4462 26.3727 12 27.4435 12 28.4286V30H6.6V29H10C10.5523 29 11 28.5523 11 28C11 27.4477 10.5523 27 10 27H6.6V24.1282C6.6 23.8278 6.53233 23.5312 6.402 23.2606L4 18.2718V15H7C7 15.5523 7.44772 16 8 16C8.55228 16 9 15.5523 9 15H11C11 15.5523 11.4477 16 12 16C12.5523 16 13 15.5523 13 15H15C15 15.5523 15.4477 16 16 16C16.5523 16 17 15.5523 17 15H19C19 15.5523 19.4477 16 20 16C20.5523 16 21 15.5523 21 15V14C21 13.4477 20.5523 13 20 13H9V12H23V15C23 15.5523 23.4477 16 24 16C24.5523 16 25 15.5523 25 15H28V18.2718L25.598 23.2606C25.4677 23.5312 25.4 23.8278 25.4 24.1282V30ZM15 10V9C15 8.44771 14.5523 8 14 8C13.4477 8 13 8.44771 13 9V10H10.0802L15.9996 2.60078L21.919 10H19V9C19 8.44771 18.5523 8 18 8C17.4477 8 17 8.44771 17 9V10H15Z" fill="#3D75E4"/>
</svg>
