<svg width="33" height="32" viewBox="0 0 33 32" fill="none" xmlns="http://www.w3.org/2000/svg">
<path fill-rule="evenodd" clip-rule="evenodd" d="M16.002 1C10.4791 1 6.00195 5.47715 6.00195 11C6.00195 16.5228 10.4791 21 16.002 21C21.5248 21 26.002 16.5228 26.002 11C26.002 5.47715 21.5248 1 16.002 1ZM8.00195 11C8.00195 6.58172 11.5837 3 16.002 3C20.4202 3 24.002 6.58172 24.002 11C24.002 15.4183 20.4202 19 16.002 19C11.5837 19 8.00195 15.4183 8.00195 11Z" fill="#3D75E4"/>
<path d="M3.82308 30.4162C7.12121 27.6588 11.3667 26 16.0022 26C20.6377 26 24.8831 27.6588 28.1813 30.4162C28.605 30.7704 29.2356 30.7141 29.5899 30.2904C29.9441 29.8667 29.8878 29.236 29.4641 28.8818C25.8196 25.8348 21.1238 24 16.0022 24C10.8805 24 6.18477 25.8348 2.54025 28.8818C2.11654 29.236 2.06023 29.8667 2.41447 30.2904C2.76872 30.7141 3.39937 30.7704 3.82308 30.4162Z" fill="#3D75E4"/>
</svg>
