<svg width="32" height="32" viewBox="0 0 32 32" fill="none" xmlns="http://www.w3.org/2000/svg">
<path fill-rule="evenodd" clip-rule="evenodd" d="M7 0C7.55228 0 8 0.447715 8 1V2H15V1C15 0.447715 15.4477 0 16 0C16.5523 0 17 0.447715 17 1V2H24V1C24 0.447715 24.4477 0 25 0C25.5523 0 26 0.447715 26 1V2H29C30.6569 2 32 3.34315 32 5V17C32 18.6569 30.6569 20 29 20H19V30H23C23.5523 30 24 30.4477 24 31C24 31.5523 23.5523 32 23 32H9C8.44771 32 8 31.5523 8 31C8 30.4477 8.44771 30 9 30H13V20H3C1.34315 20 0 18.6569 0 17V5C0 3.34315 1.34315 2 3 2H6V1C6 0.447715 6.44772 0 7 0ZM17 30V20H15V30H17ZM29 18C29.5523 18 30 17.5523 30 17V16H5C4.44772 16 4 15.5523 4 15C4 14.4477 4.44772 14 5 14H30V5C30 4.44772 29.5523 4 29 4H26V5H27C27.5523 5 28 5.44772 28 6C28 6.55228 27.5523 7 27 7H23C22.4477 7 22 6.55228 22 6C22 5.44772 22.4477 5 23 5H24V4H17V5H18C18.5523 5 19 5.44772 19 6C19 6.55228 18.5523 7 18 7H14C13.4477 7 13 6.55228 13 6C13 5.44772 13.4477 5 14 5H15V4H8V5H9C9.55229 5 10 5.44772 10 6C10 6.55228 9.55229 7 9 7H5C4.44772 7 4 6.55228 4 6C4 5.44772 4.44772 5 5 5H6V4H3C2.44772 4 2 4.44772 2 5V17C2 17.5523 2.44772 18 3 18H29Z" fill="#3D75E4"/>
</svg>
