<svg width="32" height="32" viewBox="0 0 32 32" fill="none" xmlns="http://www.w3.org/2000/svg">
<path fill-rule="evenodd" clip-rule="evenodd" d="M5.3999 3.20001C5.3999 2.64773 5.84762 2.20001 6.3999 2.20001H19.1999C21.1625 2.20001 23.0447 2.97965 24.4325 4.36742C25.8203 5.75519 26.5999 7.63741 26.5999 9.60001C26.5999 11.5626 25.8203 13.4448 24.4325 14.8326C24.1714 15.0937 23.8929 15.3332 23.5996 15.5501C24.5014 15.9187 25.3303 16.4652 26.0325 17.1674C27.4203 18.5552 28.1999 20.4374 28.1999 22.4C28.1999 24.3626 27.4203 26.2448 26.0325 27.6326C24.6447 29.0204 22.7625 29.8 20.7999 29.8H6.3999C5.84762 29.8 5.3999 29.3523 5.3999 28.8V3.20001ZM7.3999 4.20001V15H19.1999C20.6321 15 22.0056 14.4311 23.0183 13.4184C24.031 12.4057 24.5999 11.0322 24.5999 9.60001C24.5999 8.16784 24.031 6.79433 23.0183 5.78164C22.0056 4.76894 20.6321 4.20001 19.1999 4.20001H7.3999ZM7.3999 17V27.8H20.7999C22.2321 27.8 23.6056 27.2311 24.6183 26.2184C25.631 25.2057 26.1999 23.8322 26.1999 22.4C26.1999 20.9678 25.631 19.5943 24.6183 18.5816C23.6056 17.5689 22.2321 17 20.7999 17H7.3999Z" fill="#3D75E4"/>
</svg>
