<svg width="32" height="32" viewBox="0 0 32 32" fill="none" xmlns="http://www.w3.org/2000/svg">
<path d="M10.4274 0.0469908C9.18011 -0.225853 8 0.724008 8 2.00079V29.7589H6V27.7588C6 27.2065 5.55228 26.7588 5 26.7588C4.44772 26.7588 4 27.2065 4 27.7588V29.7589H2V12.8913C2 12.5401 2.1843 12.2146 2.4855 12.0338L6.5145 9.61643C6.98808 9.33229 7.14164 8.71803 6.85749 8.24444C6.57334 7.77086 5.95908 7.6173 5.4855 7.90145L1.45651 10.3188C0.552896 10.861 0 11.8375 0 12.8913V30.7589C0 31.3112 0.447715 31.7589 1 31.7589H31C31.5523 31.7589 32 31.3112 32 30.7589V18.7589C32 17.6544 31.1046 16.7589 30 16.7589H22C20.8954 16.7589 20 17.6544 20 18.7589V27.2589C20 27.8112 20.4477 28.2589 21 28.2589C21.5523 28.2589 22 27.8112 22 27.2589V18.7589H30V29.7589H27V27.7588C27 27.2065 26.5523 26.7588 26 26.7588C25.4477 26.7588 25 27.2065 25 27.7588V29.7589H18V27.7588C18 27.2065 17.5523 26.7588 17 26.7588C16.4477 26.7588 16 27.2065 16 27.7588V29.7589H14V27.7588C14 27.2065 13.5523 26.7588 13 26.7588C12.4477 26.7588 12 27.2065 12 27.7588V29.7589H10V2.00079L23.2137 4.89129C23.6742 4.99203 24 5.39727 24 5.86572V14.7584C24 15.3107 24.4477 15.7584 25 15.7584C25.5523 15.7584 26 15.3107 26 14.7584V5.86572C26 4.4544 25.0169 3.23844 23.6411 2.93749L10.4274 0.0469908Z" fill="#3D75E4"/>
<path d="M21 5.75879C21.5523 5.75879 22 6.2065 22 6.75879V9.75879C22 10.3111 21.5523 10.7588 21 10.7588C20.4477 10.7588 20 10.3111 20 9.75879V6.75879C20 6.2065 20.4477 5.75879 21 5.75879Z" fill="#3D75E4"/>
<path d="M18 6.75879C18 6.2065 17.5523 5.75879 17 5.75879C16.4477 5.75879 16 6.2065 16 6.75879V9.75879C16 10.3111 16.4477 10.7588 17 10.7588C17.5523 10.7588 18 10.3111 18 9.75879V6.75879Z" fill="#3D75E4"/>
<path d="M17 12.7588C17.5523 12.7588 18 13.2065 18 13.7588V16.7588C18 17.3111 17.5523 17.7588 17 17.7588C16.4477 17.7588 16 17.3111 16 16.7588V13.7588C16 13.2065 16.4477 12.7588 17 12.7588Z" fill="#3D75E4"/>
<path d="M18 20.7588C18 20.2065 17.5523 19.7588 17 19.7588C16.4477 19.7588 16 20.2065 16 20.7588V23.7588C16 24.3111 16.4477 24.7588 17 24.7588C17.5523 24.7588 18 24.3111 18 23.7588V20.7588Z" fill="#3D75E4"/>
<path d="M14 6.75879C14 6.2065 13.5523 5.75879 13 5.75879C12.4477 5.75879 12 6.2065 12 6.75879V9.75879C12 10.3111 12.4477 10.7588 13 10.7588C13.5523 10.7588 14 10.3111 14 9.75879V6.75879Z" fill="#3D75E4"/>
<path d="M13 12.7588C13.5523 12.7588 14 13.2065 14 13.7588V16.7588C14 17.3111 13.5523 17.7588 13 17.7588C12.4477 17.7588 12 17.3111 12 16.7588V13.7588C12 13.2065 12.4477 12.7588 13 12.7588Z" fill="#3D75E4"/>
<path d="M14 20.7588C14 20.2065 13.5523 19.7588 13 19.7588C12.4477 19.7588 12 20.2065 12 20.7588V23.7588C12 24.3111 12.4477 24.7588 13 24.7588C13.5523 24.7588 14 24.3111 14 23.7588V20.7588Z" fill="#3D75E4"/>
<path d="M6 13.7588C6 13.2065 5.55228 12.7588 5 12.7588C4.44772 12.7588 4 13.2065 4 13.7588V16.7588C4 17.3111 4.44772 17.7588 5 17.7588C5.55228 17.7588 6 17.3111 6 16.7588V13.7588Z" fill="#3D75E4"/>
<path d="M5 19.7588C5.55228 19.7588 6 20.2065 6 20.7588V23.7588C6 24.3111 5.55228 24.7588 5 24.7588C4.44772 24.7588 4 24.3111 4 23.7588V20.7588C4 20.2065 4.44772 19.7588 5 19.7588Z" fill="#3D75E4"/>
<path d="M26 19.7588C26.5523 19.7588 27 20.2065 27 20.7588V23.7588C27 24.3111 26.5523 24.7588 26 24.7588C25.4477 24.7588 25 24.3111 25 23.7588V20.7588C25 20.2065 25.4477 19.7588 26 19.7588Z" fill="#3D75E4"/>
</svg>
