<svg width="32" height="32" viewBox="0 0 32 32" fill="none" xmlns="http://www.w3.org/2000/svg">
<path d="M5 23C5 22.4477 5.44772 22 6 22H9C9.55229 22 10 22.4477 10 23C10 23.5523 9.55229 24 9 24H6C5.44772 24 5 23.5523 5 23Z" fill="#3D75E4"/>
<path d="M22 23C22 22.4477 22.4477 22 23 22H26C26.5523 22 27 22.4477 27 23C27 23.5523 26.5523 24 26 24H23C22.4477 24 22 23.5523 22 23Z" fill="#3D75E4"/>
<path fill-rule="evenodd" clip-rule="evenodd" d="M8 2C4.68629 2 2 4.68629 2 8V14H1C0.447715 14 0 14.4477 0 15C0 15.5523 0.447715 16 1 16H2V28C2 29.1046 2.89543 30 4 30H6C7.10457 30 8 29.1046 8 28H24C24 29.1046 24.8954 30 26 30H28C29.1046 30 30 29.1046 30 28V16H31C31.5523 16 32 15.5523 32 15C32 14.4477 31.5523 14 31 14H30V8C30 4.68629 27.3137 2 24 2H8ZM28 8C28 5.79086 26.2091 4 24 4H8C5.79086 4 4 5.79086 4 8H28ZM4 10V18H28V10H17V15C17 15.5523 16.5523 16 16 16C15.4477 16 15 15.5523 15 15V10H4ZM28 20H4V28H6C6 26.8954 6.89543 26 8 26H24C25.1046 26 26 26.8954 26 28H28V20Z" fill="#3D75E4"/>
</svg>
