<svg width="32" height="32" viewBox="0 0 32 32" fill="none" xmlns="http://www.w3.org/2000/svg">
<path d="M10 1C10 0.447715 9.55229 0 9 0C8.44771 0 8 0.447715 8 1V4C8 4.55228 8.44771 5 9 5L9.00221 5L20 5C20.5523 5 21 4.55228 21 4C21 3.44771 20.5523 3 20 3L10 3V1Z" fill="#3D75E4"/>
<path d="M2 8C2 6.34315 3.34315 5 5 5H6C6.55228 5 7 4.55228 7 4C7 3.44772 6.55228 3 6 3H5C2.23858 3 0 5.23857 0 8V27C0 29.7614 2.23858 32 5 32H27C29.7614 32 32 29.7614 32 27V8C32 5.23858 29.7614 3 27 3H24V1C24 0.447715 23.5523 0 23 0C22.4477 0 22 0.447715 22 1V4C22 4.55228 22.4477 5 23 5H27C28.6569 5 30 6.34315 30 8V27C30 28.6569 28.6569 30 27 30H5C3.34315 30 2 28.6569 2 27V11H28C28.5523 11 29 10.5523 29 10C29 9.44771 28.5523 9 28 9H2V8Z" fill="#3D75E4"/>
<path fill-rule="evenodd" clip-rule="evenodd" d="M8 14C6.34315 14 5 15.3431 5 17V19C5 20.6569 6.34315 22 8 22H12C13.6569 22 15 20.6569 15 19V17C15 15.3431 13.6569 14 12 14H8ZM7 17C7 16.4477 7.44772 16 8 16H12C12.5523 16 13 16.4477 13 17V19C13 19.5523 12.5523 20 12 20H8C7.44772 20 7 19.5523 7 19V17Z" fill="#3D75E4"/>
</svg>
