<svg width="32" height="32" viewBox="0 0 32 32" fill="none" xmlns="http://www.w3.org/2000/svg">
<path d="M29.9648 15C29.8361 13.1754 29.3577 11.4473 28.5962 9.88239L27.7586 10.366C27.2803 10.6421 26.6687 10.4782 26.3926 9.99994C26.3008 9.84099 26.2576 9.66731 26.2584 9.49611C26.2568 9.14884 26.4363 8.81046 26.7586 8.62439L27.59 8.14439C26.5912 6.6736 25.3197 5.40293 23.8483 4.40501L23.3652 5.24164C23.0891 5.71993 22.4775 5.88381 21.9992 5.60767C21.6769 5.4216 21.4974 5.08323 21.4991 4.73596C21.4982 4.56476 21.5414 4.39107 21.6332 4.23212L22.1128 3.40145C20.5491 2.64136 18.8227 2.1638 17 2.03516V3C17 3.55228 16.5523 4 16 4C15.4477 4 15 3.55228 15 3V2.03516C13.1773 2.1638 11.4509 2.64136 9.88723 3.40145L10.3668 4.23212C10.643 4.71041 10.4791 5.322 10.0008 5.59814C9.5225 5.87429 8.91091 5.71041 8.63477 5.23212L8.15569 4.40233C6.68256 5.40066 5.40972 6.67229 4.41 8.14439L5.2414 8.62439C5.71969 8.90054 5.88356 9.51213 5.60742 9.99042C5.33128 10.4687 4.71969 10.6326 4.2414 10.3564L3.40743 9.87495C2.64386 11.4419 2.16414 13.1725 2.03516 15H3C3.55228 15 4 15.4477 4 16C4 16.5523 3.55228 17 3 17H2.03516C2.16374 18.8219 2.64093 20.5475 3.40042 22.1106L4.24261 21.6244C4.7209 21.3483 5.33249 21.5121 5.60863 21.9904C5.70041 22.1494 5.74358 22.3231 5.74276 22.4943C5.74441 22.8415 5.56489 23.1799 5.24261 23.366L4.40564 23.8492C5.40398 25.321 6.67522 26.5927 8.14665 27.5915L8.63318 26.7488C8.90933 26.2706 9.52092 26.1067 9.99921 26.3828C10.3215 26.5689 10.501 26.9073 10.4994 27.2545C10.5002 27.4257 10.457 27.5994 10.3652 27.7584L9.88171 28.5959C11.4468 29.3575 13.1751 29.836 15 29.9648V29C15 28.4477 15.4477 28 16 28C16.5523 28 17 28.4477 17 29V29.9648C18.8264 29.836 20.5562 29.3568 22.1227 28.5939L21.6348 27.7488C21.3586 27.2706 21.5225 26.659 22.0008 26.3828C22.4791 26.1067 23.0907 26.2706 23.3668 26.7488L23.8534 27.5917C25.3269 26.5915 26.5998 25.3175 27.5991 23.8424L26.7574 23.3564C26.2791 23.0803 26.1152 22.4687 26.3914 21.9904C26.6675 21.5121 27.2791 21.3483 27.7574 21.6244L29.3929 22.5687C29.4292 22.5842 29.4649 22.6021 29.4999 22.6223C29.9783 22.8984 30.1422 23.51 29.8661 23.9883C27.1029 28.775 21.9286 32 16 32C7.16344 32 0 24.8366 0 16C0 13.1073 0.767642 10.3939 2.11033 8.05241C2.12053 8.03153 2.13152 8.01085 2.14332 7.99042C2.15565 7.96907 2.16864 7.94834 2.18227 7.92826C3.56831 5.56066 5.54546 3.58115 7.91119 2.19227C7.93969 2.17152 7.96957 2.15207 8.00079 2.13404C8.03163 2.11624 8.06303 2.10026 8.09485 2.08608C10.4267 0.758404 13.1248 0 16 0C18.8752 0 21.5733 0.758406 23.9052 2.08608C23.937 2.10026 23.9684 2.11624 23.9992 2.13404C24.0304 2.15207 24.0603 2.17152 24.0888 2.19227C26.4545 3.58115 28.4317 5.56065 29.8177 7.92825C29.8314 7.94834 29.8444 7.96907 29.8567 7.99042C29.8685 8.01085 29.8795 8.03153 29.8897 8.05242C31.2324 10.3939 32 13.1073 32 16C32 16.5523 31.5523 17 31 17H29C28.4477 17 28 16.5523 28 16C28 15.4477 28.4477 15 29 15H29.9648Z" fill="#3D75E4"/>
<path d="M17 7C17 6.44772 16.5523 6 16 6C15.4477 6 15 6.44772 15 7V15.4338C15 16.1363 15.3686 16.7873 15.971 17.1488L22.9855 21.3575C23.4591 21.6416 24.0733 21.4881 24.3575 21.0145C24.6416 20.5409 24.4881 19.9267 24.0145 19.6425L17 15.4338V7Z" fill="#3D75E4"/>
</svg>
