<svg width="32" height="32" viewBox="0 0 32 32" fill="none" xmlns="http://www.w3.org/2000/svg">
<path fill-rule="evenodd" clip-rule="evenodd" d="M24.9182 2.53409C25.3949 0.788963 23.4938 -0.642057 21.9478 0.298137L11.446 6.6848C10.2301 7.42421 10.1532 9.16034 11.299 10.0043L12.0155 10.532C12.4603 10.8597 13.0867 10.7648 13.4145 10.3201C13.7422 9.87536 13.6473 9.24921 13.2025 8.92154L12.486 8.39381L22.9878 2.00715L19.7815 13.7456L16.9586 11.6138L18.7039 9.24588C19.0317 8.80117 18.9368 8.17502 18.4919 7.84735C18.047 7.51968 17.4207 7.61456 17.0929 8.05927L13.53 12.8933L9.5015 12.9489C8.87545 12.9576 8.28953 13.2586 7.91813 13.7625L6.74913 15.3486C5.85941 14.6933 4.60675 14.8831 3.9512 15.7725L0.390205 20.6039C-0.265356 21.4933 -0.0755297 22.7456 0.814195 23.4009L2.42518 24.5875C3.31491 25.2429 4.56761 25.0531 5.22317 24.1637L8.78417 19.3323C9.43973 18.4429 9.2499 17.1906 8.36018 16.5352L9.52912 14.9491L13.5576 14.8935C14.1836 14.8849 14.7695 14.5838 15.1409 14.0799L15.7715 13.2244L18.5753 15.3417C19.7048 16.1947 21.3389 15.6377 21.7118 14.2725L24.9182 2.53409ZM5.56219 16.9591L6.34755 17.5376C6.3541 17.5426 6.36073 17.5476 6.36744 17.5526L6.37979 17.5615L6.3877 17.5671L7.17318 18.1457L3.61218 22.9771L2.00119 21.7905L5.56219 16.9591Z" fill="#3D75E4"/>
<path fill-rule="evenodd" clip-rule="evenodd" d="M5.98618 29.9996C5.98618 31.1044 6.88209 32 7.98724 32H29.9989C31.1041 32 32 31.1044 32 29.9996V26.999C32 25.8942 31.1041 24.9986 29.9989 24.9986H26.9973V21.998C26.9973 20.8932 26.1014 19.9976 24.9963 19.9976H14.991C13.8858 19.9976 12.9899 20.8932 12.9899 21.998V24.9986H7.98724C6.88209 24.9986 5.98618 25.8942 5.98618 26.999L5.98618 29.9996ZM14.991 24.9986H24.9963V21.998H14.991V24.9986ZM7.98724 26.999V29.9996H17.9926V26.999H7.98724ZM19.9936 26.999V29.9996H29.9989V26.999H19.9936Z" fill="#3D75E4"/>
</svg>
