<svg width="32" height="32" viewBox="0 0 32 32" fill="none" xmlns="http://www.w3.org/2000/svg">
<path fill-rule="evenodd" clip-rule="evenodd" d="M6 1C3.23858 1 1 3.23858 1 6V21C1 23.7614 3.23858 26 6 26H21C23.7614 26 26 23.7614 26 21V6C26 3.23858 23.7614 1 21 1H6ZM3 6C3 4.34315 4.34315 3 6 3H21C22.6569 3 24 4.34315 24 6V21C24 22.6569 22.6569 24 21 24H6C4.34315 24 3 22.6569 3 21V6Z" fill="#3D75E4"/>
<path d="M31 8C31 7.44772 30.5523 7 30 7C29.4477 7 29 7.44772 29 8V22C29 25.866 25.866 29 22 29H10C9.44771 29 9 29.4477 9 30C9 30.5523 9.44771 31 10 31H22C26.9706 31 31 26.9706 31 22V8Z" fill="#3D75E4"/>
</svg>
