<svg width="32" height="32" viewBox="0 0 32 32" fill="none" xmlns="http://www.w3.org/2000/svg">
<path fill-rule="evenodd" clip-rule="evenodd" d="M18.1158 5.1268C18.6619 4.58348 19 3.83122 19 3C19 1.34315 17.6569 0 16 0C14.3431 0 13 1.34315 13 3C13 3.83142 13.3382 4.58385 13.8846 5.1272L11.2741 12.0884C9.96798 12.413 9 13.5935 9 15V15.0709C5.60771 15.5561 3 18.4735 3 22C3 22.5523 3.44772 23 4 23L4 31C4 31.5523 4.44772 32 5 32C5.55228 32 6 31.5523 6 31L6 23H9V24.3821L7.55301 25.1056C7.05903 25.3526 6.8588 25.9532 7.10579 26.4472C7.35278 26.9412 7.95345 27.1414 8.44743 26.8944L16.0002 23.118L23.553 26.8944C24.047 27.1414 24.6477 26.9412 24.8946 26.4472C25.1416 25.9532 24.9414 25.3526 24.4474 25.1056L23 24.3819V23H26V31C26 31.5523 26.4477 32 27 32C27.5523 32 28 31.5523 28 31V23C28.5523 23 29 22.5523 29 22C29 18.4735 26.3923 15.5561 23 15.0709V15C23 13.5937 22.0323 12.4133 20.7265 12.0886L18.1158 5.1268ZM15 3C15 2.44772 15.4477 2 16 2C16.5523 2 17 2.44772 17 3C17 3.55228 16.5523 4 16 4C15.4477 4 15 3.55228 15 3ZM15.6933 6L13.3274 12.3089C13.5724 12.43 13.7985 12.5835 14 12.7639C14.5308 12.2889 15.2316 12 16 12C16.7684 12 17.4692 12.2889 18 12.7639C18.2017 12.5834 18.4279 12.4298 18.673 12.3087L16.3073 6H15.6933ZM20.0167 14.0001C20.0056 14.0003 19.9944 14.0003 19.9833 14.0001C19.4387 14.009 19 14.4533 19 15V22.3819L21 23.3819V15C21 14.4533 20.5613 14.0091 20.0167 14.0001ZM12.0166 14.0001C12.0056 14.0003 11.9946 14.0003 11.9836 14.0001C11.4389 14.0089 11 14.4532 11 15V23.3821L13 22.3821V15C13 14.4533 12.5612 14.009 12.0166 14.0001ZM15 15C15 14.4477 15.4477 14 16 14C16.5523 14 17 14.4477 17 15V21.3819L16.4474 21.1056C16.1659 20.9648 15.8345 20.9648 15.553 21.1056L15 21.3821V15ZM23 17.1V21H26.9C26.5023 19.0409 24.9591 17.4977 23 17.1ZM9 21V17.1C7.04087 17.4977 5.4977 19.0409 5.10002 21H9Z" fill="#3D75E4"/>
<path d="M16 29C15.4477 29 15 28.5523 15 28L15 26C15 25.4477 15.4477 25 16 25C16.5523 25 17 25.4477 17 26L17 28C17 28.5523 16.5523 29 16 29Z" fill="#3D75E4"/>
<path d="M11 28C11 28.5523 11.4477 29 12 29C12.5523 29 13 28.5523 13 28L13 27C13 26.4477 12.5523 26 12 26C11.4477 26 11 26.4477 11 27V28Z" fill="#3D75E4"/>
<path d="M20 29C19.4477 29 19 28.5523 19 28L19 27C19 26.4477 19.4477 26 20 26C20.5523 26 21 26.4477 21 27V28C21 28.5523 20.5523 29 20 29Z" fill="#3D75E4"/>
<path d="M9 29C9 28.4477 8.55228 28 8 28C7.44772 28 7 28.4477 7 29V31C7 31.5523 7.44772 32 8 32H24C24.5523 32 25 31.5523 25 31V29C25 28.4477 24.5523 28 24 28C23.4477 28 23 28.4477 23 29V30H9V29Z" fill="#3D75E4"/>
</svg>
