<svg width="32" height="32" viewBox="0 0 32 32" fill="none" xmlns="http://www.w3.org/2000/svg">
<path d="M12 6C13.1046 6 14 5.55228 14 5C14 4.44772 13.1046 4 12 4C10.8954 4 10 4.44772 10 5C10 5.55228 10.8954 6 12 6Z" fill="#3D75E4"/>
<path d="M17.0005 14C17.0005 13.4477 16.5528 13 16.0005 13C15.4482 13 15.0005 13.4477 15.0005 14V17C15.0005 17.5523 15.4482 18 16.0005 18C16.5528 18 17.0005 17.5523 17.0005 17V14Z" fill="#3D75E4"/>
<path d="M14.3301 21.4998C14.6062 21.9781 14.4423 22.5897 13.9641 22.8658L11.366 24.3658C10.8877 24.642 10.2761 24.4781 9.99995 23.9998C9.72381 23.5215 9.88768 22.9099 10.366 22.6338L12.9641 21.1338C13.4423 20.8576 14.0539 21.0215 14.3301 21.4998Z" fill="#3D75E4"/>
<path d="M18.5003 22.8658C18.022 22.5897 17.8581 21.9781 18.1343 21.4998C18.4104 21.0215 19.022 20.8576 19.5003 21.1338L22.0984 22.6338C22.5767 22.9099 22.7405 23.5215 22.4644 23.9998C22.1883 24.4781 21.5767 24.642 21.0984 24.3658L18.5003 22.8658Z" fill="#3D75E4"/>
<path d="M17 20C17 20.5523 16.5523 21 16 21C15.4477 21 15 20.5523 15 20C15 19.4477 15.4477 19 16 19C16.5523 19 17 19.4477 17 20Z" fill="#3D75E4"/>
<path fill-rule="evenodd" clip-rule="evenodd" d="M16 0C12.8772 0 10.0062 0.458639 7.88008 1.23178C6.82113 1.61685 5.8938 2.09901 5.21251 2.68473C4.53447 3.26767 4 4.04661 4 5C4 5.85124 4.42608 6.56342 5 7.12118V24.8789C4.42358 25.4393 4 26.1493 4 26.9998C4 27.9532 4.53447 28.7321 5.21251 29.3151C5.8938 29.9008 6.82113 30.383 7.88008 30.768C10.0062 31.5412 12.8772 31.9998 16 31.9998C19.1228 31.9998 21.9938 31.5412 24.1199 30.768C25.1789 30.383 26.1062 29.9008 26.7875 29.3151C27.4655 28.7321 28 27.9532 28 26.9998C28 26.1493 27.5764 25.4393 27 24.8789V7.12118C27.5739 6.56342 28 5.85124 28 5C28 4.04661 27.4655 3.26767 26.7875 2.68473C26.1062 2.09901 25.1789 1.61685 24.1199 1.23178C21.9938 0.458639 19.1228 0 16 0ZM6 5C6 4.84882 6.08113 4.57548 6.51636 4.20131C6.94833 3.82992 7.63192 3.45015 8.56357 3.11137C10.4186 2.43679 13.0477 2 16 2C18.9523 2 21.5814 2.43679 23.4364 3.11137C24.3681 3.45015 25.0517 3.82992 25.4836 4.20131C25.9189 4.57548 26 4.84882 26 5C26 5.15118 25.9189 5.42452 25.4836 5.79869C25.0517 6.17008 24.3681 6.54985 23.4364 6.88863C21.5814 7.56321 18.9523 8 16 8C13.0477 8 10.4186 7.56321 8.56357 6.88863C7.63192 6.54985 6.94833 6.17008 6.51636 5.79869C6.08113 5.42452 6 5.15118 6 5ZM6.62044 26.1154C6.87973 25.9102 7.01009 25.6025 6.99944 25.2956C6.99981 25.2844 7 25.2731 7 25.2617V8.41092C7.2806 8.53819 7.57487 8.65724 7.88008 8.76822C10.0062 9.54136 12.8772 10 16 10C19.1228 10 21.9938 9.54136 24.1199 8.76822C24.4251 8.65724 24.7194 8.53819 25 8.41092V25.2745C25 25.2836 25.0001 25.2928 25.0004 25.3018C24.9917 25.6067 25.122 25.9116 25.3796 26.1154C25.9035 26.5298 26 26.8371 26 26.9998C26 27.151 25.9189 27.4243 25.4836 27.7985C25.0517 28.1699 24.3681 28.5497 23.4364 28.8884C21.5814 29.563 18.9523 29.9998 16 29.9998C13.0477 29.9998 10.4186 29.563 8.56357 28.8884C7.63192 28.5497 6.94833 28.1699 6.51636 27.7985C6.08113 27.4243 6 27.151 6 26.9998C6 26.8371 6.09652 26.5298 6.62044 26.1154Z" fill="#3D75E4"/>
</svg>
