<svg width="32" height="32" viewBox="0 0 32 32" fill="none" xmlns="http://www.w3.org/2000/svg">
<path fill-rule="evenodd" clip-rule="evenodd" d="M6.4001 12.2C4.30142 12.2 2.6001 13.9013 2.6001 16C2.6001 18.0987 4.30142 19.8 6.4001 19.8C8.49878 19.8 10.2001 18.0987 10.2001 16C10.2001 13.9013 8.49878 12.2 6.4001 12.2ZM0.600098 16C0.600098 12.7967 3.19685 10.2 6.4001 10.2C9.60335 10.2 12.2001 12.7967 12.2001 16C12.2001 19.2032 9.60335 21.8 6.4001 21.8C3.19685 21.8 0.600098 19.2032 0.600098 16Z" fill="#3D75E4"/>
<path fill-rule="evenodd" clip-rule="evenodd" d="M25.6001 2.59998C23.5014 2.59998 21.8001 4.30129 21.8001 6.39998C21.8001 8.49866 23.5014 10.2 25.6001 10.2C27.6988 10.2 29.4001 8.49866 29.4001 6.39998C29.4001 4.30129 27.6988 2.59998 25.6001 2.59998ZM19.8001 6.39998C19.8001 3.19672 22.3968 0.599976 25.6001 0.599976C28.8033 0.599976 31.4001 3.19672 31.4001 6.39998C31.4001 9.60323 28.8033 12.2 25.6001 12.2C22.3968 12.2 19.8001 9.60323 19.8001 6.39998Z" fill="#3D75E4"/>
<path fill-rule="evenodd" clip-rule="evenodd" d="M25.6001 21.8C23.5014 21.8 21.8001 23.5013 21.8001 25.6C21.8001 27.6987 23.5014 29.4 25.6001 29.4C27.6988 29.4 29.4001 27.6987 29.4001 25.6C29.4001 23.5013 27.6988 21.8 25.6001 21.8ZM19.8001 25.6C19.8001 22.3967 22.3968 19.8 25.6001 19.8C28.8033 19.8 31.4001 22.3967 31.4001 25.6C31.4001 28.8032 28.8033 31.4 25.6001 31.4C22.3968 31.4 19.8001 28.8032 19.8001 25.6Z" fill="#3D75E4"/>
<path fill-rule="evenodd" clip-rule="evenodd" d="M18.4481 9.06998C18.7408 9.53831 18.5984 10.1553 18.1301 10.448L11.7301 14.448C11.2617 14.7407 10.6448 14.5983 10.3521 14.13C10.0594 13.6616 10.2017 13.0447 10.6701 12.752L17.0701 8.75198C17.5384 8.45927 18.1553 8.60164 18.4481 9.06998Z" fill="#3D75E4"/>
<path fill-rule="evenodd" clip-rule="evenodd" d="M13.5056 19.5528C13.7526 19.0588 14.3533 18.8586 14.8473 19.1055L21.2473 22.3055C21.7412 22.5525 21.9415 23.1532 21.6945 23.6472C21.4475 24.1412 20.8468 24.3414 20.3528 24.0944L13.9528 20.8944C13.4589 20.6474 13.2586 20.0467 13.5056 19.5528Z" fill="#3D75E4"/>
</svg>
