<svg width="33" height="32" viewBox="0 0 33 32" fill="none" xmlns="http://www.w3.org/2000/svg">
<path fill-rule="evenodd" clip-rule="evenodd" d="M14.002 1C12.3451 1 11.002 2.34315 11.002 4V5H2.00195C1.44967 5 1.00195 5.44772 1.00195 6C1.00195 6.55229 1.44967 7 2.00195 7H30.002C30.5542 7 31.002 6.55229 31.002 6C31.002 5.44772 30.5542 5 30.002 5H21.002V4C21.002 2.34315 19.6588 1 18.002 1H14.002ZM13.002 4C13.002 3.44772 13.4497 3 14.002 3H18.002C18.5542 3 19.002 3.44772 19.002 4V5H13.002V4Z" fill="#3D75E4"/>
<path d="M5.00195 8C5.55424 8 6.00195 8.44772 6.00195 9V26C6.00195 27.6569 7.3451 29 9.00195 29H23.002C24.6588 29 26.002 27.6569 26.002 26V9C26.002 8.44772 26.4497 8 27.002 8C27.5542 8 28.002 8.44772 28.002 9V26C28.002 28.7614 25.7634 31 23.002 31H9.00195C6.24053 31 4.00195 28.7614 4.00195 26V9C4.00195 8.44772 4.44967 8 5.00195 8Z" fill="#3D75E4"/>
<path d="M11.2948 13.2929C11.6854 12.9024 12.3185 12.9024 12.7091 13.2929L16.002 16.5858L19.2948 13.2929C19.6854 12.9024 20.3185 12.9024 20.7091 13.2929C21.0996 13.6834 21.0996 14.3166 20.7091 14.7071L17.4162 18L20.7091 21.2929C21.0996 21.6834 21.0996 22.3166 20.7091 22.7071C20.3185 23.0976 19.6854 23.0976 19.2948 22.7071L16.002 19.4142L12.7091 22.7071C12.3185 23.0976 11.6854 23.0976 11.2948 22.7071C10.9043 22.3166 10.9043 21.6834 11.2948 21.2929L14.5877 18L11.2948 14.7071C10.9043 14.3166 10.9043 13.6834 11.2948 13.2929Z" fill="#3D75E4"/>
</svg>
