<svg width="32" height="32" viewBox="0 0 32 32" fill="none" xmlns="http://www.w3.org/2000/svg">
<path fill-rule="evenodd" clip-rule="evenodd" d="M17.2563 30.0048C17.1575 29.9296 17.0503 29.7885 16.9899 29.6075L16.9443 29.4711C16.0865 26.9025 14.774 22.9724 12.4235 19.9962C12.0883 19.5717 11.4607 19.4904 11.0218 19.8146C10.5829 20.1388 10.4989 20.7457 10.8341 21.1702C12.9745 23.8803 14.2001 27.5485 15.0773 30.174L15.0867 30.2022C15.3889 31.1065 16.3642 32.2406 17.8101 31.9551C19.6815 31.5857 20.3642 29.9663 20.5548 28.5002C20.7498 26.9999 20.5129 25.2419 20.1858 23.7891C20.0943 23.383 20.2062 22.9075 20.4883 22.527C20.768 22.1496 21.1415 21.9575 21.5006 21.9575L27.4856 21.9574C28.4779 21.9574 29.7834 21.4066 29.9508 20.0423C30.1298 18.5833 29.8001 16.565 29.288 14.6175C28.768 12.64 28.0238 10.6035 27.2793 9.05842C26.2836 6.99227 24.1378 6.11988 22.0489 6.0448C19.5124 5.95363 16.6861 5.98988 14.1106 6.26312C11.8526 6.50268 9.6831 6.93393 8.07159 7.68576C7.53308 7.18843 6.80343 6.88301 6.00001 6.88301H5.00001C3.34315 6.88301 2 8.18194 2 9.78423V19.455C2 21.0573 3.34315 22.3562 5.00001 22.3562H6.00001C7.65687 22.3562 9.00002 21.0573 9.00002 19.455V9.78423C9.00002 9.65789 8.99166 9.53343 8.97546 9.41134C10.2543 8.82225 12.1301 8.41899 14.3287 8.18573C16.7787 7.92581 19.5022 7.88875 21.9746 7.97761C23.5986 8.03598 24.8927 8.68474 25.4664 9.8754C26.1523 11.2987 26.8568 13.2196 27.3497 15.0942C27.8505 16.9988 28.0981 18.7272 27.9647 19.8145C27.9613 19.8425 27.954 19.8569 27.9476 19.8667C27.94 19.8783 27.9235 19.8982 27.8884 19.9217C27.8123 19.9728 27.6716 20.0233 27.4856 20.0233L21.5005 20.0233C20.3665 20.0233 19.4352 20.628 18.8628 21.4001C18.2928 22.1691 18.0053 23.1958 18.2316 24.2006C18.5403 25.5716 18.7238 27.0792 18.5704 28.2589C18.4126 29.4728 17.9781 29.9479 17.4101 30.06C17.386 30.0648 17.3426 30.0705 17.2563 30.0048ZM5.00001 20.422C4.44772 20.422 4.00001 19.9891 4.00001 19.455V9.78423C4.00001 9.25013 4.44772 8.81716 5.00001 8.81716H6.00001C6.5523 8.81716 7.00001 9.25013 7.00001 9.78423V19.455C7.00001 19.9891 6.5523 20.422 6.00001 20.422H5.00001Z" fill="#3D75E4"/>
<path d="M25.5003 17.5208C25.5003 18.0549 25.0526 18.4879 24.5003 18.4879C23.948 18.4879 23.5003 18.0549 23.5003 17.5208C23.5003 15.1655 23.0124 12.4537 22.1058 10.7003C21.8589 10.2225 22.0591 9.64165 22.5531 9.40279C23.047 9.16394 23.6477 9.35757 23.8947 9.83528C24.9881 11.9501 25.5003 14.9899 25.5003 17.5208Z" fill="#3D75E4"/>
</svg>
