<svg width="32" height="32" viewBox="0 0 32 32" fill="none" xmlns="http://www.w3.org/2000/svg">
<path d="M14.1211 0C14.6734 0 15.1211 0.447716 15.1211 1V5.24264C15.1211 5.79493 14.6734 6.24264 14.1211 6.24264C13.5688 6.24264 13.1211 5.79493 13.1211 5.24264V1C13.1211 0.447716 13.5688 0 14.1211 0Z" fill="#3D75E4"/>
<path d="M27.2399 9.66011C25.7189 7.4231 23.9613 5.4573 23 4.43669C22.0387 5.4573 20.2811 7.4231 18.7601 9.66011C17.1814 11.982 16 14.3946 16 16.2853C16 19.6394 18.5827 22.4649 22 22.9319V20.4141L19.2929 17.707C18.9024 17.3164 18.9024 16.6833 19.2929 16.2927C19.6834 15.9022 20.3166 15.9022 20.7071 16.2927L22 17.5856V12.9998C22 12.4476 22.4477 11.9998 23 11.9998C23.5523 11.9998 24 12.4476 24 12.9998V17.5856L25.2929 16.2927C25.6834 15.9022 26.3166 15.9022 26.7071 16.2927C27.0976 16.6833 27.0976 17.3164 26.7071 17.707L24 20.4141V27.7701C27.493 28.4605 30.0351 29.4591 31.4159 30.0904C31.9182 30.32 32.1392 30.9133 31.9096 31.4156C31.68 31.9179 31.0867 32.1389 30.5844 31.9093C28.4918 30.9527 23.3221 28.9998 16.0001 28.9998C12.3366 28.9998 9.05544 29.4886 6.50584 30.0975C3.92213 30.7145 2.17773 31.4334 1.53918 31.8421C1.074 32.1398 0.455563 32.0041 0.157852 31.5389C-0.139859 31.0737 -0.00410366 30.4553 0.46107 30.1576C1.38502 29.5662 3.39062 28.7852 6.04129 28.1522C8.72606 27.5111 12.1636 26.9998 16.0001 26.9998C18.1879 26.9998 20.1952 27.1661 22 27.4279V24.9462C17.5269 24.4657 14 20.8004 14 16.2853C14 14.1169 15.094 11.726 16.4041 9.61446C15.691 9.22254 14.8723 8.99985 14 8.99985C11.2386 8.99985 9 11.2384 9 13.9998C9 16.1753 10.3899 18.0287 12.3332 18.7156C12.854 18.8996 13.1269 19.471 12.9428 19.9917C12.7588 20.5124 12.1875 20.7853 11.6668 20.6013C8.94932 19.6408 7 17.0493 7 13.9998C7 10.1339 10.134 6.99985 14 6.99985C15.2807 6.99985 16.4826 7.34455 17.5162 7.94591C19.0406 5.79993 20.6881 3.97145 21.5906 3.01613C22.3603 2.20145 23.6397 2.20146 24.4094 3.01613C25.3936 4.05785 27.2635 6.13783 28.8938 8.53558C30.4901 10.8833 32 13.7379 32 16.2853C32 19.5302 30.1707 22.344 27.4871 23.8409C27.0048 24.11 26.3957 23.9371 26.1267 23.4547C25.8576 22.9724 26.0305 22.3633 26.5129 22.0943C28.6117 20.9235 30 18.7512 30 16.2853C30 14.3946 28.8186 11.982 27.2399 9.66011Z" fill="#3D75E4"/>
<path d="M4.70711 4.29274C4.31658 3.90222 3.68342 3.90222 3.29289 4.29274C2.90237 4.68327 2.90237 5.31643 3.29289 5.70696L6.29289 8.70696C6.68342 9.09748 7.31658 9.09748 7.70711 8.70696C8.09763 8.31643 8.09763 7.68327 7.70711 7.29274L4.70711 4.29274Z" fill="#3D75E4"/>
<path d="M0.000151075 14.1209C0.000151032 13.5687 0.447866 13.1209 1.00015 13.1209H5.24279C5.79508 13.1209 6.24279 13.5687 6.24279 14.1209C6.24279 14.6732 5.79508 15.1209 5.24279 15.1209H1.00015C0.447866 15.1209 0.000151032 14.6732 0.000151075 14.1209Z" fill="#3D75E4"/>
<path d="M3.29289 23.2927C2.90237 23.6833 2.90237 24.3164 3.29289 24.707C3.68342 25.0975 4.31658 25.0975 4.70711 24.707L7.70711 21.707C8.09763 21.3164 8.09763 20.6833 7.70711 20.2927C7.31658 19.9022 6.68342 19.9022 6.29289 20.2927L3.29289 23.2927Z" fill="#3D75E4"/>
</svg>
