<svg width="16" height="16" viewBox="0 0 16 16" fill="none" xmlns="http://www.w3.org/2000/svg">
<g clip-path="url(#clip0)">
<path d="M10.1864 0.418113C9.88396 0.82044 9.53988 1.24789 9.17182 1.70513L8.9626 1.96523C8.65922 2.34286 8.34525 2.737 8.04194 3.13732C7.7092 3.04772 7.35974 3 7 3C4.79086 3 3 4.79086 3 7C3 8.02383 3.38597 8.9599 4.01876 9.66691C4.38708 10.0784 5.01928 10.1135 5.43081 9.74514C5.84233 9.37681 5.87735 8.74461 5.50903 8.33309C5.19174 7.97858 5 7.51288 5 7C5 5.9693 5.77967 5.12071 6.7814 5.01181C6.68421 5.18516 6.59347 5.35903 6.51089 5.53277C6.22089 6.14291 6 6.81608 6 7.5C6 8.61429 6.29204 9.75335 7.06297 10.6263C7.76155 11.4172 8.75921 11.8834 10 11.9808V13.058C9.337 13.0189 8.66401 13 8 13C5.22698 13 2.2971 13.3292 0.593866 14.0862C0.0891823 14.3105 -0.13811 14.9015 0.0861942 15.4061C0.310499 15.9108 0.90146 16.1381 1.40614 15.9138C2.70291 15.3375 5.27304 15 8.00001 15C10.727 15 13.2971 15.3375 14.5939 15.9138C15.0985 16.1381 15.6895 15.9108 15.9138 15.4061C16.1381 14.9015 15.9108 14.3105 15.4061 14.0862C14.5317 13.6975 13.3339 13.4217 12 13.2452V7C12 6.44772 11.5523 6 11 6C10.4477 6 10 6.44772 10 7V9.97193C9.27899 9.88627 8.83813 9.61493 8.56203 9.30231C8.20796 8.90141 8 8.29046 8 7.5C8 7.23154 8.09161 6.86601 8.31723 6.39134C8.53927 5.9242 8.86123 5.41267 9.25109 4.86715C9.63947 4.32371 10.077 3.77147 10.5218 3.2178L10.7247 2.96552C10.8166 2.85137 10.9086 2.73711 11 2.62317C11.0914 2.73711 11.1834 2.85137 11.2753 2.96552L11.4782 3.2178C11.923 3.77147 12.3605 4.32371 12.7489 4.86715C13.1388 5.41267 13.4607 5.9242 13.6828 6.39134C13.9084 6.86601 14 7.23154 14 7.5C14 8.19409 13.7258 8.81097 13.2302 9.25595C12.8193 9.62494 12.7853 10.2572 13.1543 10.6681C13.5233 11.079 14.1555 11.113 14.5665 10.7441C15.4957 9.90962 16 8.74652 16 7.5C16 6.81608 15.7791 6.14291 15.4891 5.53277C15.1955 4.91509 14.7987 4.29566 14.3761 3.70427C13.952 3.11081 13.4832 2.5202 13.0374 1.96523L12.8282 1.70513C12.4601 1.24789 12.116 0.820423 11.8136 0.418089C11.782 0.373966 11.7465 0.332026 11.7072 0.292801C11.6237 0.209051 11.5278 0.142695 11.4248 0.094472C11.2895 0.0308299 11.1443 -0.000171311 11 -6.07404e-05C10.8554 -0.000171449 10.7099 0.0309696 10.5743 0.0949009C10.4716 0.143089 10.3761 0.209298 10.2928 0.292802C10.2535 0.332033 10.218 0.373981 10.1864 0.418113Z" fill="#3D75E4"/>
<path d="M1 6C0.447715 6 3.08501e-09 6.44772 3.08501e-09 7C3.08501e-09 7.55228 0.447715 8 1 8H1.5C2.05228 8 2.5 7.55228 2.5 7C2.5 6.44772 2.05228 6 1.5 6H1Z" fill="#3D75E4"/>
<path d="M7 -3.54339e-09C7.55228 -3.54339e-09 8 0.447715 8 1V1.5C8 2.05228 7.55228 2.5 7 2.5C6.44772 2.5 6 2.05228 6 1.5V1C6 0.447715 6.44772 -3.54339e-09 7 -3.54339e-09Z" fill="#3D75E4"/>
<path d="M3.20711 1.79289C2.81658 1.40237 2.18342 1.40237 1.79289 1.79289C1.40237 2.18342 1.40237 2.81658 1.79289 3.20711L2.29289 3.70711C2.68342 4.09763 3.31658 4.09763 3.70711 3.70711C4.09763 3.31658 4.09763 2.68342 3.70711 2.29289L3.20711 1.79289Z" fill="#3D75E4"/>
</g>
<defs>
<clipPath id="clip0">
<rect width="16" height="16" fill="white"/>
</clipPath>
</defs>
</svg>
