<svg width="32" height="32" viewBox="0 0 32 32" fill="none" xmlns="http://www.w3.org/2000/svg">
<path d="M6 7C6 4.23858 8.23858 2 11 2C13.7614 2 16 4.23858 16 7C16 7.01159 16.0002 7.02314 16.0006 7.03464C15.9926 7.22491 16.0388 7.41955 16.1451 7.59454C16.4317 8.06664 17.0467 8.217 17.5188 7.93038C18.9351 7.07054 20.7803 7.52161 21.6401 8.93789C21.9267 9.40998 22.5418 9.56034 23.0139 9.27372C23.4859 8.98711 23.6363 8.37206 23.3497 7.89996C22.1853 5.98201 19.9367 5.12612 17.8682 5.64138C17.2358 2.42565 14.4011 0 11 0C7.44294 0 4.50555 2.65314 4.05881 6.08845C1.74733 6.52873 0 8.56031 0 11C0 13.7614 2.23858 16 5 16C7.76142 16 10 13.7614 10 11C10 10.4477 9.55228 10 9 10C8.44771 10 8 10.4477 8 11C8 12.6569 6.65685 14 5 14C4.89645 14 4.79412 13.9948 4.69327 13.9845C3.1805 13.8309 2 12.5533 2 11C2 9.34315 3.34315 8 5 8C5.55228 8 6 7.55228 6 7Z" fill="#3D75E4"/>
<path fill-rule="evenodd" clip-rule="evenodd" d="M24 14C21.2386 14 19 16.2386 19 19C19 21.7614 21.2386 24 24 24C26.7614 24 29 21.7614 29 19C29 16.2386 26.7614 14 24 14ZM21 19C21 17.6938 21.8348 16.5825 23 16.1707V19C23 19.5523 23.4477 20 24 20C24.5523 20 25 19.5523 25 19V16.1707C26.1652 16.5825 27 17.6938 27 19C27 20.6569 25.6569 22 24 22C22.3431 22 21 20.6569 21 19Z" fill="#3D75E4"/>
<path d="M20 26C19.4477 26 19 26.4477 19 27C19 27.5523 19.4477 28 20 28H22C22.5523 28 23 27.5523 23 27C23 26.4477 22.5523 26 22 26H20Z" fill="#3D75E4"/>
<path d="M25 27C25 26.4477 25.4477 26 26 26H28C28.5523 26 29 26.4477 29 27C29 27.5523 28.5523 28 28 28H26C25.4477 28 25 27.5523 25 27Z" fill="#3D75E4"/>
<path fill-rule="evenodd" clip-rule="evenodd" d="M19 11C17.3431 11 16 12.3431 16 14V29C16 30.6569 17.3431 32 19 32H29C30.6569 32 32 30.6569 32 29V14C32 12.3431 30.6569 11 29 11H19ZM18 14C18 13.4477 18.4477 13 19 13H29C29.5523 13 30 13.4477 30 14V29C30 29.5523 29.5523 30 29 30H19C18.4477 30 18 29.5523 18 29V14Z" fill="#3D75E4"/>
<path d="M5 18C8.86599 18 12 14.866 12 11C12 10.4477 12.4477 10 13 10C13.5523 10 14 10.4477 14 11C14 15.9706 9.97056 20 5 20C4.44772 20 4 19.5523 4 19C4 18.4477 4.44772 18 5 18Z" fill="#3D75E4"/>
</svg>
