<svg width="33" height="32" viewBox="0 0 33 32" fill="none" xmlns="http://www.w3.org/2000/svg">
<path fill-rule="evenodd" clip-rule="evenodd" d="M19.8806 3.53542C21.0522 2.36385 22.9517 2.36384 24.1233 3.53542L28.4664 7.87857C29.638 9.05014 29.638 10.9496 28.4664 12.1212L27.002 13.5858C26.6114 13.9763 26.6114 14.6095 27.002 15C27.3925 15.3905 28.0256 15.3905 28.4162 15L29.8806 13.5354C31.8333 11.5828 31.8333 8.41698 29.8806 6.46435L25.5375 2.1212C23.5849 0.168582 20.4191 0.168584 18.4664 2.1212L2.96152 17.6261C2.80853 17.7791 2.70928 17.9776 2.67868 18.1918L1.01201 29.8585C0.9675 30.1701 1.07229 30.4844 1.29486 30.707C1.51742 30.9296 1.83179 31.0343 2.14338 30.9898L13.8101 29.3232C14.0242 29.2926 14.2227 29.1933 14.3757 29.0403L14.7002 28.7159C14.7032 28.713 14.7061 28.7101 14.7091 28.7071C14.712 28.7042 14.7149 28.7012 14.7178 28.6982L23.002 20.4142C23.3925 20.0237 23.3925 19.3905 23.002 19C22.6114 18.6095 21.9783 18.6095 21.5877 19L14.0019 26.5857L5.41611 17.9999L15.0019 8.41416L24.2948 17.7071C24.6854 18.0976 25.3185 18.0976 25.7091 17.7071C26.0996 17.3166 26.0996 16.6834 25.7091 16.2929L16.4161 6.99995L19.8806 3.53542ZM4.45905 19.8713L3.93761 23.5214L8.48041 28.0642L12.1305 27.5428L4.45905 19.8713ZM3.58405 25.9963L6.00553 28.4178L3.18047 28.8214L3.58405 25.9963Z" fill="#3D75E4"/>
</svg>
