<svg width="32" height="32" viewBox="0 0 32 32" fill="none" xmlns="http://www.w3.org/2000/svg">
<path fill-rule="evenodd" clip-rule="evenodd" d="M15.4061 2.16718C15.7687 1.94427 16.2313 1.94427 16.5939 2.16719L29.4851 10.0928C30.1716 10.5149 30.1716 11.4851 29.4851 11.9072L16.5939 19.8328C16.2313 20.0557 15.7687 20.0557 15.4061 19.8328L2.51486 11.9072C1.82838 11.4851 1.82838 10.5149 2.51486 10.0928L15.4061 2.16718ZM17.6414 0.46343C16.6363 -0.154476 15.3637 -0.154477 14.3586 0.463429L1.46738 8.38906C-0.318441 9.487 -0.474237 11.929 1 13.2614L1 20.2676C0.402199 20.6134 0 21.2597 0 22C0 23.1046 0.895431 24 2 24C3.10457 24 4 23.1046 4 22C4 21.2597 3.5978 20.6134 3 20.2676V14.5532L6 16.3976V27C6 27.8777 6.40438 28.6385 6.98287 29.2464C7.55645 29.8491 8.33918 30.3464 9.2299 30.7422C11.0139 31.5351 13.4083 32 16 32C18.5917 32 20.9861 31.5351 22.7701 30.7422C23.6608 30.3464 24.4435 29.8491 25.0171 29.2464C25.5956 28.6385 26 27.8777 26 27V16.3976L30.5326 13.6109C32.4891 12.4081 32.4891 9.59194 30.5326 8.38907L17.6414 0.46343ZM24 17.6272L17.6414 21.5366C16.6363 22.1545 15.3637 22.1545 14.3586 21.5366L8 17.6272V27C8 27.2269 8.0993 27.5184 8.43166 27.8676C8.76892 28.222 9.30422 28.5866 10.0422 28.9146C11.5156 29.5695 13.6211 30 16 30C18.3789 30 20.4844 29.5695 21.9578 28.9146C22.6958 28.5866 23.2311 28.222 23.5683 27.8676C23.9007 27.5184 24 27.2269 24 27V26.08C23.6245 26.3258 23.2104 26.5464 22.7699 26.7422C20.9859 27.5351 18.5915 28 15.9998 28C13.8351 28 11.8154 27.6759 10.1748 27.1122C9.65251 26.9327 9.37459 26.3638 9.55406 25.8415C9.73353 25.3192 10.3024 25.0412 10.8247 25.2207C12.2261 25.7022 14.022 26 15.9998 26C18.3786 26 20.4842 25.5695 21.9576 24.9146C22.6956 24.5866 23.2309 24.222 23.5681 23.8676C23.9005 23.5184 23.9998 23.2269 23.9998 23L24 22.9789V17.6272Z" fill="#3D75E4"/>
</svg>
