<svg width="32" height="32" viewBox="0 0 32 32" fill="none" xmlns="http://www.w3.org/2000/svg">
<path fill-rule="evenodd" clip-rule="evenodd" d="M0 8C0 6.34315 1.34315 5 3 5H29C30.6569 5 32 6.34315 32 8V24C32 25.6569 30.6569 27 29 27H3C1.34315 27 0 25.6569 0 24V8ZM2 8C2 7.81788 2.04868 7.64714 2.13374 7.50007C2.17349 7.56881 2.22213 7.63388 2.27968 7.69364L12.3984 18.2015C14.3651 20.2439 17.6349 20.2439 19.6016 18.2015L29.7203 7.69364C29.7779 7.63388 29.8265 7.5688 29.8663 7.50007C29.9513 7.64714 30 7.81788 30 8V24C30 24.1821 29.9513 24.3529 29.8662 24.4999C29.8299 24.4371 29.7861 24.3773 29.7348 24.3217L23.7348 17.8217C23.3602 17.4159 22.7275 17.3906 22.3217 17.7652C21.9159 18.1398 21.8906 18.7725 22.2652 19.1783L27.6391 25H4.36092L9.73481 19.1783C10.1094 18.7725 10.0841 18.1398 9.67828 17.7652C9.27246 17.3906 8.6398 17.4159 8.2652 17.8217L2.2652 24.3217C2.21391 24.3773 2.17011 24.4371 2.13376 24.5C2.04869 24.3529 2 24.1821 2 24V8ZM4.38827 7H27.6117L18.161 16.8143C16.9809 18.0397 15.0191 18.0397 13.839 16.8143L4.38827 7Z" fill="#3D75E4"/>
</svg>
