<svg width="33" height="32" viewBox="0 0 33 32" fill="none" xmlns="http://www.w3.org/2000/svg">
<g clip-path="url(#clip0)">
<path d="M5.00195 0C2.24053 0 0.00195312 2.23858 0.00195312 5V27C0.00195312 29.7614 2.24053 32 5.00195 32H20.002C22.7634 32 25.002 29.7614 25.002 27V25.5C25.002 24.9477 24.5542 24.5 24.002 24.5C23.4497 24.5 23.002 24.9477 23.002 25.5V27C23.002 28.6569 21.6588 30 20.002 30H5.00195C3.3451 30 2.00195 28.6569 2.00195 27V5C2.00195 3.34315 3.3451 2 5.00195 2H20.002C21.6588 2 23.002 3.34315 23.002 5V6.5C23.002 7.05229 23.4497 7.5 24.002 7.5C24.5542 7.5 25.002 7.05229 25.002 6.5V5C25.002 2.23858 22.7634 0 20.002 0H5.00195Z" fill="#3D75E4"/>
<path d="M6.00195 7C5.44967 7 5.00195 7.44772 5.00195 8C5.00195 8.55228 5.44967 9 6.00195 9H19.002C19.5542 9 20.002 8.55228 20.002 8C20.002 7.44772 19.5542 7 19.002 7H6.00195Z" fill="#3D75E4"/>
<path d="M5.00195 13C5.00195 12.4477 5.44967 12 6.00195 12H17.002C17.5542 12 18.002 12.4477 18.002 13C18.002 13.5523 17.5542 14 17.002 14H6.00195C5.44967 14 5.00195 13.5523 5.00195 13Z" fill="#3D75E4"/>
<path d="M6.00195 17C5.44967 17 5.00195 17.4477 5.00195 18C5.00195 18.5523 5.44967 19 6.00195 19H15.002C15.5542 19 16.002 18.5523 16.002 18C16.002 17.4477 15.5542 17 15.002 17H6.00195Z" fill="#3D75E4"/>
<path d="M5.00195 23C5.00195 22.4477 5.44967 22 6.00195 22H13.002C13.5542 22 14.002 22.4477 14.002 23C14.002 23.5523 13.5542 24 13.002 24H6.00195C5.44967 24 5.00195 23.5523 5.00195 23Z" fill="#3D75E4"/>
<path fill-rule="evenodd" clip-rule="evenodd" d="M19.1536 18.8514C18.246 20.2416 18.6456 22.1024 20.0301 23.0063C21.4097 23.9068 23.2666 23.5303 24.1779 22.1499L31.8357 10.551C31.9826 10.3285 32.0346 10.0565 31.9801 9.79556C31.9256 9.53458 31.7691 9.30617 31.5454 9.16107L28.1204 6.93936C27.658 6.63942 27.0401 6.77016 26.7388 7.23168L19.1536 18.8514ZM21.1234 21.3315C20.6581 21.0278 20.5283 20.4043 20.8283 19.9447L27.8685 9.1599L29.6112 10.2904L22.5089 21.0479C22.2076 21.5043 21.587 21.6341 21.1234 21.3315Z" fill="#3D75E4"/>
</g>
<defs>
<clipPath id="clip0">
<rect width="32" height="32" fill="white" transform="translate(0.00195312)"/>
</clipPath>
</defs>
</svg>
