<svg width="32" height="32" viewBox="0 0 32 32" fill="none" xmlns="http://www.w3.org/2000/svg">
<path fill-rule="evenodd" clip-rule="evenodd" d="M16 0C10.4939 0 6 4.38985 6 9.84211C6 11.233 6.07824 12.6291 6.41801 13.9102C6.75739 15.1898 7.35514 16.3976 7.90016 17.4988C7.95753 17.6147 8.01432 17.7294 8.07016 17.8429C8.67753 19.0776 9.18832 20.1943 9.38528 21.3553L9.7494 23.5018C9.99413 24.9444 11.2439 26 12.7071 26H19.2929C20.7561 26 22.0059 24.9444 22.2506 23.5018L22.6147 21.3553C22.8117 20.1943 23.3225 19.0776 23.9298 17.8429C23.9856 17.7296 24.0422 17.6151 24.0995 17.4995C24.6445 16.3983 25.2426 15.1898 25.582 13.9102C25.9218 12.6291 26 11.233 26 9.84211C26 4.38985 21.5061 0 16 0ZM8 9.84211C8 5.52764 11.565 2 16 2C20.435 2 24 5.52764 24 9.84211C24 11.181 23.9213 12.3702 23.6488 13.3975C23.3639 14.4717 22.8572 15.4978 22.2971 16.6319C22.2436 16.7403 22.1896 16.8496 22.1352 16.9601C21.5332 18.184 20.8943 19.5389 20.6429 21.0208L20.2788 23.1673C20.1972 23.6481 19.7806 24 19.2929 24L17 24L17 17.4144L19.7071 14.7073C20.0976 14.3167 20.0976 13.6836 19.7071 13.293C19.3166 12.9025 18.6834 12.9025 18.2929 13.293L16 15.5859L13.707 13.2929C13.3164 12.9024 12.6833 12.9024 12.2927 13.2929C11.9022 13.6834 11.9022 14.3166 12.2927 14.7071L15 17.4144L15 24L12.7071 24C12.2194 24 11.8028 23.6481 11.7212 23.1673L11.3571 21.0208C11.1057 19.5389 10.4668 18.184 9.86478 16.9601C9.81042 16.8496 9.7564 16.7402 9.70287 16.6319C9.1428 15.4978 8.63608 14.4717 8.35117 13.3975C8.07871 12.3702 8 11.181 8 9.84211Z" fill="#3D75E4"/>
<path d="M12 27C11.4477 27 11 27.4477 11 28C11 28.5523 11.4477 29 12 29H20C20.5523 29 21 28.5523 21 28C21 27.4477 20.5523 27 20 27H12Z" fill="#3D75E4"/>
<path d="M13 30C12.4477 30 12 30.4477 12 31C12 31.5523 12.4477 32 13 32H19C19.5523 32 20 31.5523 20 31C20 30.4477 19.5523 30 19 30H13Z" fill="#3D75E4"/>
</svg>
