<svg width="32" height="32" viewBox="0 0 32 32" fill="none" xmlns="http://www.w3.org/2000/svg">
<path fill-rule="evenodd" clip-rule="evenodd" d="M0.599121 16.0002C0.599121 15.4479 1.04684 15.0002 1.59912 15.0002L18.3849 15.0002L12.092 8.70726C11.7015 8.31674 11.7015 7.68358 12.092 7.29305C12.4825 6.90253 13.1157 6.90253 13.5062 7.29305L21.5062 15.293C21.6938 15.4806 21.7991 15.7349 21.7991 16.0002C21.7991 16.2654 21.6938 16.5197 21.5062 16.7073L13.5062 24.7073C13.1157 25.0978 12.4825 25.0978 12.092 24.7073C11.7015 24.3167 11.7015 23.6836 12.092 23.293L18.3849 17.0002L1.59912 17.0002C1.04684 17.0002 0.599121 16.5524 0.599121 16.0002ZM20.9995 30.2002C20.9995 29.6479 21.4472 29.2002 21.9995 29.2002H26.3992C28.0561 29.2002 29.3992 27.857 29.3992 26.2002L29.3992 5.80016C29.3992 4.1433 28.0561 2.80016 26.3992 2.80016L21.9995 2.80016C21.4472 2.80016 20.9995 2.35244 20.9995 1.80016C20.9995 1.24787 21.4472 0.800156 21.9995 0.800156L26.3992 0.800156C29.1607 0.800156 31.3992 3.03873 31.3992 5.80016L31.3992 26.2002C31.3992 28.9616 29.1607 31.2002 26.3992 31.2002H21.9995C21.4472 31.2002 20.9995 30.7524 20.9995 30.2002Z" fill="#3D75E4"/>
</svg>
