<svg width="32" height="32" viewBox="0 0 32 32" fill="none" xmlns="http://www.w3.org/2000/svg">
<path d="M3.58579 5.00009C4.36684 4.21904 5.63317 4.21905 6.41421 5.00009L9.70711 8.29299C10.0976 8.68351 10.0976 9.31668 9.70711 9.7072C9.31658 10.0977 8.68342 10.0977 8.29289 9.7072L5.99999 7.4143L6 23.5857L8.29289 21.2928C8.68342 20.9023 9.31658 20.9023 9.70711 21.2928C10.0976 21.6833 10.0976 22.3165 9.70711 22.707L6.41421 25.9999C5.63316 26.781 4.36683 26.781 3.58579 25.9999L0.292894 22.707C-0.0976311 22.3165 -0.097631 21.6833 0.292894 21.2928C0.683418 20.9023 1.31658 20.9023 1.70711 21.2928L4 23.5857L3.99999 7.41431L1.70711 9.7072C1.31658 10.0977 0.683417 10.0977 0.292893 9.7072C-0.0976311 9.31668 -0.0976311 8.68351 0.292893 8.29299L3.58579 5.00009Z" fill="#3D75E4"/>
<path d="M15 5C14.4477 5 14 5.44772 14 6C14 6.55228 14.4477 7 15 7H31C31.5523 7 32 6.55228 32 6C32 5.44772 31.5523 5 31 5H15Z" fill="#3D75E4"/>
<path d="M14 16C14 15.4477 14.4477 15 15 15H31C31.5523 15 32 15.4477 32 16C32 16.5523 31.5523 17 31 17H15C14.4477 17 14 16.5523 14 16Z" fill="#3D75E4"/>
<path d="M15 25C14.4477 25 14 25.4477 14 26C14 26.5523 14.4477 27 15 27H31C31.5523 27 32 26.5523 32 26C32 25.4477 31.5523 25 31 25H15Z" fill="#3D75E4"/>
</svg>
