<svg width="32" height="32" viewBox="0 0 32 32" fill="none" xmlns="http://www.w3.org/2000/svg">
<path fill-rule="evenodd" clip-rule="evenodd" d="M16 0.600006C16.2653 0.600006 16.5196 0.705363 16.7072 0.892899L24.7072 8.8929C25.0977 9.28342 25.0977 9.91659 24.7072 10.3071C24.3166 10.6976 23.6835 10.6976 23.2929 10.3071L17 4.01422V20.8C17 21.3523 16.5523 21.8 16 21.8C15.4478 21.8 15 21.3523 15 20.8V4.01422L8.70716 10.3071C8.31663 10.6976 7.68347 10.6976 7.29294 10.3071C6.90242 9.91659 6.90242 9.28342 7.29294 8.8929L15.2929 0.892899C15.4805 0.705363 15.7348 0.600006 16 0.600006ZM1.80005 20.9999C2.35233 20.9999 2.80005 21.4476 2.80005 21.9999V26.4C2.80005 28.0569 4.14319 29.4 5.80005 29.4H26.2C27.8569 29.4 29.2 28.0569 29.2 26.4V21.9999C29.2 21.4476 29.6478 20.9999 30.2 20.9999C30.7523 20.9999 31.2 21.4476 31.2 21.9999V26.4C31.2 29.1614 28.9615 31.4 26.2 31.4H5.80005C3.03862 31.4 0.800049 29.1614 0.800049 26.4V21.9999C0.800049 21.4476 1.24776 20.9999 1.80005 20.9999Z" fill="#3D75E4"/>
</svg>
