<svg width="32" height="32" viewBox="0 0 32 32" fill="none" xmlns="http://www.w3.org/2000/svg">
<path d="M30.6845 16.3189C21.2269 2.06857 9.70468 3.06235 1.30338 16.315C1.11515 16.6119 1.10146 16.9985 1.26945 17.3073C9.02359 31.5621 23.3371 31.5642 30.7397 17.3138C30.9021 17.0012 30.8794 16.6125 30.6845 16.3189Z" stroke="#3D75E4" stroke-width="2" stroke-linecap="round" stroke-linejoin="round"/>
<path d="M18 21.584C17.3875 21.8516 16.7111 22 16 22C13.2386 22 11 19.7614 11 17C11 14.2386 13.2386 12 16 12C18.7614 12 21 14.2386 21 17C21 17.7111 20.8516 18.3875 20.584 19" stroke="#3D75E4" stroke-width="2" stroke-linecap="round"/>
</svg>
