<svg width="32" height="32" viewBox="0 0 32 32" fill="none" xmlns="http://www.w3.org/2000/svg">
<path d="M18 4C17.4477 4 17 4.44772 17 5C17 5.55228 17.4477 6 18 6H20V10C20 10.5523 20.4477 11 21 11C21.5523 11 22 10.5523 22 10V6C22 4.89543 21.1046 4 20 4H18Z" fill="#3D75E4"/>
<path fill-rule="evenodd" clip-rule="evenodd" d="M6 3.99046C6 1.78659 7.75502 0 9.91995 0H22.0801C24.245 0 26 1.78659 26 3.99046V30.0008C26 31.7425 23.9615 32.6481 22.7071 31.4636L16.6665 25.7595C16.2906 25.4046 15.7094 25.4046 15.3335 25.7595L9.29289 31.4636C8.03855 32.6481 6 31.7425 6 30.0008V3.99046ZM9.91995 2H22.0801C23.1069 2 24 2.85739 24 3.99046V29.9337L18.0396 24.3054C16.8929 23.2226 15.1071 23.2226 13.9604 24.3054L8 29.9337V3.99046C8 2.8574 8.89306 2 9.91995 2Z" fill="#3D75E4"/>
</svg>
