<svg width="32" height="32" viewBox="0 0 32 32" fill="none" xmlns="http://www.w3.org/2000/svg">
<path fill-rule="evenodd" clip-rule="evenodd" d="M9.91995 0C7.75502 0 6 1.78659 6 3.99046V30.0008C6 31.7425 8.03855 32.6481 9.29289 31.4636L15.3335 25.7595C15.7094 25.4046 16.2906 25.4046 16.6665 25.7595L22.7071 31.4636C23.9615 32.6481 26 31.7425 26 30.0008V3.99046C26 1.78659 24.245 0 22.0801 0H9.91995ZM18 4C17.4477 4 17 4.44772 17 5C17 5.55228 17.4477 6 18 6H20V10C20 10.5523 20.4477 11 21 11C21.5523 11 22 10.5523 22 10V6C22 4.89543 21.1046 4 20 4H18Z" fill="#3D75E4"/>
</svg>
