<svg width="32" height="32" viewBox="0 0 32 32" fill="none" xmlns="http://www.w3.org/2000/svg">
<path fill-rule="evenodd" clip-rule="evenodd" d="M5.08696 2C4.44611 2 4 2.4874 4 3V29C4 29.5126 4.44611 30 5.08696 30H26.913C27.5539 30 28 29.5126 28 29V13C28 12.4874 27.5539 12 26.913 12H22.7391C21.0748 12 19.6522 10.6965 19.6522 9V4.5C19.6522 3.94772 20.0999 3.5 20.6522 3.5C21.2045 3.5 21.6522 3.94772 21.6522 4.5V9C21.6522 9.5126 22.0983 10 22.7391 10H26.913C28.5774 10 30 11.3035 30 13V29C30 30.6965 28.5774 32 26.913 32H5.08696C3.42261 32 2 30.6965 2 29V3C2 1.30346 3.42261 0 5.08696 0H22.7391C23.6912 0 24.6017 0.42802 25.1915 1.17766L29.7788 6.8727C30.1252 7.30281 30.0574 7.93233 29.6273 8.27878C29.1972 8.62523 28.5677 8.55741 28.2212 8.1273L23.6211 2.41637C23.4225 2.16252 23.0982 2 22.7391 2H5.08696Z" fill="#3D75E4"/>
</svg>
