<svg width="33" height="32" viewBox="0 0 33 32" fill="none" xmlns="http://www.w3.org/2000/svg">
<path fill-rule="evenodd" clip-rule="evenodd" d="M1.00195 9H17.0184C17.2757 12.909 20.5278 16 24.502 16C28.6441 16 32.002 12.6421 32.002 8.5C32.002 4.35786 28.6441 1 24.502 1C20.8735 1 17.8469 3.57664 17.152 7H1.00195C0.449668 7 0.00195312 7.44772 0.00195312 8C0.00195312 8.55228 0.449668 9 1.00195 9ZM24.502 3C21.4644 3 19.002 5.46243 19.002 8.5C19.002 11.5376 21.4644 14 24.502 14C27.5395 14 30.002 11.5376 30.002 8.5C30.002 5.46243 27.5395 3 24.502 3Z" fill="#3D75E4"/>
<path fill-rule="evenodd" clip-rule="evenodd" d="M31.002 24C31.5542 24 32.002 23.5523 32.002 23C32.002 22.4477 31.5542 22 31.002 22L15.002 22C14.9517 22 14.9024 22.0037 14.8541 22.0108C14.1634 18.5821 11.1342 16 7.50195 16C3.35982 16 0.00195312 19.3579 0.00195312 23.5C0.00195312 27.6421 3.35982 31 7.50195 31C11.4761 31 14.7283 27.9089 14.9856 23.9999C14.991 24 14.9965 24 15.002 24L31.002 24ZM13.002 23.5C13.002 26.5376 10.5395 29 7.50195 29C4.46439 29 2.00195 26.5376 2.00195 23.5C2.00195 20.4624 4.46439 18 7.50195 18C10.5395 18 13.002 20.4624 13.002 23.5Z" fill="#3D75E4"/>
</svg>
