<svg width="32" height="32" viewBox="0 0 32 32" fill="none" xmlns="http://www.w3.org/2000/svg">
<path d="M4.78637 1.38222C4.44515 0.947949 3.8165 0.872511 3.38223 1.21372C2.94795 1.55494 2.87252 2.18359 3.21373 2.61786L12.272 14.1466C13.1267 15.2344 13.1267 16.7657 12.272 17.8535L3.21372 29.3822C2.87251 29.8165 2.94795 30.4451 3.38222 30.7864C3.81649 31.1276 4.44515 31.0521 4.78636 30.6179L13.8446 19.0892C15.2692 17.2761 15.2692 14.724 13.8446 12.9109L4.78637 1.38222Z" fill="#3D75E4"/>
<path d="M18.7864 1.38222C18.4452 0.947949 17.8165 0.872511 17.3822 1.21372C16.948 1.55494 16.8725 2.18359 17.2137 2.61786L26.272 14.1466C27.1267 15.2344 27.1267 16.7657 26.272 17.8535L17.2137 29.3822C16.8725 29.8165 16.9479 30.4451 17.3822 30.7864C17.8165 31.1276 18.4451 31.0521 18.7864 30.6179L27.8446 19.0892C29.2692 17.2761 29.2692 14.724 27.8446 12.9109L18.7864 1.38222Z" fill="#3D75E4"/>
</svg>
