<svg width="32" height="32" viewBox="0 0 32 32" fill="none" xmlns="http://www.w3.org/2000/svg">
<path fill-rule="evenodd" clip-rule="evenodd" d="M15.9992 7C12.796 7 10.1992 9.59675 10.1992 12.8C10.1992 16.0033 12.796 18.6 15.9992 18.6C19.2025 18.6 21.7992 16.0033 21.7992 12.8C21.7992 9.59675 19.2025 7 15.9992 7ZM12.1992 12.8C12.1992 10.7013 13.9005 9 15.9992 9C18.0979 9 19.7992 10.7013 19.7992 12.8C19.7992 14.8987 18.0979 16.6 15.9992 16.6C13.9005 16.6 12.1992 14.8987 12.1992 12.8Z" fill="#3D75E4"/>
<path fill-rule="evenodd" clip-rule="evenodd" d="M16.0008 0.600098C9.26291 0.600098 3.80078 6.06222 3.80078 12.8001C3.80078 19.4674 7.34038 23.7521 15.3218 31.1342C15.7051 31.4887 16.2966 31.4887 16.6799 31.1342C24.6595 23.7522 28.2008 19.4674 28.2008 12.8001C28.2008 6.06222 22.7387 0.600098 16.0008 0.600098ZM5.80078 12.8001C5.80078 7.16679 10.3675 2.6001 16.0008 2.6001C21.6341 2.6001 26.2008 7.16679 26.2008 12.8001C26.2008 18.3399 23.5026 22.0309 16.0007 29.0351C8.49758 22.031 5.80078 18.34 5.80078 12.8001Z" fill="#3D75E4"/>
</svg>
