<svg width="32" height="32" viewBox="0 0 32 32" fill="none" xmlns="http://www.w3.org/2000/svg">
<path fill-rule="evenodd" clip-rule="evenodd" d="M23.4922 0C18.9057 0 15.1679 3.635 15.0008 8.18216C14.7727 8.32173 14.5577 8.46218 14.3571 8.60269C13.7758 9.00994 13.2671 9.45135 12.9212 9.91208C12.6007 10.3391 12.2543 11.0138 12.5101 11.7545C12.5148 11.7682 12.5197 11.7818 12.5248 11.7953L13.9582 15.9458L5.86361 15.1252C5.39417 15.0776 4.9554 15.3649 4.81107 15.8142L4.04661 18.1944C3.88932 18.6841 4.12908 19.2134 4.60091 19.4179L19.596 25.9175C19.6866 25.9567 19.7799 25.9815 19.8731 25.9929C21.4733 26.1867 23.5326 25.9307 25.6187 25.2098C27.5416 24.5453 29.2126 23.5958 30.3545 22.558C30.924 22.0404 31.3991 21.4671 31.6903 20.8582C31.984 20.2439 32.1175 19.528 31.8719 18.8168L30.1382 13.7967C31.2963 12.3443 31.9894 10.502 31.9894 8.5C31.9894 3.80558 28.185 0 23.4922 0ZM23.4922 2C20.3957 2 17.8051 4.16665 17.1528 7.06709C17.7617 6.79709 18.4116 6.54106 19.0898 6.30669C20.9784 5.65403 22.7986 5.26866 24.23 5.19079C24.9387 5.15223 25.6113 5.18539 26.1677 5.33433C26.6833 5.47234 27.372 5.7892 27.6279 6.52959L28.9282 10.2929L28.9341 10.3096L28.9414 10.3311L29.31 11.3986C29.7454 10.5262 29.99 9.54218 29.99 8.5C29.99 4.91015 27.0808 2 23.4922 2ZM15.504 10.2409C15.0591 10.5526 14.7567 10.8261 14.5781 11.0398C14.8506 11.0977 15.2572 11.1262 15.7995 11.0967C16.9982 11.0315 18.6312 10.6971 20.3955 10.0874C22.1598 9.47773 23.6509 8.73241 24.6342 8.04359C25.0791 7.7319 25.3814 7.45845 25.56 7.24467C25.2876 7.18677 24.881 7.15833 24.3386 7.18783C23.14 7.25304 21.5069 7.58736 19.7427 8.19707C17.9784 8.80677 16.4873 9.5521 15.504 10.2409ZM20.2546 24.0233C21.4769 24.142 23.1649 23.9418 24.9658 23.3195C26.6957 22.7216 28.1125 21.8935 29.0101 21.0777C29.4603 20.6686 29.7428 20.2962 29.8867 19.9952C30.028 19.6997 30.007 19.5418 29.9822 19.4699L27.7355 12.9645C27.5344 13.1348 27.3164 13.3008 27.0871 13.4614C25.9128 14.284 24.243 15.1047 22.3544 15.7574C20.8968 16.2611 19.4864 16.6035 18.2669 16.7703C17.7199 16.8451 17.2158 16.4622 17.141 15.915C17.0662 15.3678 17.449 14.8636 17.996 14.7887C19.0667 14.6422 20.3487 14.3346 21.7016 13.867C23.4658 13.2573 24.9569 12.512 25.9402 11.8232C26.4376 11.4747 26.7568 11.174 26.9242 10.9511C26.9607 10.9024 26.985 10.8648 27.0009 10.8372L26.4301 9.1844C26.2287 9.35492 26.0105 9.52103 25.781 9.68182C24.6068 10.5044 22.9369 11.3251 21.0483 11.9778C19.1598 12.6305 17.3396 13.0158 15.9081 13.0937C15.6288 13.1089 15.355 13.113 15.0917 13.1032L16.3527 16.7544C16.4033 16.8922 16.4242 17.0434 16.4084 17.1993C16.3527 17.7487 15.8623 18.149 15.313 18.0933L6.46706 17.1966L6.2273 17.9431L20.2546 24.0233Z" fill="#3D75E4"/>
<path d="M0 18V21C0 21.5523 0.447566 22 0.999667 22C1.55177 22 1.99934 21.5523 1.99934 21L1.99933 18C1.99933 17.4477 1.55177 17 0.999668 17C0.447566 17 0 17.4477 0 18Z" fill="#3D75E4"/>
<path d="M0 31V28C0 27.4477 0.447566 27 0.999668 27C1.55177 27 1.99933 27.4477 1.99933 28L1.99934 31C1.99934 31.5523 1.55177 32 0.999667 32C0.447566 32 0 31.5523 0 31Z" fill="#3D75E4"/>
<path d="M2.999 23V26C2.999 26.5523 3.44657 27 3.99867 27C4.55077 27 4.99834 26.5523 4.99834 26L4.99834 23C4.99834 22.4477 4.55077 22 3.99867 22C3.44657 22 2.999 22.4477 2.999 23Z" fill="#3D75E4"/>
</svg>
