<svg width="32" height="32" viewBox="0 0 32 32" fill="none" xmlns="http://www.w3.org/2000/svg">
<path d="M16 10C14.3431 10 13 11.3431 13 13C13 13.5523 12.5523 14 12 14C11.4477 14 11 13.5523 11 13C11 10.2386 13.2386 8 16 8C18.7614 8 21 10.2386 21 13C21 14.5098 20.1317 15.6335 19.3089 16.5564C19.0991 16.7918 18.8893 17.0178 18.6821 17.241C18.0175 17.9569 17.3802 18.6433 16.8575 19.5145C16.5733 19.9881 15.9591 20.1416 15.4855 19.8575C15.0119 19.5733 14.8584 18.9591 15.1425 18.4855C15.784 17.4163 16.6134 16.5251 17.2994 15.7881C17.4842 15.5895 17.6586 15.4021 17.8161 15.2255C18.6183 14.3257 19 13.6994 19 13C19 11.3431 17.6569 10 16 10Z" fill="#3D75E4"/>
<path d="M16 24C16.5523 24 17 23.5523 17 23C17 22.4477 16.5523 22 16 22C15.4477 22 15 22.4477 15 23C15 23.5523 15.4477 24 16 24Z" fill="#3D75E4"/>
<path fill-rule="evenodd" clip-rule="evenodd" d="M16 31C24.2843 31 31 24.2843 31 16C31 7.71573 24.2843 1 16 1C7.71573 1 1 7.71573 1 16C1 24.2843 7.71573 31 16 31ZM16 29C23.1797 29 29 23.1797 29 16C29 8.8203 23.1797 3 16 3C8.8203 3 3 8.8203 3 16C3 23.1797 8.8203 29 16 29Z" fill="#3D75E4"/>
</svg>
