<svg width="32" height="32" viewBox="0 0 32 32" fill="none" xmlns="http://www.w3.org/2000/svg">
<path fill-rule="evenodd" clip-rule="evenodd" d="M10.9171 14.4161C10.5038 13.8967 9.70344 13.8967 9.29016 14.4161L1.84579 23.7709C1.49484 24.2119 0.846128 24.2901 0.396853 23.9456C-0.0524221 23.6011 -0.132131 22.9643 0.218818 22.5233L7.66319 13.1685C8.90305 11.6105 11.3042 11.6105 12.5441 13.1685L17.8143 19.7912L21.3759 15.3156C22.5645 13.8219 24.8406 13.7486 26.1265 15.1625L31.7378 21.3324C32.1174 21.7498 32.0805 22.3904 31.6552 22.7631C31.2299 23.1357 30.5774 23.0994 30.1977 22.682L24.5864 16.5121C24.1578 16.0408 23.3991 16.0652 23.0029 16.5631L19.1241 21.4372L25.4313 29.3629C25.7822 29.8039 25.7025 30.4407 25.2532 30.7852C24.804 31.1297 24.1553 31.0515 23.8043 30.6104L10.9171 14.4161Z" fill="#3D75E4"/>
<path fill-rule="evenodd" clip-rule="evenodd" d="M23 2H9C5.13401 2 2 5.13401 2 9V23C2 26.866 5.13401 30 9 30H23C26.866 30 30 26.866 30 23V9C30 5.13401 26.866 2 23 2ZM9 0C4.02944 0 0 4.02944 0 9V23C0 27.9706 4.02944 32 9 32H23C27.9706 32 32 27.9706 32 23V9C32 4.02944 27.9706 0 23 0H9Z" fill="#3D75E4"/>
</svg>
