<svg width="32" height="32" viewBox="0 0 32 32" fill="none" xmlns="http://www.w3.org/2000/svg">
<path d="M22.9322 1.5759C20.8369 0.567004 18.4881 0.00119341 16.0073 0H15.9944C15.4421 0.00019002 14.9945 0.448059 14.9947 1.00034C14.9949 1.55263 15.4428 2.00019 15.9951 2H15.9989C23.7309 2 29.9994 8.26801 29.9994 16C29.9994 23.732 23.7314 30 15.9994 30C14.9345 30 13.8976 29.8812 12.9011 29.6562L12.8871 29.6529L12.8776 29.6507L12.8634 29.6476C11.8454 29.4147 10.8699 29.0709 9.94996 28.6294L9.92937 28.6192L9.92054 28.6149L9.89969 28.6052C8.96967 28.1542 8.09707 27.6033 7.29568 26.9664C7.28895 26.9607 7.28212 26.9551 7.27521 26.9496L7.26755 26.9435C7.26028 26.9377 7.25294 26.932 7.24555 26.9264C6.81476 26.5871 6.19015 26.6581 5.8466 27.0868C5.50126 27.5178 5.5707 28.1472 6.00169 28.4925C8.74028 30.6869 12.2179 32 15.9994 32C18.4832 32 20.8349 31.434 22.9324 30.424L22.939 30.4208L22.9491 30.416L22.9562 30.4125C24.0263 29.895 25.03 29.2619 25.951 28.5294C25.9581 28.524 25.9652 28.5185 25.9722 28.5129L25.981 28.5059C25.988 28.5003 25.9949 28.4946 26.0018 28.4888C26.918 27.7541 27.7517 26.9206 28.4866 26.0044C28.4931 25.9967 28.4996 25.9889 28.5059 25.981L28.5129 25.9722C28.5192 25.9643 28.5254 25.9563 28.5315 25.9482C29.2594 25.0325 29.889 24.0351 30.4045 22.9721C30.4084 22.9645 30.4122 22.9569 30.416 22.9491L30.4208 22.939C30.4246 22.9313 30.4282 22.9235 30.4317 22.9158C30.9353 21.8667 31.3279 20.7542 31.5943 19.5935C31.5966 19.5846 31.5988 19.5756 31.6008 19.5665L31.6033 19.5556C31.6054 19.5464 31.6073 19.5373 31.6091 19.5281C31.8617 18.4059 31.9963 17.2391 31.9994 16.0414C31.9997 16.0317 31.9999 16.0219 32 16.0121C32 16.0099 32 16.0078 32 16.0056V15.9944C32 15.9824 31.9998 15.9705 31.9994 15.9586C31.9963 14.7608 31.8617 13.594 31.6091 12.4718C31.6073 12.4626 31.6054 12.4535 31.6033 12.4444L31.6008 12.4335C31.5988 12.4244 31.5966 12.4154 31.5943 12.4064C31.3279 11.2458 30.9353 10.1333 30.4317 9.08418C30.4282 9.07642 30.4245 9.06868 30.4208 9.06096L30.416 9.05087C30.4123 9.04322 30.4085 9.03563 30.4046 9.02812C29.8892 7.96504 29.2595 6.96764 28.5315 6.05185C28.5274 6.04633 28.5232 6.04085 28.5189 6.0354C28.5169 6.03285 28.5149 6.03031 28.5129 6.02778L28.5059 6.01904C28.4996 6.01108 28.4931 6.00324 28.4866 5.99552C27.7517 5.07944 26.918 4.24596 26.0018 3.51121C25.995 3.50542 25.988 3.4997 25.981 3.49406L25.9722 3.48709C25.9652 3.48149 25.9582 3.47601 25.951 3.47064C25.03 2.73808 24.0263 2.10495 22.9562 1.58748L22.9491 1.58404L22.939 1.57917L22.9322 1.5759Z" fill="#3D75E4"/>
<path d="M13.641 1.15055C13.7632 1.68913 13.4257 2.22484 12.8871 2.34709L12.8776 2.34926C12.3391 2.47188 11.8031 2.13475 11.6805 1.59625C11.5579 1.05775 11.895 0.521805 12.4335 0.39918L12.4444 0.396698C12.983 0.274452 13.5187 0.611962 13.641 1.15055Z" fill="#3D75E4"/>
<path d="M10.396 2.04579C10.6358 2.5433 10.4269 3.141 9.92936 3.38081L9.92054 3.38506C9.4232 3.62522 8.82534 3.41672 8.58519 2.91939C8.34504 2.42205 8.55353 1.82419 9.05087 1.58404L9.06096 1.57917C9.55847 1.33937 10.1562 1.54828 10.396 2.04579Z" fill="#3D75E4"/>
<path d="M7.43314 3.64503C7.77761 4.07672 7.7069 4.70593 7.2752 5.05039L7.26755 5.0565C6.8361 5.40127 6.20684 5.331 5.86208 4.89954C5.51731 4.46808 5.58759 3.83883 6.01904 3.49406L6.02778 3.48709C6.45947 3.14262 7.08868 3.21333 7.43314 3.64503Z" fill="#3D75E4"/>
<path d="M4.89954 5.86208C5.33099 6.20685 5.40127 6.8361 5.0565 7.26755L5.05039 7.27521C4.70593 7.7069 4.07672 7.77761 3.64503 7.43315C3.21333 7.08868 3.14262 6.45948 3.48709 6.02778L3.49406 6.01904C3.83883 5.58759 4.46808 5.51731 4.89954 5.86208Z" fill="#3D75E4"/>
<path d="M2.91938 8.58519C3.41672 8.82535 3.62521 9.4232 3.38506 9.92054L3.3808 9.92937C3.141 10.4269 2.5433 10.6358 2.04579 10.396C1.54828 10.1562 1.33937 9.55847 1.57917 9.06097L1.58404 9.05087C1.82419 8.55353 2.42205 8.34504 2.91938 8.58519Z" fill="#3D75E4"/>
<path d="M1.59625 11.6805C2.13475 11.8031 2.47188 12.3391 2.34926 12.8776L2.34709 12.8871C2.22484 13.4257 1.68913 13.7632 1.15055 13.641C0.611962 13.5187 0.274452 12.983 0.396698 12.4444L0.39918 12.4335C0.521805 11.895 1.05775 11.5579 1.59625 11.6805Z" fill="#3D75E4"/>
<path d="M1.00034 14.9947C1.55263 14.9949 2.00019 15.4428 2 15.9951V16.0049C2.00019 16.5572 1.55263 17.0051 1.00034 17.0053C0.448059 17.0055 0.00019002 16.5579 0 16.0056V15.9944C0.0001899 15.4421 0.448059 14.9945 1.00034 14.9947Z" fill="#3D75E4"/>
<path d="M1.15055 18.359C1.68913 18.2368 2.22484 18.5743 2.34709 19.1129L2.34926 19.1224C2.47188 19.6609 2.13475 20.1969 1.59625 20.3195C1.05775 20.4421 0.521805 20.105 0.39918 19.5665L0.396698 19.5556C0.274452 19.017 0.611962 18.4813 1.15055 18.359Z" fill="#3D75E4"/>
<path d="M2.04579 21.604C2.5433 21.3642 3.141 21.5731 3.38081 22.0706L3.38506 22.0795C3.62522 22.5768 3.41672 23.1747 2.91939 23.4148C2.42205 23.655 1.82419 23.4465 1.58404 22.9491L1.57917 22.939C1.33937 22.4415 1.54828 21.8438 2.04579 21.604Z" fill="#3D75E4"/>
<path d="M3.64503 24.5669C4.07672 24.2224 4.70593 24.2931 5.05039 24.7248L5.0565 24.7324C5.40127 25.1639 5.331 25.7932 4.89954 26.1379C4.46808 26.4827 3.83883 26.4124 3.49406 25.981L3.48709 25.9722C3.14262 25.5405 3.21333 24.9113 3.64503 24.5669Z" fill="#3D75E4"/>
<path fill-rule="evenodd" clip-rule="evenodd" d="M18.1824 5.11067C16.3459 4.74778 15.0007 6.30851 15.0007 7.89805L15.0007 15.3874C15.0007 15.6163 14.9222 15.8383 14.7782 16.0163L10.0675 21.8406C9.0685 23.0758 9.13185 25.1342 10.788 26.0068C12.3459 26.8277 14.1206 27.2919 16.0007 27.2919C22.1846 27.2919 27.1976 22.2789 27.1976 16.095C27.1976 10.6569 23.3219 6.12624 18.1824 5.11067ZM17.0007 7.89805C17.0007 7.616 17.1169 7.37612 17.2737 7.22853C17.4208 7.09004 17.5965 7.03357 17.7947 7.07274C22.0153 7.90673 25.1976 11.6303 25.1976 16.095C25.1976 21.1743 21.08 25.2919 16.0007 25.2919C14.4532 25.2919 12.9977 24.9105 11.7203 24.2374C11.5417 24.1433 11.441 23.9893 11.4138 23.7897C11.3848 23.5769 11.4452 23.3177 11.6226 23.0983L16.3333 17.274C16.7651 16.74 17.0007 16.0741 17.0007 15.3874L17.0007 7.89805Z" fill="#3D75E4"/>
</svg>
