<svg width="32" height="32" viewBox="0 0 32 32" fill="none" xmlns="http://www.w3.org/2000/svg">
<path fill-rule="evenodd" clip-rule="evenodd" d="M11.8008 0.600098C10.4489 0.600098 9.40078 1.71927 9.40078 3.0401V5.9201C9.40078 7.24093 10.4489 8.3601 11.8008 8.3601H20.2008C21.5526 8.3601 22.6008 7.24093 22.6008 5.9201V3.0401C22.6008 1.71927 21.5526 0.600098 20.2008 0.600098H11.8008ZM11.4008 3.0401C11.4008 2.77035 11.6062 2.6001 11.8008 2.6001H20.2008C20.3953 2.6001 20.6008 2.77035 20.6008 3.0401V5.9201C20.6008 6.18985 20.3953 6.3601 20.2008 6.3601H11.8008C11.6062 6.3601 11.4008 6.18985 11.4008 5.9201V3.0401Z" fill="#3D75E4"/>
<path d="M6.33788 6.02071C6.67775 5.67112 7.13263 5.4801 7.60078 5.4801C8.15307 5.4801 8.60078 5.03238 8.60078 4.4801C8.60078 3.92781 8.15307 3.4801 7.60078 3.4801C6.58372 3.4801 5.61422 3.89593 4.90389 4.62655C4.19449 5.35622 3.80078 6.34 3.80078 7.3601V27.5201C3.80078 28.5402 4.19449 29.524 4.90389 30.2536C5.61421 30.9843 6.58372 31.4001 7.60078 31.4001H24.4008C25.4178 31.4001 26.3874 30.9843 27.0977 30.2536C27.8071 29.524 28.2008 28.5402 28.2008 27.5201V7.3601C28.2008 6.34 27.8071 5.35622 27.0977 4.62655C26.3874 3.89593 25.4178 3.4801 24.4008 3.4801C23.8485 3.4801 23.4008 3.92781 23.4008 4.4801C23.4008 5.03238 23.8485 5.4801 24.4008 5.4801C24.8689 5.4801 25.3238 5.67112 25.6637 6.02071C26.0045 6.37125 26.2008 6.85254 26.2008 7.3601V27.5201C26.2008 28.0277 26.0045 28.5089 25.6637 28.8595C25.3238 29.2091 24.8689 29.4001 24.4008 29.4001H7.60078C7.13263 29.4001 6.67775 29.2091 6.33788 28.8595C5.99707 28.5089 5.80078 28.0277 5.80078 27.5201V7.3601C5.80078 6.85254 5.99707 6.37125 6.33788 6.02071Z" fill="#3D75E4"/>
<path d="M10 12C9.44772 12 9 12.4477 9 13C9 13.5523 9.44772 14 10 14H22C22.5523 14 23 13.5523 23 13C23 12.4477 22.5523 12 22 12H10Z" fill="#3D75E4"/>
<path d="M9 18C9 17.4477 9.44772 17 10 17H17.5C18.0523 17 18.5 17.4477 18.5 18C18.5 18.5523 18.0523 19 17.5 19H10C9.44772 19 9 18.5523 9 18Z" fill="#3D75E4"/>
<path d="M10 22C9.44772 22 9 22.4477 9 23C9 23.5523 9.44772 24 10 24H15C15.5523 24 16 23.5523 16 23C16 22.4477 15.5523 22 15 22H10Z" fill="#3D75E4"/>
</svg>
