<svg width="32" height="32" viewBox="0 0 32 32" fill="none" xmlns="http://www.w3.org/2000/svg">
<path fill-rule="evenodd" clip-rule="evenodd" d="M15.0648 1.10864C14.8773 1.29704 14.7719 1.55256 14.7719 1.81899L14.7719 6.81952C14.7716 6.83437 14.7716 6.84923 14.7719 6.86408L14.7719 9.89878H2C0.895431 9.89878 0 10.7983 0 11.908V14.9218C0 16.0314 0.89543 16.931 2 16.931H10C10.5523 16.931 11 16.4812 11 15.9264C11 15.3716 10.5523 14.9218 10 14.9218H2V11.908H12.5351C12.1948 12.499 12 13.1853 12 13.9172C12 16.1365 13.7909 17.9356 16 17.9356C18.2091 17.9356 20 16.1365 20 13.9172C20 13.1853 19.8052 12.499 19.4649 11.908H30V14.9218H22C21.4477 14.9218 21 15.3716 21 15.9264C21 16.4812 21.4477 16.931 22 16.931H30C31.1046 16.931 32 16.0314 32 14.9218V11.908C32 10.7983 31.1046 9.89878 30 9.89878H16.7719L16.7719 7.31423C17.4495 6.8752 18.3604 6.94839 18.9602 7.5338C18.9661 7.53998 18.972 7.5461 18.9781 7.55217C20.4495 9.03036 22.8351 9.03036 24.3066 7.55217C24.4941 7.36377 24.5995 7.10824 24.5995 6.84181V1.86197L24.5992 1.84031C24.6048 1.57609 24.5073 1.31007 24.3066 1.10844C23.916 0.716122 23.2829 0.716122 22.8924 1.10844C22.2086 1.79537 21.104 1.80193 20.4122 1.12811C20.406 1.12156 20.3997 1.11507 20.3933 1.10864C18.9219 -0.369549 16.5362 -0.369546 15.0648 1.10864ZM16 11.908C14.8954 11.908 14 12.8075 14 13.9172C14 15.0268 14.8954 15.9264 16 15.9264C17.1046 15.9264 18 15.0268 18 13.9172C18 12.8075 17.1046 11.908 16 11.908ZM22.5995 6.36923C21.9218 6.80843 21.0107 6.73529 20.4108 6.14981C20.405 6.14363 20.399 6.13751 20.393 6.13145C19.4118 5.14571 18.024 4.81731 16.7719 5.14627L16.7719 2.29159C17.4491 1.8527 18.3593 1.92541 18.9592 2.50971C18.9654 2.51626 18.9717 2.52274 18.9781 2.52916C19.9594 3.51497 21.3473 3.84334 22.5995 3.51427V6.36923Z" fill="#3D75E4"/>
<path d="M3 18.9402C3 18.3854 2.55228 17.9356 2 17.9356C1.44772 17.9356 1 18.3854 1 18.9402L1 29.9908C0.447715 29.9908 0 30.4406 0 30.9954C0 31.5502 0.447715 32 1 32L31 32C31.5523 32 32 31.5502 32 30.9954C32 30.4406 31.5523 29.9908 31 29.9908L31 18.9402C31 18.3854 30.5523 17.9356 30 17.9356C29.4477 17.9356 29 18.3854 29 18.9402V29.9908H3V18.9402Z" fill="#3D75E4"/>
<path d="M26 18.9402C26.5523 18.9402 27 19.39 27 19.9448V21.954C27 22.5088 26.5523 22.9586 26 22.9586C25.4477 22.9586 25 22.5088 25 21.954V19.9448C25 19.39 25.4477 18.9402 26 18.9402Z" fill="#3D75E4"/>
<path d="M27 24.9678C27 24.413 26.5523 23.9632 26 23.9632C25.4477 23.9632 25 24.413 25 24.9678V26.977C25 27.5318 25.4477 27.9816 26 27.9816C26.5523 27.9816 27 27.5318 27 26.977V24.9678Z" fill="#3D75E4"/>
<path d="M22 18.9402C22.5523 18.9402 23 19.39 23 19.9448V21.954C23 22.5088 22.5523 22.9586 22 22.9586C21.4477 22.9586 21 22.5088 21 21.954V19.9448C21 19.39 21.4477 18.9402 22 18.9402Z" fill="#3D75E4"/>
<path d="M23 24.9678C23 24.413 22.5523 23.9632 22 23.9632C21.4477 23.9632 21 24.413 21 24.9678V26.977C21 27.5318 21.4477 27.9816 22 27.9816C22.5523 27.9816 23 27.5318 23 26.977V24.9678Z" fill="#3D75E4"/>
<path d="M18 18.9402C18.5523 18.9402 19 19.39 19 19.9448V21.954C19 22.5088 18.5523 22.9586 18 22.9586C17.4477 22.9586 17 22.5088 17 21.954V19.9448C17 19.39 17.4477 18.9402 18 18.9402Z" fill="#3D75E4"/>
<path d="M19 24.9678C19 24.413 18.5523 23.9632 18 23.9632C17.4477 23.9632 17 24.413 17 24.9678V26.977C17 27.5318 17.4477 27.9816 18 27.9816C18.5523 27.9816 19 27.5318 19 26.977V24.9678Z" fill="#3D75E4"/>
<path d="M14 18.9402C14.5523 18.9402 15 19.39 15 19.9448V21.954C15 22.5088 14.5523 22.9586 14 22.9586C13.4477 22.9586 13 22.5088 13 21.954V19.9448C13 19.39 13.4477 18.9402 14 18.9402Z" fill="#3D75E4"/>
<path d="M15 24.9678C15 24.413 14.5523 23.9632 14 23.9632C13.4477 23.9632 13 24.413 13 24.9678V26.977C13 27.5318 13.4477 27.9816 14 27.9816C14.5523 27.9816 15 27.5318 15 26.977V24.9678Z" fill="#3D75E4"/>
<path d="M10 18.9402C10.5523 18.9402 11 19.39 11 19.9448V21.954C11 22.5088 10.5523 22.9586 10 22.9586C9.44771 22.9586 9 22.5088 9 21.954V19.9448C9 19.39 9.44771 18.9402 10 18.9402Z" fill="#3D75E4"/>
<path d="M11 24.9678C11 24.413 10.5523 23.9632 10 23.9632C9.44771 23.9632 9 24.413 9 24.9678V26.977C9 27.5318 9.44771 27.9816 10 27.9816C10.5523 27.9816 11 27.5318 11 26.977V24.9678Z" fill="#3D75E4"/>
<path d="M6 18.9402C6.55228 18.9402 7 19.39 7 19.9448V21.954C7 22.5088 6.55228 22.9586 6 22.9586C5.44772 22.9586 5 22.5088 5 21.954V19.9448C5 19.39 5.44772 18.9402 6 18.9402Z" fill="#3D75E4"/>
<path d="M7 24.9678C7 24.413 6.55228 23.9632 6 23.9632C5.44772 23.9632 5 24.413 5 24.9678V26.977C5 27.5318 5.44772 27.9816 6 27.9816C6.55228 27.9816 7 27.5318 7 26.977V24.9678Z" fill="#3D75E4"/>
</svg>
