<svg width="32" height="32" viewBox="0 0 32 32" fill="none" xmlns="http://www.w3.org/2000/svg">
<path fill-rule="evenodd" clip-rule="evenodd" d="M20.777 2.19998H12.8C12.2478 2.19998 11.8 2.64769 11.8 3.19998C11.8 3.75226 12.2478 4.19998 12.8 4.19998H19.357L10.507 27.8H4.80005C4.24776 27.8 3.80005 28.2477 3.80005 28.8C3.80005 29.3523 4.24776 29.8 4.80005 29.8H11.1767C11.1922 29.8003 11.2077 29.8003 11.2231 29.8H19.2001C19.7523 29.8 20.2001 29.3523 20.2001 28.8C20.2001 28.2477 19.7523 27.8 19.2001 27.8H12.6431L21.4931 4.19998H27.2001C27.7523 4.19998 28.2001 3.75226 28.2001 3.19998C28.2001 2.64769 27.7523 2.19998 27.2001 2.19998H20.8234C20.8079 2.19962 20.7924 2.19962 20.777 2.19998Z" fill="#3D75E4"/>
</svg>
