<svg width="32" height="32" viewBox="0 0 32 32" fill="none" xmlns="http://www.w3.org/2000/svg">
<path d="M12 8.69849C12 8.13897 12.4477 7.68538 13 7.68538H17C17.5523 7.68538 18 8.13897 18 8.69849C18 9.25802 17.5523 9.7116 17 9.7116H13C12.4477 9.7116 12 9.25802 12 8.69849Z" fill="#3D75E4"/>
<path fill-rule="evenodd" clip-rule="evenodd" d="M16.4142 0.593466C15.6332 -0.197822 14.3668 -0.197822 13.5858 0.593466L0.292893 14.0606C-0.0976311 14.4563 -0.0976311 15.0977 0.292893 15.4934C0.683417 15.889 1.31658 15.889 1.70711 15.4934L2 15.1966L2 27.9476C2 28.5071 2.44771 28.9607 3 28.9607H16C16.5523 28.9607 17 28.5071 17 27.9476C17 27.388 16.5523 26.9345 16 26.9345H14V18.8296C14 18.2701 13.5523 17.8165 13 17.8165H4L4 13.764L26.5859 13.764L28.2929 15.4934C28.6834 15.889 29.3166 15.889 29.7071 15.4934C30.0976 15.0977 30.0976 14.4563 29.7071 14.0606L16.4142 0.593466ZM24.5859 11.7378L15 2.02622L5.41406 11.7378L24.5859 11.7378ZM7 19.8427H4V26.9345H7L7 19.8427ZM9 26.9345L9 19.8427H12V26.9345H9Z" fill="#3D75E4"/>
<path fill-rule="evenodd" clip-rule="evenodd" d="M29.2987 27.8304C30.3554 26.6594 31 25.1002 31 23.3886C31 19.7517 28.0899 16.8034 24.5 16.8034C20.9101 16.8034 18 19.7517 18 23.3886C18 27.0255 20.9101 29.9738 24.5 29.9738C25.6751 29.9738 26.7774 29.6579 27.7286 29.1053L30.293 31.7033C30.6836 32.0989 31.3167 32.0989 31.7073 31.7033C32.0978 31.3076 32.0978 30.6662 31.7073 30.2705L29.2987 27.8304ZM20 23.3886C20 20.8707 22.0147 18.8296 24.5 18.8296C26.9853 18.8296 29 20.8707 29 23.3886C29 25.9064 26.9853 27.9476 24.5 27.9476C22.0147 27.9476 20 25.9064 20 23.3886Z" fill="#3D75E4"/>
</svg>
