<svg width="32" height="32" viewBox="0 0 32 32" fill="none" xmlns="http://www.w3.org/2000/svg">
<path fill-rule="evenodd" clip-rule="evenodd" d="M19.0994 3.17303C17.2826 1.73822 14.7184 1.73822 12.9016 3.17302L2.52547 11.3675C0.932808 12.6253 1.0225 15.0686 2.70309 16.2062L13.1977 23.3102C14.8905 24.4562 17.1105 24.4562 18.8033 23.3102L29.2979 16.2062C30.9785 15.0686 31.0682 12.6253 29.4755 11.3675L19.0994 3.17303ZM14.1412 4.74258C15.2313 3.8817 16.7697 3.8817 17.8598 4.74258L28.236 12.9371C28.7669 13.3564 28.737 14.1708 28.1768 14.55L17.6822 21.654C16.6665 22.3416 15.3345 22.3416 14.3188 21.654L3.82423 14.55C3.26403 14.1708 3.23413 13.3564 3.76502 12.9371L14.1412 4.74258Z" fill="#3D75E4"/>
<path d="M3.05481 20.1681C2.59528 19.8617 1.97441 19.9859 1.66806 20.4454C1.3617 20.9049 1.48588 21.5258 1.94541 21.8322L12.1172 28.6134C14.4685 30.1809 17.5317 30.1809 19.883 28.6134L30.0548 21.8322C30.5143 21.5258 30.6385 20.9049 30.3322 20.4454C30.0258 19.9859 29.4049 19.8617 28.9454 20.1681L18.7736 26.9493C17.0941 28.0689 14.9061 28.0689 13.2266 26.9493L3.05481 20.1681Z" fill="#3D75E4"/>
</svg>
