<svg width="32" height="32" viewBox="0 0 32 32" fill="none" xmlns="http://www.w3.org/2000/svg">
<path fill-rule="evenodd" clip-rule="evenodd" d="M17.2563 1.99517C17.1575 2.07035 17.0503 2.21149 16.9899 2.39249L16.9443 2.52895C16.0865 5.09752 14.774 9.02763 12.4235 12.0038C12.0883 12.4283 11.4607 12.5096 11.0218 12.1854C10.5829 11.8612 10.4989 11.2543 10.8341 10.8298C12.9745 8.11969 14.2001 4.45149 15.0773 1.82596L15.0867 1.7978C15.3889 0.893478 16.3642 -0.240568 17.8101 0.0448998C19.6815 0.414339 20.3642 2.03373 20.5548 3.49983C20.7498 5.00011 20.5129 6.75809 20.1858 8.21093C20.0943 8.61699 20.2062 9.09252 20.4883 9.47302C20.768 9.85036 21.1415 10.0425 21.5006 10.0425L27.4856 10.0426C28.4779 10.0426 29.7834 10.5934 29.9508 11.9577C30.1298 13.4167 29.8001 15.435 29.288 17.3825C28.768 19.36 28.0238 21.3965 27.2793 22.9416C26.2836 25.0077 24.1378 25.8801 22.0489 25.9552C19.5124 26.0464 16.6861 26.0101 14.1106 25.7369C11.8526 25.4973 9.6831 25.0661 8.07159 24.3142C7.53308 24.8116 6.80343 25.117 6.00001 25.117H5.00001C3.34315 25.117 2 23.8181 2 22.2158V12.545C2 10.9427 3.34315 9.64382 5.00001 9.64382H6.00001C7.65687 9.64382 9.00002 10.9427 9.00002 12.545V22.2158C9.00002 22.3421 8.99166 22.4666 8.97546 22.5887C10.2543 23.1777 12.1301 23.581 14.3287 23.8143C16.7787 24.0742 19.5022 24.1113 21.9746 24.0224C23.5986 23.964 24.8927 23.3153 25.4664 22.1246C26.1523 20.7013 26.8568 18.7804 27.3497 16.9058C27.8505 15.0012 28.0981 13.2728 27.9647 12.1855C27.9613 12.1575 27.954 12.1431 27.9476 12.1333C27.94 12.1217 27.9235 12.1018 27.8884 12.0783C27.8123 12.0272 27.6716 11.9767 27.4856 11.9767L21.5005 11.9767C20.3665 11.9767 19.4352 11.372 18.8628 10.5999C18.2928 9.83091 18.0053 8.80422 18.2316 7.79938C18.5403 6.42843 18.7238 4.92084 18.5704 3.7411C18.4126 2.52717 17.9781 2.0521 17.4101 1.93996C17.386 1.9352 17.3426 1.92953 17.2563 1.99517ZM5.00001 11.578C4.44772 11.578 4.00001 12.0109 4.00001 12.545V22.2158C4.00001 22.7499 4.44772 23.1828 5.00001 23.1828H6.00001C6.5523 23.1828 7.00001 22.7499 7.00001 22.2158V12.545C7.00001 12.0109 6.5523 11.578 6.00001 11.578H5.00001Z" fill="#3D75E4"/>
<path d="M25.5003 14.4792C25.5003 13.9451 25.0526 13.5121 24.5003 13.5121C23.948 13.5121 23.5003 13.9451 23.5003 14.4792C23.5003 16.8345 23.0124 19.5463 22.1058 21.2997C21.8589 21.7775 22.0591 22.3584 22.5531 22.5972C23.047 22.8361 23.6477 22.6424 23.8947 22.1647C24.9881 20.0499 25.5003 17.0101 25.5003 14.4792Z" fill="#3D75E4"/>
</svg>
