<svg width="32" height="32" viewBox="0 0 32 32" fill="none" xmlns="http://www.w3.org/2000/svg">
<path fill-rule="evenodd" clip-rule="evenodd" d="M9 9C5.13401 9 2 12.134 2 16C2 19.866 5.13401 23 9 23H13C13.5523 23 14 23.4477 14 24C14 24.5523 13.5523 25 13 25H9C4.02944 25 0 20.9706 0 16C0 11.0294 4.02944 7 9 7H13C13.5523 7 14 7.44772 14 8C14 8.55229 13.5523 9 13 9H9Z" fill="#3D75E4"/>
<path fill-rule="evenodd" clip-rule="evenodd" d="M23 23C26.866 23 30 19.866 30 16C30 12.134 26.866 9 23 9L19 9C18.4477 9 18 8.55229 18 8C18 7.44772 18.4477 7 19 7L23 7C27.9706 7 32 11.0294 32 16C32 20.9706 27.9706 25 23 25H19C18.4477 25 18 24.5523 18 24C18 23.4477 18.4477 23 19 23H23Z" fill="#3D75E4"/>
<path fill-rule="evenodd" clip-rule="evenodd" d="M9 16C9 15.4477 9.44771 15 10 15H22C22.5523 15 23 15.4477 23 16C23 16.5523 22.5523 17 22 17H10C9.44771 17 9 16.5523 9 16Z" fill="#3D75E4"/>
</svg>
