<svg width="32" height="33" viewBox="0 0 32 33" fill="none" xmlns="http://www.w3.org/2000/svg">
<path d="M5 2.33191C3.34315 2.33191 2 3.67506 2 5.33191V27.3319C2 28.9888 3.34315 30.3319 5 30.3319H20C21.6569 30.3319 23 28.9888 23 27.3319V24.3319C23 23.7796 23.4477 23.3319 24 23.3319C24.5523 23.3319 25 23.7796 25 24.3319V27.3319C25 30.0933 22.7614 32.3319 20 32.3319H5C2.23858 32.3319 0 30.0933 0 27.3319V5.33191C0 2.57049 2.23858 0.331909 5 0.331909H19C20.5738 0.331909 22.0557 1.07288 23 2.33191L24.8 4.73191C25.1314 5.17374 25.0418 5.80054 24.6 6.13191C24.1582 6.46328 23.5314 6.37374 23.2 5.93191L21.4 3.53191C20.8334 2.77649 19.9443 2.33191 19 2.33191H5Z" fill="#3D75E4"/>
<path d="M19 3.33191C19.5523 3.33191 20 3.77962 20 4.33191V6.41086H22C23.6569 6.41086 25 7.754 25 9.41086V14.3319C25 14.6141 24.8832 14.8689 24.6952 15.0507L24.6905 15.0555L19.3887 20.3573L18.8669 22.4448L20.9632 21.9154L27.0837 15.8298L26.033 14.7791C25.2392 13.9853 25.2392 12.6785 26.033 11.8847L27.9467 9.971C28.8738 9.04394 30.3543 9.04392 31.2814 9.97096C31.7604 10.45 32 11.084 32 11.7179C32 12.3518 31.7605 12.9858 31.2814 13.4648L30.6907 14.0555C30.3003 14.4459 29.6746 14.4385 29.2932 14.0388C28.9118 13.6392 28.9191 12.9987 29.3095 12.6083L29.9001 12.0177C30.0645 11.8533 30.0645 11.5826 29.9001 11.4182C29.7411 11.2591 29.487 11.2591 29.328 11.4182L27.4142 13.3319L28.465 14.3827C29.2603 15.178 29.2585 16.4881 28.4609 17.281L22.1484 23.5575C22.0226 23.6825 21.8667 23.7711 21.6965 23.814L17.7367 24.814C17.3993 24.8993 17.0429 24.7968 16.7982 24.5441C16.5535 24.2915 16.4564 23.9258 16.5426 23.5811L17.5425 19.5811C17.5874 19.4015 17.6797 19.2379 17.8093 19.1083L23 13.9175V9.41086C23 8.85857 22.5523 8.41086 22 8.41086H20C18.8954 8.41086 18 7.51543 18 6.41086V4.33191C18 3.77962 18.4477 3.33191 19 3.33191Z" fill="#3D75E4"/>
<path fill-rule="evenodd" clip-rule="evenodd" d="M7 7.33191C5.34315 7.33191 4 8.67505 4 10.3319C4 11.9888 5.34315 13.3319 7 13.3319C8.65685 13.3319 10 11.9888 10 10.3319C10 8.67505 8.65685 7.33191 7 7.33191ZM6 10.3319C6 9.77962 6.44772 9.33191 7 9.33191C7.55228 9.33191 8 9.77962 8 10.3319C8 10.8842 7.55228 11.3319 7 11.3319C6.44772 11.3319 6 10.8842 6 10.3319Z" fill="#3D75E4"/>
<path fill-rule="evenodd" clip-rule="evenodd" d="M4 17.3319C4 15.6751 5.34315 14.3319 7 14.3319C8.65685 14.3319 10 15.6751 10 17.3319C10 18.9888 8.65685 20.3319 7 20.3319C5.34315 20.3319 4 18.9888 4 17.3319ZM7 16.3319C6.44772 16.3319 6 16.7796 6 17.3319C6 17.8842 6.44772 18.3319 7 18.3319C7.55228 18.3319 8 17.8842 8 17.3319C8 16.7796 7.55228 16.3319 7 16.3319Z" fill="#3D75E4"/>
<path fill-rule="evenodd" clip-rule="evenodd" d="M7 21.3319C5.34315 21.3319 4 22.6751 4 24.3319C4 25.9888 5.34315 27.3319 7 27.3319C8.65685 27.3319 10 25.9888 10 24.3319C10 22.6751 8.65685 21.3319 7 21.3319ZM6 24.3319C6 23.7796 6.44772 23.3319 7 23.3319C7.55228 23.3319 8 23.7796 8 24.3319C8 24.8842 7.55228 25.3319 7 25.3319C6.44772 25.3319 6 24.8842 6 24.3319Z" fill="#3D75E4"/>
<path d="M11 9.33191C11 8.77962 11.4477 8.33191 12 8.33191H17C17.5523 8.33191 18 8.77962 18 9.33191C18 9.88419 17.5523 10.3319 17 10.3319H12C11.4477 10.3319 11 9.88419 11 9.33191Z" fill="#3D75E4"/>
<path d="M12 15.3319C11.4477 15.3319 11 15.7796 11 16.3319C11 16.8842 11.4477 17.3319 12 17.3319H16C16.5523 17.3319 17 16.8842 17 16.3319C17 15.7796 16.5523 15.3319 16 15.3319H12Z" fill="#3D75E4"/>
<path d="M11 12.3319C11 11.7796 11.4477 11.3319 12 11.3319H15C15.5523 11.3319 16 11.7796 16 12.3319C16 12.8842 15.5523 13.3319 15 13.3319H12C11.4477 13.3319 11 12.8842 11 12.3319Z" fill="#3D75E4"/>
<path d="M12 18.3319C11.4477 18.3319 11 18.7796 11 19.3319C11 19.8842 11.4477 20.3319 12 20.3319H14C14.5523 20.3319 15 19.8842 15 19.3319C15 18.7796 14.5523 18.3319 14 18.3319H12Z" fill="#3D75E4"/>
</svg>
