<svg width="32" height="32" viewBox="0 0 32 32" fill="none" xmlns="http://www.w3.org/2000/svg">
<g clip-path="url(#clip0)">
<path fill-rule="evenodd" clip-rule="evenodd" d="M16.0003 0.599503C16.5526 0.599503 17.0003 1.04722 17.0003 1.5995V18.3853L23.2932 12.0924C23.6837 11.7019 24.3169 11.7019 24.7074 12.0924C25.0979 12.4829 25.0979 13.1161 24.7074 13.5066L16.7074 21.5066C16.5199 21.6941 16.2655 21.7995 16.0003 21.7995C15.7351 21.7995 15.4807 21.6941 15.2932 21.5066L7.29319 13.5066C6.90266 13.1161 6.90266 12.4829 7.29319 12.0924C7.68371 11.7019 8.31687 11.7019 8.7074 12.0924L15.0003 18.3853V1.5995C15.0003 1.04722 15.448 0.599503 16.0003 0.599503ZM1.80029 20.9999C2.35258 20.9999 2.80029 21.4476 2.80029 21.9999L2.80029 26.3996C2.80029 28.0565 4.14344 29.3996 5.80029 29.3996H26.2003C27.8571 29.3996 29.2003 28.0565 29.2003 26.3996V21.9999C29.2003 21.4476 29.648 20.9999 30.2003 20.9999C30.7526 20.9999 31.2003 21.4476 31.2003 21.9999V26.3996C31.2003 29.161 28.9617 31.3996 26.2003 31.3996H5.80029C3.03886 31.3996 0.800293 29.161 0.800293 26.3996L0.800293 21.9999C0.800293 21.4476 1.24801 20.9999 1.80029 20.9999Z" fill="#3D75E4"/>
</g>
<defs>
<clipPath id="clip0">
<rect width="32" height="32" fill="white"/>
</clipPath>
</defs>
</svg>
