<svg width="33" height="32" viewBox="0 0 33 32" fill="none" xmlns="http://www.w3.org/2000/svg">
<path d="M0 16C-2.41411e-08 15.4477 0.447715 15 1 15H4.04107C4.52202 9.17022 9.1702 4.52204 15 4.04109V1.00002C15 0.447731 15.4477 1.52829e-05 16 1.52588e-05C16.5523 1.52346e-05 17 0.447731 17 1.00002V4.04109C22.8298 4.52204 27.478 9.17022 27.9589 15H31.0013C31.5536 15 32.0013 15.4477 32.0013 16C32.0013 16.5523 31.5536 17 31.0013 17H27.9589C27.5751 21.6534 24.5363 25.5521 20.3638 27.1816C19.8493 27.3825 19.2694 27.1284 19.0685 26.6139C18.8676 26.0995 19.1218 25.5196 19.6362 25.3186C23.3628 23.8633 26 20.2384 26 16C26 10.4772 21.5228 6.00001 16 6.00002C10.4772 6.00002 6 10.4772 6 16C6 21.5229 10.4772 26 16 26C16.5523 26 17 26.4477 17 27V31.0001C17 31.5524 16.5523 32.0001 16 32.0001C15.4477 32.0001 15 31.5524 15 31.0001V27.9589C9.1702 27.478 4.52202 22.8298 4.04107 17H1C0.447715 17 2.41412e-08 16.5523 0 16Z" fill="#3D75E4"/>
<path fill-rule="evenodd" clip-rule="evenodd" d="M16 10C12.6863 10 10 12.6863 10 16C10 19.3137 12.6863 22 16 22C19.3137 22 22 19.3137 22 16C22 12.6863 19.3137 10 16 10ZM12 16C12 13.7909 13.7909 12 16 12C18.2091 12 20 13.7909 20 16C20 18.2092 18.2091 20 16 20C13.7909 20 12 18.2092 12 16Z" fill="#3D75E4"/>
</svg>
