<svg width="32" height="32" viewBox="0 0 32 32" fill="none" xmlns="http://www.w3.org/2000/svg">
<path d="M31.5546 8.16806L19.5779 0.183588C19.4079 0.0633851 19.2052 0.000167234 19 3.31343e-07C18.8701 -0.000105302 18.7393 0.0250453 18.6151 0.0769898C18.5475 0.105089 18.4827 0.140714 18.4221 0.183588L14 3.13166V2C14 1.44772 13.5523 1 13 1H10C9.73478 1 9.48043 1.10536 9.29289 1.29289C9.10536 1.48043 9 1.73478 9 2V6.46499L6.44541 8.16806C5.98588 8.47441 5.8617 9.09528 6.16806 9.55481C6.47441 10.0143 7.09528 10.1385 7.55481 9.83216L10.5548 7.83216C10.7222 7.72056 10.8451 7.56723 10.9189 7.39516C10.9529 7.31607 10.9771 7.23171 10.9898 7.14364C10.9977 7.0891 11.0011 7.03387 11 6.97854V3H12V5L12 5.00368C12.0002 5.06019 12.0051 5.11688 12.0149 5.17311C12.0702 5.48966 12.2743 5.75506 12.5525 5.89451C12.6513 5.94405 12.7595 5.9777 12.8737 5.9921C13.1043 6.02159 13.3462 5.97125 13.5548 5.83216L19 2.20203L30.4452 9.83216C30.9047 10.1385 31.5256 10.0143 31.8319 9.55481C32.1383 9.09528 32.0141 8.47441 31.5546 8.16806Z" fill="#3D75E4"/>
<path d="M16 11C15.4477 11 15 11.4477 15 12C15 12.5523 15.4477 13 16 13H21C21.5523 13 22 12.5523 22 12C22 11.4477 21.5523 11 21 11H16Z" fill="#3D75E4"/>
<path d="M5 28C5 28.5523 4.55228 29 4 29C3.44772 29 3 28.5523 3 28C3 27.4477 3.44772 27 4 27C4.55228 27 5 27.4477 5 28Z" fill="#3D75E4"/>
<path fill-rule="evenodd" clip-rule="evenodd" d="M2 16C0.89543 16 0 16.8954 0 18V30C0 31.1046 0.895431 32 2 32H6C7.10457 32 8 31.1046 8 30V29.4208L10.6519 31.2772C11.3242 31.7478 12.1251 32.0002 12.9458 32.0002H21.7574C22.8183 32.0002 23.8357 31.5788 24.5859 30.8287L30.2072 25.2073C31.4261 23.9884 31.4261 22.0121 30.2072 20.7931C29.5977 20.1836 28.7988 19.8789 28 19.8789V12.202L30.4452 13.8322C30.9047 14.1385 31.5256 14.0143 31.8319 13.5548C32.1383 13.0953 32.0141 12.4744 31.5546 12.1681L19.5779 4.18359C19.4079 4.06339 19.2052 4.00017 19 4C18.8701 3.99989 18.7393 4.02504 18.6151 4.07697C18.5475 4.10508 18.4827 4.14071 18.4221 4.18359L9.4649 10.1551C9.4522 10.1631 9.43969 10.1715 9.42739 10.1801L6.44541 12.1681C5.98588 12.4744 5.8617 13.0953 6.16806 13.5548C6.47441 14.0143 7.09528 14.1385 7.55481 13.8322L9 12.8687V18H8C8 16.8954 7.10457 16 6 16H2ZM26.0079 10.8739L19 6.20203L11 11.5354V18H15V15C15 14.4477 15.4477 14 16 14H21C21.5523 14 22 14.4477 22 15V23.0866C22.2591 23.3568 22.4515 23.6737 22.5724 24.0137L25.793 20.7931C25.8598 20.7263 25.9289 20.6632 26 20.6037V11C26 10.9573 26.0027 10.9152 26.0079 10.8739ZM8 24V20H15.2574C15.7878 20 16.2965 20.2107 16.6716 20.5858L20.5474 24.4616C20.7168 24.631 20.7689 24.8851 20.68 25.1075C20.555 25.4199 20.1973 25.568 19.8881 25.4355L14.3939 23.0809C13.8863 22.8633 13.2984 23.0985 13.0809 23.6061C12.9177 23.9868 13.0092 24.4127 13.2793 24.6936C13.2926 24.7075 13.3064 24.721 13.3206 24.7341C13.4023 24.8098 13.4981 24.873 13.6063 24.9194L20.5832 27.9095C20.7855 28.0022 21.0124 28.0239 21.2261 27.9745C21.3353 27.9492 21.4411 27.9055 21.5385 27.8432C21.6072 27.7994 21.6708 27.7471 21.7276 27.6869L27.2072 22.2073C27.6451 21.7694 28.3551 21.7694 28.793 22.2073C29.2309 22.6452 29.2309 23.3552 28.793 23.7931L23.1717 29.4144C22.7966 29.7895 22.2879 30.0002 21.7574 30.0002H12.9458C12.5354 30.0002 12.135 29.874 11.7988 29.6387L7.58994 26.6925C7.42457 26.5714 7.22063 26.5 7 26.5C6.48223 26.5 6.05637 26.8935 6.00516 27.3978C6.00175 27.4314 6 27.4655 6 27.5V30H2V18H6V24C6 24.5523 6.44772 25 7 25C7.55229 25 8 24.5523 8 24ZM17 18.3996C17.3988 18.5926 17.7665 18.8523 18.0858 19.1716L20 21.0858V16H17V18.3996Z" fill="#3D75E4"/>
</svg>
