<svg width="32" height="32" viewBox="0 0 32 32" fill="none" xmlns="http://www.w3.org/2000/svg">
<path d="M12 2C10.3431 2 9 3.34315 9 5V9H5C3.34315 9 2 10.3431 2 12V13C2 13.5523 2.44772 14 3 14C3.55228 14 4 13.5523 4 13V12C4 11.4477 4.44772 11 5 11H10C10.5523 11 11 10.5523 11 10V5C11 4.44772 11.4477 4 12 4H20C20.5523 4 21 4.44772 21 5V10C21 10.5523 21.4477 11 22 11H27C27.5523 11 28 11.4477 28 12V15H21.5C21.1212 15 20.775 15.214 20.6056 15.5528L19.6852 17.3935L16.9487 9.18377C16.8144 8.78088 16.4403 8.50676 16.0156 8.50012C15.591 8.49349 15.2085 8.75579 15.0617 9.1543L12.2414 16.8093L11.3321 15.4453C11.1466 15.1671 10.8344 15 10.5 15L3 15L1 15C0.447715 15 0 15.4477 0 16C0 16.5523 0.447715 17 1 17H2V20C2 21.6569 3.34315 23 5 23H9V27C9 28.6569 10.3431 30 12 30H20C21.6569 30 23 28.6569 23 27V23H27C28.6569 23 30 21.6569 30 20V19C30 18.4477 29.5523 18 29 18C28.4477 18 28 18.4477 28 19V20C28 20.5523 27.5523 21 27 21H22C21.4477 21 21 21.4477 21 22V27C21 27.5523 20.5523 28 20 28H12C11.4477 28 11 27.5523 11 27V22C11 21.4477 10.5523 21 10 21H5C4.44772 21 4 20.5523 4 20V17H9.96482L11.6679 19.5547C11.8767 19.8678 12.2435 20.0372 12.6172 19.9931C12.9909 19.949 13.3083 19.6988 13.4383 19.3457L15.9528 12.5207L18.5513 20.3162C18.6792 20.6999 19.0257 20.9688 19.4291 20.9975C19.8326 21.0262 20.2135 20.809 20.3944 20.4472L22.118 17H31C31.5523 17 32 16.5523 32 16C32 15.4477 31.5523 15 31 15H30V12C30 10.3431 28.6569 9 27 9H23V5C23 3.34315 21.6569 2 20 2H12Z" fill="#3D75E4"/>
</svg>
