<svg width="32" height="32" viewBox="0 0 32 32" fill="none" xmlns="http://www.w3.org/2000/svg">
<path fill-rule="evenodd" clip-rule="evenodd" d="M15.998 9C17.098 9 17.998 8.1 17.998 7C17.998 5.9 17.098 5 15.998 5C14.898 5 13.998 5.9 13.998 7C13.998 8.1 14.898 9 15.998 9ZM15.998 14C14.898 14 13.998 14.9 13.998 16C13.998 17.1 14.898 18 15.998 18C17.098 18 17.998 17.1 17.998 16C17.998 14.9 17.098 14 15.998 14ZM13.998 25C13.998 23.9 14.898 23 15.998 23C17.098 23 17.998 23.9 17.998 25C17.998 26.1 17.098 27 15.998 27C14.898 27 13.998 26.1 13.998 25Z" fill="#3D75E4"/>
</svg>
