<svg width="33" height="32" viewBox="0 0 33 32" fill="none" xmlns="http://www.w3.org/2000/svg">
<path d="M1.20117 6.3999C1.20117 5.84762 1.64889 5.3999 2.20117 5.3999H29.8012C30.3535 5.3999 30.8012 5.84762 30.8012 6.3999C30.8012 6.95219 30.3535 7.3999 29.8012 7.3999H2.20117C1.64889 7.3999 1.20117 6.95219 1.20117 6.3999Z" fill="#3D75E4"/>
<path d="M1.20117 16C1.20117 15.4477 1.64889 15 2.20117 15L29.8012 15C30.3535 15 30.8012 15.4477 30.8012 16C30.8012 16.5523 30.3535 17 29.8012 17L2.20117 17C1.64889 17 1.20117 16.5523 1.20117 16Z" fill="#3D75E4"/>
<path d="M2.20117 24.6001C1.64889 24.6001 1.20117 25.0478 1.20117 25.6001C1.20117 26.1524 1.64889 26.6001 2.20117 26.6001H29.8012C30.3535 26.6001 30.8012 26.1524 30.8012 25.6001C30.8012 25.0478 30.3535 24.6001 29.8012 24.6001H2.20117Z" fill="#3D75E4"/>
</svg>
