<svg width="32" height="32" viewBox="0 0 32 32" fill="none" xmlns="http://www.w3.org/2000/svg">
<path d="M2.59961 7.19995C2.59961 5.5431 3.94276 4.19995 5.59961 4.19995H26.3996C28.0565 4.19995 29.3996 5.5431 29.3996 7.19995V18.9999C29.3996 20.6568 28.0565 22 26.3996 22H10.3828C9.62753 22 8.90008 22.2848 8.34565 22.7977L0.920572 29.6658C0.51514 30.0409 0.49049 30.6736 0.865515 31.079C1.24054 31.4844 1.87322 31.5091 2.27866 31.1341L9.70374 24.2659C9.88854 24.0949 10.131 24 10.3828 24H26.3996C29.161 24 31.3996 21.7614 31.3996 18.9999V7.19995C31.3996 4.43853 29.161 2.19995 26.3996 2.19995H5.59961C2.83819 2.19995 0.599614 4.43853 0.599614 7.19995V26C0.599614 26.5523 1.04733 27 1.59961 27C2.1519 27 2.59961 26.5523 2.59961 26V7.19995Z" fill="#3D75E4"/>
<path d="M10 8C9.44771 8 9 8.44772 9 9C9 9.55228 9.44771 10 10 10H24C24.5523 10 25 9.55228 25 9C25 8.44772 24.5523 8 24 8H10Z" fill="#3D75E4"/>
<path d="M9 13C9 12.4477 9.44771 12 10 12H21C21.5523 12 22 12.4477 22 13C22 13.5523 21.5523 14 21 14H10C9.44771 14 9 13.5523 9 13Z" fill="#3D75E4"/>
<path d="M10 16C9.44771 16 9 16.4477 9 17C9 17.5523 9.44771 18 10 18H18C18.5523 18 19 17.5523 19 17C19 16.4477 18.5523 16 18 16H10Z" fill="#3D75E4"/>
</svg>
