<svg width="32" height="32" viewBox="0 0 32 32" fill="none" xmlns="http://www.w3.org/2000/svg">
<path fill-rule="evenodd" clip-rule="evenodd" d="M10.8858 5.31425C10.8858 2.4897 13.1755 0.199951 16.0001 0.199951C18.8246 0.199951 21.1144 2.4897 21.1144 5.31425V16.8343C21.1144 19.6588 18.8246 21.9486 16.0001 21.9486C13.1755 21.9486 10.8858 19.6588 10.8858 16.8343V5.31425ZM16.0001 2.19995C14.2801 2.19995 12.8858 3.59427 12.8858 5.31425V16.8343C12.8858 18.5542 14.2801 19.9486 16.0001 19.9486C17.72 19.9486 19.1144 18.5542 19.1144 16.8343V5.31425C19.1144 3.59427 17.72 2.19995 16.0001 2.19995Z" fill="#3D75E4"/>
<path fill-rule="evenodd" clip-rule="evenodd" d="M7.77148 14.1886C8.32377 14.1886 8.77148 14.6363 8.77148 15.1886V16.8343C8.77148 20.8265 12.0078 24.0629 16.0001 24.0629C19.9923 24.0629 23.2287 20.8265 23.2287 16.8343V15.1886C23.2287 14.6363 23.6764 14.1886 24.2287 14.1886C24.7809 14.1886 25.2287 14.6363 25.2287 15.1886V16.8343C25.2287 21.9311 21.0969 26.0629 16.0001 26.0629C10.9033 26.0629 6.77148 21.9311 6.77148 16.8343V15.1886C6.77148 14.6363 7.2192 14.1886 7.77148 14.1886Z" fill="#3D75E4"/>
<path fill-rule="evenodd" clip-rule="evenodd" d="M16.0001 24.0629C16.5524 24.0629 16.9993 24.5106 16.9993 25.0629V29H20.9364C21.4887 29 21.9364 29.4477 21.9364 30C21.9364 30.5523 21.4887 31 20.9364 31H11.0621C10.5098 31 10.0621 30.5523 10.0621 30C10.0621 29.4477 10.5098 29 11.0621 29H14.9993V25.0629C14.9993 24.5106 15.4478 24.0629 16.0001 24.0629Z" fill="#3D75E4"/>
<path fill-rule="evenodd" clip-rule="evenodd" d="M9.00007 8C9.00007 7.44772 9.44778 7 10.0001 7H17.0001C17.5524 7 18.0001 7.44772 18.0001 8C18.0001 8.55228 17.5524 9 17.0001 9H10.0001C9.44778 9 9.00007 8.55228 9.00007 8Z" fill="#3D75E4"/>
<path fill-rule="evenodd" clip-rule="evenodd" d="M9.00007 12C9.00007 11.4477 9.44778 11 10.0001 11L17.0001 11C17.5524 11 18.0001 11.4477 18.0001 12C18.0001 12.5523 17.5524 13 17.0001 13H10.0001C9.44778 13 9.00007 12.5523 9.00007 12Z" fill="#3D75E4"/>
</svg>
