<svg width="32" height="32" viewBox="0 0 32 32" fill="none" xmlns="http://www.w3.org/2000/svg">
<path fill-rule="evenodd" clip-rule="evenodd" d="M12 1C9.23858 1 7 3.23858 7 6V20C7 22.7614 9.23858 25 12 25H26C28.7614 25 31 22.7614 31 20V6C31 3.23858 28.7614 1 26 1H12ZM9 6C9 4.34315 10.3431 3 12 3H26C27.6569 3 29 4.34315 29 6V20C29 21.6569 27.6569 23 26 23H12C10.3431 23 9 21.6569 9 20V6Z" fill="#3D75E4"/>
<path d="M2 9C2 9.55228 2.44772 10 3 10C3.55228 10 4 9.55228 4 9C4 8.44772 3.55228 8 3 8C2.44772 8 2 8.44772 2 9Z" fill="#3D75E4"/>
<path d="M3 14C2.44772 14 2 13.5523 2 13C2 12.4477 2.44772 12 3 12C3.55228 12 4 12.4477 4 13C4 13.5523 3.55228 14 3 14Z" fill="#3D75E4"/>
<path d="M3 18C2.44772 18 2 17.5523 2 17C2 16.4477 2.44772 16 3 16C3.55228 16 4 16.4477 4 17C4 17.5523 3.55228 18 3 18Z" fill="#3D75E4"/>
<path d="M3 26C2.44772 26 2 25.5523 2 25C2 24.4477 2.44772 24 3 24C3.55228 24 4 24.4477 4 25C4 25.5523 3.55228 26 3 26Z" fill="#3D75E4"/>
<path d="M2 21C2 21.5523 2.44772 22 3 22C3.55228 22 4 21.5523 4 21C4 20.4477 3.55228 20 3 20C2.44772 20 2 20.4477 2 21Z" fill="#3D75E4"/>
<path d="M15 30C14.4477 30 14 29.5523 14 29C14 28.4477 14.4477 28 15 28C15.5523 28 16 28.4477 16 29C16 29.5523 15.5523 30 15 30Z" fill="#3D75E4"/>
<path d="M18 29C18 29.5523 18.4477 30 19 30C19.5523 30 20 29.5523 20 29C20 28.4477 19.5523 28 19 28C18.4477 28 18 28.4477 18 29Z" fill="#3D75E4"/>
<path d="M23 30C22.4477 30 22 29.5523 22 29C22 28.4477 22.4477 28 23 28C23.5523 28 24 28.4477 24 29C24 29.5523 23.5523 30 23 30Z" fill="#3D75E4"/>
<path d="M10 29C10 29.5523 10.4477 30 11 30C11.5523 30 12 29.5523 12 29C12 28.4477 11.5523 28 11 28C10.4477 28 10 28.4477 10 29Z" fill="#3D75E4"/>
<path d="M7 30C6.44772 30 6 29.5523 6 29C6 28.4477 6.44772 28 7 28C7.55228 28 8 28.4477 8 29C8 29.5523 7.55228 30 7 30Z" fill="#3D75E4"/>
<path d="M2 29C2 29.5523 2.44772 30 3 30C3.55228 30 4 29.5523 4 29C4 28.4477 3.55228 28 3 28C2.44772 28 2 28.4477 2 29Z" fill="#3D75E4"/>
</svg>
