<svg width="32" height="32" viewBox="0 0 32 32" fill="none" xmlns="http://www.w3.org/2000/svg">
<path fill-rule="evenodd" clip-rule="evenodd" d="M19.8001 24C19.8001 21.6804 21.6805 19.8 24.0001 19.8H30.4001C30.9524 19.8 31.4001 20.2477 31.4001 20.8V24C31.4001 26.3196 29.5197 28.2 27.2001 28.2H24.0001C21.6805 28.2 19.8001 26.3196 19.8001 24ZM24.0001 21.8C22.7851 21.8 21.8001 22.785 21.8001 24C21.8001 25.215 22.7851 26.2 24.0001 26.2H27.2001C28.4151 26.2 29.4001 25.215 29.4001 24V21.8H24.0001ZM0.600098 27.2C0.600098 24.8804 2.4805 23 4.8001 23H11.2001C11.7524 23 12.2001 23.4477 12.2001 24V27.2C12.2001 29.5196 10.3197 31.4 8.0001 31.4H4.8001C2.4805 31.4 0.600098 29.5196 0.600098 27.2ZM4.8001 25C3.58507 25 2.6001 25.985 2.6001 27.2C2.6001 28.415 3.58507 29.4 4.8001 29.4H8.0001C9.21512 29.4 10.2001 28.415 10.2001 27.2V25H4.8001Z" fill="#3D75E4"/>
<path fill-rule="evenodd" clip-rule="evenodd" d="M31.0465 0.836963C31.2708 1.02697 31.4001 1.30603 31.4001 1.59998L31.4001 20.8C31.4001 21.3523 30.9524 21.8 30.4001 21.8C29.8478 21.8 29.4001 21.3523 29.4001 20.8V2.78044L12.2001 5.64711V24C12.2001 24.5523 11.7524 25 11.2001 25C10.6478 25 10.2001 24.5523 10.2001 24V4.79998C10.2001 4.31114 10.5535 3.89395 11.0357 3.81359L30.2357 0.613589C30.5257 0.565264 30.8222 0.64696 31.0465 0.836963Z" fill="#3D75E4"/>
<path fill-rule="evenodd" clip-rule="evenodd" d="M27.9844 7.32332C28.0819 7.86692 27.7204 8.38669 27.1768 8.48425L7.67676 11.9843C7.13316 12.0818 6.6134 11.7202 6.51583 11.1766C6.41826 10.633 6.77984 10.1133 7.32343 10.0157L26.8234 6.51571C27.367 6.41814 27.8868 6.77972 27.9844 7.32332Z" fill="#3D75E4"/>
</svg>
