<svg width="32" height="32" viewBox="0 0 32 32" fill="none" xmlns="http://www.w3.org/2000/svg">
<path d="M5 5C3.34315 5 2 6.34315 2 8V23C2 24.6569 3.34315 26 5 26H17.5C18.0523 26 18.5 26.4477 18.5 27C18.5 27.5523 18.0523 28 17.5 28H5C2.23858 28 0 25.7614 0 23V8C0 5.23858 2.23858 3 5 3H11.86C13.1736 3 14.4345 3.51696 15.37 4.43912L16.9513 5.99789C17.1385 6.18232 17.3906 6.28571 17.6533 6.28571H27C29.7614 6.28571 32 8.52429 32 11.2857V17.1429C32 17.6951 31.5523 18.1429 31 18.1429C30.4477 18.1429 30 17.6951 30 17.1429V11.2857C30 9.62886 28.6569 8.28571 27 8.28571H17.6533C16.8652 8.28571 16.1087 7.97554 15.5473 7.42224L13.966 5.86347C13.4047 5.31017 12.6482 5 11.86 5H5Z" fill="#3D75E4"/>
<path d="M24 16C24.5523 16 25 16.4477 25 17V21H29C29.5523 21 30 21.4477 30 22C30 22.5523 29.5523 23 29 23H25V27C25 27.5523 24.5523 28 24 28C23.4477 28 23 27.5523 23 27V23H19C18.4477 23 18 22.5523 18 22C18 21.4477 18.4477 21 19 21H23V17C23 16.4477 23.4477 16 24 16Z" fill="#3D75E4"/>
</svg>
