<svg width="32" height="32" viewBox="0 0 32 32" fill="none" xmlns="http://www.w3.org/2000/svg">
<path d="M20.5616 0.340933C20.267 0.00485894 19.7853 -0.0949931 19.3814 0.0963306C18.9775 0.287654 18.7497 0.723706 18.8231 1.1645C19.464 5.00812 18.7042 8.10094 17.482 9.70704C16.8796 10.4986 16.2232 10.8639 15.6135 10.9155C15.0133 10.9663 14.2399 10.7313 13.3561 9.86636C12.9614 9.48006 12.3283 9.48687 11.942 9.88157C11.5557 10.2763 11.5625 10.9094 11.9572 11.2957C13.13 12.4435 14.4464 13.0214 15.7822 12.9084C17.1085 12.7962 18.2344 12.0209 19.0735 10.9182C20.266 9.35113 20.9942 6.99629 21.0514 4.24188C24.6932 9.63025 25.7502 15.6329 24.963 20.4933C24.0375 26.2075 20.6865 30 16.3095 30C12.9202 30 10.5086 28.8617 8.9718 27.1662C7.42489 25.4595 6.67293 23.0872 6.80721 20.462C6.95227 17.6257 7.65735 15.8392 8.54575 14.0869C8.74093 13.7019 8.94959 13.3112 9.16563 12.9068C9.93597 11.4644 10.8002 9.84637 11.482 7.68392C11.6481 7.1572 11.3557 6.59557 10.829 6.42949C10.3023 6.26342 9.74066 6.55578 9.57458 7.0825C8.95386 9.05114 8.19957 10.4653 7.44257 11.8845C7.21475 12.3116 6.98666 12.7392 6.76191 13.1825C5.78767 15.1041 4.97315 17.1665 4.80982 20.3598C4.65326 23.4207 5.52635 26.343 7.48993 28.5093C9.46362 30.6869 12.4479 32 16.3095 32C22.0992 32 25.9357 26.9967 26.9373 20.813C27.9486 14.569 26.1952 6.76886 20.5616 0.340933Z" fill="#3D75E4"/>
<path fill-rule="evenodd" clip-rule="evenodd" d="M21.763 15.5651C21.6175 14.2703 20.0932 14.0013 19.3541 14.7758C18.23 15.9536 17.4212 16.3485 16.4533 16.766C16.3667 16.8034 16.2787 16.841 16.189 16.8792C15.2019 17.3004 14.0191 17.8052 12.4009 19.0349C11.2194 19.9328 10.4938 21.3423 10.3608 22.7426C10.2264 24.1589 10.6981 25.6855 12.0711 26.6228C13.4094 27.5364 14.8215 27.8116 16.166 27.4836C17.4828 27.1624 18.6114 26.2938 19.4911 25.1506C21.2426 22.8744 22.1828 19.2996 21.763 15.5651ZM17.2456 18.6024C18.0925 18.2371 18.9127 17.8449 19.8595 17.0473C19.919 19.8612 19.11 22.3664 17.906 23.9309C17.2194 24.8232 16.4491 25.3559 15.692 25.5406C14.9627 25.7185 14.1261 25.6041 13.1987 24.971C12.5579 24.5335 12.2699 23.7954 12.3519 22.9316C12.4354 22.0519 12.9022 21.1659 13.611 20.6273C15.0296 19.5493 16.0217 19.1255 16.9781 18.7171C17.0675 18.6789 17.1565 18.6408 17.2456 18.6024Z" fill="#3D75E4"/>
</svg>
