<svg width="32" height="32" viewBox="0 0 32 32" fill="none" xmlns="http://www.w3.org/2000/svg">
<path fill-rule="evenodd" clip-rule="evenodd" d="M18.6461 5.41472C18.8719 4.99326 19 4.51158 19 4C19 2.34315 17.6569 1 16 1C14.3431 1 13 2.34315 13 4C13 4.48383 13.1145 4.94092 13.318 5.34561C9.35918 6.44589 6.4388 10.0488 6.4388 14.3514C6.4388 14.3834 6.43956 14.4154 6.4411 14.4474C6.50333 15.7412 6.1697 17.8847 5.50556 19.6918C5.17539 20.5902 4.81087 21.2724 4.47409 21.6911C4.31788 21.8853 4.21364 21.9694 4.16426 22.0023C3.10496 22.0532 2.26172 22.9281 2.26172 24C2.26172 25.1046 3.15715 26 4.26172 26H27.0004C28.0416 26 28.9086 25.2011 28.9937 24.1634C29.0744 23.1789 28.4257 22.292 27.4818 22.0587C27.4525 22.0402 27.4029 22.0055 27.3346 21.9466C27.1435 21.7819 26.8531 21.4633 26.5484 20.9101C25.9399 19.8053 25.2887 17.7852 25.2887 14.3514C25.2887 10.135 22.4841 6.59049 18.6461 5.41472ZM17 4C17 4.55228 16.5523 5 16 5C15.4477 5 15 4.55228 15 4C15 3.44772 15.4477 3 16 3C16.5523 3 17 3.44772 17 4ZM4.26172 24H27.0004C26.5496 23.9256 25.6614 23.3817 24.8668 22C24.0252 20.5364 23.2887 18.1328 23.2887 14.3514C23.2887 10.2913 19.9645 7 15.8638 7C11.7631 7 8.4388 10.2913 8.4388 14.3514C8.53857 16.4259 7.85295 19.8386 6.6562 22C5.9976 23.1895 5.1842 24 4.26172 24Z" fill="#3D75E4"/>
<path d="M12 27C12.5523 27 13 27.4477 13 28C13 28.9655 13.9691 30 15.5 30C17.0309 30 18 28.9655 18 28C18 27.4477 18.4477 27 19 27C19.5523 27 20 27.4477 20 28C20 30.3482 17.8351 32 15.5 32C13.1649 32 11 30.3482 11 28C11 27.4477 11.4477 27 12 27Z" fill="#3D75E4"/>
<path d="M7.8738 3.51366C8.14237 3.99625 7.96887 4.60518 7.48628 4.87374C5.98496 5.70924 5 7.25408 5 8.99994C5 9.55222 4.55228 9.99994 4 9.99994C3.44772 9.99994 3 9.55222 3 8.99994C3 6.47273 4.42824 4.28672 6.51372 3.12613C6.99631 2.85757 7.60524 3.03107 7.8738 3.51366Z" fill="#3D75E4"/>
<path d="M24.5137 4.87374C24.0311 4.60518 23.8576 3.99625 24.1262 3.51366C24.3948 3.03107 25.0037 2.85757 25.4863 3.12613C27.5718 4.28672 29 6.47273 29 8.99994C29 9.55222 28.5523 9.99994 28 9.99994C27.4477 9.99994 27 9.55222 27 8.99994C27 7.25408 26.015 5.70924 24.5137 4.87374Z" fill="#3D75E4"/>
</svg>
