<svg width="32" height="32" viewBox="0 0 32 32" fill="none" xmlns="http://www.w3.org/2000/svg">
<path d="M10.8284 30L26 30C26.5523 30 27 29.5523 27 29L27 3C27 2.44772 26.5523 2 26 2L23 2V5C23 5.55229 22.5523 6 22 6L10 6C9.73478 6 9.48043 5.89465 9.29289 5.70711C9.10536 5.51957 9 5.26522 9 5L9 2L6 2C5.44772 2 5 2.44772 5 3L5 20C5 20.5523 5.44772 21 6 21H9C10.6569 21 12 22.3431 12 24L12 27.5C12 28.0523 11.5523 28.5 11 28.5C10.4477 28.5 10 28.0523 10 27.5V24C10 23.4477 9.55229 23 9 23H6C4.34315 23 3 21.6569 3 20L3 3C3 1.34315 4.34315 -1.44847e-07 6 0L10 2.01072e-06C10.5523 2.01072e-06 11 0.447716 11 1V4L21 4V0.999999C21 0.734783 21.1054 0.480428 21.2929 0.292892C21.4804 0.105356 21.7348 2.01072e-06 22 2.01072e-06H26C27.6569 2.01072e-06 29 1.34315 29 3L29 29C29 30.6569 27.6569 32 26 32L10.8284 32C10.0328 32 9.26972 31.6839 8.70711 31.1213L3.29289 25.7071C2.90237 25.3166 2.90237 24.6834 3.29289 24.2929C3.68342 23.9024 4.31658 23.9024 4.70711 24.2929L10.1213 29.7071C10.3089 29.8946 10.5632 30 10.8284 30Z" fill="#3D75E4"/>
<path d="M9 10C9 10.5523 8.55229 11 8 11C7.44772 11 7 10.5523 7 10C7 9.44772 7.44772 9 8 9C8.55229 9 9 9.44772 9 10Z" fill="#3D75E4"/>
<path d="M8 15C8.55229 15 9 14.5523 9 14C9 13.4477 8.55229 13 8 13C7.44772 13 7 13.4477 7 14C7 14.5523 7.44772 15 8 15Z" fill="#3D75E4"/>
<path d="M9 18C9 18.5523 8.55229 19 8 19C7.44772 19 7 18.5523 7 18C7 17.4477 7.44772 17 8 17C8.55229 17 9 17.4477 9 18Z" fill="#3D75E4"/>
<path d="M18 3C18.5523 3 19 2.55229 19 2C19 1.44772 18.5523 1 18 1L14 1C13.4477 1.00001 13 1.44772 13 2.00001C13 2.55229 13.4477 3 14 3L18 3Z" fill="#3D75E4"/>
<path d="M25 10C25 10.5523 24.5523 11 24 11L12 11C11.4477 11 11 10.5523 11 10C11 9.44772 11.4477 9 12 9L24 9C24.5523 9 25 9.44772 25 10Z" fill="#3D75E4"/>
<path d="M24 15C24.5523 15 25 14.5523 25 14C25 13.4477 24.5523 13 24 13L12 13C11.4477 13 11 13.4477 11 14C11 14.5523 11.4477 15 12 15L24 15Z" fill="#3D75E4"/>
<path d="M25 18C25 18.5523 24.5523 19 24 19H12C11.4477 19 11 18.5523 11 18C11 17.4477 11.4477 17 12 17H24C24.5523 17 25 17.4477 25 18Z" fill="#3D75E4"/>
<path fill-rule="evenodd" clip-rule="evenodd" d="M21.5 21C19.567 21 18 22.567 18 24.5C18 26.433 19.567 28 21.5 28C23.433 28 25 26.433 25 24.5C25 22.567 23.433 21 21.5 21ZM20 24.5C20 23.6716 20.6716 23 21.5 23C22.3284 23 23 23.6716 23 24.5C23 25.3284 22.3284 26 21.5 26C20.6716 26 20 25.3284 20 24.5Z" fill="#3D75E4"/>
</svg>
