<svg width="32" height="32" viewBox="0 0 32 32" fill="none" xmlns="http://www.w3.org/2000/svg">
<path d="M10.6155 18.2308C11.5077 18.2308 12.2309 17.5075 12.2309 16.6154C12.2309 15.7232 11.5077 15 10.6155 15C9.72335 15 9.00012 15.7232 9.00012 16.6154C9.00012 17.5075 9.72335 18.2308 10.6155 18.2308Z" fill="#3D75E4"/>
<path d="M16.0003 18.2308C16.8924 18.2308 17.6157 17.5075 17.6157 16.6154C17.6157 15.7232 16.8924 15 16.0003 15C15.1081 15 14.3849 15.7232 14.3849 16.6154C14.3849 17.5075 15.1081 18.2308 16.0003 18.2308Z" fill="#3D75E4"/>
<path d="M23.0004 16.6154C23.0004 17.5075 22.2772 18.2308 21.385 18.2308C20.4929 18.2308 19.7697 17.5075 19.7697 16.6154C19.7697 15.7232 20.4929 15 21.385 15C22.2772 15 23.0004 15.7232 23.0004 16.6154Z" fill="#3D75E4"/>
<path fill-rule="evenodd" clip-rule="evenodd" d="M19.7601 2.16063C17.8291 0.229661 14.6984 0.229661 12.7675 2.16063L2.16087 12.7672C0.229905 14.6982 0.229906 17.8289 2.16087 19.7599L12.7675 30.3665C14.6984 32.2974 17.8291 32.2974 19.7601 30.3665L30.3667 19.7599C32.2977 17.8289 32.2977 14.6982 30.3667 12.7672L19.7601 2.16063ZM14.1033 3.49641C15.2965 2.30318 17.2311 2.30318 18.4243 3.49641L29.0309 14.103C30.2242 15.2962 30.2242 17.2309 29.0309 18.4241L18.4243 29.0307C17.2311 30.2239 15.2965 30.2239 14.1033 29.0307L3.49666 18.4241C2.30343 17.2309 2.30343 15.2962 3.49666 14.103L14.1033 3.49641Z" fill="#3D75E4"/>
</svg>
