<svg width="32" height="32" viewBox="0 0 32 32" fill="none" xmlns="http://www.w3.org/2000/svg">
<path d="M2 8C2 7.44772 2.44772 7 3 7H22C22.5523 7 23 7.44772 23 8C23 8.55228 22.5523 9 22 9H3C2.44772 9 2 8.55228 2 8Z" fill="#3D75E4"/>
<path d="M3 15C2.44772 15 2 15.4477 2 16C2 16.5523 2.44772 17 3 17H22C22.5523 17 23 16.5523 23 16C23 15.4477 22.5523 15 22 15H3Z" fill="#3D75E4"/>
<path d="M3 23C2.44772 23 2 23.4477 2 24C2 24.5523 2.44772 25 3 25H22C22.5523 25 23 24.5523 23 24C23 23.4477 22.5523 23 22 23H3Z" fill="#3D75E4"/>
<path d="M28 9C28.5523 9 29 8.55228 29 8C29 7.44772 28.5523 7 28 7C27.4477 7 27 7.44772 27 8C27 8.55228 27.4477 9 28 9Z" fill="#3D75E4"/>
<path d="M29 16C29 16.5523 28.5523 17 28 17C27.4477 17 27 16.5523 27 16C27 15.4477 27.4477 15 28 15C28.5523 15 29 15.4477 29 16Z" fill="#3D75E4"/>
<path d="M28 25C28.5523 25 29 24.5523 29 24C29 23.4477 28.5523 23 28 23C27.4477 23 27 23.4477 27 24C27 24.5523 27.4477 25 28 25Z" fill="#3D75E4"/>
</svg>
