<svg width="32" height="32" viewBox="0 0 32 32" fill="none" xmlns="http://www.w3.org/2000/svg">
<g clip-path="url(#clip0)">
<path fill-rule="evenodd" clip-rule="evenodd" d="M3.12169 4.90566C-0.929369 8.0196 -1.05838 14.0674 2.85622 17.3501L4.49418 18.7237C4.29418 19.6898 4.57022 20.7342 5.3223 21.4839C5.87742 22.0372 6.59368 22.332 7.3205 22.3683C7.35697 23.0927 7.65273 23.8065 8.2078 24.3598C8.76279 24.913 9.47885 25.2078 10.2055 25.2442C10.242 25.9686 10.5377 26.6825 11.0928 27.2358C11.648 27.7892 12.3645 28.084 13.0915 28.1202C13.128 28.8446 13.4237 29.5585 13.9788 30.1117C15.167 31.2961 17.0934 31.2961 18.2816 30.1117L19.6486 28.7492C20.0005 28.3984 20.2482 27.9831 20.3916 27.5415C21.2385 27.5999 22.1055 27.3068 22.7537 26.6607C23.3085 26.1077 23.6042 25.3942 23.6409 24.6702C24.3671 24.6339 25.0827 24.3393 25.6373 23.7865C26.1929 23.2327 26.4884 22.5181 26.524 21.7931C27.2516 21.7573 27.9688 21.4625 28.5245 20.9086C29.7127 19.7243 29.7127 17.8041 28.5245 16.6198L19.8683 7.99182C19.4769 7.60168 18.8423 7.60168 18.4509 7.99182L18.444 7.99877L14.9162 11.515C13.7539 12.6735 11.8695 12.6735 10.7072 11.515C10.5807 11.389 10.5807 11.1846 10.7072 11.0585L16.927 4.85898C19.2755 2.51812 23.0832 2.51812 25.4317 4.85898L28.5496 7.9668L28.5585 7.97556C30.4192 9.83931 30.3559 12.6794 29.0376 14.2292C28.6796 14.65 28.7317 15.2804 29.1539 15.6372C29.5761 15.9941 30.2086 15.9421 30.5666 15.5213C32.5754 13.1596 32.5594 9.13768 29.9671 6.55387L29.9573 6.54419L26.8491 3.44614C23.7178 0.324995 18.6409 0.324995 15.5095 3.44614L9.28974 9.64564C8.38042 10.552 8.38042 12.0215 9.28974 12.9279C11.2349 14.8667 14.3886 14.8667 16.3337 12.9279L19.1596 10.1111L27.107 18.0326C27.5124 18.4366 27.5124 19.0917 27.107 19.4957C26.7017 19.8998 26.0444 19.8998 25.6391 19.4957L24.4849 18.3454C24.4507 18.3113 24.4147 18.2801 24.3771 18.252L20.1901 14.1007C19.7976 13.7116 19.163 13.7133 18.7726 14.1044C18.3822 14.4956 18.3839 15.1282 18.7764 15.5173L24.2179 20.9124C24.624 21.3151 24.6249 21.97 24.2199 22.3737C23.8156 22.7767 23.1601 22.7767 22.7557 22.3737L22.7213 22.3393L17.3834 16.9741C16.9936 16.5823 16.359 16.5796 15.966 16.9682C15.5729 17.3567 15.5702 17.9892 15.96 18.381L19.8739 22.3149C19.9003 22.3491 19.9291 22.3819 19.9605 22.4132L21.2993 23.7477L21.3332 23.7818L21.3362 23.7847C21.7416 24.1888 21.7416 24.8438 21.3362 25.2479C21.0665 25.5167 20.6837 25.6074 20.3382 25.5173C20.19 25.1321 19.9602 24.7709 19.6486 24.4604C19.0934 23.907 18.3769 23.6121 17.6499 23.576C17.6135 22.8515 17.3177 22.1377 16.7626 21.5844C16.2076 21.0312 15.4916 20.7364 14.7649 20.7C14.7285 19.9756 14.4327 19.2617 13.8776 18.7084C13.3225 18.1551 12.6062 17.8603 11.8794 17.824C11.8429 17.0996 11.5472 16.3858 10.9921 15.8325C9.80392 14.6482 7.87747 14.6482 6.68928 15.8325L5.53371 16.9843L4.14675 15.8212C1.2108 13.3591 1.30756 8.82332 4.34585 6.48787L7.72834 3.88783C9.24221 2.72417 11.346 2.69956 12.8868 3.82751L12.8879 3.82598C13.0555 3.95308 13.2644 4.02851 13.491 4.02851C14.0426 4.02851 14.4897 3.58134 14.4897 3.02974C14.4897 2.69524 14.3253 2.39914 14.0728 2.21788C11.8119 0.562801 8.72554 0.598132 6.50418 2.30563L3.12169 4.90566ZM12.5106 24.3598L12.496 24.3743C12.105 24.7794 12.1097 25.4237 12.5103 25.8229C12.9156 26.227 13.5728 26.227 13.9782 25.8229L15.3452 24.4604C15.7505 24.0564 15.7505 23.4013 15.3452 22.9972C14.9446 22.598 14.2982 22.5933 13.8919 22.983L13.8776 22.9973L12.5106 24.3598ZM12.4602 20.1213C12.8607 20.5205 12.8655 21.1648 12.4744 21.5699L12.4598 21.5844L11.0928 22.9469L11.0785 22.9613C10.6721 23.3509 10.0258 23.3461 9.62525 22.9469C9.21989 22.5429 9.21989 21.8878 9.62525 21.4838L10.9922 20.1213C11.3976 19.7172 12.0548 19.7172 12.4602 20.1213ZM6.73975 18.6079C6.3344 19.0119 6.3344 19.667 6.73975 20.071C7.14511 20.4751 7.80232 20.4751 8.20768 20.071L9.57466 18.7085C9.98001 18.3045 9.98001 17.6494 9.57466 17.2454C9.1693 16.8413 8.51209 16.8413 8.10673 17.2454L6.73975 18.6079ZM15.3962 28.6989C14.9909 28.2949 14.9909 27.6398 15.3962 27.2358L16.7632 25.8732C17.1686 25.4692 17.8258 25.4692 18.2311 25.8732C18.6365 26.2773 18.6365 26.9323 18.2311 27.3364L16.8642 28.6989C16.4588 29.1029 15.8016 29.1029 15.3962 28.6989Z" fill="#3D75E4"/>
</g>
<defs>
<clipPath id="clip0">
<rect width="32" height="32" fill="white"/>
</clipPath>
</defs>
</svg>
