<svg width="32" height="32" viewBox="0 0 32 32" fill="none" xmlns="http://www.w3.org/2000/svg">
<path d="M23.4 1C23.4 0.447715 23.8477 0 24.4 0H29C30.1046 0 31 0.89543 31 2V29.9997C31 31.1043 30.1046 31.9997 29 31.9997H3C1.89543 31.9997 1 31.1043 1 29.9997V18.4391C1 17.8405 1.26804 17.2735 1.73052 16.8936L7.19719 12.4031C8.50237 11.331 10.4667 12.2595 10.4667 13.9486V15.8508L14.6639 12.4031C15.969 11.331 17.9333 12.2595 17.9333 13.9486V15.8508L23.4 11.3603V5C23.4 4.44772 23.8477 4 24.4 4C24.9523 4 25.4 4.44772 25.4 5V11.3603C25.4 11.9588 25.132 12.5259 24.6695 12.9058L19.2028 17.3963C17.8976 18.4684 15.9333 17.5399 15.9333 15.8508L15.9333 13.9486L11.7361 17.3963C10.431 18.4684 8.46667 17.5399 8.46667 15.8508L8.46667 13.9486L3 18.4391V29.9997H29V2H24.4C23.8477 2 23.4 1.55228 23.4 1Z" fill="#3D75E4"/>
<path d="M7 27C6.44772 27 6 26.5523 6 26V23C6 22.4477 6.44771 22 7 22C7.55228 22 8 22.4477 8 23V26C8 26.5523 7.55228 27 7 27Z" fill="#3D75E4"/>
<path d="M12 26C12 26.5523 12.4477 27 13 27C13.5523 27 14 26.5523 14 26V23C14 22.4477 13.5523 22 13 22C12.4477 22 12 22.4477 12 23V26Z" fill="#3D75E4"/>
<path d="M19 27C18.4477 27 18 26.5523 18 26V23C18 22.4477 18.4477 22 19 22C19.5523 22 20 22.4477 20 23V26C20 26.5523 19.5523 27 19 27Z" fill="#3D75E4"/>
<path d="M24 26C24 26.5523 24.4477 27 25 27C25.5523 27 26 26.5523 26 26V23C26 22.4477 25.5523 22 25 22C24.4477 22 24 22.4477 24 23V26Z" fill="#3D75E4"/>
</svg>
