<svg width="32" height="32" viewBox="0 0 32 32" fill="none" xmlns="http://www.w3.org/2000/svg">
<path fill-rule="evenodd" clip-rule="evenodd" d="M5 23.9922C5.00459 24.5444 4.5606 24.9958 4.00834 25.0004C2.90381 25.0096 2.01584 25.9124 2.02501 27.017C2.03404 28.1041 2.90886 28.9815 3.98963 29.0001L4 29H29C29.5523 29 30 28.5523 30 28V7C30 6.44771 29.5523 6 29 6H8C7.44772 6 7 5.55228 7 5C7 4.44772 7.44772 4 8 4H29C30.6569 4 32 5.34315 32 7V28C32 29.6569 30.6569 31 29 31H4.07221L4.05815 31.0002C1.92364 31.0179 0.165764 29.3605 0.0329905 27.2557C0.0114646 27.1741 4.76837e-07 27.0884 4.76837e-07 27L0 5C0 4.91165 0.011457 4.82598 0.0329652 4.74439C0.163144 2.68065 1.86073 1.03651 3.95632 1.00094C3.9708 1.00031 3.98537 1 4 1C4.53154 1 4.96623 1.41472 4.99812 1.93824C4.99922 1.95609 4.99985 1.97406 5 1.99215V23.9922ZM3 3.28257L3 23.1329C2.64478 23.2268 2.30906 23.3682 2 23.55L2 5.24867C2.01699 5.17423 2.02567 5.09664 2.02501 5.01695C2.0189 4.2811 2.41098 3.63477 3 3.28257Z" fill="#3D75E4"/>
<path d="M9 22C10.1046 22 11 21.1046 11 20C11 18.8954 10.1046 18 9 18C7.89543 18 7 18.8954 7 20C7 21.1046 7.89543 22 9 22Z" fill="#3D75E4"/>
<path d="M23 11C23 12.1046 22.1046 13 21 13C19.8954 13 19 12.1046 19 11C19 9.89543 19.8954 9 21 9C22.1046 9 23 9.89543 23 11Z" fill="#3D75E4"/>
<path d="M24 27C25.1046 27 26 26.1046 26 25C26 23.8954 25.1046 23 24 23C22.8954 23 22 23.8954 22 25C22 26.1046 22.8954 27 24 27Z" fill="#3D75E4"/>
<path d="M12.2249 17.5024C11.8758 17.0744 11.9397 16.4445 12.3676 16.0954L15.8854 13.2254C16.3134 12.8763 16.9433 12.9402 17.2924 13.3681C17.6415 13.7961 17.5777 14.426 17.1497 14.7751L13.6319 17.6451C13.204 17.9942 12.5741 17.9303 12.2249 17.5024Z" fill="#3D75E4"/>
<path d="M22.0197 20.1963C22.1283 20.7378 22.6553 21.0887 23.1968 20.9801C23.7383 20.8715 24.0892 20.3445 23.9806 19.803L23.1718 15.7694C23.0632 15.2279 22.5362 14.8769 21.9947 14.9855C21.4532 15.0941 21.1022 15.6211 21.2108 16.1626L22.0197 20.1963Z" fill="#3D75E4"/>
</svg>
