<svg width="32" height="32" viewBox="0 0 32 32" fill="none" xmlns="http://www.w3.org/2000/svg">
<path fill-rule="evenodd" clip-rule="evenodd" d="M22.7058 8.91254C22.6106 8.95535 22.5122 8.98195 22.4138 8.9935V8.99998C22.4138 9.082 22.404 9.1617 22.3854 9.23798C22.404 9.31432 22.4138 9.39394 22.4138 9.47561C22.4138 11.8366 22.2291 14.1806 21.34 15.9529C20.8824 16.8649 20.2293 17.6458 19.3133 18.1904C18.4014 18.7325 17.2974 19 15.9998 19C14.7022 19 13.5982 18.7325 12.6863 18.1904C11.7702 17.6458 11.1171 16.8649 10.6596 15.9529C9.77042 14.1806 9.58574 11.8366 9.58574 9.47561C9.58574 9.39399 9.59556 9.31438 9.61415 9.23801C9.59558 9.16172 9.58574 9.08201 9.58574 8.99998V8.99355C9.48721 8.98201 9.38873 8.95541 9.2934 8.91254C7.58038 8.14229 6.0333 6.86673 6.0333 5.08886C6.0333 3.32621 7.55496 2.0575 9.24485 1.28715C11.0249 0.47572 13.414 0 15.9996 0C18.5852 0 20.9743 0.47572 22.7543 1.28715C24.4442 2.0575 25.9659 3.32621 25.9659 5.08886C25.9659 6.86673 24.4188 8.14229 22.7058 8.91254ZM8.02656 5.08886C8.02656 4.59329 8.51283 3.81757 10.0693 3.10804C11.5357 2.4396 13.6314 2 15.9996 2C18.3678 2 20.4635 2.4396 21.9299 3.10804C23.4864 3.81757 23.9726 4.59329 23.9726 5.08886C23.9726 5.56164 23.5293 6.28834 22.145 6.96795C21.7599 6.12432 20.9864 5.47962 19.9909 5.32882C18.9373 5.16923 17.4759 4.99999 15.9998 4.99999C14.5236 4.99999 13.0622 5.16923 12.0087 5.32882C11.0131 5.47963 10.2396 6.12439 9.85447 6.9681C8.46997 6.28844 8.02656 5.56168 8.02656 5.08886ZM20.4206 8.20662V8.34814C20.1306 8.31524 19.7987 8.27907 19.4422 8.24288C18.2671 8.12361 16.7854 7.99999 15.6612 7.99999C14.5315 7.99999 13.2155 8.12447 12.2021 8.24472C11.9798 8.27109 11.7705 8.29745 11.579 8.32257V8.20662C11.579 7.72833 11.9021 7.36763 12.3062 7.30641C13.3076 7.15473 14.6611 6.99999 15.9998 6.99999C17.3385 6.99999 18.692 7.15473 19.6933 7.30641C20.0974 7.36763 20.4206 7.72833 20.4206 8.20662ZM12.44 15.0536C11.864 13.9055 11.637 12.2946 11.5891 10.3389C11.8346 10.3054 12.122 10.2682 12.4361 10.2309C13.427 10.1133 14.6504 9.99998 15.6612 9.99998C16.6775 9.99998 18.0737 10.1142 19.2416 10.2327C19.6803 10.2773 20.0813 10.3218 20.41 10.36C20.3609 12.3062 20.1335 13.9096 19.5596 15.0536C19.2432 15.6842 18.8322 16.1517 18.2972 16.4698C17.758 16.7903 17.0239 17 15.9998 17C14.9756 17 14.2416 16.7903 13.7024 16.4698C13.1673 16.1517 12.7563 15.6842 12.44 15.0536Z" fill="#3D75E4"/>
<path d="M13.0975 20.5199C12.8928 20.1445 12.4726 19.9415 12.0525 20.0148L4.33819 21.3616C3.31473 21.5403 2.45706 22.2392 2.07284 23.2076L0.214947 27.8904C-0.56661 29.8604 0.879688 32 2.99282 32H29.0072C31.1203 32 32.5666 29.8604 31.7851 27.8904L29.9272 23.2076C29.5429 22.2392 28.6853 21.5403 27.6618 21.3616L19.9475 20.0148C19.5274 19.9415 19.1072 20.1445 18.9025 20.5199L16.3847 25.1353C16.1937 25.4853 16.2284 25.9157 16.473 26.2304L18.1516 28.3898C18.3484 28.643 18.6544 28.786 18.9741 28.7741C19.2939 28.7623 19.5886 28.5971 19.7663 28.3301L21.2875 26.0441C21.5931 25.5847 21.4698 24.9638 21.012 24.6571C20.5542 24.3504 19.9354 24.4742 19.6297 24.9335L18.8747 26.0681L18.4477 25.5188L20.3085 22.1079L27.3201 23.332C27.6613 23.3915 27.9472 23.6245 28.0753 23.9473L29.9331 28.6301C30.1937 29.2868 29.7116 30 29.0072 30H2.99282C2.28844 30 1.80634 29.2868 2.06686 28.6301L3.92475 23.9473C4.05282 23.6245 4.33871 23.3915 4.67987 23.332L11.6915 22.1079L13.5523 25.5188L13.1253 26.0681L12.3703 24.9335C12.0646 24.4742 11.4458 24.3504 10.988 24.6571C10.5302 24.9638 10.4069 25.5847 10.7125 26.0441L12.2337 28.3301C12.4114 28.5971 12.7061 28.7623 13.0259 28.7741C13.3456 28.786 13.6516 28.643 13.8484 28.3898L15.527 26.2304C15.7716 25.9157 15.8063 25.4853 15.6153 25.1353L13.0975 20.5199Z" fill="#3D75E4"/>
<path d="M27.8668 25.0557C27.9619 24.5117 27.5994 23.9934 27.0573 23.898L24.1123 23.3799C23.5702 23.2845 23.0536 23.6481 22.9586 24.1921C22.8635 24.7361 23.2259 25.2544 23.7681 25.3498L26.713 25.868C27.2552 25.9634 27.7717 25.5997 27.8668 25.0557Z" fill="#3D75E4"/>
<path d="M5.03337 23.898C4.49122 23.9934 4.1288 24.5117 4.22387 25.0557C4.31894 25.5997 4.83551 25.9634 5.37766 25.868L8.32261 25.3498C8.86476 25.2544 9.22719 24.7361 9.13212 24.1921C9.03704 23.6481 8.52047 23.2845 7.97832 23.3799L5.03337 23.898Z" fill="#3D75E4"/>
</svg>
