<svg width="32" height="32" viewBox="0 0 32 32" fill="none" xmlns="http://www.w3.org/2000/svg">
<path fill-rule="evenodd" clip-rule="evenodd" d="M23.049 11.9071C21.279 11.5113 18.8013 11.3237 16.3202 11.3237C13.8342 11.3238 11.2644 11.5125 9.30224 11.9025C8.89572 11.9834 8.5812 12.3066 8.51147 12.7151C8.18744 14.6139 7.85247 17.3112 8.69561 19.9715C9.55986 22.6984 11.6168 25.2551 15.7921 26.928C16.0308 27.0237 16.2972 27.0237 16.536 26.928C20.7113 25.2551 22.7682 22.6983 23.6324 19.9713C24.4755 17.3109 24.1406 14.6135 23.8165 12.7148C23.7483 12.3148 23.445 11.9957 23.049 11.9071ZM10.6021 19.3673C9.99638 17.4559 10.1193 15.4557 10.3726 13.7419C12.073 13.4661 14.2046 13.3238 16.3203 13.3237C18.4147 13.3237 20.4332 13.4631 21.9535 13.7287C22.2081 15.4454 22.3332 17.4509 21.7259 19.3671C21.0809 21.4024 19.5703 23.4548 16.164 24.9172C12.7578 23.4548 11.2472 21.4025 10.6021 19.3673Z" fill="#3D75E4"/>
<path fill-rule="evenodd" clip-rule="evenodd" d="M16.6468 0.237333L16.6825 0.266221C16.7154 0.292683 16.7662 0.332986 16.8335 0.385158C16.9682 0.489546 17.169 0.641164 17.4263 0.824289C17.9417 1.19116 18.6793 1.68113 19.5631 2.17038C21.3548 3.16226 23.6398 4.09071 25.8518 4.09071C26.1182 4.09071 26.3736 4.19698 26.5613 4.38596C26.749 4.57494 26.8536 4.83101 26.8518 5.09737C26.8452 6.09458 27.0482 7.379 27.3033 8.96769L27.3151 9.041C27.8368 12.2901 28.5227 16.5613 27.3713 20.7289C26.1868 25.0162 23.1063 29.0599 16.3914 31.9198C16.141 32.0265 15.858 32.0265 15.6077 31.9198C8.89272 29.0599 5.81227 25.0162 4.62783 20.7289C3.47651 16.5614 4.16235 12.2903 4.68409 9.04125L4.6959 8.96769C4.95096 7.379 5.15403 6.09458 5.1474 5.09737C5.14562 4.83101 5.25019 4.57494 5.43792 4.38596C5.62564 4.19698 5.881 4.09071 6.14737 4.09071C8.35938 4.09071 10.6444 3.16226 12.4361 2.17038C13.3199 1.68113 14.0575 1.19116 14.5729 0.824289C14.8302 0.641164 15.031 0.489546 15.1657 0.385158C15.233 0.332986 15.2838 0.292683 15.3167 0.266221L15.3526 0.237182L15.3602 0.230929L15.3611 0.230177C15.4951 0.119049 15.6508 0.0481773 15.8126 0.0175241C15.8259 0.0150135 15.8392 0.0127641 15.8526 0.0107814C15.9005 0.00370682 15.9488 0.00011564 15.9971 4.16274e-06L16 0C16.2467 0 16.4725 0.0892999 16.6468 0.237333ZM15.7327 2.45373C15.8286 2.38543 15.9177 2.3209 15.9996 2.26078C16.0815 2.3209 16.1706 2.38543 16.2665 2.45373C16.8288 2.8539 17.6308 3.38666 18.5944 3.92014C20.2716 4.84861 22.5218 5.82634 24.8895 6.04544C24.9383 6.68044 25.03 7.36521 25.1378 8.07596C22.6186 7.65064 19.2152 7.28105 16.1674 7.28077L16.1642 7.28076H16.1623C13.7997 7.28088 11.2301 7.50282 9.03106 7.79818C8.48369 7.8717 8.09956 8.37503 8.17308 8.9224C8.2466 9.46977 8.74993 9.8539 9.2973 9.78038C11.435 9.49326 13.9131 9.28077 16.164 9.28076C19.3636 9.28078 23.0084 9.70983 25.4686 10.1653C25.9552 13.2794 26.3804 16.805 25.4435 20.1963C24.4628 23.7461 21.9457 27.2742 15.9995 29.9095C10.0534 27.2742 7.53631 23.7461 6.55562 20.1963C5.52926 16.4811 6.13761 12.6046 6.67061 9.28472L6.68177 9.21526C6.861 8.0991 7.03519 7.01434 7.10971 6.04544C9.4774 5.82634 11.7276 4.84861 13.4048 3.92014C14.3684 3.38666 15.1704 2.8539 15.7327 2.45373Z" fill="#3D75E4"/>
</svg>
