<svg width="32" height="32" viewBox="0 0 32 32" fill="none" xmlns="http://www.w3.org/2000/svg">
<path d="M22 2C19.2386 2 17 4.23858 17 7C17 7.55228 16.5523 8 16 8C15.4477 8 15 7.55228 15 7C15 4.23858 12.7614 2 10 2C7.23858 2 5 4.23858 5 7C5 7.55228 4.55228 8 4 8C3.44772 8 3 7.55228 3 7C3 3.13401 6.13401 0 10 0C12.5463 0 14.7751 1.35958 16 3.39242C17.2249 1.35958 19.4537 0 22 0C25.866 0 29 3.13401 29 7C29 7.55228 28.5523 8 28 8C27.4477 8 27 7.55228 27 7C27 4.23858 24.7614 2 22 2Z" fill="#3D75E4"/>
<path fill-rule="evenodd" clip-rule="evenodd" d="M10.5206 10C9.80981 10 9.19134 10.3676 8.85098 10.9177C8.50223 11.4813 8.45418 12.2321 8.87043 12.8813C10.2669 15.0595 12.4526 16.6111 15 16.9366V20H7.63786C6.89915 20 6.26662 20.3943 5.93497 20.9719C5.59555 21.563 5.58139 22.3382 6.04707 22.9808C8.2505 26.0213 11.8922 28 16.0002 28C20.1082 28 23.7499 26.0213 25.9533 22.9808C26.419 22.3382 26.4048 21.563 26.0654 20.9719C25.7338 20.3943 25.1012 20 24.3625 20H17V16.9366C19.5475 16.6113 21.7335 15.0597 23.13 12.8813C23.5462 12.2321 23.4982 11.4813 23.1494 10.9177C22.8091 10.3676 22.1906 10 21.4798 10H10.5206ZM16.0002 15C13.8892 15 11.9583 13.8628 10.6853 12H21.3152C20.0421 13.8628 18.1113 15 16.0002 15ZM16.0002 26C12.6323 26 9.65624 24.4213 7.80987 22H24.1905C22.3441 24.4213 19.3681 26 16.0002 26Z" fill="#3D75E4"/>
<path d="M4 26C2.89543 26 2 26.8954 2 28V30C2 31.1046 2.89543 32 4 32H28C29.1046 32 30 31.1046 30 30V28C30 26.8954 29.1046 26 28 26H25C24.4477 26 24 26.4477 24 27C24 27.5523 24.4477 28 25 28H28V30H4V28H7C7.55228 28 8 27.5523 8 27C8 26.4477 7.55228 26 7 26H4Z" fill="#3D75E4"/>
</svg>
