<svg width="32" height="32" viewBox="0 0 32 32" fill="none" xmlns="http://www.w3.org/2000/svg">
<path fill-rule="evenodd" clip-rule="evenodd" d="M26 2C28.2091 2 30 3.79086 30 6V31C30 31.5523 30.4477 32 31 32C31.5523 32 32 31.5523 32 31V6C32 2.68629 29.3137 0 26 0C22.9969 0 20.5091 2.20634 20.0691 5.0865C17.7525 5.5227 16 7.55669 16 10C16 10.5523 16.4477 11 17 11L25 11C25.5523 11 26 10.5523 26 10C26 7.61542 24.3307 5.62072 22.097 5.12071C22.4976 3.33457 24.0929 2 26 2ZM7.92653 1.62435C7.77355 1.24695 7.40699 1 6.99976 1C6.59253 1 6.22597 1.24695 6.073 1.62435L0.62083 15.0755C-0.652646 18.2173 0.0684762 21.9099 2.45858 24.2265L2.96577 24.7181C3.36235 25.1024 3.99544 25.0926 4.37981 24.696C4.76418 24.2994 4.75429 23.6663 4.35771 23.2819L3.85053 22.7904C2.07091 21.0655 1.49342 18.2469 2.47436 15.8268L6.99976 4.66208L11.5252 15.8268C12.5061 18.2469 11.9286 21.0655 10.149 22.7904L9.64181 23.2819C9.24523 23.6663 9.23534 24.2994 9.61971 24.696C9.83615 24.9193 10.1315 25.02 10.419 24.9967C10.4459 24.9989 10.473 25 10.5005 25H20V27H12H10C9.44771 27 9 27.4477 9 28C9 28.5523 9.44771 29 10 29H11V31C11 31.5523 11.4477 32 12 32C12.5523 32 13 31.5523 13 31V29H23V31C23 31.5523 23.4477 32 24 32C24.5523 32 25 31.5523 25 31V29H27C27.5523 29 28 28.5523 28 28C28 27.4477 27.5523 27 27 27H24H22V25H25.0001C25.5524 25 26.0001 24.5523 26.0001 24V20C26.0001 19.4477 25.5524 19 25.0001 19H17.0001C16.4478 19 16.0001 19.4477 16.0001 20C16.0001 20.5523 16.4478 21 17.0001 21H24.0001V23H12.5701C14.1124 20.7275 14.4458 17.7082 13.3787 15.0755L7.92653 1.62435ZM8 14C8 13.4477 7.55228 13 7 13C6.44772 13 6 13.4477 6 14V18.5858L4.70711 17.2929C4.31658 16.9024 3.68342 16.9024 3.29289 17.2929C2.90237 17.6834 2.90237 18.3166 3.29289 18.7071L6 21.4142V31C6 31.5523 6.44772 32 7 32C7.55228 32 8 31.5523 8 31V21.4142L10.7071 18.7071C11.0976 18.3166 11.0976 17.6834 10.7071 17.2929C10.3166 16.9024 9.68342 16.9024 9.29289 17.2929L8 18.5858V14ZM23.8293 9C23.4175 7.83481 22.3062 7 21 7C19.6938 7 18.5825 7.83481 18.1707 9L23.8293 9Z" fill="#3D75E4"/>
</svg>
