<svg width="32" height="32" viewBox="0 0 32 32" fill="none" xmlns="http://www.w3.org/2000/svg">
<path d="M1 0C0.447715 0 0 0.447715 0 1C0 1.55228 0.447715 2 1 2H31C31.5523 2 32 1.55228 32 1C32 0.447715 31.5523 0 31 0H1Z" fill="#3D75E4"/>
<path d="M5 4C5 3.44772 4.55228 3 4 3C3.44772 3 3 3.44772 3 4V29C3 30.6569 4.34314 32 6 32H26C27.6569 32 29 30.6569 29 29V4C29 3.44772 28.5523 3 28 3C27.4477 3 27 3.44772 27 4V29C27 29.5523 26.5523 30 26 30H6C5.44772 30 5 29.5523 5 29V4Z" fill="#3D75E4"/>
<path fill-rule="evenodd" clip-rule="evenodd" d="M12 6C10.3431 6 9 7.34315 9 9C9 10.6569 10.3431 12 12 12H20C21.6569 12 23 10.6569 23 9C23 7.34315 21.6569 6 20 6H12ZM11 9C11 8.44772 11.4477 8 12 8H20C20.5523 8 21 8.44772 21 9C21 9.55228 20.5523 10 20 10H12C11.4477 10 11 9.55228 11 9Z" fill="#3D75E4"/>
<path d="M16 15C16.3632 15 16.6978 15.1969 16.8742 15.5144L18.1242 17.7644C18.3924 18.2471 18.2184 18.8559 17.7356 19.1242C17.2529 19.3924 16.6441 19.2184 16.3758 18.7356L16 18.0591L14.3742 20.9856C14.1059 21.4684 13.4971 21.6424 13.0144 21.3742C12.5316 21.1059 12.3576 20.4971 12.6258 20.0144L15.1258 15.5144C15.3022 15.1969 15.6368 15 16 15Z" fill="#3D75E4"/>
<path d="M18.0144 19.6258C18.4971 19.3576 19.1059 19.5316 19.3742 20.0144L21.8742 24.5144C22.0462 24.8241 22.0416 25.2017 21.8619 25.5071C21.6822 25.8125 21.3543 26 21 26H18.6C18.0477 26 17.6 25.5523 17.6 25C17.6 24.4477 18.0477 24 18.6 24H19.3005L17.6258 20.9856C17.3576 20.5029 17.5316 19.8941 18.0144 19.6258Z" fill="#3D75E4"/>
<path d="M12.7356 21.8758C13.2184 22.1441 13.3924 22.7529 13.1242 23.2356L12.6995 24H16.2C16.7523 24 17.2 24.4477 17.2 25C17.2 25.5523 16.7523 26 16.2 26H11C10.6457 26 10.3178 25.8125 10.1381 25.5071C9.95844 25.2017 9.95377 24.8241 10.1258 24.5144L11.3758 22.2644C11.6441 21.7816 12.2529 21.6076 12.7356 21.8758Z" fill="#3D75E4"/>
</svg>
