<svg width="32" height="32" viewBox="0 0 32 32" fill="none" xmlns="http://www.w3.org/2000/svg">
<path fill-rule="evenodd" clip-rule="evenodd" d="M21.3501 3.91462C21.3584 3.92334 21.3668 3.93194 21.3755 3.94043C21.3841 3.94893 21.3929 3.95723 21.4018 3.96534L21.7109 4.26871C21.9059 4.4601 21.9059 4.77039 21.7109 4.96178C21.5159 5.15317 21.1997 5.15317 21.0047 4.96178L20.2985 4.26871C20.1035 4.07733 20.1035 3.76703 20.2985 3.57565C20.4935 3.38426 20.8097 3.38426 21.0047 3.57565L21.3501 3.91462ZM22.0504 1.89192C21.079 1.24579 19.7466 1.34499 18.886 2.18951C18.7291 2.34355 18.5974 2.51299 18.491 2.69288C17.3639 2.12385 15.9462 2.30269 15.0019 3.2294L0.877571 17.0907C-0.292524 18.2391 -0.292524 20.1008 0.877571 21.2491L3.70243 24.0214C4.87253 25.1697 6.76963 25.1697 7.93972 24.0214L22.064 10.1601C23.0084 9.23326 23.1906 7.84169 22.6105 6.73558C22.7938 6.63114 22.9664 6.50192 23.1233 6.34791C23.9711 5.51596 24.0818 4.23462 23.4555 3.28528L23.4941 3.24737C23.8841 2.8646 24.5165 2.8646 24.9065 3.24737L27.5296 5.82162C27.9197 6.20439 27.9197 6.82498 27.5296 7.20775L19.055 15.5246C17.885 16.6729 17.885 18.5346 19.055 19.683L19.3594 19.9816C18.8277 21.0745 19.023 22.423 19.9453 23.3281L26.8851 30.1388C28.0552 31.2871 29.9523 31.2871 31.1224 30.1388C32.2925 28.9905 32.2925 27.1287 31.1224 25.9804L24.1826 19.1697C23.26 18.2643 21.8853 18.0728 20.7715 18.5952L20.4675 18.2968C20.0774 17.9141 20.0774 17.2935 20.4675 16.9107L28.9421 8.59388C30.1122 7.44557 30.1122 5.58379 28.9421 4.43548L26.319 1.86123C25.1489 0.712922 23.2518 0.712923 22.0817 1.86123L22.0504 1.89192ZM2.29 19.863C1.89997 19.4802 1.89997 18.8596 2.29 18.4769L16.4143 4.61553C16.8043 4.23276 17.4367 4.23276 17.8267 4.61553L20.6516 7.3878C21.0416 7.77057 21.0416 8.39116 20.6516 8.77393L6.52729 22.6353C6.13726 23.018 5.50489 23.018 5.11486 22.6353L2.29 19.863ZM21.3577 21.942C20.9677 21.5592 20.9677 20.9386 21.3577 20.5559C21.7478 20.1731 22.3801 20.1731 22.7701 20.5559L29.71 27.3665C30.1 27.7493 30.1 28.3699 29.71 28.7526C29.32 29.1354 28.6876 29.1354 28.2976 28.7526L21.3577 21.942Z" fill="#3D75E4"/>
</svg>
