<svg width="32" height="32" viewBox="0 0 32 32" fill="none" xmlns="http://www.w3.org/2000/svg">
<path d="M13.2136 30.6178C13.5548 31.0521 14.1835 31.1275 14.6177 30.7863C15.052 30.4451 15.1274 29.8164 14.7862 29.3821L5.72796 17.8534C4.87323 16.7656 4.87323 15.2343 5.72796 14.1465L14.7862 2.61779C15.1275 2.18352 15.052 1.55486 14.6177 1.21365C14.1835 0.872434 13.5548 0.947874 13.2136 1.38214L4.15532 12.9109C2.73078 14.7239 2.73078 17.276 4.15532 19.0891L13.2136 30.6178Z" fill="#3D75E4"/>
<path d="M27.2136 30.6178C27.5548 31.0521 28.1835 31.1275 28.6177 30.7863C29.052 30.4451 29.1274 29.8164 28.7862 29.3821L19.728 17.8534C18.8732 16.7656 18.8732 15.2343 19.728 14.1465L28.7862 2.61779C29.1275 2.18352 29.052 1.55486 28.6177 1.21365C28.1835 0.872434 27.5548 0.947874 27.2136 1.38214L18.1553 12.9109C16.7308 14.7239 16.7308 17.276 18.1553 19.0891L27.2136 30.6178Z" fill="#3D75E4"/>
</svg>
