<svg width="32" height="32" viewBox="0 0 32 32" fill="none" xmlns="http://www.w3.org/2000/svg">
<path fill-rule="evenodd" clip-rule="evenodd" d="M9 1C8.44771 1 8 1.44772 8 2C8 2.55229 8.44772 3 9 3H10.3333L7.23529 8.80881C7.08081 9.09847 7 9.42171 7 9.74999V12C7 13.1269 7.90124 13.9453 8.89982 14.0443C10.5783 14.2107 12.1208 14.8382 13.4003 15.7995C13.5735 15.9296 13.7843 16 14.001 16H18.9952L19 16L19.0048 16H23.5C23.5274 16 23.5546 15.9989 23.5814 15.9967C25.9745 17.0947 27.9047 19.0254 29.0023 21.417C28.3892 21.1488 27.712 21 27 21C24.581 21 22.5633 22.7178 22.1 25H2.34141C2.12031 24.3744 2 23.7013 2 23C2 22.6593 2.0284 22.3252 2.08296 22H14.7101C15.0258 22 15.323 21.8509 15.5118 21.5978C15.7005 21.3447 15.7586 21.0174 15.6686 20.7148C14.6853 17.4109 11.6255 15 8 15C3.58172 15 0 18.5817 0 23C0 27.4183 3.58172 31 8 31C10.9626 31 13.5473 29.3896 14.9295 27H22.1C22.5633 29.2822 24.581 31 27 31C29.7614 31 32 28.7614 32 26C32 25.9716 31.9998 25.9432 31.9993 25.9149C31.966 20.7359 28.9044 16.2776 24.5 14.2181V4C24.5 2.34315 23.1569 1 21.5 1H20.502L20.5 1H9ZM18 3H12.6L9 9.74999V12C9 12 9.00315 12.007 9.01083 12.0149C9.02827 12.0329 9.05904 12.0503 9.09711 12.0541C11.0314 12.2458 12.8186 12.9387 14.326 14H18V3ZM20 3V14H22.5V4C22.5 3.44772 22.0523 3 21.5 3H20ZM3.52779 27C4.62643 28.2275 6.223 29 8 29C9.77615 29 11.3731 28.2283 12.4724 27H3.52779ZM24 26C24 27.6569 25.3431 29 27 29C28.6482 29 29.9859 27.6709 29.9999 26.026L29.9997 26.0146L29.9996 26.0003L29.9994 25.9394C29.9671 24.3105 28.6366 23 27 23C25.3431 23 24 24.3431 24 26ZM2.80269 20H13.1976C12.1599 18.2061 10.2199 17 8 17C5.77915 17 3.84012 18.2066 2.80269 20Z" fill="#3D75E4"/>
</svg>
