<svg width="32" height="32" viewBox="0 0 32 32" fill="none" xmlns="http://www.w3.org/2000/svg">
<path d="M16.8787 2.29289C16.4882 1.90237 15.855 1.90237 15.4645 2.29289L6.29289 11.4645C5.90237 11.855 5.90237 12.4882 6.29289 12.8787L16.8787 23.4645C17.079 23.6648 17.1766 23.9289 17.1714 24.1914V30H21.1714C21.7237 30 22.1714 30.4477 22.1714 31C22.1714 31.5523 21.7237 32 21.1714 32H16.1991C16.1899 32.0003 16.1807 32.0004 16.1714 32.0004C16.1621 32.0004 16.1529 32.0003 16.1436 32H11.1714C10.6191 32 10.1714 31.5523 10.1714 31C10.1714 30.4477 10.6191 30 11.1714 30H15.1714V24.5856L4.87868 14.2929C3.70711 13.1213 3.70711 11.2218 4.87868 10.0503L14.0503 0.87868C15.2218 -0.292893 17.1213 -0.292893 18.2929 0.87868L27.4645 10.0503C28.636 11.2218 28.636 13.1213 27.4645 14.2929L19.8787 21.8787C19.4882 22.2692 18.855 22.2692 18.4645 21.8787C18.0739 21.4882 18.0739 20.855 18.4645 20.4645L26.0503 12.8787C26.4408 12.4882 26.4408 11.855 26.0503 11.4645L16.8787 2.29289Z" fill="#3D75E4"/>
<path fill-rule="evenodd" clip-rule="evenodd" d="M15.4645 5.46447C15.855 5.07394 16.4882 5.07394 16.8787 5.46447L22.8787 11.4645C23.0662 11.652 23.1716 11.9064 23.1716 12.1716C23.1716 12.4368 23.0662 12.6911 22.8787 12.8787L16.8787 18.8787C16.6911 19.0662 16.4368 19.1716 16.1716 19.1716C15.9064 19.1716 15.652 19.0662 15.4645 18.8787L9.46447 12.8787C9.07394 12.4882 9.07394 11.855 9.46447 11.4645L15.4645 5.46447ZM16.1716 7.58579L11.5858 12.1716L16.1716 16.7574L20.7574 12.1716L16.1716 7.58579Z" fill="#3D75E4"/>
</svg>
