<svg width="32" height="32" viewBox="0 0 32 32" fill="none" xmlns="http://www.w3.org/2000/svg">
<path d="M5.82733 16.7399C6.20875 17.0867 6.79125 17.0867 7.17267 16.7399H5.82733Z" fill="#3D75E4"/>
<path fill-rule="evenodd" clip-rule="evenodd" d="M6.5 4C5.11929 4 4 5.11929 4 6.5C4 7.88071 5.11929 9 6.5 9C7.88071 9 9 7.88071 9 6.5C9 5.11929 7.88071 4 6.5 4ZM6 6.5C6 6.22386 6.22386 6 6.5 6C6.77614 6 7 6.22386 7 6.5C7 6.77614 6.77614 7 6.5 7C6.22386 7 6 6.77614 6 6.5Z" fill="#3D75E4"/>
<path fill-rule="evenodd" clip-rule="evenodd" d="M7.17267 16.7399L7.17498 16.7378L7.17928 16.7339L7.19374 16.7206C7.20595 16.7093 7.22324 16.6933 7.24527 16.6727C7.28931 16.6315 7.35235 16.5718 7.43167 16.495C7.59024 16.3416 7.81428 16.1196 8.08202 15.8397C8.61637 15.281 9.33038 14.4861 10.0467 13.5419C11.4413 11.7036 13 9.10047 13 6.5C13 2.91015 10.0899 0 6.5 0C2.91015 0 0 2.91015 0 6.5C0 9.10047 1.55872 11.7036 2.95331 13.5419C3.66962 14.4861 4.38363 15.281 4.91798 15.8397C5.18571 16.1196 5.40976 16.3416 5.56833 16.495C5.64765 16.5718 5.71069 16.6315 5.75473 16.6727C5.77676 16.6933 5.79405 16.7093 5.80626 16.7206L5.82072 16.7339L5.82502 16.7378L5.82733 16.7399M6.5 14.599C6.54395 14.5538 6.58958 14.5065 6.63673 14.4572C7.13363 13.9377 7.79462 13.2014 8.45331 12.3331C9.80872 10.5464 11 8.39952 11 6.5C11 4.01472 8.98528 2 6.5 2C4.01472 2 2 4.01472 2 6.5C2 8.39952 3.19128 10.5464 4.54669 12.3331C5.20538 13.2014 5.86637 13.9377 6.36327 14.4572C6.41042 14.5065 6.45605 14.5538 6.5 14.599Z" fill="#3D75E4"/>
<path fill-rule="evenodd" clip-rule="evenodd" d="M20 6.5C20 4.567 21.567 3 23.5 3C25.433 3 27 4.567 27 6.5V7.17062C28.1653 7.58239 29.0002 8.69369 29.0002 10V11C29.0002 11.5523 28.5525 12 28.0002 12C27.448 12 27.0002 11.5523 27.0002 11V10C27.0002 9.44771 26.5525 9 26.0002 9H21.0955C19.7286 9 18.5345 9.92397 18.1915 11.2471L16.0006 19.6976L27.6125 13.6392C29.6098 12.5971 32.0002 14.0462 32.0002 16.299V25.9996C32.0002 27.6565 30.6571 28.9996 29.0002 28.9996H28.8741C28.4302 30.7251 26.864 32 25 32C22.7909 32 21 30.2091 21 28C21 25.7909 22.7909 24 25 24C26.8637 24 28.4297 25.2746 28.8739 26.9996H29.0002C29.5525 26.9996 30.0002 26.5519 30.0002 25.9996V16.299C30.0002 15.548 29.2034 15.065 28.5376 15.4124L9.40965 25.3922C9.62147 25.9339 9.77741 26.4744 9.87566 27H12.126C12.5701 25.2748 14.1362 24 16 24C18.2091 24 20 25.7909 20 28C20 30.2091 18.2091 32 16 32C14.1362 32 12.5701 30.7252 12.126 29H9.95532C9.86838 29.6704 9.64953 30.3086 9.25303 30.8343C8.68941 31.5816 7.8406 32 6.81828 32H1.00063C0.53917 32 0.137102 31.6843 0.0282933 31.2358C-0.0805152 30.7874 0.131662 30.3227 0.541808 30.1112C1.83809 29.4428 3.18143 28.2532 4.19853 26.8896C5.22979 25.5071 5.81828 24.0921 5.81828 23C5.81828 22.5807 6.07998 22.2058 6.47368 22.0613C6.86739 21.9168 7.30945 22.0333 7.58079 22.3531C7.92377 22.7573 8.23179 23.1784 8.50388 23.6089L13.6113 20.9442L16.2555 10.7452C16.7332 8.90258 18.2012 7.52444 20 7.12103V6.5ZM7.4199 25.8143C7.34943 25.7642 7.28488 25.7045 7.22843 25.6359C6.86901 26.4901 6.37006 27.3235 5.80166 28.0855C5.29562 28.7639 4.71387 29.4138 4.08546 30H6.81828C7.2505 30 7.4926 29.847 7.65626 29.63C7.84788 29.376 8.0001 28.9343 8.0001 28.2858C8.0001 27.5699 7.81205 26.7071 7.4199 25.8143ZM25 6.5V7H22V6.5C22 5.67157 22.6716 5 23.5 5C24.3284 5 25 5.67157 25 6.5ZM16 26C14.8954 26 14 26.8954 14 28C14 29.1046 14.8954 30 16 30C17.1046 30 18 29.1046 18 28C18 26.8954 17.1046 26 16 26ZM23 28C23 26.8954 23.8954 26 25 26C26.1046 26 27 26.8954 27 28C27 29.1046 26.1046 30 25 30C23.8954 30 23 29.1046 23 28Z" fill="#3D75E4"/>
</svg>
