<svg width="33" height="32" viewBox="0 0 33 32" fill="none" xmlns="http://www.w3.org/2000/svg">
<path d="M13 2C6.92487 2 2 6.92487 2 13C2 19.0751 6.92487 24 13 24C16.031 24 18.774 22.7754 20.7647 20.7917C20.9636 20.5935 21.225 20.4963 21.4852 20.5001C21.7461 20.4963 22.0081 20.5939 22.2071 20.7929L31.7071 30.2929C32.0976 30.6834 32.0976 31.3166 31.7071 31.7071C31.3166 32.0976 30.6834 32.0976 30.2929 31.7071L21.4582 22.8724C19.1853 24.8213 16.2295 26 13 26C5.8203 26 0 20.1797 0 13C0 5.8203 5.8203 0 13 0C20.1797 0 26 5.8203 26 13C26 15.3662 25.3669 17.5876 24.2602 19.5007C23.9837 19.9788 23.3719 20.1421 22.8939 19.8656C22.4158 19.5891 22.2525 18.9773 22.529 18.4993C23.4644 16.8823 24 15.0052 24 13C24 6.92487 19.0751 2 13 2Z" fill="#3D75E4"/>
<path d="M13 6C9.13401 6 6 9.13401 6 13C6 13.5523 5.55228 14 5 14C4.44772 14 4 13.5523 4 13C4 8.02944 8.02944 4 13 4C13.5523 4 14 4.44772 14 5C14 5.55228 13.5523 6 13 6Z" fill="#3D75E4"/>
</svg>
