<svg width="32" height="32" viewBox="0 0 32 32" fill="none" xmlns="http://www.w3.org/2000/svg">
<path fill-rule="evenodd" clip-rule="evenodd" d="M14.9826 2.04745C13.9666 2.30755 13.0381 2.92019 11.8549 3.71888L11.8129 3.74723C10.3365 4.74396 8.56254 5.9415 6.09354 6.38702C5.36793 6.51795 4.9916 7.01824 5.00126 7.43898C5.17036 14.8055 8.56905 23.3893 13.6985 28.6479C14.0844 29.0435 14.0765 29.6769 13.681 30.0628C13.2854 30.4487 12.652 30.4408 12.2662 30.0452C6.75895 24.3993 3.1807 15.3217 3.0008 7.48491C2.96164 5.77924 4.37077 4.66449 5.73823 4.41774C7.76797 4.05149 9.23535 3.07284 10.7354 2.06027C10.7607 2.04319 10.7861 2.02607 10.8115 2.00891C11.9822 1.21837 13.2607 0.354982 14.7806 0.0408313C16.0808 -0.227915 16.9836 0.879056 16.9836 1.92184L16.9834 29.8853C22.815 24.8257 26.8119 15.425 26.9987 7.43896C27.0086 7.01843 26.6324 6.51792 25.9069 6.38702C23.4379 5.9415 21.664 4.74397 20.1875 3.74724L20.1455 3.71888C19.5529 3.31886 19.0238 2.9625 18.4929 2.6665C18.0103 2.39742 17.8372 1.78802 18.1063 1.30538C18.3754 0.822748 18.9847 0.649633 19.4673 0.918721C20.0794 1.25999 20.6741 1.66139 21.2467 2.04796L21.265 2.06027C22.7651 3.07284 24.2324 4.05149 26.2622 4.41774C27.6298 4.66452 29.0391 5.77993 28.9992 7.48577C28.7994 16.0227 24.542 26.077 18.1437 31.5267C16.804 32.6677 14.9824 31.5804 14.9825 30.0201L14.9826 2.04745Z" fill="#3D75E4"/>
</svg>
