<svg width="32" height="32" viewBox="0 0 32 32" fill="none" xmlns="http://www.w3.org/2000/svg">
<path d="M30.6951 9.2806C31.0924 9.66421 31.1035 10.2973 30.7199 10.6946L18.6414 23.2044C17.4619 24.426 15.5045 24.426 14.325 23.2044L9.00521 17.6946C8.62159 17.2973 8.6327 16.6642 9.03002 16.2806C9.42733 15.897 10.0604 15.9081 10.444 16.3054L15.7638 21.8152C16.157 22.2224 16.8095 22.2224 17.2026 21.8152L29.2811 9.30541C29.6647 8.90809 30.2978 8.89699 30.6951 9.2806Z" fill="#3D75E4"/>
<path d="M22.7071 10.2929C23.0976 10.6834 23.0976 11.3166 22.7071 11.7071L15.7071 18.7071C15.3166 19.0976 14.6834 19.0976 14.2929 18.7071C13.9024 18.3166 13.9024 17.6834 14.2929 17.2929L21.2929 10.2929C21.6834 9.90237 22.3166 9.90237 22.7071 10.2929Z" fill="#3D75E4"/>
<path d="M2.70711 16.2929C2.31658 15.9024 1.68342 15.9024 1.29289 16.2929C0.902369 16.6834 0.902369 17.3166 1.29289 17.7071L6.87868 23.2929C8.05026 24.4645 9.94975 24.4645 11.1213 23.2929L11.2071 23.2071C11.5976 22.8166 11.5976 22.1834 11.2071 21.7929C10.8166 21.4024 10.1834 21.4024 9.79289 21.7929L9.70711 21.8787C9.31658 22.2692 8.68342 22.2692 8.29289 21.8787L2.70711 16.2929Z" fill="#3D75E4"/>
</svg>
