<svg width="32" height="32" viewBox="0 0 32 32" fill="none" xmlns="http://www.w3.org/2000/svg">
<path fill-rule="evenodd" clip-rule="evenodd" d="M16 9C12.6863 9 10 11.6863 10 15C10 18.3137 12.6863 21 16 21C19.3137 21 22 18.3137 22 15C22 11.6863 19.3137 9 16 9ZM12 15C12 12.7909 13.7909 11 16 11C18.2091 11 20 12.7909 20 15C20 17.2091 18.2091 19 16 19C13.7909 19 12 17.2091 12 15Z" fill="#3D75E4"/>
<path fill-rule="evenodd" clip-rule="evenodd" d="M23.2211 1.12775C21.7927 0.303024 19.9663 0.786202 19.1326 2.20943L18.5147 3.2642C17.703 3.09105 16.8616 3.00008 16 3.00008C15.1443 3.00008 14.3086 3.0898 13.5022 3.26061L12.9604 2.28793C12.1454 0.82463 10.2901 0.31212 8.83952 1.1496L7.14557 2.1276C5.70416 2.9598 5.21575 4.80633 6.0572 6.24236L6.72618 7.38404C5.84958 8.45033 5.15283 9.67115 4.68311 11.0001H4C2.34315 11.0001 1 12.3432 1 14.0001V16.0001C1 17.6569 2.34315 19.0001 4 19.0001H4.68311C5.26809 20.6551 6.20519 22.1425 7.40353 23.3727L7.18125 23.7451C6.32341 25.1825 6.80773 27.0438 8.25732 27.8807L9.95055 28.8583C11.3933 29.6913 13.2385 29.1891 14.0602 27.7399L14.5303 26.9109C15.0123 26.9698 15.5028 27.0001 16 27.0001C16.6842 27.0001 17.3556 26.9427 18.0097 26.8324L18.6297 27.851C19.4772 29.243 21.2809 29.7039 22.6923 28.8891L24.3938 27.9067C25.8692 27.0549 26.34 25.1469 25.4303 23.7065L24.9676 22.9741C25.9889 21.8262 26.7937 20.4802 27.3169 19.0001H28C29.6569 19.0001 31 17.6569 31 16.0001V14.0001C31 12.3432 29.6569 11.0001 28 11.0001H27.3169C26.849 9.67629 26.1558 8.45976 25.284 7.39641L25.9729 6.27454C26.8566 4.8355 26.3789 2.95091 24.9165 2.10655L23.2211 1.12775ZM18.6069 5.34302C18.6269 5.34841 18.647 5.35315 18.667 5.35725C19.1101 5.51427 19.6164 5.34028 19.8628 4.91961L20.8583 3.22036C21.1362 2.74595 21.745 2.58489 22.2211 2.8598L23.9165 3.8386C24.404 4.12006 24.5632 4.74825 24.2686 5.22793L23.1947 6.97677C22.937 7.39631 23.026 7.93121 23.3818 8.24714C23.4 8.27148 23.4194 8.29521 23.4401 8.31824C24.4084 9.3956 25.1453 10.6833 25.5742 12.1032C25.5828 12.1314 25.5924 12.159 25.6032 12.1858C25.6902 12.6494 26.0971 13.0001 26.5859 13.0001H28C28.5523 13.0001 29 13.4478 29 14.0001V16.0001C29 16.5524 28.5523 17.0001 28 17.0001H26.5859C26.0971 17.0001 25.6902 17.3508 25.6032 17.8143C25.5924 17.8412 25.5828 17.8687 25.5742 17.897C25.0956 19.4811 24.2338 20.9006 23.0952 22.047C23.0804 22.0618 23.0662 22.0771 23.0525 22.0926C22.6834 22.4106 22.5927 22.9593 22.8607 23.3836L23.7393 24.7746C24.0426 25.2547 23.8856 25.8907 23.3938 26.1746L21.6923 27.157C21.2218 27.4286 20.6206 27.275 20.3381 26.811L19.3542 25.1948C19.1131 24.7988 18.641 24.6298 18.2165 24.7555C18.1984 24.7585 18.1802 24.762 18.162 24.766C17.4667 24.9191 16.7434 25.0001 16 25.0001C15.4225 25.0001 14.8572 24.9512 14.3077 24.8576C14.2869 24.8541 14.2661 24.8512 14.2453 24.849C13.8194 24.741 13.3573 24.9248 13.1301 25.3255L12.3204 26.7534C12.0465 27.2365 11.4315 27.4039 10.9505 27.1262L9.25732 26.1486C8.77412 25.8697 8.61269 25.2492 8.89863 24.7701L9.52863 23.7146C9.78599 23.2833 9.68119 22.7367 9.30355 22.4282C9.29385 22.4187 9.28393 22.4093 9.27376 22.4C7.9521 21.1979 6.95475 19.648 6.42572 17.8968C6.4172 17.8687 6.40755 17.8411 6.39683 17.8143C6.30973 17.3508 5.90285 17.0001 5.41406 17.0001H4C3.44772 17.0001 3 16.5524 3 16.0001L3 14.0001C3 13.4478 3.44772 13.0001 4 13.0001H5.41407C5.90285 13.0001 6.30974 12.6494 6.39683 12.1859C6.40755 12.159 6.4172 12.1315 6.42572 12.1033C6.85471 10.6833 7.59162 9.39563 8.55991 8.31824C8.58058 8.29524 8.59999 8.27154 8.61814 8.24724C8.96764 7.93687 9.0613 7.41316 8.81599 6.99452L7.78278 5.23124C7.5023 4.75256 7.6651 4.13705 8.14557 3.85965L9.83952 2.88165C10.323 2.60249 10.9415 2.77333 11.2132 3.26109L12.1264 4.90072C12.3672 5.33318 12.8814 5.51724 13.3329 5.35728C13.353 5.35316 13.373 5.34842 13.3931 5.34302C14.2231 5.11956 15.0968 5.00008 16 5.00008C16.9032 5.00008 17.7769 5.11956 18.6069 5.34302Z" fill="#3D75E4"/>
</svg>
