<svg width="33" height="32" viewBox="0 0 33 32" fill="none" xmlns="http://www.w3.org/2000/svg">
<path d="M2.20117 6.3999C2.20117 5.84762 2.64889 5.3999 3.20117 5.3999H28.8012C29.3535 5.3999 29.8012 5.84762 29.8012 6.3999C29.8012 6.95219 29.3535 7.3999 28.8012 7.3999H3.20117C2.64889 7.3999 2.20117 6.95219 2.20117 6.3999Z" fill="#3D75E4"/>
<path d="M8.60156 16C8.60156 15.4477 9.04928 15 9.60156 15H28.8016C29.3538 15 29.8016 15.4477 29.8016 16C29.8016 16.5523 29.3538 17 28.8016 17H9.60156C9.04928 17 8.60156 16.5523 8.60156 16Z" fill="#3D75E4"/>
<path d="M16.002 24.6001C15.4497 24.6001 15.002 25.0478 15.002 25.6001C15.002 26.1524 15.4497 26.6001 16.002 26.6001H28.802C29.3542 26.6001 29.802 26.1524 29.802 25.6001C29.802 25.0478 29.3542 24.6001 28.802 24.6001H16.002Z" fill="#3D75E4"/>
</svg>
