<svg width="32" height="32" viewBox="0 0 32 32" fill="none" xmlns="http://www.w3.org/2000/svg">
<path d="M19.1464 3.10845C19.6378 2.1232 20.8322 1.72077 21.8187 2.20806L23.0006 2.79189L21.4431 5.61282C21.3349 5.80891 21.164 5.96295 20.9578 6.05022L18.7963 6.96539C18.288 7.18059 18.0502 7.76754 18.2652 8.27637C18.4802 8.7852 19.0665 9.02323 19.5748 8.80803L21.7363 7.89287C22.3547 7.63103 22.8674 7.16894 23.1922 6.58064L24.7497 3.75971C25.3013 2.76067 24.9075 1.50284 23.8849 0.997748L22.703 0.413911C20.73 -0.560658 18.3412 0.244203 17.3584 2.21469L15.7275 5.48441L14.6814 4.99866C13.7978 4.58842 12.8278 4.39983 11.8551 4.4492L2.24897 4.93681C0.98889 5.00077 0 6.0422 0 7.30527C0 8.61502 1.06061 9.67678 2.36894 9.67678H10.2525L4.77454 19.0916C4.02355 20.3824 4.51034 22.0397 5.8397 22.718C6.95389 23.2865 8.31458 22.9798 9.07777 21.988L9.79389 21.0574L7.17828 28.9281C6.78581 30.1091 7.38913 31.3905 8.54886 31.839C9.71248 32.2891 11.0237 31.7414 11.5228 30.5969L19.2758 12.8172L22.2427 14.3431C23.6842 15.0845 25.4302 14.8812 26.6632 13.8283L31.1572 9.99066C32.2203 9.0828 32.2874 7.46145 31.3031 6.4686C30.4663 5.62466 29.1389 5.52 28.1805 6.2224L24.0736 9.23234L22.8376 8.57587C22.3501 8.31694 21.7452 8.50266 21.4866 8.9907C21.2279 9.47873 21.4134 10.0843 21.9009 10.3432L23.1369 10.9997C23.8136 11.3591 24.636 11.2996 25.2541 10.8466L29.3611 7.8367C29.5218 7.71893 29.7443 7.73648 29.8846 7.87798C30.0497 8.04446 30.0384 8.31632 29.8602 8.46855L25.3662 12.3062C24.7497 12.8326 23.8767 12.9343 23.1559 12.5636L19.2425 10.5508C18.997 10.4245 18.7104 10.4055 18.4504 10.4982C18.1905 10.5909 17.9804 10.7871 17.87 11.0403L9.69121 29.7965C9.62037 29.959 9.43427 30.0367 9.26911 29.9728C9.10451 29.9091 9.01888 29.7273 9.07459 29.5597L13.5544 16.0792C13.7083 15.6161 13.5059 15.1094 13.0755 14.8802C12.645 14.651 12.1122 14.7663 11.8147 15.1529L7.49457 20.7671C7.31844 20.9959 7.00441 21.0667 6.74727 20.9355C6.44047 20.779 6.32812 20.3965 6.50144 20.0986L12.8544 9.17993C13.0344 8.87052 13.0355 8.48838 12.8573 8.17794C12.679 7.8675 12.3486 7.67612 11.991 7.67612H2.36894C2.16435 7.67612 1.99849 7.51008 1.99849 7.30527C1.99849 7.10776 2.15313 6.9449 2.35018 6.9349L11.9563 6.4473C12.6047 6.41438 13.2514 6.54011 13.8405 6.8136L15.7673 7.7083C16.2578 7.93603 16.8403 7.73194 17.0818 7.2477L19.1464 3.10845Z" fill="#3D75E4"/>
<path fill-rule="evenodd" clip-rule="evenodd" d="M21.9834 23.9973C19.7759 23.9973 17.9864 25.7888 17.9864 27.9987C17.9864 30.2085 19.7759 32 21.9834 32C24.1909 32 25.9804 30.2085 25.9804 27.9987C25.9804 25.7888 24.1909 23.9973 21.9834 23.9973ZM19.9849 27.9987C19.9849 26.8937 20.8797 25.998 21.9834 25.998C23.0872 25.998 23.9819 26.8937 23.9819 27.9987C23.9819 29.1036 23.0872 29.9993 21.9834 29.9993C20.8797 29.9993 19.9849 29.1036 19.9849 27.9987Z" fill="#3D75E4"/>
</svg>
