<svg width="32" height="32" viewBox="0 0 32 32" fill="none" xmlns="http://www.w3.org/2000/svg">
<path fill-rule="evenodd" clip-rule="evenodd" d="M21.0834 12.2971C20.2471 12.2801 19.5097 11.7444 19.235 10.9542L16.4676 2.99251C16.4172 2.84774 16.3486 2.78067 16.2899 2.74144C16.2195 2.69432 16.1186 2.66003 16 2.66003C15.8814 2.66003 15.7805 2.69432 15.7101 2.74144C15.6514 2.78067 15.5828 2.84774 15.5324 2.99251L12.765 10.9542C12.4903 11.7444 11.7529 12.2801 10.9166 12.2971L2.48935 12.4689C2.33611 12.472 2.25111 12.5166 2.19566 12.5602C2.12909 12.6127 2.06531 12.698 2.02866 12.8108C1.99202 12.9236 1.99346 13.0301 2.0165 13.1117C2.03568 13.1796 2.07825 13.2656 2.20038 13.3582L8.91721 18.4506C9.58381 18.9559 9.86547 19.8228 9.62323 20.6235L7.1824 28.6913C7.13802 28.838 7.15415 28.9326 7.17855 28.9988C7.20785 29.0784 7.2693 29.1654 7.36524 29.2351C7.46118 29.3048 7.56294 29.3364 7.64762 29.3396C7.71814 29.3424 7.81312 29.3285 7.93892 29.2409L14.8576 24.4265C15.5443 23.9487 16.4557 23.9487 17.1424 24.4265L24.0611 29.2409C24.1869 29.3285 24.2819 29.3424 24.3524 29.3396C24.4371 29.3364 24.5388 29.3048 24.6348 29.2351C24.7307 29.1654 24.7922 29.0784 24.8214 28.9988C24.8458 28.9326 24.862 28.838 24.8176 28.6913L22.3768 20.6235C22.1345 19.8228 22.4162 18.9559 23.0828 18.4506L29.7996 13.3582C29.9218 13.2656 29.9643 13.1796 29.9835 13.1117C30.0065 13.0301 30.008 12.9236 29.9713 12.8108C29.9347 12.698 29.8709 12.6127 29.8043 12.5602C29.7489 12.5166 29.6639 12.472 29.5107 12.4689L21.0834 12.2971ZM18.3567 2.33585C17.58 0.101428 14.42 0.10143 13.6433 2.33585L10.8758 10.2976L2.4486 10.4693C0.0835299 10.5175 -0.892962 13.5228 0.992088 14.952L7.70892 20.0443L5.26809 28.1121C4.58308 30.3764 7.13957 32.2338 9.08128 30.8826L16 26.0681L22.9187 30.8826C24.8604 32.2338 27.4169 30.3764 26.7319 28.1121L24.2911 20.0443L31.0079 14.952C32.893 13.5228 31.9165 10.5175 29.5514 10.4693L21.1242 10.2976L18.3567 2.33585Z" fill="#3D75E4"/>
</svg>
