<svg width="32" height="32" viewBox="0 0 32 32" fill="none" xmlns="http://www.w3.org/2000/svg">
<path fill-rule="evenodd" clip-rule="evenodd" d="M8 11V18C8 20.2091 6.20914 22 4 22C1.79086 22 0 20.2091 0 18V13C0 10.7909 1.79086 9 4 9C4.76944 9 5.48814 9.21726 6.0981 9.59377C6.78165 4.73675 10.9544 1 16 1C21.0456 1 25.2183 4.73675 25.9019 9.59377C26.5119 9.21726 27.2306 9 28 9C30.2091 9 32 10.7909 32 13V18C32 20.2091 30.2091 22 28 22C25.7909 22 24 20.2091 24 18V11C24 6.58172 20.4183 3 16 3C11.5817 3 8 6.58172 8 11ZM6 13C6 11.8954 5.10457 11 4 11C2.89543 11 2 11.8954 2 13V18C2 19.1046 2.89543 20 4 20C5.10457 20 6 19.1046 6 18V13ZM26 18V13C26 11.8954 26.8954 11 28 11C29.1046 11 30 11.8954 30 13V18C30 19.1046 29.1046 20 28 20C26.8954 20 26 19.1046 26 18Z" fill="#3D75E4"/>
<path d="M7.17887 22.0572C7.69959 21.8731 8.27091 22.146 8.45496 22.6668C9.37791 25.278 11.6176 27.2656 14.3744 27.8347C14.7373 27.3292 15.3302 27 16 27C17.1046 27 18 27.8954 18 29C18 30.1046 17.1046 31 16 31C15.1936 31 14.4986 30.5227 14.1822 29.8352C10.6362 29.184 7.74599 26.6625 6.56928 23.3332C6.38523 22.8125 6.65815 22.2412 7.17887 22.0572Z" fill="#3D75E4"/>
</svg>
