<svg width="32" height="32" viewBox="0 0 32 32" fill="none" xmlns="http://www.w3.org/2000/svg">
<path fill-rule="evenodd" clip-rule="evenodd" d="M4 15C3.44772 15 3 15.4477 3 16V21.202C2.02185 21.5811 1.28248 22.4601 1.11725 23.5506L0.359676 28.5506C0.0846486 30.3658 1.48993 32 3.32582 32H28.6741C30.51 32 31.9153 30.3658 31.6403 28.5506L30.8827 23.5506C30.7175 22.4601 29.9781 21.5811 29 21.202V16C29 15.4477 28.5523 15 28 15H4ZM27 21V17H5V21H13C13.5523 21 14 21.4477 14 22C14 22.5523 13.5523 23 13 23H4.0834C3.58896 23 3.16875 23.3613 3.09468 23.8502L2.33711 28.8502C2.24543 29.4553 2.71386 30 3.32582 30H28.6741C29.2861 30 29.7545 29.4553 29.6628 28.8502L28.9052 23.8502C28.8312 23.3613 28.411 23 27.9165 23H18.5C17.9477 23 17.5 22.5523 17.5 22C17.5 21.4477 17.9477 21 18.5 21H27Z" fill="#3D75E4"/>
<path d="M10 20C10.5523 20 11 19.5523 11 19C11 18.4477 10.5523 18 10 18H8C7.44772 18 7 18.4477 7 19C7 19.5523 7.44772 20 8 20H10Z" fill="#3D75E4"/>
<path d="M24 20C24.5523 20 25 19.5523 25 19C25 18.4477 24.5523 18 24 18H22C21.4477 18 21 18.4477 21 19C21 19.5523 21.4477 20 22 20H24Z" fill="#3D75E4"/>
<path fill-rule="evenodd" clip-rule="evenodd" d="M16 0C13.7909 0 12 1.79086 12 4H6.90238C5.36018 4 4.06922 5.16927 3.91702 6.70393L3.39179 12H1C0.447715 12 0 12.4477 0 13C0 13.5523 0.447715 14 1 14H3.19345L3.00489 15.9013C2.97702 16.1823 3.06926 16.462 3.25883 16.6713C3.44839 16.8806 3.71762 17 4 17H28C28.2824 17 28.5516 16.8806 28.7412 16.6713C28.9308 16.462 29.023 16.1823 28.9951 15.9013L28.8066 14H31C31.5523 14 32 13.5523 32 13C32 12.4477 31.5523 12 31 12H28.6082L28.083 6.70393C27.9308 5.16927 26.6398 4 25.0976 4H20C20 1.79086 18.2091 0 16 0ZM18 4C18 2.89543 17.1046 2 16 2C14.8954 2 14 2.89543 14 4H18ZM6.90238 6C6.38831 6 5.95799 6.38976 5.90726 6.90131L5.7983 8H26.2017L26.0927 6.90131C26.042 6.38976 25.6117 6 25.0976 6H6.90238ZM5.59995 10H15V15H5.10408L5.59995 10ZM17 10V15H26.8959L26.4001 10H17Z" fill="#3D75E4"/>
</svg>
