<svg width="32" height="32" viewBox="0 0 32 32" fill="none" xmlns="http://www.w3.org/2000/svg">
<path d="M5 5C5 2.23858 7.23858 0 10 0H22C24.7614 0 27 2.23858 27 5V7C27 7.55228 26.5523 8 26 8C25.4477 8 25 7.55228 25 7V5C25 3.34315 23.6569 2 22 2H20C20 2.55228 19.5523 3 19 3H13C12.4477 3 12 2.55228 12 2H10C8.34315 2 7 3.34315 7 5V27C7 28.6569 8.34315 30 10 30H22C23.6569 30 25 28.6569 25 27V11C25 10.4477 25.4477 10 26 10C26.5523 10 27 10.4477 27 11V27C27 29.7614 24.7614 32 22 32H10C7.23858 32 5 29.7614 5 27V5Z" fill="#3D75E4"/>
<path d="M18 26C18 27.1046 17.1046 28 16 28C14.8954 28 14 27.1046 14 26C14 24.8954 14.8954 24 16 24C17.1046 24 18 24.8954 18 26Z" fill="#3D75E4"/>
</svg>
