<svg width="32" height="32" viewBox="0 0 32 32" fill="none" xmlns="http://www.w3.org/2000/svg">
<path fill-rule="evenodd" clip-rule="evenodd" d="M18.9185 8.45066C18.7089 8.1318 18.336 7.96005 17.9575 8.00792C17.5789 8.0558 17.2605 8.31496 17.1369 8.67596L14.054 17.676C13.9493 17.9814 13.9986 18.3186 14.1864 18.5814C14.3741 18.8441 14.6771 19 15 19H24C24.3677 19 24.7057 18.7983 24.8802 18.4747C25.0547 18.1511 25.0376 17.7579 24.8356 17.4507L18.9185 8.45066ZM16.3996 17L18.3679 11.2538L22.1458 17H16.3996Z" fill="#3D75E4"/>
<path fill-rule="evenodd" clip-rule="evenodd" d="M6.80336 8.7776L3.01683 28.8105C2.89791 29.4275 3.37003 30 3.99763 30H7.57079C8.12246 30 8.56968 30.4477 8.56968 31C8.56968 31.5523 8.12246 32 7.57079 32H3.99763C2.11484 32 0.698486 30.2823 1.05525 28.4316L5.90131 2.79309C5.91001 2.74793 5.92163 2.70407 5.93592 2.66167C6.10104 1.18836 7.35048 0 8.91474 0H23.8473C25.3195 0 26.5737 1.07064 26.8063 2.526L30.9617 28.5257C31.253 30.3485 29.8465 31.9997 28.0026 31.9997H26.096C24.5607 31.9997 23.485 30.8369 22.9129 29.8801C22.2421 28.7582 20.9878 27.9997 19.7572 27.9997C18.7449 27.9997 17.9883 28.5059 17.6063 29.2371C17.301 29.8216 16.882 30.484 16.331 31.0119C15.7753 31.5442 15.0188 31.9997 14.0723 31.9997H13.0701C11.5979 31.9997 10.3437 30.929 10.1111 29.4737L6.80336 8.7776ZM7.9284 3.15796C7.83129 2.55038 8.30011 1.99998 8.91474 1.99998H23.8473C24.338 1.99998 24.7561 2.35686 24.8336 2.84198L28.989 28.8417C29.0861 29.4493 28.6173 29.9997 28.0026 29.9997H26.096C25.6332 29.9997 25.0812 29.6124 24.6271 28.8529C23.6335 27.1912 21.7614 25.9997 19.7572 25.9997C18.0172 25.9997 16.5699 26.9054 15.836 28.3102C15.5803 28.7997 15.2802 29.2503 14.9497 29.5669C14.6239 29.8791 14.3365 29.9997 14.0723 29.9997H13.0701C12.5794 29.9997 12.1613 29.6428 12.0838 29.1577L7.9284 3.15796Z" fill="#3D75E4"/>
</svg>
