<svg width="32" height="32" viewBox="0 0 32 32" fill="none" xmlns="http://www.w3.org/2000/svg">
<path fill-rule="evenodd" clip-rule="evenodd" d="M24.5519 15.9998H22.9679L23.2605 16.2927C23.6506 16.6833 23.6506 17.3164 23.2605 17.7069C22.8704 18.0975 22.2379 18.0975 21.8478 17.7069L20.95 16.8081C20.7828 17.0292 20.5858 17.2265 20.3648 17.3938L21.2627 18.2927C21.6528 18.6832 21.6528 19.3164 21.2627 19.7069C20.8726 20.0974 20.2402 20.0974 19.8501 19.7069L19.5575 19.414V20.9998C19.5575 21.5521 19.1103 21.9998 18.5586 21.9998C18.0069 21.9998 17.5597 21.5521 17.5597 20.9998V19.414L17.2671 19.7069C16.8771 20.0974 16.2446 20.0974 15.8545 19.7069C15.4644 19.3164 15.4644 18.6832 15.8545 18.2927L16.7524 17.3938C16.5314 17.2265 16.3344 17.0292 16.1672 16.8081L15.2694 17.7069C14.8793 18.0975 14.2468 18.0975 13.8567 17.7069C13.4666 17.3164 13.4666 16.6833 13.8567 16.2927L14.1493 15.9998H12.5653C12.0136 15.9998 11.5664 15.5521 11.5664 14.9999C11.5664 14.4476 12.0136 13.9999 12.5653 13.9999H14.1493L13.8567 13.707C13.4666 13.3165 13.4666 12.6833 13.8567 12.2928C14.2468 11.9023 14.8793 11.9023 15.2694 12.2928L16.1672 13.1916C16.3344 12.9705 16.5314 12.7732 16.7524 12.6059L15.8545 11.707C15.4644 11.3165 15.4644 10.6833 15.8545 10.2928C16.2446 9.90227 16.8771 9.90227 17.2671 10.2928L17.5597 10.5857V8.99991C17.5597 8.44763 18.0069 7.99992 18.5586 7.99992C19.1103 7.99992 19.5575 8.44763 19.5575 8.99991V10.5857L19.8501 10.2928C20.2402 9.90227 20.8726 9.90227 21.2627 10.2928C21.6528 10.6833 21.6528 11.3165 21.2627 11.707L20.3648 12.6059C20.5858 12.7732 20.7828 12.9705 20.95 13.1916L21.8478 12.2928C22.2379 11.9023 22.8704 11.9023 23.2605 12.2928C23.6506 12.6833 23.6506 13.3165 23.2605 13.707L22.9679 13.9999H24.5519C25.1036 13.9999 25.5508 14.4476 25.5508 14.9999C25.5508 15.5521 25.1036 15.9998 24.5519 15.9998ZM18.5587 13.9999C19.1103 13.9999 19.5575 14.4476 19.5575 14.9999C19.5571 15.5516 19.1104 15.9995 18.5593 15.9998C18.0079 15.9998 17.5601 15.5525 17.5597 15.0006C17.5597 14.4483 18.007 13.9999 18.5587 13.9999Z" fill="#3D75E4"/>
<path fill-rule="evenodd" clip-rule="evenodd" d="M3.01683 28.8105L6.80336 8.7776L10.1111 29.4737C10.3437 30.929 11.5979 31.9997 13.0701 31.9997H14.0723C15.0188 31.9997 15.7753 31.5442 16.331 31.0119C16.882 30.484 17.301 29.8216 17.6063 29.2371C17.9883 28.5059 18.7449 27.9997 19.7572 27.9997C20.9878 27.9997 22.2421 28.7582 22.9129 29.8801C23.485 30.8369 24.5607 31.9997 26.096 31.9997H28.0026C29.8465 31.9997 31.253 30.3485 30.9617 28.5257L26.8063 2.526C26.5737 1.07064 25.3195 0 23.8473 0H8.91474C7.35048 0 6.10104 1.18836 5.93592 2.66167C5.92163 2.70407 5.91001 2.74793 5.90131 2.79309L1.05525 28.4316C0.698486 30.2823 2.11484 32 3.99763 32H7.57079C8.12246 32 8.56968 31.5523 8.56968 31C8.56968 30.4477 8.12246 30 7.57079 30H3.99763C3.37003 30 2.89791 29.4274 3.01683 28.8105ZM8.91474 1.99998C8.30011 1.99998 7.83129 2.55038 7.9284 3.15796L12.0838 29.1577C12.1613 29.6428 12.5794 29.9997 13.0701 29.9997H14.0723C14.3365 29.9997 14.6239 29.8791 14.9497 29.5669C15.2802 29.2503 15.5803 28.7997 15.836 28.3102C16.5699 26.9054 18.0172 25.9997 19.7572 25.9997C21.7614 25.9997 23.6335 27.1912 24.6271 28.8529C25.0812 29.6124 25.6332 29.9997 26.096 29.9997H28.0026C28.6173 29.9997 29.0861 29.4493 28.989 28.8417L24.8336 2.84198C24.7561 2.35686 24.338 1.99998 23.8473 1.99998H8.91474Z" fill="#3D75E4"/>
</svg>
