<svg width="33" height="32" viewBox="0 0 33 32" fill="none" xmlns="http://www.w3.org/2000/svg">
<path fill-rule="evenodd" clip-rule="evenodd" d="M17.1235 10.0693C15.8956 9.91645 15.002 10.9334 15.002 12V18C15.002 19.1045 15.8974 20 17.002 20H23.002C24.0685 20 25.0855 19.1064 24.9327 17.8784C24.4256 13.8038 21.1982 10.5763 17.1235 10.0693ZM17.002 18V12.0707C20.0669 12.5086 22.4933 14.935 22.9312 18H17.002Z" fill="#3D75E4"/>
<path fill-rule="evenodd" clip-rule="evenodd" d="M11.8027 1C11.8027 0.447715 12.2504 0 12.8027 0H19.2027C19.755 0 20.2027 0.447715 20.2027 1C20.2027 1.55228 19.755 2 19.2027 2H17.0027V6.03795C23.7148 6.54895 29.002 12.157 29.002 19C29.002 26.1797 23.1817 32 16.002 32C8.82225 32 3.00195 26.1797 3.00195 19C3.00195 12.1565 8.28992 6.54808 15.0027 6.03783V2H12.8027C12.2504 2 11.8027 1.55228 11.8027 1ZM16.002 30C22.0771 30 27.002 25.0751 27.002 19C27.002 12.9249 22.0771 8 16.002 8C9.92682 8 5.00195 12.9249 5.00195 19C5.00195 25.0751 9.92682 30 16.002 30Z" fill="#3D75E4"/>
</svg>
