<svg width="32" height="32" viewBox="0 0 32 32" fill="none" xmlns="http://www.w3.org/2000/svg">
<path fill-rule="evenodd" clip-rule="evenodd" d="M1 7C0.447715 7 0 6.55228 0 6C0 5.44772 0.447715 5 1 5H2.12602C2.57006 3.27477 4.13616 2 6 2H9.99951C10.8353 1.37209 11.8742 1 13 1H19C20.1258 1 21.1647 1.37209 22.0005 2H26C27.8638 2 29.4299 3.27477 29.874 5H31C31.5523 5 32 5.44772 32 6C32 6.55228 31.5523 7 31 7H1ZM23.9 5H27.7324C27.3866 4.4022 26.7403 4 26 4H23.584C23.7227 4.3175 23.8294 4.6522 23.9 5ZM8.41604 4H6C5.25972 4 4.61337 4.4022 4.26756 5H8.10002C8.17062 4.6522 8.27732 4.3175 8.41604 4ZM10.1707 5H21.8293C21.4175 3.83481 20.3062 3 19 3H13C11.6938 3 10.5825 3.83481 10.1707 5Z" fill="#3D75E4"/>
<path fill-rule="evenodd" clip-rule="evenodd" d="M5 9C5 8.44772 4.55228 8 4 8C3.44772 8 3 8.44772 3 9V24C3 25.6569 4.34314 27 6 27H6.17071C6.06015 27.3128 6 27.6494 6 28C6 29.6569 7.34315 31 9 31C10.6569 31 12 29.6569 12 28C12 27.6494 11.9398 27.3128 11.8293 27H20.1707C20.0602 27.3128 20 27.6494 20 28C20 29.6569 21.3431 31 23 31C24.6569 31 26 29.6569 26 28C26 27.6494 25.9398 27.3128 25.8293 27H26C27.6569 27 29 25.6569 29 24V9C29 8.44772 28.5523 8 28 8C27.4477 8 27 8.44772 27 9V24C27 24.5523 26.5523 25 26 25H6C5.44772 25 5 24.5523 5 24V9ZM23 27C22.4477 27 22 27.4477 22 28C22 28.5523 22.4477 29 23 29C23.5523 29 24 28.5523 24 28C24 27.4477 23.5523 27 23 27ZM8 28C8 27.4477 8.44772 27 9 27C9.55228 27 10 27.4477 10 28C10 28.5523 9.55228 29 9 29C8.44772 29 8 28.5523 8 28Z" fill="#3D75E4"/>
<path d="M21 11C21 11.5523 20.5523 12 20 12L12 12C11.4477 12 11 11.5523 11 11C11 10.4477 11.4477 10 12 10L20 10C20.5523 10 21 10.4477 21 11Z" fill="#3D75E4"/>
</svg>
