<svg width="32" height="32" viewBox="0 0 32 32" fill="none" xmlns="http://www.w3.org/2000/svg">
<path fill-rule="evenodd" clip-rule="evenodd" d="M7 2C7 0.895431 7.89543 0 9 0H21C22.1046 0 23 0.89543 23 2H25C26.1046 2 27 2.89543 27 4V6C27 7.10457 26.1046 8 25 8H23C23 9.10457 22.1046 10 21 10H19.874C19.7026 10.666 19.3639 11.2649 18.9055 11.7492C20.4727 12.6182 21.6098 14.1684 21.917 16H22C22.5523 16 23 16.4477 23 17C23 17.5523 22.5523 18 22 18H10C9.44772 18 9 17.5523 9 17C9 16.4477 9.44772 16 10 16H10.083C10.3902 14.1684 11.5273 12.6182 13.0945 11.7492C12.6361 11.2649 12.2974 10.666 12.126 10H9C7.89543 10 7 9.10457 7 8V2ZM19.874 16C19.4299 14.2748 17.8638 13 16 13C14.1362 13 12.5701 14.2748 12.126 16L19.874 16ZM21 8V2H9V8H21ZM14.2676 10C14.6134 10.5978 15.2597 11 16 11C16.7403 11 17.3866 10.5978 17.7324 10H14.2676ZM23 6V4H25V6H23Z" fill="#3D75E4"/>
<path d="M15 30H14C13.4477 30 13 30.4477 13 31C13 31.5523 13.4477 32 14 32H18C18.5523 32 19 31.5523 19 31C19 30.4477 18.5523 30 18 30H17V20C17 19.4477 16.5523 19 16 19C15.4477 19 15 19.4477 15 20V30Z" fill="#3D75E4"/>
<path d="M3 26H3.54032L9.24089 19.3492C9.60031 18.9299 10.2316 18.8813 10.6509 19.2407C11.0703 19.6001 11.1188 20.2314 10.7594 20.6508L6.17445 26H7C7.55228 26 8 26.4477 8 27C8 27.5523 7.55228 28 7 28H4.02102C4.00676 28.0003 3.99249 28.0003 3.97822 28H3C2.44772 28 2 27.5523 2 27C2 26.4477 2.44772 26 3 26Z" fill="#3D75E4"/>
<path d="M28.4597 26H29C29.5523 26 30 26.4477 30 27C30 27.5523 29.5523 28 29 28H28.0203C28.007 28.0003 27.9937 28.0003 27.9804 28H25C24.4477 28 24 27.5523 24 27C24 26.4477 24.4477 26 25 26H25.8255L21.2406 20.6508C20.8812 20.2314 20.9297 19.6001 21.3491 19.2407C21.7684 18.8813 22.3997 18.9299 22.7591 19.3492L28.4597 26Z" fill="#3D75E4"/>
</svg>
