<svg width="32" height="32" viewBox="0 0 32 32" fill="none" xmlns="http://www.w3.org/2000/svg">
<path d="M22.3985 16.7071C22.008 16.3166 22.008 15.6834 22.3985 15.2929L25.5564 12.135C25.9469 11.7445 26.5801 11.7445 26.9706 12.135C27.3611 12.5255 27.3611 13.1587 26.9706 13.5492L23.8127 16.7071C23.4222 17.0976 22.789 17.0976 22.3985 16.7071Z" fill="#3D75E4"/>
<path d="M5.02937 15.2929C4.63885 15.6834 4.63885 16.3166 5.02937 16.7071C5.4199 17.0976 6.05306 17.0976 6.44359 16.7071L9.60148 13.5492C9.99201 13.1587 9.99201 12.5255 9.60148 12.135C9.21096 11.7445 8.57779 11.7445 8.18727 12.135L5.02937 15.2929Z" fill="#3D75E4"/>
<path d="M23.1876 19.0758C22.7971 18.6852 22.7971 18.0521 23.1876 17.6615L24.7665 16.0826C25.157 15.6921 25.7902 15.6921 26.1807 16.0826C26.5713 16.4731 26.5713 17.1063 26.1807 17.4968L24.6018 19.0758C24.2113 19.4663 23.5781 19.4663 23.1876 19.0758Z" fill="#3D75E4"/>
<path d="M5.81843 17.6615C5.42791 18.0521 5.42791 18.6852 5.81843 19.0758C6.20896 19.4663 6.84212 19.4663 7.23265 19.0758L8.8116 17.4968C9.20212 17.1063 9.20212 16.4731 8.8116 16.0826C8.42107 15.6921 7.78791 15.6921 7.39738 16.0826L5.81843 17.6615Z" fill="#3D75E4"/>
<path fill-rule="evenodd" clip-rule="evenodd" d="M8 2C8 0.89543 8.89543 0 10 0H22C23.1046 0 24 0.89543 24 2V5L30 5C31.1046 5 32 5.89543 32 7V8C32 9.10457 31.1046 10 30 10L30 21H30.25C31.2165 21 32 21.7835 32 22.75C32 24.102 31.1745 25.2611 30 25.7509V29C30 30.6569 28.6569 32 27 32H5C3.34315 32 2 30.6569 2 29V25.7509C0.825524 25.2611 0 24.102 0 22.75C0 21.7835 0.783502 21 1.75 21H2L2 10C0.895433 10 0 9.10457 0 8V7C0 5.89543 0.895431 5 2 5H8V2ZM28 21V10H4L4 21H12L12 16C12 14.3431 13.3431 13 15 13H17C18.6569 13 20 14.3431 20 16V21H28ZM2.025 23C2.14082 23.5706 2.64526 24 3.25 24H28.75C29.3547 24 29.8592 23.5706 29.975 23H2.025ZM22 2V5L10 5V2H22ZM30 7V8H2V7H30ZM4 26V29C4 29.5523 4.44772 30 5 30H27C27.5523 30 28 29.5523 28 29V26H4ZM18 21V16C18 15.4477 17.5523 15 17 15H15C14.4477 15 14 15.4477 14 16V21H18Z" fill="#3D75E4"/>
</svg>
