<svg width="32" height="32" viewBox="0 0 32 32" fill="none" xmlns="http://www.w3.org/2000/svg">
<path d="M16 26C16 27.1046 15.1046 28 14 28C12.8954 28 12 27.1046 12 26C12 24.8954 12.8954 24 14 24C15.1046 24 16 24.8954 16 26Z" fill="#3D75E4"/>
<path fill-rule="evenodd" clip-rule="evenodd" d="M0 6C0 2.68629 2.68629 0 6 0H26C29.3137 0 32 2.68629 32 6V9C32 10.6568 31.2216 12.1631 30 13.0797V23.5C30 24.0523 29.5523 24.5 29 24.5C28.4477 24.5 28 24.0523 28 23.5V18H4V25C4 25.5523 4.44772 26 5 26H8C8 22.6863 10.6863 20 14 20C17.3137 20 20 22.6863 20 26H31C31.5523 26 32 26.4477 32 27C32 27.5523 31.5523 28 31 28H19.6586C18.8349 30.3304 16.6124 32 14 32C11.3876 32 9.16508 30.3304 8.34141 28H5C3.34315 28 2 26.6569 2 25V13.0797C0.778419 12.1631 0 10.6568 0 9V6ZM28 16V13.9388C27.7565 13.9791 27.506 14 27.25 14C25.702 14 24.3592 13.2343 23.5 12.0681C22.6408 13.2343 21.298 14 19.75 14C18.202 14 16.8592 13.2343 16 12.0681C15.1408 13.2343 13.798 14 12.25 14C10.702 14 9.35917 13.2343 8.5 12.0681C7.64083 13.2343 6.29799 14 4.75 14C4.49397 14 4.24355 13.9791 4 13.9388V16H28ZM27.25 12C26.0919 12 25.0396 11.1926 24.6548 10H29.8452C29.4604 11.1926 28.4081 12 27.25 12ZM19.75 12C18.5919 12 17.5396 11.1926 17.1548 10H22.3452C21.9604 11.1926 20.9081 12 19.75 12ZM12.25 12C11.0919 12 10.0396 11.1926 9.65484 10H14.8452C14.4604 11.1926 13.4081 12 12.25 12ZM4.75 12C3.59188 12 2.53958 11.1926 2.15484 10H7.34516C6.96042 11.1926 5.90812 12 4.75 12ZM30 6V8H2V6C2 3.79086 3.79086 2 6 2H26C28.2091 2 30 3.79086 30 6ZM10 26C10 23.7909 11.7909 22 14 22C16.2091 22 18 23.7909 18 26C18 28.2091 16.2091 30 14 30C11.7909 30 10 28.2091 10 26Z" fill="#3D75E4"/>
</svg>
