<svg width="32" height="32" viewBox="0 0 32 32" fill="none" xmlns="http://www.w3.org/2000/svg">
<path d="M12.0001 20.9532C12.0001 22.0553 11.1046 22.9487 10.0001 22.9487C8.8955 22.9487 8.00007 22.0553 8.00007 20.9532C8.00007 19.8511 8.8955 18.9576 10.0001 18.9576C11.1046 18.9576 12.0001 19.8511 12.0001 20.9532Z" fill="#3D75E4"/>
<path d="M22 22.9487C23.1046 22.9487 24 22.0553 24 20.9532C24 19.8511 23.1046 18.9576 22 18.9576C20.8955 18.9576 20 19.8511 20 20.9532C20 22.0553 20.8955 22.9487 22 22.9487Z" fill="#3D75E4"/>
<path fill-rule="evenodd" clip-rule="evenodd" d="M9.00007 0C5.68637 0 3.00009 2.6803 3.00009 5.98662V17.9599C3.00009 22.9193 7.02951 26.9398 12.0001 26.9398H20C24.9706 26.9398 29 22.9193 29 17.9599V5.98662C29 2.6803 26.3137 0 23 0H9.00007ZM27 5.98662C27 3.78241 25.2091 1.99554 23 1.99554H9.00007C6.79094 1.99554 5.00008 3.78241 5.00008 5.98662H27ZM5.00008 7.98216V14.9665H27V7.98216H17V11.9732C17 12.5243 16.5523 12.971 16 12.971C15.4478 12.971 15 12.5243 15 11.9732V7.98216H5.00008ZM5.00008 16.9621V17.9599C5.00008 21.8172 8.13408 24.9442 12.0001 24.9442H20C23.866 24.9442 27 21.8172 27 17.9599V16.9621H5.00008Z" fill="#3D75E4"/>
<path d="M7.71529 28.6355C8.10123 28.2414 8.09385 27.6097 7.6988 27.2246C7.30374 26.8395 6.67063 26.8469 6.28468 27.241L3.2847 30.305C2.89875 30.6991 2.90614 31.3309 3.30119 31.7159C3.69624 32.101 4.32936 32.0937 4.7153 31.6995L7.71529 28.6355Z" fill="#3D75E4"/>
<path d="M28.6988 31.7157C28.3037 32.1007 27.6706 32.0933 27.2846 31.6991L24.2847 28.6347C23.8987 28.2405 23.9062 27.6088 24.3013 27.2237C24.6963 26.8387 25.3295 26.8461 25.7154 27.2403L28.7154 30.3047C29.1013 30.6989 29.0938 31.3306 28.6988 31.7157Z" fill="#3D75E4"/>
</svg>
