<svg width="32" height="32" viewBox="0 0 32 32" fill="none" xmlns="http://www.w3.org/2000/svg">
<path d="M8.82246 16.4308C4.81324 10.6398 8.75071 2 17.5001 2C22.2177 2 26.0001 5.72586 26.0001 10.2708C26.0001 11.4525 25.7461 12.5741 25.2886 13.5891C25.0617 14.0926 25.2859 14.6847 25.7894 14.9117C25.8068 14.9195 25.8243 14.9269 25.842 14.9336C27.1478 15.8375 28 17.3436 28 19.0481C28 21.8095 25.7614 24.0481 23 24.0481C22.4477 24.0481 22 24.4958 22 25.0481C22 25.6004 22.4477 26.0481 23 26.0481C26.866 26.0481 30 22.9141 30 19.0481C30 16.8606 28.996 14.9081 27.427 13.6256C27.7985 12.5736 28.0001 11.4445 28.0001 10.2708C28.0001 4.57553 23.276 0 17.5001 0C8.4795 0 3.47657 8.02354 5.80751 14.8619C3.76837 15.7811 2 17.9549 2 20.8112C2 24.6772 5.13401 27.8112 9 27.8112C9.55228 27.8112 10 27.3635 10 26.8112C10 26.2589 9.55228 25.8112 9 25.8112C6.23858 25.8112 4 23.5726 4 20.8112C4 18.8104 5.24994 17.3051 6.62507 16.6862C6.7934 16.9851 6.97763 17.2797 7.17808 17.5692C7.49245 18.0233 8.11541 18.1366 8.56949 17.8222C9.02357 17.5078 9.13683 16.8849 8.82246 16.4308Z" fill="#3D75E4"/>
<path d="M13.465 11.1148C12.976 10.8581 12.3715 11.0464 12.1148 11.5354C11.8581 12.0244 12.0464 12.6289 12.5354 12.8856C13.2717 13.2722 14.4188 14.0727 15.3692 15.1704C16.3112 16.2584 16.9867 17.5505 17 18.9579L16.9998 19.0002V31.0002C16.9998 31.5525 17.4475 32.0002 17.9998 32.0002C18.5521 32.0002 18.9998 31.5525 18.9998 31.0002V25.0002C18.9998 24.343 19.3307 23.6979 19.8647 23.1104C20.3957 22.5264 21.0418 22.0973 21.447 21.8946C21.941 21.6477 22.1412 21.047 21.8942 20.553C21.6472 20.059 21.0465 19.8588 20.5526 20.1058C20.1212 20.3215 19.5535 20.6811 18.9998 21.1641V19.0295L19.0001 19.013L19.0002 19.0002L19.0001 18.9645C19.0118 18.3197 19.3403 17.6872 19.8647 17.1104C20.3957 16.5264 21.0418 16.0973 21.447 15.8946C21.941 15.6477 22.1412 15.047 21.8942 14.553C21.6472 14.059 21.0465 13.8588 20.5526 14.1058C19.9578 14.4032 19.1039 14.9741 18.3848 15.765C18.3418 15.8124 18.2989 15.861 18.2563 15.9106C17.8807 15.1428 17.3959 14.4557 16.8812 13.8613C15.7483 12.5527 14.3954 11.6032 13.465 11.1148Z" fill="#3D75E4"/>
<path d="M10.1058 18.553C10.3528 18.059 10.9535 17.8588 11.4474 18.1058C12.0422 18.4032 12.8961 18.9741 13.6152 19.765C14.3311 20.5526 15.0002 21.6574 15.0002 23.0002V31.0002C15.0002 31.5525 14.5525 32.0002 14.0002 32.0002C13.4479 32.0002 13.0002 31.5525 13.0002 31.0002V23.0002C13.0002 22.343 12.6693 21.6979 12.1353 21.1104C11.6043 20.5264 10.9582 20.0973 10.553 19.8946C10.059 19.6477 9.8588 19.047 10.1058 18.553Z" fill="#3D75E4"/>
</svg>
