<svg width="32" height="32" viewBox="0 0 32 32" fill="none" xmlns="http://www.w3.org/2000/svg">
<path d="M11.9806 0.804077C11.8723 0.262517 11.3454 -0.0886997 10.8039 0.0196122C10.2623 0.127924 9.91111 0.654749 10.0194 1.19631L10.7802 5.00019H8C4.68629 5.00019 2 7.68648 2 11.0002V21.0002C2 21.5525 2.44772 22.0002 3 22.0002H29C29.5523 22.0002 30 21.5525 30 21.0002V11.0002C30 7.68648 27.3137 5.00019 24 5.00019H21.2198L21.9806 1.19631C22.0889 0.654749 21.7377 0.127924 21.1961 0.0196122C20.6546 -0.0886997 20.1277 0.262517 20.0194 0.804077L19.0194 5.80408C18.9607 6.09785 19.0367 6.40249 19.2267 6.63418C19.4166 6.86587 19.7004 7.00019 20 7.00019H24C26.2091 7.00019 28 8.79105 28 11.0002V20.0002H4V11.0002C4 8.79105 5.79086 7.00019 8 7.00019H12C12.2996 7.00019 12.5834 6.86587 12.7733 6.63418C12.9633 6.40249 13.0393 6.09785 12.9806 5.80408L11.9806 0.804077Z" fill="#3D75E4"/>
<path d="M15 2C14.4477 2 14 2.44772 14 3C14 3.55228 14.4477 4 15 4H17C17.5523 4 18 3.55228 18 3C18 2.44772 17.5523 2 17 2H15Z" fill="#3D75E4"/>
<path d="M5 25C5 24.4477 5.44772 24 6 24H9C9.55229 24 10 24.4477 10 25C10 25.5523 9.55229 26 9 26H6C5.44772 26 5 25.5523 5 25Z" fill="#3D75E4"/>
<path d="M23 24C22.4477 24 22 24.4477 22 25C22 25.5523 22.4477 26 23 26H26C26.5523 26 27 25.5523 27 25C27 24.4477 26.5523 24 26 24H23Z" fill="#3D75E4"/>
<path fill-rule="evenodd" clip-rule="evenodd" d="M2 11.0002C2 10.4479 2.44772 10 3 10H29C29.5523 10 30 10.4479 30 11.0002V16H31C31.5523 16 32 16.4477 32 17C32 17.5523 31.5523 18 31 18H30V30C30 31.1046 29.1046 32 28 32H26C24.8954 32 24 31.1046 24 30H8C8 31.1046 7.10457 32 6 32H4C2.89543 32 2 31.1046 2 30V18H1C0.447715 18 0 17.5523 0 17C0 16.4477 0.447715 16 1 16H2V11.0002ZM4 20.0002L15 20V12H4V20.0002ZM28 12V20.0002L17 20V12H28ZM4 22V30H6C6 28.8954 6.89543 28 8 28H24C25.1046 28 26 28.8954 26 30H28V22H4Z" fill="#3D75E4"/>
</svg>
