<svg width="32" height="32" viewBox="0 0 32 32" fill="none" xmlns="http://www.w3.org/2000/svg">
<path fill-rule="evenodd" clip-rule="evenodd" d="M2.19995 3.20001C2.19995 2.64773 2.64767 2.20001 3.19995 2.20001H28.7999C29.3522 2.20001 29.7999 2.64773 29.7999 3.20001V8.00001C29.7999 8.5523 29.3522 9.00001 28.7999 9.00001C28.2477 9.00001 27.7999 8.5523 27.7999 8.00001V4.20001H17V27.8H20.7999C21.3522 27.8 21.7999 28.2477 21.7999 28.8C21.7999 29.3523 21.3522 29.8 20.7999 29.8H11.2C10.6477 29.8 10.2 29.3523 10.2 28.8C10.2 28.2477 10.6477 27.8 11.2 27.8H15V4.20001H4.19995V8.00001C4.19995 8.5523 3.75224 9.00001 3.19995 9.00001C2.64767 9.00001 2.19995 8.5523 2.19995 8.00001V3.20001Z" fill="#3D75E4"/>
</svg>
