<svg width="32" height="32" viewBox="0 0 32 32" fill="none" xmlns="http://www.w3.org/2000/svg">
<path fill-rule="evenodd" clip-rule="evenodd" d="M19.0013 6.20536C17.2448 5.72225 15.3872 5.67 13.6031 6.05384C11.8191 6.43766 10.171 7.24403 8.81129 8.3932C7.45184 9.54213 6.42566 10.9954 5.82312 12.6145C5.63049 13.1321 5.05474 13.3955 4.53713 13.2029C4.01953 13.0103 3.75608 12.4345 3.94871 11.9169C4.67403 9.96792 5.90463 8.23114 7.52031 6.86567C9.1357 5.50043 11.0841 4.55002 13.1824 4.09858C15.2806 3.64716 17.4645 3.70841 19.5317 4.27696C21.5938 4.84412 23.4767 5.89882 25.0036 7.34774L29.4001 11.276V6.04183C29.4001 5.48954 29.8478 5.04183 30.4001 5.04183C30.9524 5.04183 31.4001 5.48954 31.4001 6.04183V13.5105C31.4001 14.0627 30.9524 14.5105 30.4001 14.5105H22.5456C21.9933 14.5105 21.5456 14.0627 21.5456 13.5105C21.5456 12.9582 21.9933 12.5105 22.5456 12.5105H27.78L23.6596 8.82896C23.6519 8.82202 23.6442 8.81495 23.6367 8.80777C22.3517 7.58538 20.7577 6.68843 19.0013 6.20536ZM0.600098 18.4895C0.600098 17.9373 1.04781 17.4895 1.6001 17.4895H9.45464C10.0069 17.4895 10.4546 17.9373 10.4546 18.4895C10.4546 19.0418 10.0069 19.4895 9.45464 19.4895H4.22019L8.34056 23.171C8.34833 23.178 8.35599 23.1851 8.36354 23.1922C9.64845 24.4146 11.2425 25.3116 12.9989 25.7947C14.7554 26.2778 16.613 26.33 18.3971 25.9462C20.1811 25.5623 21.8292 24.756 23.1889 23.6068C24.5484 22.4579 25.5745 21.0046 26.1771 19.3855C26.3697 18.8679 26.9455 18.6045 27.4631 18.7971C27.9807 18.9897 28.2441 19.5655 28.0515 20.0831C27.3262 22.0321 26.0956 23.7689 24.4799 25.1343C22.8645 26.4996 20.9161 27.45 18.8178 27.9014C16.7196 28.3528 14.5357 28.2916 12.4685 27.723C10.4064 27.1559 8.5235 26.1012 6.99658 24.6522L2.6001 20.724V25.9582C2.6001 26.5105 2.15238 26.9582 1.6001 26.9582C1.04781 26.9582 0.600098 26.5105 0.600098 25.9582V18.4895Z" fill="#3D75E4"/>
</svg>
