<svg width="32" height="32" viewBox="0 0 32 32" fill="none" xmlns="http://www.w3.org/2000/svg">
<path fill-rule="evenodd" clip-rule="evenodd" d="M13.0582 0.439956C13.3446 0.7497 13.4393 1.13095 13.4651 1.43935C13.8753 6.35275 14.808 9.05446 15.8202 11.9864C15.9421 12.3396 16.0652 12.6961 16.1887 13.0602C19.7635 13.4298 22.1211 16.4703 23.548 19.46C24.7971 22.0773 25.4865 24.9572 25.7052 26.8442C26.2069 26.6825 26.7379 26.4067 27.2649 26.0523C28.1111 25.4833 28.8229 24.7958 29.2035 24.3556C29.3938 24.1355 29.6707 24.0089 29.9621 24.0089C30.2883 24.0089 30.7605 24.0953 31.1817 24.3877C31.6557 24.7165 32 25.2671 32 26.007C32 26.3131 31.9094 26.6196 31.8113 26.8709C31.7057 27.1414 31.5575 27.4327 31.3752 27.73C31.0103 28.3251 30.4807 28.9907 29.7964 29.6155C28.4255 30.8673 26.3807 32 23.7446 32H12.3469C11.7937 32 11.3452 31.5526 11.3452 31.0007C11.3452 29.9403 11.5003 28.7612 12.2688 27.8568C13.067 26.9174 14.3207 26.5039 15.9728 26.5039C16.526 26.5039 16.9745 26.9513 16.9745 27.5032C16.9745 28.0551 16.526 28.5025 15.9728 28.5025C14.6198 28.5025 14.0605 28.839 13.797 29.149C13.6274 29.3487 13.5039 29.6236 13.43 30.0015H23.7446C25.7716 30.0015 27.3536 29.1367 28.4438 28.1413C28.9645 27.6658 29.3609 27.1707 29.6277 26.7488C29.2589 27.0724 28.8387 27.4042 28.3847 27.7095C27.3945 28.3753 26.1128 29.0037 24.7808 29.0037C24.2276 29.0037 23.7791 28.5564 23.7791 28.0045C23.7791 26.6718 23.1724 23.3222 21.7391 20.3192C20.2823 17.2667 18.2009 15.0212 15.4546 15.0212C15.0221 15.0212 14.6385 14.7443 14.5032 14.3345C14.315 13.7646 14.1237 13.2109 13.9327 12.6584C12.9627 9.85202 12.004 7.07815 11.5394 2.38243C11.0117 2.86256 10.4472 3.6321 10.1809 4.37138C10.0374 4.76975 9.65788 5.03472 9.23354 5.03275C7.0516 5.02266 6.4566 6.52727 6.4566 7.01842C6.4566 7.35253 6.28921 7.66453 6.01054 7.84986C4.84415 8.62556 3.0218 9.09842 2.02482 9.32056C2.25905 10.4835 3.03095 11.2558 4.15284 11.7707C5.3419 12.3164 6.84277 12.5241 8.20195 12.5241C8.62926 12.5241 9.00952 12.7945 9.14888 13.1974C9.47234 14.1327 9.52844 15.3191 9.45281 16.5273C9.37578 17.7577 9.15496 19.1079 8.85531 20.4239C8.26296 23.0253 7.32611 25.6476 6.46215 27.0346C6.27938 27.328 5.95764 27.5064 5.61134 27.5064C4.48253 27.5064 3.91999 27.9028 3.59213 28.3323C3.24285 28.7898 3.07303 29.4033 3.00015 30.0014L6.63657 30.0015L11.1394 23.4412C11.452 22.9859 12.0754 22.8695 12.5319 23.1813C12.9884 23.4931 13.105 24.115 12.7925 24.5703L8.28961 31.1306C7.91665 31.674 7.29935 32 6.63738 32L2.95007 31.9999C1.88714 31.9999 0.869103 31.1195 0.99556 29.9006C1.07634 29.122 1.3024 28.033 1.99831 27.1214C2.64609 26.2729 3.63019 25.6705 5.01209 25.5362C5.65449 24.3084 6.39611 22.2014 6.90168 19.9812C7.1848 18.7378 7.38476 17.4975 7.4533 16.4027C7.50027 15.6525 7.48251 15.0121 7.40682 14.5019C6.07548 14.4322 4.60211 14.1768 3.31549 13.5863C1.73753 12.862 0.367706 11.5893 0.0259193 9.52471C-0.161317 8.39369 0.698227 7.56722 1.56109 7.3761C2.43396 7.18276 3.66772 6.84816 4.52183 6.4067C4.81533 5.03941 6.06538 3.32075 8.56536 3.06625C9.0403 2.10889 9.76503 1.23341 10.4485 0.683726C10.828 0.378457 11.3804 0.0199046 11.9794 0.000778587C12.3346 -0.0105653 12.7444 0.100435 13.0582 0.439956Z" fill="#3D75E4"/>
</svg>
