<svg width="32" height="32" viewBox="0 0 32 32" fill="none" xmlns="http://www.w3.org/2000/svg">
<path d="M23.8519 0.0897651C23.3049 0.178309 22.9333 0.693394 23.0219 1.24024C23.1104 1.78709 23.6256 2.15861 24.1726 2.07007C26.1714 1.74651 28.2494 2.66038 29.3202 4.51464C30.4217 6.42208 30.1282 8.75467 28.7518 10.3265C28.3868 10.7433 28.4289 11.377 28.8458 11.7419C29.2627 12.1068 29.8965 12.0647 30.2615 11.6479C32.1865 9.44967 32.6019 6.18524 31.0579 3.51159C29.5569 0.912336 26.6461 -0.362553 23.8519 0.0897651Z" fill="#3D75E4"/>
<path fill-rule="evenodd" clip-rule="evenodd" d="M16.2962 2.49588C16.9167 0.939116 19.0598 0.784161 19.8979 2.23547L26.9737 14.488C27.8118 15.9393 26.606 17.7174 24.9472 17.4763L22.803 17.1646L14.2903 19.2107C14.3239 19.3191 14.3687 19.436 14.4267 19.5568C14.6167 19.9525 14.8466 20.179 14.9925 20.2502C15.4905 20.4931 15.6972 21.0936 15.4542 21.5915C15.2112 22.0893 14.6106 22.296 14.1126 22.0531C13.4 21.7055 12.9086 21.0306 12.6178 20.4251C12.3261 19.8177 12.1342 19.0681 12.2182 18.4054C12.2252 18.3506 12.2364 18.2974 12.2516 18.2461C12.313 17.9866 12.4771 17.752 12.7263 17.6081C12.8932 17.5118 13.0732 17.44 13.2605 17.3949L22.334 15.2141C22.5821 15.1544 22.8392 15.1427 23.0917 15.1794L25.2359 15.4911L18.1602 3.23852L17.3581 5.25082C17.2636 5.48779 17.1248 5.70457 16.9491 5.88955L10.7823 12.3823L12.5468 15.2791C12.8351 15.7522 12.685 16.3693 12.2118 16.6575C11.7385 16.9456 11.1213 16.7956 10.833 16.3225L9.14248 13.5472L4.77327 16.0691C3.81354 16.6231 3.48471 17.85 4.03881 18.8095L4.68704 19.932C5.24115 20.8915 6.46836 21.2203 7.42809 20.6663C7.67764 20.5223 7.96336 20.4976 8.21911 20.5745C8.56341 20.6694 8.8459 20.9455 8.93125 21.3179C9.29195 22.8918 10.2265 25.4875 11.3727 27.4807C11.9514 28.487 12.5339 29.2502 13.0579 29.6701C13.5661 30.0773 13.7906 30.0105 13.9342 29.9276L15.494 29.0272C15.8322 28.832 15.948 28.3997 15.7529 28.0618C15.6776 27.9314 15.5037 27.7803 15.0822 27.5809C14.9302 27.509 14.7787 27.445 14.6072 27.3725C14.5455 27.3464 14.4807 27.319 14.4129 27.29C14.174 27.1877 13.8994 27.0656 13.6395 26.9154C12.8363 26.4511 12.1661 25.6182 11.6189 24.6941C11.0584 23.7478 10.5656 22.6004 10.1607 21.3792C9.98631 20.8534 10.2713 20.2858 10.7973 20.1115C11.3232 19.9371 11.891 20.2221 12.0653 20.7479C12.439 21.8747 12.8777 22.8821 13.3455 23.6721C13.8265 24.4843 14.2814 24.9691 14.6439 25.1787C14.7929 25.2648 14.9736 25.3477 15.2026 25.4458C15.2516 25.4667 15.3039 25.4888 15.3585 25.5119C15.5398 25.5885 15.7468 25.676 15.9404 25.7675C16.4364 26.0021 17.0937 26.3713 17.4907 27.0587C18.24 28.3563 17.7951 30.0155 16.4973 30.7646L14.9382 31.6645C13.7784 32.334 12.6355 31.9026 11.8029 31.2354C10.9862 30.5809 10.2539 29.5602 9.63311 28.4806C8.61603 26.7119 7.76332 24.5443 7.26358 22.8537C6.81923 22.9487 6.367 22.9658 5.92587 22.9103L3.08547 23.4674C2.24381 23.6325 1.39025 23.2445 0.961397 22.5019L0.268853 21.3026C-0.16 20.56 -0.0693165 19.627 0.494521 18.9808L1.7736 17.515C1.86804 16.2347 2.57413 15.0221 3.76998 14.3318L9.06819 11.2736L15.494 4.50818L16.2962 2.49588ZM2.94928 20.9351C3.04199 21.0956 3.14412 21.2473 3.25456 21.3899L2.69915 21.4988L2.00661 20.2996L2.35303 19.9026L2.94928 20.9351Z" fill="#3D75E4"/>
<path d="M22.8777 4.69213C22.7764 4.1475 23.1359 3.62389 23.6806 3.52261C25.3046 3.22071 27.0155 3.94764 27.89 5.46189C28.7645 6.97613 28.5387 8.82098 27.4652 10.0761C27.1051 10.4971 26.4717 10.5465 26.0506 10.1865C25.6295 9.82648 25.58 9.19332 25.9401 8.77229C26.4783 8.14312 26.5883 7.22002 26.1522 6.46494C25.7162 5.70985 24.8615 5.34355 24.0475 5.49489C23.5027 5.59617 22.979 5.23676 22.8777 4.69213Z" fill="#3D75E4"/>
</svg>
