<svg width="32" height="32" viewBox="0 0 32 32" fill="none" xmlns="http://www.w3.org/2000/svg">
<path d="M14.9938 9.95115C14.6602 9.50537 14.7467 8.87018 15.1869 8.53242L19.1722 5.47459C19.6124 5.13683 20.2396 5.22441 20.5731 5.67019C20.9067 6.11598 20.8202 6.75117 20.38 7.08893L16.3947 10.1468C15.9545 10.4845 15.3273 10.3969 14.9938 9.95115Z" fill="#3D75E4"/>
<path d="M16.9994 10.9539C16.5592 11.2916 16.4727 11.9268 16.8063 12.3726C17.1398 12.8184 17.767 12.906 18.2072 12.5682L22.1925 9.51037C22.6327 9.17261 22.7192 8.53743 22.3856 8.09164C22.0521 7.64585 21.4249 7.55828 20.9847 7.89604L16.9994 10.9539Z" fill="#3D75E4"/>
<path d="M13.206 12.5928C13.6462 12.255 13.7327 11.6199 13.3992 11.1741C13.0657 10.7283 12.4384 10.6407 11.9982 10.9785C11.558 11.3162 11.4715 11.9514 11.8051 12.3972C12.1386 12.843 12.7658 12.9306 13.206 12.5928Z" fill="#3D75E4"/>
<path d="M15.2117 13.596C15.5452 14.0418 15.4587 14.677 15.0185 15.0147C14.5783 15.3525 13.9511 15.2649 13.6176 14.8191C13.284 14.3734 13.3705 13.7382 13.8107 13.4004C14.2509 13.0626 14.8782 13.1502 15.2117 13.596Z" fill="#3D75E4"/>
<path fill-rule="evenodd" clip-rule="evenodd" d="M7.19372 9.58464C6.31332 10.2602 6.14036 11.5305 6.80742 12.4221L9.33246 15.797H8C7.44772 15.797 7 16.2504 7 16.8097C7 17.369 7.44772 17.8224 8 17.8224H24C24.5523 17.8224 25 17.369 25 16.8097C25 16.2504 24.5523 15.797 24 15.797H20.6237L27.0003 10.9043C27.8807 10.2288 28.0537 8.95843 27.3866 8.06686L21.9515 0.802352C21.2844 -0.089221 20.03 -0.264369 19.1496 0.411148L7.19372 9.58464ZM17.3119 15.797L11.8417 15.797L8.40153 11.199L20.3574 2.02548L25.7925 9.28999L17.3119 15.797Z" fill="#3D75E4"/>
<path fill-rule="evenodd" clip-rule="evenodd" d="M14 21.8731C13.4477 21.8731 13 22.3265 13 22.8858V26.2132C13 27.3318 13.8954 28.2386 15 28.2386H15.0414C15.1643 28.6569 15.547 28.9619 16 28.9619C16.453 28.9619 16.8357 28.6569 16.9586 28.2386H17C18.1046 28.2386 19 27.3318 19 26.2132V22.8858C19 22.3265 18.5523 21.8731 18 21.8731H14ZM16.6667 26.2132C16.4771 26.2132 16.2397 26.2503 16 26.3544C15.7603 26.2503 15.5229 26.2132 15.3333 26.2132L15 26.2132V23.8985H17V26.2132H16.6667Z" fill="#3D75E4"/>
<path fill-rule="evenodd" clip-rule="evenodd" d="M4.94663 13.0865C5.12508 12.5572 4.84604 11.9816 4.32338 11.8009C3.80072 11.6202 3.23236 11.9027 3.05391 12.432L0.353923 20.4403C0.128079 20.8672 0 21.355 0 21.8731V28.9619C0 30.6398 1.34315 32 3 32H29C30.6569 32 32 30.6398 32 28.9619V21.8731C32 21.4047 31.8953 20.961 31.7083 20.5647C31.7022 20.5416 31.6953 20.5186 31.6874 20.4956L28.9453 12.4296C28.7655 11.9008 28.1964 11.6197 27.6742 11.8017C27.152 11.9838 26.8744 12.5601 27.0542 13.0889L29.0077 18.8351L29 18.8351H3.00849L4.94663 13.0865ZM2 21.8731C2 21.3139 2.44772 20.8605 3 20.8605H29C29.5523 20.8605 30 21.3139 30 21.8731V28.9619C30 29.5212 29.5523 29.9746 29 29.9746H3C2.44772 29.9746 2 29.5212 2 28.9619V21.8731Z" fill="#3D75E4"/>
</svg>
