<svg width="32" height="32" viewBox="0 0 32 32" fill="none" xmlns="http://www.w3.org/2000/svg">
<path fill-rule="evenodd" clip-rule="evenodd" d="M5 2C5 0.89543 5.89543 0 7 0H25C26.1046 0 27 0.89543 27 2V3C27 4.10457 26.1046 5 25 5H24V9.47312C24 11.2135 23.095 12.8286 21.6108 13.7374L18.6108 15.5741C18.3295 15.7463 18.0355 15.8883 17.7332 16C18.0355 16.1117 18.3295 16.2537 18.6108 16.4259L21.6108 18.2626C23.095 19.1713 24 20.7865 24 22.5269V25C24 25.5523 23.5523 26 23 26C22.4477 26 22 25.5523 22 25V22.5269C22 21.4826 21.457 20.5136 20.5665 19.9683L17.5665 18.1316C16.6051 17.543 15.3949 17.543 14.4335 18.1316L11.4335 19.9683C10.543 20.5136 10 21.4826 10 22.5269L10 25C10 25.5523 9.55228 26 9 26C8.44771 26 8 25.5523 8 25L8 22.5269C8 20.7865 8.90496 19.1713 10.3892 18.2626L13.3892 16.4259C13.6705 16.2537 13.9645 16.1117 14.2668 16C13.9645 15.8882 13.6705 15.7463 13.3892 15.5741L10.3892 13.7374C8.90496 12.8286 8 11.2135 8 9.47311V5H7C5.89543 5 5 4.10457 5 3V2ZM7 3V2H25V3H7ZM22 5H10V9C10 11 12 12 14 12H18C20 12 22 11 22 9V5Z" fill="#3D75E4"/>
<path fill-rule="evenodd" clip-rule="evenodd" d="M7 27C5.89543 27 5 27.8954 5 29V30C5 31.1046 5.89543 32 7 32H25C26.1046 32 27 31.1046 27 30V29C27 27.8954 26.1046 27 25 27H7ZM25 30V29H7V30H25Z" fill="#3D75E4"/>
</svg>
