<svg width="32" height="33" viewBox="0 0 32 33" fill="none" xmlns="http://www.w3.org/2000/svg">
<g clip-path="url(#clip0)">
<path d="M2 16.3319C2 8.59992 8.26801 2.33191 16 2.33191C23.732 2.33191 30 8.59992 30 16.3319C30 19.4854 28.9586 22.3927 27.2005 24.7327C26.8688 25.1742 26.9578 25.8011 27.3993 26.1329C27.8409 26.4646 28.4678 26.3756 28.7995 25.934C30.8089 23.2596 32 19.9334 32 16.3319C32 7.49535 24.8366 0.331909 16 0.331909C7.16344 0.331909 0 7.49535 0 16.3319C0 25.1685 7.16344 32.3319 16 32.3319C19.6008 32.3319 22.9264 31.1412 25.6006 29.1326C26.0422 28.8009 26.1313 28.174 25.7996 27.7324C25.4679 27.2908 24.841 27.2018 24.3994 27.5334C22.0597 29.2909 19.1528 30.3319 16 30.3319C8.26801 30.3319 2 24.0639 2 16.3319Z" fill="#3D75E4"/>
<path d="M16 20.3319C15.4477 20.3319 15 19.8842 15 19.3319V8.33191C15 7.77962 15.4477 7.33191 16 7.33191C16.5523 7.33191 17 7.77962 17 8.33191V19.3319C17 19.8842 16.5523 20.3319 16 20.3319Z" fill="#3D75E4"/>
<path d="M14.5 23.8319C14.5 23.0035 15.1716 22.3319 16 22.3319C16.8284 22.3319 17.5 23.0035 17.5 23.8319C17.5 24.6603 16.8284 25.3319 16 25.3319C15.1716 25.3319 14.5 24.6603 14.5 23.8319Z" fill="#3D75E4"/>
</g>
<defs>
<clipPath id="clip0">
<rect width="32" height="32" fill="white" transform="translate(0 0.331909)"/>
</clipPath>
</defs>
</svg>
