<svg width="32" height="32" viewBox="0 0 32 32" fill="none" xmlns="http://www.w3.org/2000/svg">
<path fill-rule="evenodd" clip-rule="evenodd" d="M16.3262 2.26261C15.9412 1.91246 15.3532 1.91246 14.9681 2.26261L14.9658 2.26473L14.9614 2.2687L14.9468 2.28213C14.9345 2.2935 14.9171 2.30968 14.8948 2.33051C14.8504 2.37216 14.7867 2.43241 14.7067 2.5099C14.5466 2.66483 14.3204 2.88907 14.0501 3.17171C13.5107 3.73582 12.7899 4.53852 12.0668 5.492C10.6589 7.34833 9.08539 9.97693 9.08539 12.6029C9.08539 16.2279 12.0232 19.1666 15.6472 19.1666C19.2712 19.1666 22.209 16.2279 22.209 12.6029C22.209 9.97693 20.6354 7.34833 19.2276 5.492C18.5045 4.53852 17.7837 3.73582 17.2442 3.17171C16.974 2.88907 16.7478 2.66483 16.5877 2.5099C16.5076 2.43241 16.444 2.37216 16.3995 2.33051C16.3773 2.30968 16.3598 2.2935 16.3475 2.28213L16.3329 2.2687L16.3286 2.26473L16.3262 2.26261ZM15.5091 4.5677C15.5567 4.51792 15.6028 4.47017 15.6472 4.42451C15.6915 4.47017 15.7376 4.51792 15.7852 4.5677C16.2868 5.09228 16.9541 5.83583 17.6191 6.71262C18.9874 8.51681 20.19 10.6848 20.19 12.6029C20.19 15.1125 18.1561 17.147 15.6472 17.147C13.1383 17.147 11.1044 15.1125 11.1044 12.6029C11.1044 10.6848 12.307 8.51681 13.6753 6.71262C14.3403 5.83583 15.0075 5.09228 15.5091 4.5677Z" fill="#3D75E4"/>
<path d="M0.295677 23.768C-0.0985591 23.3736 -0.0985591 22.7342 0.295677 22.3399C1.87262 20.7625 4.42936 20.7625 6.0063 22.3399L6.01685 22.3506C6.80615 23.1286 8.07649 23.125 8.86138 22.3399L8.87874 22.3229C10.457 20.7625 13.001 20.7682 14.5723 22.3399L14.5829 22.3506C15.3722 23.1286 16.6425 23.125 17.4274 22.3399L17.4448 22.3229C19.023 20.7625 21.5671 20.7682 23.1383 22.3399L23.1488 22.3506C23.9381 23.1286 25.2085 23.125 25.9934 22.3399L26.0108 22.3229C27.5891 20.7625 30.1331 20.7682 31.7043 22.3399C32.0986 22.7342 32.0986 23.3736 31.7043 23.768C31.3101 24.1623 30.6709 24.1623 30.2767 23.768C29.4882 22.9792 28.2098 22.9792 27.4214 23.768L27.404 23.7849C25.8257 25.3453 23.2817 25.3397 21.7104 23.768L21.6999 23.7573C20.9106 22.9793 19.6402 22.9828 18.8553 23.768L18.838 23.7849C17.2597 25.3453 14.7157 25.3397 13.1444 23.768L13.1339 23.7573C12.3446 22.9793 11.0742 22.9828 10.2893 23.768L10.272 23.7849C8.69371 25.3453 6.14968 25.3397 4.57841 23.768L4.56786 23.7572C3.77855 22.9793 2.50822 22.9828 1.72333 23.768C1.3291 24.1623 0.689914 24.1623 0.295677 23.768Z" fill="#3D75E4"/>
<path d="M0.295677 28.8169C-0.0985591 28.4226 -0.0985591 27.7832 0.295677 27.3889C1.87262 25.8115 4.42936 25.8115 6.0063 27.3889L6.01685 27.3996C6.80615 28.1776 8.07649 28.174 8.86138 27.3889L8.87874 27.3719C10.457 25.8115 13.001 25.8171 14.5723 27.3889L14.5829 27.3996C15.3722 28.1776 16.6425 28.174 17.4274 27.3889L17.4448 27.3719C19.023 25.8115 21.5671 25.8172 23.1383 27.3889L23.1488 27.3996C23.9381 28.1776 25.2085 28.174 25.9934 27.3889L26.0108 27.3719C27.5891 25.8115 30.1331 25.8172 31.7043 27.3889C32.0986 27.7832 32.0986 28.4226 31.7043 28.8169C31.3101 29.2113 30.6709 29.2113 30.2767 28.8169C29.4882 28.0282 28.2098 28.0282 27.4214 28.8169L27.404 28.8339C25.8257 30.3943 23.2817 30.3887 21.7104 28.8169L21.6999 28.8063C20.9106 28.0283 19.6402 28.0318 18.8553 28.8169L18.838 28.8339C17.2597 30.3943 14.7157 30.3887 13.1444 28.8169L13.1339 28.8062C12.3446 28.0283 11.0742 28.0318 10.2893 28.8169L10.272 28.8339C8.69371 30.3943 6.14968 30.3887 4.57841 28.8169L4.56786 28.8062C3.77855 28.0283 2.50822 28.0318 1.72333 28.8169C1.3291 29.2113 0.689914 29.2113 0.295677 28.8169Z" fill="#3D75E4"/>
</svg>
