<svg width="32" height="32" viewBox="0 0 32 32" fill="none" xmlns="http://www.w3.org/2000/svg">
<path fill-rule="evenodd" clip-rule="evenodd" d="M14 3C14 1.34315 15.3431 0 17 0H18C19.6569 0 21 1.34315 21 3V5H22V3C22 1.34315 23.3431 0 25 0H26C27.6569 0 29 1.34315 29 3V5.94022L31.9929 30.8809C32.0587 31.4292 31.6675 31.9271 31.1191 31.9929C30.5708 32.0587 30.0729 31.6675 30.0071 31.1191L29.5128 27H24.531L24.9931 30.8819C25.0584 31.4303 24.6667 31.9278 24.1183 31.9931C23.5699 32.0584 23.0724 31.6667 23.0071 31.1183L20.9018 13.4338L14.9288 27.3709C14.3893 28.7195 13.6569 29.8796 12.6652 30.706C11.6558 31.5472 10.4277 32.0003 9 32.0003L8.97666 32H1.05994L1 32.0003C0.447715 32.0003 0 31.5526 0 31.0003C0 30.448 0.447715 30 1 30H1.05035C1.99897 29.9899 2.75533 29.6941 3.38482 29.1695C4.03874 28.6246 4.60345 27.7914 5.06235 26.6517C5.06804 26.6365 5.07413 26.6212 5.08062 26.6061L14 5.7942V3ZM22.5071 10L22.4931 9.88189C22.4885 9.8431 22.4817 9.8051 22.4729 9.76799L23.9071 6.42149C23.9667 6.29341 24 6.15059 24 6V3C24 2.44772 24.4477 2 25 2H26C26.5523 2 27 2.44772 27 3V5H26C25.4477 5 25 5.44772 25 6C25 6.55228 25.4477 7 26 7H27.1128L27.4728 10H22.5071ZM22.7452 12L23.1024 15H28.0728L27.7128 12H22.7452ZM23.3405 17L23.6976 20H28.6728L28.3128 17H23.3405ZM23.9357 22L24.2929 25H29.2728L28.9128 22H23.9357ZM19 3V5H16V3C16 2.44772 16.4477 2 17 2H18C18.5523 2 19 2.44772 19 3ZM9.02118 30.0002C9.98349 29.9959 10.7489 29.6995 11.3848 29.1695C12.0387 28.6246 12.6034 27.7914 13.0623 26.6518C13.068 26.6365 13.0741 26.6212 13.0806 26.6061L21.4832 7H15.6592L6.92878 27.3709C6.52893 28.3705 6.02292 29.2669 5.38411 30H9L9.02118 30.0002Z" fill="#3D75E4"/>
</svg>
