<svg width="16" height="16" viewBox="0 0 16 16" fill="none" xmlns="http://www.w3.org/2000/svg">
<path d="M8 0C8.55229 0 9 0.447715 9 1V7.58579L11.2929 5.29289C11.6834 4.90237 12.3166 4.90237 12.7071 5.29289C13.0976 5.68342 13.0976 6.31658 12.7071 6.70711L8.70711 10.7071C8.51957 10.8946 8.26522 11 8 11C7.73478 11 7.48043 10.8946 7.29289 10.7071L3.29289 6.70711C2.90237 6.31658 2.90237 5.68342 3.29289 5.29289C3.68342 4.90237 4.31658 4.90237 4.70711 5.29289L7 7.58579V1C7 0.447715 7.44772 0 8 0Z" fill="#3D75E4"/>
<path d="M1 10C1.55228 10 2 10.4477 2 11V13.5C2 13.7761 2.22386 14 2.5 14H13.5C13.7761 14 14 13.7761 14 13.5V11C14 10.4477 14.4477 10 15 10C15.5523 10 16 10.4477 16 11V13.5C16 14.8807 14.8807 16 13.5 16H2.5C1.11929 16 0 14.8807 0 13.5V11C0 10.4477 0.447715 10 1 10Z" fill="#3D75E4"/>
</svg>
