<svg width="56" height="56" viewBox="0 0 56 56" fill="none" xmlns="http://www.w3.org/2000/svg">
    <path fill-rule="evenodd" clip-rule="evenodd" d="M13.5 15C13.5 11.9624 15.9624 9.5 19 9.5C22.0376 9.5 24.5 11.9624 24.5 15C24.5 18.0376 22.0376 20.5 19 20.5C15.9624 20.5 13.5 18.0376 13.5 15ZM19 12.5C17.6193 12.5 16.5 13.6193 16.5 15C16.5 16.3807 17.6193 17.5 19 17.5C20.3807 17.5 21.5 16.3807 21.5 15C21.5 13.6193 20.3807 12.5 19 12.5Z" fill="#3D75E4"/>
    <path d="M16 40.5C16 41.3284 15.3284 42 14.5 42C13.6716 42 13 41.3284 13 40.5C13 39.6716 13.6716 39 14.5 39C15.3284 39 16 39.6716 16 40.5Z" fill="#3D75E4"/>
    <path fill-rule="evenodd" clip-rule="evenodd" d="M36.5 31.5C34.2909 31.5 32.5 33.2909 32.5 35.5C32.5 37.7091 34.2909 39.5 36.5 39.5C38.7091 39.5 40.5 37.7091 40.5 35.5C40.5 33.2909 38.7091 31.5 36.5 31.5ZM35.5 35.5C35.5 34.9477 35.9477 34.5 36.5 34.5C37.0523 34.5 37.5 34.9477 37.5 35.5C37.5 36.0523 37.0523 36.5 36.5 36.5C35.9477 36.5 35.5 36.0523 35.5 35.5Z" fill="#3D75E4"/>
    <path d="M39.5 13C40.3284 13 41 12.3284 41 11.5C41 10.6716 40.3284 10 39.5 10C38.6716 10 38 10.6716 38 11.5C38 12.3284 38.6716 13 39.5 13Z" fill="#3D75E4"/>
    <path fill-rule="evenodd" clip-rule="evenodd" d="M12.5 0C8.35785 0 4.99999 3.35787 5 7.50001L5.00003 29.4906L5 29.5L5.00003 29.5094L5.00005 48.5C5.00006 52.6421 8.35792 56 12.5001 56H32.5656C34.88 56 37.0648 54.9315 38.4857 53.1046L49.4202 39.0459C50.4441 37.7294 51.0001 36.1092 51.0001 34.4414V22.5196L51.0002 22.5L51.0001 22.4804V7.5C51.0001 3.35786 47.6422 0 43.5001 0H12.5ZM30 3H12.5C10.0147 3 8 5.01472 8 7.50001L8.00003 28H23.8783L30 21.8787V3ZM8.00003 31L8.00005 48.5C8.00006 50.9853 10.0148 53 12.5001 53H22.9996V31H8.00003ZM25.9996 53H32.5656C33.9542 53 35.2651 52.3589 36.1176 51.2627L47.0521 37.2041C47.6665 36.4142 48.0001 35.442 48.0001 34.4414V24H32.1213L25.9996 30.1213V53ZM48.0001 21H33V3H43.5001C45.9853 3 48.0001 5.01472 48.0001 7.5V21Z" fill="#3D75E4"/>
</svg>
