<svg width="56" height="56" viewBox="0 0 56 56" fill="none" xmlns="http://www.w3.org/2000/svg">
    <path d="M46.8386 3.49965C46.0107 5.46106 44.651 8.10674 43.1706 10.0792C42.6733 10.7418 41.7331 10.8758 41.0705 10.3785C40.4079 9.88124 40.2739 8.941 40.7712 8.27842C42.2647 6.28839 43.6917 3.38318 44.3788 1.57744C44.6658 0.82335 45.539 -0.186344 46.8932 0.0362311C48.8293 0.35447 49.611 1.99928 49.8877 3.28271C50.1562 4.52799 50.089 5.91844 49.9283 6.99987H53.5771C54.8482 6.99987 56 8 56 9.5C56 11 55.6406 12.2927 55.253 13.8286C54.8754 15.3246 54.3322 16.9521 53.6134 18.0353C52.7369 19.3562 51.213 19.5396 50.3623 19.5708C45.6233 19.7449 41.6944 18.6315 39.0001 17.4492V17.9998C39.0001 18.8282 38.3285 19.4998 37.5001 19.4998C36.6717 19.4998 36.0001 18.8282 36.0001 17.9998V15.0256L35.9998 15L25.0001 15C24.1717 15 23.5001 14.3284 23.5001 13.5C23.5001 12.6716 24.1717 12 25.0001 12L36.0001 12V7.99976C36.0001 7.17133 36.6717 6.49976 37.5001 6.49976C38.3285 6.49976 39.0001 7.17133 39.0001 7.99976V14.1224C41.2473 15.307 45.2253 16.7575 50.2522 16.5728C50.5731 16.561 50.8041 16.5211 50.9584 16.4653C51.0296 16.4396 51.0686 16.416 51.0874 16.4024C51.1034 16.3907 51.1092 16.3834 51.1136 16.3766C51.5355 15.7408 51.9812 14.5326 52.3442 13.0944C52.6204 12 52.8206 10.8878 52.9263 9.99987H49.6186C48.667 9.99987 47.9275 9.4763 47.4926 8.89313C47.0602 8.31334 46.8048 7.52016 46.9388 6.70064C47.0879 5.78887 47.1292 4.72293 46.9551 3.91496C46.919 3.74755 46.8795 3.61105 46.8386 3.49965Z" fill="#3D75E4"/>
    <path d="M25.5001 39.9998C24.6717 39.9998 24.0001 40.6713 24.0001 41.4998C24.0001 42.3282 24.6717 42.9998 25.5001 42.9998H30.5001C31.3285 42.9998 32.0001 42.3282 32.0001 41.4998C32.0001 40.6713 31.3285 39.9998 30.5001 39.9998H25.5001Z" fill="#3D75E4"/>
    <path fill-rule="evenodd" clip-rule="evenodd" d="M4.00009 20H3.5C1.567 20 0 18.433 0 16.5V7.5C0 5.56701 1.567 4 3.5 4H18.5001C20.4331 4 22.0001 5.56702 22.0001 7.50003L22 16.5C22 18.433 20.433 20 18.5 20H16.5C15.6716 20 15 19.3284 15 18.5C15 17.6716 15.6716 17 16.5 17H18.5C18.7762 17 19 16.7761 19 16.5L19.0001 7.5C19.0001 7.22386 18.7762 7 18.5001 7H3.5C3.22386 7 3 7.22386 3 7.5V16.5C3 16.7761 3.22386 17 3.5 17H9.17168C10.0999 17 10.9902 17.3687 11.6466 18.0251L14.5608 20.9393C15.1466 21.5251 15.1466 22.4749 14.5608 23.0607C13.975 23.6464 13.0252 23.6464 12.4395 23.0607L9.52524 20.1464C9.43147 20.0527 9.30429 20 9.17168 20H7.00009V35H19.5583C19.8889 32.1793 21.6006 29.7808 23.9989 28.4989C23.3717 27.6634 23.0001 26.6251 23.0001 25.5C23.0001 22.7386 25.2387 20.5 28.0001 20.5C30.7615 20.5 33.0001 22.7386 33.0001 25.5C33.0001 26.625 32.6285 27.6633 32.0014 28.4987C34.3997 29.7807 36.1113 32.1793 36.4419 35H49.0001V22.5C49.0001 21.6716 49.6716 21 50.5001 21C51.3285 21 52.0001 21.6716 52.0001 22.5V36.4897L52.0001 36.5L52.0001 36.5103V44.5C52.0001 46.433 50.4331 48 48.5001 48H33.8075L34.745 53H38.0001C38.8285 53 39.5001 53.6716 39.5001 54.5C39.5001 55.3284 38.8285 56 38.0001 56H33.5281C33.5083 56.0004 33.4885 56.0004 33.4687 56H22.5287C22.5108 56.0003 22.4929 56.0003 22.4749 56H18.0001C17.1717 56 16.5001 55.3284 16.5001 54.5C16.5001 53.6716 17.1717 53 18.0001 53H21.2552L22.1927 48H7.50009C5.56709 48 4.00009 46.433 4.00009 44.5V20ZM28.0003 30.5C30.6962 30.5 32.9392 32.4399 33.4094 35H22.5908C23.0611 32.4399 25.3043 30.5 28.0003 30.5ZM24.0075 44.9997L24.0281 45H31.9749C31.9929 44.9997 32.0108 44.9997 32.0287 45H48.5001C48.7762 45 49.0001 44.7761 49.0001 44.5V38H7.00009V44.5C7.00009 44.7761 7.22395 45 7.50009 45H23.9687C23.9816 44.9997 23.9945 44.9997 24.0075 44.9997ZM24.3075 53L25.245 48H30.7552L31.6927 53H24.3075ZM26.0001 25.5C26.0001 24.3954 26.8955 23.5 28.0001 23.5C29.1047 23.5 30.0001 24.3954 30.0001 25.5C30.0001 26.6046 29.1047 27.5 28.0001 27.5C26.8955 27.5 26.0001 26.6046 26.0001 25.5Z" fill="#3D75E4"/>
</svg>
