<svg width="56" height="56" viewBox="0 0 56 56" fill="none" xmlns="http://www.w3.org/2000/svg">
    <path d="M15.5 4.67116L22 2.99999L28.5 4.67116V9.49999C28.5 18.4997 23.6071 20.5 22 20.5C20.6133 20.5 17.1395 19.1507 15.9666 13.6853C15.7928 12.8753 14.9953 12.3596 14.1853 12.5334C13.3753 12.7072 12.8596 13.5048 13.0334 14.3147C14.4687 21.0029 19.0415 23.5 22 23.5C25.6429 23.5 31.5 19.7503 31.5 9.49999V4.28077C31.5 3.1336 30.7193 2.13364 29.6064 1.85541L22.6064 0.0746437C22.4073 0.0248763 22.2036 -4.91301e-06 22 7.27657e-10C21.7963 4.91349e-06 21.5927 0.0248862 21.3937 0.0746437L14.3937 1.85541C13.2808 2.13364 12.5 3.1336 12.5 4.28077V8.90847C12.5 10.9011 14.7173 12.0929 16.3793 10.9936L18.2306 9.76896C18.5432 9.56219 18.9219 9.47993 19.2921 9.53838L25.2661 10.4816C26.0844 10.6108 26.8525 10.0522 26.9817 9.23394C27.1109 8.41565 26.5522 7.64755 25.734 7.51835L19.76 6.57509C18.6494 6.39973 17.5133 6.6465 16.5756 7.26682L15.5 7.97825V4.67116Z" fill="#3D75E4"/>
    <path d="M20.9709 34.2943C21.1334 33.4819 20.6066 32.6917 19.7942 32.5292C18.9819 32.3668 18.1917 32.8936 18.0292 33.7059L15.1289 48.2072C14.9723 48.9906 15.1994 49.8018 15.7403 50.3898L20.1561 55.1915C21.146 56.2679 22.8444 56.2685 23.8351 55.193L28.2585 50.3908C28.8002 49.8026 29.0279 48.9908 28.8711 48.2067L25.9709 33.7059C25.8085 32.8936 25.0182 32.3668 24.2059 32.5292C23.3936 32.6917 22.8667 33.4819 23.0292 34.2943L25.8794 48.5455L21.9966 52.7609L18.1206 48.5462L20.9709 34.2943Z" fill="#3D75E4"/>
    <path d="M13.7529 25.3298C14.528 24.2963 15.9629 24.0236 17.0631 24.7006L22.0002 27.7388L26.9372 24.7006C28.0374 24.0236 29.4723 24.2963 30.2474 25.3298L32.7002 28.6001C33.1972 29.2628 33.0629 30.203 32.4002 30.7001C31.7374 31.1971 30.7972 31.0628 30.3002 30.4001L28.1211 27.4946L23.3104 30.4551C22.5069 30.9495 21.4934 30.9495 20.6899 30.4551L15.8792 27.4946L13.7002 30.4001C13.4935 30.6757 13.1982 30.8717 12.864 30.9553L7.11805 32.3918C6.24699 32.6095 5.55961 33.2777 5.31721 34.1422L3.08742 42.0951C2.81922 43.0517 3.53824 44.0001 4.53173 44.0001H12.5002C13.3286 44.0001 14.0002 44.6717 14.0002 45.5001C14.0002 46.3285 13.3286 47.0001 12.5002 47.0001H4.53173C1.97513 47.0001 -0.00469733 44.9067 8.37093e-06 42.5C0.000788524 42.101 0.084386 41.6934 0.198812 41.2853L2.4286 33.3323C2.96187 31.4304 4.47411 29.9604 6.39044 29.4814L11.6197 28.174L13.7529 25.3298Z" fill="#3D75E4"/>
    <path d="M50.5607 38.4394C51.1465 39.0252 51.1465 39.975 50.5607 40.5608L44.5607 46.5608C43.9749 47.1465 43.0252 47.1465 42.4394 46.5608L39.4394 43.5608C38.8536 42.975 38.8536 42.0252 39.4394 41.4394C40.0252 40.8536 40.9749 40.8536 41.5607 41.4394L43.5001 43.3788L48.4394 38.4394C49.0252 37.8536 49.9749 37.8536 50.5607 38.4394Z" fill="#3D75E4"/>
    <path d="M45 29.5001C44.0335 29.5001 43.25 30.2836 43.25 31.2501C43.25 32.2166 44.0335 33.0001 45 33.0001C45.9665 33.0001 46.75 32.2166 46.75 31.2501C46.75 30.2836 45.9665 29.5001 45 29.5001Z" fill="#3D75E4"/>
    <path fill-rule="evenodd" clip-rule="evenodd" d="M50.9171 30.0001H51.5001C53.9854 30.0001 56.0001 32.0148 56.0001 34.5001V51.5001C56.0001 53.9854 53.9854 56.0001 51.5001 56.0001H38.5001C36.0148 56.0001 34.0001 53.9854 34.0001 51.5001V34.5001C34.0001 32.0148 36.0148 30.0001 38.5001 30.0001H39.083C39.5591 27.1624 42.0271 25.0001 45.0001 25.0001C47.9731 25.0001 50.441 27.1624 50.9171 30.0001ZM37.0001 34.5001C37.0001 33.6717 37.6716 33.0001 38.5001 33.0001H40.5001C41.3285 33.0001 42.0001 32.3285 42.0001 31.5001V31.0001C42.0001 29.3432 43.3432 28.0001 45.0001 28.0001C46.6569 28.0001 48.0001 29.3432 48.0001 31.0001V31.5001C48.0001 32.3285 48.6716 33.0001 49.5001 33.0001H51.5001C52.3285 33.0001 53.0001 33.6717 53.0001 34.5001V51.5001C53.0001 52.3285 52.3285 53.0001 51.5001 53.0001H38.5001C37.6716 53.0001 37.0001 52.3285 37.0001 51.5001V34.5001Z" fill="#3D75E4"/>
    <path d="M6.50008 39.0001C6.50008 38.1717 7.17165 37.5001 8.00008 37.5001H12.0001C12.8285 37.5001 13.5001 38.1717 13.5001 39.0001C13.5001 39.8285 12.8285 40.5001 12.0001 40.5001H8.00008C7.17165 40.5001 6.50008 39.8285 6.50008 39.0001Z" fill="#3D75E4"/>
</svg>
