<svg width="56" height="56" viewBox="0 0 56 56" fill="none" xmlns="http://www.w3.org/2000/svg">
<path d="M52.5226 3.43934C51.9368 2.85355 50.9871 2.85355 50.4013 3.43934L28.1274 25.7132L6.56066 4.14644C5.97488 3.56066 5.02513 3.56066 4.43934 4.14644C3.85356 4.73223 3.85356 5.68198 4.43934 6.26776L26.0061 27.8345L4.43934 49.4013C3.85355 49.9871 3.85355 50.9368 4.43934 51.5226C5.02513 52.1084 5.97488 52.1084 6.56066 51.5226L28.1274 29.9558L50.4013 52.2297C50.9871 52.8155 51.9368 52.8155 52.5226 52.2297C53.1084 51.6439 53.1084 50.6942 52.5226 50.1084L30.2487 27.8345L52.5226 5.56066C53.1084 4.97487 53.1084 4.02513 52.5226 3.43934Z" fill="#3D75E4"/>
</svg>
