<svg width="56" height="56" viewBox="0 0 56 56" fill="none" xmlns="http://www.w3.org/2000/svg">
    <path fill-rule="evenodd" clip-rule="evenodd" d="M21.1292 1.20057C20.6405 0.410711 19.8217 -9.17652e-05 19.0028 1.53756e-08C18.1847 9.17155e-05 17.3667 0.410387 16.8779 1.19925L13.1706 7.18341C12.1388 8.84887 13.3366 11 15.2958 11H22.7053C24.6638 11 25.8618 8.85024 24.8314 7.18474L21.1292 1.20057ZM16.1937 8.00004L19 3.5L21.8081 8.00004H16.1937Z" fill="#3D75E4"/>
    <path d="M22 22C21.1716 22 20.5 22.6716 20.5 23.5C20.5 24.3285 21.1716 25 22 25H25C25.8284 25 26.5 24.3285 26.5 23.5C26.5 22.6716 25.8284 22 25 22H22Z" fill="#3D75E4"/>
    <path d="M22 28C21.1716 28 20.5 28.6716 20.5 29.5C20.5 30.3285 21.1716 31 22 31H25C25.8284 31 26.5 30.3285 26.5 29.5C26.5 28.6716 25.8284 28 25 28H22Z" fill="#3D75E4"/>
    <path d="M22 34C21.1716 34 20.5 34.6716 20.5 35.5C20.5 36.3285 21.1716 37 22 37H25C25.8284 37 26.5 36.3285 26.5 35.5C26.5 34.6716 25.8284 34 25 34H22Z" fill="#3D75E4"/>
    <path d="M22 40C21.1716 40 20.5 40.6716 20.5 41.5C20.5 42.3285 21.1716 43 22 43H25C25.8284 43 26.5 42.3285 26.5 41.5C26.5 40.6716 25.8284 40 25 40H22Z" fill="#3D75E4"/>
    <path fill-rule="evenodd" clip-rule="evenodd" d="M21.0001 47.5C21.0001 46.6715 21.6717 46 22.5001 46H33.5001C34.3285 46 35.0001 46.6715 35.0001 47.5C35.0001 48.3284 34.3285 49 33.5001 49H33V53.0001H38.5C38.7761 53.0001 39 52.7762 39 52.5001V50.5001C39 49.6717 39.6716 49.0001 40.5 49.0001C41.3284 49.0001 42 49.6717 42 50.5001V52.5001C42 54.4331 40.433 56.0001 38.5 56.0001H17.5C15.567 56.0001 14 54.4331 14 52.5001V28.0001H7.5C7.22386 28.0001 7 28.2239 7 28.5001V34.5001C7 35.3285 6.32843 36.0001 5.5 36.0001C4.67157 36.0001 4 35.3285 4 34.5001V28.5001C4 26.5671 5.567 25.0001 7.5 25.0001H14.5C15.8807 25.0001 17 26.1194 17 27.5001V52.5001C17 52.7762 17.2239 53.0001 17.5 53.0001H23V49H22.5001C21.6717 49 21.0001 48.3284 21.0001 47.5ZM30 49.5V53.0001H26V49.5H30Z" fill="#3D75E4"/>
    <path d="M29.5 41.5C29.5 40.6716 30.1716 40 31 40H34C34.8284 40 35.5 40.6716 35.5 41.5C35.5 42.3285 34.8284 43 34 43H31C30.1716 43 29.5 42.3285 29.5 41.5Z" fill="#3D75E4"/>
    <path d="M29.5 35.5C29.5 34.6716 30.1716 34 31 34H34C34.8284 34 35.5 34.6716 35.5 35.5C35.5 36.3285 34.8284 37 34 37H31C30.1716 37 29.5 36.3285 29.5 35.5Z" fill="#3D75E4"/>
    <path d="M29.5 29.5C29.5 28.6716 30.1716 28 31 28H34C34.8284 28 35.5 28.6716 35.5 29.5C35.5 30.3285 34.8284 31 34 31H31C30.1716 31 29.5 30.3285 29.5 29.5Z" fill="#3D75E4"/>
    <path d="M29.5 23.5C29.5 22.6716 30.1716 22 31 22H34C34.8284 22 35.5 22.6716 35.5 23.5C35.5 24.3285 34.8284 25 34 25H31C30.1716 25 29.5 24.3285 29.5 23.5Z" fill="#3D75E4"/>
    <path fill-rule="evenodd" clip-rule="evenodd" d="M0 40.5C0 39.1193 1.11929 38 2.5 38H7.5C8.88071 38 10 39.1193 10 40.5V45.5C10 46.8807 8.88071 48 7.5 48H2.5C1.11929 48 0 46.8807 0 45.5V40.5ZM3 41V45H7V41H3Z" fill="#3D75E4"/>
    <path fill-rule="evenodd" clip-rule="evenodd" d="M50.5 21.5C47.4624 21.5 45 23.9625 45 27C45 30.0376 47.4624 32.5 50.5 32.5C53.5376 32.5 56 30.0376 56 27C56 23.9625 53.5376 21.5 50.5 21.5ZM48 27C48 25.6193 49.1193 24.5 50.5 24.5C51.8807 24.5 53 25.6193 53 27C53 28.3808 51.8807 29.5 50.5 29.5C49.1193 29.5 48 28.3808 48 27Z" fill="#3D75E4"/>
    <path d="M26 5.50009C26 4.67166 26.6716 4.00009 27.5 4.00009H31.5C33.433 4.00009 35 5.56709 35 7.50009V15.5001C35 16.8808 33.8807 18.0001 32.5 18.0001H17.5C17.2239 18.0001 17 18.2239 17 18.5001V21.5001C17 22.3285 16.3284 23.0001 15.5 23.0001C14.6716 23.0001 14 22.3285 14 21.5001V18.5001C14 16.5671 15.567 15.0001 17.5 15.0001H32V7.50009C32 7.22395 31.7761 7.00009 31.5 7.00009H27.5C26.6716 7.00009 26 6.32852 26 5.50009Z" fill="#3D75E4"/>
    <path d="M39 18.5001C39 18.2239 38.7761 18.0001 38.5 18.0001C37.6716 18.0001 37 17.3284 37 16.5C37 15.6716 37.6716 15 38.5 15C38.5072 15 38.5145 15.0001 38.5217 15.0002C40.4447 15.0118 42 16.5743 42 18.5001V44.0001H48.5C48.7761 44.0001 49 43.7762 49 43.5001V35.0001C49 34.1717 49.6716 33.5001 50.5 33.5001C51.3284 33.5001 52 34.1717 52 35.0001V43.5001C52 45.4331 50.433 47.0001 48.5 47.0001H41.5C40.1193 47.0001 39 45.8808 39 44.5001V18.5001Z" fill="#3D75E4"/>
</svg>
