<svg width="56" height="56" viewBox="0 0 56 56" fill="none" xmlns="http://www.w3.org/2000/svg">
    <path d="M29.5 4.5C29.5 3.67157 30.1716 3 31 3H47.5C48.3284 3 49 3.67157 49 4.5V15.5C49 16.3284 48.3284 17 47.5 17H39.1569C37.6982 17 36.2992 17.5795 35.2678 18.6109L31.9393 21.9393C31.3536 22.5251 31.3536 23.4749 31.9393 24.0607C32.5251 24.6464 33.4749 24.6464 34.0607 24.0607L37.3891 20.7322C37.8579 20.2634 38.4938 20 39.1569 20H47.5C49.9853 20 52 17.9853 52 15.5V4.5C52 2.01472 49.9853 0 47.5 0H31C28.5147 0 26.5 2.01472 26.5 4.5V15.5C26.5 17.9853 28.5147 20 31 20H31.5C32.3284 20 33 19.3284 33 18.5C33 17.6716 32.3284 17 31.5 17H31C30.1716 17 29.5 16.3284 29.5 15.5V4.5Z" fill="#3D75E4"/>
    <path fill-rule="evenodd" clip-rule="evenodd" d="M17 15.5C15.9067 15.5 14.9436 15.7361 14.1322 16.2183C13.3187 16.7017 12.75 17.3775 12.3618 18.1107C11.6174 19.5167 11.5 21.2084 11.5 22.5C11.5 23.9052 11.7743 25.765 12.5207 27.3324C13.269 28.9039 14.6779 30.5 17 30.5C19.3221 30.5 20.731 28.9039 21.4793 27.3324C22.2257 25.765 22.5 23.9052 22.5 22.5C22.5 21.2084 22.3826 19.5167 21.6382 18.1107C21.25 17.3775 20.6813 16.7017 19.8678 16.2183C19.0564 15.7361 18.0933 15.5 17 15.5ZM14.5 22.5C14.5 21.2916 14.6326 20.2333 15.0132 19.5143C15.1875 19.185 15.4001 18.9546 15.6647 18.7973C15.9314 18.6389 16.3433 18.5 17 18.5C17.6567 18.5 18.0686 18.6389 18.3353 18.7973C18.5999 18.9546 18.8125 19.185 18.9868 19.5143C19.3674 20.2333 19.5 21.2916 19.5 22.5C19.5 23.5948 19.2743 24.985 18.7707 26.0426C18.269 27.0961 17.6779 27.5 17 27.5C16.3221 27.5 15.731 27.0961 15.2293 26.0426C14.7257 24.985 14.5 23.5948 14.5 22.5Z" fill="#3D75E4"/>
    <path fill-rule="evenodd" clip-rule="evenodd" d="M33.535 42C33.5122 42.0005 33.4894 42.0005 33.4665 42H28.5287L28.5016 42.0003C28.491 42.0003 28.4804 42.0002 28.4698 42H5.53046C5.51088 42.0004 5.49126 42.0004 5.47158 42H3.28789L4.47014 48.6995C4.48988 48.7966 4.50024 48.8971 4.50024 49V54.5C4.50024 55.3284 3.82867 56 3.00024 56C2.17182 56 1.50024 55.3284 1.50024 54.5V49.1328L0.0228359 40.7607C-0.0542238 40.324 0.0658743 39.8756 0.350879 39.5359C0.635884 39.1962 1.05659 39 1.50001 39H4.35442L5.25228 35.7078C5.57836 34.5122 6.51241 33.5781 7.70804 33.2521L11.383 32.2498C11.4994 32.218 11.6005 32.1452 11.6674 32.0448L12.2521 31.1679C12.7116 30.4786 13.6429 30.2923 14.3322 30.7518C15.0215 31.2114 15.2077 32.1427 14.7482 32.832L14.1636 33.7089C13.6949 34.412 12.9876 34.9218 12.1723 35.1441L8.49739 36.1464C8.32659 36.1929 8.19316 36.3264 8.14657 36.4972L7.46398 39H15.5002V34C15.5002 33.1716 16.1718 32.5 17.0002 32.5C17.8287 32.5 18.5002 33.1716 18.5002 34V39H26.5363L25.8537 36.4972C25.8071 36.3264 25.6737 36.1929 25.5028 36.1464L21.8279 35.1441C21.0127 34.9218 20.3054 34.412 19.8366 33.7089L19.252 32.832C18.7925 32.1427 18.9788 31.2114 19.6681 30.7518C20.3574 30.2923 21.2887 30.4786 21.7482 31.1679L22.3328 32.0448C22.3998 32.1452 22.5008 32.218 22.6173 32.2498L26.2922 33.2521C27.4878 33.5781 28.4219 34.5122 28.748 35.7078L29.6458 39H32.3841L34.6358 31.4943C35.08 30.0138 36.4426 29 37.9882 29H48.1561C49.8308 29 51.0319 30.6143 50.5507 32.2184L48.5162 39H54.5C54.9434 39 55.3641 39.1962 55.6491 39.5359C55.9342 39.8756 56.0542 40.324 55.9772 40.7607L54.5 49.1314V54.5C54.5 55.3284 53.8284 56 53 56C52.1716 56 51.5 55.3284 51.5 54.5V49.0286C51.4991 48.9774 51.5008 48.9258 51.5052 48.8739C51.5098 48.8184 51.5175 48.7637 51.528 48.7101L52.7121 42H46.535C46.5122 42.0005 46.4894 42.0005 46.4665 42H33.535ZM37.9882 32C37.7674 32 37.5727 32.1448 37.5093 32.3563L35.5162 39H45.3841L47.4841 32H37.9882Z" fill="#3D75E4"/>
    <path fill-rule="evenodd" clip-rule="evenodd" d="M39.5005 7.49991C40.7117 7.50013 41.3752 8.58959 41.3752 9.6874C41.3753 10.4984 41.1439 11.2883 40.8974 12.0533C41.1405 12.1197 41.3701 12.2485 41.561 12.4394C42.1467 13.0253 42.1467 13.975 41.5608 14.5607C41.0208 15.0981 40.2731 15.5 39.5003 15.5C38.3045 15.5 37.6683 14.412 37.6491 13.3394C37.6344 12.5205 37.8529 11.7188 38.1032 10.9467C37.8601 10.8802 37.6305 10.7515 37.4395 10.5605C36.8537 9.97475 36.8538 9.025 37.4396 8.43922C37.9782 7.90107 38.7287 7.49977 39.5005 7.49991Z" fill="#3D75E4"/>
    <path d="M39.5 7C40.3284 7 41 6.32843 41 5.5C41 4.67157 40.3284 4 39.5 4C38.6716 4 38 4.67157 38 5.5C38 6.32843 38.6716 7 39.5 7Z" fill="#3D75E4"/>
</svg>
