<svg width="56" height="56" viewBox="0 0 56 56" fill="none" xmlns="http://www.w3.org/2000/svg">
    <path d="M11.0002 40.5C11.0002 41.3284 10.3286 42 9.50019 42C8.67176 42 8.00019 41.3284 8.00019 40.5C8.00019 39.6716 8.67176 39 9.50019 39C10.3286 39 11.0002 39.6716 11.0002 40.5Z" fill="#3D75E4"/>
    <path fill-rule="evenodd" clip-rule="evenodd" d="M14.0002 9.5C10.9626 9.5 8.50019 11.9624 8.50019 15C8.50019 18.0376 10.9626 20.5 14.0002 20.5C17.0378 20.5 19.5002 18.0376 19.5002 15C19.5002 11.9624 17.0378 9.5 14.0002 9.5ZM11.5002 15C11.5002 13.6193 12.6195 12.5 14.0002 12.5C15.3809 12.5 16.5002 13.6193 16.5002 15C16.5002 16.3807 15.3809 17.5 14.0002 17.5C12.6195 17.5 11.5002 16.3807 11.5002 15Z" fill="#3D75E4"/>
    <path d="M34.5002 13C35.3286 13 36.0002 12.3284 36.0002 11.5C36.0002 10.6716 35.3286 10 34.5002 10C33.6718 10 33.0002 10.6716 33.0002 11.5C33.0002 12.3284 33.6718 13 34.5002 13Z" fill="#3D75E4"/>
    <path fill-rule="evenodd" clip-rule="evenodd" d="M7.50011 0C3.35797 0 0.000117779 3.35787 0.000123143 7.50001L0.000152091 29.4784L0 29.5L0.000152148 29.5216L0.000177145 48.5C0.000182509 52.6421 3.35805 56 7.50018 56H19.4948L19.4996 56L19.5045 56H25.5001C26.3285 56 27.0001 55.3284 27.0001 54.5C27.0001 53.6716 26.3285 53 25.5001 53H20.9996V30.1213L27.1213 24H43.0002V24.5C43.0002 25.3284 43.6718 26 44.5002 26C45.3286 26 46.0002 25.3284 46.0002 24.5V22.5034L46.0002 22.5L46.0002 22.4966V7.5C46.0002 3.35786 42.6423 0 38.5002 0H7.50011ZM3.00018 48.5L3.00015 31H17.9996V53H7.50018C5.0149 53 3.00018 50.9853 3.00018 48.5ZM3.00012 7.50001L3.00015 28H18.8783L25 21.8787V3H7.50011C5.01483 3 3.00012 5.01472 3.00012 7.50001ZM28 21V3H38.5002C40.9855 3 43.0002 5.01472 43.0002 7.5V21H28Z" fill="#3D75E4"/>
    <path d="M43.6516 28.9552C42.7073 28.1243 41.2927 28.1243 40.3484 28.9552L28.5091 39.3739C27.8872 39.9212 27.8267 40.869 28.3739 41.4909C28.9212 42.1128 29.869 42.1733 30.491 41.626L42 31.4981L53.5091 41.626C54.131 42.1733 55.0788 42.1128 55.6261 41.4909C56.1734 40.869 56.1129 39.9212 55.491 39.3739L43.6516 28.9552Z" fill="#3D75E4"/>
    <path d="M44 40C44 41.1046 43.1046 42 42 42C40.8954 42 40 41.1046 40 40C40 38.8954 40.8954 38 42 38C43.1046 38 44 38.8954 44 40Z" fill="#3D75E4"/>
    <path fill-rule="evenodd" clip-rule="evenodd" d="M30.5 56H53.5C54.3284 56 55 55.3284 55 54.5C55 53.6716 54.3284 53 53.5 53H53V43.5C53 42.6716 52.3284 42 51.5 42C50.6716 42 50 42.6716 50 43.5V53H48V47.5C48 46.1193 46.8807 45 45.5 45H42C40.6193 45 39.5 46.1193 39.5 47.5V53H34V43.5C34 42.6716 33.3284 42 32.5 42C31.6716 42 31 42.6716 31 43.5V53H30.5C29.6716 53 29 53.6716 29 54.5C29 55.3284 29.6716 56 30.5 56ZM45 53H42.5V48H45V53Z" fill="#3D75E4"/>
</svg>
