<svg width="56" height="56" viewBox="0 0 56 56" fill="none" xmlns="http://www.w3.org/2000/svg">
    <path d="M29.5 1.5C29.5 0.671573 28.8285 0 28 0C27.1716 0 26.5 0.671573 26.5 1.5V9.80002C26.5 10.6285 27.1716 11.3 28 11.3C28.8285 11.3 29.5 10.6285 29.5 9.80002V1.5Z" fill="#3D75E4"/>
    <path d="M28.0003 24.5C22.2013 24.5 17.5003 29.201 17.5003 35C17.5003 35.8284 16.8287 36.5 16.0003 36.5C15.1719 36.5 14.5003 35.8284 14.5003 35C14.5003 27.5442 20.5444 21.5 28.0003 21.5C28.8287 21.5 29.5003 22.1716 29.5003 23C29.5003 23.8284 28.8287 24.5 28.0003 24.5Z" fill="#3D75E4"/>
    <path fill-rule="evenodd" clip-rule="evenodd" d="M50.5003 51C50.5003 48.581 48.7825 46.5633 46.5003 46.1V34C46.5003 23.7827 38.2176 15.5 28.0003 15.5C17.783 15.5 9.50029 23.7827 9.50029 34V46.1C7.21805 46.5633 5.50029 48.581 5.50029 51C5.50029 53.7614 7.73887 56 10.5003 56H45.5003C48.2617 56 50.5003 53.7614 50.5003 51ZM28.0003 18.5C19.4399 18.5 12.5003 25.4396 12.5003 34V46H19.5148C19.7736 41.5383 23.4737 38 28.0003 38C32.5269 38 36.227 41.5383 36.4858 46H37.5001C38.3285 46 39.0001 46.6716 39.0001 47.5C39.0001 48.3284 38.3285 49 37.5001 49H10.5003C9.39572 49 8.50029 49.8954 8.50029 51C8.50029 52.1046 9.39572 53 10.5003 53H45.5003C46.6049 53 47.5003 52.1046 47.5003 51C47.5003 49.8954 46.6049 49 45.5003 49H42.5001C41.6717 49 41.0001 48.3284 41.0001 47.5C41.0001 46.6716 41.6717 46 42.5001 46H43.5003V34C43.5003 25.4396 36.5607 18.5 28.0003 18.5ZM33.4779 46C33.2253 43.1968 30.8693 41 28.0003 41C25.1313 41 22.7753 43.1968 22.5227 46H33.4779Z" fill="#3D75E4"/>
    <path d="M11.7562 4.19767C12.4755 3.78667 13.3918 4.03657 13.8028 4.75585L17.8027 11.7559C18.2137 12.4751 17.9638 13.3914 17.2445 13.8024C16.5252 14.2134 15.609 13.9635 15.1979 13.2442L11.198 6.24424C10.787 5.52496 11.0369 4.60868 11.7562 4.19767Z" fill="#3D75E4"/>
    <path d="M42.1978 4.75585C42.6088 4.03657 43.5251 3.78667 44.2444 4.19767C44.9637 4.60868 45.2136 5.52496 44.8025 6.24424L40.8026 13.2442C40.3916 13.9635 39.4753 14.2134 38.7561 13.8024C38.0368 13.3914 37.7869 12.4751 38.1979 11.7559L42.1978 4.75585Z" fill="#3D75E4"/>
    <path d="M0.197892 14.7558C0.608907 14.0365 1.52519 13.7867 2.24447 14.1977L9.24447 18.1977C9.96374 18.6087 10.2136 19.525 9.80262 20.2442C9.39161 20.9635 8.47532 21.2134 7.75605 20.8024L0.756048 16.8024C0.036772 16.3914 -0.213123 15.4751 0.197892 14.7558Z" fill="#3D75E4"/>
    <path d="M53.7561 14.1977C54.4754 13.7867 55.3917 14.0365 55.8027 14.7558C56.2137 15.4751 55.9638 16.3914 55.2445 16.8024L48.2445 20.8024C47.5253 21.2134 46.609 20.9635 46.198 20.2442C45.7869 19.525 46.0368 18.6087 46.7561 18.1977L53.7561 14.1977Z" fill="#3D75E4"/>
</svg>
