<svg width="56" height="56" viewBox="0 0 56 56" fill="none" xmlns="http://www.w3.org/2000/svg">
    <path d="M22.8681 2.11479C23.2077 1.35917 22.8704 0.471318 22.1148 0.131713C21.9149 0.0418816 21.7058 -0.000102975 21.5 1.89647e-07C20.9278 0.000287034 20.3815 0.329232 20.1317 0.884975L0.131713 45.385C-0.207891 46.1406 0.129356 47.0284 0.884975 47.368C1.64059 47.7077 2.52845 47.3704 2.86805 46.6148L22.8681 2.11479Z" fill="#3D75E4"/>
    <path d="M30.8904 0.0516196C31.6903 0.267311 32.1638 1.09057 31.9482 1.89043L30.9482 5.59876C30.7325 6.39862 29.9092 6.87218 29.1093 6.65649C28.3095 6.44079 27.8359 5.61753 28.0516 4.81767L29.0516 1.10934C29.2321 0.43992 29.8382 -0.000459827 30.5 5.50263e-07C30.6289 9.02521e-05 30.76 0.0164467 30.8904 0.0516196Z" fill="#3D75E4"/>
    <path d="M27.8904 11.1766C28.6903 11.3923 29.1638 12.2156 28.9482 13.0154L26.9482 20.4321C26.7325 21.232 25.9092 21.7055 25.1093 21.4898C24.3095 21.2741 23.8359 20.4509 24.0516 19.651L26.0516 12.2343C26.2673 11.4345 27.0906 10.9609 27.8904 11.1766Z" fill="#3D75E4"/>
    <path d="M23.8904 26.01C24.6903 26.2256 25.1638 27.0489 24.9482 27.8488L22.9482 35.2654C22.7325 36.0653 21.9092 36.5388 21.1093 36.3232C20.3095 36.1075 19.8359 35.2842 20.0516 34.4843L22.0516 27.0677C22.2673 26.2678 23.0906 25.7943 23.8904 26.01Z" fill="#3D75E4"/>
    <path d="M19.8904 40.8433C20.6903 41.059 21.1638 41.8822 20.9482 42.6821L19.9482 46.3904C19.7325 47.1903 18.9092 47.6638 18.1093 47.4482C17.3095 47.2325 16.8359 46.4092 17.0516 45.6093L18.0516 41.901C18.2673 41.1012 19.0906 40.6276 19.8904 40.8433Z" fill="#3D75E4"/>
    <path d="M40 5.50263e-07C39.1716 5.50263e-07 38.5 0.671573 38.5 1.5V17C38.5 17.8284 39.1716 18.5 40 18.5C40.8284 18.5 41.5 17.8284 41.5 17V1.5C41.5 0.671573 40.8284 5.50263e-07 40 5.50263e-07Z" fill="#3D75E4"/>
    <path d="M40 19.9998C40.8284 19.9998 41.5 20.6713 41.5 21.4998V21.9998H45.5V21.4998C45.5 20.6713 46.1716 19.9998 47 19.9998C47.8284 19.9998 48.5 20.6713 48.5 21.4998V23.4998C48.5 23.6033 48.4895 23.7044 48.4695 23.8021C48.3297 24.4856 47.7249 24.9998 47 24.9998H40C39.8964 24.9998 39.7953 24.9893 39.6977 24.9693C39.0142 24.8294 38.5 24.2246 38.5 23.4998V21.4998C38.5 20.6713 39.1716 19.9998 40 19.9998Z" fill="#3D75E4"/>
    <path d="M42 31C41.1716 31 40.5 31.6716 40.5 32.5C40.5 33.3284 41.1716 34 42 34H49.5C50.3284 34 51 33.3284 51 32.5C51 31.6716 50.3284 31 49.5 31H42Z" fill="#3D75E4"/>
    <path d="M40.5 38.5C40.5 37.6716 41.1716 37 42 37H49.5C50.3284 37 51 37.6716 51 38.5C51 39.3284 50.3284 40 49.5 40H42C41.1716 40 40.5 39.3284 40.5 38.5Z" fill="#3D75E4"/>
    <path d="M42 43C41.1716 43 40.5 43.6716 40.5 44.5C40.5 45.3284 41.1716 46 42 46H49.5C50.3284 46 51 45.3284 51 44.5C51 43.6716 50.3284 43 49.5 43H42Z" fill="#3D75E4"/>
    <path d="M39 32.5C39 33.3284 38.3284 34 37.5 34C36.6716 34 36 33.3284 36 32.5C36 31.6716 36.6716 31 37.5 31C38.3284 31 39 31.6716 39 32.5Z" fill="#3D75E4"/>
    <path d="M35.4807 24.9999C34.6612 25.0102 34 25.6778 34 26.4998V51.5C34 52.3284 34.6716 53 35.5 53H51.5C52.3284 53 53 52.3284 53 51.5V26.4998C53 25.6778 52.3388 25.0102 51.5193 24.9999L51.5 25C50.6716 25 50 24.3284 50 23.5C50 22.6716 50.6716 22 51.5 22C53.9853 22 56 24.0145 56 26.4998V51.5C56 53.9853 53.9853 56 51.5 56H35.5C33.0147 56 31 53.9853 31 51.5V26.4998C31 24.0145 33.0147 21.9998 35.5 21.9998C36.3284 21.9998 37 22.6716 37 23.5C37 24.3284 36.3284 25 35.5 25L35.4807 24.9999Z" fill="#3D75E4"/>
    <path d="M39 38.5C39 39.3284 38.3284 40 37.5 40C36.6716 40 36 39.3284 36 38.5C36 37.6716 36.6716 37 37.5 37C38.3284 37 39 37.6716 39 38.5Z" fill="#3D75E4"/>
    <path d="M37.5 46C38.3284 46 39 45.3284 39 44.5C39 43.6716 38.3284 43 37.5 43C36.6716 43 36 43.6716 36 44.5C36 45.3284 36.6716 46 37.5 46Z" fill="#3D75E4"/>
</svg>
