<svg width="56" height="56" viewBox="0 0 56 56" fill="none" xmlns="http://www.w3.org/2000/svg">
    <path d="M16.9001 14.1C16.9001 7.96964 21.8698 3 28.0001 3C34.1305 3 39.1001 7.96964 39.1001 14.1C39.1001 14.4441 39.0845 14.7842 39.054 15.1196C38.9178 16.6187 39.6509 18.2744 41.2534 18.9473L52.4855 23.6634C52.924 23.8475 53.126 24.3558 52.9336 24.7907C52.7444 25.2184 52.2452 25.4128 51.8166 25.2258L40.6469 20.3518C39.055 19.6571 37.3515 20.2682 36.3609 21.4015C34.324 23.7317 31.3344 25.2 28.0001 25.2C25.57 25.2 23.3263 24.4208 21.4993 23.0983C20.3524 22.2681 18.5805 22.4555 17.766 23.8423L0.206811 53.7404C-0.212722 54.4547 0.0262662 55.3739 0.740607 55.7934C1.45495 56.213 2.37414 55.974 2.79367 55.2596L20.1049 25.7838C22.3579 27.3089 25.077 28.2 28.0001 28.2C32.2362 28.2 36.0372 26.3302 38.6196 23.3759C38.9069 23.0472 39.2593 23.0194 39.4471 23.1014L50.6168 27.9754C52.5585 28.8227 54.82 27.9419 55.6771 26.0044C55.9035 25.4928 56.0025 25.1261 56 24.5C55.994 23.0034 55.1177 21.5149 53.6469 20.8973L42.4148 16.1812C42.2258 16.1018 42.0021 15.8271 42.0417 15.3912C42.0804 14.9656 42.1001 14.5349 42.1001 14.1C42.1001 6.31278 35.7874 0 28.0001 0C20.2129 0 13.9001 6.31278 13.9001 14.1C13.9001 15.7988 14.2012 17.4305 14.7542 18.9427C15.3253 20.5043 17.1404 20.9158 18.3721 20.1234L23.9505 16.5349C24.1394 16.4133 24.3863 16.4327 24.5539 16.5823L26.6004 18.4088C27.7624 19.4459 29.47 19.5903 30.7898 18.7631L35.069 16.0808C35.7709 15.6408 35.9833 14.7151 35.5433 14.0132C35.1033 13.3112 34.1776 13.0989 33.4757 13.5389L29.1965 16.2212C29.0079 16.3394 28.764 16.3187 28.598 16.1706L26.5515 14.3441C25.3781 13.2968 23.6502 13.1609 22.3274 14.0118L17.3436 17.2179C17.0552 16.2302 16.9001 15.1843 16.9001 14.1Z" fill="#3D75E4"/>
    <path d="M38.2427 26.7052C37.5276 27.1235 37.287 28.0422 37.7052 28.7573L53.2052 55.2573C53.6235 55.9724 54.5422 56.213 55.2573 55.7948C55.9724 55.3765 56.213 54.4578 55.7948 53.7427L40.2948 27.2427C39.8765 26.5276 38.9578 26.287 38.2427 26.7052Z" fill="#3D75E4"/>
    <path d="M28 29.5C28.8284 29.5 29.5 30.1716 29.5 31V35C29.5 35.8284 28.8284 36.5 28 36.5C27.1716 36.5 26.5 35.8284 26.5 35V31C26.5 30.1716 27.1716 29.5 28 29.5Z" fill="#3D75E4"/>
    <path d="M29.5 40.5C29.5 39.6716 28.8284 39 28 39C27.1716 39 26.5 39.6716 26.5 40.5V45C26.5 45.8284 27.1716 46.5 28 46.5C28.8284 46.5 29.5 45.8284 29.5 45V40.5Z" fill="#3D75E4"/>
    <path d="M28 49C28.8284 49 29.5 49.6716 29.5 50.5V54.5C29.5 55.3284 28.8284 56 28 56C27.1716 56 26.5 55.3284 26.5 54.5V50.5C26.5 49.6716 27.1716 49 28 49Z" fill="#3D75E4"/>
</svg>
