<svg width="56" height="56" viewBox="0 0 56 56" fill="none" xmlns="http://www.w3.org/2000/svg">
    <path d="M3.00024 22.5C3.00024 11.7304 11.7307 3 22.5002 3C33.2698 3 42.0002 11.7304 42.0002 22.5C42.0002 26.4822 40.8082 30.1815 38.7617 33.2659C38.3037 33.9562 38.492 34.8871 39.1823 35.3451C39.8726 35.8031 40.8035 35.6148 41.2615 34.9245C43.6241 31.3636 45.0002 27.0902 45.0002 22.5C45.0002 10.0736 34.9267 0 22.5002 0C10.0738 0 0.000244141 10.0736 0.000244141 22.5C0.000244141 34.9264 10.0738 45 22.5002 45C27.9424 45 32.9368 43.066 36.8279 39.8492C37.1525 39.5808 37.5322 39.65 37.7048 39.8226L39.2251 41.3428C39.9516 42.0694 40.8591 42.3141 41.5981 42.3957C42.2943 42.4725 43.0097 42.4197 43.5261 42.3816L43.5898 42.3769C43.9599 42.3498 44.3331 42.4769 44.6132 42.757L52.6097 50.7535C53.1213 51.2651 53.1213 52.0945 52.6097 52.6061C52.0981 53.1177 51.2687 53.1177 50.7571 52.6061L42.7606 44.6096C42.6297 44.4787 42.5342 44.3301 42.4711 44.173C42.1624 43.4043 41.2889 43.0314 40.5202 43.3401C39.7514 43.6488 39.3785 44.5223 39.6872 45.2911C39.8985 45.817 40.2169 46.3085 40.6393 46.7309L48.6358 54.7274C50.3189 56.4106 53.0479 56.4106 54.731 54.7274C56.4142 53.0443 56.4142 50.3153 54.731 48.6322L46.7345 40.6357C45.812 39.7132 44.573 39.2967 43.3703 39.3849C42.7889 39.4276 42.3284 39.4581 41.9272 39.4138C41.5398 39.371 41.4009 39.276 41.3464 39.2215L39.8262 37.7013C38.4366 36.3117 36.2944 36.3978 34.9163 37.537C31.5432 40.3256 27.2193 42 22.5002 42C11.7307 42 3.00024 33.2696 3.00024 22.5Z" fill="#3D75E4"/>
    <path d="M8.75244 22.5C8.75244 14.9074 14.9075 8.75232 22.5001 8.75232C23.3286 8.75232 24.0001 8.08075 24.0001 7.25232C24.0001 6.42389 23.3286 5.75232 22.5001 5.75232C13.2506 5.75232 5.75244 13.2505 5.75244 22.5C5.75244 23.3284 6.42401 24 7.25244 24C8.08087 24 8.75244 23.3284 8.75244 22.5Z" fill="#3D75E4"/>
</svg>
