<svg width="56" height="57" viewBox="0 0 56 57" fill="none" xmlns="http://www.w3.org/2000/svg">
<path d="M3 28.3319C3 14.5248 14.1929 3.33191 28 3.33191C41.8071 3.33191 53 14.5248 53 28.3319C53 33.9628 51.1402 39.1549 48.0008 43.3335C47.5032 43.9958 47.6367 44.9361 48.299 45.4337C48.9613 45.9314 49.9016 45.7978 50.3992 45.1355C53.9156 40.4552 56 34.6348 56 28.3319C56 12.8679 43.464 0.331909 28 0.331909C12.536 0.331909 0 12.8679 0 28.3319C0 43.7959 12.536 56.3319 28 56.3319C34.3017 56.3319 40.121 54.2484 44.8009 50.7332C45.4633 50.2357 45.5969 49.2954 45.0993 48.633C44.6018 47.9706 43.6615 47.837 42.9991 48.3345C38.821 51.4728 33.6298 53.3319 28 53.3319C14.1929 53.3319 3 42.139 3 28.3319Z" fill="#3D75E4"/>
<path d="M28 37.3319C27.1716 37.3319 26.5 36.6603 26.5 35.8319V12.3319C26.5 11.5035 27.1716 10.8319 28 10.8319C28.8284 10.8319 29.5 11.5035 29.5 12.3319V35.8319C29.5 36.6603 28.8284 37.3319 28 37.3319Z" fill="#3D75E4"/>
<path d="M26 42.3319C26 41.2273 26.8954 40.3319 28 40.3319C29.1046 40.3319 30 41.2273 30 42.3319C30 43.4365 29.1046 44.3319 28 44.3319C26.8954 44.3319 26 43.4365 26 42.3319Z" fill="#3D75E4"/>
</svg>
