<svg width="40" height="40" viewBox="0 0 40 40" fill="none" xmlns="http://www.w3.org/2000/svg">
<path fill-rule="evenodd" clip-rule="evenodd" d="M7.5 1C7.5 0.447715 7.94772 0 8.5 0H9C10.3267 0 11.417 0.849553 11.8531 2H26C26.5523 2 27 2.44772 27 3C27 3.55228 26.5523 4 26 4H12.1269C12.6088 9.65825 14.49 15.3484 18.2512 19.7714C18.7158 20.3178 19 21.0212 19 21.7732V23H21V21.7732C21 21.0212 21.2842 20.3178 21.7488 19.7714C25.744 15.0731 27.618 8.9451 27.9469 2.94428C28.0345 1.34625 29.3299 0 31 0H31.5C32.0523 0 32.5 0.447715 32.5 1C32.5 1.55228 32.0523 2 31.5 2H31C30.4609 2 29.9772 2.44592 29.9439 3.05372C29.6665 8.11496 28.3416 13.351 25.5858 17.8642C28.2324 17.4051 30.4196 15.8291 32.0411 13.8636C33.6522 11.9108 34.6155 9.68059 34.9061 8H31.5C30.9477 8 30.5 7.55228 30.5 7C30.5 6.44772 30.9477 6 31.5 6H36C36.5523 6 37 6.44772 37 7C37 9.29174 35.7513 12.5092 33.5839 15.1364C31.417 17.7629 28.2031 19.9534 24.1305 19.9993C23.8554 20.3617 23.5694 20.7178 23.2724 21.067C23.0924 21.2787 23 21.5302 23 21.7732V23.1707C24.1652 23.5825 25 24.6938 25 26V27H26C27.6569 27 29 28.3431 29 30V36C29 36.5523 28.5523 37 28 37C27.4477 37 27 36.5523 27 36V30C27 29.4477 26.5523 29 26 29H14C13.4477 29 13 29.4477 13 30V36C13 36.5523 12.5523 37 12 37C11.4477 37 11 36.5523 11 36V30C11 28.3431 12.3431 27 14 27H15V26C15 24.6938 15.8348 23.5825 17 23.1707V21.7732C17 21.5302 16.9076 21.2787 16.7276 21.067C16.4306 20.7178 16.1446 20.3617 15.8695 19.9993C11.7969 19.9534 8.58298 17.7629 6.41613 15.1364C4.24874 12.5092 3 9.29174 3 7C3 6.44772 3.44771 6 4 6H8.5C9.05228 6 9.5 6.44772 9.5 7C9.5 7.55228 9.05228 8 8.5 8H5.09389C5.38448 9.68059 6.34782 11.9108 7.95887 13.8636C9.58042 15.8291 11.7676 17.4051 14.4142 17.8642C11.6584 13.351 10.3335 8.11496 10.0561 3.05372C10.0228 2.44592 9.53908 2 9 2H8.5C7.94772 2 7.5 1.55228 7.5 1ZM23 26V27H17V26C17 25.4477 17.4477 25 18 25H22C22.5523 25 23 25.4477 23 26Z" fill="#3D75E4"/>
<path d="M16.5 31C15.9477 31 15.5 31.4477 15.5 32C15.5 32.5523 15.9477 33 16.5 33H23.5C24.0523 33 24.5 32.5523 24.5 32C24.5 31.4477 24.0523 31 23.5 31H16.5Z" fill="#3D75E4"/>
<path d="M11 38C10.4477 38 10 38.4477 10 39C10 39.5523 10.4477 40 11 40H29C29.5523 40 30 39.5523 30 39C30 38.4477 29.5523 38 29 38H11Z" fill="#3D75E4"/>
<path d="M17.5 35C17.5 34.4477 17.9477 34 18.5 34H21.5C22.0523 34 22.5 34.4477 22.5 35C22.5 35.5523 22.0523 36 21.5 36H18.5C17.9477 36 17.5 35.5523 17.5 35Z" fill="#3D75E4"/>
<path d="M16 7C16 6.44772 15.5523 6 15 6C14.4477 6 14 6.44772 14 7C14 8.6241 14.5554 10.6096 15.3362 12.3664C16.1125 14.113 17.1907 15.8117 18.3668 16.774C18.7942 17.1237 19.4242 17.0607 19.774 16.6332C20.1237 16.2058 20.0607 15.5758 19.6332 15.226C18.8093 14.5519 17.8875 13.1824 17.1638 11.5541C16.4446 9.93588 16 8.23953 16 7Z" fill="#3D75E4"/>
</svg>
