<svg width="40" height="40" viewBox="0 0 40 40" fill="none" xmlns="http://www.w3.org/2000/svg">
<g clip-path="url(#clip0)">
<path fill-rule="evenodd" clip-rule="evenodd" d="M17.1051 2.21009C17.4518 0.936468 18.6165 0 20 0C21.3835 0 22.5482 0.936469 22.8949 2.21009C23.2369 2.07452 23.6098 2 24 2C25.6569 2 27 3.34315 27 5V5.17071C27.3128 5.06015 27.6494 5 28 5C29.6569 5 31 6.34315 31 8V25C31 28.9899 28.4043 32.371 24.8122 33.5516C24.2876 33.7241 23.7225 33.4385 23.55 32.9139C23.3775 32.3892 23.6631 31.8241 24.1878 31.6516C26.9835 30.7327 29 28.1005 29 25V8C29 7.44772 28.5523 7 28 7C27.4477 7 27 7.44772 27 8V18C27 18.5523 26.5523 19 26 19C25.4477 19 25 18.5523 25 18V5C25 4.44772 24.5523 4 24 4C23.4477 4 23 4.44772 23 5V16C23 16.5523 22.5523 17 22 17C21.4477 17 21 16.5523 21 16V3C21 2.44772 20.5523 2 20 2C19.4477 2 19 2.44772 19 3V16C19 16.5523 18.5523 17 18 17C17.4477 17 17 16.5523 17 16V5C17 4.44772 16.5523 4 16 4C15.4477 4 15 4.44772 15 5V10C15 10.5523 14.5523 11 14 11C13.4477 11 13 10.5523 13 10V5C13 3.34315 14.3431 2 16 2C16.3902 2 16.7631 2.07451 17.1051 2.21009ZM9 13C9 11.8954 9.89543 11 11 11C13.2091 11 15 12.7909 15 15V19.5C15 19.7362 15.2204 20.0757 15.6982 20.1778C18.5629 20.7898 21 23.0111 21 26.4286V26.5C21 27.0523 20.5523 27.5 20 27.5C19.4477 27.5 19 27.0523 19 26.5V26.4286C19 24.1469 17.4244 22.5917 15.2804 22.1337C14.138 21.8896 13 20.9207 13 19.5V15C13 13.8954 12.1046 13 11 13V25C11 27.7588 12.5966 30.1462 14.9165 31.2863C14.9309 31.2929 14.945 31.2998 14.959 31.3071C15.4997 31.5683 16.0792 31.7619 16.6864 31.8771C17.229 31.9801 17.5854 32.5034 17.4825 33.046C17.3795 33.5886 16.8562 33.945 16.3136 33.8421C16.0025 33.7831 15.6971 33.708 15.3982 33.6179L14.9973 39.0733C14.9568 39.6241 14.4775 40.0378 13.9267 39.9973C13.3759 39.9568 12.9622 39.4775 13.0027 38.9267L13.3182 34.6328C13.402 33.4922 12.7991 32.4338 11.9523 31.6651C10.1387 30.0189 9 27.6428 9 25V13ZM26.3896 33.5061C26.9385 33.4451 27.4329 33.8407 27.4939 34.3896L27.9939 38.8896C28.0549 39.4385 27.6593 39.9329 27.1104 39.9939C26.5615 40.0549 26.0671 39.6593 26.0061 39.1104L25.5061 34.6104C25.4451 34.0615 25.8407 33.5671 26.3896 33.5061Z" fill="#3D75E4"/>
</g>
<defs>
<clipPath id="clip0">
<rect width="40" height="40" fill="white"/>
</clipPath>
</defs>
</svg>
