<svg width="40" height="40" viewBox="0 0 40 40" fill="none" xmlns="http://www.w3.org/2000/svg">
<g clip-path="url(#clip0)">
<path d="M20 2C10.0588 2 2 10.0589 2 20C2 29.9411 10.0588 38 20 38C29.9412 38 38 29.9411 38 20C38 16.5224 37.0148 13.278 35.3087 10.527C35.0177 10.0577 35.1621 9.44122 35.6315 9.15015C36.1008 8.85907 36.7173 9.0036 37.0084 9.47296C38.9052 12.5312 40 16.1393 40 20C40 31.0457 31.0457 40 20 40C8.95435 40 0 31.0457 0 20C0 8.95428 8.95435 0 20 0C23.8607 0 27.4688 1.09491 30.5271 2.99158C30.9965 3.28265 31.1409 3.89911 30.8499 4.36847C30.5587 4.83783 29.9423 4.98236 29.4729 4.69128C26.722 2.98523 23.4777 2 20 2Z" fill="#3D75E4"/>
<path d="M8 20C8 13.3726 13.3726 8 20 8C22.9542 8 25.6576 9.06641 27.7489 10.8369L24.9056 13.6802C23.5514 12.6277 21.8483 12 20 12C15.5817 12 12 15.5817 12 20C12 24.4183 15.5817 28 20 28C24.4183 28 28 24.4183 28 20C28 19.2074 27.8844 18.4401 27.6686 17.7147C27.511 17.1854 26.9542 16.884 26.4249 17.0416C25.8955 17.1991 25.5941 17.7559 25.7517 18.2853C25.913 18.8274 26 19.4026 26 20C26 23.3137 23.3137 26 20 26C16.6863 26 14 23.3137 14 20C14 16.6863 16.6863 14 20 14C21.2963 14 22.4955 14.4103 23.4766 15.1092L20.5181 18.0677C20.3529 18.0236 20.1792 18 20 18C18.8954 18 18 18.8954 18 20C18 21.1046 18.8954 22 20 22C21.1046 22 22 21.1046 22 20C22 19.8209 21.9764 19.6473 21.9323 19.4821L33.7072 7.70715C33.8947 7.51959 34 7.26526 34 7V4.24268C34 3.72302 34.2023 3.22424 34.5631 2.8515L35.0513 4.31622C35.1509 4.61487 35.3851 4.84918 35.6837 4.94873L37.1488 5.43701L37 5.58582C36.7347 5.85101 36.3751 6 36 6C35.4478 6 35 6.44769 35 7C35 7.55231 35.4478 8 36 8C36.9055 8 37.7739 7.64032 38.4142 7L39.7072 5.70715C39.9521 5.46204 40.0529 5.10754 39.9733 4.77026C39.8937 4.43298 39.645 4.16095 39.3163 4.05133L36.7905 3.20947L35.9487 0.683777C35.8391 0.35498 35.567 0.106384 35.2297 0.0267944C34.8925 -0.0528564 34.538 0.0478516 34.2928 0.292908L33.1716 1.41425C32.4214 2.16437 32 3.18182 32 4.24268V6.58582L29.1672 9.41858C26.7118 7.28961 23.5055 6 20 6C12.2681 6 6 12.268 6 20C6 27.732 12.2681 34 20 34C27.7319 34 34 27.732 34 20C34 17.671 33.4305 15.4722 32.4224 13.5378C32.1671 13.048 31.5631 12.858 31.0734 13.1132C30.5836 13.3685 30.3936 13.9724 30.6488 14.4622C31.5117 16.1179 32 18.0004 32 20C32 26.6274 26.6274 32 20 32C13.3726 32 8 26.6274 8 20Z" fill="#3D75E4"/>
</g>
<defs>
<clipPath id="clip0">
<rect width="40" height="40" fill="white"/>
</clipPath>
</defs>
</svg>
