<svg width="40" height="40" viewBox="0 0 40 40" fill="none" xmlns="http://www.w3.org/2000/svg">
<g clip-path="url(#clip0)">
<path d="M6.75012 4C6.75012 2.89543 7.64555 2 8.75012 2H12.043C12.2306 2 12.4104 2.0745 12.543 2.20711C13.0507 2.71479 13.7393 3 14.4572 3H21.043C21.761 3 22.4495 2.71479 22.9572 2.20711C23.0898 2.0745 23.2697 2 23.4572 2H26.7501C27.8547 2 28.7501 2.89543 28.7501 4V21.6684L24.722 18.28C23.2996 17.0835 21.1984 17.174 19.8841 18.4883C18.4855 19.8869 18.4855 22.1545 19.8841 23.5531L22.1801 25.8491C22.5552 26.2242 22.7659 26.7329 22.7659 27.2633V29.7229C22.7659 30.8271 23.2223 31.8821 24.027 32.6381L27.3166 35.7288C27.7191 36.107 28.3519 36.0872 28.7301 35.6847C29.1083 35.2822 29.0885 34.6494 28.686 34.2712L25.3964 31.1805C24.9941 30.8025 24.7659 30.275 24.7659 29.7229V27.2633C24.7659 26.2025 24.3445 25.1851 23.5943 24.4349L21.2983 22.1389C20.6807 21.5214 20.6808 20.5201 21.2983 19.9025C21.8787 19.3221 22.8065 19.2822 23.4346 19.8105L29.1064 24.5815C29.404 24.8318 29.8197 24.887 30.1722 24.7228C30.5247 24.5587 30.7501 24.2051 30.7501 23.8163V4C30.7501 1.79086 28.9593 0 26.7501 0H8.75012C6.54098 0 4.75012 1.79086 4.75012 4V32C4.75012 34.2091 6.54098 36 8.75012 36H20.1322L21.8558 39.4472C22.1028 39.9412 22.7034 40.1414 23.1974 39.8944C23.6914 39.6474 23.8916 39.0468 23.6446 38.5528L22.3682 36H23.7659C24.3182 36 24.7659 35.5523 24.7659 35C24.7659 34.4477 24.3182 34 23.7659 34H20.7699C20.7563 33.9997 20.7426 33.9997 20.729 34H8.75012C7.64555 34 6.75012 33.1046 6.75012 32V4Z" fill="#3D75E4"/>
<path fill-rule="evenodd" clip-rule="evenodd" d="M14.7501 30C14.7501 28.3431 16.0933 27 17.7501 27C19.407 27 20.7501 28.3431 20.7501 30C20.7501 31.6569 19.407 33 17.7501 33C16.0933 33 14.7501 31.6569 14.7501 30ZM17.7501 29C17.1978 29 16.7501 29.4477 16.7501 30C16.7501 30.5523 17.1978 31 17.7501 31C18.3024 31 18.7501 30.5523 18.7501 30C18.7501 29.4477 18.3024 29 17.7501 29Z" fill="#3D75E4"/>
<path d="M33.6552 21.6535C33.4029 21.1622 32.8001 20.9685 32.3088 21.2208C31.8176 21.4732 31.6239 22.076 31.8762 22.5672L33.1394 25.0266C33.212 25.1679 33.2499 25.3246 33.2499 25.4835V38.9999C33.2499 39.5521 33.6976 39.9999 34.2499 39.9999C34.8022 39.9999 35.2499 39.5521 35.2499 38.9999V25.4835C35.2499 25.0067 35.1363 24.5369 34.9184 24.1128L33.6552 21.6535Z" fill="#3D75E4"/>
<path fill-rule="evenodd" clip-rule="evenodd" d="M12.0394 8.98657C10.9349 8.98657 10.0394 9.882 10.0394 10.9866V14.1973C10.0394 15.3019 10.9349 16.1973 12.0394 16.1973H15.2502C16.3547 16.1973 17.2502 15.3019 17.2502 14.1973V10.9866C17.2502 9.882 16.3547 8.98657 15.2502 8.98657H12.0394ZM12.0394 10.9866H15.2502V14.1973H12.0394V10.9866Z" fill="#3D75E4"/>
<path fill-rule="evenodd" clip-rule="evenodd" d="M10.0394 19.1973C10.0394 18.0928 10.9349 17.1973 12.0394 17.1973H15.2502C16.3547 17.1973 17.2502 18.0928 17.2502 19.1973V22.4081C17.2502 23.5126 16.3547 24.4081 15.2502 24.4081H12.0394C10.9349 24.4081 10.0394 23.5126 10.0394 22.4081V19.1973ZM15.2502 19.1973H12.0394V22.4081H15.2502V19.1973Z" fill="#3D75E4"/>
<path fill-rule="evenodd" clip-rule="evenodd" d="M21.4962 8.66172C20.4504 8.30613 19.3144 8.86563 18.9588 9.9114L17.9252 12.9512C17.5696 13.997 18.1291 15.133 19.1749 15.4886L22.2147 16.5222C23.2605 16.8778 24.3965 16.3183 24.7521 15.2725L25.7857 12.2327C26.1413 11.1869 25.5818 10.0509 24.536 9.69533L21.4962 8.66172ZM20.8523 10.5552L23.8922 11.5889L22.8585 14.6287L19.8187 13.5951L20.8523 10.5552Z" fill="#3D75E4"/>
</g>
<defs>
<clipPath id="clip0">
<rect width="40" height="40" fill="white"/>
</clipPath>
</defs>
</svg>
