<svg width="40" height="40" viewBox="0 0 40 40" fill="none" xmlns="http://www.w3.org/2000/svg">
<g clip-path="url(#clip0)">
<path fill-rule="evenodd" clip-rule="evenodd" d="M20 11.4075C17.4636 11.4075 15.4075 13.4636 15.4075 16C15.4075 18.5364 17.4636 20.5926 20 20.5926C22.5364 20.5926 24.5926 18.5364 24.5926 16C24.5926 13.4636 22.5364 11.4075 20 11.4075ZM17.4075 16C17.4075 14.5682 18.5682 13.4075 20 13.4075C21.4319 13.4075 22.5926 14.5682 22.5926 16C22.5926 17.4319 21.4319 18.5926 20 18.5926C18.5682 18.5926 17.4075 17.4319 17.4075 16Z" fill="#3D75E4"/>
<path fill-rule="evenodd" clip-rule="evenodd" d="M19.088 5.25543C18.1882 5.25543 17.3991 5.85632 17.1599 6.72375L16.9326 7.54811C15.9979 7.90814 15.1382 8.42451 14.3859 9.06155L13.622 8.86317C12.7428 8.63485 11.8202 9.02771 11.3754 9.81975L10.4378 11.4896C10.0107 12.2502 10.1259 13.2 10.7224 13.8365L11.3206 14.4747C11.2368 14.9668 11.1895 15.4785 11.1895 15.9999C11.1895 16.5214 11.2368 17.0331 11.3206 17.5252L10.7224 18.1634C10.1259 18.7999 10.0107 19.7497 10.4378 20.5103L11.3754 22.1802C11.8202 22.9722 12.7428 23.365 13.622 23.1367L14.3859 22.9383C15.1382 23.5754 15.9979 24.0918 16.9326 24.4518L17.1599 25.2761C17.3991 26.1436 18.1882 26.7445 19.088 26.7445H20.9122C21.812 26.7445 22.601 26.1436 22.8402 25.2761L23.0676 24.4518C24.0022 24.0918 24.862 23.5754 25.6142 22.9383L26.3782 23.1367C27.2574 23.365 28.18 22.9722 28.6247 22.1801L29.5624 20.5103C29.9895 19.7497 29.8743 18.7999 29.2777 18.1634L28.6796 17.5252C28.7634 17.0331 28.8106 16.5214 28.8106 15.9999C28.8106 15.4785 28.7634 14.9668 28.6796 14.4747L29.2777 13.8365C29.8743 13.2 29.9895 12.2502 29.5624 11.4896L28.6247 9.81975C28.18 9.02771 27.2574 8.63485 26.3782 8.86317L25.6142 9.06155C24.862 8.42451 24.0022 7.90814 23.0676 7.54811L22.8402 6.72375C22.601 5.85632 21.812 5.25543 20.9122 5.25543H19.088ZM19.088 7.25543H20.9122L21.2788 8.58482C21.3691 8.91243 21.6197 9.17174 21.944 9.27329C22.9625 9.59221 23.8888 10.152 24.6516 10.8855C24.9021 11.1264 25.2597 11.2199 25.5961 11.1326L26.8809 10.799L27.8185 12.4688L26.869 13.4818C26.6415 13.7246 26.5496 14.0646 26.6239 14.3889C26.7426 14.9072 26.8106 15.4513 26.8106 15.9999C26.8106 16.5486 26.7426 17.0927 26.6239 17.611C26.5496 17.9353 26.6415 18.2753 26.869 18.5181L27.8185 19.5311L26.8809 21.2009L25.5961 20.8673C25.2597 20.7799 24.9021 20.8735 24.6516 21.1144C23.8888 21.8479 22.9625 22.4077 21.944 22.7266C21.6197 22.8282 21.3691 23.0875 21.2788 23.4151L20.9122 24.7445H19.088L18.7214 23.4151C18.631 23.0875 18.3805 22.8282 18.0562 22.7266C17.0376 22.4077 16.1114 21.8479 15.3486 21.1144C15.0981 20.8735 14.7405 20.7799 14.4041 20.8673L13.1193 21.2009L12.1817 19.5311L13.1312 18.5181C13.3587 18.2753 13.4506 17.9353 13.3763 17.611C13.2576 17.0927 13.1895 16.5486 13.1895 15.9999C13.1895 15.4513 13.2576 14.9072 13.3763 14.3889C13.4506 14.0646 13.3587 13.7246 13.1312 13.4818L12.1817 12.4688L13.1193 10.799L14.4041 11.1326C14.7405 11.2199 15.0981 11.1264 15.3486 10.8855C16.1114 10.152 17.0376 9.59221 18.0562 9.27329C18.3805 9.17174 18.631 8.91243 18.7214 8.58482L19.088 7.25543Z" fill="#3D75E4"/>
<path d="M31 26C30.4477 26 30 26.4477 30 27C30 27.5523 30.4477 28 31 28H35C35.5523 28 36 27.5523 36 27C36 26.4477 35.5523 26 35 26H31Z" fill="#3D75E4"/>
<path d="M28 28C28.5523 28 29 27.5523 29 27C29 26.4477 28.5523 26 28 26C27.4477 26 27 26.4477 27 27C27 27.5523 27.4477 28 28 28Z" fill="#3D75E4"/>
<path fill-rule="evenodd" clip-rule="evenodd" d="M0 3C0 1.34315 1.34315 0 3 0H37C38.6569 0 40 1.34315 40 3V29C40 30.6569 38.6569 32 37 32H3C1.34314 32 0 30.6569 0 29V3ZM3 2C2.44772 2 2 2.44772 2 3V29C2 29.5523 2.44771 30 3 30H37C37.5523 30 38 29.5523 38 29V3C38 2.44771 37.5523 2 37 2H3Z" fill="#3D75E4"/>
<path d="M11 39C11 38.4477 11.4477 38 12 38H14.256L15.5422 33.7127C15.7009 33.1837 16.2584 32.8835 16.7874 33.0422C17.3164 33.2009 17.6165 33.7584 17.4578 34.2874L16.3441 38H23.656L22.5422 34.2873C22.3835 33.7583 22.6837 33.2009 23.2127 33.0422C23.7417 32.8835 24.2991 33.1836 24.4578 33.7126L25.7441 38H28C28.5523 38 29 38.4477 29 39C29 39.5523 28.5523 40 28 40H25.0219C25.007 40.0003 24.9922 40.0003 24.9773 40H15.0237C15.0082 40.0004 14.9927 40.0004 14.9771 40H12C11.4477 40 11 39.5523 11 39Z" fill="#3D75E4"/>
</g>
<defs>
<clipPath id="clip0">
<rect width="40" height="40" fill="white"/>
</clipPath>
</defs>
</svg>
