<svg width="40" height="40" viewBox="0 0 40 40" fill="none" xmlns="http://www.w3.org/2000/svg">
<path fill-rule="evenodd" clip-rule="evenodd" d="M20.0006 0C20.2974 0 20.5789 0.131823 20.7689 0.359816L30.7689 12.3598C30.9134 12.5332 31 12.7566 31 13V16H35C36.1046 16 37 16.8954 37 18V22.7674C37 23.0734 36.9298 23.3754 36.7947 23.65L34 29.3326V38C34 39.1046 33.1046 40 32 40H24C23.4477 40 23 39.5523 23 39V35.1429C23 34.4305 22.6454 33.3399 22.0065 32.4178C21.3515 31.4725 20.6132 31 20 31C19.3624 31 18.6251 31.4527 17.9869 32.3515C17.3613 33.2327 17 34.3201 17 35.1428V38.9997C17 39.552 16.5523 40 16 40H8C6.89543 40 6 39.1046 6 38V29.3326L3.2053 23.65C3.07024 23.3754 3 23.0734 3 22.7674V18C3 16.8954 3.89543 16 5 16H9V13C9 12.745 9.09542 12.5124 9.2525 12.3357L19.2324 0.359816C19.4224 0.131823 19.7039 0 20.0006 0ZM11 16H25C25.5523 16 26 16.4477 26 17V19C26 19.5523 25.5523 20 25 20C24.4477 20 24 19.5523 24 19V18H21V19C21 19.5523 20.5523 20 20 20C19.4477 20 19 19.5523 19 19V18H16V19C16 19.5523 15.5523 20 15 20C14.4477 20 14 19.5523 14 19V18H11V19C11 19.5523 10.5523 20 10 20C9.44772 20 9 19.5523 9 19V18H5V22.7674L7.7947 28.45C7.92976 28.7246 8 29.0266 8 29.3326V35H13C13.5523 35 14 35.4477 14 36C14 36.5523 13.5523 37 13 37H8V38H15V35.1429C15 33.8354 15.5341 32.3514 16.3562 31.1936C17.1657 30.0536 18.4284 29 20 29C21.5959 29 22.8576 30.1346 23.6504 31.2787C24.4277 32.4005 24.9576 33.8121 24.9976 35H30C30.5523 35 31 35.4477 31 36C31 36.5523 30.5523 37 30 37H25V38H32V29.3326C32 29.0266 32.0702 28.7246 32.2053 28.45L35 22.7674V18H31V19C31 19.5523 30.5523 20 30 20C29.4477 20 29 19.5523 29 19V14H11V16ZM20.0006 2.56205L27.8656 12H23V9C23 8.44771 22.5523 8 22 8C21.4477 8 21 8.44771 21 9V12H19V9C19 8.44771 18.5523 8 18 8C17.4477 8 17 8.44771 17 9V12H12.1357L20.0006 2.56205ZM10 23C10.5523 23 11 23.4477 11 24V27C11 27.5523 10.5523 28 10 28C9.44772 28 9 27.5523 9 27V24C9 23.4477 9.44772 23 10 23ZM15 23C15.5523 23 16 23.4477 16 24V27C16 27.5523 15.5523 28 15 28C14.4477 28 14 27.5523 14 27V24C14 23.4477 14.4477 23 15 23ZM21 24C21 23.4477 20.5523 23 20 23C19.4477 23 19 23.4477 19 24V27C19 27.5523 19.4477 28 20 28C20.5523 28 21 27.5523 21 27V24ZM25 23C25.5523 23 26 23.4477 26 24V27C26 27.5523 25.5523 28 25 28C24.4477 28 24 27.5523 24 27V24C24 23.4477 24.4477 23 25 23ZM31 24C31 23.4477 30.5523 23 30 23C29.4477 23 29 23.4477 29 24V27C29 27.5523 29.4477 28 30 28C30.5523 28 31 27.5523 31 27V24Z" fill="#3D75E4"/>
</svg>
