<svg width="40" height="40" viewBox="0 0 40 40" fill="none" xmlns="http://www.w3.org/2000/svg">
<path fill-rule="evenodd" clip-rule="evenodd" d="M6.7121 4.28893C6.0242 4.72263 6 4.9881 6 5C6 5.0119 6.0242 5.27737 6.7121 5.71107C7.34997 6.11323 8.33942 6.51242 9.65106 6.86219C12.2597 7.55783 15.919 8 20 8C24.8452 8 29.0765 7.37692 31.6655 6.45799C32.186 6.27326 32.7577 6.54543 32.9424 7.0659C33.1271 7.58638 32.855 8.15806 32.3345 8.34279C29.4502 9.36653 24.9684 10 20 10C15.7967 10 11.956 9.54674 9.13574 8.79466C7.73291 8.42058 6.52566 7.95784 5.64545 7.40289C4.81527 6.87948 4 6.09267 4 5C4 3.90733 4.81527 3.12051 5.64545 2.59711C6.52566 2.04216 7.73291 1.57942 9.13574 1.20534C11.956 0.453262 15.7967 0 20 0C24.2033 0 28.044 0.453262 30.8643 1.20534C32.2671 1.57942 33.4743 2.04216 34.3545 2.59711C35.1847 3.12051 36 3.90733 36 5V34C36 35.0497 35.2366 35.8985 34.4232 36.5116C33.5556 37.1657 32.3561 37.7629 30.9442 38.2694C28.1107 39.2858 24.2452 39.9993 20 39.9993C15.7548 39.9993 11.8893 39.2858 9.05576 38.2694C7.64388 37.7629 6.4444 37.1657 5.57678 36.5116C4.76345 35.8985 4 35.0497 4 34V9.17793C4 8.62564 4.44772 8.17793 5 8.17793C5.55228 8.17793 6 8.62564 6 9.17793V12.3327C6 12.3501 6.03956 12.6552 6.85674 13.1314C7.60528 13.5676 8.75214 13.9892 10.2459 14.3448C10.7832 14.4727 11.1151 15.0119 10.9872 15.5492C10.8593 16.0865 10.32 16.4183 9.78277 16.2904C8.27816 15.9322 6.9749 15.4831 6 14.9446V19.8882C6.00005 19.8983 6.004 20.0098 6.22324 20.2252C6.45091 20.4489 6.83763 20.7084 7.41738 20.9764C7.9187 21.2081 8.13723 21.8024 7.9055 22.3037C7.67376 22.805 7.0795 23.0236 6.57819 22.7918C6.37821 22.6994 6.18484 22.6023 6 22.5002V27.4438C6 27.4503 6.00849 27.6588 6.51736 28.0241C7.00025 28.3708 7.76649 28.7303 8.81469 29.0628C9.34112 29.2299 9.63248 29.792 9.46547 30.3184C9.29846 30.8449 8.73631 31.1362 8.20989 30.9692C7.37755 30.7051 6.62669 30.4019 6 30.0557V34C6 34.0549 6.07602 34.3833 6.78077 34.9146C7.43123 35.405 8.42845 35.9196 9.73104 36.3868C12.3264 37.3178 15.9609 37.9993 20 37.9993C24.0391 37.9993 27.6736 37.3178 30.269 36.3868C31.5716 35.9196 32.5688 35.405 33.2192 34.9146C33.924 34.3833 34 34.0549 34 34V30.0557C33.3733 30.4019 32.6225 30.7051 31.7901 30.9692C31.2637 31.1362 30.7015 30.8449 30.5345 30.3184C30.3675 29.792 30.6589 29.2299 31.1853 29.0628C32.2335 28.7303 32.9998 28.3708 33.4826 28.0241C33.9915 27.6588 34 27.4503 34 27.4438V22.5002C33.8152 22.6023 33.6218 22.6994 33.4218 22.7918C32.9205 23.0236 32.3262 22.805 32.0945 22.3037C31.8628 21.8024 32.0813 21.2081 32.5826 20.9764C33.1624 20.7084 33.5491 20.4489 33.7768 20.2252C33.9965 20.0093 34 19.8984 34 19.8888V14.9446C33.0251 15.4831 31.7218 15.9322 30.2172 16.2904C29.68 16.4183 29.1407 16.0865 29.0128 15.5492C28.8849 15.0119 29.2168 14.4727 29.7541 14.3448C31.2479 13.9892 32.3947 13.5676 33.1433 13.1314C33.9604 12.6552 34 12.3501 34 12.3327V5C34 4.9881 33.9758 4.72263 33.2879 4.28893C32.65 3.88677 31.6606 3.48758 30.3489 3.13781C27.7403 2.44217 24.081 2 20 2C15.919 2 12.2597 2.44217 9.65106 3.13781C8.33942 3.48758 7.34997 3.88677 6.7121 4.28893Z" fill="#3D75E4"/>
<path fill-rule="evenodd" clip-rule="evenodd" d="M20 15C15.0294 15 11 19.0294 11 24C11 28.9706 15.0294 33 20 33C24.9706 33 29 28.9706 29 24C29 19.0294 24.9706 15 20 15ZM9 24C9 17.9249 13.9249 13 20 13C26.0751 13 31 17.9249 31 24C31 30.0751 26.0751 35 20 35C13.9249 35 9 30.0751 9 24Z" fill="#3D75E4"/>
<path fill-rule="evenodd" clip-rule="evenodd" d="M17.6609 22.3929C18.1145 21.3903 19.0428 21.1304 19.6612 21.065C19.9252 21.0371 20.2345 21.0479 20.5389 21.1729C20.866 21.3073 21.1108 21.5424 21.2654 21.8278C21.5294 22.3149 21.4949 22.8867 21.452 23.2625C21.2745 24.8158 20.8524 26.3787 20.5123 27.9067C20.4336 28.2601 20.3697 28.557 20.3265 28.8077C20.5871 28.3875 21.1253 28.2155 21.588 28.4249C22.0911 28.6525 22.3145 29.245 22.0868 29.7482C21.6332 30.7508 20.7049 31.0107 20.0865 31.0761C19.8226 31.104 19.5132 31.0931 19.2089 30.9681C18.8817 30.8338 18.6369 30.5986 18.4823 30.3133C18.2183 29.8262 18.2528 29.2544 18.2957 28.8786C18.4753 27.307 18.8925 25.7751 19.2354 24.2344C19.3141 23.881 19.378 23.584 19.4212 23.3333C19.1606 23.7536 18.6224 23.9256 18.1598 23.7162C17.6566 23.4886 17.4332 22.8961 17.6609 22.3929Z" fill="#3D75E4"/>
<path d="M21.5 18.5C21.5 19.3284 20.8284 20 20 20C19.1716 20 18.5 19.3284 18.5 18.5C18.5 17.6716 19.1716 17 20 17C20.8284 17 21.5 17.6716 21.5 18.5Z" fill="#3D75E4"/>
</svg>
