<svg width="40" height="40" viewBox="0 0 40 40" fill="none" xmlns="http://www.w3.org/2000/svg">
<g clip-path="url(#clip0)">
<path d="M1.0318 39.9998C0.460805 39.9998 0 39.5399 0 38.97V16.1857C0 14.936 0.671165 13.7663 1.74304 13.1165L6.89204 10.0372C7.05232 9.93727 7.23263 9.88728 7.42296 9.88728C7.7836 9.88728 8.11418 10.0772 8.30451 10.3872C8.44476 10.6171 8.48482 10.897 8.42472 11.167C8.3546 11.4369 8.19431 11.6568 7.95389 11.7968L2.8049 14.876C2.34409 15.146 2.06361 15.6558 2.06361 16.1857V37.9403H5.11894V35.141C5.11894 34.5711 5.57975 34.1112 6.15075 34.1112C6.72175 34.1112 7.18255 34.5711 7.18255 35.141V37.9403H10.2379V2.29917C10.2379 1.02949 11.2697 -0.000244141 12.5319 -0.000244141C12.7022 -0.000244141 12.8625 0.0197387 13.0328 0.0497312L29.9123 3.73881C31.5752 4.09872 32.7273 5.53837 32.7273 7.22795V18.5651C32.7273 19.135 32.2665 19.5949 31.6955 19.5949C31.1245 19.5949 30.6637 19.135 30.6637 18.5651V7.22795C30.6637 6.50813 30.1728 5.89827 29.4615 5.73831L12.2815 1.98925V37.9403H15.3368V35.141C15.3368 34.5711 15.7976 34.1112 16.3686 34.1112C16.9396 34.1112 17.4004 34.5711 17.4004 35.141V37.9403H20.4558V35.141C20.4558 34.5711 20.9166 34.1112 21.4876 34.1112C22.0486 34.1112 22.5094 34.5711 22.5094 35.141V37.9403H31.9559V35.141C31.9559 34.5711 32.4167 34.1112 32.9877 34.1112C33.5487 34.1112 34.0095 34.5711 34.0095 35.141V37.9403H37.9464V23.4139H27.6183V34.5011C27.6183 35.071 27.1575 35.5309 26.5865 35.5309C26.0255 35.5309 25.5647 35.071 25.5647 34.5011V23.6638C25.5647 22.3942 26.5965 21.3644 27.8688 21.3644H37.6959C38.9682 21.3644 40 22.3942 40 23.6638V38.96C40 39.5299 39.5392 39.9898 38.9682 39.9898H1.0318V39.9998Z" fill="#3D75E4"/>
<path d="M26.5765 13.2264C26.0155 13.2264 25.5547 12.7666 25.5547 12.1967V8.36766C25.5547 7.7978 26.0155 7.33792 26.5765 7.33792C27.1475 7.33792 27.6083 7.7978 27.6083 8.36766V12.1967C27.5983 12.7666 27.1375 13.2264 26.5765 13.2264Z" fill="#3D75E4"/>
<path d="M21.4676 13.2264C20.8966 13.2264 20.4358 12.7666 20.4358 12.1967V8.36766C20.4358 7.7978 20.8966 7.33792 21.4676 7.33792C22.0285 7.33792 22.4893 7.7978 22.4893 8.36766V12.1967C22.4893 12.7666 22.0285 13.2264 21.4676 13.2264Z" fill="#3D75E4"/>
<path d="M21.4676 22.1442C20.8966 22.1442 20.4358 21.6843 20.4358 21.1145V17.2854C20.4358 16.7156 20.8966 16.2557 21.4676 16.2557C22.0285 16.2557 22.4893 16.7156 22.4893 17.2854V21.1145C22.4893 21.6843 22.0285 22.1442 21.4676 22.1442Z" fill="#3D75E4"/>
<path d="M21.4676 31.072C20.8966 31.072 20.4358 30.6121 20.4358 30.0422V26.2132C20.4358 25.6433 20.8966 25.1835 21.4676 25.1835C22.0285 25.1835 22.4893 25.6433 22.4893 26.2132V30.0422C22.4893 30.6121 22.0285 31.072 21.4676 31.072Z" fill="#3D75E4"/>
<path d="M16.3586 13.2264C15.7876 13.2264 15.3268 12.7666 15.3268 12.1967V8.36766C15.3268 7.7978 15.7876 7.33792 16.3586 7.33792C16.9296 7.33792 17.3904 7.7978 17.3904 8.36766V12.1967C17.3804 12.7666 16.9196 13.2264 16.3586 13.2264Z" fill="#3D75E4"/>
<path d="M16.3586 22.1442C15.7876 22.1442 15.3268 21.6843 15.3268 21.1145V17.2854C15.3268 16.7156 15.7876 16.2557 16.3586 16.2557C16.9296 16.2557 17.3904 16.7156 17.3904 17.2854V21.1145C17.3804 21.6843 16.9196 22.1442 16.3586 22.1442Z" fill="#3D75E4"/>
<path d="M16.3586 31.072C15.7876 31.072 15.3268 30.6121 15.3268 30.0422V26.2132C15.3268 25.6433 15.7876 25.1835 16.3586 25.1835C16.9296 25.1835 17.3904 25.6433 17.3904 26.2132V30.0422C17.3804 30.6121 16.9196 31.072 16.3586 31.072Z" fill="#3D75E4"/>
<path d="M6.14072 22.1442C5.56972 22.1442 5.10892 21.6843 5.10892 21.1145V17.2854C5.10892 16.7156 5.56972 16.2557 6.14072 16.2557C6.71172 16.2557 7.17253 16.7156 7.17253 17.2854V21.1145C7.16251 21.6843 6.7017 22.1442 6.14072 22.1442Z" fill="#3D75E4"/>
<path d="M6.14072 31.072C5.56972 31.072 5.10892 30.6121 5.10892 30.0422V26.2132C5.10892 25.6433 5.56972 25.1835 6.14072 25.1835C6.71172 25.1835 7.17253 25.6433 7.17253 26.2132V30.0422C7.16251 30.6121 6.7017 31.072 6.14072 31.072Z" fill="#3D75E4"/>
<path d="M32.9677 31.072C32.3967 31.072 31.9359 30.6121 31.9359 30.0422V26.2132C31.9359 25.6433 32.3967 25.1835 32.9677 25.1835C33.5287 25.1835 33.9895 25.6433 33.9895 26.2132V30.0422C33.9895 30.6121 33.5287 31.072 32.9677 31.072Z" fill="#3D75E4"/>
</g>
<defs>
<clipPath id="clip0">
<rect width="40" height="40" fill="white" transform="translate(0 -0.000244141)"/>
</clipPath>
</defs>
</svg>
