<svg width="40" height="40" viewBox="0 0 40 40" fill="none" xmlns="http://www.w3.org/2000/svg">
<g clip-path="url(#clip0)">
<path fill-rule="evenodd" clip-rule="evenodd" d="M3.61732 27.0758C3.24364 27.2306 3 27.5953 3 27.9997C3 30.8901 3.65104 33.8814 5.3874 36.1745C7.15787 38.5126 9.96335 39.9997 13.977 39.9997H20.9995C22.6839 39.9997 23.9301 38.6442 24.0923 37.1078C24.3091 35.0548 24.9033 33.5566 25.8745 32.5718C26.827 31.6059 28.2757 30.9997 30.5 30.9997C32.536 30.9997 33.9843 30.751 34.9568 30.4803C34.8307 32.5291 34.4104 34.2321 33.5027 35.4837C32.4365 36.9538 30.5433 37.9997 26.9995 37.9997H25.9995C25.4472 37.9997 24.9995 38.4475 24.9995 38.9997C24.9995 39.552 25.4472 39.9997 25.9995 39.9997H26.9995C30.9562 39.9997 33.563 38.8071 35.1217 36.6579C36.6283 34.5805 36.9995 31.8077 36.9995 28.9997C36.9995 28.6309 36.7965 28.292 36.4713 28.118C36.1507 27.9465 35.7627 27.9626 35.4578 28.1591C35.455 28.1608 35.4486 28.1646 35.4386 28.1702C35.4125 28.1849 35.3615 28.2121 35.2836 28.248C35.128 28.3199 34.8638 28.4271 34.475 28.5382C33.6978 28.7603 32.4162 28.9997 30.5 28.9997C27.901 28.9997 25.8783 29.7196 24.4504 31.1675C23.0412 32.5965 22.346 34.5999 22.1034 36.8977C22.0336 37.5582 21.5242 37.9997 20.9995 37.9997H13.977C10.5136 37.9997 8.33063 36.7483 6.98185 34.9671C5.92107 33.5662 5.32155 31.7638 5.09982 29.812C5.18906 29.8508 5.28196 29.8895 5.37861 29.9282C6.75948 30.4806 8.88728 30.9997 12 30.9997C15.0924 30.9997 17.9111 32.6863 19.0459 36.2994C19.2114 36.8263 19.7727 37.1193 20.2996 36.9538C20.8266 36.7883 21.1195 36.227 20.954 35.7001C19.5403 31.199 15.9076 28.9997 12 28.9997C9.11272 28.9997 7.24052 28.5189 6.12139 28.0712C5.56095 27.8471 5.18485 27.6294 4.96095 27.4802C4.84882 27.4054 4.77426 27.3474 4.73336 27.3137C4.7129 27.2969 4.7008 27.2861 4.6966 27.2822M3.61732 27.0758C3.98633 26.923 4.41065 27.0048 4.6966 27.2822L3.61732 27.0758Z" fill="#3D75E4"/>
<path d="M9.06878 9.05664C11.7988 3.01956 18.9059 0.338651 24.943 3.06866C30.9801 5.79867 33.661 12.9058 30.931 18.9429C29.1985 22.774 25.7037 25.2545 21.8337 25.8571C20.3502 26.0881 18.9947 27.3124 18.9957 29.0012L18.9999 36.0003C19.0002 36.5526 19.4482 37.0001 20.0005 36.9998C20.5528 36.9994 21.0002 36.5514 20.9999 35.9992L20.9957 29C20.9954 28.4789 21.4415 27.9422 22.1414 27.8333C26.65 27.1313 30.7311 24.2388 32.7533 19.7669C35.9384 12.7234 32.8106 4.43146 25.7671 1.24633C18.7235 -1.93881 10.4316 1.18904 7.24645 8.23256C4.06132 15.2761 7.18916 23.5681 14.2327 26.7532C14.7359 26.9808 15.3283 26.7573 15.5559 26.2541C15.6121 26.1298 15.6408 26.0001 15.6445 25.8718H15.6482V20.9998H20.9999C21.5522 20.9998 21.9999 20.552 21.9999 19.9998C21.9999 19.4475 21.5522 18.9998 20.9999 18.9998H15.6482V7.99976H20.9999C23.3107 7.99976 24.9999 9.66326 24.9999 11.4998C24.9999 13.3363 23.3107 14.9998 20.9999 14.9998H17.9999C17.4476 14.9998 16.9999 15.4475 16.9999 15.9998C16.9999 16.552 17.4476 16.9998 17.9999 16.9998H20.9999C24.2119 16.9998 26.9999 14.6338 26.9999 11.4998C26.9999 8.42818 24.322 6.09441 21.1915 6.00257C21.1666 6.0007 21.1414 5.99976 21.116 5.99976H14.9998C14.9398 5.99976 14.881 6.00504 14.824 6.01515C14.7669 6.00504 14.7082 5.99976 14.6482 5.99976C14.0959 5.99976 13.6482 6.44747 13.6482 6.99976V14.9998H12.9999C12.4476 14.9998 11.9999 15.4475 11.9999 15.9998C11.9999 16.552 12.4476 16.9998 12.9999 16.9998H13.6482V18.9998H12.9999C12.4476 18.9998 11.9999 19.4475 11.9999 19.9998C11.9999 20.552 12.4476 20.9998 12.9999 20.9998H13.6482V24.1788C8.6185 21.0491 6.56135 14.6015 9.06878 9.05664Z" fill="#3D75E4"/>
</g>
<defs>
<clipPath id="clip0">
<rect width="40" height="40" fill="white" transform="translate(0 -0.000244141)"/>
</clipPath>
</defs>
</svg>
