<svg width="40" height="40" viewBox="0 0 40 40" fill="none" xmlns="http://www.w3.org/2000/svg">
<g clip-path="url(#clip0)">
<path d="M13 4.99976C13 2.23833 15.2386 -0.000244141 18 -0.000244141H22C24.7614 -0.000244141 27 2.23833 27 4.99976V5.99976C27 6.55204 26.5523 6.99976 26 6.99976C25.4477 6.99976 25 6.55204 25 5.99976V4.99976C25 3.3429 23.6569 1.99976 22 1.99976H18C16.3431 1.99976 15 3.3429 15 4.99976V5.99976C15 6.55204 14.5523 6.99976 14 6.99976C13.4477 6.99976 13 6.55204 13 5.99976V4.99976Z" fill="#3D75E4"/>
<path fill-rule="evenodd" clip-rule="evenodd" d="M15 20.9998C15 19.3429 16.3431 17.9998 18 17.9998H22C23.6569 17.9998 25 19.3429 25 20.9998V22.9998C25 24.6566 23.6569 25.9998 22 25.9998H18C16.3431 25.9998 15 24.6566 15 22.9998V20.9998ZM18 19.9998C17.4477 19.9998 17 20.4475 17 20.9998V22.9998C17 23.552 17.4477 23.9998 18 23.9998H22C22.5523 23.9998 23 23.552 23 22.9998V20.9998C23 20.4475 22.5523 19.9998 22 19.9998H18Z" fill="#3D75E4"/>
<path d="M5 7.99976C2.23858 7.99976 0 10.2383 0 12.9998V16.1713C0 16.9589 0.308811 17.746 0.920401 18.3093C4.47094 21.5795 8.51755 22.9998 13 22.9998C13.5523 22.9998 14 22.552 14 21.9998C14 21.4475 13.5523 20.9998 13 20.9998C8.99081 20.9998 5.436 19.7493 2.27534 16.8382C2.10661 16.6828 2 16.4446 2 16.1713V12.9998C2 11.3429 3.34315 9.99976 5 9.99976H35C36.6569 9.99976 38 11.3429 38 12.9998V16.1713C38 16.4446 37.8934 16.6828 37.7247 16.8382C34.564 19.7493 31.0092 20.9998 27 20.9998C26.4477 20.9998 26 21.4475 26 21.9998C26 22.552 26.4477 22.9998 27 22.9998C31.4825 22.9998 35.5291 21.5795 39.0796 18.3093C39.6912 17.746 40 16.9589 40 16.1713V12.9998C40 10.2383 37.7614 7.99976 35 7.99976H5Z" fill="#3D75E4"/>
<path d="M2 20.9998C2 20.4475 1.55228 19.9998 1 19.9998C0.447715 19.9998 0 20.4475 0 20.9998V34.9998C0 37.7612 2.23858 39.9998 5 39.9998H35C37.7614 39.9998 40 37.7612 40 34.9998V20.9998C40 20.4475 39.5523 19.9998 39 19.9998C38.4477 19.9998 38 20.4475 38 20.9998V34.9998C38 36.6566 36.6569 37.9998 35 37.9998H5C3.34315 37.9998 2 36.6566 2 34.9998V20.9998Z" fill="#3D75E4"/>
</g>
<defs>
<clipPath id="clip0">
<rect width="40" height="40" fill="white" transform="translate(0 -0.000244141)"/>
</clipPath>
</defs>
</svg>
