<svg width="40" height="40" viewBox="0 0 40 40" fill="none" xmlns="http://www.w3.org/2000/svg">
<path fill-rule="evenodd" clip-rule="evenodd" d="M20 0C18.3433 0 17 1.34314 17 3C17 4.30621 17.835 5.41742 19 5.82928V15C19 15.5523 19.4478 16 20 16C20.5522 16 21 15.5523 21 15V5.82928C22.165 5.41742 23 4.30621 23 3C23 1.34314 21.6567 0 20 0ZM19 3C19 2.44769 19.4478 2 20 2C20.5522 2 21 2.44769 21 3C21 3.55231 20.5522 4 20 4C19.4478 4 19 3.55231 19 3Z" fill="#3D75E4"/>
<path fill-rule="evenodd" clip-rule="evenodd" d="M14 3C12.3433 3 11 4.34314 11 6C11 7.65686 12.3433 9 14 9C14.1387 9 14.2749 8.9906 14.4084 8.97241C14.5659 8.95099 14.7195 8.91736 14.8679 8.87256C15.6975 10.5621 15.9998 12.6214 15.9998 14.9999C15.9998 15.5522 16.4475 15.9999 16.9998 15.9999C17.552 15.9999 17.9998 15.5522 17.9998 14.9999C17.9998 12.3594 17.6543 9.82465 16.4958 7.66504C16.8142 7.18866 17 6.61603 17 6C17 4.34314 15.6567 3 14 3ZM13 6C13 5.44769 13.4478 5 14 5C14.5522 5 15 5.44769 15 6C15 6.55231 14.5522 7 14 7C13.4478 7 13 6.55231 13 6Z" fill="#3D75E4"/>
<path fill-rule="evenodd" clip-rule="evenodd" d="M23.9998 15C23.9998 12.6212 24.3022 10.562 25.1318 8.87244C25.2256 8.90076 25.3213 8.92462 25.4187 8.94373C25.4753 8.95483 25.5325 8.96436 25.5901 8.97223C25.7241 8.99054 25.8608 9 26 9C27.6567 9 29 7.65686 29 6C29 4.34314 27.6567 3 26 3C24.3433 3 23 4.34314 23 6C23 6.61591 23.1855 7.18842 23.5039 7.66473C22.3452 9.82446 21.9998 12.3595 21.9998 15C21.9998 15.5522 22.4475 16 22.9998 16C23.552 16 23.9998 15.5522 23.9998 15ZM26 5C26.5522 5 27 5.44769 27 6C27 6.55231 26.5522 7 26 7C25.4478 7 25 6.55231 25 6C25 5.44769 25.4478 5 26 5Z" fill="#3D75E4"/>
<path d="M27 30C27.5522 30 28 29.5523 28 29C28 28.4477 27.5522 28 27 28C26.4478 28 26 28.4477 26 29C26 29.5523 26.4478 30 27 30Z" fill="#3D75E4"/>
<path fill-rule="evenodd" clip-rule="evenodd" d="M14.8406 15.7029C15.3599 15.5148 15.6284 14.9413 15.4402 14.4221C15.252 13.9028 14.6785 13.6344 14.1594 13.8226C13.637 14.0118 13.1472 14.2503 12.7688 14.5564C12.4006 14.8543 12 15.3348 12 16.0001V18.1888C11.0129 18.5377 10.1492 18.9642 9.4812 19.4684C8.67188 20.0796 8 20.9276 8 22V35C8 35.9534 8.53442 36.7324 9.2124 37.3152C9.8938 37.901 10.821 38.3831 11.8801 38.7682C14.0061 39.5414 16.8772 40 20 40C23.1228 40 25.9939 39.5414 28.1199 38.7682C29.179 38.3831 30.1062 37.901 30.7876 37.3152C31.4656 36.7324 32 35.9534 32 35V22C32 20.9276 31.3281 20.0796 30.5188 19.4684C29.8508 18.9642 28.9871 18.5377 28 18.1888V16.0001C28 15.3348 27.5994 14.8543 27.2312 14.5564C26.8528 14.2503 26.363 14.0118 25.8406 13.8226C25.3215 13.6344 24.748 13.9028 24.5598 14.4221C24.3716 14.9413 24.6401 15.5148 25.1594 15.7029C25.4482 15.8076 25.6619 15.9102 25.8113 16C25.5728 16.1437 25.1975 16.3035 24.675 16.4527C23.5205 16.7826 21.8672 17.0001 20 17.0001C18.1328 17.0001 16.4795 16.7826 15.325 16.4527C14.8025 16.3035 14.4272 16.1437 14.1887 16C14.2876 15.9406 14.4146 15.8757 14.5725 15.8082C14.6147 15.7901 14.6592 15.7719 14.7058 15.7536C14.7488 15.7368 14.7937 15.7198 14.8406 15.7029ZM26 18.1178L25.9983 18.1185C25.9026 18.1556 25.8044 18.1913 25.7046 18.2255C25.6548 18.2426 25.6045 18.2593 25.554 18.2757C25.4666 18.3039 25.3779 18.3311 25.2883 18.3574L25.2244 18.3758C23.8455 18.7697 21.9988 19.0001 20 19.0001C18.0012 19.0001 16.1545 18.7697 14.7756 18.3758L14.7737 18.3752C14.5183 18.3022 14.271 18.2214 14.0366 18.1319L14 18.1178V19.8671C14.0149 19.88 14.0342 19.8956 14.0586 19.9136L14.085 19.9328L14.1099 19.9498C14.3408 20.1059 14.741 20.2858 15.325 20.4527C16.4795 20.7826 18.1328 21 20 21C21.032 21 22.0039 20.9335 22.8655 20.8166C23.4128 20.7423 23.9167 21.1258 23.991 21.673C24.0652 22.2203 23.6816 22.7242 23.1345 22.7985C22.1775 22.9283 21.1152 23 20 23C18.0012 23 16.1545 22.7697 14.7756 22.3757C14.0928 22.1807 13.4678 21.9296 12.9902 21.6071C12.6111 21.351 12.1545 20.929 12.0317 20.3203C11.4758 20.5565 11.0251 20.8088 10.6865 21.0645C10.1067 21.5023 10 21.8303 10 22V35C10 35.1512 10.0811 35.4245 10.5164 35.7987C10.9482 36.1701 11.6318 36.5499 12.5635 36.8886C14.4187 37.5632 17.0476 38 20 38C22.2559 38 24.3228 37.745 26 37.3238V32C26 31.4477 26.4478 31 27 31C27.5522 31 28 31.4477 28 32V36.6662C28.6489 36.3879 29.144 36.0907 29.4836 35.7987C29.9189 35.4245 30 35.1512 30 35V24.8843C29.4514 25.2219 28.814 25.5159 28.1199 25.7682C25.9939 26.5414 23.1228 27 20 27C17.2622 27 14.7241 26.6476 12.7124 26.0435C12.3379 25.931 11.9797 25.8093 11.6406 25.6786C11.1252 25.48 10.8684 24.9014 11.0669 24.386C11.2654 23.8706 11.844 23.6137 12.3594 23.8123C12.5305 23.8782 12.7095 23.9423 12.896 24.0042C13.0232 24.0464 13.1538 24.0877 13.2876 24.1279C15.0796 24.6661 17.4192 25 20 25C22.9524 25 25.5813 24.5632 27.4365 23.8886C28.3682 23.5499 29.0518 23.1701 29.4836 22.7987C29.9189 22.4245 30 22.1512 30 22C30 21.8303 29.8933 21.5023 29.3135 21.0645C28.9749 20.8088 28.5239 20.5563 27.9678 20.3201C27.8889 20.7054 27.6765 21.0167 27.45 21.2463C27.167 21.5329 26.8037 21.7563 26.4285 21.9343C25.9294 22.171 25.333 21.9582 25.0964 21.4592C24.8599 20.9601 25.0725 20.3638 25.5715 20.1272C25.6541 20.0881 25.7241 20.0509 25.7832 20.0165C25.8132 19.9991 25.8406 19.9823 25.8652 19.9664L25.8931 19.9479C25.9387 19.9169 25.9739 19.8893 26 19.8663V18.1178Z" fill="#3D75E4"/>
</svg>
