<svg width="40" height="40" viewBox="0 0 40 40" fill="none" xmlns="http://www.w3.org/2000/svg">
<g clip-path="url(#clip0)">
<path fill-rule="evenodd" clip-rule="evenodd" d="M10.5405 3.45926C10.5405 1.54863 12.0894 -0.000244141 14 -0.000244141C15.9107 -0.000244141 17.4595 1.54863 17.4595 3.45926C17.4595 4.22942 17.2079 4.94081 16.7823 5.51566C17.3873 5.73182 17.9836 5.98984 18.4769 6.25586C18.963 6.51801 19.1445 7.12459 18.8824 7.6107C18.6202 8.0968 18.0137 8.27835 17.5276 8.0162C17.0273 7.7464 16.3475 7.46504 15.673 7.25219C14.9787 7.03313 14.3901 6.9187 14.048 6.9187C14.0433 6.9187 14.0386 6.91867 14.0339 6.9186C14.0226 6.91871 14.0113 6.91877 14 6.91877C12.0894 6.91877 10.5405 5.36989 10.5405 3.45926ZM14 1.99976C13.194 1.99976 12.5405 2.6532 12.5405 3.45926C12.5405 4.26532 13.194 4.91877 14 4.91877C14.8061 4.91877 15.4595 4.26532 15.4595 3.45926C15.4595 2.6532 14.8061 1.99976 14 1.99976Z" fill="#3D75E4"/>
<path fill-rule="evenodd" clip-rule="evenodd" d="M9.99995 7.03162C7.52346 7.03162 5.51587 9.03921 5.51587 11.5157C5.51587 13.0274 6.26394 14.3644 7.41008 15.1767L4.40426 16.6796C3.59625 17.0836 3.01332 17.8302 2.81734 18.7121L2.34362 20.8438C2.0584 22.1273 2.64218 23.447 3.78377 24.0993L6 25.3658V33.3886C6 34.8307 7.16905 35.9998 8.61116 35.9998C9.21908 35.9998 9.77849 35.792 10.2222 35.4436C10.666 35.792 11.2254 35.9998 11.8333 35.9998C13.2754 35.9998 14.4445 34.8307 14.4445 33.3886V29.4998C14.4445 28.9475 13.9968 28.4998 13.4445 28.4998C12.8922 28.4998 12.4445 28.9475 12.4445 29.4998V33.3886C12.4445 33.7261 12.1709 33.9998 11.8333 33.9998C11.4999 33.9998 11.2288 33.7327 11.2223 33.4009L11.2223 33.3886V26.9998C11.2223 26.4475 10.7746 25.9998 10.2223 25.9998C9.67003 25.9998 9.22232 26.4475 9.22232 26.9998V30.3507L9.22217 30.3682V33.3886L9.2222 33.4009C9.21565 33.7327 8.94459 33.9998 8.61116 33.9998C8.27363 33.9998 8 33.7261 8 33.3886V19.9998C8 19.4475 7.55228 18.9998 7 18.9998C6.44772 18.9998 6 19.4475 6 19.9998V23.0623L4.77605 22.3629C4.39552 22.1454 4.20092 21.7055 4.296 21.2777L4.76972 19.1459C4.83504 18.852 5.02935 18.6031 5.29869 18.4684L9.48988 16.3728C9.78894 16.2233 10.1429 16.2331 10.4332 16.399L13.0039 17.868C13.4834 18.142 14.0943 17.9754 14.3683 17.4959C14.6423 17.0164 14.4757 16.4055 13.9962 16.1315L12.4694 15.2591C13.6833 14.4567 14.484 13.0797 14.484 11.5157C14.484 9.03921 12.4764 7.03162 9.99995 7.03162ZM7.51587 11.5157C7.51587 10.1438 8.62803 9.03162 9.99995 9.03162C11.3719 9.03162 12.484 10.1438 12.484 11.5157C12.484 12.8876 11.3719 13.9998 9.99995 13.9998C8.62803 13.9998 7.51587 12.8876 7.51587 11.5157Z" fill="#3D75E4"/>
<path d="M24.1509 24.759C24.5702 24.3996 24.6188 23.7683 24.2594 23.349C23.9 22.9297 23.2687 22.8811 22.8493 23.2405L22.266 23.7405C21.8467 24.0999 21.7981 24.7312 22.1575 25.1506C22.517 25.5699 23.1483 25.6185 23.5676 25.259L24.1509 24.759Z" fill="#3D75E4"/>
<path fill-rule="evenodd" clip-rule="evenodd" d="M20 9.99976C17.2386 9.99976 15 12.2383 15 14.9998C15 16.7002 15.8489 18.2024 17.1459 19.1057L14.6522 20.1447C13.6864 20.5471 13.0001 21.4237 12.841 22.4578L12.4777 24.8188C12.1484 26.9596 14.1268 28.7332 16.2191 28.1728L20.0001 27.16L23.7812 28.1728C25.8734 28.7332 27.8519 26.9596 27.5225 24.8188L27.1593 22.4578C27.0002 21.4237 26.3138 20.5471 25.348 20.1447L22.8542 19.1056C24.1512 18.2023 25 16.7002 25 14.9998C25 12.2383 22.7614 9.99976 20 9.99976ZM17 14.9998C17 13.3429 18.3431 11.9998 20 11.9998C21.6569 11.9998 23 13.3429 23 14.9998C23 16.6566 21.6569 17.9998 20 17.9998C18.3431 17.9998 17 16.6566 17 14.9998ZM18.5744 24.7076L20.2403 25.1539C20.2521 25.1568 20.2639 25.16 20.2756 25.1633L24.2987 26.2409C24.9961 26.4277 25.6556 25.8365 25.5458 25.1229L25.1825 22.7619C25.1295 22.4172 24.9007 22.125 24.5788 21.9909L20.3847 20.2434C20.1386 20.1408 19.8617 20.1408 19.6155 20.2434L15.4215 21.9909C15.0995 22.125 14.8708 22.4172 14.8177 22.7619L14.4545 25.1229C14.3447 25.8365 15.0042 26.4277 15.7016 26.2409L16.7992 25.9469C16.6786 25.8357 16.5668 25.7143 16.465 25.5835L15.7108 24.6137C15.3717 24.1778 15.4502 23.5495 15.8862 23.2104C16.3221 22.8714 16.9504 22.9499 17.2895 23.3858L18.0438 24.3556C18.1775 24.5276 18.3639 24.6512 18.5744 24.7076Z" fill="#3D75E4"/>
<path fill-rule="evenodd" clip-rule="evenodd" d="M26 -0.000244141C24.0894 -0.000244141 22.5405 1.54863 22.5405 3.45926C22.5405 4.16656 22.7528 4.82428 23.1171 5.3722C21.4713 5.9096 20.1984 6.83496 19.3474 7.64956C18.9484 8.03145 18.9346 8.66446 19.3165 9.06343C19.6984 9.4624 20.3314 9.47625 20.7304 9.09436C21.788 8.08201 23.5849 6.9187 25.9757 6.9187C25.9767 6.9187 25.9777 6.91871 25.9788 6.9187C25.9859 6.91875 25.9929 6.91877 26 6.91877C27.9107 6.91877 29.4595 5.36989 29.4595 3.45926C29.4595 1.54863 27.9107 -0.000244141 26 -0.000244141ZM24.5405 3.45926C24.5405 2.6532 25.194 1.99976 26 1.99976C26.8061 1.99976 27.4595 2.6532 27.4595 3.45926C27.4595 4.26532 26.8061 4.91877 26 4.91877C25.194 4.91877 24.5405 4.26532 24.5405 3.45926Z" fill="#3D75E4"/>
<path fill-rule="evenodd" clip-rule="evenodd" d="M34.4841 11.5157C34.4841 9.0392 32.4765 7.03162 30.0001 7.03162C27.5236 7.03162 25.516 9.0392 25.516 11.5157C25.516 13.0797 26.3167 14.4567 27.5306 15.2591L26.0038 16.1315C25.5243 16.4055 25.3577 17.0164 25.6317 17.4959C25.9057 17.9754 26.5166 18.142 26.9961 17.868L29.5668 16.399C29.8571 16.2331 30.2111 16.2233 30.5101 16.3728L34.7013 18.4684C34.9706 18.6031 35.165 18.852 35.2303 19.1459L35.704 21.2777C35.7991 21.7055 35.6045 22.1454 35.224 22.3629L34 23.0623V19.9998C34 19.4475 33.5523 18.9998 33 18.9998C32.4477 18.9998 32 19.4475 32 19.9998V33.3881C32 33.7259 31.7262 33.9998 31.3884 33.9998C31.0545 33.9998 30.7832 33.7323 30.7768 33.4L30.7769 33.3881V30.3682L30.7767 30.3512V26.9998C30.7767 26.4475 30.329 25.9998 29.7767 25.9998C29.2244 25.9998 28.7767 26.4475 28.7767 26.9998V33.3881L28.7767 33.4C28.7704 33.7323 28.499 33.9998 28.1652 33.9998C27.8274 33.9998 27.5536 33.7259 27.5536 33.3881V29.4998C27.5536 28.9475 27.1059 28.4998 26.5536 28.4998C26.0013 28.4998 25.5536 28.9475 25.5536 29.4998V33.3881C25.5536 34.8305 26.7228 35.9998 28.1652 35.9998C28.7733 35.9998 29.3329 35.7919 29.7768 35.4434C30.2207 35.7919 30.7802 35.9998 31.3884 35.9998C32.8307 35.9998 34 34.8305 34 33.3881V25.3658L36.2162 24.0993C37.3578 23.447 37.9416 22.1273 37.6564 20.8438L37.1827 18.7121C36.9867 17.8302 36.4037 17.0836 35.5957 16.6796L32.5899 15.1767C33.7361 14.3644 34.4841 13.0274 34.4841 11.5157ZM30.0001 9.03162C31.372 9.03162 32.4841 10.1438 32.4841 11.5157C32.4841 12.8876 31.372 13.9998 30.0001 13.9998C28.6281 13.9998 27.516 12.8876 27.516 11.5157C27.516 10.1438 28.6281 9.03162 30.0001 9.03162Z" fill="#3D75E4"/>
<path d="M17.4712 29.4998C17.4712 28.9475 17.0235 28.4998 16.4712 28.4998C15.9189 28.4998 15.4712 28.9475 15.4712 29.4998V37.2353C15.4712 38.7621 16.7089 39.9998 18.2356 39.9998C18.9064 39.9998 19.5213 39.7609 20 39.3636C20.4788 39.7609 21.0937 39.9998 21.7644 39.9998C23.2912 39.9998 24.5289 38.7621 24.5289 37.2353V29.4998C24.5289 28.9475 24.0812 28.4998 23.5289 28.4998C22.9766 28.4998 22.5289 28.9475 22.5289 29.4998V37.2353C22.5289 37.6575 22.1866 37.9998 21.7644 37.9998C21.3451 37.9998 21.0047 37.6621 21 37.2439L21.0001 37.2353V30.9998C21.0001 30.4475 20.5523 29.9998 20.0001 29.9998C19.4478 29.9998 19 30.4475 19 30.9998V37.2353L19 37.2439C18.9954 37.6621 18.6549 37.9998 18.2356 37.9998C17.8134 37.9998 17.4712 37.6575 17.4712 37.2353V29.4998Z" fill="#3D75E4"/>
</g>
<defs>
<clipPath id="clip0">
<rect width="40" height="40" fill="white" transform="translate(0 -0.000244141)"/>
</clipPath>
</defs>
</svg>
