<svg width="40" height="40" viewBox="0 0 40 40" fill="none" xmlns="http://www.w3.org/2000/svg">
<path fill-rule="evenodd" clip-rule="evenodd" d="M38.4612 0.211823C37.1802 -0.351372 35.687 0.248019 35.1491 1.54142L25.7284 24.1909C23.5164 24.6816 21.862 25.7045 20.7396 27.0631C19.4216 28.6586 18.911 30.6283 19.004 32.5126C19.1844 36.1687 21.7488 39.9995 25.7844 39.9995H29.467C29.4873 40.0002 29.5076 40.0002 29.5277 39.9995H37.4729C37.4913 40 37.5097 40 37.528 39.9995H38.9996C39.4241 39.9995 39.8024 39.7312 39.9433 39.3302C40.0841 38.9291 39.9569 38.4827 39.6259 38.2165C35.6858 35.0484 33.4376 32.8704 31.8519 30.8818C30.9925 29.8041 30.3195 28.7725 29.6717 27.6451L39.7627 3.46951C40.2885 2.20987 39.7095 0.760607 38.4612 0.211823ZM31.7217 35.987C32.796 36.5664 34.123 37.0969 35.6638 37.5296C33.2348 35.4352 31.5766 33.7473 30.2886 32.1321C28.7128 30.1559 27.7147 28.3157 26.5473 26.0691C24.4969 26.4423 23.1356 27.306 22.2811 28.3404C21.3279 29.4942 20.93 30.9512 21.0022 32.4137C21.1441 35.29 22.9988 37.7238 25.3784 37.9746C23.8423 36.7161 22.8798 35.1542 22.5245 33.7309C22.3905 33.1942 22.7164 32.6503 23.2524 32.5161C23.7883 32.3819 24.3314 32.7082 24.4654 33.245C24.8671 34.854 26.5418 37.0617 29.6398 37.9959H31.2455C31.0842 37.9156 30.9268 37.834 30.7732 37.7511C29.0705 36.8329 27.7356 35.7067 27.1017 34.4369C26.8546 33.942 27.0549 33.3403 27.549 33.0928C28.0432 32.8454 28.644 33.046 28.8911 33.5408C29.2575 34.2746 30.1733 35.152 31.7217 35.987ZM28.4471 25.3841L37.9168 2.69675C38.0218 2.4453 37.9062 2.156 37.657 2.04645C37.4013 1.93403 37.1033 2.05368 36.9959 2.31186L27.8494 24.3022C27.9053 24.3644 27.954 24.4343 27.9937 24.511C28.1495 24.8117 28.3 25.1022 28.4471 25.3841Z" fill="#3D75E4"/>
<path fill-rule="evenodd" clip-rule="evenodd" d="M0.0395307 15.3472C-0.208064 14.1074 0.73882 12.9506 2.00131 12.9506H7.08313L3.02489 7.25739C2.22242 6.13161 2.48315 4.56748 3.60725 3.7638C4.73135 2.96013 6.29315 3.22125 7.09563 4.34703L13.2284 12.9506H23.5685C24.831 12.9506 25.7779 14.1074 25.5303 15.3472L25.1946 17.0281C25.1287 17.3581 24.9809 17.6662 24.7648 17.9238L23.7813 19.0964L22.8937 23.5409C22.7854 24.0834 22.2584 24.4353 21.7166 24.3268C21.1749 24.2183 20.8236 23.6905 20.9319 23.1479L21.8195 18.7035C21.8854 18.3734 22.0332 18.0654 22.2494 17.8077L23.2329 16.6351L23.5685 14.9543H14.6566L15.5427 16.1973C16.3452 17.3231 16.0845 18.8873 14.9604 19.6909C13.8363 20.4946 12.2745 20.2335 11.472 19.1077L8.51134 14.9543L2.00131 14.9543L2.31036 16.5018L3.26453 17.6044C3.49147 17.8667 3.6465 18.1834 3.71446 18.5237L7.09936 35.4735C7.18299 35.8922 7.13084 36.3268 6.95052 36.7137L6.52786 37.6208L6.60277 37.9959H19.2413C19.7938 37.9959 20.2416 38.4444 20.2416 38.9977C20.2416 39.551 19.7938 39.9995 19.2413 39.9995H6.60277C5.64911 39.9995 4.82802 39.3254 4.64099 38.3888L4.56608 38.0137C4.48246 37.595 4.53461 37.1605 4.71492 36.7735L5.13758 35.8664L1.75267 18.9167L0.798507 17.814C0.571572 17.5518 0.416536 17.235 0.348581 16.8948L0.0395307 15.3472ZM13.9144 17.3615C14.0749 17.5866 14.0228 17.8995 13.798 18.0602C13.5731 18.2209 13.2608 18.1687 13.1003 17.9436L4.65319 6.09325C4.49269 5.86809 4.54484 5.55526 4.76966 5.39453C4.99448 5.2338 5.30684 5.28602 5.46733 5.51118C8.3189 9.5116 11.0895 13.3984 13.9144 17.3615Z" fill="#3D75E4"/>
</svg>
