<svg width="40" height="40" viewBox="0 0 40 40" fill="none" xmlns="http://www.w3.org/2000/svg">
<g clip-path="url(#clip0)">
<path fill-rule="evenodd" clip-rule="evenodd" d="M0.292893 0.292893C0.683417 -0.0976311 1.31658 -0.0976311 1.70711 0.292893L39.7071 38.2929C40.0976 38.6834 40.0976 39.3166 39.7071 39.7071C39.3166 40.0976 38.6834 40.0976 38.2929 39.7071L0.292893 1.70711C-0.0976311 1.31658 -0.0976311 0.683417 0.292893 0.292893Z" fill="#3D75E4"/>
<path fill-rule="evenodd" clip-rule="evenodd" d="M39.7071 0.292893C40.0976 0.683418 40.0976 1.31658 39.7071 1.70711L1.70711 39.7071C1.31658 40.0976 0.683417 40.0976 0.292891 39.7071C-0.0976313 39.3166 -0.0976312 38.6834 0.292891 38.2929L38.2929 0.292893C38.6834 -0.0976312 39.3166 -0.0976311 39.7071 0.292893Z" fill="#3D75E4"/>
</g>
<defs>
<clipPath id="clip0">
<rect width="40" height="40" fill="white"/>
</clipPath>
</defs>
</svg>
