<svg width="40" height="40" viewBox="0 0 40 40" fill="none" xmlns="http://www.w3.org/2000/svg">
<path d="M3.01784 2C2.46227 2 2.01189 2.44771 2.01189 2.99999V36.9999C2.01189 37.5522 2.46227 37.9999 3.01784 37.9999H9.69174C10.2473 37.9999 10.6977 38.4477 10.6977 38.9999C10.6977 39.5522 10.2473 39.9999 9.69174 39.9999H3.01784C1.35113 39.9999 0 38.6568 0 36.9999V2.99999C0 1.34314 1.35113 0 3.01784 0H18.61C19.1656 0 19.6159 0.447715 19.6159 0.999998C19.6159 1.55228 19.1656 2 18.61 2H3.01784Z" fill="#3D75E4"/>
<path d="M21.1249 1.8C21.1249 0.805886 21.9355 0 22.9356 0H25.1487C26.8154 0 28.1665 1.34314 28.1665 3V12.2077C28.1665 12.76 27.7161 13.2077 27.1605 13.2077C26.605 13.2077 26.1546 12.76 26.1546 12.2077V3C26.1546 2.44771 25.7042 2 25.1487 2H23.1321C23.027 4.22672 21.1777 5.99999 18.9118 5.99999H7.04162C6.48605 5.99999 6.03568 5.55228 6.03568 4.99999C6.03568 4.44771 6.48605 3.99999 7.04162 3.99999H18.9118C20.134 3.99999 21.1249 3.01502 21.1249 1.8Z" fill="#3D75E4"/>
<path d="M32.1313 20.9825L32.1315 21C32.1315 23.3665 31.5304 25.5565 30.5054 27.1868C30.2864 27.5352 30.0433 27.8642 29.7781 28.1658L30.6224 30.6837C30.7593 31.0921 30.618 31.5417 30.2717 31.7999L28.7842 32.9089L29.7913 37.2259C29.897 37.6791 30.3032 38 30.7712 38H37.2429C37.5281 38 37.7612 37.8793 37.8849 37.7421C37.9894 37.6262 38.0118 37.5173 37.9621 37.3811C37.1962 35.2825 34.9199 33.6073 32.1424 33.1098C31.5956 33.0119 31.2322 32.4919 31.3307 31.9484C31.4293 31.4048 31.9524 31.0436 32.4991 31.1415C35.7727 31.7279 38.7782 33.753 39.8533 36.699C40.1825 37.6011 39.9281 38.4722 39.3833 39.0767C38.8577 39.6599 38.0689 40 37.2429 40H30.7712C29.3671 40 28.1486 39.0374 27.8314 37.6777L26.6763 32.7258C26.5862 32.34 26.7338 31.9376 27.0526 31.7L28.4845 30.6324L28.1058 29.5032C27.4928 29.8191 26.8191 30 26.0958 30C25.3746 30 24.6998 29.8182 24.0859 29.5022L23.707 30.6324L25.1388 31.7C25.4526 31.9339 25.601 32.3278 25.519 32.7091L24.4608 37.6274C24.1631 39.0112 22.9332 40 21.5097 40H15.0303C14.2043 40 13.4156 39.6599 12.89 39.0767C12.3451 38.4722 12.0907 37.6011 12.4199 36.699C13.495 33.753 16.5005 31.7279 19.7741 31.1415C20.3209 31.0436 20.844 31.4048 20.9425 31.9484C21.041 32.4919 20.6776 33.0119 20.1309 33.1098C17.3533 33.6073 15.077 35.2825 14.3112 37.3811C14.2615 37.5173 14.2839 37.6262 14.3884 37.7421C14.5121 37.8793 14.7452 38 15.0303 38H21.5097C21.9842 38 22.3942 37.6704 22.4934 37.2091L23.417 32.9162L21.9198 31.7999C21.5734 31.5417 21.4321 31.0921 21.569 30.6837L22.4131 28.1666C21.4997 27.1264 20.8203 25.7254 20.4331 24.1518C20.3011 23.6154 20.6316 23.0741 21.1712 22.9429C21.7109 22.8117 22.2554 23.1402 22.3874 23.6767C22.7233 25.0418 23.297 26.1537 23.9765 26.9049C24.6533 27.6532 25.3875 28 26.0958 28C27.0127 28 27.995 27.4061 28.7993 26.1268C29.5926 24.8651 30.1167 23.0615 30.1196 21.0167L30.1194 21V17.9478C30.1194 17.5024 29.8231 17.1106 29.3925 16.9871L26.9328 16.2811C26.3859 16.1241 25.8054 16.1241 25.2585 16.2811L22.7988 16.9871C22.3683 17.1106 22.0719 17.5024 22.0719 17.9478V19.3958L23.1604 18.8651C23.6883 18.6077 24.2802 18.5093 24.8636 18.5818L28.2913 19.0077C28.8425 19.0762 29.2336 19.576 29.1647 20.124C29.0958 20.672 28.593 21.0607 28.0417 20.9922L24.614 20.5663C24.4196 20.5422 24.2222 20.575 24.0463 20.6607L21.5089 21.8978C21.1971 22.0498 20.8285 22.0312 20.5338 21.8486C20.2391 21.666 20.06 21.3452 20.06 21V17.9478C20.06 16.6115 20.9492 15.4363 22.2407 15.0656L24.7004 14.3596C25.612 14.098 26.5793 14.098 27.4909 14.3596L29.9506 15.0656C31.2422 15.4363 32.1313 16.6115 32.1313 17.9478V20.9825Z" fill="#3D75E4"/>
<path d="M6.03568 13C6.03568 12.4477 6.48605 12 7.04162 12H15.0892C15.6448 12 16.0951 12.4477 16.0951 13C16.0951 13.5523 15.6448 14 15.0892 14H7.04162C6.48605 14 6.03568 13.5523 6.03568 13Z" fill="#3D75E4"/>
<path d="M7.04162 16C6.48605 16 6.03568 16.4477 6.03568 17C6.03568 17.5523 6.48605 18 7.04162 18H15.0892C15.6448 18 16.0951 17.5523 16.0951 17C16.0951 16.4477 15.6448 16 15.0892 16H7.04162Z" fill="#3D75E4"/>
<path d="M6.03568 21C6.03568 20.4477 6.48605 20 7.04162 20H16.0951C16.6507 20 17.1011 20.4477 17.1011 21C17.1011 21.5522 16.6507 22 16.0951 22H7.04162C6.48605 22 6.03568 21.5522 6.03568 21Z" fill="#3D75E4"/>
<path d="M7.04162 24C6.48605 24 6.03568 24.4477 6.03568 25C6.03568 25.5522 6.48605 26 7.04162 26H11.0654C11.621 26 12.0714 25.5522 12.0714 25C12.0714 24.4477 11.621 24 11.0654 24H7.04162Z" fill="#3D75E4"/>
</svg>
