<svg width="40" height="40" viewBox="0 0 40 40" fill="none" xmlns="http://www.w3.org/2000/svg">
<path d="M20 14.1C16.7 14.1 14.1 16.8 14.1 20C14.1 23.2 16.8 25.9 20 25.9C20.9 25.9 21.8 25.7 22.6 25.3C22.7 25.2 22.8 25.2 22.9 25.1C23.3 24.9 23.6 24.7 23.9 24.4C22.9 23.5 21.5 23 20 23C19.1 23 18.2 23.2 17.5 23.6C17 23.8 16.4 23.6 16.2 23.1C16 22.6 16.2 22 16.7 21.8C16.9 21.7 17.1 21.6 17.2 21.6C16.8 21 16.6 20.3 16.6 19.6C16.6 17.7 18.2 16.1 20.1 16.1C22 16.1 23.6 17.6 23.6 19.6C23.6 20.3 23.4 21 23 21.6C24.3 22.1 25.4 22.9 26.2 23.9C26.5 24.3 26.6 24.8 26.2 25.2C25.8 25.6 25.4 26 25 26.4L23.2 27.4C22.3 27.8 21.2 28 20.2 28C15.8 28 12.3 24.5 12.3 20.1C12.3 15.7 15.9 12.2 20.2 12.2C24.6 12.2 28.1 15.7 28.1 20.1C28.1 20.8 28 21.5 27.8 22.1C27.7 22.6 27.1 23 26.6 22.8C26.1 22.7 25.7 22.1 25.9 21.6C26 21.1 26.1 20.6 26.1 20.1C25.9 16.7 23.3 14.1 20 14.1ZM20 18C19.2 18 18.5 18.7 18.5 19.5C18.5 20.3 19.2 21 20 21C20.8 21 21.5 20.3 21.5 19.5C21.5 18.7 20.8 18 20 18Z" fill="#3D75E4"/>
<path d="M20 0C18.1 0 16.5 1.6 16.5 3.5C16.5 3.8 16.5 4.1 16.6 4.3L10.2 8C9.7 8.2 9.5 8.8 9.8 9.3C10.1 9.8 10.7 10 11.2 9.7L17.6 6C18.2 6.6 19.1 7 20 7C21.9 7 23.5 5.4 23.5 3.5C23.5 1.6 21.9 0 20 0ZM20 5C19.5 5 19 4.7 18.7 4.3C18.7 4.3 18.7 4.3 18.7 4.2C18.7 4.2 18.7 4.2 18.7 4.1C18.6 3.9 18.5 3.7 18.5 3.4C18.5 2.7 19.1 2 20 2C20.9 2 21.5 2.7 21.5 3.5C21.5 4.3 20.9 5 20 5Z" fill="#3D75E4"/>
<path d="M6.5 15.1C8 14.7 9 13.3 9 11.7C9 9.8 7.4 8.2 5.5 8.2C3.6 8.2 2 9.8 2 11.8C2 13.4 3.1 14.7 4.5 15.2V22.5C4.5 23.1 4.9 23.5 5.5 23.5C6.1 23.5 6.5 23.1 6.5 22.5V15.1ZM4 11.8C4 11 4.7 10.3 5.5 10.3C6.4 10.3 7 11 7 11.8C7 12.6 6.3 13.3 5.5 13.3C4.7 13.2 4 12.6 4 11.8Z" fill="#3D75E4"/>
<path d="M9.1 28.2C9.1 28.5 9.1 28.8 9 29L15.1 32.5C15.6 32.8 15.7 33.4 15.5 33.9C15.2 34.4 14.6 34.5 14.1 34.3L8 30.8C7.4 31.4 6.5 31.8 5.6 31.8C3.7 31.8 2.1 30.2 2.1 28.3C2.1 26.4 3.7 24.8 5.6 24.8C7.5 24.8 9.1 26.3 9.1 28.2ZM6.8 29C6.9 29 6.9 29 6.8 29C7 28.7 7 28.5 7 28.2C7 27.4 6.3 26.7 5.5 26.7C4.6 26.7 4 27.4 4 28.2C4 29 4.7 29.7 5.5 29.7C6.1 29.8 6.6 29.5 6.8 29Z" fill="#3D75E4"/>
<path d="M30 30.8C30.3 31.3 30.1 31.9 29.6 32.2L23.4 35.7C23.5 36 23.5 36.2 23.5 36.5C23.5 38.4 21.9 40 20 40C18.1 40 16.5 38.4 16.5 36.5C16.5 34.6 18.1 33 20 33C20.9 33 21.8 33.4 22.4 34L28.6 30.4C29.1 30.1 29.8 30.3 30 30.8ZM21.3 35.7C21 35.3 20.5 35 20 35C19.1 35 18.5 35.7 18.5 36.5C18.5 37.3 19.1 38 20 38C20.9 38 21.5 37.3 21.5 36.5C21.5 36.3 21.5 36 21.3 35.7C21.3 35.8 21.3 35.8 21.3 35.7Z" fill="#3D75E4"/>
<path d="M35.5 24.9V17.5C35.5 16.9 35.1 16.5 34.5 16.5C33.9 16.5 33.5 16.9 33.5 17.5V24.9C32 25.3 31 26.7 31 28.3C31 30.2 32.6 31.8 34.5 31.8C36.4 31.8 38 30.2 38 28.3C38 26.7 36.9 25.3 35.5 24.9ZM34.5 29.8C33.6 29.8 33 29.1 33 28.3C33 27.5 33.7 26.8 34.5 26.8C35.4 26.8 36 27.5 36 28.3C36 29.1 35.3 29.8 34.5 29.8Z" fill="#3D75E4"/>
<path d="M24.4 6C24.7 5.5 25.3 5.4 25.8 5.6L32 9.2C32.6 8.6 33.5 8.2 34.4 8.2C36.3 8.2 37.9 9.8 37.9 11.7C37.9 13.6 36.3 15.2 34.4 15.2C32.5 15.2 30.9 13.6 30.9 11.7C30.9 11.4 30.9 11.1 31 10.9L24.8 7.3C24.3 7.1 24.1 6.5 24.4 6ZM34.5 10.2C34 10.2 33.5 10.5 33.2 10.9C33.2 10.9 33.2 10.9 33.2 11C33.2 11 33.2 11 33.2 11.1C33.1 11.3 33 11.5 33 11.8C33 12.6 33.7 13.3 34.5 13.3C35.4 13.3 36 12.6 36 11.8C36 11 35.3 10.2 34.5 10.2Z" fill="#3D75E4"/>
</svg>
