<svg width="40" height="40" viewBox="0 0 40 40" fill="none" xmlns="http://www.w3.org/2000/svg">
<path d="M5 0C2.23858 0 0 2.23858 0 5V17C0 17.5523 0.447715 18 1 18C1.55228 18 2 17.5523 2 17V5C2 3.34315 3.34315 2 5 2H18C18.5523 2 19 2.44771 19 3V7.33682C19 7.67981 19.1758 7.99887 19.4657 8.18212C19.7557 8.36538 20.1193 8.38725 20.4291 8.24008C20.7525 8.08645 21.1147 8 21.5 8C22.8807 8 24 9.11929 24 10.5C24 11.8807 22.8807 13 21.5 13C21.1147 13 20.7525 12.9135 20.4291 12.7599C20.1193 12.6127 19.7557 12.6346 19.4657 12.8179C19.1758 13.0011 19 13.3202 19 13.6632V19H14.9725C14.9907 18.8357 15 18.6689 15 18.5C15 16.0147 12.9853 14 10.5 14C8.01472 14 6 16.0147 6 18.5C6 18.6689 6.00934 18.8357 6.02755 19H3C1.34315 19 0 20.3431 0 22V35C0 37.7614 2.23858 40 5 40H16.5C17.0523 40 17.5 39.5523 17.5 39C17.5 38.4477 17.0523 38 16.5 38H5C3.34315 38 2 36.6569 2 35V22C2 21.4477 2.44772 21 3 21H7.33682C7.67981 21 7.99887 20.8242 8.18212 20.5343C8.36538 20.2443 8.38725 19.8807 8.24008 19.5709C8.08645 19.2475 8 18.8853 8 18.5C8 17.1193 9.11929 16 10.5 16C11.8807 16 13 17.1193 13 18.5C13 18.8853 12.9135 19.2475 12.7599 19.5709C12.6127 19.8807 12.6346 20.2443 12.8179 20.5343C13.0011 20.8242 13.3202 21 13.6632 21H19V25.0275C18.8357 25.0093 18.6689 25 18.5 25C16.0147 25 14 27.0147 14 29.5C14 31.9853 16.0147 34 18.5 34C18.6689 34 18.8357 33.9907 19 33.9725V37C19 38.6569 20.3431 40 22 40H35C37.7614 40 40 37.7614 40 35V23.5C40 22.9477 39.5523 22.5 39 22.5C38.4477 22.5 38 22.9477 38 23.5V35C38 36.6569 36.6569 38 35 38H22C21.4477 38 21 37.5523 21 37V32.6632C21 32.3202 20.8242 32.0011 20.5343 31.8179C20.2443 31.6346 19.8807 31.6127 19.5709 31.7599C19.2475 31.9135 18.8853 32 18.5 32C17.1193 32 16 30.8807 16 29.5C16 28.1193 17.1193 27 18.5 27C18.8853 27 19.2475 27.0865 19.5709 27.2401C19.8807 27.3873 20.2443 27.3654 20.5343 27.1821C20.8242 26.9989 21 26.6798 21 26.3368V21H25.0275C25.0093 21.1643 25 21.3311 25 21.5C25 23.9853 27.0147 26 29.5 26C31.9853 26 34 23.9853 34 21.5C34 21.3311 33.9907 21.1643 33.9725 21H37C38.6569 21 40 19.6569 40 18V5C40 2.23858 37.7614 0 35 0H23.5C22.9477 0 22.5 0.447715 22.5 0.999999C22.5 1.55228 22.9477 2 23.5 2H35C36.6569 2 38 3.34315 38 5V18C38 18.5523 37.5523 19 37 19H32.6632C32.3202 19 32.0011 19.1758 31.8179 19.4657C31.6346 19.7557 31.6127 20.1193 31.7599 20.4291C31.9135 20.7525 32 21.1147 32 21.5C32 22.8807 30.8807 24 29.5 24C28.1193 24 27 22.8807 27 21.5C27 21.1147 27.0865 20.7525 27.2401 20.4291C27.3873 20.1193 27.3654 19.7557 27.1821 19.4657C26.9989 19.1758 26.6798 19 26.3368 19H21V14.9725C21.1643 14.9907 21.3311 15 21.5 15C23.9853 15 26 12.9853 26 10.5C26 8.01472 23.9853 6 21.5 6C21.3311 6 21.1643 6.00934 21 6.02755V3C21 1.34314 19.6569 0 18 0H5Z" fill="#3D75E4"/>
</svg>
