<svg width="40" height="40" viewBox="0 0 40 40" fill="none" xmlns="http://www.w3.org/2000/svg">
<path d="M14.3967 0C12.2806 0 9.09554 0.617371 6.65186 2.47844C6.28615 2.75696 6.15748 3.2475 6.33968 3.66858L7.0806 5.38091C7.79481 7.0315 9.69131 7.57522 11.1856 7.17186C12.3535 6.85663 13.6124 6.7162 14.6792 6.70214C15.2112 6.69513 15.6809 6.71975 16.0553 6.76535C16.452 6.81367 16.6693 6.87726 16.7424 6.91037C17.2472 7.1389 17.8424 6.91658 18.0719 6.4138C18.3014 5.91102 18.0781 5.31817 17.5733 5.08963C17.2179 4.92873 16.7572 4.83595 16.2991 4.78014C15.8186 4.72161 15.2567 4.69436 14.6527 4.70232C13.4476 4.7182 12.0177 4.87513 10.6604 5.2415C9.87252 5.45416 9.14631 5.10147 8.92473 4.58938L8.5089 3.62835C10.4122 2.4431 12.7605 2 14.3967 2C17.1833 2 18.4987 2.88604 18.9149 3.32527V7L18.9151 7.01574C18.9126 9.35168 18.3627 11.4172 17.5263 12.8653C16.6724 14.3438 15.644 15 14.721 15C14.0586 15 13.1117 14.5155 12.2789 13.4025C11.472 12.324 10.8827 10.7833 10.8827 9C10.8827 8.44772 10.4332 8 9.87866 8C9.32414 8 8.87462 8.44772 8.87462 9C8.87462 11.2167 9.60518 13.176 10.6688 14.5975C11.7065 15.9845 13.1808 17 14.721 17C16.6689 17 18.2395 15.6415 19.267 13.8626C20.31 12.0566 20.9232 9.62816 20.9232 7L20.923 6.98373V3.25686C20.923 2.94904 20.8532 2.5329 20.5619 2.16673C19.7613 1.16034 17.7984 0 14.3967 0Z" fill="#3D75E4"/>
<path d="M10.2242 18.2572C11.1368 17.9989 11.9991 18.2799 12.6121 18.5862C13.9834 19.2713 15.8145 19.2712 17.1859 18.5861C17.7997 18.2794 18.6634 17.9993 19.5755 18.2576C21.6676 18.8501 24.4774 20.117 26.6509 22.2665C27.0444 22.6557 27.0467 23.2888 26.6559 23.6807C26.2652 24.0726 25.6295 24.0749 25.236 23.6857C23.3717 21.842 20.8985 20.7115 19.0263 20.1814C18.8195 20.1228 18.5121 20.161 18.0862 20.3738C16.1483 21.342 13.6497 21.342 11.7117 20.3739C11.285 20.1607 10.9794 20.1226 10.7732 20.181C9.22675 20.6188 7.25412 21.4712 5.55805 22.808C3.86821 24.1399 2.49606 25.9155 2.02411 28.2123C1.98419 28.4066 2.03889 28.5797 2.17753 28.7265C2.3257 28.8834 2.56737 29 2.85045 29H18.4131C18.9677 29 19.4172 29.4477 19.4172 30C19.4172 30.5523 18.9677 31 18.4131 31H2.85045C1.25905 31 -0.321942 29.6545 0.0567954 27.8113C0.648279 24.9328 2.36075 22.7775 4.31192 21.2396C6.25686 19.7067 8.48164 18.7505 10.2242 18.2572Z" fill="#3D75E4"/>
<path d="M40 22C40 21.4477 39.5505 21 38.996 21H37.1025C35.6205 21 34.3586 22.0738 34.1273 23.5318L33.9665 24.5457L22.0502 24.9607C20.8253 25.0034 19.9242 26.1195 20.1452 27.3202L20.5706 29.6312C20.8216 30.9948 21.978 32.0095 23.3678 32.0857L30.9084 32.4991C31.4621 32.5294 31.9356 32.107 31.9661 31.5556C31.9966 31.0041 31.5724 30.5325 31.0187 30.5021L23.4782 30.0887C23.0149 30.0633 22.6295 29.7251 22.5458 29.2705L22.1204 26.9595L33.6472 26.558L32.6005 33.1561C32.5234 33.6421 32.1028 34 31.6087 34H22.9325C22.3779 34 21.9284 34.4477 21.9284 35C21.9284 35.5523 22.3779 36 22.9325 36H31.6087C33.0908 36 34.3527 34.9262 34.584 33.4682L36.1108 23.8439C36.1879 23.3579 36.6085 23 37.1025 23H38.996C39.5505 23 40 22.5523 40 22Z" fill="#3D75E4"/>
<path d="M24.4373 40C25.2691 40 25.9434 39.3284 25.9434 38.5C25.9434 37.6716 25.2691 37 24.4373 37C23.6055 37 22.9312 37.6716 22.9312 38.5C22.9312 39.3284 23.6055 40 24.4373 40Z" fill="#3D75E4"/>
<path d="M32.9717 38.5C32.9717 39.3284 32.2974 40 31.4656 40C30.6338 40 29.9596 39.3284 29.9596 38.5C29.9596 37.6716 30.6338 37 31.4656 37C32.2974 37 32.9717 37.6716 32.9717 38.5Z" fill="#3D75E4"/>
</svg>
