<svg width="40" height="40" viewBox="0 0 40 40" fill="none" xmlns="http://www.w3.org/2000/svg">
<g clip-path="url(#clip0)">
<path fill-rule="evenodd" clip-rule="evenodd" d="M0 17C0 15.3431 1.34315 14 3 14H15C16.6569 14 18 15.3431 18 17V24C18 24.5523 17.5523 25 17 25C16.4477 25 16 24.5523 16 24V17C16 16.4477 15.5523 16 15 16H3C2.44771 16 2 16.4477 2 17V37C2 37.5523 2.44772 38 3 38H15C15.5523 38 16 37.5523 16 37V35.5C16 33.8431 17.3431 32.5 19 32.5H26.5C27.0523 32.5 27.5 32.9477 27.5 33.5C27.5 34.0523 27.0523 34.5 26.5 34.5H19C18.4477 34.5 18 34.9477 18 35.5V37C18 38.6569 16.6569 40 15 40H3C1.34315 40 0 38.6569 0 37V17Z" fill="#3D75E4"/>
<path d="M26.0814 20.0607C25.4956 19.4749 24.5459 19.4749 23.9601 20.0607L16.1819 27.8388C15.8678 28.1529 15.7221 28.5717 15.7449 28.9828L13.7071 31.0206C13.3166 31.4112 13.3166 32.0443 13.7071 32.4349C14.0976 32.8254 14.7308 32.8254 15.1213 32.4349L17.159 30.3972C17.5702 30.42 17.9891 30.2743 18.3032 29.9602L26.0814 22.182C26.6672 21.5962 26.6672 20.6465 26.0814 20.0607Z" fill="#3D75E4"/>
<path fill-rule="evenodd" clip-rule="evenodd" d="M6 18C6 17.4477 6.44772 17 7 17H11C11.5523 17 12 17.4477 12 18C12 18.5523 11.5523 19 11 19H7C6.44772 19 6 18.5523 6 18Z" fill="#3D75E4"/>
<path fill-rule="evenodd" clip-rule="evenodd" d="M35 23C34.4477 23 34 22.5523 34 22V20C34 19.4477 34.4477 19 35 19C35.5523 19 36 19.4477 36 20V22C36 22.5523 35.5523 23 35 23Z" fill="#3D75E4"/>
<path fill-rule="evenodd" clip-rule="evenodd" d="M35 28C34.4477 28 34 27.5523 34 27V25C34 24.4477 34.4477 24 35 24C35.5523 24 36 24.4477 36 25V27C36 27.5523 35.5523 28 35 28Z" fill="#3D75E4"/>
<path fill-rule="evenodd" clip-rule="evenodd" d="M31 23C30.4477 23 30 22.5523 30 22V20C30 19.4477 30.4477 19 31 19C31.5523 19 32 19.4477 32 20V22C32 22.5523 31.5523 23 31 23Z" fill="#3D75E4"/>
<path fill-rule="evenodd" clip-rule="evenodd" d="M31 28C30.4477 28 30 27.5523 30 27V25C30 24.4477 30.4477 24 31 24C31.5523 24 32 24.4477 32 25V27C32 27.5523 31.5523 28 31 28Z" fill="#3D75E4"/>
<path fill-rule="evenodd" clip-rule="evenodd" d="M4 23C4 22.4477 4.44772 22 5 22H13C13.5523 22 14 22.4477 14 23C14 23.5523 13.5523 24 13 24H5C4.44772 24 4 23.5523 4 23Z" fill="#3D75E4"/>
<path fill-rule="evenodd" clip-rule="evenodd" d="M4 26C4 25.4477 4.44772 25 5 25H13C13.5523 25 14 25.4477 14 26C14 26.5523 13.5523 27 13 27H5C4.44772 27 4 26.5523 4 26Z" fill="#3D75E4"/>
<path fill-rule="evenodd" clip-rule="evenodd" d="M4 29C4 28.4477 4.44772 28 5 28H10C10.5523 28 11 28.4477 11 29C11 29.5523 10.5523 30 10 30H5C4.44772 30 4 29.5523 4 29Z" fill="#3D75E4"/>
<path fill-rule="evenodd" clip-rule="evenodd" d="M6.18043 34.1959C6.04013 34.2935 6 34.3835 6 34.5C6 35.0523 5.55228 35.5 5 35.5C4.44772 35.5 4 35.0523 4 34.5C4 33.6165 4.45987 32.9565 5.03831 32.5541C5.59094 32.1697 6.26697 32 6.87499 32C7.45529 32 8.18399 32.1591 8.68265 32.691C8.93136 32.9563 9.10044 33.2955 9.14732 33.6856C9.54215 33.589 10.0022 33.5264 10.4901 33.5752C11.3043 33.6566 12.1126 34.0398 12.7809 34.8752C13.1259 35.3065 13.056 35.9358 12.6247 36.2808C12.1934 36.6258 11.5641 36.5559 11.2191 36.1246C10.8874 35.71 10.5707 35.5932 10.2911 35.5653C9.96552 35.5327 9.60203 35.6146 9.21134 35.7542C9.07321 35.8035 8.95621 35.8504 8.83416 35.8993C8.77909 35.9214 8.72298 35.9439 8.66345 35.9672C8.5777 36.0008 8.47756 36.0387 8.3786 36.0695C8.29111 36.0967 8.13984 36.1395 7.9673 36.1474C7.8115 36.1544 7.41701 36.1421 7.10091 35.8089C6.78597 35.4769 6.79149 35.082 6.80741 34.918C6.83763 34.6068 6.9893 34.2853 7.10557 34.0527C7.11026 34.0434 7.11455 34.0345 7.11848 34.026C7.06236 34.0121 6.98279 34 6.87501 34C6.60803 34 6.34655 34.0804 6.18043 34.1959Z" fill="#3D75E4"/>
<path fill-rule="evenodd" clip-rule="evenodd" d="M17.6 2C17.6 0.89543 16.7046 7.46695e-10 15.6 7.46695e-10H12C10.8954 7.46695e-10 10 0.895431 10 2V11.5C10 12.0523 10.4477 12.5 11 12.5C11.5523 12.5 12 12.0523 12 11.5V2L15.6 2V10.3603C15.6 10.9588 15.868 11.5259 16.3305 11.9058L21.7972 16.3963C23.1024 17.4684 25.0667 16.5399 25.0667 14.8508L25.0667 12.9486L29.2639 16.3963C30.569 17.4684 32.5333 16.5399 32.5333 14.8508V12.9486L38 17.4391V32.5H30C29.4477 32.5 29 32.9477 29 33.5C29 34.0523 29.4477 34.5 30 34.5H38C39.1046 34.5 40 33.6046 40 32.5V17.4391C40 16.8406 39.732 16.2735 39.2695 15.8936L33.8028 11.4031C32.4976 10.331 30.5333 11.2595 30.5333 12.9486V14.8508L26.3361 11.4031C25.031 10.331 23.0667 11.2595 23.0667 12.9486V14.8508L17.6 10.3603V2Z" fill="#3D75E4"/>
<path fill-rule="evenodd" clip-rule="evenodd" d="M33.7726 3.95201C34.1233 4.37869 34.0616 5.00885 33.635 5.3595C32.6449 6.17315 31.6798 6.46732 30.7216 6.3736C29.874 6.29071 29.1272 5.90318 28.57 5.61404C28.5499 5.60359 28.53 5.59327 28.5104 5.58309C27.878 5.25548 27.4526 5.04912 27.0245 5.00726C26.6764 4.97322 26.2245 5.04282 25.5756 5.57605C25.1489 5.9267 24.5188 5.86508 24.1681 5.4384C23.8175 5.01172 23.8791 4.38156 24.3058 4.0309C25.2958 3.21724 26.261 2.92305 27.2192 3.01675C28.0667 3.09964 28.8135 3.48717 29.3707 3.77632C29.3909 3.78676 29.4107 3.79708 29.4304 3.80725C30.0628 4.13487 30.4882 4.34123 30.9163 4.3831C31.2643 4.41715 31.7163 4.34755 32.3651 3.81434C32.7918 3.46369 33.422 3.52532 33.7726 3.95201Z" fill="#3D75E4"/>
<path fill-rule="evenodd" clip-rule="evenodd" d="M39.7726 0.952006C40.1233 1.37869 40.0616 2.00885 39.635 2.3595C38.6449 3.17315 37.6798 3.46732 36.7216 3.3736C35.874 3.29071 35.1272 2.90318 34.57 2.61404C34.5499 2.60359 34.53 2.59327 34.5104 2.58309C33.878 2.25548 33.4526 2.04912 33.0245 2.00726C32.6764 1.97322 32.2245 2.04282 31.5756 2.57605C31.1489 2.9267 30.5188 2.86508 30.1681 2.4384C29.8175 2.01172 29.8791 1.38156 30.3058 1.0309C31.2958 0.217239 32.261 -0.0769545 33.2192 0.0167531C34.0667 0.0996398 34.8135 0.487172 35.3707 0.776317C35.3909 0.786764 35.4107 0.797083 35.4304 0.807254C36.0628 1.13487 36.4882 1.34123 36.9163 1.3831C37.2643 1.41715 37.7163 1.34755 38.3651 0.814342C38.7918 0.463688 39.422 0.525322 39.7726 0.952006Z" fill="#3D75E4"/>
<path fill-rule="evenodd" clip-rule="evenodd" d="M23.2929 30.2929C23.6834 29.9024 24.3166 29.9024 24.7071 30.2929L27.2071 32.7929C27.5976 33.1834 27.5976 33.8166 27.2071 34.2071L24.7071 36.7071C24.3166 37.0976 23.6834 37.0976 23.2929 36.7071C22.9024 36.3166 22.9024 35.6834 23.2929 35.2929L25.0858 33.5L23.2929 31.7071C22.9024 31.3166 22.9024 30.6834 23.2929 30.2929Z" fill="#3D75E4"/>
</g>
<defs>
<clipPath id="clip0">
<rect width="40" height="40" fill="white"/>
</clipPath>
</defs>
</svg>
