<svg width="40" height="40" viewBox="0 0 40 40" fill="none" xmlns="http://www.w3.org/2000/svg">
<path d="M19 3C19 2.44772 19.4477 2 20 2C20.5523 2 21 2.44772 21 3V4C21 4.55228 21.4477 5 22 5H35C35.5523 5 36 5.44772 36 6V27C36 27.5523 35.5523 28 35 28H33C32.4477 28 32 28.4477 32 29C32 29.5523 32.4477 30 33 30H35C36.6569 30 38 28.6569 38 27V6C38 4.34315 36.6569 3 35 3H23C23 1.34315 21.6569 0 20 0C18.3431 0 17 1.34315 17 3V4C17 4.55228 17.4477 5 18 5C18.5523 5 19 4.55228 19 4V3Z" fill="#3D75E4"/>
<path d="M4 6C4 5.44772 4.44772 5 5 5H15C15.5523 5 16 4.55228 16 4C16 3.44772 15.5523 3 15 3H5C3.34315 3 2 4.34314 2 6V27C2 28.6569 3.34315 30 5 30H7C7.55228 30 8 29.5523 8 29C8 28.4477 7.55228 28 7 28H5C4.44772 28 4 27.5523 4 27V6Z" fill="#3D75E4"/>
<path d="M10 28C9.44772 28 9 28.4477 9 29C9 29.5523 9.44772 30 10 30H19V39C19 39.5523 19.4477 40 20 40C20.5523 40 21 39.5523 21 39V34.8684L25.4454 37.832C25.9049 38.1384 26.5258 38.0142 26.8322 37.5547C27.1385 37.0952 27.0143 36.4743 26.5548 36.1679L21 32.4647V30H30C30.5523 30 31 29.5523 31 29C31 28.4477 30.5523 28 30 28H10Z" fill="#3D75E4"/>
<path d="M21 9C21 8.44771 21.4477 8 22 8H32C32.5523 8 33 8.44771 33 9C33 9.55229 32.5523 10 32 10H22C21.4477 10 21 9.55229 21 9Z" fill="#3D75E4"/>
<path d="M8 8C7.44772 8 7 8.44771 7 9C7 9.55229 7.44772 10 8 10H14C14.5523 10 15 9.55229 15 9C15 8.44771 14.5523 8 14 8H8Z" fill="#3D75E4"/>
<path d="M7 12C7 11.4477 7.44772 11 8 11H10C10.5523 11 11 11.4477 11 12C11 12.5523 10.5523 13 10 13H8C7.44772 13 7 12.5523 7 12Z" fill="#3D75E4"/>
<path d="M26 11C25.4477 11 25 11.4477 25 12C25 12.5523 25.4477 13 26 13H32C32.5523 13 33 12.5523 33 12C33 11.4477 32.5523 11 32 11H26Z" fill="#3D75E4"/>
<path d="M18.3319 33.4453C18.0256 32.9858 17.4047 32.8616 16.9452 33.1679L12.4452 36.1679C11.9857 36.4743 11.8615 37.0952 12.1678 37.5547C12.4742 38.0142 13.0951 38.1384 13.5546 37.832L18.0546 34.832C18.5141 34.5257 18.6383 33.9048 18.3319 33.4453Z" fill="#3D75E4"/>
<path d="M32.6247 16.2191C33.0559 16.5641 33.1259 17.1934 32.7808 17.6247L28.7808 22.6247C28.4863 22.9929 27.9745 23.1053 27.5528 22.8944L24.4472 21.3416L22.8944 24.4472C22.6474 24.9412 22.0467 25.1414 21.5528 24.8944C21.0588 24.6474 20.8586 24.0467 21.1055 23.5528L23.1055 19.5528C23.3525 19.0588 23.9532 18.8586 24.4472 19.1055L27.7241 20.744L31.2191 16.3753C31.5641 15.944 32.1934 15.8741 32.6247 16.2191Z" fill="#3D75E4"/>
<path d="M23 13C23.5523 13 24 12.5523 24 12C24 11.4477 23.5523 11 23 11C22.4477 11 22 11.4477 22 12C22 12.5523 22.4477 13 23 13Z" fill="#3D75E4"/>
<path fill-rule="evenodd" clip-rule="evenodd" d="M7 20C7 17.2386 9.23858 15 12 15C12.5523 15 13 15.4477 13 16V19H16C16.5523 19 17 19.4477 17 20C17 22.7614 14.7614 25 12 25C9.23858 25 7 22.7614 7 20ZM11 17.1707C9.83481 17.5825 9 18.6938 9 20C9 21.6569 10.3431 23 12 23C13.3062 23 14.4175 22.1652 14.8293 21H12C11.4477 21 11 20.5523 11 20V17.1707Z" fill="#3D75E4"/>
<path fill-rule="evenodd" clip-rule="evenodd" d="M20 17C20 14.2386 17.7614 12 15 12C14.4477 12 14 12.4477 14 13V17C14 17.5523 14.4477 18 15 18H19C19.5523 18 20 17.5523 20 17ZM16 16V14.1707C16.8524 14.472 17.528 15.1476 17.8293 16H16Z" fill="#3D75E4"/>
</svg>
