<svg width="40" height="40" viewBox="0 0 40 40" fill="none" xmlns="http://www.w3.org/2000/svg">
<path d="M2 3C2 2.44772 2.44772 2 3 2H37C37.5523 2 38 2.44771 38 3V16C38 16.5523 37.5523 17 37 17H35.618L34.4472 14.6584C33.939 13.642 32.9002 13 31.7639 13H31C30.4477 13 30 13.4477 30 14C30 14.5523 30.4477 15 31 15H31.7639C32.1427 15 32.489 15.214 32.6584 15.5528L34.1056 18.4472C34.275 18.786 34.6212 19 35 19H37C38.6569 19 40 17.6569 40 16V3C40 1.34315 38.6569 0 37 0H3C1.34315 0 0 1.34315 0 3V16C0 17.6569 1.34315 19 3 19H5C5.37877 19 5.72504 18.786 5.89443 18.4472L7.34164 15.5528C7.51103 15.214 7.8573 15 8.23607 15H9C9.55229 15 10 14.5523 10 14C10 13.4477 9.55229 13 9 13H8.23607C7.09975 13 6.06096 13.642 5.55279 14.6584L4.38197 17H3C2.44772 17 2 16.5523 2 16V3Z" fill="#3D75E4"/>
<path d="M5 8C4.44772 8 4 8.44771 4 9C4 9.55229 4.44772 10 5 10H10C10.5523 10 11 9.55229 11 9C11 8.44771 10.5523 8 10 8H5Z" fill="#3D75E4"/>
<path d="M11 14C11 13.4477 11.4477 13 12 13H28C28.5523 13 29 13.4477 29 14C29 14.5523 28.5523 15 28 15H12C11.4477 15 11 14.5523 11 14Z" fill="#3D75E4"/>
<path d="M9 16C8.44771 16 8 16.4477 8 17C8 17.5523 8.44771 18 9 18H31C31.5523 18 32 17.5523 32 17C32 16.4477 31.5523 16 31 16H9Z" fill="#3D75E4"/>
<path d="M15 21C15 20.4477 14.5523 20 14 20C13.4477 20 13 20.4477 13 21V26C13 26.5523 13.4477 27 14 27C14.5523 27 15 26.5523 15 26V21Z" fill="#3D75E4"/>
<path d="M10 21C10.5523 21 11 21.4477 11 22V30C11 30.5523 10.5523 31 10 31C9.44771 31 9 30.5523 9 30V22C9 21.4477 9.44771 21 10 21Z" fill="#3D75E4"/>
<path d="M31 22C31 21.4477 30.5523 21 30 21C29.4477 21 29 21.4477 29 22V30C29 30.5523 29.4477 31 30 31C30.5523 31 31 30.5523 31 30V22Z" fill="#3D75E4"/>
<path fill-rule="evenodd" clip-rule="evenodd" d="M21 27C21 26.4477 20.5523 26 20 26C19.4477 26 19 26.4477 19 27V28.5858L18.7071 28.2929C18.3166 27.9024 17.6834 27.9024 17.2929 28.2929C16.9024 28.6834 16.9024 29.3166 17.2929 29.7071L18.1918 30.606C17.9706 30.7733 17.7733 30.9706 17.606 31.1918L16.7071 30.2929C16.3166 29.9024 15.6834 29.9024 15.2929 30.2929C14.9024 30.6834 14.9024 31.3166 15.2929 31.7071L15.5858 32H14C13.4477 32 13 32.4477 13 33C13 33.5523 13.4477 34 14 34H15.5858L15.2929 34.2929C14.9024 34.6834 14.9024 35.3166 15.2929 35.7071C15.6834 36.0976 16.3166 36.0976 16.7071 35.7071L17.606 34.8082C17.7733 35.0294 17.9706 35.2267 18.1918 35.394L17.2929 36.2929C16.9024 36.6834 16.9024 37.3166 17.2929 37.7071C17.6834 38.0976 18.3166 38.0976 18.7071 37.7071L19 37.4142V39C19 39.5523 19.4477 40 20 40C20.5523 40 21 39.5523 21 39V37.4142L21.2929 37.7071C21.6834 38.0976 22.3166 38.0976 22.7071 37.7071C23.0976 37.3166 23.0976 36.6834 22.7071 36.2929L21.8082 35.394C22.0294 35.2267 22.2267 35.0294 22.394 34.8082L23.2929 35.7071C23.6834 36.0976 24.3166 36.0976 24.7071 35.7071C25.0976 35.3166 25.0976 34.6834 24.7071 34.2929L24.4142 34H26C26.5523 34 27 33.5523 27 33C27 32.4477 26.5523 32 26 32H24.4142L24.7071 31.7071C25.0976 31.3166 25.0976 30.6834 24.7071 30.2929C24.3166 29.9024 23.6834 29.9024 23.2929 30.2929L22.394 31.1918C22.2267 30.9706 22.0294 30.7733 21.8082 30.606L22.7071 29.7071C23.0976 29.3166 23.0976 28.6834 22.7071 28.2929C22.3166 27.9024 21.6834 27.9024 21.2929 28.2929L21 28.5858V27ZM20 34C19.448 34 19.0004 33.5527 19 33.0007C19 32.4484 19.4477 32 20 32C20.552 32 20.9996 32.4473 21 32.9993C21 33.5516 20.5523 34 20 34Z" fill="#3D75E4"/>
<path d="M26 20C26.5523 20 27 20.4477 27 21V26C27 26.5523 26.5523 27 26 27C25.4477 27 25 26.5523 25 26V21C25 20.4477 25.4477 20 26 20Z" fill="#3D75E4"/>
<path d="M35 23C35 22.4477 34.5523 22 34 22C33.4477 22 33 22.4477 33 23V31C33 33.2091 34.7909 35 37 35C37.5523 35 38 34.5523 38 34C38 33.4477 37.5523 33 37 33C35.8954 33 35 32.1046 35 31V23Z" fill="#3D75E4"/>
<path d="M6 22C5.44772 22 5 22.4477 5 23V31C5 32.1046 4.10457 33 3 33C2.44772 33 2 33.4477 2 34C2 34.5523 2.44772 35 3 35C5.20914 35 7 33.2091 7 31V23C7 22.4477 6.55228 22 6 22Z" fill="#3D75E4"/>
<path d="M15 9C15 9.55229 14.5523 10 14 10C13.4477 10 13 9.55229 13 9C13 8.44771 13.4477 8 14 8C14.5523 8 15 8.44771 15 9Z" fill="#3D75E4"/>
</svg>
