<svg width="40" height="40" viewBox="0 0 40 40" fill="none" xmlns="http://www.w3.org/2000/svg">
<g clip-path="url(#clip0)">
<path d="M14.959 4.5C14.959 3.65252 15.1726 3.02182 15.4908 2.6247C15.7849 2.25761 16.2374 2 16.9623 2C17.3545 2 18.1231 2.31522 18.8497 2.98481C19.5645 3.64355 19.9673 4.39665 19.9673 5C19.9673 5.55228 20.4158 6 20.969 6C21.5221 6 21.9706 5.55228 21.9706 5C21.9706 3.60335 21.1213 2.35645 20.2084 1.51519C19.3073 0.684785 18.0726 0 16.9623 0C15.8784 0 14.9586 0.354037 14.2726 1H13.9574C12.8165 1 11.7567 1.59318 11.0326 2.798C10.4403 3.78354 10.0724 5.1677 9.97615 7H9.95085C9.39766 7 8.94921 7.44772 8.94921 8C8.94921 8.55229 9.39766 9 9.95085 9H10.8468C11.0445 9 11.2378 9.05844 11.4024 9.16795L11.8955 9.49615C12.3891 9.82469 12.9691 10 13.5623 10H18.3591C18.9251 10 19.479 9.8404 19.9574 9.54038C19.8803 11.6602 19.3532 13.5266 18.5818 14.8653C17.73 16.3438 16.704 17 15.7833 17C15.1224 17 14.1778 16.5155 13.347 15.4025C12.542 14.324 11.9541 12.7833 11.9541 11C11.9541 10.4477 11.5057 10 10.9525 10C10.3993 10 9.95085 10.4477 9.95085 11C9.95085 13.2167 10.6797 15.176 11.7407 16.5975C12.776 17.9845 14.2467 19 15.7833 19C17.7264 19 19.2933 17.6415 20.3183 15.8626C21.3588 14.0566 21.9705 11.6282 21.9705 9C22.5237 9 22.9721 8.55229 22.9721 8C22.9721 7.44772 22.5237 7 21.9705 7H21.0746C20.4813 7 19.9014 7.17531 19.4078 7.50385L18.9147 7.83205C18.7501 7.94156 18.5568 8 18.3591 8H13.5623C13.3646 8 13.1712 7.94156 13.0067 7.83205L12.5136 7.50385C12.3422 7.38976 12.1603 7.29415 11.9712 7.21794C12.0479 5.5184 12.3739 4.45347 12.7504 3.827C12.8467 3.6668 12.9452 3.53595 13.0444 3.42955C12.9842 3.77824 12.9558 4.13748 12.9558 4.5C12.9558 5.05228 13.4042 5.5 13.9574 5.5C14.5106 5.5 14.959 5.05228 14.959 4.5Z" fill="#3D75E4"/>
<path d="M10.6662 20.0066C11.2563 19.2702 12.2815 19.0454 13.1264 19.4671L14.4055 20.1056C14.9003 20.3526 15.1009 20.9532 14.8535 21.4472C14.6061 21.9412 14.0044 22.1414 13.5096 21.8944L12.2305 21.256L11.1739 22.5746C10.7423 23.1132 10.1514 23.467 9.52302 23.6336C7.7892 24.0932 5.4594 24.994 3.45427 26.4809C3.33484 26.5694 3.24493 26.6908 3.19541 26.8293C2.56011 28.6064 2.15704 30.8668 2.00555 33.0701C1.97259 33.5496 2.36746 34 2.93948 34H14.959L14.959 23.2361C14.959 22.0998 15.6021 21.061 16.6201 20.5528L18.795 19.4671C19.6399 19.0453 20.6651 19.2701 21.2552 20.0066L22.7527 21.8753C23.0982 22.3066 23.0282 22.9359 22.5962 23.2809C22.1643 23.6259 21.5339 23.556 21.1884 23.1247L19.6909 21.256L17.516 22.3416C17.1767 22.511 16.9623 22.8573 16.9623 23.2361L16.9623 34H21.9706C22.5238 34 22.9722 34.4477 22.9722 35C22.9722 35.5523 22.5238 36 21.9706 36H2.93948C1.29874 36 -0.111594 34.6577 0.00697391 32.9332C0.166909 30.607 0.59436 28.1552 1.30869 26.157C1.4919 25.6445 1.8234 25.1989 2.25979 24.8753C4.52706 23.1941 7.11099 22.2037 9.00896 21.7006C9.26335 21.6331 9.47069 21.4986 9.60964 21.3252L10.6662 20.0066Z" fill="#3D75E4"/>
<path d="M5.94429 27C5.3911 27 4.94266 27.4477 4.94266 28C4.94266 28.5523 5.3911 29 5.94429 29H9.95085C10.504 29 10.9525 28.5523 10.9525 28C10.9525 27.4477 10.504 27 9.95085 27H5.94429Z" fill="#3D75E4"/>
<path d="M25.9771 24C25.9771 23.4477 26.4255 23 26.9787 23C27.5319 23 27.9803 22.5523 27.9803 22C27.9803 21.4477 27.5319 21 26.9787 21C25.3191 21 23.9738 22.3431 23.9738 24V37C23.9738 38.6569 25.3191 40 26.9787 40H36.9951C38.6547 40 40 38.6569 40 37V24C40 22.3431 38.6547 21 36.9951 21C36.4419 21 35.9934 21.4477 35.9934 22C35.9934 22.5523 36.4419 23 36.9951 23C37.5483 23 37.9967 23.4477 37.9967 24V37C37.9967 37.5523 37.5483 38 36.9951 38H26.9787C26.4255 38 25.9771 37.5523 25.9771 37V24Z" fill="#3D75E4"/>
<path fill-rule="evenodd" clip-rule="evenodd" d="M28.982 22C28.982 20.3431 30.3273 19 31.9869 19C33.6465 19 34.9918 20.3431 34.9918 22V23C35.545 23 35.9934 23.4477 35.9934 24C35.9934 24.5523 35.545 25 34.9918 25H28.982C28.4288 25 27.9803 24.5523 27.9803 24C27.9803 23.4477 28.4288 23 28.982 23V22ZM32.9885 23H30.9853V22C30.9853 21.4477 31.4337 21 31.9869 21C32.5394 21 32.9875 21.4467 32.9885 21.998V23Z" fill="#3D75E4"/>
<path d="M28.982 29C28.4288 29 27.9803 29.4477 27.9803 30C27.9803 30.5523 28.4288 31 28.982 31H34.9918C35.545 31 35.9934 30.5523 35.9934 30C35.9934 29.4477 35.545 29 34.9918 29H28.982Z" fill="#3D75E4"/>
<path d="M27.9803 33C27.9803 32.4477 28.4288 32 28.982 32H34.9918C35.545 32 35.9934 32.4477 35.9934 33C35.9934 33.5523 35.545 34 34.9918 34H28.982C28.4288 34 27.9803 33.5523 27.9803 33Z" fill="#3D75E4"/>
</g>
<defs>
<clipPath id="clip0">
<rect width="40" height="40" fill="white"/>
</clipPath>
</defs>
</svg>
