<svg width="40" height="40" viewBox="0 0 40 40" fill="none" xmlns="http://www.w3.org/2000/svg">
<path d="M20 2.00112C12.268 2.00112 6 8.27265 6 16.009C6 26.5515 14.146 33.5526 19.4304 37.7824C19.7964 38.0754 20.3051 38.0679 20.6513 37.7787C23.0627 35.7642 26.1676 32.9089 28.7822 29.6038C29.5761 28.6002 29.5014 27.1319 28.5862 26.0998L26.7668 24.0481C26.5106 23.7593 26.1112 23.6437 25.7405 23.7511L24.0244 24.2485C23.2637 24.469 22.4445 24.2196 21.9355 23.6124L15.9097 16.4235C15.364 15.7725 15.2887 14.8476 15.7219 14.1168L16.4679 12.8583C16.6845 12.4929 16.6468 12.0304 16.374 11.7049L14.6751 9.67811C14.2483 9.169 13.4533 9.20984 13.0809 9.76L12.3277 10.8728C11.0901 12.7011 11.1958 15.1177 12.5925 16.8187C15.5154 20.3785 19.8861 25.6539 21.816 27.7475C22.8024 28.8176 23.746 29.2828 24.4059 29.4888C24.7394 29.5928 25.0079 29.6329 25.1817 29.6479C25.2685 29.6554 25.3315 29.6567 25.3668 29.6565C25.383 29.6564 25.3933 29.6561 25.3973 29.6559C25.9424 29.6167 26.4192 30.0234 26.4652 30.5698C26.5116 31.1205 26.1031 31.6045 25.5528 31.6509C25.4125 29.9865 25.5532 31.6509 25.5516 31.651L25.5504 31.6511L25.5477 31.6514L25.5418 31.6518L25.5276 31.6528C25.5171 31.6535 25.5043 31.6542 25.4895 31.6549C25.4599 31.6563 25.4218 31.6574 25.3759 31.6576C25.284 31.658 25.1605 31.6547 25.0096 31.6416C24.7079 31.6156 24.296 31.5507 23.8104 31.3991C22.8319 31.0937 21.5816 30.4449 20.3458 29.1042C18.3677 26.9583 13.9541 21.6293 11.0472 18.089C9.08381 15.6979 8.94111 12.3074 10.6717 9.75063L11.4249 8.63786C12.5421 6.98737 14.9272 6.86485 16.2075 8.39218L17.9064 10.419C18.725 11.3955 18.8379 12.7828 18.1881 13.8791L17.4421 15.1376L23.4679 22.3264L25.1841 21.829C26.2962 21.5067 27.4944 21.8535 28.2628 22.72L30.0822 24.7717C31.5738 26.4537 31.8071 29.0043 30.3504 30.8458C27.6172 34.3007 24.3982 37.2554 21.9331 39.3148C20.8432 40.2253 19.2759 40.2214 18.181 39.345C12.9624 35.1679 4 27.617 4 16.009C4 7.16746 11.1634 0 20 0C28.8366 0 36 7.16746 36 16.009C36 19.5787 35.1554 22.7287 33.8307 25.4961C33.5921 25.9944 32.9949 26.2049 32.4968 25.9662C31.9987 25.7276 31.7883 25.13 32.0269 24.6316C33.2356 22.1065 34 19.2504 34 16.009C34 8.27265 27.732 2.00112 20 2.00112Z" fill="#3D75E4"/>
<path d="M24.7891 17.053C25.11 15.5622 24.1486 14.0749 22.6131 13.7495C22.0728 13.6349 21.7291 13.1042 21.8454 12.564C21.9617 12.0238 22.4939 11.6787 23.0342 11.7932C25.6292 12.3432 27.3037 14.8755 26.7456 17.4677C26.6294 18.0079 26.0971 18.353 25.5568 18.2384C25.0165 18.1239 24.6728 17.5932 24.7891 17.053Z" fill="#3D75E4"/>
<path d="M22.1223 9.30483C26.4114 10.2139 29.1301 14.3809 28.2232 18.5937C28.1069 19.1339 28.4506 19.6646 28.9909 19.7792C29.5312 19.8937 30.0635 19.5486 30.1798 19.0084C31.3238 13.6942 27.8921 8.48215 22.5435 7.34857C22.0032 7.23406 21.4709 7.57915 21.3546 8.11936C21.2383 8.65956 21.582 9.19031 22.1223 9.30483Z" fill="#3D75E4"/>
</svg>
