<svg width="40" height="40" viewBox="0 0 40 40" fill="none" xmlns="http://www.w3.org/2000/svg">
<path fill-rule="evenodd" clip-rule="evenodd" d="M22.3526 6.16856C23.0574 5.52018 23.5 4.58458 23.5 3.5443C23.5 1.58684 21.933 0 20 0C18.067 0 16.5 1.58684 16.5 3.5443C16.5 4.58478 16.9427 5.52054 17.6478 6.16893L14.2794 15.2651C12.6921 15.6015 11.5 17.0268 11.5 18.7342V19.0463C7.27683 19.5475 4 23.1837 4 27.5949C4 28.1542 4.44772 28.6076 5 28.6076H5.2815C5.26094 28.6885 5.25 28.7733 5.25 28.8608L5.25 38.9873C5.25 39.5466 5.69772 40 6.25 40C6.80228 40 7.25 39.5466 7.25 38.9873L7.25 28.8608C7.25 28.7733 7.23906 28.6885 7.2185 28.6076H11.5V30.7667L9.55301 31.7525C9.05903 32.0026 8.8588 32.6109 9.10579 33.1111C9.35278 33.6113 9.95345 33.8141 10.4474 33.564L20.0002 28.7271L29.553 33.564C30.047 33.8141 30.6477 33.6113 30.8946 33.1111C31.1416 32.6109 30.9414 32.0026 30.4474 31.7525L28.5 30.7664V28.6076H32.7815C32.7609 28.6885 32.75 28.7733 32.75 28.8608V38.9873C32.75 39.5466 33.1977 40 33.75 40C34.3023 40 34.75 39.5466 34.75 38.9873V28.8608C34.75 28.7733 34.7391 28.6885 34.7185 28.6076H35C35.5523 28.6076 36 28.1542 36 27.5949C36 23.1837 32.7232 19.5475 28.5 19.0463V18.7342C28.5 17.0271 27.3082 15.6018 25.7212 15.2652L22.3526 6.16856ZM18.5 3.5443C18.5 2.70539 19.1716 2.02532 20 2.02532C20.8284 2.02532 21.5 2.70539 21.5 3.5443C21.5 4.38322 20.8284 5.06329 20 5.06329C19.1716 5.06329 18.5 4.38322 18.5 3.5443ZM19.4433 7.08861L16.3431 15.4602C16.7807 15.6445 17.1734 15.9162 17.5 16.2537C18.1353 15.5972 19.0207 15.1899 20 15.1899C20.9793 15.1899 21.8647 15.5972 22.5 16.2537C22.8267 15.9161 23.2196 15.6444 23.6573 15.46L20.5573 7.08861H19.4433ZM25.0183 17.2153C25.0063 17.2155 24.9942 17.2155 24.9822 17.2153C24.162 17.225 23.5 17.9013 23.5 18.7342V28.2348L26.5 29.7538V18.7342C26.5 17.9015 25.8383 17.2252 25.0183 17.2153ZM15.0181 17.2153C15.0062 17.2155 14.9942 17.2155 14.9821 17.2153C14.1619 17.225 13.5 17.9013 13.5 18.7342V29.754L16.5 28.235V18.7342C16.5 17.9014 15.8382 17.2251 15.0181 17.2153ZM18.5 18.7342C18.5 17.8953 19.1716 17.2152 20 17.2152C20.8284 17.2152 21.5 17.8953 21.5 18.7342V27.2221L20.4474 26.6892C20.1659 26.5466 19.8345 26.5466 19.553 26.6892L18.5 27.2224V18.7342ZM28.5 21.0901V26.5823H33.9236C33.4929 23.7579 31.2891 21.5262 28.5 21.0901ZM11.5 26.5823V21.0901C8.71088 21.5262 6.50712 23.7579 6.07645 26.5823H11.5Z" fill="#3D75E4"/>
<path d="M20 36.2025C19.4477 36.2025 19 35.7491 19 35.1899L19 32.6582C19 32.099 19.4477 31.6456 20 31.6456C20.5523 31.6456 21 32.099 21 32.6582V35.1899C21 35.7491 20.5523 36.2025 20 36.2025Z" fill="#3D75E4"/>
<path d="M14 35.1899C14 35.7491 14.4477 36.2025 15 36.2025C15.5523 36.2025 16 35.7491 16 35.1899L16 33.924C16 33.3648 15.5523 32.9114 15 32.9114C14.4477 32.9114 14 33.3648 14 33.924L14 35.1899Z" fill="#3D75E4"/>
<path d="M25 36.2025C24.4477 36.2025 24 35.7491 24 35.1899V33.924C24 33.3648 24.4477 32.9114 25 32.9114C25.5523 32.9114 26 33.3648 26 33.924V35.1899C26 35.7491 25.5523 36.2025 25 36.2025Z" fill="#3D75E4"/>
<path d="M11 36.4557C11 35.8964 10.5523 35.443 10 35.443C9.44772 35.443 9 35.8964 9 36.4557V38.9873C9 39.5466 9.44772 40 10 40H30C30.5523 40 31 39.5466 31 38.9873V36.4557C31 35.8964 30.5523 35.443 30 35.443C29.4477 35.443 29 35.8964 29 36.4557V37.9747H11V36.4557Z" fill="#3D75E4"/>
</svg>
