<svg width="40" height="40" viewBox="0 0 40 40" fill="none" xmlns="http://www.w3.org/2000/svg">
<path d="M8 1C8 0.447715 7.55228 0 7 0C6.44772 0 6 0.447715 6 1C6 2.10457 6.89543 3 8 3H32C33.1046 3 34 2.10457 34 1C34 0.447715 33.5523 0 33 0C32.4477 0 32 0.447715 32 1H8Z" fill="#3D75E4"/>
<path d="M18 17C18 16.4477 17.5523 16 17 16C16.4477 16 16 16.4477 16 17V34C16 34.5523 16.4477 35 17 35C17.5523 35 18 34.5523 18 34V17Z" fill="#3D75E4"/>
<path d="M15 11C15 10.4477 15.4477 10 16 10L24 10C24.5523 10 25 10.4477 25 11C25 11.5523 24.5523 12 24 12L16 12C15.4477 12 15 11.5523 15 11Z" fill="#3D75E4"/>
<path d="M5.5 19C4.94772 19 4.5 19.4477 4.5 20C4.5 20.5523 4.94772 21 5.5 21H6C6.55228 21 7 21.4477 7 22V35C7 37.7614 9.23858 40 12 40H28C30.7614 40 33 37.7614 33 35V22C33 21.4477 33.4477 21 34 21H34.5C35.0523 21 35.5 20.5523 35.5 20C35.5 19.4477 35.0523 19 34.5 19H34C32.3431 19 31 20.3431 31 22V35C31 36.6569 29.6569 38 28 38H12C10.3431 38 9 36.6569 9 35V22C9 20.3431 7.65685 19 6 19H5.5Z" fill="#3D75E4"/>
<path d="M23 16C23.5523 16 24 16.4477 24 17V34C24 34.5523 23.5523 35 23 35C22.4477 35 22 34.5523 22 34V17C22 16.4477 22.4477 16 23 16Z" fill="#3D75E4"/>
<path d="M8.5 5C4.91015 5 2 7.91015 2 11.5C2 13.3547 2.483 15.0068 3.59701 16.2009C4.7219 17.4066 6.35411 18 8.34653 18C11.3787 18 13 15.3508 13 13.2336C13 11.049 11.2913 9 9 9C8.44772 9 8 9.44772 8 10C8 10.5523 8.44772 11 9 11C10.0224 11 11 11.9817 11 13.2336C11 14.5527 9.99077 16 8.34653 16C6.75211 16 5.71106 15.535 5.05939 14.8365C4.39685 14.1264 4 13.0285 4 11.5C4 9.01472 6.01472 7 8.5 7H31.5C33.9853 7 36 9.01472 36 11.5C36 13.0285 35.6032 14.1264 34.9406 14.8365C34.2889 15.535 33.2479 16 31.6535 16C30.0092 16 29 14.5527 29 13.2336C29 11.9817 29.9776 11 31 11C31.5523 11 32 10.5523 32 10C32 9.44772 31.5523 9 31 9C28.7087 9 27 11.049 27 13.2336C27 15.3508 28.6213 18 31.6535 18C33.6459 18 35.2781 17.4066 36.403 16.2009C37.517 15.0068 38 13.3547 38 11.5C38 7.91015 35.0899 5 31.5 5H8.5Z" fill="#3D75E4"/>
</svg>
