<svg width="40" height="40" viewBox="0 0 40 40" fill="none" xmlns="http://www.w3.org/2000/svg">
<path d="M16.2597 2.10532C15.7605 1.97383 15.2359 1.97383 14.7367 2.10532L11.7448 2.89334C11.3052 3.00912 10.9987 3.40779 10.9987 3.86382V5.34162L12.4576 4.68894C12.9468 4.47007 13.4855 4.38665 14.0177 4.44734L17.8753 4.88722C18.424 4.94978 18.8182 5.44685 18.7559 5.99744C18.6935 6.54803 18.1982 6.94365 17.6495 6.88108L13.7919 6.4412C13.6145 6.42097 13.435 6.44878 13.2719 6.52174L10.406 7.80389C10.0967 7.94228 9.73855 7.91414 9.45447 7.72912C9.17039 7.54409 8.99895 7.22735 8.99895 6.8875V3.86382C8.99895 2.49573 9.91836 1.29971 11.2371 0.952389L14.229 0.164365C15.061 -0.0547887 15.9354 -0.0547882 16.7674 0.164366L19.7593 0.952389C21.078 1.29972 21.9974 2.49573 21.9974 3.86382V6.86636L21.9977 6.88749C21.9977 9.52446 21.3871 11.961 20.3483 13.7731C19.3251 15.5579 17.761 16.921 15.8212 16.921C14.3362 16.921 13.0607 16.1122 12.0999 14.9472C11.1389 13.782 10.4258 12.1909 10.0235 10.3974C9.90218 9.85679 10.2406 9.31989 10.7793 9.19819C11.3181 9.07649 11.8531 9.41609 11.9744 9.95669C12.3259 11.5237 12.9272 12.8029 13.6405 13.6678C14.354 14.533 15.1128 14.9143 15.8212 14.9143C16.7404 14.9143 17.7645 14.2559 18.6149 12.7725C19.4473 11.3205 19.9947 9.24979 19.9979 6.90795L19.9977 6.8875V3.86382C19.9977 3.40779 19.6912 3.00912 19.2516 2.89334L16.2597 2.10532Z" fill="#3D75E4"/>
<path d="M12.3256 17.2972C12.5327 16.7835 12.2855 16.1986 11.7736 15.9908C11.2616 15.7831 10.6788 16.0311 10.4717 16.5448L9.78202 18.256L3.49872 20.2402C1.41639 20.8977 0 22.835 0 25.0256V26.9545C0 28.6169 1.34299 29.9645 2.99965 29.9645H11.8704C12.8312 29.9645 13.6562 29.2789 13.8352 28.3316L14.9808 22.268C15.0836 21.7235 14.7272 21.1985 14.1846 21.0953C13.6421 20.9921 13.1188 21.3498 13.016 21.8942L11.8704 27.9578H2.99965C2.44743 27.9578 1.99977 27.5086 1.99977 26.9545V25.0256C1.99977 23.7112 2.8496 22.5488 4.099 22.1543L10.3823 20.1702C10.9521 19.9903 11.4119 19.5641 11.6359 19.0084L12.3256 17.2972Z" fill="#3D75E4"/>
<path d="M20.2224 15.9908C19.7105 16.1986 19.4633 16.7835 19.6703 17.2972L20.3646 19.0196C20.5834 19.5625 21.0276 19.9824 21.5807 20.1691L25.1779 21.3837C25.7013 21.5604 26.2683 21.2779 26.4444 20.7527C26.6205 20.2275 26.339 19.6585 25.8156 19.4818L22.2184 18.2672L21.5242 16.5448C21.3172 16.0311 20.7343 15.7831 20.2224 15.9908Z" fill="#3D75E4"/>
<path d="M17.8114 21.0953C17.2688 21.1985 16.9123 21.7235 17.0152 22.268L18.1608 28.3316C18.3398 29.2789 19.1648 29.9645 20.1256 29.9645H21.0105C20.8116 33.771 22.9151 37.4859 26.5849 39.1512C27.0881 39.3795 27.6804 39.1553 27.9079 38.6504C27.9656 38.5223 27.9943 38.3886 27.9968 38.2565H27.9987V35.9846H30.9983C31.5506 35.9846 31.9982 35.5354 31.9982 34.9813C31.9982 34.4271 31.5506 33.9779 30.9983 33.9779H27.9987V26.9545H30.9983C31.9073 26.9545 32.6918 27.233 33.2265 27.6354C33.7609 28.0376 33.998 28.5166 33.998 28.9612C33.998 29.4058 33.7609 29.8848 33.2265 30.2869C32.6918 30.6893 31.9073 30.9679 30.9983 30.9679H29.9985C29.4462 30.9679 28.9986 31.4171 28.9986 31.9712C28.9986 32.5254 29.4462 32.9746 29.9985 32.9746H30.9983C32.2982 32.9746 33.5135 32.5793 34.4264 31.8923C35.3395 31.205 35.9978 30.179 35.9978 28.9612C35.9978 27.7434 35.3395 26.7173 34.4264 26.0301C33.5135 25.343 32.2982 24.9478 30.9983 24.9478H26.9988C26.4466 24.9478 25.9989 25.397 25.9989 25.9511V36.4879C23.2444 34.4194 22.1896 30.6413 23.6658 27.3655C25.3723 23.5786 29.8149 21.897 33.5887 23.6094C37.3624 25.3219 39.0382 29.7799 37.3317 33.5667C36.0794 36.3456 33.3527 37.9928 30.4951 37.9933C29.9429 37.9934 29.4953 38.4427 29.4954 38.9968C29.4955 39.551 29.9433 40.0001 30.4955 40C34.1096 39.9993 37.5662 37.9167 39.1539 34.3935C41.3154 29.5969 39.1927 23.9501 34.4127 21.781C29.6326 19.6119 24.0053 21.742 21.8437 26.5386C21.6335 27.005 21.4639 27.4794 21.3332 27.9578H20.1256L18.98 21.8942C18.8771 21.3498 18.3539 20.9921 17.8114 21.0953Z" fill="#3D75E4"/>
<path d="M14.4457 18.0302C13.9518 17.7824 13.3512 17.9833 13.1043 18.4789C12.8573 18.9746 13.0575 19.5773 13.5514 19.8251L15.5512 20.8284C15.8327 20.9697 16.164 20.9697 16.4455 20.8284L18.4453 19.8251C18.9392 19.5773 19.1394 18.9746 18.8924 18.4789C18.6455 17.9833 18.0449 17.7824 17.551 18.0302L15.9984 18.8092L14.4457 18.0302Z" fill="#3D75E4"/>
</svg>
