<svg width="40" height="40" viewBox="0 0 40 40" fill="none" xmlns="http://www.w3.org/2000/svg">
<g clip-path="url(#clip0)">
<path d="M21 6V2H18C17.4477 2 17 1.55228 17 1C17 0.447715 17.4477 0 18 0H26C26.5523 0 27 0.447716 27 1C27 1.55229 26.5523 2 26 2H23V6C23 7.11947 22.101 7.96478 21.062 8.02882C16.7093 8.29712 12.8576 10.422 10.2896 13.6255C9.94412 14.0564 9.31476 14.1257 8.88384 13.7802C8.45292 13.4348 8.38363 12.8054 8.72907 12.3745C11.6359 8.74836 16.0017 6.33694 20.939 6.03261C20.9628 6.03114 20.9819 6.0209 20.9933 6.00925C20.9977 6.00481 20.9995 6.00111 21 6Z" fill="#3D75E4"/>
<path d="M25.1864 6.29831C24.6438 6.19538 24.1205 6.55181 24.0176 7.09442C23.9146 7.63703 24.2711 8.16034 24.8137 8.26327C27.5202 8.77668 29.9704 10.0179 31.9528 11.7774C32.7387 12.4749 33.987 12.5089 34.7779 11.7007L37.0077 9.42193L38.2929 10.7071C38.6834 11.0976 39.3166 11.0976 39.7071 10.7071C40.0977 10.3166 40.0977 9.68342 39.7071 9.29289L37.71 7.29575L37.6994 7.28527L35.7071 5.29289C35.3166 4.90237 34.6834 4.90237 34.2929 5.29289C33.9024 5.68342 33.9024 6.31658 34.2929 6.70711L35.5934 8.00763L33.3484 10.3019C33.3473 10.3023 33.3431 10.3038 33.3366 10.3039C33.3198 10.3041 33.2987 10.2977 33.2805 10.2816C31.0356 8.28913 28.2577 6.88091 25.1864 6.29831Z" fill="#3D75E4"/>
<path d="M35.812 13.0868C35.4896 12.6384 34.8647 12.5362 34.4163 12.8586C33.9679 13.181 33.8657 13.8058 34.1881 14.2543C35.958 16.7161 37.0001 19.7349 37.0001 23C37.0001 31.2843 30.2843 38 22.0001 38C17.2635 38 13.0402 35.8058 10.2896 32.3745C9.94412 31.9436 9.31476 31.8743 8.88384 32.2197C8.45292 32.5652 8.38363 33.1945 8.72907 33.6255C11.8429 37.5099 16.631 40 22.0001 40C31.3889 40 39.0001 32.3888 39.0001 23C39.0001 19.3022 37.8183 15.8775 35.812 13.0868Z" fill="#3D75E4"/>
<path d="M25.1161 13H19C18.9655 13 18.9313 13.0018 18.8978 13.0052C18.3934 13.0563 17.9999 13.4822 17.9999 14L18 14.0158V22H17C16.4477 22 16 22.4477 16 23C16 23.5523 16.4477 24 17 24H18V26H17C16.4477 26 16 26.4477 16 27C16 27.5523 16.4477 28 17 28H18V32C18 32.5523 18.4477 33 19 33C19.5523 33 20 32.5523 20 32V28H25C25.5523 28 26 27.5523 26 27C26 26.4477 25.5523 26 25 26H20V15H25C27.3109 15 29 16.6635 29 18.5C29 20.3365 27.3109 22 25 22H22C21.4477 22 21 22.4477 21 23C21 23.5523 21.4477 24 22 24H25C28.212 24 31 21.6341 31 18.5C31 15.4284 28.3221 13.0947 25.1916 13.0028C25.1667 13.0009 25.1415 13 25.1161 13Z" fill="#3D75E4"/>
<path d="M4 22C3.44772 22 3 22.4477 3 23C3 23.5523 3.44772 24 4 24H11C11.5523 24 12 23.5523 12 23C12 22.4477 11.5523 22 11 22H4Z" fill="#3D75E4"/>
<path d="M0 18C0 17.4477 0.447715 17 1 17H8C8.55228 17 9 17.4477 9 18C9 18.5523 8.55228 19 8 19H1C0.447715 19 0 18.5523 0 18Z" fill="#3D75E4"/>
<path d="M1 27C0.447715 27 0 27.4477 0 28C0 28.5523 0.447715 29 1 29H8C8.55228 29 9 28.5523 9 28C9 27.4477 8.55228 27 8 27H1Z" fill="#3D75E4"/>
</g>
<defs>
<clipPath id="clip0">
<rect width="40" height="40" fill="white"/>
</clipPath>
</defs>
</svg>
