<svg width="40" height="40" viewBox="0 0 40 40" fill="none" xmlns="http://www.w3.org/2000/svg">
<g clip-path="url(#clip0)">
<path d="M37.8683 0.503849C37.5943 0.0243316 36.9834 -0.142265 36.5039 0.131745C36.0244 0.405755 35.8578 1.01661 36.1318 1.49613L36.7537 2.58452C25.0717 -1.37288 11.8894 -0.00978708 0.496291 6.63623C0.0192393 6.91451 -0.141896 7.52683 0.136384 8.00388C0.414665 8.48094 1.02698 8.64207 1.50403 8.36379C12.4349 1.98745 25.0374 0.710783 36.1626 4.49602L34.6489 5.06366C34.1318 5.25758 33.8698 5.83399 34.0637 6.35111C34.2576 6.86823 34.834 7.13024 35.3512 6.93632L39.3394 5.44074C39.5941 5.34881 39.8109 5.15432 39.9232 4.88463C40.0497 4.58103 40.0154 4.25059 39.8593 3.98809L37.8683 0.503849Z" fill="#3D75E4"/>
<path d="M31.0401 10.3413C29.5229 8.73563 26.9912 8.66388 25.3855 10.1811C24.9841 10.5604 24.3512 10.5425 23.9719 10.141C23.5926 9.73961 23.6105 9.1067 24.0119 8.72739C26.4205 6.45156 30.218 6.55918 32.4938 8.96777C34.7696 11.3763 34.662 15.1738 32.2534 17.4496C31.852 17.8289 31.2191 17.811 30.8398 17.4096C30.4605 17.0081 30.4784 16.3752 30.8798 15.9959C32.4856 14.4787 32.5573 11.9471 31.0401 10.3413Z" fill="#3D75E4"/>
<path d="M15.1526 12.4155C14.5259 10.2971 12.3005 9.08794 10.1822 9.71469C8.0638 10.3414 6.85461 12.5668 7.48136 14.6852C7.63805 15.2148 7.33575 15.7711 6.80616 15.9278C6.27656 16.0845 5.72022 15.7822 5.56354 15.2526C4.62341 12.075 6.4372 8.737 9.61475 7.79687C12.7923 6.85675 16.1303 8.67054 17.0705 11.8481C17.2271 12.3777 16.9249 12.934 16.3953 13.0907C15.8657 13.2474 15.3093 12.9451 15.1526 12.4155Z" fill="#3D75E4"/>
<path d="M25.9161 11.5536C26.9661 10.5615 28.6216 10.6084 29.6138 11.6584C30.6059 12.7084 30.559 14.3639 29.509 15.3561L28.0845 16.7021C28.2586 16.8145 28.4221 16.9494 28.5707 17.1067C29.4409 18.0276 29.5156 19.412 28.8189 20.4121C29.011 20.5303 29.191 20.6753 29.3534 20.8471C30.2235 21.768 30.2982 23.1524 29.6015 24.1524C29.7937 24.2706 29.9737 24.4157 30.136 24.5875C31.1328 25.6425 31.0857 27.3059 30.0307 28.3027L24.1954 33.8163L24.1539 33.8481C22.7735 34.9031 21.7884 35.3051 20.807 35.6882L20.7094 35.7263C19.8146 36.0752 18.9125 36.4269 17.5547 37.3321C17.0952 37.6384 16.4743 37.5142 16.168 37.0547C15.8616 36.5952 15.9858 35.9743 16.4453 35.668C17.9839 34.6423 19.0461 34.2281 19.9811 33.8636L20.0797 33.8252C20.9743 33.4759 21.7546 33.158 22.8985 32.2902L28.6571 26.849C28.9093 26.6108 28.9205 26.2132 28.6823 25.9611C28.444 25.7089 28.0465 25.6977 27.7944 25.9359L26.7972 26.8781C26.3958 27.2574 25.7629 27.2395 25.3836 26.8381C25.0042 26.4366 25.0222 25.8037 25.4236 25.4244L27.8745 23.1086C28.1266 22.8704 28.1379 22.4728 27.8997 22.2207C27.6614 21.9686 27.2639 21.9573 27.0117 22.1955L24.5609 24.5113C24.1594 24.8906 23.5265 24.8727 23.1472 24.4713C22.7679 24.0698 22.7858 23.4369 23.1873 23.0576L27.0919 19.3683C27.344 19.13 27.3553 18.7325 27.117 18.4803C26.8788 18.2282 26.4812 18.2169 26.2291 18.4552L22.3245 22.1445C21.9231 22.5238 21.2902 22.5059 20.9109 22.1045C20.5316 21.703 20.5495 21.0701 20.9509 20.6908L28.1354 13.9024C28.3825 13.6688 28.3936 13.2792 28.1601 13.032C27.9265 12.7849 27.5369 12.7738 27.2897 13.0073L18.8231 21.0073C17.2021 22.5389 14.536 21.8292 13.891 19.6944L12.0783 13.695C11.9702 13.3371 11.5923 13.1346 11.2344 13.2427C10.8764 13.3509 10.6739 13.7287 10.7821 14.0867L11.9499 17.9517C12.1858 18.7324 12.2271 19.5589 12.0703 20.3592L11.5474 23.0282L11.5441 23.1225C11.5408 23.2252 11.5367 23.3614 11.5327 23.4984C11.5288 23.6353 11.5251 23.772 11.5224 23.8756L11.5193 24.0002L11.519 24.0121C11.54 24.4033 11.5703 25.0193 11.6138 25.9611C11.6597 26.9541 11.6789 27.6946 11.6408 28.2551C11.6022 28.8219 11.4994 29.3237 11.2137 29.7663C10.9445 30.1833 10.5678 30.4502 10.2774 30.6559L10.268 30.6626L10.1801 30.7248C9.90751 30.9172 9.60289 31.1323 9.22701 31.4561C9.21708 31.4866 9.2052 31.5476 9.21037 31.6566C9.22036 31.867 9.29356 32.1779 9.4735 32.5863C9.83212 33.4002 10.5327 34.4176 11.5261 35.469L11.5357 35.4791L11.545 35.4896C12.092 36.1019 12.8255 36.7528 13.5814 37.2429C14.3659 37.7514 15.0412 38 15.5 38C16.0523 38 16.5 38.4477 16.5 39C16.5 39.5523 16.0523 40 15.5 40C14.4588 40 13.3842 39.4986 12.4934 38.9211C11.5785 38.3279 10.7156 37.5613 10.0629 36.8325C8.97463 35.679 8.12133 34.4777 7.64327 33.3927C7.40417 32.85 7.23817 32.2899 7.21261 31.7514C7.18674 31.2062 7.30482 30.6154 7.71524 30.1349C7.74586 30.0991 7.77897 30.0655 7.81433 30.0343C8.3159 29.5922 8.72608 29.3028 9.0247 29.0922L9.11164 29.0308C9.43967 28.7983 9.50064 28.7323 9.53338 28.6816C9.55242 28.6521 9.61646 28.5437 9.64538 28.1192C9.67471 27.6885 9.66226 27.0567 9.61593 26.0533C9.57122 25.0849 9.54068 24.4667 9.5201 24.0855C9.5186 24.0578 9.51862 24.0349 9.51862 24.0345L9.51865 24.0186L9.51891 23.9986L9.51979 23.9552L9.52304 23.8237C9.52579 23.7179 9.5296 23.5793 9.53358 23.4409C9.53755 23.3027 9.54172 23.1637 9.5452 23.0572C9.54693 23.0043 9.54854 22.9577 9.5499 22.9228C9.55057 22.9057 9.55129 22.8886 9.55203 22.8738C9.55238 22.8669 9.55294 22.8563 9.55373 22.8448C9.55411 22.8393 9.55485 22.8289 9.55605 22.8162C9.55612 22.8154 9.55991 22.77 9.57053 22.7158L10.1076 19.9747C10.2017 19.4945 10.1769 18.9986 10.0354 18.5302L8.86757 14.6651C8.43995 13.2498 9.24063 11.7558 10.6559 11.3282C12.0712 10.9006 13.5652 11.7013 13.9928 13.1166L15.8055 19.1159C16.0205 19.8275 16.9092 20.0641 17.4495 19.5536L25.9161 11.5536Z" fill="#3D75E4"/>
</g>
<defs>
<clipPath id="clip0">
<rect width="40" height="40" fill="white"/>
</clipPath>
</defs>
</svg>
