<svg width="40" height="40" viewBox="0 0 40 40" fill="none" xmlns="http://www.w3.org/2000/svg">
<path d="M10 34C10 34.5523 9.55229 35 9 35C8.44771 35 8 34.5523 8 34C8 33.4477 8.44771 33 9 33C9.55229 33 10 33.4477 10 34Z" fill="#3D75E4"/>
<path d="M7 15C6.44772 15 6 15.4477 6 16C6 16.5523 6.44772 17 7 17H11C11.5523 17 12 16.5523 12 16C12 15.4477 11.5523 15 11 15H7Z" fill="#3D75E4"/>
<path fill-rule="evenodd" clip-rule="evenodd" d="M8 2C6.34315 2 5 3.34315 5 5V11H3C1.34315 11 0 12.3431 0 14V35C0 36.6569 1.34315 38 3 38H15C16.6569 38 18 36.6569 18 35V32H24.1528L24.8195 36H20C19.4477 36 19 36.4477 19 37C19 37.5523 19.4477 38 20 38H25.9814C25.993 38.0002 26.0045 38.0002 26.0161 38H30C30.5523 38 31 37.5523 31 37C31 36.4477 30.5523 36 30 36H26.8471L26.1804 32H37C38.6569 32 40 30.6569 40 29V5C40 3.34315 38.6569 2 37 2H8ZM25.019 30H37C37.5523 30 38 29.5523 38 29V5C38 4.44772 37.5523 4 37 4H8C7.44772 4 7 4.44772 7 5V11H15C16.6569 11 18 12.3431 18 14V16C18 16.5523 17.5523 17 17 17C16.4477 17 16 16.5523 16 16V14C16 13.4477 15.5523 13 15 13H3C2.44772 13 2 13.4477 2 14V30H13C13.5523 30 14 30.4477 14 31C14 31.5523 13.5523 32 13 32H2V35C2 35.5523 2.44772 36 3 36H15C15.5523 36 16 35.5523 16 35V27.515C15.9958 27.2134 16.1277 26.9149 16.3788 26.7163C16.3977 26.7013 16.4172 26.6869 16.4372 26.6733L27.8739 18.6606C28.0945 18.5061 28.3681 18.4471 28.6327 18.4969C28.8974 18.5467 29.1307 18.7012 29.28 18.9253L29.9072 19.867L32.775 12.9931L25.3268 12.9898L25.9541 13.9315C26.2583 14.3883 26.1375 15.0049 25.6835 15.3132L14.389 22.7965C13.9321 23.1067 13.3102 22.9878 13 22.5309C12.6898 22.0739 12.8087 21.452 13.2656 21.1418L23.74 14.2153L22.6265 12.5433C22.422 12.2363 22.4031 11.8418 22.5773 11.5167C22.7515 11.1916 23.0904 10.9888 23.4592 10.989L34.2759 10.9938C34.6102 10.9939 34.9224 11.1612 35.1077 11.4395C35.2931 11.7177 35.3271 12.0702 35.1983 12.3788L31.0336 22.3616C30.8916 22.7019 30.5738 22.9365 30.2067 22.9719C29.8396 23.0073 29.4829 22.8378 29.2784 22.5309L28.183 20.8861L18 28.0204V30H24.9834C24.9953 29.9998 25.0071 29.9998 25.019 30Z" fill="#3D75E4"/>
</svg>
