<svg width="40" height="40" viewBox="0 0 40 40" fill="none" xmlns="http://www.w3.org/2000/svg">
<path d="M2 10C2 9.44772 2.44772 9 3 9H37C37.5523 9 38 9.44771 38 10V11.8232C38 12.1864 37.8031 12.521 37.4856 12.6974L29.5144 17.1258C29.0316 17.3941 28.8576 18.0029 29.1258 18.4856C29.3941 18.9684 30.0029 19.1424 30.4856 18.8742L38.4569 14.4457C39.4093 13.9166 40 12.9127 40 11.8232V10C40 8.34315 38.6569 7 37 7H3C1.34315 7 0 8.34315 0 10V11.8232C0 12.9127 0.590676 13.9166 1.54307 14.4457L9.51436 18.8742C9.99714 19.1424 10.6059 18.9684 10.8742 18.4856C11.1424 18.0029 10.9684 17.3941 10.4856 17.1258L2.51436 12.6974C2.19689 12.521 2 12.1864 2 11.8232V10Z" fill="#3D75E4"/>
<path fill-rule="evenodd" clip-rule="evenodd" d="M20.2557 12C15.5616 12 12 15.4824 12 20.0565C12 24.5741 15.3973 28 19.8174 28C20.5479 28 21.3333 27.9059 22.0457 27.7176C22.4475 27.5859 22.6849 27.1906 22.6667 26.7576C22.6301 26.2306 22.1918 25.8541 21.6621 25.8918C21.4444 25.9072 21.2328 25.9386 21.0198 25.9702C20.7146 26.0155 20.4065 26.0612 20.0731 26.0612C16.5479 26.0612 13.9909 23.52 13.9909 20.0188C13.9909 16.4424 16.6027 13.9388 20.3105 13.9388C23.8174 13.9388 26.0639 16.1412 26.0639 19.5671C26.0639 20.8659 25.4795 21.8259 24.7306 21.8259C24.1644 21.8259 23.8904 21.5435 23.8904 20.96V17.1388C23.8904 16.5176 23.4521 16.0282 22.8676 16.0282C22.3014 16.0282 21.863 16.48 21.8265 17.0635C21.3151 16.3859 20.4932 15.9906 19.4703 15.9906C17.3333 15.9906 15.7991 17.7035 15.7991 20.0753C15.7991 22.4471 17.3333 24.1788 19.4703 24.1788C20.7489 24.1788 21.7169 23.5765 22.1553 22.5224C22.5388 23.3694 23.3059 23.7835 24.4749 23.7835C26.5388 23.7835 28 22.0518 28 19.5671C28 15.2 24.7123 12 20.2557 12ZM19.9087 22.0706C18.8493 22.0706 18.0822 21.2235 18.0822 20.0753C18.0822 18.9082 18.8493 18.08 19.9269 18.08C20.9863 18.08 21.6986 18.8894 21.6986 20.0753C21.6986 21.2612 20.968 22.0706 19.9087 22.0706Z" fill="#3D75E4"/>
<path d="M37 31C37.5523 31 38 30.5523 38 30V16.5C38 15.9477 38.4477 15.5 39 15.5C39.5523 15.5 40 15.9477 40 16.5V30C40 31.6569 38.6569 33 37 33H3C1.34314 33 0 31.6569 0 30V16.5C0 15.9477 0.447716 15.5 1 15.5C1.55228 15.5 2 15.9477 2 16.5V30C2 30.5523 2.44772 31 3 31H37Z" fill="#3D75E4"/>
</svg>
