<svg width="40" height="40" viewBox="0 0 40 40" fill="none" xmlns="http://www.w3.org/2000/svg">
<path d="M0 2.99976C0 1.3429 1.34314 -0.000244141 3 -0.000244141H37C38.6569 -0.000244141 40 1.3429 40 2.99976V28.9998C40 30.6566 38.6569 31.9998 37 31.9998H3C1.34314 31.9998 0 30.6566 0 28.9998V15.4998C0 14.9475 0.447723 14.4998 1 14.4998H13.8798L15.8369 10.5553C16.0071 10.2122 16.3585 9.99634 16.7416 9.99976C17.1247 10.0032 17.4721 10.2252 17.6363 10.5713L21.002 17.6697L22.0971 15.3699C22.263 15.0216 22.6143 14.7998 23 14.7998H29C29.5523 14.7998 30 15.2474 30 15.7998C30 16.3521 29.5523 16.7998 29 16.7998H23.6314L21.9029 20.4297C21.7369 20.7782 21.3852 21.0001 20.9992 20.9998C20.6132 20.9994 20.2618 20.777 20.0964 20.4282L16.7123 13.2909L15.3958 15.9442C15.227 16.2845 14.8799 16.4998 14.5 16.4998H2V28.9998C2 29.552 2.44772 29.9998 3 29.9998H37C37.5523 29.9998 38 29.552 38 28.9998V2.99976C38 2.44751 37.5523 1.99976 37 1.99976H3C2.44772 1.99976 2 2.44751 2 2.99976V11.4998C2 12.052 1.55228 12.4998 1 12.4998C0.447723 12.4998 0 12.052 0 11.4998V2.99976Z" fill="#3D75E4"/>
<path d="M10.2286 11.9335C10.6387 9.64136 13.2134 6.99976 18.0012 6.99976C20.9501 6.99976 22.9029 8.33362 25.2956 10.1068L25.6048 10.3363L25.6056 10.337C27.666 11.8676 30.031 13.6244 33.4664 14.6805C31.4104 18.0067 29.3149 20.2662 27.157 21.7242C24.7814 23.3292 22.2761 23.9998 19.5466 23.9998C15.0589 23.9998 11.0509 21.8208 9.95566 18.2672C9.793 17.7394 9.23328 17.4435 8.70547 17.6061C8.1777 17.7688 7.88171 18.3285 8.04437 18.8563C9.49805 23.5726 14.5755 25.9998 19.5466 25.9998C22.636 25.9998 25.5394 25.2308 28.2767 23.3813C30.9981 21.5427 33.5003 18.6736 35.8669 14.559C36.0244 14.285 36.0432 13.9526 35.9176 13.6627C35.7919 13.3728 35.5366 13.1593 35.2289 13.0869C31.4781 12.205 29.0728 10.4196 26.7539 8.69836L26.4864 8.49988C24.0941 6.72717 21.6684 4.99976 18.0012 4.99976C12.4867 4.99976 8.87997 8.11572 8.25989 11.5812C8.1626 12.1249 8.52448 12.6444 9.06812 12.7417C9.61176 12.839 10.1313 12.4772 10.2286 11.9335Z" fill="#3D75E4"/>
<path d="M31 25.9998C30.4477 25.9998 30 26.4475 30 26.9998C30 27.552 30.4477 27.9998 31 27.9998H35C35.5523 27.9998 36 27.552 36 26.9998C36 26.4475 35.5523 25.9998 35 25.9998H31Z" fill="#3D75E4"/>
<path d="M11 38.9998C11 38.4475 11.4477 37.9998 12 37.9998H14.256L15.5422 33.7124C15.7009 33.1833 16.2584 32.8832 16.7874 33.0419C17.3163 33.2006 17.6165 33.7581 17.4579 34.2871L16.3441 37.9998H23.656L22.5422 34.2871C22.3835 33.7582 22.6837 33.2007 23.2127 33.042C23.7417 32.8833 24.2991 33.1835 24.4579 33.7124L25.744 37.9998H28C28.5523 37.9998 29 38.4475 29 38.9998C29 39.552 28.5523 39.9998 28 39.9998H25.0248L25.0073 40C24.9963 40.0001 24.9853 40 24.9744 39.9998H15.0203C15.0125 39.9999 15.0048 40 14.997 39.9999L14.9805 39.9998H12C11.4477 39.9998 11 39.552 11 38.9998Z" fill="#3D75E4"/>
<path d="M28 27.9998C28.5523 27.9998 29 27.552 29 26.9998C29 26.4475 28.5523 25.9998 28 25.9998C27.4477 25.9998 27 26.4475 27 26.9998C27 27.552 27.4477 27.9998 28 27.9998Z" fill="#3D75E4"/>
</svg>
