<svg width="40" height="40" viewBox="0 0 40 40" fill="none" xmlns="http://www.w3.org/2000/svg">
<path d="M20 40C16.8216 40 13.8131 39.44 11.5342 38.43C10.3648 37.91 9.42529 37.28 8.75563 36.58C7.97602 35.76 7.55622 34.82 7.55622 33.86V20.42L3.47824 17.91V25.47L3.55822 25.51C4.28785 25.93 4.73762 26.72 4.73762 27.56C4.73762 28.87 3.67815 29.93 2.36881 29.93C1.05946 29.93 0 28.87 0 27.56C0 26.72 0.449768 25.93 1.1794 25.51L1.25938 25.47V16.49L1.20942 16.44C0.339852 15.66 -0.0899355 14.54 0.0200095 13.36C0.129954 12.19 0.769644 11.17 1.77914 10.54L18.011 0.559998C18.6107 0.189998 19.3004 0 20 0C20.6996 0 21.3893 0.189998 21.989 0.559998L38.2209 10.54C39.3303 11.22 40 12.4 40 13.7C40 14.99 39.3403 16.18 38.2209 16.86L32.4438 20.41V33.85C32.4438 34.81 32.034 35.75 31.2444 36.57C30.5747 37.28 29.6351 37.9 28.4657 38.42C26.1869 39.44 23.1784 40 20 40ZM9.78508 33.85C9.78508 34.24 9.98501 34.64 10.3748 35.05C10.8346 35.54 11.5542 36.01 12.4538 36.4C14.4528 37.29 17.1414 37.78 20.01 37.78C22.8786 37.78 25.5672 37.29 27.5662 36.4C28.4558 36 29.1754 35.53 29.6452 35.05C30.035 34.64 30.2349 34.24 30.2349 33.85V32.41L30.005 32.56C29.5552 32.85 29.0455 33.13 28.4757 33.38C26.1969 34.39 23.1884 34.95 20.02 34.95C17.3613 34.95 14.8426 34.57 12.7336 33.84C12.1539 33.64 11.8441 33.01 12.044 32.43C12.1939 31.98 12.6237 31.68 13.0934 31.68C13.2134 31.68 13.3333 31.7 13.4533 31.74C15.3423 32.39 17.6112 32.73 20.02 32.73C22.8986 32.73 25.5772 32.24 27.5762 31.35C28.4658 30.95 29.1854 30.49 29.6551 30C30.0449 29.59 30.2449 29.19 30.2449 28.8V21.76L22.009 26.83C21.4093 27.2 20.7197 27.39 20.02 27.39C19.3204 27.39 18.6307 27.2 18.031 26.83L9.79508 21.76V33.85H9.78508ZM20 2.22C19.7101 2.22 19.4203 2.3 19.1704 2.45L2.93853 12.43C2.48876 12.71 2.21892 13.18 2.21892 13.7C2.21892 14.22 2.48876 14.69 2.93853 14.97L19.1704 24.95C19.4203 25.1 19.7001 25.18 20 25.18C20.2998 25.18 20.5797 25.1 20.8296 24.95L37.0615 14.97C37.5112 14.69 37.7811 14.22 37.7811 13.7C37.7811 13.18 37.5112 12.71 37.0615 12.43L20.8296 2.45C20.5797 2.3 20.2998 2.22 20 2.22Z" fill="#3D75E4"/>
</svg>
