<svg width="40" height="40" viewBox="0 0 40 40" fill="none" xmlns="http://www.w3.org/2000/svg">
<path d="M22.6555 3.54012C21.4947 1.48663 18.5053 1.48663 17.3445 3.54012L3.14247 28.6627C2.8707 29.1435 3.04004 29.7536 3.52071 30.0254C4.00138 30.2972 4.61135 30.1278 4.88313 29.6471L19.0851 4.52449C19.4804 3.82517 20.5196 3.82517 20.9149 4.52449L22.0272 6.49219C22.299 6.97294 22.909 7.14232 23.3897 6.87049C23.8703 6.59866 24.0397 5.98857 23.7679 5.50781L22.6555 3.54012Z" fill="#3D75E4"/>
<path d="M25.4638 8.50781C25.192 8.02706 24.5821 7.85768 24.1014 8.12951C23.6207 8.40134 23.4514 9.01143 23.7232 9.49219L37.8662 34.5105C38.2307 35.1553 37.7733 36 36.9513 36H34.6751C34.1229 36 33.6753 36.4477 33.6753 37C33.6753 37.5523 34.1229 38 34.6751 38H36.9513C39.2437 38 40.7548 35.5568 39.6069 33.5262L25.4638 8.50781Z" fill="#3D75E4"/>
<path d="M3.26853 32.5032C3.5403 32.0225 3.37096 31.4124 2.89029 31.1406C2.40962 30.8687 1.79965 31.0381 1.52787 31.5189L0.393136 33.5262C-0.754816 35.5568 0.756303 38 3.04868 38H31.4092C31.9614 38 32.409 37.5523 32.409 37C32.409 36.4477 31.9614 36 31.4092 36H3.04868C2.22674 36 1.76931 35.1553 2.13379 34.5105L3.26853 32.5032Z" fill="#3D75E4"/>
<path d="M16.5006 14C15.9484 14 15.5008 14.4477 15.5008 15C15.5008 15.5523 15.9484 16 16.5006 16H21.8816L19.1057 21.5528C18.9507 21.8628 18.9673 22.2309 19.1495 22.5257C19.3316 22.8205 19.6534 23 20 23H22.6952L18.8114 29.2152L19.4864 25.1644C19.5348 24.8744 19.4531 24.5779 19.2631 24.3536C19.0731 24.1293 18.7941 24 18.5002 24H16.1429L16.9917 17.6322C17.0647 17.0847 16.6802 16.5818 16.1328 16.5088C15.5855 16.4358 15.0826 16.8204 15.0097 17.3678L14.0098 24.8678C13.9717 25.1536 14.0588 25.4418 14.2486 25.6587C14.4385 25.8756 14.7127 26 15.0009 26H17.32L16.0143 33.8356C15.9359 34.306 16.2006 34.7664 16.6465 34.9352C17.0925 35.1041 17.5956 34.9344 17.8484 34.53L25.347 22.53C25.5396 22.2217 25.5498 21.8332 25.3736 21.5152C25.1974 21.1973 24.8626 21 24.4991 21H21.6177L24.3936 15.4472C24.5485 15.1372 24.532 14.7691 24.3498 14.4743C24.1676 14.1795 23.8458 14 23.4993 14H16.5006Z" fill="#3D75E4"/>
</svg>
