<svg width="40" height="40" viewBox="0 0 40 40" fill="none" xmlns="http://www.w3.org/2000/svg">
<g clip-path="url(#clip0)">
<path d="M4 0C1.79086 0 0 1.79086 0 4V36C0 38.2091 1.79086 40 4 40H22C24.2091 40 26 38.2091 26 36C26 35.4477 25.5523 35 25 35C24.4477 35 24 35.4477 24 36C24 37.1046 23.1046 38 22 38H4C2.89543 38 2 37.1046 2 36V4C2 2.89543 2.89543 2 4 2H22C23.1046 2 24 2.89543 24 4V22C24 22.5523 24.4477 23 25 23C25.5523 23 26 22.5523 26 22V4C26 1.79086 24.2091 0 22 0H4Z" fill="#3D75E4"/>
<path fill-rule="evenodd" clip-rule="evenodd" d="M35 30H30.8807C30.4748 31.676 29.0724 33 27.2727 33H26C26 33.5523 25.5523 34 25 34C24.4477 34 24 33.5523 24 33V32H21C20.4477 32 20 31.5523 20 31C20 30.4477 20.4477 30 21 30H24V28H21C20.4477 28 20 27.5523 20 27C20 26.4477 20.4477 26 21 26H24V25C24 24.4477 24.4477 24 25 24C25.5523 24 26 24.4477 26 25H27.2727C29.0724 25 30.4748 26.324 30.8807 28H33V10.5C33 8.567 34.567 7 36.5 7C38.433 7 40 8.56701 40 10.5V25C40 27.7614 37.7614 30 35 30ZM27.2727 31H26V27H27.2727C28.1391 27 29 27.8036 29 29C29 30.1964 28.1391 31 27.2727 31ZM35 28V10.5C35 9.67157 35.6716 9 36.5 9C37.3284 9 38 9.67157 38 10.5V25C38 26.6569 36.6569 28 35 28Z" fill="#3D75E4"/>
<path d="M34 31C34.5523 31 35 31.4477 35 32V39C35 39.5523 34.5523 40 34 40C33.4477 40 33 39.5523 33 39V32C33 31.4477 33.4477 31 34 31Z" fill="#3D75E4"/>
<path d="M13.9487 11.3163C14.1233 10.7923 13.8402 10.226 13.3162 10.0513C12.7923 9.8767 12.226 10.1599 12.0513 10.6838L11.0513 13.6838C10.9497 13.9887 11.0008 14.324 11.1888 14.5847C11.3767 14.8455 11.6786 15 12 15H12.6126L12.0513 16.6838C11.8767 17.2077 12.1598 17.7741 12.6838 17.9487C13.2077 18.1234 13.774 17.8402 13.9487 17.3163L14.9487 14.3163C15.0503 14.0113 14.9992 13.6761 14.8112 13.4153C14.6233 13.1545 14.3215 13 14 13H13.3874L13.9487 11.3163Z" fill="#3D75E4"/>
<path fill-rule="evenodd" clip-rule="evenodd" d="M11.2851 5.91467C12.0619 4.61999 13.9383 4.62 14.7151 5.91467L21.9489 17.971C22.7487 19.3041 21.7885 21 20.2339 21H5.76627C4.21168 21 3.25146 19.3041 4.05129 17.971L11.2851 5.91467ZM13.0001 6.94366L5.76627 19L20.2339 19L13.0001 6.94366Z" fill="#3D75E4"/>
<path d="M12 29C12 29.5523 11.5523 30 11 30C10.4477 30 10 29.5523 10 29C10 28.4477 10.4477 28 11 28C11.5523 28 12 28.4477 12 29Z" fill="#3D75E4"/>
<path d="M15 30C15.5523 30 16 29.5523 16 29C16 28.4477 15.5523 28 15 28C14.4477 28 14 28.4477 14 29C14 29.5523 14.4477 30 15 30Z" fill="#3D75E4"/>
<path fill-rule="evenodd" clip-rule="evenodd" d="M13 23C9.68629 23 7 25.6863 7 29C7 32.3137 9.68629 35 13 35C16.3137 35 19 32.3137 19 29C19 25.6863 16.3137 23 13 23ZM9 29C9 26.7909 10.7909 25 13 25C15.2091 25 17 26.7909 17 29C17 31.2091 15.2091 33 13 33C10.7909 33 9 31.2091 9 29Z" fill="#3D75E4"/>
</g>
<defs>
<clipPath id="clip0">
<rect width="40" height="40" fill="white"/>
</clipPath>
</defs>
</svg>
