<svg width="41" height="40" viewBox="0 0 41 40" fill="none" xmlns="http://www.w3.org/2000/svg">
<path fill-rule="evenodd" clip-rule="evenodd" d="M21.3694 1.52588e-05H18.8049C17.947 1.52588e-05 17.1846 0.547179 16.9101 1.35998L16.8123 1.64955L17.0123 3.45155L13.9137 3.10951C12.5801 3.59366 11.3196 4.23081 10.1554 5.00254L10.0734 5.04382L9.15141 4.58064C8.38092 4.19356 7.44909 4.34387 6.83938 4.95358L5.03072 6.76224C4.42102 7.37194 4.27071 8.30377 4.65778 9.07426L5.12116 9.99665C5.12116 9.99665 5.12151 9.99921 5.12128 10.0023C5.12074 10.0096 5.11784 10.0209 5.10964 10.0332C3.83203 11.9478 2.91934 14.1248 2.45396 16.4605C2.45115 16.4746 2.44537 16.4844 2.44076 16.4898C2.43881 16.492 2.43683 16.4936 2.43683 16.4936L1.45216 16.8232C0.63678 17.0962 0.0871582 17.8599 0.0871582 18.7198V21.2823C0.0871582 22.1402 0.634321 22.9026 1.44713 23.1771L2.44653 23.5147C2.44653 23.5147 2.44883 23.5166 2.45045 23.5185C2.45503 23.5238 2.46079 23.5336 2.46358 23.5476C2.92885 25.8841 3.84168 28.0617 5.11963 29.9768C5.12784 29.9891 5.13074 30.0005 5.13128 30.0077L5.13139 30.0103L5.13128 30.0126L4.66778 30.9358C4.28071 31.7063 4.43102 32.6381 5.04072 33.2478L6.84938 35.0564C7.45909 35.6662 8.39091 35.8165 9.16141 35.4294L10.0856 34.9651C10.0856 34.9651 10.0881 34.9648 10.0912 34.965C10.0983 34.9655 10.1095 34.9683 10.1217 34.9764C11.2467 35.7231 12.4553 36.3415 13.7331 36.8252C14.2496 37.0208 14.8268 36.7606 15.0224 36.2441C15.2179 35.7276 14.9577 35.1503 14.4412 34.9548C13.3012 34.5232 12.2263 33.9728 11.2277 33.31C10.6359 32.9173 9.8585 32.841 9.18813 33.1778L8.26359 33.6422L6.45494 31.8336L6.91849 30.9108C7.25625 30.2385 7.17843 29.4589 6.78326 28.8667C5.6499 27.1683 4.83884 25.2349 4.42507 23.157C4.28676 22.4625 3.79508 21.8592 3.08695 21.62L2.08716 21.2823V18.7198L3.07221 18.3899C3.7828 18.152 4.27667 17.5476 4.4154 16.8513C4.82928 14.7741 5.6402 12.8413 6.77326 11.1433C7.16843 10.5511 7.24625 9.77152 6.90849 9.09918L6.44494 8.17645L8.25359 6.36779L9.17632 6.83135C9.84866 7.16911 10.6282 7.09129 11.2204 6.69612C12.9189 5.56276 14.8523 4.7517 16.9302 4.33793C17.6247 4.19962 18.228 3.70793 18.4672 2.99981L18.8049 2.00002H21.3694L21.7071 2.99981C21.9463 3.70793 22.5496 4.19962 23.2442 4.33793C25.3221 4.7517 27.2554 5.56276 28.9539 6.69612C29.5461 7.09129 30.3257 7.16911 30.998 6.83135L31.9207 6.36779L33.7294 8.17645L33.2658 9.09918C32.9281 9.77152 33.0059 10.5511 33.4011 11.1433C34.5341 12.8413 35.345 14.7741 35.7589 16.8513C35.8976 17.5476 36.3915 18.152 37.1021 18.3899L38.0872 18.7198V21.2823L37.0874 21.62C36.3792 21.8592 35.8876 22.4625 35.7492 23.157C35.3355 25.2349 34.5244 27.1683 33.3911 28.8667C32.9959 29.4589 32.9181 30.2385 33.2558 30.9108L33.7194 31.8336L31.9107 33.6422L30.9862 33.1778C30.3158 32.841 29.5384 32.9173 28.9466 33.31C27.9481 33.9728 26.8731 34.5232 25.7331 34.9548C25.2166 35.1503 24.9564 35.7276 25.1519 36.2441C25.3475 36.7606 25.9247 37.0208 26.4412 36.8252C27.719 36.3415 28.9276 35.7231 30.0526 34.9764C30.0648 34.9683 30.076 34.9655 30.0831 34.965C30.0862 34.9648 30.0887 34.9651 30.0887 34.9651L31.0129 35.4294C31.7834 35.8165 32.7152 35.6662 33.3249 35.0564L35.1336 33.2478C35.7433 32.6381 35.8936 31.7063 35.5065 30.9358L35.0432 30.0134C35.0432 30.0134 35.0428 30.0108 35.043 30.0077C35.0436 30.0005 35.0465 29.9891 35.0547 29.9768C36.3326 28.0617 37.2455 25.8841 37.7107 23.5476C37.7135 23.5336 37.7193 23.5238 37.7239 23.5185C37.7255 23.5166 37.7274 23.515 37.7274 23.515L38.7272 23.1771C39.54 22.9026 40.0872 22.1402 40.0872 21.2823V18.7198C40.0872 17.8599 39.5375 17.0962 38.7222 16.8232L37.7375 16.4936L37.7358 16.4921L37.7336 16.4898C37.7289 16.4844 37.7232 16.4746 37.7204 16.4605C37.255 14.1248 36.3423 11.9478 35.0647 10.0332C35.0565 10.0209 35.0536 10.0096 35.053 10.0023C35.0528 9.99921 35.0532 9.99665 35.0532 9.99665L35.5165 9.07426C35.9036 8.30377 35.7533 7.37194 35.1436 6.76224L33.3349 4.95358C32.7252 4.34387 31.7934 4.19356 31.0229 4.58064L30.1006 5.04399C30.1006 5.04399 30.098 5.04437 30.0949 5.04414C30.0876 5.0436 30.0763 5.04069 30.064 5.03249C28.1488 3.75454 25.9713 2.8417 23.6348 2.37644C23.6207 2.37365 23.611 2.36789 23.6056 2.36331C23.6033 2.36137 23.6018 2.35939 23.6018 2.35939L23.2643 1.35998C22.9897 0.547179 22.2274 1.52588e-05 21.3694 1.52588e-05ZM10.0734 5.04382L10.1534 5.00384C10.139 5.01337 10.1247 5.02292 10.1103 5.03249C10.098 5.04069 10.0867 5.0436 10.0795 5.04414C10.0763 5.04437 10.0734 5.04382 10.0734 5.04382ZM13.9151 3.109L17.0123 3.45155L16.8123 1.64955L16.5725 2.35939C16.5725 2.35939 16.571 2.36137 16.5687 2.36331C16.5634 2.36789 16.5536 2.37365 16.5396 2.37644C15.6392 2.55573 14.7624 2.8015 13.9151 3.109Z" fill="#3D75E4"/>
<path fill-rule="evenodd" clip-rule="evenodd" d="M18 13.6799C18 13.337 17.8243 13.018 17.5344 12.8347C17.2446 12.6515 16.8811 12.6295 16.5713 12.7765C13.8764 14.0554 12 16.8085 12 19.9999C12 23.3574 14.0701 26.2316 17 27.418V36.9999C17 38.6568 18.3431 39.9999 20 39.9999C21.6569 39.9999 23 38.6568 23 36.9999V27.418C25.9299 26.2316 28 23.3574 28 19.9999C28 16.8063 26.1218 14.066 23.4319 12.778C23.122 12.6296 22.7577 12.6507 22.467 12.8338C22.1763 13.0169 22 13.3364 22 13.6799V18.1899C22 18.634 21.6413 18.9899 21.2 18.9899H18.8C18.3559 18.9899 18 18.6313 18 18.1899V13.6799ZM14 19.9999C14 18.2271 14.7733 16.6314 16 15.5336V18.1899C16 19.7286 17.2441 20.9899 18.8 20.9899H21.2C22.7387 20.9899 24 19.7458 24 18.1899V15.5378C25.2279 16.6379 26 18.229 26 19.9999C26 22.7154 24.1924 25.0142 21.7148 25.7515C21.2907 25.8777 21 26.2675 21 26.7099V36.9999C21 37.5522 20.5523 37.9999 20 37.9999C19.4477 37.9999 19 37.5522 19 36.9999V26.7099C19 26.2675 18.7093 25.8777 18.2852 25.7515C15.8076 25.0142 14 22.7154 14 19.9999Z" fill="#3D75E4"/>
<path d="M7.99999 19.8686C7.99999 13.3206 13.3602 8.00001 20 8.00001C26.6398 8.00001 32 13.3206 32 19.8686C32 24.2521 29.5875 28.0806 26.0032 30.1321C25.5239 30.4065 25.3578 31.0174 25.6321 31.4968C25.9065 31.9761 26.5174 32.1423 26.9968 31.8679C31.1692 29.4797 34 25.008 34 19.8686C34 12.1969 27.7252 6.00001 20 6.00001C12.2748 6.00001 5.99999 12.1969 5.99999 19.8686C5.99999 25.008 8.83081 29.4797 13.0032 31.8679C13.4826 32.1423 14.0935 31.9761 14.3679 31.4968C14.6422 31.0174 14.4761 30.4065 13.9967 30.1321C10.4125 28.0806 7.99999 24.2521 7.99999 19.8686Z" fill="#3D75E4"/>
</svg>
