<svg width="40" height="40" viewBox="0 0 40 40" fill="none" xmlns="http://www.w3.org/2000/svg">
<path d="M6.08212 0.59943C6.30342 0.0934535 6.89288 -0.13727 7.39872 0.0840948L22.1962 6.55977C23.2878 7.0375 23.9932 8.11634 23.9932 9.30822V26.0001C23.9932 27.6569 22.6504 29 20.994 29H0.999716C0.447588 29 0 28.5523 0 28.0001C0 27.4478 0.447588 27.0001 0.999716 27.0001H20.994C21.5462 27.0001 21.9938 26.5524 21.9938 26.0001V9.30822C21.9938 8.91093 21.7586 8.55132 21.3948 8.39207L6.59731 1.9164C6.09147 1.69503 5.86081 1.10541 6.08212 0.59943Z" fill="#3D75E4"/>
<path d="M3.99887 6.09793C3.99887 5.3717 4.74837 4.88766 5.41005 5.18657L16.9068 10.3801C17.2649 10.5418 17.495 10.8984 17.495 11.2915V25.0001C17.495 25.5524 17.9426 26.0001 18.4948 26.0001C19.0469 26.0001 19.4945 25.5524 19.4945 25.0001V11.2915C19.4945 10.1124 18.804 9.04264 17.7297 8.55736L6.23299 3.36384C4.24794 2.46712 1.99943 3.91924 1.99943 6.09793V11C1.99943 11.5523 2.44702 12 2.99915 12C3.55128 12 3.99887 11.5523 3.99887 11V6.09793Z" fill="#3D75E4"/>
<path fill-rule="evenodd" clip-rule="evenodd" d="M25.0672 17.336C25.6235 16.5015 26.5599 16.0002 27.5627 16.0002H35.5045C36.2766 16.0002 37.0191 16.2981 37.5772 16.8319L39.3783 18.5546C40.6815 19.801 39.7995 22.0001 37.9965 22.0001H31.991C31.4389 22.0001 30.9913 22.4478 30.9913 23.0001V24.5001C30.9913 25.0524 31.4389 25.5001 31.991 25.5001H36.9896C38.646 25.5001 39.9888 26.8432 39.9888 28.5001V33.5C39.9888 35.1569 38.646 36.5 36.9896 36.5H35.8783C35.4237 38.504 33.632 40 31.4911 40C29.0065 40 26.9923 37.9853 26.9923 35.5C26.9923 33.0148 29.0065 31.0001 31.4911 31.0001C33.632 31.0001 35.4237 32.4961 35.8783 34.5H36.9896C37.5417 34.5 37.9893 34.0523 37.9893 33.5V28.5001C37.9893 27.9478 37.5417 27.5001 36.9896 27.5001H31.991C30.3346 27.5001 28.9919 26.1569 28.9919 24.5001V23.0001C28.9919 21.3433 30.3346 20.0001 31.991 20.0001H37.9965L36.1954 18.2774C36.0093 18.0994 35.7619 18.0001 35.5045 18.0001H27.5627C27.2284 18.0001 26.9163 18.1672 26.7308 18.4454L26.3247 19.0548C26.0184 19.5144 25.3977 19.6385 24.9383 19.3322C24.4789 19.0258 24.3548 18.405 24.6611 17.9454L25.0672 17.336ZM28.9918 35.5C28.9918 34.1193 30.1107 33 31.4911 33C32.8714 33 33.9904 34.1193 33.9904 35.5C33.9904 36.8807 32.8714 38 31.4911 38C30.1107 38 28.9918 36.8807 28.9918 35.5Z" fill="#3D75E4"/>
<path fill-rule="evenodd" clip-rule="evenodd" d="M3.99887 31.0001C3.99887 30.4478 3.55128 30.0001 2.99915 30.0001C2.44702 30.0001 1.99943 30.4478 1.99943 31.0001V33C1.99943 34.6569 3.3422 36 4.99858 36H6.02576C6.27441 38.25 8.1814 40 10.497 40C12.638 40 14.4297 38.504 14.8843 36.5H24.9929C25.545 36.5 25.9926 36.0523 25.9926 35.5C25.9926 34.9477 25.545 34.5 24.9929 34.5H14.8843C14.4297 32.4961 12.638 31.0001 10.497 31.0001C8.53825 31.0001 6.87186 32.2523 6.25428 34H4.99858C4.44645 34 3.99887 33.5523 3.99887 33V31.0001ZM7.99773 35.5C7.99773 34.1193 9.1167 33 10.497 33C11.8773 33 12.9963 34.1193 12.9963 35.5C12.9963 36.8807 11.8773 38 10.497 38C9.1167 38 7.99773 36.8807 7.99773 35.5Z" fill="#3D75E4"/>
<path d="M3.99887 14.0002C3.99887 13.448 3.55128 13.0003 2.99915 13.0003C2.44702 13.0003 1.99943 13.448 1.99943 14.0002V16.0002C1.99943 16.5525 2.44702 17.0002 2.99915 17.0002C3.55128 17.0002 3.99887 17.4479 3.99887 18.0002C3.99887 18.5525 3.55128 19.0002 2.99915 19.0002C2.44702 19.0002 1.99943 18.5525 1.99943 18.0002C1.99943 17.4479 1.55184 17.0002 0.999716 17.0002C0.447588 17.0002 0 17.4479 0 18.0002C0 19.6571 1.34276 21.0002 2.99915 21.0002C4.65553 21.0002 5.9983 19.6571 5.9983 18.0002C5.9983 16.694 5.16373 15.5828 3.99887 15.1709V14.0002Z" fill="#3D75E4"/>
</svg>
