<svg width="40" height="40" viewBox="0 0 40 40" fill="none" xmlns="http://www.w3.org/2000/svg">
<path d="M15 0C12.7909 0 11 1.79086 11 4H7C5.34315 4 4 5.34315 4 7V11C4 11.7403 4.4022 12.3866 5 12.7324V37C5 38.6569 6.34315 40 8 40H32C33.6569 40 35 38.6569 35 37V15C35 14.4477 34.5523 14 34 14C33.4477 14 33 14.4477 33 15V37C33 37.5523 32.5523 38 32 38H8C7.44772 38 7 37.5523 7 37V12C7 11.4477 6.55228 11 6 11V7C6 6.44772 6.44772 6 7 6H11C12.1046 6 13 5.10457 13 4C13 2.89543 13.8954 2 15 2H16C16.5523 2 17 1.55228 17 1C17 0.447715 16.5523 0 16 0H15Z" fill="#3D75E4"/>
<path d="M27.5 4C26.9477 4 26.5 4.44772 26.5 5C26.5 5.55228 26.9477 6 27.5 6H33C33.5523 6 34 6.44771 34 7V11H9.5C8.94772 11 8.5 11.4477 8.5 12C8.5 12.5523 8.94772 13 9.5 13H34C35.1046 13 36 12.1046 36 11V7C36 5.34315 34.6569 4 33 4H27.5Z" fill="#3D75E4"/>
<path d="M21 0C18.7909 0 17 1.79086 17 4H15C14.4477 4 14 4.44772 14 5C14 5.55228 14.4477 6 15 6H17C18.1046 6 19 5.10457 19 4C19 2.89543 19.8954 2 21 2H22C22.5523 2 23 1.55228 23 1C23 0.447715 22.5523 0 22 0H21Z" fill="#3D75E4"/>
<path d="M11 16C11.5523 16 12 16.4477 12 17V20.1421L17.0051 20.9121C17.6357 21.0091 18.219 21.3047 18.6702 21.7559L20.7894 23.875C20.9258 24.0114 21.0987 24.1054 21.2872 24.1458L23.1143 24.5368C23.8028 24.6841 24.4175 25.0689 24.8508 25.6237L26.0002 27.0952V27C26.0002 26.4477 26.4479 26 27.0002 26C27.5524 26 28.0002 26.4477 28.0002 27V30C28.0002 30.0154 27.9998 30.0308 27.9991 30.0462C27.9966 30.1007 27.9896 30.1546 27.9784 30.2074C27.9333 30.4209 27.8184 30.6208 27.6384 30.7698C27.6221 30.7833 27.6055 30.7962 27.5886 30.8086C27.3625 30.9733 27.0887 31.0297 26.8312 30.9856L23.8358 30.4864C23.291 30.3956 22.923 29.8804 23.0138 29.3356C23.1046 28.7908 23.6198 28.4228 24.1646 28.5136L24.631 28.5913L23.2747 26.8548C23.1302 26.6699 22.9253 26.5416 22.6958 26.4925L20.8687 26.1015C20.303 25.9804 19.7843 25.6984 19.3752 25.2893L17.256 23.1701C17.1056 23.0197 16.9112 22.9212 16.701 22.8888L10.8646 21.9909C10.6557 21.9626 10.4673 21.8699 10.3201 21.7333C10.1551 21.5802 10.0418 21.3721 10.0095 21.1382C10.0032 21.0931 9.99998 21.0472 10 21.0007L10 17C10 16.4477 10.4477 16 11 16Z" fill="#3D75E4"/>
<path d="M27 0C24.7909 0 23 1.79086 23 4H21C20.4477 4 20 4.44772 20 5C20 5.55228 20.4477 6 21 6H23C24.1046 6 25 5.10457 25 4C25 2.89543 25.8954 2 27 2H28C28.5523 2 29 1.55228 29 1C29 0.447715 28.5523 0 28 0H27Z" fill="#3D75E4"/>
<path d="M11 23C11.5523 23 12 23.4477 12 24V33H29C29.5523 33 30 33.4477 30 34C30 34.5523 29.5523 35 29 35H11C10.4477 35 10 34.5523 10 34V24C10 23.4477 10.4477 23 11 23Z" fill="#3D75E4"/>
</svg>
