<svg width="40" height="40" viewBox="0 0 40 40" fill="none" xmlns="http://www.w3.org/2000/svg">
<g clip-path="url(#clip0)">
<path fill-rule="evenodd" clip-rule="evenodd" d="M29 8.36214V10.5C29 11.0523 29.4477 11.5 30 11.5C30.5523 11.5 31 11.0523 31 10.5V5.5C31 4.40932 30.29 3.55696 29.4521 2.94215C28.5936 2.31223 27.4154 1.78687 26.0494 1.36296C23.3055 0.511382 19.5759 0 15.5 0C11.4241 0 7.69451 0.511382 4.95055 1.36296C3.5846 1.78687 2.40641 2.31223 1.54791 2.94215C0.709989 3.55696 0 4.40932 0 5.5V11.5C0 12.4989 0.59854 13.2994 1.33175 13.8916C2.07462 14.4915 3.09213 14.9956 4.26873 15.4113C6.63206 16.2463 9.86156 16.8027 13.4572 16.9566C14.009 16.9803 14.4755 16.5521 14.4991 16.0003C14.5227 15.4485 14.0946 14.9821 13.5428 14.9585C10.0768 14.8101 7.05625 14.275 4.93501 13.5255C3.86932 13.149 3.0859 12.7375 2.5884 12.3357C2.08125 11.926 2 11.6385 2 11.5V8.36214C2.80168 8.85895 3.81075 9.28331 4.95055 9.63704C7.69451 10.4886 11.4241 11 15.5 11C19.5759 11 23.3055 10.4886 26.0494 9.63704C27.1893 9.28331 28.1983 8.85895 29 8.36214ZM2 5.5C2 5.34804 2.10149 5.01658 2.73106 4.55465C3.34003 4.10782 4.28532 3.66351 5.54335 3.27308C8.04736 2.49598 11.5678 2 15.5 2C19.4322 2 22.9526 2.49598 25.4566 3.27308C26.7147 3.66351 27.66 4.10782 28.2689 4.55465C28.8985 5.01658 29 5.34804 29 5.5C29 5.65196 28.8985 5.98342 28.2689 6.44535C27.66 6.89218 26.7147 7.33649 25.4566 7.72692C22.9526 8.50402 19.4322 9 15.5 9C11.5678 9 8.04736 8.50402 5.54335 7.72692C4.28532 7.33649 3.34003 6.89218 2.73106 6.44535C2.10149 5.98342 2 5.65196 2 5.5Z" fill="#3D75E4"/>
<path d="M30.9431 15.0689C24.906 12.3389 17.7989 15.0198 15.0689 21.0569C12.5615 26.6018 14.6186 33.0493 19.6483 36.179V33H19C18.4477 33 18 32.5523 18 32C18 31.4477 18.4477 31 19 31H19.6483V29H19C18.4477 29 18 28.5523 18 28C18 27.4477 18.4477 27 19 27H19.6483V19C19.6483 18.4477 20.096 18 20.6483 18C20.7083 18 20.767 18.0053 20.8241 18.0154C20.8812 18.0053 20.9399 18 20.9999 18H27.1161C27.1415 18 27.1667 18.0009 27.1916 18.0028C30.3221 18.0947 33 20.4284 33 23.5C33 26.6341 30.212 29 27 29H24C23.4477 29 23 28.5523 23 28C23 27.4477 23.4477 27 24 27H27C29.3109 27 31 25.3365 31 23.5C31 21.6635 29.3109 20 27 20H21.6483V31H27C27.5523 31 28 31.4477 28 32C28 32.5523 27.5523 33 27 33H21.6483V37.872H21.6447C21.6409 38.0003 21.6122 38.13 21.556 38.2543C21.3285 38.7575 20.736 38.981 20.2328 38.7534C13.1893 35.5683 10.0614 27.2763 13.2466 20.2328C16.4317 13.1893 24.7237 10.0614 31.7672 13.2466C38.8107 16.4317 41.9386 24.7237 38.7534 31.7672C36.4142 36.94 31.3215 39.999 25.9949 40C25.4426 40.0001 24.9948 39.5525 24.9947 39.0002C24.9946 38.4479 25.4422 38.0001 25.9945 38C30.5645 37.9992 34.9273 35.3742 36.9311 30.9431C39.6611 24.906 36.9802 17.7989 30.9431 15.0689Z" fill="#3D75E4"/>
<path d="M1 14.5C1.55228 14.5 2 14.9477 2 15.5V17.5C2 17.619 2.05645 17.8423 2.39598 18.1672C2.73716 18.4936 3.28903 18.845 4.07115 19.1867C5.62965 19.8676 7.89782 20.4222 10.6133 20.7317C11.162 20.7943 11.5561 21.2898 11.4936 21.8386C11.431 22.3873 10.9355 22.7814 10.3867 22.7189C7.55765 22.3963 5.07582 21.8082 3.27045 21.0194C2.37064 20.6263 1.58711 20.1612 1.01337 19.6123C0.437979 19.0618 0 18.3509 0 17.5V15.5C0 14.9477 0.447715 14.5 1 14.5Z" fill="#3D75E4"/>
<path d="M1 20.5C1.55228 20.5 2 20.9477 2 21.5V23.5C2 23.6158 2.05288 23.8286 2.36655 24.1385C2.68309 24.4514 3.19779 24.7913 3.93321 25.1253C5.39921 25.7911 7.54171 26.3439 10.1263 26.673C10.6742 26.7428 11.0617 27.2434 10.992 27.7913C10.9222 28.3392 10.4216 28.7267 9.8737 28.657C7.17748 28.3137 4.81997 27.7246 3.10619 26.9463C2.2517 26.5582 1.50656 26.1005 0.960722 25.5611C0.41202 25.0188 0 24.3247 0 23.5V21.5C0 20.9477 0.447715 20.5 1 20.5Z" fill="#3D75E4"/>
<path d="M1 26.5C1.55228 26.5 2 26.9477 2 27.5V29.5C2 29.6255 2.06405 29.87 2.45716 30.2239C2.84889 30.5766 3.47636 30.9497 4.35237 31.3051C6.09697 32.0128 8.61625 32.5663 11.5885 32.8305C11.75 32.8449 11.9128 32.8584 12.0767 32.871C12.6274 32.9133 13.0394 33.3941 12.9971 33.9447C12.9547 34.4954 12.474 34.9074 11.9233 34.8651C11.7515 34.8519 11.5809 34.8377 11.4115 34.8227C8.32096 34.548 5.59023 33.9656 3.60053 33.1584C2.60939 32.7563 1.74864 32.2772 1.11893 31.7102C0.490599 31.1445 0 30.4019 0 29.5V27.5C0 26.9477 0.447715 26.5 1 26.5Z" fill="#3D75E4"/>
</g>
<defs>
<clipPath id="clip0">
<rect width="40" height="40" fill="white"/>
</clipPath>
</defs>
</svg>
