<svg width="40" height="40" viewBox="0 0 40 40" fill="none" xmlns="http://www.w3.org/2000/svg">
<path fill-rule="evenodd" clip-rule="evenodd" d="M14.5398 6.99306C16.1282 3.63972 18.1261 2 20 2C21.7666 2 23.6448 3.4522 25.196 6.45854C25.4492 6.94934 26.0524 7.14192 26.5432 6.88867C27.034 6.63543 27.2266 6.03226 26.9733 5.54146C26.436 4.50014 25.8203 3.55023 25.1334 2.74236C27.7861 3.53011 30.1825 4.91291 32.1691 6.73666C32.576 7.11015 33.2086 7.08311 33.5821 6.67626C33.9555 6.26942 33.9285 5.63683 33.5217 5.26334C29.9624 1.99584 25.2131 0 20 0C8.95431 0 0 8.95431 0 20C0 25.5535 2.26337 30.5774 5.91693 34.2007L5.91987 34.2037L5.93688 34.2205C7.8352 36.0979 10.1074 37.5978 12.6314 38.5986C13.1448 38.8021 13.726 38.551 13.9296 38.0376C14.1332 37.5242 13.882 36.943 13.3686 36.7394C11.4202 35.9668 9.6389 34.864 8.09369 33.5002C9.16606 32.5536 10.3518 31.733 11.6277 31.0613C12.3035 33.1366 13.1689 34.944 14.1837 36.3782C14.5027 36.829 15.1268 36.9358 15.5776 36.6168C16.0285 36.2978 16.1353 35.6737 15.8163 35.2229C14.896 33.9224 14.0906 32.2221 13.4598 30.2248C14.0465 29.9959 14.648 29.7969 15.2626 29.6297C15.7956 29.4847 16.11 28.9352 15.965 28.4022C15.8201 27.8693 15.2705 27.5548 14.7376 27.6998C14.1213 27.8675 13.5169 28.0639 12.9259 28.2874C12.4037 26.0936 12.0787 23.6291 12.0125 21H15C15.5523 21 16 20.5523 16 20C16 19.4477 15.5523 19 15 19H12.0126C12.0786 16.3767 12.4027 13.9111 12.926 11.7126C13.517 11.9362 14.1213 12.1325 14.7376 12.3002C15.2705 12.4452 15.8201 12.1307 15.965 11.5978C16.11 11.0648 15.7956 10.5153 15.2626 10.3703C14.648 10.2031 14.0464 10.0041 13.4598 9.7752C13.7775 8.76914 14.1399 7.83728 14.5398 6.99306ZM10.012 19C10.0815 16.1003 10.4519 13.3537 11.066 10.8983C9.46503 10.0977 7.98681 9.08877 6.66682 7.9074C3.97603 10.8725 2.26064 14.7389 2.02731 19H10.012ZM2.02731 21C2.26062 25.2606 3.9757 29.1273 6.66671 32.0927C7.98673 30.9113 9.465 29.9024 11.066 29.1017C10.4507 26.6412 10.0814 23.8932 10.012 21H2.02731ZM12.7323 6.13688C12.3235 6.99981 11.9537 7.93762 11.6277 8.93867C10.3519 8.26702 9.16618 7.44648 8.09384 6.49996C10.0271 4.79363 12.3297 3.4961 14.8664 2.74264C14.053 3.70006 13.3378 4.8586 12.7323 6.13688Z" fill="#3D75E4"/>
<path fill-rule="evenodd" clip-rule="evenodd" d="M28.5 17C26.0147 17 24 19.0147 24 21.5C24 23.9853 26.0147 26 28.5 26C30.9853 26 33 23.9853 33 21.5C33 19.0147 30.9853 17 28.5 17ZM26 21.5C26 20.1193 27.1193 19 28.5 19C29.8807 19 31 20.1193 31 21.5C31 22.8807 29.8807 24 28.5 24C27.1193 24 26 22.8807 26 21.5Z" fill="#3D75E4"/>
<path d="M23 30C23 29.4477 23.4477 29 24 29H33C33.5523 29 34 29.4477 34 30C34 30.5523 33.5523 31 33 31H24C23.4477 31 23 30.5523 23 30Z" fill="#3D75E4"/>
<path d="M26 32C25.4477 32 25 32.4477 25 33C25 33.5523 25.4477 34 26 34H31C31.5523 34 32 33.5523 32 33C32 32.4477 31.5523 32 31 32H26Z" fill="#3D75E4"/>
<path fill-rule="evenodd" clip-rule="evenodd" d="M20 10C19.4477 10 19 10.4477 19 11C19 11.5523 19.4477 12 20 12H39C39.5523 12 40 12.4477 40 13V37C40 38.6569 38.6569 40 37 40H20C18.3431 40 17 38.6569 17 37V11C17 9.34315 18.3431 8 20 8H39C39.5523 8 40 8.44771 40 9C40 9.55229 39.5523 10 39 10H20ZM19 13.8293V37C19 37.5523 19.4477 38 20 38H37C37.5523 38 38 37.5523 38 37V14H20C19.6494 14 19.3128 13.9398 19 13.8293Z" fill="#3D75E4"/>
</svg>
