<svg width="40" height="40" viewBox="0 0 40 40" fill="none" xmlns="http://www.w3.org/2000/svg">
<path d="M20 8.0277C17.8128 8.0277 16.0397 9.82477 16.0397 12.0416C16.0397 14.2583 17.8128 16.0554 20 16.0554C20.5468 16.0554 20.9901 16.5047 20.9901 17.0589C20.9901 17.6131 20.5468 18.0623 20 18.0623C16.7192 18.0623 14.0596 15.3667 14.0596 12.0416C14.0596 8.71637 16.7192 6.02078 20 6.02078C23.2808 6.02078 25.9404 8.71637 25.9404 12.0416C25.9404 14.0117 25.0057 15.7609 23.5654 16.8577C23.1282 17.1906 22.5076 17.1012 22.1791 16.6582C21.8507 16.2151 21.9388 15.586 22.376 15.2531C23.3399 14.5191 23.9603 13.3539 23.9603 12.0416C23.9603 9.82477 22.1872 8.0277 20 8.0277Z" fill="#3D75E4"/>
<path fill-rule="evenodd" clip-rule="evenodd" d="M8.11922 12.0416C8.11922 5.39119 13.4384 0 20 0C26.5616 0 31.8808 5.39119 31.8808 12.0416C31.8808 16.4263 29.7021 19.6711 27.3156 22.5354C26.7645 23.1969 26.194 23.8474 25.6332 24.4868L25.4913 24.6487C24.8816 25.344 24.2849 26.0279 23.717 26.7225C22.58 28.1131 21.5895 29.5098 20.8989 31.0261C20.7371 31.3815 20.3862 31.6091 20 31.6091C19.6138 31.6091 19.2629 31.3815 19.1011 31.0261C18.4105 29.5098 17.42 28.1131 16.283 26.7225C15.7151 26.0279 15.1184 25.344 14.5087 24.6487L14.3668 24.4869C13.8061 23.8475 13.2355 23.1969 12.6844 22.5354C10.2979 19.6711 8.11922 16.4263 8.11922 12.0416ZM20 2.00693C14.532 2.00693 10.0993 6.49958 10.0993 12.0416C10.0993 15.6845 11.8809 18.4605 14.1973 21.2406C14.7314 21.8817 15.2857 22.5137 15.8498 23.1569L15.9889 23.3156C16.5976 24.0099 17.2153 24.7175 17.8076 25.4419C18.5936 26.4032 19.3487 27.4102 20 28.4894C20.6513 27.4102 21.4064 26.4032 22.1924 25.4419C22.7847 24.7175 23.4024 24.0099 24.0111 23.3156L24.1502 23.1569C24.7143 22.5137 25.2686 21.8817 25.8027 21.2406C28.1191 18.4605 29.9007 15.6845 29.9007 12.0416C29.9007 6.49958 25.468 2.00693 20 2.00693Z" fill="#3D75E4"/>
<path d="M8.72548 26.8336C7.26176 26.263 5.61257 26.9441 4.95914 28.3891L1.18496 36.7351C0.480316 38.2933 1.90288 39.9719 3.52901 39.501L7.74033 38.2815C7.9513 38.2204 8.17631 38.232 8.38003 38.3146L12.0061 39.7847C12.6786 40.0573 13.4261 40.0715 14.1082 39.8246L19.001 38.0535C19.647 37.8197 20.353 37.8197 20.999 38.0535L25.8918 39.8246C26.5739 40.0715 27.3214 40.0573 27.9939 39.7847L31.62 38.3146C31.8237 38.232 32.0487 38.2204 32.2597 38.2815L36.471 39.501C38.0971 39.9719 39.5197 38.2933 38.815 36.7351L35.0409 28.3891C34.3874 26.9441 32.7382 26.263 31.2745 26.8336L27.1591 28.4379C26.969 28.512 26.7611 28.5249 26.5635 28.4748L25.1905 28.1269C24.66 27.9925 24.1224 28.3194 23.9898 28.857C23.8572 29.3947 24.1797 29.9395 24.7102 30.0739L26.0833 30.4218C26.6759 30.572 27.2998 30.5333 27.8699 30.3111L31.9853 28.7068C32.4733 28.5166 33.023 28.7436 33.2408 29.2253L37.015 37.5713L32.8037 36.3518C32.1708 36.1685 31.4957 36.2035 30.8846 36.4512L27.2585 37.9213C27.0343 38.0122 26.7851 38.0169 26.5578 37.9346L21.665 36.1635C20.5883 35.7738 19.4117 35.7738 18.335 36.1635L13.4422 37.9346C13.2149 38.0169 12.9657 38.0122 12.7415 37.9213L9.11543 36.4512C8.50428 36.2035 7.82925 36.1685 7.19635 36.3518L2.98503 37.5713L6.75921 29.2253C6.97702 28.7436 7.52675 28.5166 8.01466 28.7068L12.1301 30.3111C12.7002 30.5333 13.3241 30.572 13.9167 30.4218L15.2898 30.0739C15.8203 29.9395 16.1428 29.3947 16.0102 28.857C15.8776 28.3194 15.34 27.9925 14.8095 28.1269L13.4365 28.4748C13.2389 28.5249 13.031 28.512 12.8409 28.4379L8.72548 26.8336Z" fill="#3D75E4"/>
</svg>
