<svg width="40" height="40" viewBox="0 0 40 40" fill="none" xmlns="http://www.w3.org/2000/svg">
<path fill-rule="evenodd" clip-rule="evenodd" d="M30 2C30 0.895431 30.8954 0 32 0H38C39.1046 0 40 0.89543 40 2V38C40 39.1046 39.1046 40 38 40H2C0.89543 40 0 39.1046 0 38V23C0 21.8954 0.89543 21 2 21H9C9.55229 21 10 21.4477 10 22C10 22.5523 9.55229 23 9 23H2V38H11V33C11 32.4477 11.4477 32 12 32C12.5523 32 13 32.4477 13 33V38H20V34C20 33.4477 20.4477 33 21 33C21.5523 33 22 33.4477 22 34V38H30V27C30 26.4477 30.4477 26 31 26C31.5523 26 32 26.4477 32 27V38H38V2L32 2V11C32 11.5523 31.5523 12 31 12C30.4477 12 30 11.5523 30 11V2ZM11 9C11 7.89543 11.8954 7 13 7H20C21.1046 7 22 7.89543 22 9V10.7957C22 11.348 21.5523 11.7957 21 11.7957C20.4477 11.7957 20 11.348 20 10.7957V9H13V22C13 22.5523 12.5523 23 12 23C11.4477 23 11 22.5523 11 22V9ZM20 15C20 13.8954 20.8954 13 22 13H28C28.5523 13 29 13.4477 29 14C29 14.5523 28.5523 15 28 15H22V24.5C22 25.0523 21.5523 25.5 21 25.5C20.4477 25.5 20 25.0523 20 24.5V15ZM33.5 15C32.6716 15 32 15.6716 32 16.5C32 17.3284 32.6716 18 33.5 18C34.3284 18 35 17.3284 35 16.5C35 15.6716 34.3284 15 33.5 15ZM30 16.5C30 14.567 31.567 13 33.5 13C35.433 13 37 14.567 37 16.5C37 18.433 35.433 20 33.5 20C33.2508 20 33.0076 19.9739 32.7731 19.9244L28.8412 26.0408C28.5425 26.5053 27.9238 26.6398 27.4592 26.3412C26.9947 26.0425 26.8602 25.4238 27.1588 24.9592L31.0135 18.9631C30.3869 18.3307 30 17.4605 30 16.5ZM15.5 25C14.6716 25 14 25.6716 14 26.5C14 27.3284 14.6716 28 15.5 28C16.3284 28 17 27.3284 17 26.5C17 25.6716 16.3284 25 15.5 25ZM12 26.5C12 24.567 13.567 23 15.5 23C17.433 23 19 24.567 19 26.5C19 28.433 17.433 30 15.5 30C14.598 30 13.7757 29.6588 13.1551 29.0984L12.0547 29.8321C11.5952 30.1384 10.9743 30.0142 10.6679 29.5547C10.3616 29.0952 10.4858 28.4743 10.9453 28.1679L12.1139 27.3889C12.0396 27.1051 12 26.8071 12 26.5ZM24.5 28C23.6716 28 23 28.6716 23 29.5C23 30.3284 23.6716 31 24.5 31C25.3284 31 26 30.3284 26 29.5C26 28.6716 25.3284 28 24.5 28ZM21.6558 27.4599C22.291 26.5758 23.3283 26 24.5 26C26.433 26 28 27.567 28 29.5C28 31.433 26.433 33 24.5 33C22.567 33 21 31.433 21 29.5C21 29.4562 21.0008 29.4126 21.0024 29.3692L20.0528 28.8944C19.5588 28.6474 19.3586 28.0468 19.6056 27.5528C19.8526 27.0588 20.4532 26.8586 20.9472 27.1056L21.6558 27.4599ZM6.5 30C5.67157 30 5 30.6716 5 31.5C5 32.3284 5.67157 33 6.5 33C7.32843 33 8 32.3284 8 31.5C8 30.6716 7.32843 30 6.5 30ZM3 31.5C3 29.567 4.567 28 6.5 28C8.433 28 10 29.567 10 31.5C10 33.433 8.433 35 6.5 35C4.567 35 3 33.433 3 31.5Z" fill="#3D75E4"/>
</svg>
