<svg width="40" height="40" viewBox="0 0 40 40" fill="none" xmlns="http://www.w3.org/2000/svg">
<path fill-rule="evenodd" clip-rule="evenodd" d="M18.7048 25.137L17.9989 25.8643L17.2931 25.137C17.6871 24.7604 18.3107 24.7604 18.7048 25.137ZM17.9989 27.3299C17.5929 27.7785 17.0638 28.4017 16.5366 29.1321C15.4139 30.6874 14.4372 32.5437 14.4372 34.1774C14.4372 36.3334 16.0862 37.9806 17.9989 37.9806C19.9116 37.9806 21.5607 36.3334 21.5607 34.1774C21.5607 32.5437 20.584 30.6874 19.4613 29.1321C18.9341 28.4017 18.4049 27.7785 17.9989 27.3299ZM17.2931 25.137C17.2932 25.1368 17.2931 25.137 17.9989 25.8643C18.7048 25.137 18.7046 25.1368 18.7048 25.137L18.7069 25.139L18.7107 25.1426L18.7232 25.1547L18.767 25.1975C18.8043 25.2342 18.8574 25.287 18.9241 25.3548C19.0574 25.4904 19.2453 25.6862 19.4697 25.9327C19.9175 26.4247 20.5157 27.1247 21.116 27.9563C22.283 29.573 23.596 31.8734 23.596 34.1774C23.596 37.3376 21.1445 40 17.9989 40C14.8534 40 12.4019 37.3376 12.4019 34.1774C12.4019 31.8734 13.7148 29.573 14.8819 27.9563C15.4821 27.1247 16.0803 26.4247 16.5281 25.9327C16.7525 25.6862 16.9405 25.4904 17.0738 25.3548C17.1405 25.287 17.1936 25.2342 17.2309 25.1975L17.2747 25.1547L17.2871 25.1426L17.2909 25.139L17.2922 25.1378L17.2931 25.137Z" fill="#3D75E4"/>
<path d="M19.4217 2.20186C19.8 1.9642 20.3005 1.95794 20.6861 2.18752L37.9644 12.4735L35.6809 13.2268C35.3445 13.3378 34.9734 13.297 34.6783 13.1231L21.6892 5.4711C20.6742 4.87316 19.3941 4.87316 18.3791 5.4711L4.51767 13.637C4.19043 13.8298 4.0118 14.1761 4.01966 14.5285V35.9612C4.01966 37.6341 5.38652 38.9903 7.07262 38.9903L10.3512 38.9903C10.9132 38.9903 11.3688 38.5382 11.3688 37.9806C11.3688 37.423 10.9132 36.9709 10.3512 36.9709L7.07261 36.9709C6.51057 36.9709 6.05495 36.5189 6.05495 35.9612V15.0799L19.4182 7.20748C19.7927 6.98688 20.2756 6.98688 20.6501 7.20748L33.6392 14.8595C34.4469 15.3353 35.432 15.437 36.323 15.143L38.6065 14.3897C40.2572 13.8451 40.5032 11.6299 39.0115 10.7418L21.7333 0.455907C20.6889 -0.165829 19.3619 -0.150825 18.3328 0.495841L11.4111 4.8453V3.14612C11.4111 2.03084 10.4999 1.12672 9.3758 1.12672H7.12627C6.0022 1.12672 5.09097 2.03084 5.09097 3.14612V8.14362L0.94672 10.7478C-0.502427 11.6584 -0.235953 13.8302 1.39107 14.3692L1.4723 14.3962C2.0054 14.5728 2.58186 14.2872 2.75988 13.7583C2.93789 13.2293 2.65004 12.6574 2.11694 12.4807L2.03571 12.4538L6.63353 9.56462C6.75603 9.4913 6.86169 9.3931 6.9434 9.27706C7.05866 9.11339 7.12627 8.91425 7.12627 8.69944V3.14612H9.3758V6.65548C9.37089 6.84847 9.4216 7.04496 9.53353 7.2203C9.639 7.38554 9.78482 7.51004 9.95019 7.58919C10.0557 7.63992 10.1714 7.6731 10.2933 7.68492C10.4084 7.69627 10.5259 7.68828 10.6406 7.65977C10.7542 7.63165 10.8602 7.58459 10.9551 7.52215L19.4217 2.20186Z" fill="#3D75E4"/>
<path fill-rule="evenodd" clip-rule="evenodd" d="M16.7007 32.878C17.2569 32.9585 17.642 33.471 17.5609 34.0228C17.5489 34.1048 17.5854 34.3586 17.7794 34.651C17.8661 34.7819 17.9615 34.8833 18.0463 34.9491C18.1273 35.012 18.1717 35.0222 18.1716 35.0223C18.1716 35.0224 18.1722 35.0224 18.1716 35.0223C18.7266 35.1107 19.1034 35.6286 19.0143 36.1792C18.9252 36.7298 18.4031 37.1045 17.8482 37.0161C17.0386 36.8871 16.432 36.2932 16.0791 35.761C15.7201 35.2197 15.4387 34.4678 15.5469 33.7315C15.628 33.1797 16.1446 32.7976 16.7007 32.878Z" fill="#3D75E4"/>
<path d="M16.981 13.7479C16.981 13.1903 17.4366 12.7382 17.9986 12.7382H22.0692C22.6313 12.7382 23.0869 13.1903 23.0869 13.7479C23.0869 14.3056 22.6313 14.7576 22.0692 14.7576H21.0514L21.0514 15.7673H28.9251C32.8593 15.7673 36.0486 18.9317 36.0486 22.8352V35.9612C36.0486 37.6341 34.6818 38.9903 32.9957 38.9903H25.6282C25.0662 38.9903 24.6106 38.5382 24.6106 37.9806C24.6106 37.423 25.0662 36.9709 25.6282 36.9709H32.9957C33.5577 36.9709 34.0133 36.5189 34.0133 35.9612V22.8352C34.0133 20.047 31.7353 17.7867 28.9251 17.7867H20.0371L20.0338 17.7867L20.0304 17.7867H19.1527C17.4666 17.7867 16.0998 19.1429 16.0998 20.8158V21.8255H19.441C19.5962 20.6483 20.611 19.7394 21.8398 19.7394H27.656C29.9041 19.7394 31.7266 21.5476 31.7266 23.7782V28.5796C31.7266 29.1372 31.271 29.5893 30.709 29.5893C30.1469 29.5893 29.6913 29.1372 29.6913 28.5796V23.7782C29.6913 22.6629 28.7801 21.7588 27.656 21.7588H21.8398C21.6277 21.7588 21.4558 21.9294 21.4558 22.1398C21.4558 23.0815 20.6864 23.8449 19.7373 23.8449H16.0998C14.9757 23.8449 14.0645 22.9408 14.0645 21.8255V20.8158C14.0645 18.0729 16.2691 15.8409 19.0161 15.7691L19.0161 14.7576H17.9986C17.4366 14.7576 16.981 14.3056 16.981 13.7479Z" fill="#3D75E4"/>
</svg>
