<svg width="40" height="40" viewBox="0 0 40 40" fill="none" xmlns="http://www.w3.org/2000/svg">
<path d="M15.7072 0.2929C15.3166 -0.0976282 14.6835 -0.0976339 14.2929 0.292887C13.9024 0.683408 13.9024 1.31657 14.2929 1.7071C14.8868 2.30094 15 2.74401 15 3.09374C15 3.52388 14.836 3.96734 14.5715 4.62861L14.5465 4.69099C14.313 5.27368 14 6.05466 14 6.90625C14 7.86902 14.3867 8.80095 15.2929 9.70711C15.6834 10.0976 16.3166 10.0976 16.7071 9.70711C17.0976 9.31658 17.0976 8.68342 16.7071 8.29289C16.1133 7.69905 16 7.25598 16 6.90625C16 6.47611 16.164 6.03266 16.4285 5.37139L16.4535 5.309C16.687 4.7263 17 3.94534 17 3.09376C17 2.13099 16.6133 1.19906 15.7072 0.2929Z" fill="#3D75E4"/>
<path d="M11 11C8.79086 11 7 12.7909 7 15V17H1C0.447715 17 0 17.4477 0 18C0 18.5523 0.447715 19 1 19H7C8.10457 19 9 18.1046 9 17V15C9 13.8954 9.89543 13 11 13C12.1046 13 13 13.8954 13 15V27C13 27.5523 13.4477 28 14 28C14.5523 28 15 27.5523 15 27V15C15 13.8954 15.8954 13 17 13C18.1046 13 19 13.8954 19 15V20C19 20.5523 19.4477 21 20 21C20.5523 21 21 20.5523 21 20V15C21 13.8954 21.8954 13 23 13C24.1046 13 25 13.8954 25 15V27C25 27.5523 25.4477 28 26 28C26.5523 28 27 27.5523 27 27V15C27 13.8954 27.8954 13 29 13C30.1046 13 31 13.8954 31 15V28C31 29.1046 31.8954 30 33 30H35C35.5523 30 36 29.5523 36 29C36 28.4477 35.5523 28 35 28H33V15C33 12.7909 31.2091 11 29 11C27.8053 11 26.7329 11.5238 26 12.3542C25.2671 11.5238 24.1947 11 23 11C21.8053 11 20.7329 11.5238 20 12.3542C19.2671 11.5238 18.1947 11 17 11C15.8053 11 14.7329 11.5238 14 12.3542C13.2671 11.5238 12.1947 11 11 11Z" fill="#3D75E4"/>
<path d="M3 21C2.44772 21 2 21.4477 2 22C2 22.5523 2.44772 23 3 23H7V36C7 38.2091 8.79086 40 11 40C12.1947 40 13.2671 39.4762 14 38.6458C14.7329 39.4762 15.8053 40 17 40C18.1947 40 19.2671 39.4762 20 38.6458C20.7329 39.4762 21.8053 40 23 40C24.1947 40 25.2671 39.4762 26 38.6458C26.7329 39.4762 27.8053 40 29 40C31.2091 40 33 38.2091 33 36V34H35C37.7614 34 40 31.7614 40 29V25C40 24.4477 39.5523 24 39 24C38.4477 24 38 24.4477 38 25V29C38 30.6569 36.6569 32 35 32H33C31.8954 32 31 32.8954 31 34V36C31 37.1046 30.1046 38 29 38C27.8954 38 27 37.1046 27 36V31C27 30.4477 26.5523 30 26 30C25.4477 30 25 30.4477 25 31V36C25 37.1046 24.1046 38 23 38C21.8954 38 21 37.1046 21 36V24C21 23.4477 20.5523 23 20 23C19.4477 23 19 23.4477 19 24V36C19 37.1046 18.1046 38 17 38C15.8954 38 15 37.1046 15 36V31C15 30.4477 14.5523 30 14 30C13.4477 30 13 30.4477 13 31V36C13 37.1046 12.1046 38 11 38C9.89543 38 9 37.1046 9 36V23C9 21.8954 8.10457 21 7 21H3Z" fill="#3D75E4"/>
<path d="M19.2929 0.292887C19.6835 -0.0976339 20.3166 -0.0976282 20.7072 0.2929C21.6133 1.19906 22 2.13099 22 3.09376C22 3.94534 21.687 4.7263 21.4535 5.309L21.4285 5.37139C21.164 6.03266 21 6.47611 21 6.90625C21 7.25598 21.1133 7.69905 21.7071 8.29289C22.0976 8.68342 22.0976 9.31658 21.7071 9.70711C21.3166 10.0976 20.6834 10.0976 20.2929 9.70711C19.3867 8.80095 19 7.86902 19 6.90625C19 6.05466 19.313 5.27368 19.5465 4.69099L19.5715 4.62861C19.836 3.96734 20 3.52388 20 3.09374C20 2.74401 19.8868 2.30094 19.2929 1.7071C18.9024 1.31657 18.9024 0.683408 19.2929 0.292887Z" fill="#3D75E4"/>
<path d="M25.7072 0.2929C25.3166 -0.0976282 24.6835 -0.0976339 24.2929 0.292887C23.9024 0.683408 23.9024 1.31657 24.2929 1.7071C24.8868 2.30094 25 2.74401 25 3.09374C25 3.52388 24.836 3.96734 24.5715 4.62861L24.5465 4.69099C24.313 5.27368 24 6.05466 24 6.90625C24 7.86902 24.3867 8.80095 25.2929 9.70711C25.6834 10.0976 26.3166 10.0976 26.7071 9.70711C27.0976 9.31658 27.0976 8.68342 26.7071 8.29289C26.1133 7.69905 26 7.25598 26 6.90625C26 6.47611 26.164 6.03266 26.4285 5.37139L26.4535 5.309C26.687 4.7263 27 3.94534 27 3.09376C27 2.13099 26.6133 1.19906 25.7072 0.2929Z" fill="#3D75E4"/>
</svg>
