<svg width="40" height="40" viewBox="0 0 40 40" fill="none" xmlns="http://www.w3.org/2000/svg">
<path fill-rule="evenodd" clip-rule="evenodd" d="M18.8708 3.19461C18.34 2.68884 17.3518 1.97569 16.0414 1.97569C13.6869 1.97569 12.5006 3.01325 11.8608 3.99582C11.5264 4.50919 11.3298 5.02934 11.2177 5.42462C11.1842 5.5422 11.1587 5.64705 11.1396 5.73529L11.1284 5.7881L11.1221 5.81918L11.1184 5.83914L11.1092 5.88849C11.1035 5.92012 11.0991 5.94695 11.0959 5.96847C11.0936 5.98333 11.0919 5.99569 11.0906 6.00537L11.0881 6.02264L11.0873 6.02997C11.0346 6.5327 10.61 6.91493 10.103 6.91493C7.96806 6.91493 6.04611 8.34059 4.92735 10.5235C3.81342 12.697 3.59413 15.4583 4.74117 17.8484C4.97736 18.3405 4.76908 18.9304 4.27614 19.1661C3.78309 19.4018 3.19206 19.1939 2.95598 18.7019C1.50836 15.6855 1.8075 12.2727 3.16499 9.62382C4.39599 7.22194 6.57903 5.31224 9.28496 4.98789L9.30284 4.92256L9.31311 4.88602C9.46389 4.3552 9.73126 3.64054 10.201 2.9191C11.1695 1.43206 12.9523 0 16.0414 0C18.0849 0 19.5411 1.10174 20.2378 1.76575C20.79 2.29205 20.99 2.99706 20.99 3.62209V10.8663H27.0973C27.505 9.71528 28.6047 8.89062 29.8976 8.89062C31.5375 8.89062 32.8668 10.2174 32.8668 11.8542C32.8668 13.4909 31.5375 14.8177 29.8976 14.8177C28.6047 14.8177 27.505 13.993 27.0973 12.842H20.99C19.8968 12.842 19.0106 11.9575 19.0106 10.8663V3.62209C19.0106 3.3922 18.9381 3.2588 18.8708 3.19461ZM30.8873 11.8542C30.8873 12.3997 30.4442 12.842 29.8976 12.842C29.351 12.842 28.9079 12.3997 28.9079 11.8542C28.9079 11.3086 29.351 10.8663 29.8976 10.8663C30.4442 10.8663 30.8873 11.3086 30.8873 11.8542Z" fill="#3D75E4"/>
<path fill-rule="evenodd" clip-rule="evenodd" d="M11.0927 17.2873C9.79988 17.2873 8.70009 18.112 8.29245 19.263H5.79505C5.19616 19.263 4.51693 19.4398 3.98449 19.9321C2.1749 21.6053 1.89521 23.9014 2.49507 25.7396C2.89726 26.9719 3.74987 28.1267 4.91188 28.7219C4.43562 29.5143 4.21984 30.3463 4.24558 31.1813C4.2846 32.4527 4.87866 33.5871 5.67508 34.4681C6.47271 35.3502 7.52333 36.0373 8.60754 36.419C9.30079 36.6631 10.0552 36.7976 10.7905 36.7442C11.1768 37.8847 12.0981 38.7402 13.1272 39.268C14.4891 39.9666 16.2208 40.2043 17.7705 39.8098C18.3002 39.6751 18.6201 39.1372 18.485 38.6086C18.35 38.0799 17.8111 37.7606 17.2815 37.8954C16.2252 38.1643 14.9877 38.001 14.032 37.5108C13.0728 37.0189 12.5773 36.3101 12.5773 35.5625C12.5773 35.2335 12.4133 34.926 12.1396 34.7425C11.866 34.559 11.5187 34.5236 11.2136 34.6479C10.7442 34.8391 10.0573 34.8345 9.26587 34.5558C8.48781 34.2819 7.71749 33.7781 7.14469 33.1445C6.57082 32.5098 6.24509 31.8039 6.22407 31.1208C6.20402 30.4672 6.45773 29.6924 7.32254 28.868C7.61503 28.5892 7.70806 28.1608 7.55765 27.7861C7.40711 27.4114 7.04345 27.1658 6.63896 27.1658C5.74564 27.1658 4.79517 26.4086 4.37727 25.1278C3.97773 23.9032 4.17321 22.4508 5.32979 21.3814C5.40856 21.3086 5.56103 21.2387 5.79505 21.2387H8.29245C8.70009 22.3897 9.79988 23.2144 11.0927 23.2144C12.7326 23.2144 14.0619 21.8876 14.0619 20.2509C14.0619 18.6141 12.7326 17.2873 11.0927 17.2873ZM12.0825 20.2509C12.0825 20.7964 11.6393 21.2387 11.0927 21.2387C10.5462 21.2387 10.103 20.7964 10.103 20.2509C10.103 19.7053 10.5462 19.263 11.0927 19.263C11.6393 19.263 12.0825 19.7053 12.0825 20.2509Z" fill="#3D75E4"/>
<path fill-rule="evenodd" clip-rule="evenodd" d="M22.7909 2.16884C23.1427 2.05043 23.5326 1.97569 23.9592 1.97569C26.3137 1.97569 27.5 3.01325 28.1398 3.99582C28.4743 4.50919 28.6708 5.02934 28.783 5.42462C28.8169 5.54416 28.8426 5.65054 28.862 5.73969C28.8743 5.79673 28.884 5.84668 28.8914 5.88849C28.8996 5.93398 28.9065 5.97962 28.9128 6.02539C28.9491 6.51822 29.416 6.91493 29.8976 6.91493C32.3026 6.91493 34.4468 8.73533 35.4531 11.3778C36.4478 13.9899 36.2214 17.1719 34.1001 19.6019C33.9174 19.8112 33.8313 20.0875 33.8629 20.3632C33.8946 20.639 34.041 20.8887 34.2663 21.0513C35.5708 21.9929 35.9479 23.3086 35.7711 24.5006C35.6134 25.5644 35.0356 26.435 34.3514 26.8657V25.1901C34.3514 24.0989 33.4652 23.2144 32.3719 23.2144H26.9284V21.564C28.0816 21.1572 28.9079 20.0594 28.9079 18.7691C28.9079 17.1324 27.5785 15.8055 25.9387 15.8055C24.2988 15.8055 22.9695 17.1324 22.9695 18.7691C22.9695 20.0594 23.7958 21.1572 24.949 21.564V23.2144C24.949 24.3055 25.8351 25.1901 26.9284 25.1901H32.3719V27.1658C32.3719 27.7043 32.595 28.229 32.996 28.5852C33.4192 28.9613 34.0432 29.1391 34.679 28.8999C36.3399 28.2753 37.4645 26.5762 37.7293 24.7897C37.9625 23.2165 37.5509 21.4755 36.2092 20.1185C38.3017 17.1762 38.4123 13.5875 37.3034 10.6758C36.2016 7.7821 33.8017 5.3564 30.7155 4.98771L30.7031 4.94213L30.6875 4.88602C30.5367 4.3552 30.2694 3.64054 29.7996 2.9191C28.8312 1.43206 27.0483 0 23.9592 0C23.2968 0 22.6933 0.116668 22.1583 0.296794C21.6404 0.471132 21.3622 1.03159 21.5369 1.54854C21.7116 2.0655 22.273 2.34321 22.7909 2.16884ZM28.9128 6.02539C28.9174 6.02129 28.9177 6.02178 28.9128 6.02539V6.02539ZM25.9387 19.7569C26.4853 19.7569 26.9284 19.3146 26.9284 18.7691C26.9284 18.2235 26.4853 17.7812 25.9387 17.7812C25.3921 17.7812 24.949 18.2235 24.949 18.7691C24.949 19.3146 25.3921 19.7569 25.9387 19.7569Z" fill="#3D75E4"/>
<path d="M34.6118 29.6437C35.1537 29.5732 35.6504 29.9546 35.7211 30.4955C35.9926 32.5736 34.7146 34.371 33.2285 35.4497C32.0928 36.2741 30.6032 36.8467 29.2127 36.7455C28.6648 38.3779 27.0196 39.4131 25.433 39.8008C23.4571 40.2837 20.961 39.943 19.5126 38.0881C19.1235 37.5898 19.0106 37.0042 19.0106 36.5196V33.5868C19.0106 33.0412 19.4537 32.5989 20.0003 32.5989C20.5469 32.5989 20.99 33.0412 20.99 33.5868V36.5196C20.99 36.7226 21.0395 36.8295 21.0739 36.8735C21.8772 37.9023 23.441 38.2535 24.9622 37.8818C26.5179 37.5016 27.4233 36.5439 27.4233 35.5625C27.4233 35.2335 27.5874 34.926 27.861 34.7425C28.1347 34.559 28.4819 34.5236 28.7871 34.6479C29.5573 34.9617 30.873 34.7166 32.0643 33.8519C33.2346 33.0023 33.8995 31.8329 33.7583 30.7509C33.6876 30.2099 34.0698 29.7142 34.6118 29.6437Z" fill="#3D75E4"/>
<path fill-rule="evenodd" clip-rule="evenodd" d="M15.0517 22.7205C13.9584 22.7205 13.0722 23.605 13.0722 24.6962V26.8405C11.919 27.2473 11.0927 28.3451 11.0927 29.6354C11.0927 31.2721 12.4221 32.5989 14.0619 32.5989C15.7018 32.5989 17.0311 31.2721 17.0311 29.6354C17.0311 28.3451 16.2049 27.2473 15.0517 26.8405V24.6962H19.0106V28.6476C19.0106 29.7387 19.8968 30.6232 20.99 30.6232H24.1281C24.5358 31.7743 25.6356 32.5989 26.9284 32.5989C28.5683 32.5989 29.8976 31.2721 29.8976 29.6354C29.8976 27.9987 28.5683 26.6719 26.9284 26.6719C25.6356 26.6719 24.5358 27.4965 24.1281 28.6476H20.99V16.7934C20.99 15.7022 20.1038 14.8177 19.0106 14.8177H17.0311V12.842C17.0311 11.7508 16.1449 10.8663 15.0517 10.8663H12.9033C12.4957 9.71528 11.3959 8.89062 10.103 8.89062C8.46317 8.89062 7.13382 10.2174 7.13382 11.8542C7.13382 13.4909 8.46317 14.8177 10.103 14.8177C11.3959 14.8177 12.4957 13.993 12.9033 12.842H15.0517V14.8177C15.0517 15.9089 15.9378 16.7934 17.0311 16.7934H19.0106V22.7205H15.0517ZM25.9387 29.6354C25.9387 30.181 26.3818 30.6232 26.9284 30.6232C27.475 30.6232 27.9181 30.181 27.9181 29.6354C27.9181 29.0898 27.475 28.6476 26.9284 28.6476C26.3818 28.6476 25.9387 29.0898 25.9387 29.6354ZM13.0722 29.6354C13.0722 29.0898 13.5154 28.6476 14.0619 28.6476C14.6085 28.6476 15.0517 29.0898 15.0517 29.6354C15.0517 30.181 14.6085 30.6232 14.0619 30.6232C13.5154 30.6232 13.0722 30.181 13.0722 29.6354ZM10.103 10.8663C9.55644 10.8663 9.11328 11.3086 9.11328 11.8542C9.11328 12.3997 9.55644 12.842 10.103 12.842C10.6496 12.842 11.0927 12.3997 11.0927 11.8542C11.0927 11.3086 10.6496 10.8663 10.103 10.8663Z" fill="#3D75E4"/>
</svg>
