<svg width="40" height="40" viewBox="0 0 40 40" fill="none" xmlns="http://www.w3.org/2000/svg">
<g clip-path="url(#clip0)">
<path fill-rule="evenodd" clip-rule="evenodd" d="M14.075 19.6357C12.4974 17.5857 9.41832 17.5497 7.79312 19.562L1.27875 27.6283C0.931751 28.058 1.07934 27.2533 0.649677 26.9063C0.220014 26.5593 0.153001 25.9297 0.5 25.5L6.23718 18.3054C8.67497 15.2869 13.2935 15.341 15.6599 18.4159L22.336 27.0907L25.4364 23.3885C27.7316 20.6479 31.8992 20.5096 34.3709 23.0922L39.7225 28.6836C40.1043 29.0825 40.0905 29.7156 39.6915 30.0974C39.2925 30.4793 38.6595 30.4654 38.2776 30.0664L32.9261 24.4751C31.2782 22.7534 28.4998 22.8455 26.9697 24.6726L23.6067 28.6883L31.2682 37.8589C31.6223 38.2827 31.5657 38.9133 31.1419 39.2674C30.7181 39.6215 30.0874 39.565 29.7333 39.1411L21.5356 29.3286C21.527 29.3184 21.5187 29.308 21.5105 29.2974L14.075 19.6357Z" fill="#3D75E4"/>
<path fill-rule="evenodd" clip-rule="evenodd" d="M0 11C0 4.92487 4.92487 0 11 0H29C35.0751 0 40 4.92487 40 11V29C40 35.0751 35.0751 40 29 40H11C4.92487 40 0 35.0751 0 29V11ZM11 2C6.02944 2 2 6.02944 2 11V29C2 33.9706 6.02944 38 11 38H29C33.9706 38 38 33.9706 38 29V11C38 6.02944 33.9706 2 29 2H11Z" fill="#3D75E4"/>
<path fill-rule="evenodd" clip-rule="evenodd" d="M25.5 15C26.8807 15 28 13.8807 28 12.5C28 11.1193 26.8807 10 25.5 10C24.1193 10 23 11.1193 23 12.5C23 13.8807 24.1193 15 25.5 15ZM25.5 17C27.9853 17 30 14.9853 30 12.5C30 10.0147 27.9853 8 25.5 8C23.0147 8 21 10.0147 21 12.5C21 14.9853 23.0147 17 25.5 17Z" fill="#3D75E4"/>
</g>
<defs>
<clipPath id="clip0">
<rect width="40" height="40" fill="white"/>
</clipPath>
</defs>
</svg>
