<svg width="40" height="40" viewBox="0 0 40 40" fill="none" xmlns="http://www.w3.org/2000/svg">
<path fill-rule="evenodd" clip-rule="evenodd" d="M20.1984 0.170009C21.5197 -0.40848 23 0.560281 23 2.00355V20.9873C23 21.5399 22.5523 21.9879 22 21.9879C21.4477 21.9879 21 21.5399 21 20.9873V2.00355L7.59918 7.87034C7.23519 8.02969 7 8.38955 7 8.78711V37.9986C7 39.104 6.10457 40 5 40H2C0.89543 40 0 39.104 0 37.9986V15.4836C0 14.3783 0.895431 13.4822 2 13.4822H5V8.78711C5 7.59442 5.70558 6.51485 6.79754 6.0368L20.1984 0.170009ZM5 15.4836H2V37.9986H5V15.4836Z" fill="#3D75E4"/>
<path fill-rule="evenodd" clip-rule="evenodd" d="M15 26.9913C15 25.3333 13.6569 23.9893 12 23.9893C10.3431 23.9893 9 25.3333 9 26.9913V32.9953C9 34.3024 9.83481 35.4144 11 35.8265V38.9993C11 39.552 11.4477 40 12 40C12.5523 40 13 39.552 13 38.9993V35.8265C14.1652 35.4144 15 34.3024 15 32.9953V26.9913ZM12 33.996C12.5523 33.996 13 33.548 13 32.9953V26.9913C13 26.4386 12.5523 25.9906 12 25.9906C11.4477 25.9906 11 26.4386 11 26.9913V32.9953C11 33.548 11.4477 33.996 12 33.996Z" fill="#3D75E4"/>
<path d="M10 15.9839C10.5523 15.9839 11 16.4319 11 16.9846V19.9866C11 20.5392 10.5523 20.9873 10 20.9873C9.44771 20.9873 9 20.5392 9 19.9866V16.9846C9 16.4319 9.44771 15.9839 10 15.9839Z" fill="#3D75E4"/>
<path d="M11 10.9806C11 10.4279 10.5523 9.97989 10 9.97989C9.44771 9.97989 9 10.4279 9 10.9806V13.9826C9 14.5352 9.44771 14.9832 10 14.9832C10.5523 14.9832 11 14.5352 11 13.9826V10.9806Z" fill="#3D75E4"/>
<path d="M14 15.9839C14.5523 15.9839 15 16.4319 15 16.9846V19.9866C15 20.5392 14.5523 20.9873 14 20.9873C13.4477 20.9873 13 20.5392 13 19.9866V16.9846C13 16.4319 13.4477 15.9839 14 15.9839Z" fill="#3D75E4"/>
<path d="M15 10.9806C15 10.4279 14.5523 9.97989 14 9.97989C13.4477 9.97989 13 10.4279 13 10.9806V13.9826C13 14.5352 13.4477 14.9832 14 14.9832C14.5523 14.9832 15 14.5352 15 13.9826V10.9806Z" fill="#3D75E4"/>
<path d="M18 15.9839C18.5523 15.9839 19 16.4319 19 16.9846V19.9866C19 20.5392 18.5523 20.9873 18 20.9873C17.4477 20.9873 17 20.5392 17 19.9866V16.9846C17 16.4319 17.4477 15.9839 18 15.9839Z" fill="#3D75E4"/>
<path d="M19 10.9806C19 10.4279 18.5523 9.97989 18 9.97989C17.4477 9.97989 17 10.4279 17 10.9806V13.9826C17 14.5352 17.4477 14.9832 18 14.9832C18.5523 14.9832 19 14.5352 19 13.9826V10.9806Z" fill="#3D75E4"/>
<path d="M22 31.9946C22.5523 31.9946 23 32.4427 23 32.9953V35.9973C23 36.55 22.5523 36.998 22 36.998C21.4477 36.998 21 36.55 21 35.9973V32.9953C21 32.4427 21.4477 31.9946 22 31.9946Z" fill="#3D75E4"/>
<path fill-rule="evenodd" clip-rule="evenodd" d="M33 21.9879C33 21.4353 32.5523 20.9873 32 20.9873C31.4477 20.9873 31 21.4353 31 21.9879V22.9886H18C16.8954 22.9886 16 23.8846 16 24.9899V27.992C16 28.7327 16.4022 29.3795 17 29.7256V37.9987C17 39.104 17.8954 40 19 40H25C25.5523 40 26 39.552 26 38.9993V33.996H29V38.9993C29 39.552 29.4477 40 30 40C30.5523 40 31 39.552 31 38.9993V33.996H33V38.9993C33 39.552 33.4477 40 34 40H37C38.1046 40 39 39.104 39 37.9987V29.7256C39.5978 29.3795 40 28.7327 40 27.992V24.9899C40 23.8846 39.1046 22.9886 38 22.9886H35C34.4477 22.9886 34 23.4366 34 23.9893C34 24.5419 34.4477 24.9899 35 24.9899H38V27.992H18V24.9899H32C32.5523 24.9899 33 24.5419 33 23.9893V21.9879ZM37 29.9933H19V37.9987H24V33.996C24 32.8907 24.8954 31.9946 26 31.9946H33C34.1046 31.9946 35 32.8907 35 33.996V37.9987H37V29.9933Z" fill="#3D75E4"/>
<path d="M30.71 19.575C31.3556 18.929 32.4023 18.929 33.0478 19.575C33.4384 19.9658 34.0715 19.9658 34.462 19.575C34.8526 19.1842 34.8526 18.5506 34.462 18.1598C33.0354 16.7322 30.7224 16.7322 29.2958 18.1598C28.9052 18.5506 28.9052 19.1842 29.2958 19.575C29.6863 19.9658 30.3195 19.9658 30.71 19.575Z" fill="#3D75E4"/>
<path d="M35.5492 17.072C33.5222 15.0436 30.2357 15.0436 28.2087 17.072C27.8181 17.4628 27.185 17.4628 26.7944 17.072C26.4039 16.6812 26.4039 16.0476 26.7944 15.6568C29.6025 12.8468 34.1554 12.8468 36.9635 15.6568C37.354 16.0476 37.354 16.6812 36.9635 17.072C36.5729 17.4628 35.9398 17.4628 35.5492 17.072Z" fill="#3D75E4"/>
<path d="M25.7072 14.5689C29.1158 11.1581 34.6421 11.1581 38.0506 14.5689C38.4411 14.9597 39.0743 14.9597 39.4648 14.5689C39.8553 14.1781 39.8553 13.5445 39.4648 13.1537C35.2752 8.96134 28.4826 8.96134 24.293 13.1537C23.9025 13.5445 23.9025 14.1781 24.293 14.5689C24.6836 14.9597 25.3167 14.9597 25.7072 14.5689Z" fill="#3D75E4"/>
</svg>
