<svg width="40" height="40" viewBox="0 0 40 40" fill="none" xmlns="http://www.w3.org/2000/svg">
<path fill-rule="evenodd" clip-rule="evenodd" d="M18.8994 1.33484C18.7119 1.52452 18.6065 1.78177 18.6065 2.05002L18.6065 8.41401C18.6053 8.44156 18.6053 8.46915 18.6064 8.4967L18.6064 12.6912H3C1.34315 12.6912 0 14.0498 0 15.7256V17.7484C0 19.4242 1.34315 20.7827 3 20.7827H12.4C12.9523 20.7827 13.4 20.3299 13.4 19.7713C13.4 19.2127 12.9523 18.7599 12.4 18.7599H3C2.44772 18.7599 2 18.307 2 17.7484V15.7256C2 15.167 2.44772 14.7141 3 14.7141H15.9996C15.3719 15.5593 15 16.6099 15 17.7484C15 20.5414 17.2386 22.8056 20 22.8056C22.7614 22.8056 25 20.5414 25 17.7484C25 16.6099 24.6281 15.5593 24.0004 14.7141H37C37.5523 14.7141 38 15.167 38 15.7256V17.7484C38 18.307 37.5523 18.7599 37 18.7599H27.6C27.0477 18.7599 26.6 19.2127 26.6 19.7713C26.6 20.3299 27.0477 20.7827 27.6 20.7827H37C38.6569 20.7827 40 19.4242 40 17.7484V15.7256C40 14.0498 38.6569 12.6912 37 12.6912H20.6064L20.6064 8.91571C21.5763 8.19739 22.9413 8.27289 23.8281 9.1422C23.837 9.15188 23.8461 9.16144 23.8554 9.17085C25.615 10.9506 28.468 10.9506 30.2277 9.17086C30.4152 8.98117 30.5206 8.72391 30.5206 8.45566V2.10496L30.5205 2.09205C30.5316 1.81935 30.4343 1.54295 30.2284 1.33475C29.8379 0.939757 29.2048 0.939757 28.8142 1.33475C27.8442 2.31584 26.2769 2.32447 25.2963 1.36065C25.2883 1.35194 25.2801 1.34333 25.2717 1.33484C23.512 -0.444947 20.6591 -0.444944 18.8994 1.33484ZM20 14.7141C18.3431 14.7141 17 16.0726 17 17.7484C17 19.4242 18.3431 20.7827 20 20.7827C21.6569 20.7827 23 19.4242 23 17.7484C23 16.0726 21.6569 14.7141 20 14.7141ZM28.5206 7.9947C27.5506 8.71369 26.1851 8.63839 25.298 7.76881C25.2934 7.76373 25.2887 7.75868 25.2839 7.75367C25.2796 7.74914 25.2752 7.74464 25.2708 7.74017C24.0094 6.46431 22.1861 6.10307 20.6065 6.65646L20.6065 2.51099C21.5773 1.79133 22.9445 1.86744 23.8315 2.73932C23.8395 2.74803 23.8478 2.75664 23.8561 2.76513C25.1176 4.04102 26.9409 4.40225 28.5206 3.84883V7.9947Z" fill="#3D75E4"/>
<path d="M4 23.817C4 23.2584 3.55228 22.8056 3 22.8056C2.44772 22.8056 2 23.2584 2 23.817V37.9771H1C0.447715 37.9771 0 38.43 0 38.9886C0 39.5472 0.447715 40 1 40H39C39.5523 40 40 39.5472 40 38.9886C40 38.43 39.5523 37.9771 39 37.9771H38V23.817C38 23.2584 37.5523 22.8056 37 22.8056C36.4477 22.8056 36 23.2584 36 23.817V37.9771H4V23.817Z" fill="#3D75E4"/>
<path d="M8 23.817C8.55229 23.817 9 24.2699 9 24.8285V27.8628C9 28.4214 8.55229 28.8742 8 28.8742C7.44772 28.8742 7 28.4214 7 27.8628V24.8285C7 24.2699 7.44772 23.817 8 23.817Z" fill="#3D75E4"/>
<path d="M9 31.9085C9 31.3499 8.55229 30.8971 8 30.8971C7.44772 30.8971 7 31.3499 7 31.9085V34.9428C7 35.5014 7.44772 35.9543 8 35.9543C8.55229 35.9543 9 35.5014 9 34.9428V31.9085Z" fill="#3D75E4"/>
<path d="M12 23.817C12.5523 23.817 13 24.2699 13 24.8285V27.8628C13 28.4214 12.5523 28.8742 12 28.8742C11.4477 28.8742 11 28.4214 11 27.8628V24.8285C11 24.2699 11.4477 23.817 12 23.817Z" fill="#3D75E4"/>
<path d="M13 31.9085C13 31.3499 12.5523 30.8971 12 30.8971C11.4477 30.8971 11 31.3499 11 31.9085V34.9428C11 35.5014 11.4477 35.9543 12 35.9543C12.5523 35.9543 13 35.5014 13 34.9428V31.9085Z" fill="#3D75E4"/>
<path d="M16 23.817C16.5523 23.817 17 24.2699 17 24.8285V27.8628C17 28.4214 16.5523 28.8742 16 28.8742C15.4477 28.8742 15 28.4214 15 27.8628V24.8285C15 24.2699 15.4477 23.817 16 23.817Z" fill="#3D75E4"/>
<path d="M17 31.9085C17 31.3499 16.5523 30.8971 16 30.8971C15.4477 30.8971 15 31.3499 15 31.9085V34.9428C15 35.5014 15.4477 35.9543 16 35.9543C16.5523 35.9543 17 35.5014 17 34.9428V31.9085Z" fill="#3D75E4"/>
<path d="M20 23.817C20.5523 23.817 21 24.2699 21 24.8285V27.8628C21 28.4214 20.5523 28.8742 20 28.8742C19.4477 28.8742 19 28.4214 19 27.8628V24.8285C19 24.2699 19.4477 23.817 20 23.817Z" fill="#3D75E4"/>
<path d="M21 31.9085C21 31.3499 20.5523 30.8971 20 30.8971C19.4477 30.8971 19 31.3499 19 31.9085V34.9428C19 35.5014 19.4477 35.9543 20 35.9543C20.5523 35.9543 21 35.5014 21 34.9428V31.9085Z" fill="#3D75E4"/>
<path d="M24 23.817C24.5523 23.817 25 24.2699 25 24.8285V27.8628C25 28.4214 24.5523 28.8742 24 28.8742C23.4477 28.8742 23 28.4214 23 27.8628V24.8285C23 24.2699 23.4477 23.817 24 23.817Z" fill="#3D75E4"/>
<path d="M25 31.9085C25 31.3499 24.5523 30.8971 24 30.8971C23.4477 30.8971 23 31.3499 23 31.9085V34.9428C23 35.5014 23.4477 35.9543 24 35.9543C24.5523 35.9543 25 35.5014 25 34.9428V31.9085Z" fill="#3D75E4"/>
<path d="M28 23.817C28.5523 23.817 29 24.2699 29 24.8285V27.8628C29 28.4214 28.5523 28.8742 28 28.8742C27.4477 28.8742 27 28.4214 27 27.8628V24.8285C27 24.2699 27.4477 23.817 28 23.817Z" fill="#3D75E4"/>
<path d="M29 31.9085C29 31.3499 28.5523 30.8971 28 30.8971C27.4477 30.8971 27 31.3499 27 31.9085V34.9428C27 35.5014 27.4477 35.9543 28 35.9543C28.5523 35.9543 29 35.5014 29 34.9428V31.9085Z" fill="#3D75E4"/>
<path d="M32 23.817C32.5523 23.817 33 24.2699 33 24.8285V27.8628C33 28.4214 32.5523 28.8742 32 28.8742C31.4477 28.8742 31 28.4214 31 27.8628V24.8285C31 24.2699 31.4477 23.817 32 23.817Z" fill="#3D75E4"/>
<path d="M33 31.9085C33 31.3499 32.5523 30.8971 32 30.8971C31.4477 30.8971 31 31.3499 31 31.9085V34.9428C31 35.5014 31.4477 35.9543 32 35.9543C32.5523 35.9543 33 35.5014 33 34.9428V31.9085Z" fill="#3D75E4"/>
</svg>
