<svg width="40" height="40" viewBox="0 0 40 40" fill="none" xmlns="http://www.w3.org/2000/svg">
<path fill-rule="evenodd" clip-rule="evenodd" d="M18.8994 1.33459C18.7119 1.52427 18.6065 1.78153 18.6065 2.04978L18.6065 8.41377C18.6053 8.44132 18.6053 8.46891 18.6064 8.49646L18.6064 12.691H3C1.34315 12.691 0 14.0495 0 15.7253V17.7482C0 19.424 1.34315 20.7825 3 20.7825H12.4C12.9523 20.7825 13.4 20.3296 13.4 19.771C13.4 19.2125 12.9523 18.7596 12.4 18.7596H3C2.44772 18.7596 2 18.3068 2 17.7482V15.7253C2 15.1667 2.44772 14.7139 3 14.7139H15.9996C15.3719 15.5591 15 16.6097 15 17.7482C15 20.5412 17.2386 22.8054 20 22.8054C22.7614 22.8054 25 20.5412 25 17.7482C25 16.6097 24.6281 15.5591 24.0004 14.7139H37C37.5523 14.7139 38 15.1667 38 15.7253V17.7482C38 18.3068 37.5523 18.7596 37 18.7596H27.6C27.0477 18.7596 26.6 19.2125 26.6 19.771C26.6 20.3296 27.0477 20.7825 27.6 20.7825H37C38.6569 20.7825 40 19.424 40 17.7482V15.7253C40 14.0495 38.6569 12.691 37 12.691H20.6064L20.6064 8.91547C21.5763 8.19715 22.9413 8.27264 23.8281 9.14195C23.837 9.15164 23.8461 9.1612 23.8554 9.17061C25.615 10.9504 28.468 10.9504 30.2277 9.17061C30.4152 8.98093 30.5206 8.72367 30.5206 8.45542V2.10471L30.5205 2.09181C30.5316 1.81911 30.4343 1.54271 30.2284 1.3345C29.8379 0.939513 29.2048 0.939512 28.8142 1.3345C27.8442 2.31559 26.2769 2.32423 25.2963 1.36041C25.2883 1.35169 25.2801 1.34308 25.2717 1.33459C23.512 -0.445191 20.6591 -0.445188 18.8994 1.33459ZM20 14.7139C18.3431 14.7139 17 16.0724 17 17.7482C17 19.424 18.3431 20.7825 20 20.7825C21.6569 20.7825 23 19.424 23 17.7482C23 16.0724 21.6569 14.7139 20 14.7139ZM28.5206 7.99446C27.5506 8.71344 26.1851 8.63814 25.298 7.76857C25.2934 7.76348 25.2887 7.75844 25.2839 7.75343C25.2796 7.7489 25.2752 7.7444 25.2708 7.73993C24.0094 6.46406 22.1861 6.10282 20.6065 6.65621L20.6065 2.51075C21.5773 1.79109 22.9445 1.8672 23.8315 2.73908C23.8395 2.74779 23.8478 2.7564 23.8561 2.76489C25.1176 4.04077 26.9409 4.40201 28.5206 3.84858V7.99446Z" fill="#3D75E4"/>
<path d="M4 23.8168C4 23.2582 3.55228 22.8054 3 22.8054C2.44772 22.8054 2 23.2582 2 23.8168V37.9769H1C0.447715 37.9769 0 38.4297 0 38.9883C0 39.5469 0.447715 39.9998 1 39.9998H39C39.5523 39.9998 40 39.5469 40 38.9883C40 38.4297 39.5523 37.9769 39 37.9769H38V23.8168C38 23.2582 37.5523 22.8054 37 22.8054C36.4477 22.8054 36 23.2582 36 23.8168V37.9769H4V23.8168Z" fill="#3D75E4"/>
<path d="M8 23.8168C8.55229 23.8168 9 24.2696 9 24.8282V27.8625C9 28.4211 8.55229 28.874 8 28.874C7.44772 28.874 7 28.4211 7 27.8625V24.8282C7 24.2696 7.44772 23.8168 8 23.8168Z" fill="#3D75E4"/>
<path d="M9 31.9083C9 31.3497 8.55229 30.8968 8 30.8968C7.44772 30.8968 7 31.3497 7 31.9083V34.9426C7 35.5012 7.44772 35.954 8 35.954C8.55229 35.954 9 35.5012 9 34.9426V31.9083Z" fill="#3D75E4"/>
<path d="M12 23.8168C12.5523 23.8168 13 24.2696 13 24.8282V27.8625C13 28.4211 12.5523 28.874 12 28.874C11.4477 28.874 11 28.4211 11 27.8625V24.8282C11 24.2696 11.4477 23.8168 12 23.8168Z" fill="#3D75E4"/>
<path d="M13 31.9083C13 31.3497 12.5523 30.8968 12 30.8968C11.4477 30.8968 11 31.3497 11 31.9083V34.9426C11 35.5012 11.4477 35.954 12 35.954C12.5523 35.954 13 35.5012 13 34.9426V31.9083Z" fill="#3D75E4"/>
<path d="M16 23.8168C16.5523 23.8168 17 24.2696 17 24.8282V27.8625C17 28.4211 16.5523 28.874 16 28.874C15.4477 28.874 15 28.4211 15 27.8625V24.8282C15 24.2696 15.4477 23.8168 16 23.8168Z" fill="#3D75E4"/>
<path d="M17 31.9083C17 31.3497 16.5523 30.8968 16 30.8968C15.4477 30.8968 15 31.3497 15 31.9083V34.9426C15 35.5012 15.4477 35.954 16 35.954C16.5523 35.954 17 35.5012 17 34.9426V31.9083Z" fill="#3D75E4"/>
<path d="M20 23.8168C20.5523 23.8168 21 24.2696 21 24.8282V27.8625C21 28.4211 20.5523 28.874 20 28.874C19.4477 28.874 19 28.4211 19 27.8625V24.8282C19 24.2696 19.4477 23.8168 20 23.8168Z" fill="#3D75E4"/>
<path d="M21 31.9083C21 31.3497 20.5523 30.8968 20 30.8968C19.4477 30.8968 19 31.3497 19 31.9083V34.9426C19 35.5012 19.4477 35.954 20 35.954C20.5523 35.954 21 35.5012 21 34.9426V31.9083Z" fill="#3D75E4"/>
<path d="M24 23.8168C24.5523 23.8168 25 24.2696 25 24.8282V27.8625C25 28.4211 24.5523 28.874 24 28.874C23.4477 28.874 23 28.4211 23 27.8625V24.8282C23 24.2696 23.4477 23.8168 24 23.8168Z" fill="#3D75E4"/>
<path d="M25 31.9083C25 31.3497 24.5523 30.8968 24 30.8968C23.4477 30.8968 23 31.3497 23 31.9083V34.9426C23 35.5012 23.4477 35.954 24 35.954C24.5523 35.954 25 35.5012 25 34.9426V31.9083Z" fill="#3D75E4"/>
<path d="M28 23.8168C28.5523 23.8168 29 24.2696 29 24.8282V27.8625C29 28.4211 28.5523 28.874 28 28.874C27.4477 28.874 27 28.4211 27 27.8625V24.8282C27 24.2696 27.4477 23.8168 28 23.8168Z" fill="#3D75E4"/>
<path d="M29 31.9083C29 31.3497 28.5523 30.8968 28 30.8968C27.4477 30.8968 27 31.3497 27 31.9083V34.9426C27 35.5012 27.4477 35.954 28 35.954C28.5523 35.954 29 35.5012 29 34.9426V31.9083Z" fill="#3D75E4"/>
<path d="M32 23.8168C32.5523 23.8168 33 24.2696 33 24.8282V27.8625C33 28.4211 32.5523 28.874 32 28.874C31.4477 28.874 31 28.4211 31 27.8625V24.8282C31 24.2696 31.4477 23.8168 32 23.8168Z" fill="#3D75E4"/>
<path d="M33 31.9083C33 31.3497 32.5523 30.8968 32 30.8968C31.4477 30.8968 31 31.3497 31 31.9083V34.9426C31 35.5012 31.4477 35.954 32 35.954C32.5523 35.954 33 35.5012 33 34.9426V31.9083Z" fill="#3D75E4"/>
</svg>
