<svg width="40" height="40" viewBox="0 0 40 40" fill="none" xmlns="http://www.w3.org/2000/svg">
<g clip-path="url(#clip0)">
<path d="M2 9.5C2 4.25329 6.25329 0 11.5 0H28.5C33.7467 0 38 4.25329 38 9.5C38 13.3194 35.7461 16.6103 32.5 18.1191V22C32.5 22.5523 32.0523 23 31.5 23C30.9477 23 30.5 22.5523 30.5 22V17.4554C30.5 17.0393 30.7577 16.6667 31.147 16.5198C31.2962 16.4635 31.4432 16.4026 31.5878 16.3372C34.1916 15.1591 36 12.5397 36 9.5C36 5.35786 32.6421 2 28.5 2H11.5C7.35786 2 4 5.35786 4 9.5C4 12.5397 5.80837 15.1591 8.4122 16.3372C8.54753 16.3984 8.68498 16.4557 8.82442 16.509C9.34035 16.7061 9.59882 17.2841 9.40174 17.8C9.20466 18.3159 8.62665 18.5744 8.11073 18.3773C7.93381 18.3097 7.75944 18.237 7.5878 18.1594C4.29458 16.6694 2 13.3537 2 9.5Z" fill="#3D75E4"/>
<path d="M25.2361 19C24.8573 19 24.511 19.214 24.3416 19.5528L22.8944 22.4472C22.6474 22.9412 22.0468 23.1414 21.5528 22.8944C21.0588 22.6474 20.8586 22.0468 21.1056 21.5528L22.5528 18.6584C23.061 17.642 24.0998 17 25.2361 17H28C28.5523 17 29 17.4477 29 18C29 18.5523 28.5523 19 28 19H25.2361Z" fill="#3D75E4"/>
<path fill-rule="evenodd" clip-rule="evenodd" d="M7.33179 24C5.12265 24 3.33179 25.7909 3.33179 28C3.33179 29.0126 3.70804 29.9373 4.32837 30.642C1.7767 31.7896 0 34.354 0 37.3333C0 38.8061 1.19392 40 2.66668 40H37.3333C38.8061 40 40 38.8061 40 37.3333C40 34.3934 38.27 31.8575 35.7724 30.6882C36.4173 29.978 36.8103 29.0349 36.8103 28C36.8103 25.7909 35.0194 24 32.8103 24C30.6012 24 28.8103 25.7909 28.8103 28C28.8103 28.9906 29.1704 29.897 29.7668 30.5957C27.1589 31.7196 25.333 34.3132 25.333 37.3333V38H14.6666V37.3333C14.6666 34.3878 17.0542 32 19.9997 32C21.5337 32 22.9151 32.6463 23.8894 33.6844C24.2673 34.0871 24.9002 34.1071 25.3029 33.7292C25.7056 33.3512 25.7256 32.7183 25.3477 32.3156C24.6893 31.6142 23.8936 31.0419 23.0036 30.6417C23.6238 29.9371 24 29.0125 24 28C24 25.7909 22.2091 24 20 24C17.7909 24 16 25.7909 16 28C16 29.0123 16.3761 29.9368 16.9961 30.6414C14.4438 31.7888 12.6666 34.3535 12.6666 37.3333V38H2.66668C2.29848 38 2 37.7015 2 37.3333C2 34.3878 4.38781 32 7.33332 32C8.86729 32 10.2487 32.6463 11.223 33.6844C11.6009 34.0871 12.2338 34.1071 12.6365 33.7292C13.0392 33.3512 13.0593 32.7183 12.6813 32.3156C12.0226 31.6138 11.2265 31.0413 10.3359 30.6412C10.9558 29.9366 11.3318 29.0122 11.3318 28C11.3318 25.7909 9.54093 24 7.33179 24ZM5.33179 28C5.33179 26.8954 6.22722 26 7.33179 26C8.43636 26 9.33179 26.8954 9.33179 28C9.33179 29.1046 8.43636 30 7.33179 30C6.22722 30 5.33179 29.1046 5.33179 28ZM37.3333 38H27.333V37.3333C27.333 34.3879 29.7211 32 32.6667 32C35.6122 32 38 34.3878 38 37.3333C38 37.7015 37.7015 38 37.3333 38ZM20 26C18.8954 26 18 26.8954 18 28C18 29.1046 18.8954 30 20 30C21.1046 30 22 29.1046 22 28C22 26.8954 21.1046 26 20 26ZM30.8103 28C30.8103 26.8954 31.7057 26 32.8103 26C33.9149 26 34.8103 26.8954 34.8103 28C34.8103 29.1046 33.9149 30 32.8103 30C31.7057 30 30.8103 29.1046 30.8103 28Z" fill="#3D75E4"/>
<path d="M13.236 17C12.0997 17 11.0609 17.642 10.5528 18.6584L9.10555 21.5528C8.85856 22.0468 9.05878 22.6474 9.55276 22.8944C10.0467 23.1414 10.6474 22.9412 10.8944 22.4472L12.3416 19.5528C12.511 19.214 12.8573 19 13.236 19H20C20.5523 19 21 18.5523 21 18C21 17.4477 20.5523 17 20 17H13.236Z" fill="#3D75E4"/>
<path d="M10.5 7.50762C10.5 7.49922 10.5002 7.49083 10.5004 7.48248C10.5039 7.35714 10.5304 7.23756 10.5759 7.12784C10.6236 7.01257 10.6937 6.90442 10.7864 6.81007L10.7929 6.80351L12.7929 4.80351C13.1834 4.41299 13.8166 4.41299 14.2071 4.80351C14.5976 5.19404 14.5976 5.8272 14.2071 6.21773L13.9142 6.51062H21.5C22.0523 6.51062 22.5 6.95834 22.5 7.51062C22.5 8.06291 22.0523 8.51062 21.5 8.51062H13.9142L14.2071 8.80351C14.5976 9.19404 14.5976 9.8272 14.2071 10.2177C13.8166 10.6083 13.1834 10.6083 12.7929 10.2177L10.7929 8.21773C10.6974 8.1222 10.6252 8.01216 10.5764 7.8947C10.5281 7.77867 10.501 7.65159 10.5 7.5183L10.5 7.51362L10.5 7.51062L10.5 7.50762Z" fill="#3D75E4"/>
<path d="M29.4994 11.5446C29.4997 11.5364 29.4999 11.5281 29.5 11.5199L29.5 11.5106L29.4241 11.8934C29.3753 12.0113 29.303 12.1219 29.2071 12.2177C29.2068 12.218 29.2066 12.2183 29.2063 12.2186L27.2071 14.2177C26.8166 14.6083 26.1834 14.6083 25.7929 14.2177C25.4024 13.8272 25.4024 13.194 25.7929 12.8035L26.0858 12.5106L18.5 12.5106C17.9477 12.5106 17.5 12.0629 17.5 11.5106C17.5 10.9583 17.9477 10.5106 18.5 10.5106L26.0858 10.5106L25.7929 10.2177C25.4024 9.8272 25.4024 9.19404 25.7929 8.80351C26.1834 8.41299 26.8166 8.41299 27.2071 8.80351L29.2071 10.8035C29.4 10.9964 29.4976 11.2486 29.5 11.5014" fill="#3D75E4"/>
<path d="M29.4994 11.5446C29.4953 11.6678 29.4689 11.7854 29.4241 11.8934L29.4994 11.5446Z" fill="#3D75E4"/>
</g>
<defs>
<clipPath id="clip0">
<rect width="40" height="40" fill="white"/>
</clipPath>
</defs>
</svg>
