<svg width="40" height="40" viewBox="0 0 40 40" fill="none" xmlns="http://www.w3.org/2000/svg">
<path fill-rule="evenodd" clip-rule="evenodd" d="M24.1498 2.02417C19.7466 -0.276714 14.313 1.42973 12.0136 5.83563C10.0796 9.54115 10.9788 13.9735 13.9303 16.6587C14.5379 17.2114 14.6623 17.9483 14.4092 18.4011L10.0793 26.149C9.73432 26.0519 9.37041 25.9999 8.99436 25.9999C6.78661 25.9999 4.99687 27.7908 4.99687 29.9999C4.99687 32.209 6.78661 33.9998 8.99436 33.9998C11.2021 33.9998 12.9919 32.209 12.9919 29.9999C12.9919 28.8878 12.5383 27.8817 11.8062 27.1567L16.1537 19.3772C17 17.8628 16.334 16.1424 15.2749 15.1789C12.9789 13.0901 12.2822 9.64132 13.7853 6.76143C15.5737 3.33462 19.7998 2.00739 23.2245 3.79697C26.6492 5.58655 27.9756 9.81527 26.1872 13.2421C25.9317 13.7316 26.1212 14.3357 26.6104 14.5914C27.0997 14.847 27.7034 14.6574 27.9589 14.1679C30.2583 9.76198 28.5529 4.32506 24.1498 2.02417ZM8.99436 27.9999C7.89048 27.9999 6.99561 28.8953 6.99561 29.9999C6.99561 31.1044 7.89048 31.9999 8.99436 31.9999C10.0982 31.9999 10.9931 31.1044 10.9931 29.9999C10.9931 28.8953 10.0982 27.9999 8.99436 27.9999Z" fill="#3D75E4"/>
<path fill-rule="evenodd" clip-rule="evenodd" d="M19.9875 6.00013C17.7797 6.00013 15.99 7.79098 15.99 10.0001C15.99 12.2092 17.7797 14.0001 19.9875 14.0001C20.391 14.0001 20.7805 13.9402 21.1478 13.829L25.3783 21.673C26.1851 23.1691 27.944 23.5473 29.3083 23.2052C32.3375 22.4455 35.6098 23.7992 37.1603 26.674C38.9951 30.0761 37.7263 34.3225 34.3262 36.1585C30.9262 37.9945 26.6824 36.7249 24.8475 33.3227C24.5854 32.8367 23.9792 32.6553 23.4934 32.9176C23.0077 33.1799 22.8265 33.7865 23.0886 34.2725C25.4477 38.6468 30.9039 40.2791 35.2755 37.9186C39.647 35.558 41.2783 30.0984 38.9192 25.7242C36.9243 22.0253 32.7166 20.2885 28.8223 21.2652C28.045 21.4602 27.3789 21.1713 27.1372 20.7232L22.8563 12.7857C23.5549 12.0654 23.985 11.083 23.985 10.0001C23.985 7.79098 22.1952 6.00013 19.9875 6.00013ZM17.9887 10.0001C17.9887 8.89553 18.8836 8.00011 19.9875 8.00011C21.0913 8.00011 21.9862 8.89553 21.9862 10.0001C21.9862 11.1047 21.0913 12.0001 19.9875 12.0001C18.8836 12.0001 17.9887 11.1047 17.9887 10.0001Z" fill="#3D75E4"/>
<path fill-rule="evenodd" clip-rule="evenodd" d="M30.9806 25.9999C29.1179 25.9999 27.5528 27.2747 27.109 28.9999H18.9881C17.2891 28.9999 16.1211 30.3691 15.7742 31.7329C15.0037 34.7612 12.259 36.9998 8.99436 36.9998C5.13079 36.9998 1.99875 33.8658 1.99875 29.9999C1.99875 26.1339 5.13079 23 8.99436 23C9.5463 23 9.99373 22.5522 9.99373 22C9.99373 21.4477 9.5463 21 8.99436 21C4.02691 21 0 25.0294 0 29.9999C0 34.9704 4.02691 38.9998 8.99436 38.9998C13.1949 38.9998 16.7206 36.1194 17.7111 32.2263C17.9088 31.4493 18.4793 30.9999 18.9881 30.9999H27.109C27.5528 32.7251 29.1179 33.9998 30.9806 33.9998C33.1883 33.9998 34.9781 32.209 34.9781 29.9999C34.9781 27.7908 33.1883 25.9999 30.9806 25.9999ZM28.9818 29.9999C28.9818 28.8953 29.8767 27.9999 30.9806 27.9999C32.0844 27.9999 32.9793 28.8953 32.9793 29.9999C32.9793 31.1044 32.0844 31.9999 30.9806 31.9999C29.8767 31.9999 28.9818 31.1044 28.9818 29.9999Z" fill="#3D75E4"/>
</svg>
