<svg width="40" height="40" viewBox="0 0 40 40" fill="none" xmlns="http://www.w3.org/2000/svg">
<g clip-path="url(#clip0)">
<path d="M5 0C2.23858 0 0 2.23858 0 5V35C0 37.7614 2.23858 40 5 40H19C21.7614 40 24 37.7614 24 35V30C24 29.4477 23.5523 29 23 29C22.4477 29 22 29.4477 22 30V35C22 36.6569 20.6569 38 19 38H5C3.34315 38 2 36.6569 2 35V5C2 3.34315 3.34315 2 5 2H7C7 2.55228 7.44772 3 8 3H16C16.5523 3 17 2.55228 17 2H19C20.6569 2 22 3.34315 22 5C22 5.55228 22.4477 6 23 6C23.5523 6 24 5.55228 24 5C24 2.23858 21.7614 0 19 0H5Z" fill="#3D75E4"/>
<path fill-rule="evenodd" clip-rule="evenodd" d="M13.6018 21.1553C13.5899 21.167 13.5778 21.1785 13.5654 21.1897L10.659 23.9379C11.3397 25.284 11.0909 26.9702 9.93891 28.0595C8.5344 29.3876 6.31919 29.3257 4.99109 27.9212C3.663 26.5167 3.72494 24.3014 5.12945 22.9734C6.28148 21.884 7.97895 21.7298 9.28491 22.4847L11.7625 20.1419C10.8036 16.5425 11.7946 12.5421 14.6939 9.80055C18.9074 5.81626 25.553 6.00209 29.5373 10.2156C29.6644 10.35 29.7873 10.487 29.9061 10.6263C30.2642 11.0467 30.2138 11.6779 29.7934 12.0361C29.373 12.3942 28.7418 12.3438 28.3837 11.9234C28.2873 11.8103 28.1875 11.6991 28.0841 11.5897C24.8588 8.1788 19.479 8.02837 16.068 11.2537C14.0158 13.1943 13.1429 15.9157 13.4775 18.5202L16.0348 16.102C15.3541 14.7559 15.6029 13.0698 16.7549 11.9804C18.1594 10.6523 20.3747 10.7143 21.7028 12.1188C23.0308 13.5233 22.9689 15.7385 21.5644 17.0666C20.4124 18.156 18.7149 18.3101 17.4089 17.5552L13.6018 21.1553ZM6.50358 24.4265C5.90165 24.9957 5.8751 25.9451 6.44429 26.547C7.01347 27.149 7.96285 27.1755 8.56478 26.6063C9.16671 26.0371 9.19326 25.0878 8.62407 24.4858C8.05489 23.8839 7.10551 23.8574 6.50358 24.4265ZM18.0698 15.5541C17.5006 14.9522 17.5271 14.0028 18.1291 13.4336C18.731 12.8644 19.6804 12.891 20.2496 13.4929C20.8187 14.0948 20.7922 15.0442 20.1903 15.6134C19.5883 16.1826 18.639 16.156 18.0698 15.5541Z" fill="#3D75E4"/>
<path fill-rule="evenodd" clip-rule="evenodd" d="M15.4325 22.9362C15.0743 22.5158 14.4432 22.4654 14.0228 22.8235C13.6024 23.1817 13.5519 23.8129 13.9101 24.2333C14.0288 24.3726 14.1517 24.5096 14.2788 24.644C18.0163 28.5965 24.0955 29.0049 28.3123 25.7516L38.2766 36.1905C38.658 36.59 39.291 36.6047 39.6905 36.2234C40.09 35.842 40.1047 35.209 39.7234 34.8095L29.7739 24.3863C32.1661 21.6876 32.9368 18.0324 32.0536 14.7176L34.531 12.3749C35.837 13.1297 37.5344 12.9756 38.6865 11.8862C40.091 10.5581 40.1529 8.34293 38.8248 6.93843C37.4967 5.53392 35.2815 5.47198 33.877 6.80007C32.725 7.88942 32.4762 9.57561 33.1569 10.9217L27.0038 16.74C25.6622 15.5242 23.5892 15.5282 22.2515 16.7931C20.847 18.1212 20.7851 20.3364 22.1132 21.7409C23.4413 23.1454 25.6565 23.2074 27.061 21.8793C28.0093 20.9826 28.3455 19.6814 28.0551 18.4985L30.3386 16.3392C30.6733 18.9438 29.8004 21.6653 27.7481 23.6059C24.3372 26.8312 18.9574 26.6808 15.732 23.2699C15.6287 23.1606 15.5288 23.0493 15.4325 22.9362ZM23.6257 18.2463C23.0237 18.8155 22.9972 19.7649 23.5664 20.3668C24.1355 20.9687 25.0849 20.9953 25.6868 20.4261C26.2888 19.8569 26.3153 18.9075 25.7461 18.3056C25.177 17.7037 24.2276 17.6771 23.6257 18.2463ZM35.1918 10.3738C34.6227 9.77182 34.6492 8.82245 35.2511 8.25326C35.8531 7.68408 36.8024 7.71063 37.3716 8.31256C37.9408 8.91449 37.9143 9.86387 37.3123 10.4331C36.7104 11.0022 35.761 10.9757 35.1918 10.3738Z" fill="#3D75E4"/>
<path d="M12 36.0339C12.8284 36.0339 13.5 35.3624 13.5 34.5339C13.5 33.7055 12.8284 33.0339 12 33.0339C11.1716 33.0339 10.5 33.7055 10.5 34.5339C10.5 35.3624 11.1716 36.0339 12 36.0339Z" fill="#3D75E4"/>
</g>
<defs>
<clipPath id="clip0">
<rect width="40" height="40" fill="white"/>
</clipPath>
</defs>
</svg>
