<svg width="40" height="40" viewBox="0 0 40 40" fill="none" xmlns="http://www.w3.org/2000/svg">
<g clip-path="url(#clip0)">
<path d="M35.9575 4.62831L25.9062 14.6796L22.6 12.2C22.2793 11.9595 21.8459 11.9337 21.499 12.1346L12.4899 17.3504L8.48567 15.1258C8.23416 14.9861 7.93465 14.9615 7.66369 15.0583L0.663692 17.5583C0.143582 17.744 -0.127467 18.3162 0.0582864 18.8363C0.24404 19.3564 0.816255 19.6275 1.33636 19.4417L7.91008 17.094L12.0144 19.3742C12.3219 19.545 12.6966 19.5417 13.0011 19.3654L21.9289 14.1967L25.4 16.8C25.7981 17.0986 26.3552 17.059 26.7071 16.7071L37.3716 6.04262L37.0194 7.8039C36.9111 8.34546 37.2623 8.87228 37.8038 8.9806C38.3454 9.08891 38.8722 8.73769 38.9805 8.19613L39.9767 3.21554C40.0474 2.89352 39.9576 2.54332 39.7071 2.29289C39.4578 2.04355 39.1095 1.95341 38.7887 2.02247L33.8038 3.01944C33.2623 3.12775 32.9111 3.65457 33.0194 4.19613C33.1277 4.73769 33.6545 5.08891 34.1961 4.9806L35.9575 4.62831Z" fill="#3D75E4"/>
<path fill-rule="evenodd" clip-rule="evenodd" d="M38 21.1535V22.5C38 22.6075 37.8868 22.9741 37.0883 23.3733C36.3496 23.7427 35.2591 24 34 24C32.7409 24 31.6504 23.7427 30.9117 23.3733C30.1132 22.9741 30 22.6075 30 22.5V22C30 21.4477 29.5523 21 29 21C28.4477 21 28 21.4477 28 22V22.5C28 23.7732 29.0061 24.6566 30.0173 25.1622C31.0882 25.6977 32.4977 26 34 26C35.5023 26 36.9118 25.6977 37.9827 25.1622L38 25.1535V26.5C38 26.6075 37.8868 26.9741 37.0883 27.3733C36.3496 27.7427 35.2591 28 34 28C32.7409 28 31.6504 27.7427 30.9117 27.3733C30.1132 26.9741 30 26.6075 30 26.5V26C30 25.4477 29.5523 25 29 25C28.4477 25 28 25.4477 28 26V26.5C28 27.7732 29.0061 28.6566 30.0173 29.1622C31.0882 29.6977 32.4977 30 34 30C35.5023 30 36.9118 29.6977 37.9827 29.1622L38 29.1535V30.5C38 30.6075 37.8868 30.9741 37.0883 31.3733C36.3496 31.7427 35.2591 32 34 32C32.7409 32 31.6504 31.7427 30.9117 31.3733C30.1132 30.9741 30 30.6075 30 30.5V30C30 29.4477 29.5523 29 29 29C28.4477 29 28 29.4477 28 30V30.5C28 31.7732 29.0061 32.6566 30.0173 33.1622C31.0882 33.6977 32.4977 34 34 34C35.5023 34 36.9118 33.6977 37.9827 33.1622L38 33.1535V34.5C38 34.6075 37.8868 34.9741 37.0883 35.3733C36.3496 35.7427 35.2591 36 34 36C32.7409 36 31.6504 35.7427 30.9117 35.3733C30.1132 34.9741 30 34.6075 30 34.5V34C30 33.4477 29.5523 33 29 33C28.4477 33 28 33.4477 28 34V34.5C28 35.7732 29.0061 36.6566 30.0173 37.1622C31.0882 37.6977 32.4977 38 34 38C35.5023 38 36.9118 37.6977 37.9827 37.1622C38.9939 36.6566 40 35.7732 40 34.5V18.5C40 17.2268 38.9939 16.3434 37.9827 15.8378C36.9118 15.3023 35.5023 15 34 15C32.4977 15 31.0882 15.3023 30.0173 15.8378C29.0061 16.3434 28 17.2268 28 18.5C28 19.7732 29.0061 20.6566 30.0173 21.1622C31.0882 21.6977 32.4977 22 34 22C35.5023 22 36.9118 21.6977 37.9827 21.1622L38 21.1535ZM30 18.5C30 18.3925 30.1132 18.0259 30.9117 17.6267C31.6504 17.2573 32.7409 17 34 17C35.2591 17 36.3496 17.2573 37.0883 17.6267C37.8868 18.0259 38 18.3925 38 18.5C38 18.6075 37.8868 18.9741 37.0883 19.3733C36.3496 19.7427 35.2591 20 34 20C32.7409 20 31.6504 19.7427 30.9117 19.3733C30.1132 18.9741 30 18.6075 30 18.5Z" fill="#3D75E4"/>
<path fill-rule="evenodd" clip-rule="evenodd" d="M24 26.5V25.1535L23.9827 25.1622C22.9118 25.6977 21.5023 26 20 26C18.4977 26 17.0882 25.6977 16.0173 25.1622C15.0061 24.6566 14 23.7732 14 22.5C14 21.2268 15.0061 20.3434 16.0173 19.8378C17.0882 19.3023 18.4977 19 20 19C21.5023 19 22.9118 19.3023 23.9827 19.8378C24.9939 20.3434 26 21.2268 26 22.5V34.5C26 35.7732 24.9939 36.6566 23.9827 37.1622C22.9118 37.6977 21.5023 38 20 38C18.4977 38 17.0882 37.6977 16.0173 37.1622C15.0061 36.6566 14 35.7732 14 34.5V34C14 33.4477 14.4477 33 15 33C15.5523 33 16 33.4477 16 34V34.5C16 34.6075 16.1132 34.9741 16.9117 35.3733C17.6504 35.7427 18.7409 36 20 36C21.2591 36 22.3496 35.7427 23.0883 35.3733C23.8868 34.9741 24 34.6075 24 34.5V33.1535L23.9827 33.1622C22.9118 33.6977 21.5023 34 20 34C18.4977 34 17.0882 33.6977 16.0173 33.1622C15.0061 32.6566 14 31.7732 14 30.5V30C14 29.4477 14.4477 29 15 29C15.5523 29 16 29.4477 16 30V30.5C16 30.6075 16.1132 30.9741 16.9117 31.3733C17.6504 31.7427 18.7409 32 20 32C21.2591 32 22.3496 31.7427 23.0883 31.3733C23.8868 30.9741 24 30.6075 24 30.5V29.1535L23.9827 29.1622C22.9118 29.6977 21.5023 30 20 30C18.4977 30 17.0882 29.6977 16.0173 29.1622C15.0061 28.6566 14 27.7732 14 26.5V26C14 25.4477 14.4477 25 15 25C15.5523 25 16 25.4477 16 26V26.5C16 26.6075 16.1132 26.9741 16.9117 27.3733C17.6504 27.7427 18.7409 28 20 28C21.2591 28 22.3496 27.7427 23.0883 27.3733C23.8868 26.9741 24 26.6075 24 26.5ZM23.0883 23.3733C23.8868 22.9741 24 22.6075 24 22.5C24 22.3925 23.8868 22.0259 23.0883 21.6267C22.3496 21.2573 21.2591 21 20 21C18.7409 21 17.6504 21.2573 16.9117 21.6267C16.1132 22.0259 16 22.3925 16 22.5C16 22.6075 16.1132 22.9741 16.9117 23.3733C17.6504 23.7427 18.7409 24 20 24C21.2591 24 22.3496 23.7427 23.0883 23.3733Z" fill="#3D75E4"/>
<path fill-rule="evenodd" clip-rule="evenodd" d="M10 29.1535L9.98275 29.1622C8.91181 29.6977 7.5023 30 6 30C4.49771 30 3.08819 29.6977 2.01725 29.1622C1.00613 28.6566 -1.06229e-09 27.7732 -1.06229e-09 26.5C-1.06229e-09 25.2268 1.00613 24.3434 2.01725 23.8378C3.08819 23.3023 4.49771 23 6 23C7.5023 23 8.91181 23.3023 9.98275 23.8378C10.9939 24.3434 12 25.2268 12 26.5V34.5C12 35.7732 10.9939 36.6566 9.98275 37.1622C8.91181 37.6977 7.5023 38 6 38C4.49771 38 3.08819 37.6977 2.01725 37.1622C1.00613 36.6566 -1.06229e-09 35.7732 -1.06229e-09 34.5V34C-1.06229e-09 33.4477 0.447715 33 1 33C1.55228 33 2 33.4477 2 34V34.5C2 34.6075 2.11316 34.9741 2.91168 35.3733C3.65038 35.7427 4.74087 36 6 36C7.25913 36 8.34962 35.7427 9.08832 35.3733C9.88684 34.9741 10 34.6075 10 34.5V33.1535L9.98275 33.1622C8.91181 33.6977 7.5023 34 6 34C4.49771 34 3.08819 33.6977 2.01725 33.1622C1.00613 32.6566 -1.06229e-09 31.7732 -1.06229e-09 30.5V30C-1.06229e-09 29.4477 0.447715 29 1 29C1.55228 29 2 29.4477 2 30V30.5C2 30.6075 2.11316 30.9741 2.91168 31.3733C3.65038 31.7427 4.74087 32 6 32C7.25913 32 8.34962 31.7427 9.08832 31.3733C9.88684 30.9741 10 30.6075 10 30.5V29.1535ZM10 26.5C10 26.6075 9.88684 26.9741 9.08832 27.3733C8.34962 27.7427 7.25913 28 6 28C4.74087 28 3.65038 27.7427 2.91168 27.3733C2.11316 26.9741 2 26.6075 2 26.5C2 26.3925 2.11316 26.0259 2.91168 25.6267C3.65038 25.2573 4.74087 25 6 25C7.25913 25 8.34962 25.2573 9.08832 25.6267C9.88684 26.0259 10 26.3925 10 26.5Z" fill="#3D75E4"/>
</g>
<defs>
<clipPath id="clip0">
<rect width="40" height="40" fill="white"/>
</clipPath>
</defs>
</svg>
