<svg width="40" height="40" viewBox="0 0 40 40" fill="none" xmlns="http://www.w3.org/2000/svg">
<path d="M16.2071 10.7071C16.5976 10.3166 16.5976 9.68342 16.2071 9.29289C15.8166 8.90237 15.1834 8.90237 14.7929 9.29289L10.7929 13.2929C10.4024 13.6834 10.4024 14.3166 10.7929 14.7071L14.7929 18.7071C15.1834 19.0976 15.8166 19.0976 16.2071 18.7071C16.5976 18.3166 16.5976 17.6834 16.2071 17.2929L12.9142 14L16.2071 10.7071Z" fill="#3D75E4"/>
<path d="M23.7929 18.7071C23.4024 18.3166 23.4024 17.6834 23.7929 17.2929L27.0858 14L23.7929 10.7071C23.4024 10.3166 23.4024 9.68342 23.7929 9.29289C24.1834 8.90237 24.8166 8.90237 25.2071 9.29289L29.2071 13.2929C29.3946 13.4804 29.5 13.7348 29.5 14C29.5 14.2652 29.3946 14.5196 29.2071 14.7071L25.2071 18.7071C24.8166 19.0976 24.1834 19.0976 23.7929 18.7071Z" fill="#3D75E4"/>
<path d="M22.4364 10.3511C22.6303 9.834 22.3683 9.25759 21.8512 9.06367C21.334 8.86975 20.7576 9.13175 20.5637 9.64887L17.5637 17.6489C17.3698 18.166 17.6318 18.7424 18.1489 18.9363C18.666 19.1302 19.2424 18.8682 19.4364 18.3511L22.4364 10.3511Z" fill="#3D75E4"/>
<path fill-rule="evenodd" clip-rule="evenodd" d="M28.5 25.4991C28.5 24.6422 28.8974 23.7857 29.561 23.04C31.9907 20.7104 33.5 17.5315 33.5 14C33.5 13.9639 33.4981 13.9283 33.4944 13.8932C33.4981 13.7626 33.5 13.6315 33.5 13.5C33.5 6.04416 27.4558 0 20 0C12.5442 0 6.5 6.04416 6.5 13.5C6.5 17.1405 7.94235 20.4463 10.2846 22.8735C11.0405 23.6567 11.5 24.5776 11.5 25.4991V27C11.5 29.0503 12.7341 30.8124 14.5 31.584V36C14.5 38.2091 16.2909 40 18.5 40H21.5C23.7091 40 25.5 38.2091 25.5 36V35C25.5 34.4477 25.0523 34 24.5 34C23.9477 34 23.5 34.4477 23.5 35V36C23.5 37.1046 22.6046 38 21.5 38H18.5C17.3954 38 16.5 37.1046 16.5 36H19.5C20.0523 36 20.5 35.5523 20.5 35C20.5 34.4477 20.0523 34 19.5 34H16.5V32H23.5C26.2614 32 28.5 29.7614 28.5 27V25.4991ZM20 2C13.6487 2 8.5 7.14873 8.5 13.5C8.5 16.6019 9.7268 19.4152 11.7238 21.4847C12.7151 22.5119 13.5 23.9046 13.5 25.4991V27C13.5 28.6569 14.8431 30 16.5 30H23.5C25.1569 30 26.5 28.6569 26.5 27V25.4991C26.5 25.4179 26.502 25.3373 26.506 25.2572C25.6507 25.7173 24.7396 26.0951 23.7858 26.3795C23.2565 26.5374 22.6995 26.2362 22.5417 25.707C22.3839 25.1777 22.685 24.6208 23.2143 24.4629C25.102 23.9 26.7742 22.925 28.1132 21.659C28.1668 21.5998 28.2212 21.5417 28.2762 21.4847C30.2732 19.4152 31.5 16.6019 31.5 13.5C31.5 7.14873 26.3513 2 20 2Z" fill="#3D75E4"/>
</svg>
