<svg width="40" height="40" viewBox="0 0 40 40" fill="none" xmlns="http://www.w3.org/2000/svg">
<path fill-rule="evenodd" clip-rule="evenodd" d="M21.5 3.5C21.5 1.56772 23.0677 0 25 0C26.9251 0 28.4884 1.55616 28.4999 3.47861L28.5002 3.5C28.5002 4.80354 27.7957 5.9227 26.7562 6.53253L24.3594 7.91309V18H25.875V9.42535C25.875 8.87307 26.3227 8.42535 26.875 8.42535C27.4273 8.42535 27.875 8.87307 27.875 9.42535V18H28C29.6569 18 31 19.3431 31 21V23.5109L38.8418 29.6101C39.5726 30.1785 40 31.0524 40 31.9782V33C40 34.1046 39.1046 35 38 35H30.917C30.441 37.8377 27.973 40 25 40C22.027 40 19.559 37.8377 19.083 35H12C10.8954 35 10 34.1046 10 33V31.9782C10 31.0524 10.4274 30.1785 11.1582 29.6101L19 23.5109V21C19 19.3431 20.3431 18 22 18H22.3594V9.06781L13.754 14.0616C13.2764 14.3388 12.6644 14.1763 12.3872 13.6986C12.11 13.2209 12.2725 12.609 12.7502 12.3318L21.9981 6.96508L22.0086 6.95911L25.7491 4.80454C26.2029 4.53613 26.4952 4.06257 26.5001 3.51408L26.5 3.5C26.5 2.67228 25.8277 2 25 2C24.1723 2 23.5 2.67228 23.5 3.5V4.47C23.5 5.02228 23.0523 5.47 22.5 5.47C21.9477 5.47 21.5 5.02228 21.5 4.47V3.5ZM25 38C23.1362 38 21.57 36.7252 21.126 35H28.874C28.43 36.7252 26.8638 38 25 38ZM23.8987 25H29.6569L37.6139 31.1888C37.8575 31.3783 38 31.6696 38 31.9782V33H12V31.9782C12 31.6696 12.1425 31.3783 12.3861 31.1888L20.6049 24.7964C20.6226 24.7829 20.6398 24.7689 20.6565 24.7543C20.7595 24.6648 20.8401 24.5583 20.8972 24.4422C20.9567 24.3217 20.9926 24.1876 20.999 24.0457C20.9997 24.0306 21 24.0153 21 24V21C21 20.4477 21.4477 20 22 20H28C28.5523 20 29 20.4477 29 21V23H23.8987C23.3464 23 22.8987 23.4477 22.8987 24C22.8987 24.5523 23.3464 25 23.8987 25Z" fill="#3D75E4"/>
<path fill-rule="evenodd" clip-rule="evenodd" d="M1 4.37921C0.447715 4.37921 0 4.82693 0 5.37921V26.3792C0 26.9315 0.447715 27.3792 1 27.3792H2C4.76142 27.3792 7 25.1406 7 22.3792V16.8792H8C9.933 16.8792 11.5 15.3122 11.5 13.3792C11.5 12.7007 11.3069 12.0674 10.9728 11.531L19.7989 6.2368C20.2725 5.9527 20.4261 5.33846 20.142 4.86485C19.8579 4.39123 19.2437 4.23759 18.7701 4.52169L9.37262 10.1586C8.95115 9.97876 8.4872 9.87921 8 9.87921H7V9.37921C7 6.61779 4.76142 4.37921 2 4.37921H1ZM7 11.8792V14.8792H8C8.82843 14.8792 9.5 14.2076 9.5 13.3792C9.5 12.5508 8.82843 11.8792 8 11.8792H7ZM2 25.3792V6.37921C3.65685 6.37921 5 7.72236 5 9.37921V22.3792C5 24.0361 3.65685 25.3792 2 25.3792Z" fill="#3D75E4"/>
</svg>
