<svg width="40" height="40" viewBox="0 0 40 40" fill="none" xmlns="http://www.w3.org/2000/svg">
<path d="M2.00083 5C2.00083 3.34315 3.34453 2 5.00207 2H22.8243C24.404 2 25.8909 2.7459 26.8349 4.01197L29.2103 7.19761C29.5405 7.64042 30.1673 7.73184 30.6103 7.40179C31.0533 7.07174 31.1447 6.44521 30.8145 6.00239L28.4392 2.81675C27.1175 1.04427 25.0359 0 22.8243 0H5.00207C2.2395 0 0 2.23858 0 5V35C0 37.7614 2.2395 40 5.00207 40H26.0108C28.7733 40 31.0128 37.7614 31.0128 35V29.7041C31.0128 29.1518 30.5649 28.7041 30.0124 28.7041C29.4599 28.7041 29.012 29.1518 29.012 29.7041V35C29.012 36.6569 27.6683 38 26.0108 38H5.00207C3.34453 38 2.00083 36.6569 2.00083 35V5Z" fill="#3D75E4"/>
<path d="M24.7494 3.45C24.7494 2.89772 24.3015 2.45 23.749 2.45C23.1964 2.45 22.7485 2.89772 22.7485 3.45V6.7C22.7485 8.35686 24.0922 9.7 25.7498 9.7H28.0116C28.5641 9.7 29.012 10.1477 29.012 10.7V17.8887L22.2349 24.663C22.1255 24.7724 22.0429 24.9057 21.9937 25.0524L20.212 30.369C20.0915 30.7287 20.1849 31.1255 20.4532 31.3937C20.7215 31.662 21.1186 31.7553 21.4784 31.6348L26.7971 29.8538C26.9439 29.8047 27.0773 29.7222 27.1867 29.6127L35.687 21.116C36.4707 20.3326 36.468 19.0617 35.681 18.2816L34.0439 16.659L36.1274 14.7126C36.572 14.2973 37.2679 14.3162 37.6892 14.7549C38.1103 15.1933 38.1012 15.8884 37.6688 16.3156L37.0577 16.9195C36.6648 17.3077 36.6611 17.9409 37.0495 18.3337C37.4379 18.7264 38.0714 18.7301 38.4643 18.3418L39.0754 17.738C40.2856 16.5422 40.311 14.5968 39.1326 13.3698C37.9531 12.1419 36.0055 12.0891 34.7613 13.2514L32.6778 15.1977C31.8486 15.9723 31.8293 17.2804 32.6351 18.0791L34.2722 19.7018L27.8887 26.0827L27.1813 25.3756C26.7906 24.985 26.1572 24.985 25.7665 25.3756C25.3758 25.7661 25.3758 26.3993 25.7665 26.7898L26.4739 27.4969L25.9384 28.0322L22.7471 29.1008L23.8162 25.9108L30.7348 18.995C30.9744 18.7556 31.0671 18.4248 31.0128 18.1148V10.7C31.0128 9.04315 29.6691 7.7 28.0116 7.7H25.7498C25.1973 7.7 24.7494 7.25228 24.7494 6.7V3.45Z" fill="#3D75E4"/>
<path d="M10.0041 12.5C10.0041 11.9477 10.452 11.5 11.0046 11.5H20.0083C20.5608 11.5 21.0087 11.9477 21.0087 12.5C21.0087 13.0523 20.5608 13.5 20.0083 13.5H11.0046C10.452 13.5 10.0041 13.0523 10.0041 12.5Z" fill="#3D75E4"/>
<path d="M6.50269 14C7.33146 14 8.00331 13.3284 8.00331 12.5C8.00331 11.6716 7.33146 11 6.50269 11C5.67392 11 5.00207 11.6716 5.00207 12.5C5.00207 13.3284 5.67392 14 6.50269 14Z" fill="#3D75E4"/>
<path d="M10.0041 17.5C10.0041 16.9477 10.452 16.5 11.0046 16.5H20.0083C20.5608 16.5 21.0087 16.9477 21.0087 17.5C21.0087 18.0523 20.5608 18.5 20.0083 18.5H11.0046C10.452 18.5 10.0041 18.0523 10.0041 17.5Z" fill="#3D75E4"/>
<path d="M6.50269 19C7.33146 19 8.00331 18.3284 8.00331 17.5C8.00331 16.6716 7.33146 16 6.50269 16C5.67392 16 5.00207 16.6716 5.00207 17.5C5.00207 18.3284 5.67392 19 6.50269 19Z" fill="#3D75E4"/>
<path d="M10.0041 22.5C10.0041 21.9477 10.452 21.5 11.0046 21.5H20.0083C20.5608 21.5 21.0087 21.9477 21.0087 22.5C21.0087 23.0523 20.5608 23.5 20.0083 23.5H11.0046C10.452 23.5 10.0041 23.0523 10.0041 22.5Z" fill="#3D75E4"/>
<path d="M6.50269 24C7.33146 24 8.00331 23.3284 8.00331 22.5C8.00331 21.6716 7.33146 21 6.50269 21C5.67392 21 5.00207 21.6716 5.00207 22.5C5.00207 23.3284 5.67392 24 6.50269 24Z" fill="#3D75E4"/>
</svg>
