<svg width="40" height="40" viewBox="0 0 40 40" fill="none" xmlns="http://www.w3.org/2000/svg">
<g clip-path="url(#clip0)">
<path fill-rule="evenodd" clip-rule="evenodd" d="M14 -0.000244141C14.5523 -0.000244141 15 0.447471 15 0.999756V2.43357L18.5435 4.55966C19.4471 5.10183 20 6.07835 20 7.13214V9.49976C20 10.052 19.5523 10.4998 19 10.4998C18.4477 10.4998 18 10.052 18 9.49976V7.13214C18 6.78087 17.8157 6.45537 17.5145 6.27464L14 4.16595L10.4855 6.27464C10.1843 6.45537 10 6.78087 10 7.13214V10.279C10 11.1399 9.44914 11.9041 8.63246 12.1764L7.68377 12.4926C7.27543 12.6287 7 13.0108 7 13.4413V15.9998H10C11.1046 15.9998 12 16.8952 12 17.9998V37.9998C12 39.1043 11.1046 39.9998 10 39.9998H4.5C3.39543 39.9998 2.5 39.1043 2.5 37.9998V31.8548C1.05426 31.4245 0 30.0853 0 28.4998C0 26.5668 1.567 24.9998 3.5 24.9998C5.433 24.9998 7 26.5668 7 28.4998C7 30.0853 5.94574 31.4245 4.5 31.8548V37.9998H10V17.9998H4V18.9998H6C6.55228 18.9998 7 19.4475 7 19.9998C7 20.552 6.55228 20.9998 6 20.9998H4V21.9998H6C6.55228 21.9998 7 22.4475 7 22.9998C7 23.552 6.55228 23.9998 6 23.9998H3C2.44772 23.9998 2 23.552 2 22.9998V17.9998C2 16.8952 2.89543 15.9998 4 15.9998H5V13.4413C5 12.15 5.82629 11.0036 7.05132 10.5952L8 10.279V7.13214C8 6.07835 8.5529 5.10183 9.45651 4.55966L13 2.43357V0.999756C13 0.447471 13.4477 -0.000244141 14 -0.000244141ZM5 28.4998C5 29.3282 4.32843 29.9998 3.5 29.9998C2.67157 29.9998 2 29.3282 2 28.4998C2 27.6713 2.67157 26.9998 3.5 26.9998C4.32843 26.9998 5 27.6713 5 28.4998Z" fill="#3D75E4"/>
<path fill-rule="evenodd" clip-rule="evenodd" d="M34 1.99976C34.5523 1.99976 35 2.44747 35 2.99976V18.8817L36.3416 19.5525C37.358 20.0607 38 21.0995 38 22.2358V24.9998C38 25.552 37.5523 25.9998 37 25.9998C36.4477 25.9998 36 25.552 36 24.9998V22.2358C36 21.8571 35.786 21.5108 35.4472 21.3414L34.1056 20.6706C33.428 20.3318 33 19.6393 33 18.8817V16.9998H32C31.4477 16.9998 31 16.552 31 15.9998C31 15.4475 31.4477 14.9998 32 14.9998H33V13.9998H31.5C30.9477 13.9998 30.5 13.552 30.5 12.9998C30.5 12.4475 30.9477 11.9998 31.5 11.9998H33V10.9998H31C30.4477 10.9998 30 10.552 30 9.99976C30 9.44747 30.4477 8.99976 31 8.99976H33V7.24637L26.7831 8.62791C26.3255 8.72959 26 9.1354 26 9.6041V14.0532L28.2311 15.0572C29.3076 15.5416 30 16.6124 30 17.7929V37.9998H35.5V33.8548C34.0543 33.4245 33 32.0853 33 30.4998C33 28.5668 34.567 26.9998 36.5 26.9998C38.433 26.9998 40 28.5668 40 30.4998C40 32.0853 38.9457 33.4245 37.5 33.8548V37.9998C37.5 39.1043 36.6046 39.9998 35.5 39.9998H30C28.8954 39.9998 28 39.1043 28 37.9998V17.7929C28 17.3994 27.7692 17.0425 27.4104 16.881L20 13.5464V17.9998C20 18.5521 19.5523 18.9998 19 18.9998C18.4477 18.9998 18 18.5521 18 17.9998V13.5464C18 12.095 19.4972 11.1269 20.8207 11.7225L24 13.1532V9.6041C24 8.198 24.9766 6.98056 26.3492 6.67554L33 5.19758V2.99976C33 2.44747 33.4477 1.99976 34 1.99976ZM35 30.4998C35 29.6713 35.6716 28.9998 36.5 28.9998C37.3284 28.9998 38 29.6713 38 30.4998C38 31.3282 37.3284 31.9998 36.5 31.9998C35.6716 31.9998 35 31.3282 35 30.4998Z" fill="#3D75E4"/>
<path d="M21 35.9998C21 36.552 20.5523 36.9998 20 36.9998C19.4477 36.9998 19 36.552 19 35.9998C19 35.4475 19.4477 34.9998 20 34.9998C20.5523 34.9998 21 35.4475 21 35.9998Z" fill="#3D75E4"/>
<path fill-rule="evenodd" clip-rule="evenodd" d="M17 19.9998C15.3431 19.9998 14 21.3429 14 22.9998V36.9998C14 38.6566 15.3431 39.9998 17 39.9998H23C24.6569 39.9998 26 38.6566 26 36.9998V22.9998C26 21.3429 24.6569 19.9998 23 19.9998H17ZM16 22.9998C16 22.4475 16.4477 21.9998 17 21.9998C17 22.552 17.4477 22.9998 18 22.9998H22C22.5523 22.9998 23 22.552 23 21.9998C23.5523 21.9998 24 22.4475 24 22.9998V36.9998C24 37.552 23.5523 37.9998 23 37.9998H17C16.4477 37.9998 16 37.552 16 36.9998V22.9998Z" fill="#3D75E4"/>
<path d="M11 11.9998C11 11.4475 11.4477 10.9998 12 10.9998H12.5C13.0523 10.9998 13.5 11.4475 13.5 11.9998C13.5 12.552 13.0523 12.9998 12.5 12.9998H12C11.4477 12.9998 11 12.552 11 11.9998Z" fill="#3D75E4"/>
<path d="M11 8.99975C11 8.44747 11.4477 7.99975 12 7.99975H12.5C13.0523 7.99975 13.5 8.44747 13.5 8.99975C13.5 9.55204 13.0523 9.99975 12.5 9.99975H12C11.4477 9.99975 11 9.55204 11 8.99975Z" fill="#3D75E4"/>
<path d="M14.5 11.9998C14.5 11.4475 14.9477 10.9998 15.5 10.9998H16C16.5523 10.9998 17 11.4475 17 11.9998C17 12.552 16.5523 12.9998 16 12.9998H15.5C14.9477 12.9998 14.5 12.552 14.5 11.9998Z" fill="#3D75E4"/>
<path d="M14.5 8.99975C14.5 8.44747 14.9477 7.99975 15.5 7.99975H16C16.5523 7.99975 17 8.44747 17 8.99975C17 9.55204 16.5523 9.99975 16 9.99975H15.5C14.9477 9.99975 14.5 9.55204 14.5 8.99975Z" fill="#3D75E4"/>
</g>
<defs>
<clipPath id="clip0">
<rect width="40" height="40" fill="white" transform="translate(0 -0.000244141)"/>
</clipPath>
</defs>
</svg>
