<svg width="40" height="40" viewBox="0 0 40 40" fill="none" xmlns="http://www.w3.org/2000/svg">
<path d="M13 7.16728V4.09559H12V9.1931C12.0011 9.24976 11.9977 9.30632 11.9898 9.36216C11.9771 9.4523 11.953 9.53865 11.9189 9.6196C11.8451 9.79581 11.7222 9.95283 11.5548 10.0671L8.55481 12.1149C8.09528 12.4286 7.47441 12.3014 7.16806 11.8309C6.8617 11.3604 6.98588 10.7247 7.44541 10.411L10 8.66728V3.07169C10 2.50621 10.4477 2.04779 11 2.04779H14C14.5523 2.04779 15 2.50621 15 3.07169V5.25429L22.4221 0.187985C22.4828 0.144052 22.5476 0.107554 22.6152 0.0787718C22.857 -0.0241142 23.1346 -0.0283967 23.3849 0.0788248C23.4525 0.107597 23.5173 0.144074 23.5779 0.187976L38.5546 10.411C39.0141 10.7247 39.1383 11.3604 38.8319 11.8309C38.5256 12.3014 37.9047 12.4286 37.4452 12.1149L23 2.25465L14.5548 8.01932C14.3462 8.1617 14.1044 8.21326 13.8738 8.1831C13.7596 8.16838 13.6514 8.13393 13.5525 8.08319C13.4253 8.01814 13.3101 7.92449 13.2171 7.80431C13.1153 7.67336 13.0442 7.5163 13.0149 7.34453C13.0049 7.28586 13 7.22623 13 7.16728Z" fill="#3D75E4"/>
<path d="M19 14.3346C19 13.7691 19.4477 13.3107 20 13.3107H26C26.5523 13.3107 27 13.7691 27 14.3346C27 14.9 26.5523 15.3585 26 15.3585H20C19.4477 15.3585 19 14.9 19 14.3346Z" fill="#3D75E4"/>
<path d="M5 35.8364C5.55228 35.8364 6 35.378 6 34.8125C6 34.247 5.55228 33.7886 5 33.7886C4.44772 33.7886 4 34.247 4 34.8125C4 35.378 4.44772 35.8364 5 35.8364Z" fill="#3D75E4"/>
<path fill-rule="evenodd" clip-rule="evenodd" d="M35 24.915V15.5653L37.4452 17.2344C37.9047 17.5481 38.5256 17.4209 38.8319 16.9504C39.1383 16.4799 39.0141 15.8442 38.5546 15.5305L23.5779 5.30747C23.408 5.18439 23.2052 5.11966 23 5.11948C22.8702 5.11938 22.7394 5.14511 22.6152 5.19825C22.5476 5.22703 22.4828 5.26354 22.4221 5.30747L7.44541 15.5305C6.98588 15.8442 6.8617 16.4799 7.16806 16.9504C7.47441 17.4209 8.09528 17.5481 8.55481 17.2344L11 15.5653V22.3892H9L8.99563 22.3893C8.92704 21.3219 8.05978 20.4779 7 20.4779H3C1.89543 20.4779 1 21.3948 1 22.5257V36.8603C1 37.9913 1.89543 38.9081 3 38.9081H7C8.10457 38.9081 9 37.9913 9 36.8603V36.3805L12.5141 39.1499C13.2135 39.7011 14.0713 40 14.9539 40H26.6237C27.6846 40 28.702 39.5685 29.4522 38.8004L36.8068 31.27C38.2467 29.7957 38.2467 27.4055 36.8068 25.9312C36.2917 25.4038 35.6622 25.0651 35 24.915ZM13 22.3892H18.5213C18.6821 22.3892 18.8419 22.3992 19 22.4187V18.4301C19 17.8647 19.4477 17.4062 20 17.4062H26C26.5523 17.4062 27 17.8647 27 18.4301V28.5447C27.3791 28.8973 27.6585 29.3205 27.8365 29.777L31.5926 25.9312C32.0029 25.5111 32.4858 25.2107 33 25.03V14.3346C33 14.2908 33.0027 14.2478 33.0079 14.2055L23 7.37413L12.9921 14.2055C12.9973 14.2478 13 14.2908 13 14.3346V22.3892ZM25 19.454V26.7839L21.1278 23.3781C21.0858 23.3412 21.0432 23.3053 21 23.2703V19.454H25ZM15.9804 30.7928C15.5371 30.5413 15.3432 29.9818 15.5471 29.4945C15.7647 28.9747 16.3526 28.734 16.8602 28.9567L24.297 32.2201C24.7796 32.4318 25.3396 32.3183 25.707 31.9343C26.2214 31.3964 26.1847 30.5254 25.627 30.0349L19.8246 24.9315C19.4618 24.6124 18.9995 24.437 18.5213 24.437H9V29.4448C9 30.0103 8.55228 30.4687 8 30.4687C7.44772 30.4687 7 30.0103 7 29.4448V22.5257H3V36.8603H7V34.1919C7 33.6265 7.44772 33.1681 8 33.1681C8.37784 33.1681 8.70675 33.3826 8.87682 33.6992L13.734 37.5272C14.0837 37.8028 14.5126 37.9522 14.9539 37.9522H26.6237C27.1542 37.9522 27.6629 37.7365 28.038 37.3524L35.3926 29.822C36.0514 29.1475 36.0514 28.0538 35.3926 27.3792C34.7338 26.7047 33.6656 26.7047 33.0068 27.3792L26.0751 34.4766C25.7964 34.7917 25.3428 34.907 24.9398 34.7302L16.0731 30.8394C16.0498 30.8291 16.0271 30.8181 16.0049 30.8063C15.9967 30.8019 15.9885 30.7974 15.9804 30.7928Z" fill="#3D75E4"/>
</svg>
