<svg width="40" height="40" viewBox="0 0 40 40" fill="none" xmlns="http://www.w3.org/2000/svg">
<path d="M23.25 0C23.8023 0 24.25 0.447715 24.25 1V7.93579L27.5 11.1858V8.35C27.5 7.94554 27.7436 7.5809 28.1173 7.42612C28.491 7.27134 28.9211 7.35689 29.2071 7.64289L32.75 11.1858V8.3067C32.75 7.90149 32.9945 7.53633 33.3692 7.38203C33.7439 7.22774 34.1747 7.3148 34.46 7.6025L39.71 12.8958C39.8958 13.0831 40 13.3362 40 13.6V23C40 23.5523 39.5523 24 39 24H22C21.4477 24 21 23.5523 21 23C21 22.4477 21.4477 22 22 22H38V14.0118L34.75 10.735V13.6C34.75 14.0045 34.5064 14.3691 34.1327 14.5239C33.759 14.6787 33.3289 14.5931 33.0429 14.3071L29.5 10.7642V13.6C29.5 14.0045 29.2564 14.3691 28.8827 14.5239C28.509 14.6787 28.0789 14.5931 27.7929 14.3071L22.5429 9.05711C22.3554 8.86957 22.25 8.61522 22.25 8.35V2H19V22C19 22.4105 18.7526 22.7633 18.3988 22.9173L3.03135 29.8797C2.99831 29.8996 2.96378 29.9178 2.92782 29.9341C2.42498 30.1626 1.83218 29.9401 1.60376 29.4373C0.573361 27.1691 0 24.6501 0 22C0 19.7655 0.407637 17.6238 1.15349 15.647C1.34844 15.1303 1.92538 14.8694 2.44211 15.0644C2.95884 15.2593 3.21969 15.8363 3.02473 16.353C2.36271 18.1077 2 20.0103 2 22C2 24.0022 2.36732 25.9167 3.03766 27.6811L15.9445 21.8336L3.36298 13.4693C3.33668 13.455 3.31079 13.4394 3.28539 13.4225C2.82569 13.1164 2.70116 12.4956 3.00725 12.0359C5.47963 8.32278 9.29607 5.57902 13.7656 4.50112C14.3024 4.37164 14.8426 4.70191 14.9721 5.23881C15.1016 5.7757 14.7713 6.3159 14.2344 6.44538C10.6017 7.3215 7.44982 9.43884 5.25504 12.3255L17 20.1336V1C17 0.447715 17.4477 0 18 0H23.25Z" fill="#3D75E4"/>
<path d="M35.4989 26.2344C35.6284 25.6975 35.2981 25.1573 34.7612 25.0279C34.2243 24.8984 33.6841 25.2287 33.5546 25.7655C31.8616 32.7855 25.5385 38 18 38C12.558 38 7.75013 35.284 4.85812 31.129C4.54261 30.6757 3.91937 30.564 3.46608 30.8795C3.01279 31.195 2.9011 31.8183 3.2166 32.2716C6.4665 36.9407 11.8759 40 18 40C26.4836 40 33.5943 34.1319 35.4989 26.2344Z" fill="#3D75E4"/>
<path d="M22 16C22.5523 16 23 16.4477 23 17V19C23 19.5523 22.5523 20 22 20C21.4477 20 21 19.5523 21 19V17C21 16.4477 21.4477 16 22 16Z" fill="#3D75E4"/>
<path d="M27 17C27 16.4477 26.5523 16 26 16C25.4477 16 25 16.4477 25 17V19C25 19.5523 25.4477 20 26 20C26.5523 20 27 19.5523 27 19V17Z" fill="#3D75E4"/>
<path d="M30 16C30.5523 16 31 16.4477 31 17V19C31 19.5523 30.5523 20 30 20C29.4477 20 29 19.5523 29 19V17C29 16.4477 29.4477 16 30 16Z" fill="#3D75E4"/>
<path d="M35 17C35 16.4477 34.5523 16 34 16C33.4477 16 33 16.4477 33 17V19C33 19.5523 33.4477 20 34 20C34.5523 20 35 19.5523 35 19V17Z" fill="#3D75E4"/>
</svg>
