<svg width="40" height="40" viewBox="0 0 40 40" fill="none" xmlns="http://www.w3.org/2000/svg">
<path d="M14.3999 2.5332C12.743 2.5332 11.3999 3.87635 11.3999 5.5332V11.3999H5.5332C3.87635 11.3999 2.5332 12.743 2.5332 14.3999V16.1999C2.5332 16.7522 2.98092 17.1999 3.5332 17.1999C4.08549 17.1999 4.5332 16.7522 4.5332 16.1999V14.3999C4.5332 13.8476 4.98092 13.3999 5.5332 13.3999H12.3999C12.9522 13.3999 13.3999 12.9522 13.3999 12.3999V5.5332C13.3999 4.98092 13.8476 4.5332 14.3999 4.5332H25.5999C26.1522 4.5332 26.5999 4.98092 26.5999 5.5332V12.3999C26.5999 12.9522 27.0476 13.3999 27.5999 13.3999H34.4665C35.0188 13.3999 35.4665 13.8476 35.4665 14.3999V18.9999H26.9667C26.5879 18.9999 26.2416 19.2139 26.0722 19.5527L24.6186 22.46L20.9487 11.4504C20.8144 11.0475 20.4403 10.7734 20.0156 10.7667C19.591 10.7601 19.2085 11.0224 19.0617 11.4209L15.3081 21.6092L13.8654 19.4452C13.6799 19.167 13.3677 18.9999 13.0333 18.9999H3.54471C3.54088 18.9999 3.53704 18.9999 3.5332 18.9999C3.52936 18.9999 3.52553 18.9999 3.5217 18.9999H1C0.447715 18.9999 0 19.4477 0 19.9999C0 20.5522 0.447715 20.9999 1 20.9999H2.5332V25.5999C2.5332 27.2567 3.87635 28.5999 5.5332 28.5999H11.3999V34.4665C11.3999 36.1234 12.743 37.4665 14.3999 37.4665H25.5999C27.2567 37.4665 28.5999 36.1234 28.5999 34.4665V28.5999H34.4665C36.1234 28.5999 37.4665 27.2567 37.4665 25.5999V23.7999C37.4665 23.2476 37.0188 22.7999 36.4665 22.7999C35.9143 22.7999 35.4665 23.2476 35.4665 23.7999V25.5999C35.4665 26.1522 35.0188 26.5999 34.4665 26.5999H27.5999C27.0476 26.5999 26.5999 27.0476 26.5999 27.5999V34.4665C26.5999 35.0188 26.1522 35.4665 25.5999 35.4665H14.3999C13.8476 35.4665 13.3999 35.0188 13.3999 34.4665V27.5999C13.3999 27.0476 12.9522 26.5999 12.3999 26.5999H5.5332C4.98092 26.5999 4.5332 26.1522 4.5332 25.5999V20.9999H12.4981L14.7346 24.3546C14.9434 24.6677 15.3102 24.8372 15.6839 24.793C16.0576 24.7489 16.3749 24.4987 16.505 24.1456L19.9528 14.7873L23.4846 25.3828C23.6126 25.7665 23.959 26.0354 24.3624 26.0641C24.7659 26.0928 25.1469 25.8756 25.3278 25.5138L27.5847 20.9999H39C39.5523 20.9999 40 20.5522 40 19.9999C40 19.4477 39.5523 18.9999 39 18.9999H37.4665V14.3999C37.4665 12.743 36.1234 11.3999 34.4665 11.3999H28.5999V5.5332C28.5999 3.87635 27.2567 2.5332 25.5999 2.5332H14.3999Z" fill="#3D75E4"/>
</svg>
