<svg width="40" height="40" viewBox="0 0 40 40" fill="none" xmlns="http://www.w3.org/2000/svg">
<path d="M28.1718 16.0504C31.5803 12.6419 31.5803 7.11562 28.1718 3.70711C27.7813 3.31658 27.7813 2.68342 28.1718 2.29289C28.5623 1.90237 29.1955 1.90237 29.586 2.29289C33.7756 6.48246 33.7756 13.2751 29.586 17.4647C29.1955 17.8552 28.5623 17.8552 28.1718 17.4647C27.7813 17.0741 27.7813 16.441 28.1718 16.0504Z" fill="#3D75E4"/>
<path d="M25.6702 6.20848C27.6973 8.23553 27.6973 11.522 25.6702 13.5491C25.2797 13.9396 25.2797 14.5728 25.6702 14.9633C26.0607 15.3538 26.6939 15.3538 27.0844 14.9633C29.8925 12.1552 29.8925 7.60236 27.0844 4.79426C26.6939 4.40374 26.0607 4.40374 25.6702 4.79426C25.2797 5.18479 25.2797 5.81795 25.6702 6.20848Z" fill="#3D75E4"/>
<path fill-rule="evenodd" clip-rule="evenodd" d="M16 9.99999C16 7.79085 17.7909 5.99999 20 5.99999C22.2091 5.99999 24 7.79085 24 9.99999C24 12.2091 22.2091 14 20 14C17.7909 14 16 12.2091 16 9.99999ZM20 7.99999C18.8954 7.99999 18 8.89542 18 9.99999C18 11.1046 18.8954 12 20 12C21.1046 12 22 11.1046 22 9.99999C22 8.89542 21.1046 7.99999 20 7.99999Z" fill="#3D75E4"/>
<path d="M3 24C2.44772 24 2 24.4477 2 25V33C2 34.6568 3.34315 36 5 36H35C36.6569 36 38 34.6568 38 33V25C38 24.4477 37.5523 24 37 24H26C25.4477 24 25 23.5523 25 23C25 22.4477 25.4477 22 26 22H37C38.6569 22 40 23.3431 40 25V33C40 35.7614 37.7614 38 35 38H5C2.23858 38 0 35.7614 0 33V25C0 23.3431 1.34315 22 3 22H14C14.5523 22 15 22.4477 15 23C15 23.5523 14.5523 24 14 24H3Z" fill="#3D75E4"/>
<path d="M35 32C35 32.5523 34.5523 33 34 33H30C29.4477 33 29 32.5523 29 32C29 31.4477 29.4477 31 30 31H34C34.5523 31 35 31.4477 35 32Z" fill="#3D75E4"/>
<path d="M9.0049 29.0262C9.55717 29.0233 10.0025 28.5732 9.99964 28.0209C9.99674 27.4687 9.54668 27.0233 8.9944 27.0262L5.99444 27.0419C5.44217 27.0448 4.99681 27.4949 4.9997 28.0472C5.0026 28.5994 5.45266 29.0448 6.00494 29.0419L9.0049 29.0262Z" fill="#3D75E4"/>
<path d="M30 28C30 27.4477 30.4477 27 31 27H34C34.5523 27 35 27.4477 35 28C35 28.5523 34.5523 29 34 29H31C30.4477 29 30 28.5523 30 28Z" fill="#3D75E4"/>
<path d="M14.0049 29C14.5572 28.9971 15.0025 28.547 14.9996 27.9948C14.9967 27.4425 14.5467 26.9971 13.9944 27L11.9944 27.0105C11.4422 27.0134 10.9968 27.4635 10.9997 28.0157C11.0026 28.568 11.4526 29.0134 12.0049 29.0105L14.0049 29Z" fill="#3D75E4"/>
<path d="M25 28C25 27.4477 25.4477 27 26 27H28C28.5523 27 29 27.4477 29 28C29 28.5523 28.5523 29 28 29H26C25.4477 29 25 28.5523 25 28Z" fill="#3D75E4"/>
<path d="M27 33C27.5523 33 28 32.5523 28 32C28 31.4477 27.5523 31 27 31H26C25.4477 31 25 31.4477 25 32C25 32.5523 25.4477 33 26 33H27Z" fill="#3D75E4"/>
<path d="M11.0211 32.0157C11.024 32.568 10.5787 33.018 10.0264 33.0209L6.02644 33.0419C5.47416 33.0448 5.0241 32.5994 5.0212 32.0472C5.01831 31.4949 5.46367 31.0448 6.01594 31.0419L10.0159 31.0209C10.5682 31.0181 11.0182 31.4634 11.0211 32.0157Z" fill="#3D75E4"/>
<path d="M14.0264 32.9999C14.5787 32.997 15.024 32.547 15.0211 31.9947C15.0182 31.4424 14.5682 30.9971 14.0159 31L13.0159 31.0052C12.4636 31.0081 12.0183 31.4582 12.0212 32.0104C12.0241 32.5627 12.4741 33.0081 13.0264 33.0052L14.0264 32.9999Z" fill="#3D75E4"/>
<path d="M15.0876 6.20848C13.0605 8.23553 13.0605 11.522 15.0876 13.5491C15.4781 13.9396 15.4781 14.5728 15.0876 14.9633C14.6971 15.3538 14.0639 15.3538 13.6734 14.9633C10.8653 12.1552 10.8653 7.60236 13.6734 4.79426C14.0639 4.40374 14.6971 4.40374 15.0876 4.79426C15.4781 5.18479 15.4781 5.81795 15.0876 6.20848Z" fill="#3D75E4"/>
<path d="M12.586 16.0504C9.17751 12.6419 9.17751 7.11562 12.586 3.70711C12.9766 3.31658 12.9766 2.68342 12.586 2.29289C12.1955 1.90237 11.5623 1.90237 11.1718 2.29289C6.98225 6.48246 6.98225 13.2751 11.1718 17.4647C11.5623 17.8552 12.1955 17.8552 12.586 17.4647C12.9766 17.0741 12.9766 16.441 12.586 16.0504Z" fill="#3D75E4"/>
<path d="M19.2347 26C17.4467 26 16.0556 24.4458 16.2531 22.6687L17.0063 15.8896C17.0673 15.3407 17.5617 14.9451 18.1106 15.0061C18.6595 15.0671 19.0551 15.5615 18.9941 16.1104L18.2408 22.8896C18.175 23.4819 18.6387 24 19.2347 24H20.7657C21.3617 24 21.8254 23.4819 21.7596 22.8896L21.0063 16.1104C20.9453 15.5615 21.3409 15.0671 21.8898 15.0061C22.4387 14.9451 22.9331 15.3407 22.9941 15.8896L23.7473 22.6687C23.9448 24.4458 22.5537 26 20.7657 26H19.2347Z" fill="#3D75E4"/>
</svg>
