<svg width="40" height="40" viewBox="0 0 40 40" fill="none" xmlns="http://www.w3.org/2000/svg">
<path fill-rule="evenodd" clip-rule="evenodd" d="M9.13993 13.3565C9.14395 13.3923 9.16566 13.4912 9.27449 13.6544C9.99363 14.7325 10.5715 15.6869 11.0089 16.804C11.4477 17.9248 11.728 19.1644 11.9112 20.8123C11.9476 21.1394 11.9803 21.4581 12.0122 21.7694C12.2999 24.5733 12.5254 26.7702 14.8063 29.0499C15.1277 29.3711 15.414 29.4995 15.6416 29.5406C15.8696 29.5818 16.1113 29.5486 16.367 29.4276C16.9041 29.1733 17.4575 28.541 17.7467 27.6738C17.9214 27.1501 18.4877 26.8671 19.0116 27.0417C19.5356 27.2162 19.8187 27.7823 19.6441 28.3059C19.2262 29.5588 18.3654 30.6933 17.2232 31.2341C16.6391 31.5106 15.9749 31.6321 15.2859 31.5076C14.5965 31.3831 13.9547 31.0256 13.3921 30.4634C10.5866 27.6593 10.2993 24.7728 10.0211 21.9773C9.98961 21.6613 9.95827 21.3465 9.92343 21.033C9.75307 19.5007 9.50304 18.4433 9.14638 17.5324C8.78824 16.6176 8.30545 15.8052 7.61039 14.7632C7.11079 14.0142 6.96576 13.1505 7.37965 12.3822C7.75855 11.6789 8.4782 11.3038 9.15805 11.1561C10.5353 10.8568 12.3655 11.3354 13.4988 12.9211C15.354 15.517 16.0987 17.75 16.4621 18.8396C16.6368 19.3633 16.3537 19.9295 15.8297 20.104C15.3058 20.2786 14.7395 19.9956 14.5648 19.4719C14.2211 18.4413 13.5515 16.4339 11.8713 14.0829C11.2368 13.1951 10.2386 12.9669 9.58293 13.1094C9.24633 13.1825 9.14839 13.3154 9.14061 13.3299L9.13969 13.3317C9.13963 13.332 9.13911 13.3343 9.13899 13.3377C9.13886 13.3412 9.1389 13.3473 9.13993 13.3565ZM9.13969 13.3317C9.1397 13.3317 9.13969 13.3317 9.13969 13.3317V13.3317Z" fill="#3D75E4"/>
<path fill-rule="evenodd" clip-rule="evenodd" d="M9.09876 0.195087C9.54338 -0.13235 10.1694 -0.0375501 10.497 0.406829L17.497 9.90169C17.8246 10.3461 17.7298 10.9717 17.2852 11.2992C16.8405 11.6266 16.2145 11.5318 15.8869 11.0874L8.8869 1.59259C8.55929 1.14821 8.65414 0.522525 9.09876 0.195087Z" fill="#3D75E4"/>
<path fill-rule="evenodd" clip-rule="evenodd" d="M17.996 1.51887C18.5375 1.41062 19.0644 1.76164 19.1727 2.30291L20.1727 7.3002C20.281 7.84147 19.9298 8.36801 19.3882 8.47626C18.8466 8.58452 18.3198 8.23349 18.2115 7.69222L17.2115 2.69493C17.1032 2.15366 17.4544 1.62712 17.996 1.51887Z" fill="#3D75E4"/>
<path fill-rule="evenodd" clip-rule="evenodd" d="M25.5768 0.0771422C26.0866 0.289444 26.3277 0.874601 26.1152 1.38413L23.6152 7.38088C23.4028 7.89041 22.8173 8.13135 22.3075 7.91905C21.7977 7.70675 21.5567 7.12159 21.7691 6.61207L24.2691 0.615312C24.4815 0.105787 25.067 -0.13516 25.5768 0.0771422Z" fill="#3D75E4"/>
<path fill-rule="evenodd" clip-rule="evenodd" d="M33.3078 4.90432C32.1377 3.73489 30.2405 3.72958 29.0675 4.90202L20.7051 13.2599C19.0632 14.9009 17.3417 15.743 15.1893 15.9875C14.6405 16.0499 14.2462 16.545 14.3086 17.0935C14.371 17.6419 14.8664 18.036 15.4151 17.9736C18.0426 17.6751 20.1761 16.6155 22.1193 14.6733L30.4817 6.31546C30.8707 5.92665 31.5015 5.92595 31.8936 6.31777C32.2841 6.70808 32.2841 7.34091 31.8936 7.73122L25.7473 13.8741L25.7321 13.8893L22.057 17.5623C20.8855 18.7333 20.8855 20.6317 22.057 21.8027C22.6961 22.4413 23.5516 22.7317 24.3875 22.6736C24.4877 23.2661 24.7665 23.8342 25.224 24.2915C25.6319 24.6991 26.128 24.9648 26.6509 25.0887C26.5069 26.0035 26.7876 26.9722 27.4929 27.6772C27.7274 27.9115 27.9911 28.099 28.2722 28.2395C26.6655 29.7293 25.3679 30.7456 24.1175 31.3844C22.3762 32.2739 20.6721 32.4542 18.1838 31.9568C17.6422 31.8486 17.1154 32.1996 17.0071 32.7409C16.8988 33.2821 17.25 33.8087 17.7916 33.9169C18.4137 34.0413 19.0051 34.1297 19.5731 34.1797L15.8774 37.8734L15.8666 37.884C15.8308 37.9198 15.7099 38.0102 15.3592 38.0004C15.0055 37.9905 14.5171 37.877 13.9144 37.6188C12.7143 37.1048 11.2538 36.1005 9.85623 34.7037C8.4587 33.307 7.4539 31.8472 6.93959 30.6478C6.68126 30.0454 6.56767 29.5573 6.5578 29.2038C6.54802 28.8532 6.63844 28.7324 6.67425 28.6966C6.67721 28.6936 6.68015 28.6907 6.68307 28.6877L8.79549 26.5764C9.18601 26.1861 9.18601 25.5533 8.79549 25.1629C8.40496 24.7726 7.7718 24.7726 7.38127 25.1629L5.25995 27.2831C5.25592 27.2871 5.25193 27.2912 5.24798 27.2953C4.70757 27.8436 4.53937 28.5715 4.55858 29.2595C4.57785 29.9498 4.78381 30.6948 5.1013 31.4352C5.73865 32.9215 6.91063 34.5866 8.44202 36.1172C9.97342 37.6478 11.6394 38.8191 13.1265 39.4561C13.8673 39.7734 14.6127 39.9793 15.3034 39.9985C15.991 40.0177 16.7184 39.85 17.2668 39.3114L17.281 39.2974L21.4657 35.115C22.1637 34.4174 23.0658 33.9762 23.9886 33.6266C24.3355 33.4952 24.681 33.3414 25.0277 33.1643C27.0614 32.1254 29.0839 30.3066 31.6751 27.7359C31.6955 27.7167 31.7156 27.6971 31.7356 27.6772L34.564 24.8503C35.7356 23.6793 35.7356 21.7808 34.564 20.6099C34.1561 20.2023 33.6601 19.9365 33.1372 19.8127C33.2811 18.8979 33.0004 17.9292 32.2951 17.2242C31.8762 16.8055 31.3642 16.5365 30.8257 16.4173C30.9482 15.5204 30.6645 14.5787 29.9747 13.8893C29.7268 13.6415 29.4463 13.4462 29.147 13.3032L33.3078 9.14467C34.4794 7.97373 34.4794 6.07526 33.3078 4.90432ZM30.7156 25.8696L30.7211 25.8642L33.1498 23.4368C33.5403 23.0465 33.5403 22.4137 33.1498 22.0234C32.765 21.6388 32.1447 21.6331 31.753 22.0063L29.4667 24.2915L29.4366 24.3211L28.9072 24.8503C28.5166 25.2406 28.5166 25.8734 28.9072 26.2637C29.2864 26.6427 29.8944 26.6537 30.2869 26.2966C30.4275 26.1571 30.5703 26.0148 30.7156 25.8696ZM30.3514 20.5803L30.8809 20.0511C31.2714 19.6608 31.2714 19.028 30.8809 18.6377C30.4904 18.2474 29.8572 18.2474 29.4667 18.6377L26.6382 21.4646C26.2477 21.8549 26.2477 22.4877 26.6382 22.878C27.023 23.2626 27.6433 23.2682 28.035 22.895L30.3214 20.6099L30.3514 20.5803ZM25.5833 16.8649L25.5921 16.8561L27.1551 15.294C27.5463 14.9125 28.1729 14.9154 28.5605 15.3027C28.951 15.6931 28.951 16.3259 28.5605 16.7162L24.8855 20.3892C24.4949 20.7795 23.8618 20.7795 23.4713 20.3892C23.0807 19.9989 23.0807 19.3661 23.4713 18.9758L25.5833 16.8649Z" fill="#3D75E4"/>
</svg>
