<svg width="40" height="40" viewBox="0 0 40 40" fill="none" xmlns="http://www.w3.org/2000/svg">
<g clip-path="url(#clip0)">
<path fill-rule="evenodd" clip-rule="evenodd" d="M30.4744 2.03977C26.314 2.03977 22.9485 5.39731 22.9485 9.5302C22.9485 13.6631 26.314 17.0206 30.4744 17.0206C32.4624 17.0206 34.2692 16.2543 35.6149 15.0011C34.2666 13.745 32.4586 12.9595 30.488 12.9559L30.4743 12.9559L30.4605 12.9559C29.0727 12.9584 27.7759 13.3339 26.6627 13.9861C26.1862 14.2653 25.5737 14.1054 25.2945 13.6289C25.0153 13.1524 25.1753 12.5398 25.6518 12.2606C26.1855 11.9479 26.7525 11.6855 27.346 11.48C26.7735 10.7848 26.4295 9.89499 26.4295 8.92375C26.4295 6.69287 28.2444 4.89155 30.4743 4.89155C32.7042 4.89155 34.5191 6.69287 34.5191 8.92375C34.5191 9.89887 34.1724 10.7919 33.5958 11.4883C35.2226 12.0596 36.6489 13.0587 37.7358 14.3279C38.0687 14.6937 38.0866 15.2585 37.7584 15.6461C36.0121 17.7087 33.396 19.0205 30.4744 19.0205C29.2263 19.0205 28.034 18.7812 26.9413 18.3461L25.3654 24.2499C25.223 24.7834 24.675 25.1005 24.1415 24.9581C23.608 24.8157 23.2909 24.2677 23.4333 23.7341L25.1279 17.3856C22.6064 15.6791 20.9487 12.7988 20.9487 9.5302C20.9487 4.2849 25.2175 0.039917 30.4744 0.039917C35.7313 0.039917 40 4.2849 40 9.5302C40 10.6024 39.8211 11.635 39.4908 12.5987C39.3117 13.1211 38.7431 13.3995 38.2207 13.2204C37.6983 13.0413 37.42 12.4726 37.5991 11.9502C37.8589 11.1923 38.0002 10.3787 38.0002 9.5302C38.0002 5.39731 34.6348 2.03977 30.4744 2.03977ZM30.4854 10.9561C31.6136 10.9501 32.5193 10.0386 32.5193 8.92375C32.5193 7.80528 31.6077 6.89141 30.4743 6.89141C29.3409 6.89141 28.4293 7.80528 28.4293 8.92375C28.4293 10.0386 29.335 10.9501 30.4633 10.9561L30.4744 10.9561L30.4854 10.9561Z" fill="#3D75E4"/>
<path fill-rule="evenodd" clip-rule="evenodd" d="M7.94404 10.9736C4.65714 10.9736 1.99977 13.6259 1.99977 16.8889C1.99977 20.152 4.65714 22.8043 7.94404 22.8043C8.87736 22.8043 9.76001 22.5906 10.5457 22.2094C10.6385 22.1384 10.7411 22.0857 10.8485 22.0516C11.2083 21.8506 11.5451 21.6134 11.8537 21.3449C10.803 20.4292 9.43113 19.8647 7.94388 19.8647C7.03384 19.8647 6.17429 20.0675 5.40592 20.4292C4.90628 20.6643 4.3106 20.4499 4.07544 19.9502C3.84028 19.4506 4.05469 18.8549 4.55434 18.6197C4.73124 18.5364 4.9117 18.4595 5.09541 18.3892C4.69757 17.8255 4.46371 17.138 4.46371 16.395C4.46371 14.4748 6.0257 12.9253 7.94365 12.9253C9.86159 12.9253 11.4236 14.4748 11.4236 16.395C11.4236 17.1414 11.1876 17.8318 10.7864 18.397C12.0411 18.8834 13.1419 19.6772 13.9934 20.6693C14.3286 21.035 14.3474 21.6016 14.0184 21.9902C13.6518 22.4232 13.2392 22.8165 12.7881 23.1627L16.3157 26.4537C16.7195 26.8304 16.7415 27.4631 16.3648 27.8669C15.9881 28.2707 15.3554 28.2927 14.9516 27.916L10.9759 24.2071C10.0415 24.5918 9.01749 24.8042 7.94404 24.8042C3.56063 24.8042 0 21.2644 0 16.8889C0 12.5135 3.56063 8.9737 7.94404 8.9737C12.3274 8.9737 15.8881 12.5135 15.8881 16.8889C15.8881 17.5734 15.8006 18.239 15.6358 18.8746C15.4971 19.4091 14.9514 19.7301 14.4169 19.5914C13.8823 19.4528 13.5614 18.907 13.7001 18.3725C13.8228 17.8994 13.8883 17.4025 13.8883 16.8889C13.8883 13.6259 11.2309 10.9736 7.94404 10.9736ZM7.94365 14.9252C7.1222 14.9252 6.46348 15.5872 6.46348 16.395C6.46348 17.2028 7.1222 17.8648 7.94365 17.8648C8.76509 17.8648 9.42382 17.2028 9.42382 16.395C9.42382 15.5872 8.76509 14.9252 7.94365 14.9252Z" fill="#3D75E4"/>
<path fill-rule="evenodd" clip-rule="evenodd" d="M29.5737 21.3289C29.7162 20.7953 29.3991 20.2473 28.8656 20.1049C28.332 19.9625 27.7841 20.2796 27.6416 20.8131L26.1524 26.3924C25.332 26.0632 24.4358 25.882 23.4971 25.882C22.5273 25.882 21.6028 26.0754 20.7605 26.4256L16.7142 22.4772C16.319 22.0915 15.6859 22.0993 15.3003 22.4945C14.9146 22.8898 14.9224 23.5229 15.3176 23.9085L18.9869 27.489C17.4005 28.7873 16.3886 30.7565 16.3886 32.9609C16.3886 36.8706 19.5712 40.0399 23.4971 40.0399C25.6786 40.0399 27.6313 39.0601 28.9337 37.5218C29.2607 37.1357 29.2425 36.5745 28.911 36.2103C28.1795 35.3583 27.2417 34.6692 26.1731 34.2303C26.4933 33.736 26.6791 33.1471 26.6791 32.5151C26.6791 30.7649 25.2543 29.346 23.4967 29.346C21.7391 29.346 20.3143 30.7649 20.3143 32.5151C20.3143 33.144 20.4983 33.7301 20.8155 34.2229C20.7294 34.2579 20.6441 34.2945 20.5597 34.3326C20.0563 34.5604 19.8336 35.1514 20.0623 35.6528C20.291 36.1541 20.8845 36.3759 21.3879 36.1481C22.0295 35.8579 22.7429 35.6957 23.497 35.6957C24.7246 35.6957 25.8621 36.1441 26.7512 36.8798C25.8671 37.6089 24.7336 38.0459 23.4971 38.0459C20.677 38.0459 18.3909 35.7693 18.3909 32.9609C18.3909 30.1526 20.677 27.876 23.4971 27.876C26.3171 27.876 28.6032 30.1526 28.6032 32.9609C28.6032 33.2435 28.5802 33.52 28.536 33.7888C28.4468 34.3322 28.8169 34.8448 29.3626 34.9336C29.9082 35.0225 30.4229 34.654 30.5122 34.1105C30.5737 33.7358 30.6056 33.3517 30.6056 32.9609C30.6056 30.727 29.5664 28.7347 27.9433 27.4373L29.5737 21.3289ZM23.4967 31.34C22.845 31.34 22.3167 31.8661 22.3167 32.5151C22.3167 33.1641 22.845 33.6902 23.4967 33.6902C24.1484 33.6902 24.6767 33.1641 24.6767 32.5151C24.6767 31.8661 24.1484 31.34 23.4967 31.34Z" fill="#3D75E4"/>
</g>
<defs>
<clipPath id="clip0">
<rect width="40" height="40" fill="white"/>
</clipPath>
</defs>
</svg>
