<svg width="40" height="40" viewBox="0 0 40 40" fill="none" xmlns="http://www.w3.org/2000/svg">
<path d="M0 1C0 0.447715 0.447715 0 1 0H39C39.5523 0 40 0.447715 40 1C40 1.55228 39.5523 2 39 2H1C0.447715 2 0 1.55228 0 1Z" fill="#3D75E4"/>
<path d="M10.5 3C11.0523 3 11.5 3.44772 11.5 4L11.5 7C11.5 8.10457 10.6046 9 9.5 9H6.5C5.94772 9 5.5 9.44772 5.5 10V37C5.5 37.5523 5.94772 38 6.5 38H33.5C34.0523 38 34.5 37.5523 34.5 37V10C34.5 9.44772 34.0523 9 33.5 9H32.5C31.9477 9 31.5 8.55229 31.5 8C31.5 7.44772 31.9477 7 32.5 7H33.5C35.1569 7 36.5 8.34315 36.5 10V37C36.5 38.6569 35.1569 40 33.5 40H6.5C4.84315 40 3.5 38.6569 3.5 37V10C3.5 8.34315 4.84315 7 6.5 7H9.5L9.5 4C9.5 3.44772 9.94771 3 10.5 3Z" fill="#3D75E4"/>
<path d="M29.5 3C30.0523 3 30.5 3.44772 30.5 4V7C30.5 8.10457 29.6046 9 28.5 9H13.5C12.9477 9 12.5 8.55229 12.5 8C12.5 7.44772 12.9477 7 13.5 7H28.5V4C28.5 3.44772 28.9477 3 29.5 3Z" fill="#3D75E4"/>
<path d="M13.5 12.9999C12.3954 12.9999 11.5 13.8954 11.5 14.9999V32.9999C11.5 34.1045 12.3954 34.9999 13.5 34.9999H16.0714C17.176 34.9999 18.0714 34.1045 18.0714 32.9999V28.4444C18.0714 27.8921 17.6237 27.4444 17.0714 27.4444C16.5191 27.4444 16.0714 27.8921 16.0714 28.4444V32.9999H13.5V14.9999H21.0714C24.6486 14.9999 27.5 17.8121 27.5 21.2222C27.5 24.6322 24.6486 27.4444 21.0714 27.4444H20C19.4477 27.4444 19 27.8921 19 28.4444C19 28.9967 19.4477 29.4444 20 29.4444H21.0714C25.6997 29.4444 29.5 25.7895 29.5 21.2222C29.5 16.6548 25.6997 12.9999 21.0714 12.9999H13.5Z" fill="#3D75E4"/>
<path d="M17.0714 17.4444C16.5191 17.4444 16.0714 17.8921 16.0714 18.4444C16.0714 18.9967 16.5191 19.4444 17.0714 19.4444H21.0714C22.1238 19.4444 22.9286 20.2667 22.9286 21.2222C22.9286 22.1776 22.1238 22.9999 21.0714 22.9999H18.0714V21.2222C18.0714 20.6699 17.6237 20.2222 17.0714 20.2222C16.5191 20.2222 16.0714 20.6699 16.0714 21.2222V22.9999C16.0714 24.1045 16.9669 24.9999 18.0714 24.9999H21.0714C23.1749 24.9999 24.9286 23.3349 24.9286 21.2222C24.9286 19.1094 23.1749 17.4444 21.0714 17.4444H17.0714Z" fill="#3D75E4"/>
</svg>
