<svg width="40" height="40" viewBox="0 0 40 40" fill="none" xmlns="http://www.w3.org/2000/svg">
<path fill-rule="evenodd" clip-rule="evenodd" d="M2.38279 9.50956C-0.794263 12.6375 -0.794263 17.7089 2.38279 20.8368L4.78223 23.1991C4.3359 24.4339 4.61471 25.8659 5.61866 26.8544C6.32288 27.5477 7.24877 27.8897 8.17172 27.8805C8.16236 28.7892 8.50978 29.7008 9.214 30.3941C9.91822 31.0875 10.8441 31.4295 11.7671 31.4203C11.7577 32.329 12.1051 33.2406 12.8093 33.9339C13.5136 34.6272 14.4395 34.9693 15.3624 34.9601C15.353 35.8687 15.7005 36.7803 16.4047 37.4736C17.7946 38.8421 20.0482 38.8421 21.4382 37.4736L24.3145 34.6418C24.5112 34.4482 24.68 34.2375 24.8211 34.0145C26.0963 34.5023 27.5995 34.2395 28.6289 33.2259C29.3332 32.5326 29.6806 31.621 29.6712 30.7123C30.5942 30.7216 31.5201 30.3795 32.2243 29.6862C32.9285 28.9928 33.2759 28.0813 33.2666 27.1726C34.1895 27.1818 35.1154 26.8397 35.8196 26.1464C37.2096 24.7779 37.2096 22.5592 35.8196 21.1908L25.0336 10.5715C24.8846 10.4248 24.701 10.3332 24.5087 10.2966C24.3414 10.2647 24.1675 10.2744 24.0043 10.3257C23.8547 10.3727 23.714 10.4547 23.5954 10.5715L19.1911 14.9077C17.6522 16.4228 15.1572 16.4228 13.6183 14.9077C13.3701 14.6633 13.3701 14.2671 13.6183 14.0227L22.5168 5.26185C24.8996 2.9159 28.7628 2.9159 31.1456 5.26185L36.1742 10.2127L36.1791 10.2175C38.5619 12.5635 38.5619 16.367 36.1791 18.7129C35.7819 19.1039 35.7819 19.7378 36.1791 20.1288C36.5762 20.5198 37.2201 20.5198 37.6172 20.1288C40.7919 17.0032 40.7943 11.937 37.6242 8.8085L37.6172 8.8016L32.5837 3.84594C29.4067 0.718019 24.2557 0.718019 21.0786 3.84594L12.1801 12.6068C11.1377 13.6332 11.1377 15.2972 12.1801 16.3236C14.5133 18.6207 18.2961 18.6207 20.6292 16.3236L24.3145 12.6953L34.3815 22.6067C34.9772 23.1931 34.9772 24.144 34.3815 24.7305C33.7858 25.317 32.82 25.317 32.2243 24.7305L25.0336 17.651C24.6364 17.26 23.9926 17.26 23.5954 17.651C23.1983 18.042 23.1983 18.6759 23.5954 19.0669L29.3455 24.7281L29.348 24.7305L30.7861 26.1464C31.3818 26.7329 31.3818 27.6838 30.7861 28.2703C30.1913 28.8559 29.2273 28.8568 28.6315 28.2728L28.6289 28.2703L21.4382 21.1908C21.0411 20.7998 20.3972 20.7998 20.0001 21.1908C19.603 21.5817 19.603 22.2157 20.0001 22.6067L25.7502 28.2678L25.7526 28.2703L27.1908 29.6862C27.7865 30.2727 27.7865 31.2235 27.1908 31.81C26.6933 32.2998 25.9377 32.3806 25.3551 32.0523C25.3275 31.1931 24.9806 30.342 24.3145 29.6862C23.6102 28.9929 22.6844 28.6508 21.7614 28.66C21.7708 27.7513 21.4233 26.8397 20.7191 26.1464C20.0149 25.4531 19.089 25.111 18.1661 25.1203C18.1754 24.2116 17.828 23.3 17.1238 22.6067C16.4196 21.9133 15.4937 21.5713 14.5707 21.5805C14.5801 20.6718 14.2327 19.7602 13.5284 19.0669C12.1385 17.6984 9.8849 17.6984 8.49494 19.0669L5.97817 21.5448L3.82093 19.4209C1.43814 17.0749 1.43814 13.2714 3.82093 10.9255L9.57349 5.26185C11.5592 3.3069 14.7785 3.3069 16.7642 5.26185C16.7642 5.26186 16.7642 5.26184 16.7642 5.26185C17.1613 5.65284 17.8052 5.65285 18.2024 5.26186C18.5995 4.87086 18.5995 4.23694 18.2024 3.84595C18.2006 3.84421 18.1988 3.84247 18.197 3.84074C15.4167 1.10902 10.9135 1.11075 8.13535 3.84595L2.38279 9.50956ZM23.3063 32.3869L23.3093 32.3659C23.3708 31.9174 23.2265 31.4468 22.8763 31.1021C22.2806 30.5156 21.3148 30.5156 20.7191 31.1021L17.8403 33.9364C17.2471 34.5231 17.248 35.4721 17.8428 36.0577C18.4385 36.6442 19.4043 36.6442 20 36.0577L22.8763 33.2259C23.1164 32.9895 23.2598 32.6939 23.3063 32.3869ZM16.4047 32.518L19.281 29.6862L19.2835 29.6837C19.8767 29.097 19.8758 28.148 19.281 27.5623C18.6853 26.9758 17.7195 26.9758 17.1238 27.5623L14.245 30.3966C13.6518 30.9833 13.6526 31.9323 14.2475 32.518C14.8432 33.1045 15.809 33.1045 16.4047 32.518ZM15.6856 24.0226C16.2805 24.6082 16.2813 25.5573 15.6882 26.1439L15.6856 26.1464L12.8094 28.9782C12.2137 29.5647 11.2478 29.5647 10.6521 28.9782C10.0571 28.3924 10.0564 27.443 10.6501 26.8564L13.5284 24.0226C14.1241 23.4361 15.0899 23.4361 15.6856 24.0226ZM9.21195 25.4405L12.0903 22.6067C12.686 22.0202 12.686 21.0693 12.0903 20.4828C11.4946 19.8963 10.5288 19.8963 9.93308 20.4828L7.0568 23.3146C6.4611 23.9011 6.4611 24.852 7.0568 25.4385C7.65181 26.0243 8.61609 26.0249 9.21195 25.4405Z" fill="#3D75E4"/>
</svg>
