<svg width="40" height="40" viewBox="0 0 40 40" fill="none" xmlns="http://www.w3.org/2000/svg">
<path d="M11.6481 2.93456C15.5362 0.880204 20.374 2.32846 22.4536 6.16932C22.7173 6.6564 23.3308 6.84006 23.8239 6.57954C24.317 6.31902 24.5029 5.71296 24.2392 5.22589C21.6321 0.410865 15.5673 -1.40471 10.693 1.17069C10.2 1.43121 10.014 2.03726 10.2778 2.52434C10.5415 3.01142 11.155 3.19508 11.6481 2.93456Z" fill="#3D75E4"/>
<path d="M19.3421 8.43455C18.1146 6.16748 15.2591 5.31265 12.9641 6.52523C12.471 6.78576 11.8575 6.6021 11.5938 6.11502C11.3301 5.62794 11.516 5.02189 12.0091 4.76137C15.2902 3.02774 19.3727 4.24989 21.1276 7.49112C21.3914 7.97819 21.2054 8.58424 20.7124 8.84477C20.2193 9.10529 19.6058 8.92163 19.3421 8.43455Z" fill="#3D75E4"/>
<path fill-rule="evenodd" clip-rule="evenodd" d="M2.63875 16.7141C0.841772 18.0296 0.464638 20.5352 1.7964 22.3103L13.8532 38.3812C15.1849 40.1563 17.7213 40.5289 19.5183 39.2133L24.7402 35.3902L27.6929 36.6714L29.0399 38.4669C29.3729 38.9107 30.007 39.0038 30.4562 38.6749C30.9054 38.346 30.9997 37.7196 30.6668 37.2758L29.1596 35.267C29.0547 35.1272 28.9147 35.0168 28.7534 34.9468L26.614 34.0185L30.0929 31.4716C30.4219 31.2307 30.5716 30.8178 30.4722 30.4253C30.3729 30.0329 30.044 29.7382 29.6389 29.6787L25.9265 29.1335C25.3953 29.0554 24.9172 28.7722 24.5974 28.3459L23.1285 26.388C22.4521 25.4864 21.4235 24.9069 20.2936 24.7908L17.1266 24.4655C16.3516 24.386 15.7872 23.7031 15.8632 22.9371C15.934 22.2232 16.5398 21.6778 17.266 21.6742L24.4908 21.6382C24.8723 21.6363 25.2203 21.4227 25.3911 21.0856C25.5618 20.7486 25.5263 20.3453 25.2991 20.0425L18.065 10.4C16.7332 8.62485 14.1969 8.2523 12.3999 9.56788L2.63875 16.7141ZM24.0203 33.4276L26.9234 31.3022L25.6287 31.112C24.5662 30.956 23.6101 30.3894 22.9705 29.537L21.5016 27.579C21.1634 27.1282 20.6491 26.8385 20.0842 26.7804L16.9172 26.4551C15.0345 26.2618 13.6633 24.6029 13.8479 22.742C14.02 21.0076 15.4917 19.6826 17.2557 19.6739L22.4826 19.6478L16.4381 11.591C15.7722 10.7035 14.5041 10.5172 13.6056 11.175L3.84443 18.3212C2.94594 18.9789 2.75738 20.2317 3.42326 21.1193L15.48 37.1901C16.1459 38.0777 17.414 38.264 18.3125 37.6063L5.04995 19.9282C4.71701 19.4845 4.81129 18.8581 5.26054 18.5292C5.70978 18.2003 6.34387 18.2934 6.67681 18.7372L19.9393 36.4152L23.9915 33.4486C24.001 33.4414 24.0106 33.4344 24.0203 33.4276Z" fill="#3D75E4"/>
<path d="M24.9752 17.8718C25.1632 17.3516 25.7426 17.0805 26.2692 17.2662L28.103 17.9132C28.6697 18.1131 29.1635 18.4748 29.5218 18.9523L38.8009 31.3207C39.1338 31.7645 39.0396 32.3909 38.5903 32.7198C38.1411 33.0487 37.507 32.9555 37.174 32.5117L27.895 20.1434C27.7755 19.9842 27.6109 19.8636 27.422 19.797L25.5882 19.1501C25.0616 18.9643 24.7871 18.392 24.9752 17.8718Z" fill="#3D75E4"/>
</svg>
