<svg width="40" height="40" viewBox="0 0 40 40" fill="none" xmlns="http://www.w3.org/2000/svg">
<path d="M26.5 1C26.5 0.447715 26.9477 0 27.5 0H31C32.1046 0 33 0.895431 33 2V2.48538L39.1625 6.88715C39.6881 7.26257 40 7.86872 40 8.51462V22.4648C40 23.1263 39.6674 23.7912 39.027 24.1467C37.9711 24.7328 35.3143 26 32 26H23C22.4477 26 22 25.5523 22 25C22 24.4477 22.4477 24 23 24H32C34.7756 24 37.0488 22.9493 38 22.4291V8.51462L31.8375 4.11285C31.3119 3.73743 31 3.13128 31 2.48538V2H27.5C26.9477 2 26.5 1.55228 26.5 1Z" fill="#3D75E4"/>
<path d="M3 7C2.44772 7 2 7.44772 2 8V23C2 23.5523 2.44772 24 3 24H19C20.1046 24 21 24.8954 21 26V31.0844L28.4473 34.808C28.9413 35.055 29.1415 35.6557 28.8945 36.1497C28.6475 36.6437 28.0469 36.8439 27.5529 36.5969L21 33.3205V39C21 39.5523 20.5523 40 20 40C19.4477 40 19 39.5523 19 39V31.7179C18.9998 31.7071 18.9998 31.6963 19 31.6855V26H3C1.34315 26 0 24.6569 0 23V8C0 6.34315 1.34315 5 3 5H16C16.5523 5 17 5.44772 17 6C17 6.55228 16.5523 7 16 7H3Z" fill="#3D75E4"/>
<path d="M31.2884 6.6995C27.973 3.77896 22.9179 4.09903 19.9973 7.4144C17.0768 10.7298 17.3969 15.785 20.7122 18.7055C24.0276 21.626 29.0828 21.306 32.0033 17.9906C32.3684 17.5762 33.0003 17.5362 33.4147 17.9012C33.8291 18.2663 33.8691 18.8982 33.5041 19.3126C29.8534 23.4568 23.5344 23.8569 19.3902 20.2062C15.246 16.5556 14.8459 10.2366 18.4966 6.09237C22.1472 1.94817 28.4662 1.54808 32.6104 5.19875C35.8788 8.07787 36.8169 12.6146 35.2802 16.4351C35.0741 16.9475 34.4917 17.1958 33.9793 16.9897C33.4669 16.7836 33.2186 16.2012 33.4247 15.6888C34.655 12.63 33.901 9.00093 31.2884 6.6995Z" fill="#3D75E4"/>
<path d="M28.8411 10.4609C27.603 8.89201 25.3275 8.62394 23.7586 9.8621C22.1898 11.1002 21.9217 13.3758 23.1599 14.9446C24.398 16.5134 26.6735 16.7815 28.2424 15.5434C28.6759 15.2012 29.3047 15.2753 29.6469 15.7088C29.989 16.1424 29.9149 16.7712 29.4814 17.1133C27.0455 19.0358 23.5124 18.6195 21.5899 16.1836C19.6674 13.7477 20.0837 10.2146 22.5196 8.29213C24.9555 6.36968 28.4886 6.78591 30.4111 9.22181C31.4703 10.5639 31.8191 12.2405 31.5124 13.7934C31.4054 14.3352 30.8795 14.6877 30.3376 14.5807C29.7958 14.4737 29.4433 13.9478 29.5503 13.4059C29.7486 12.402 29.5231 11.3249 28.8411 10.4609Z" fill="#3D75E4"/>
<path fill-rule="evenodd" clip-rule="evenodd" d="M7 7.70245C6.04999 7.70245 5.14048 7.89286 4.43147 8.24737C3.78227 8.57197 3 9.20541 3 10.2025C3 11.1995 3.78227 11.8329 4.43147 12.1575C5.14048 12.512 6.04999 12.7025 7 12.7025C7.95001 12.7025 8.85952 12.512 9.56853 12.1575C10.2177 11.8329 11 11.1995 11 10.2025C11 9.20541 10.2177 8.57197 9.56853 8.24737C8.85952 7.89286 7.95001 7.70245 7 7.70245ZM5.32589 10.0362C5.19264 10.1028 5.11037 10.16 5.06037 10.2025C5.11037 10.2449 5.19264 10.3021 5.32589 10.3687C5.70267 10.5571 6.29316 10.7025 7 10.7025C7.70684 10.7025 8.29733 10.5571 8.67411 10.3687C8.80736 10.3021 8.88963 10.2449 8.93963 10.2025C8.88963 10.16 8.80736 10.1028 8.67411 10.0362C8.29733 9.84783 7.70684 9.70245 7 9.70245C6.29316 9.70245 5.70267 9.84783 5.32589 10.0362ZM4.988 10.1234L4.98906 10.1254C4.98816 10.1232 4.98755 10.1221 4.98748 10.1221C4.98743 10.1221 4.98759 10.1225 4.988 10.1234Z" fill="#3D75E4"/>
<path d="M17.8575 32.188C18.1417 32.6615 17.9881 33.2758 17.5145 33.56L12.5145 36.56C12.0409 36.8441 11.4267 36.6905 11.1425 36.217C10.8584 35.7434 11.0119 35.1291 11.4855 34.845L16.4855 31.845C16.9591 31.5608 17.5734 31.7144 17.8575 32.188Z" fill="#3D75E4"/>
<path d="M25.9999 14.2578C26.8589 14.2578 27.5552 13.5615 27.5552 12.7025C27.5552 11.8435 26.8589 11.1472 25.9999 11.1472C25.1409 11.1472 24.4446 11.8435 24.4446 12.7025C24.4446 13.5615 25.1409 14.2578 25.9999 14.2578Z" fill="#3D75E4"/>
</svg>
