<svg width="40" height="40" viewBox="0 0 40 40" fill="none" xmlns="http://www.w3.org/2000/svg">
<path fill-rule="evenodd" clip-rule="evenodd" d="M28.4397 13.8447C26.186 13.3013 23.0177 13.0414 19.8346 13.0415C16.6461 13.0416 13.357 13.3027 10.8526 13.8395C10.4483 13.9261 10.1391 14.2526 10.0744 14.6609C9.65954 17.2823 9.24588 20.9281 10.2977 24.5065C11.3682 28.1483 13.9269 31.6239 19.2372 33.918C19.4903 34.0273 19.7773 34.0273 20.0303 33.918C25.3406 31.6239 27.8993 28.1482 28.9698 24.5062C30.0216 20.9277 29.6079 17.2818 29.193 14.6605C29.1298 14.2613 28.8326 13.9394 28.4397 13.8447ZM12.2166 23.9424C11.3782 21.0904 11.5916 18.1189 11.9456 15.6615C14.1804 15.2519 17.0212 15.0416 19.8347 15.0415C22.6277 15.0414 25.3248 15.2486 27.3197 15.6462C27.675 18.1066 27.891 21.0843 27.0509 23.9422C26.1767 26.9166 24.1321 29.8492 19.6338 31.9057C15.1354 29.8492 13.0908 26.9167 12.2166 23.9424Z" fill="#3D75E4"/>
<path fill-rule="evenodd" clip-rule="evenodd" d="M18.9967 0.22938C19.3663 -0.0757934 19.9004 -0.0758091 20.27 0.229333L20.272 0.230918L20.2825 0.23952C20.2925 0.247639 20.3084 0.260471 20.3299 0.277701C20.373 0.312167 20.4388 0.364204 20.5258 0.431305C20.6999 0.565554 20.9584 0.759823 21.2892 0.994125C21.9516 1.46335 22.8992 2.08979 24.0349 2.71554C26.3303 3.98026 29.2878 5.18231 32.1726 5.18231C32.439 5.18231 32.6943 5.28858 32.8821 5.47757C33.0698 5.66655 33.1744 5.92263 33.1726 6.189C33.1639 7.47881 33.4272 9.13034 33.7505 11.1347L33.7626 11.2095C34.4281 15.3346 35.2933 20.6971 33.8432 25.9208C32.3598 31.2647 28.5025 36.3272 20.0235 39.9212C19.7741 40.0269 19.4924 40.0269 19.243 39.9212C10.7641 36.3272 6.90681 31.2647 5.42344 25.9208C3.97347 20.6973 4.83862 15.3349 5.50414 11.2098L5.51626 11.1347C5.83959 9.13034 6.10284 7.47881 6.09421 6.189C6.09243 5.92263 6.197 5.66655 6.38472 5.47757C6.57245 5.28858 6.82782 5.18231 7.09419 5.18231C9.979 5.18231 12.9365 3.98026 15.2319 2.71554C16.3676 2.08979 17.3152 1.46335 17.9776 0.994125C18.3084 0.759823 18.5669 0.565554 18.741 0.431305C18.828 0.364204 18.8938 0.312167 18.9369 0.277701C18.9584 0.260471 18.9743 0.247639 18.9843 0.23952L18.9948 0.230918L18.9967 0.22938ZM19.6334 2.26386C19.489 2.3711 19.3218 2.49289 19.1337 2.62617C18.4244 3.12854 17.4126 3.79755 16.197 4.46726C14.0204 5.6665 11.1037 6.91699 8.0632 7.1454C7.98076 8.41588 7.74674 9.86641 7.50231 11.3814L7.49074 11.4532C6.81367 15.6503 6.02668 20.6165 7.35057 25.3859C8.62854 29.9897 11.9191 34.5394 19.6333 37.9118C27.3475 34.5394 30.6381 29.9897 31.9161 25.3858C33.152 20.9336 32.5484 16.3098 31.9119 12.3003C28.7206 11.3681 23.8719 10.4727 19.6338 10.4727C16.7535 10.4727 13.578 10.8888 10.8352 11.4522C10.2942 11.5633 9.76558 11.2149 9.65444 10.6739C9.54331 10.1329 9.89177 9.60425 10.4328 9.49311C13.2655 8.9112 16.5792 8.47301 19.6303 8.47266H19.634L19.6372 8.47266C23.7091 8.47313 28.2615 9.25005 31.5649 10.1278C31.401 9.06902 31.263 8.0605 31.2036 7.1454C28.1631 6.91699 25.2464 5.6665 23.0697 4.46726C21.8542 3.79755 20.8423 3.12854 20.1331 2.62617C19.945 2.49289 19.7778 2.3711 19.6334 2.26386Z" fill="#3D75E4"/>
</svg>
