<svg width="40" height="40" viewBox="0 0 40 40" fill="none" xmlns="http://www.w3.org/2000/svg">
<path fill-rule="evenodd" clip-rule="evenodd" d="M28.1508 10.9045C28.1013 10.9278 28.0509 10.9468 28 10.9614V11C28 11.1109 27.9819 11.2176 27.9486 11.3173C27.982 11.4171 28 11.5238 28 11.6342C28 14.7787 27.7586 17.8268 26.6493 20.1083C26.0824 21.2743 25.2772 22.2664 24.1479 22.9592C23.021 23.6505 21.643 24 20 24C18.357 24 16.979 23.6505 15.8521 22.9592C14.7228 22.2664 13.9176 21.2743 13.3507 20.1083C12.2414 17.8268 12 14.7787 12 11.6342C12 11.5239 12.018 11.4172 12.0514 11.3173C12.0181 11.2176 12 11.1109 12 11V10.9614C11.9491 10.9468 11.8987 10.9278 11.8492 10.9045C9.74058 9.91048 8 8.33356 8 6.25711C8 4.19873 9.71135 2.63124 11.7906 1.63752C13.9433 0.608708 16.8469 0 20 0C23.1531 0 26.0567 0.608708 28.2094 1.63752C30.2886 2.63124 32 4.19873 32 6.25711C32 8.33356 30.2594 9.91048 28.1508 10.9045ZM10 6.25711C10 5.41208 10.7511 4.35101 12.653 3.44203C14.4816 2.56814 17.0779 2 20 2C22.9221 2 25.5184 2.56814 27.347 3.44203C29.2489 4.35101 30 5.41208 30 6.25711C30 7.00977 29.4035 7.93347 27.9335 8.76725C27.6919 7.64331 26.8117 6.71782 25.6017 6.51387C24.2286 6.28241 22.123 6 20 6C17.877 6 15.7714 6.28241 14.3983 6.51387C13.1883 6.71782 12.3081 7.64331 12.0665 8.76725C10.5965 7.93347 10 7.00977 10 6.25711ZM26 9.39444V10.5001C25.5599 10.4472 25.0178 10.3849 24.4226 10.3225C22.9052 10.1636 21.0014 10 19.5625 10C18.1178 10 16.4291 10.1645 15.1226 10.3245C14.7068 10.3754 14.3263 10.4263 14 10.4721V9.39444C14 8.92087 14.3201 8.55526 14.7307 8.48605C16.0513 8.26344 18.0344 8 20 8C21.9656 8 23.9487 8.26344 25.2693 8.48605C25.6799 8.55526 26 8.92087 26 9.39444ZM15.1493 19.2338C14.341 17.5713 14.0533 15.2479 14.0069 12.4914C14.3746 12.4381 14.8413 12.3739 15.3656 12.3097C16.6488 12.1526 18.2414 12 19.5625 12C20.8893 12 22.7043 12.1535 24.2142 12.3116C24.9067 12.3842 25.5265 12.4567 25.9927 12.5138C25.9451 15.2605 25.6568 17.5758 24.8507 19.2338C24.4176 20.1246 23.8478 20.7969 23.1021 21.2544C22.354 21.7134 21.357 22 20 22C18.643 22 17.646 21.7134 16.8979 21.2544C16.1522 20.7969 15.5824 20.1246 15.1493 19.2338Z" fill="#3D75E4"/>
<path d="M16.3942 25.5529C16.194 25.1526 15.7523 24.934 15.3126 25.0177L5.92946 26.805C4.89068 27.0029 4.03279 27.733 3.67142 28.7268L1.03576 35.9748C0.324287 37.9314 1.77325 40.0001 3.85514 40.0001H36.1443C38.2262 40.0001 39.6752 37.9314 38.9637 35.9748L36.3281 28.7268C35.9667 27.733 35.1088 27.0029 34.07 26.805L24.6869 25.0177C24.2472 24.934 23.8055 25.1526 23.6053 25.5529L20.6053 31.5529C20.4558 31.8519 20.4656 32.2059 20.6315 32.4962L22.6315 35.9962C22.8145 36.3164 23.1588 36.5099 23.5275 36.4997C23.8961 36.4895 24.2292 36.2771 24.3942 35.9473L27.3942 29.9473C27.6412 29.4533 27.4409 28.8526 26.947 28.6056C26.453 28.3587 25.8523 28.5589 25.6053 29.0529L23.4409 33.3816L22.6335 31.9686L25.0558 27.124L33.6958 28.7697C34.0421 28.8356 34.328 29.079 34.4485 29.4103L37.0841 36.6583C37.3213 37.3105 36.8383 38.0001 36.1443 38.0001H3.85514C3.16118 38.0001 2.67819 37.3105 2.91535 36.6583L5.551 29.4103C5.67146 29.079 5.95743 28.8356 6.30369 28.7697L14.9437 27.124L17.366 31.9686L16.5585 33.3816L14.3942 29.0529C14.1472 28.5589 13.5465 28.3587 13.0525 28.6056C12.5585 28.8526 12.3583 29.4533 12.6053 29.9473L15.6053 35.9473C15.7702 36.2771 16.1033 36.4895 16.472 36.4997C16.8406 36.5099 17.185 36.3164 17.368 35.9962L19.368 32.4962C19.5339 32.2059 19.5437 31.8519 19.3942 31.5529L16.3942 25.5529Z" fill="#3D75E4"/>
<path d="M11.4901 29.8587C11.5682 30.4054 11.1883 30.912 10.6415 30.9901L7.14155 31.4901C6.59481 31.5682 6.08828 31.1883 6.01018 30.6415C5.93207 30.0948 6.31197 29.5883 6.85871 29.5102L10.3587 29.0102C10.9054 28.9321 11.412 29.312 11.4901 29.8587Z" fill="#3D75E4"/>
<path d="M28.8759 30.9924C28.3278 30.9239 27.9391 30.4241 28.0076 29.8761C28.0761 29.3281 28.5759 28.9393 29.1239 29.0078L33.1239 29.5078C33.6719 29.5763 34.0607 30.0761 33.9922 30.6241C33.9237 31.1722 33.4239 31.5609 32.8759 31.4924L28.8759 30.9924Z" fill="#3D75E4"/>
</svg>
