<svg width="40" height="40" viewBox="0 0 40 40" fill="none" xmlns="http://www.w3.org/2000/svg">
<g clip-path="url(#clip0)">
<path d="M8.60787 40C8.04783 40 7.59779 39.5499 7.59779 38.9897V26.7467L4.09755 23.2458C3.90754 23.0558 3.79761 22.7957 3.79761 22.5256C3.79761 22.2556 3.90754 22.0055 4.09755 21.8154C4.28757 21.6254 4.54768 21.5154 4.8177 21.5154C5.08771 21.5154 5.3477 21.6254 5.53771 21.8154L7.6078 23.8859V17.4644C7.6078 16.9042 8.05784 16.4541 8.61788 16.4541C9.17791 16.4541 9.62795 16.9042 9.62795 17.4644V23.8859L11.698 21.8154C11.8881 21.6254 12.1482 21.5154 12.4182 21.5154C12.6882 21.5154 12.9482 21.6254 13.1382 21.8154C13.3282 22.0055 13.4383 22.2655 13.4383 22.5356C13.4383 22.8057 13.3382 23.0657 13.1382 23.2558L9.63797 26.7567V38.9997C9.61796 39.5399 9.1679 40 8.60787 40Z" fill="#3D75E4"/>
<path d="M30.1293 40C29.5693 40 29.1192 39.5499 29.1192 38.9897V36.209H15.9583V38.9897C15.9583 39.5499 15.5083 40 14.9482 40C14.3882 40 13.9383 39.5499 13.9383 38.9897V36.209H12.4182C11.8581 36.209 11.4081 35.7589 11.4081 35.1988C11.4081 34.6386 11.8581 34.1885 12.4182 34.1885H25.3289V31.1478C25.3289 31.1478 12.9182 31.1478 12.9082 31.1478C12.5582 31.1478 12.3081 31.0378 12.1181 30.8377C11.9281 30.6477 11.828 30.3876 11.828 30.1175C11.838 29.8475 11.9381 29.5974 12.1381 29.4074L12.7782 28.7872C15.1383 26.5066 15.8583 22.8557 14.5782 19.6949L8.61785 4.98124L2.65749 19.6949C1.37741 22.8457 2.09738 26.5066 4.45754 28.7872L5.0976 29.4074C5.49763 29.7975 5.50765 30.4376 5.11762 30.8377C4.92761 31.0378 4.66761 31.1478 4.38759 31.1478C4.11757 31.1478 3.86759 31.0477 3.67758 30.8577L3.03752 30.2375C0.0973259 27.3868 -0.812755 22.8457 0.767351 18.9247L7.66784 1.89048C7.82785 1.51038 8.19782 1.26031 8.60784 1.26031C9.02787 1.26031 9.38796 1.51038 9.54797 1.89048L16.4483 18.9247C17.7484 22.1355 17.3684 25.8965 15.4483 28.7172L15.1784 29.1173H30.3793V26.0765H21.2687C20.7087 26.0765 20.2586 25.6264 20.2586 25.0662C20.2586 24.5061 20.7087 24.056 21.2687 24.056H31.3994C31.9594 24.056 32.4095 24.5061 32.4095 25.0662V30.1275C32.4095 30.6877 31.9594 31.1378 31.3994 31.1378H27.3491V34.1785H33.9296C34.4896 34.1785 34.9397 34.6287 34.9397 35.1888C34.9397 35.7489 34.4896 36.199 33.9296 36.199H31.1494V38.9797C31.1394 39.5399 30.6893 40 30.1293 40Z" fill="#3D75E4"/>
<path d="M38.99 40C38.43 40 37.9799 39.5499 37.9799 38.9897V7.33185C37.9799 4.40111 35.5898 2.01051 32.6596 2.01051C30.1895 2.01051 28.0093 3.75094 27.4692 6.16154L27.4093 6.4116L27.6593 6.47162C30.4095 7.08177 32.3996 9.58241 32.3996 12.4031C32.3996 12.9633 31.9496 13.4133 31.3895 13.4133H21.2589C20.6988 13.4133 20.2488 12.9633 20.2488 12.4031C20.2488 9.48239 22.329 6.97176 25.1892 6.43163L25.3691 6.40162L25.3991 6.22155C25.9392 2.67067 29.0594 0 32.6596 0C36.7099 0 40.0001 3.29085 40.0001 7.34186V38.9997C40.0001 39.5399 39.5501 40 38.99 40ZM26.3291 8.34211C24.619 8.34211 23.079 9.43236 22.5089 11.0428L22.3889 11.3828H30.2695L30.1495 11.0428C29.5794 9.43236 28.0493 8.34211 26.3291 8.34211Z" fill="#3D75E4"/>
</g>
<defs>
<clipPath id="clip0">
<rect width="40" height="40" fill="white"/>
</clipPath>
</defs>
</svg>
