<svg width="40" height="40" viewBox="0 0 40 40" fill="none" xmlns="http://www.w3.org/2000/svg">
<g clip-path="url(#clip0)">
<path fill-rule="evenodd" clip-rule="evenodd" d="M36.3742 0.515865C36.1979 0.197495 35.8631 0 35.4998 0C35.1364 0 34.8017 0.197495 34.6254 0.515865C33.9011 1.82394 32.8201 2.90724 31.5147 3.63303C31.1969 3.80968 30.9998 4.14514 30.9998 4.50925C30.9998 4.87337 31.1969 5.20882 31.5147 5.38548C32.8201 6.11127 33.9011 7.19456 34.6254 8.50264C34.8017 8.82101 35.1364 9.01851 35.4998 9.01851C35.8631 9.01851 36.1979 8.82101 36.3742 8.50264C37.0985 7.19456 38.1795 6.11127 39.4849 5.38548C39.8027 5.20882 39.9998 4.87337 39.9998 4.50925C39.9998 4.14514 39.8027 3.80968 39.4849 3.63303C38.1795 2.90724 37.0985 1.82394 36.3742 0.515865ZM35.4998 6.21018C35.0042 5.57723 34.4341 5.00584 33.8024 4.50925C34.4341 4.01267 35.0042 3.44127 35.4998 2.80833C35.9953 3.44127 36.5655 4.01267 37.1972 4.50925C36.5655 5.00584 35.9953 5.57723 35.4998 6.21018Z" fill="#3D75E4"/>
<path d="M14.4999 4.00822C13.3954 4.00822 12.4999 4.9055 12.4999 6.01234V12.0247C12.4999 12.5781 12.9477 13.0267 13.4999 13.0267C14.0522 13.0267 14.4999 12.5781 14.4999 12.0247V6.01234H22.4999V25.0514C22.4999 25.6048 22.9476 26.0535 23.4999 26.0535C24.0521 26.0535 24.4999 25.6048 24.4999 25.0514V6.01234C24.4999 4.9055 23.6044 4.00822 22.4999 4.00822H14.4999Z" fill="#3D75E4"/>
<path d="M7.49997 16.0329C7.49997 14.9261 8.3954 14.0288 9.49996 14.0288H15.9999C17.1045 14.0288 17.9999 14.9261 17.9999 16.0329V25.5524C17.9999 26.1059 17.5522 26.5545 16.9999 26.5545C16.4476 26.5545 15.9999 26.1059 15.9999 25.5524V16.0329H9.49996V23.0473C9.49996 23.6007 9.05225 24.0494 8.49997 24.0494C7.94769 24.0494 7.49997 23.6007 7.49997 23.0473V16.0329Z" fill="#3D75E4"/>
<path d="M5.78879 28.2194C7.58999 27.4975 9.57578 27.378 11.4502 27.8789L15.489 28.9581C15.7412 29.0255 16.001 29.0596 16.262 29.0596H21.3332C22.2537 29.0596 22.9999 29.8074 22.9999 30.7297C22.9999 30.9142 22.8506 31.0637 22.6665 31.0637H13.9999C13.4476 31.0637 12.9999 31.5124 12.9999 32.0658C12.9999 32.6192 13.4476 33.0679 13.9999 33.0679H22.6665C23.8773 33.0679 24.8727 32.1437 24.9886 30.9609L33.8237 28.3049C34.2215 28.1853 34.6486 28.2096 35.0304 28.3736C35.3239 28.4997 35.3461 28.9081 35.068 29.0654L20.4128 37.3494C19.1412 38.0682 17.6196 38.1942 16.2475 37.6942L11.3574 35.9123C8.86361 35.0036 6.12611 35.0289 3.64947 35.9834L0.641042 37.1429C0.125573 37.3415 -0.131578 37.9213 0.0666793 38.4379C0.264937 38.9544 0.843526 39.2121 1.359 39.0134L4.36743 37.8539C6.39377 37.073 8.63353 37.0523 10.6739 37.7958L15.564 39.5777C17.4849 40.2776 19.6152 40.1013 21.3954 39.095L36.0506 30.8109C37.7713 29.8383 37.634 27.3113 35.8182 26.5315C35.0054 26.1825 34.096 26.1307 33.249 26.3854L24.5665 28.9955C23.9484 27.8408 22.7323 27.0555 21.3332 27.0555H16.262C16.175 27.0555 16.0884 27.0441 16.0043 27.0217L11.9656 25.9425C9.67456 25.3303 7.24748 25.4762 5.04601 26.3586L0.62863 28.1292C0.11585 28.3348 -0.133564 28.9179 0.0715482 29.4318C0.27666 29.9456 0.858627 30.1956 1.37141 29.99L5.78879 28.2194Z" fill="#3D75E4"/>
<path d="M26.9998 11.0226C27.5521 11.0226 27.9998 11.4713 27.9998 12.0247V14.0288H31.9998C33.1044 14.0288 33.9998 14.9261 33.9998 16.0329V24.0494C33.9998 24.6028 33.5521 25.0514 32.9998 25.0514C32.4475 25.0514 31.9998 24.6028 31.9998 24.0494V16.0329H27.9998C26.8953 16.0329 25.9998 15.1356 25.9998 14.0288V12.0247C25.9998 11.4713 26.4476 11.0226 26.9998 11.0226Z" fill="#3D75E4"/>
<path d="M26.9998 7.51542C26.4476 7.51542 25.9998 7.96406 25.9998 8.51748C25.9998 9.0709 26.4476 9.51953 26.9998 9.51953H28.9998V12.0247C28.9998 12.5781 29.4475 13.0267 29.9998 13.0267C30.5521 13.0267 30.9998 12.5781 30.9998 12.0247V9.51953C30.9998 8.41269 30.1044 7.51542 28.9998 7.51542H26.9998Z" fill="#3D75E4"/>
<path d="M25.9998 18.538C25.9998 17.9846 26.4476 17.536 26.9998 17.536H29.9998C30.5521 17.536 30.9998 17.9846 30.9998 18.538C30.9998 19.0915 30.5521 19.5401 29.9998 19.5401H26.9998C26.4476 19.5401 25.9998 19.0915 25.9998 18.538Z" fill="#3D75E4"/>
<path d="M11.4999 17.536C10.9477 17.536 10.5 17.9846 10.5 18.538C10.5 19.0915 10.9477 19.5401 11.4999 19.5401H13.9999C14.5522 19.5401 14.9999 19.0915 14.9999 18.538C14.9999 17.9846 14.5522 17.536 13.9999 17.536H11.4999Z" fill="#3D75E4"/>
<path d="M11.4999 20.5422C10.9477 20.5422 10.5 20.9908 10.5 21.5442C10.5 22.0976 10.9477 22.5463 11.4999 22.5463H13.9999C14.5522 22.5463 14.9999 22.0976 14.9999 21.5442C14.9999 20.9908 14.5522 20.5422 13.9999 20.5422H11.4999Z" fill="#3D75E4"/>
<path d="M25.9998 22.0452C25.9998 21.4918 26.4476 21.0432 26.9998 21.0432H29.9998C30.5521 21.0432 30.9998 21.4918 30.9998 22.0452C30.9998 22.5987 30.5521 23.0473 29.9998 23.0473H26.9998C26.4476 23.0473 25.9998 22.5987 25.9998 22.0452Z" fill="#3D75E4"/>
<path d="M25.9998 25.0514C25.9998 24.498 26.4476 24.0494 26.9998 24.0494H29.9998C30.5521 24.0494 30.9998 24.498 30.9998 25.0514C30.9998 25.6048 30.5521 26.0535 29.9998 26.0535H26.9998C26.4476 26.0535 25.9998 25.6048 25.9998 25.0514Z" fill="#3D75E4"/>
<path d="M17.9999 9.51953C17.9999 8.96611 17.5522 8.51748 16.9999 8.51748C16.4476 8.51748 15.9999 8.96611 15.9999 9.51953V11.0226C15.9999 11.576 16.4476 12.0247 16.9999 12.0247C17.5522 12.0247 17.9999 11.576 17.9999 11.0226V9.51953Z" fill="#3D75E4"/>
<path d="M20.9999 9.51953C20.9999 8.96611 20.5522 8.51748 19.9999 8.51748C19.4476 8.51748 18.9999 8.96611 18.9999 9.51953V11.0226C18.9999 11.576 19.4476 12.0247 19.9999 12.0247C20.5522 12.0247 20.9999 11.576 20.9999 11.0226V9.51953Z" fill="#3D75E4"/>
<path d="M20.9999 14.0288C20.9999 13.4754 20.5522 13.0267 19.9999 13.0267C19.4476 13.0267 18.9999 13.4754 18.9999 14.0288V15.5319C18.9999 16.0853 19.4476 16.5339 19.9999 16.5339C20.5522 16.5339 20.9999 16.0853 20.9999 15.5319V14.0288Z" fill="#3D75E4"/>
<path d="M20.9999 18.538C20.9999 17.9846 20.5522 17.536 19.9999 17.536C19.4476 17.536 18.9999 17.9846 18.9999 18.538V20.0411C18.9999 20.5945 19.4476 21.0432 19.9999 21.0432C20.5522 21.0432 20.9999 20.5945 20.9999 20.0411V18.538Z" fill="#3D75E4"/>
<path d="M20.9999 23.0473C20.9999 22.4939 20.5522 22.0452 19.9999 22.0452C19.4476 22.0452 18.9999 22.4939 18.9999 23.0473V24.5504C18.9999 25.1038 19.4476 25.5524 19.9999 25.5524C20.5522 25.5524 20.9999 25.1038 20.9999 24.5504V23.0473Z" fill="#3D75E4"/>
<path fill-rule="evenodd" clip-rule="evenodd" d="M5.49999 5.01028C5.86334 5.01028 6.19809 5.20778 6.37439 5.52615C7.09872 6.83422 8.17969 7.91752 9.48512 8.64331C9.80285 8.81996 9.99996 9.15542 9.99996 9.51953C9.99996 9.88365 9.80285 10.2191 9.48512 10.3958C8.17969 11.1215 7.09872 12.2048 6.37439 13.5129C6.19809 13.8313 5.86334 14.0288 5.49999 14.0288C5.13664 14.0288 4.80188 13.8313 4.62559 13.5129C3.90125 12.2048 2.82029 11.1215 1.51486 10.3958C1.19712 10.2191 1.00002 9.88365 1.00002 9.51953C1.00002 9.15542 1.19712 8.81996 1.51486 8.64331C2.82029 7.91752 3.90125 6.83422 4.62559 5.52615C4.80188 5.20778 5.13664 5.01028 5.49999 5.01028ZM3.80259 9.51954C4.43426 10.0161 5.00445 10.5875 5.49999 11.2205C5.99553 10.5875 6.56572 10.0161 7.19738 9.51954C6.56572 9.02295 5.99553 8.45155 5.49999 7.81861C5.00445 8.45155 4.43426 9.02295 3.80259 9.51954Z" fill="#3D75E4"/>
</g>
<defs>
<clipPath id="clip0">
<rect width="40" height="40" fill="white"/>
</clipPath>
</defs>
</svg>
