<svg width="40" height="40" viewBox="0 0 40 40" fill="none" xmlns="http://www.w3.org/2000/svg">
<g clip-path="url(#clip0)">
<path d="M39.5614 1.82745C40.0185 1.51734 40.1375 0.895478 39.8274 0.438475C39.5173 -0.0185269 38.8954 -0.137608 38.4384 0.172501L25.1149 9.21347C24.8981 9.36057 24.6323 9.41673 24.3745 9.36987L20.368 8.64142C19.6988 8.51973 19.008 8.62911 18.4091 8.95161L12.9698 11.8804C12.8241 11.9589 12.6612 12 12.4957 12H7.00993C6.50798 12 6.01404 12.1259 5.57338 12.3663L0.521093 15.1221C0.0362445 15.3865 -0.142413 15.994 0.122049 16.4788C0.386512 16.9637 0.993949 17.1423 1.4788 16.8779L6.53108 14.1221C6.67797 14.042 6.84261 14 7.00993 14H12.4957C12.9922 14 13.4809 13.8768 13.918 13.6414L19.3573 10.7126C19.5569 10.6051 19.7872 10.5686 20.0103 10.6092L24.0167 11.3376C24.79 11.4782 25.5876 11.3097 26.2379 10.8684L39.5614 1.82745Z" fill="#3D75E4"/>
<path fill-rule="evenodd" clip-rule="evenodd" d="M38.4718 7.6183C38.797 7.79232 38.9999 8.13118 38.9999 8.49998V38C39.5522 38 39.9999 38.4477 39.9999 39C39.9999 39.5523 39.5522 40 38.9999 40H14.0027L13.9999 40L13.9972 40H0.999945C0.44766 40 -5.49882e-05 39.5523 -5.49882e-05 39C-5.49882e-05 38.4477 0.44766 38 0.999945 38L0.999945 30C0.999945 28.8954 1.89538 28 2.99995 28H6.99995C8.10451 28 8.99995 28.8954 8.99995 30V38H12.9999V19H6.99995L6.99994 22H8.99994C9.55223 22 9.99994 22.4477 9.99994 23C9.99994 23.5523 9.55223 24 8.99994 24H6.99994V25H10.9999C11.5522 25 11.9999 25.4477 11.9999 26C11.9999 26.5523 11.5522 27 10.9999 27H5.99995C5.44766 27 4.99995 26.5523 4.99995 26V19C4.99995 17.8954 5.89538 17 6.99995 17H12.9999C14.1045 17 14.9999 17.8954 14.9999 19V38H16.9999V35C16.9999 33.8954 17.8954 33 18.9999 33H31.9999C33.1045 33 33.9999 33.8954 33.9999 35V38H36.9999V31H34.9999C34.4477 31 33.9999 30.5523 33.9999 30C33.9999 29.4477 34.4477 29 34.9999 29H36.9999V28H34.9999C34.4477 28 33.9999 27.5523 33.9999 27C33.9999 26.4477 34.4477 26 34.9999 26H36.9999V25H34.9999C34.4477 25 33.9999 24.5523 33.9999 24C33.9999 23.4477 34.4477 23 34.9999 23H36.9999V10.3685L30.4452 14.7383C30.167 14.9238 29.9999 15.236 29.9999 15.5703V17H31.9999C32.5522 17 32.9999 17.4477 32.9999 18C32.9999 18.5523 32.5522 19 31.9999 19H29.9999V20H31.9999C32.5522 20 32.9999 20.4477 32.9999 21C32.9999 21.5523 32.5522 22 31.9999 22H29.9999V23H31.9999C32.5522 23 32.9999 23.4477 32.9999 24C32.9999 24.5523 32.5522 25 31.9999 25H29.9999V31C29.9999 31.5523 29.5522 32 28.9999 32C28.4477 32 27.9999 31.5523 27.9999 31V15.5703C27.9999 14.5673 28.5012 13.6306 29.3358 13.0742L37.4452 7.66793C37.7521 7.46336 38.1466 7.44428 38.4718 7.6183ZM5.99994 34H6.99995V33H5.99994C5.44766 33 4.99994 32.5523 4.99994 32C4.99994 31.4477 5.44766 31 5.99994 31H6.99995V30H2.99995V38H6.99995V36H5.99994C5.44766 36 4.99994 35.5523 4.99994 35C4.99994 34.4477 5.44766 34 5.99994 34ZM31.9999 35V38H18.9999V35H31.9999Z" fill="#3D75E4"/>
<path d="M23.9999 15C25.1045 15 25.9999 15.8954 25.9999 17V24C25.9999 25.1045 25.1045 26 23.9999 26H18.9999V27H20.9999C21.5522 27 21.9999 27.4477 21.9999 28C21.9999 28.5523 21.5522 29 20.9999 29H18.9999V30H20.9999C21.5522 30 21.9999 30.4477 21.9999 31C21.9999 31.5523 21.5522 32 20.9999 32H17.9999C17.4477 32 16.9999 31.5523 16.9999 31V26C16.9999 24.8954 17.8954 24 18.9999 24H23.9999V17H20.9999V22C20.9999 22.5523 20.5522 23 19.9999 23C19.4477 23 18.9999 22.5523 18.9999 22V17C18.9999 15.8954 19.8954 15 20.9999 15H23.9999Z" fill="#3D75E4"/>
</g>
<defs>
<clipPath id="clip0">
<rect width="40" height="40" fill="white"/>
</clipPath>
</defs>
</svg>
