<svg width="40" height="40" viewBox="0 0 40 40" fill="none" xmlns="http://www.w3.org/2000/svg">
<path d="M17.7071 0.87868C18.2697 0.316071 19.0328 0 19.8284 0H20.1716C20.9672 0 21.7303 0.31607 22.2929 0.878679L22.7071 1.29289C23.0976 1.68342 23.0976 2.31658 22.7071 2.70711C22.3166 3.09763 21.6834 3.09763 21.2929 2.70711L20.8787 2.29289C20.6911 2.10536 20.4368 2 20.1716 2H19.8284C19.5632 2 19.3089 2.10536 19.1213 2.29289L18.7071 2.70711C18.3166 3.09763 17.6834 3.09763 17.2929 2.70711C16.9024 2.31658 16.9024 1.68342 17.2929 1.29289L17.7071 0.87868Z" fill="#3D75E4"/>
<path fill-rule="evenodd" clip-rule="evenodd" d="M23 10H26.106C26.3711 10 26.683 10.131 27.168 10.4244C27.7722 10.7899 28.4811 11 29.2361 11C31.4452 11 33.2361 9.20914 33.2361 7C33.2361 4.79086 31.4452 3 29.2361 3C28.4811 3 27.7722 3.21012 27.168 3.57562C26.683 3.86897 26.3711 4 26.106 4H12.8941C12.6289 4 12.317 3.86897 11.832 3.57562C11.2278 3.21012 10.5189 3 9.76392 3C7.55478 3 5.76392 4.79086 5.76392 7C5.76392 9.20914 7.55478 11 9.76392 11C10.5189 11 11.2278 10.7899 11.832 10.4244C12.317 10.131 12.6289 10 12.8941 10H17V15C15.3431 15 14 16.3431 14 18V19.7908C13.451 20.1485 12.9345 20.5549 12.4564 21H6C6 19.3431 4.65685 18 3 18H2C0.895431 18 0 18.8954 0 20V37C0 38.1046 0.895431 39 2 39H3C4.65685 39 6 37.6569 6 36V28.5C6 27.9477 5.55228 27.5 5 27.5C4.44772 27.5 4 27.9477 4 28.5V36C4 36.5523 3.55228 37 3 37H2V20H3C3.55228 20 4 20.4477 4 21V23.75C4 24.3023 4.44772 24.75 5 24.75C5.55228 24.75 6 24.3023 6 23.75V23H12.86C13.1252 23 13.3796 22.8946 13.5671 22.7071C14.1487 22.1256 14.7996 21.6201 15.4997 21.2162C15.8093 21.0376 16 20.7074 16 20.35V18C16 17.4477 16.4477 17 17 17H23C23.5523 17 24 17.4477 24 18V20.35C24 20.7059 24.1892 21.0351 24.4968 21.2142C25.2155 21.6327 25.8639 22.1291 26.4273 22.7015C26.6153 22.8925 26.8721 23 27.14 23H32C32.5523 23 33 22.5523 33 22C33 21.4477 32.5523 21 32 21H27.5467C27.0686 20.5521 26.5506 20.1494 26 19.7916V18C26 16.3431 24.6569 15 23 15V10ZM26.106 8C26.9786 8 27.7146 8.41757 28.2031 8.71312C28.5039 8.89505 28.8562 9 29.2361 9C30.3407 9 31.2361 8.10457 31.2361 7C31.2361 5.89543 30.3407 5 29.2361 5C28.8562 5 28.5039 5.10495 28.2031 5.28688C27.7146 5.58243 26.9786 6 26.106 6H12.8941C12.0214 6 11.2855 5.58243 10.7969 5.28688C10.4961 5.10495 10.1438 5 9.76392 5C8.65935 5 7.76392 5.89543 7.76392 7C7.76392 8.10457 8.65935 9 9.76392 9C10.1438 9 10.4961 8.89505 10.7969 8.71312C11.2855 8.41757 12.0214 8 12.8941 8H26.106ZM21 10H19V15H21V10Z" fill="#3D75E4"/>
<path d="M40 37C40 38.1046 39.1046 39 38 39H37C35.3431 39 34 37.6569 34 36H28.4732C26.4562 38.4306 23.4187 40 20 40C16.5835 40 13.5362 38.4323 11.5254 36H8C7.44772 36 7 35.5523 7 35C7 34.4477 7.44772 34 8 34H12.01C12.3243 34 12.6203 34.1478 12.8092 34.3989C14.4498 36.5804 17.0598 38 20 38C22.9387 38 25.5403 36.5816 27.1924 34.3968C27.3814 34.1469 27.6766 34 27.99 34H34V33.25C34 32.6977 34.4477 32.25 35 32.25C35.5523 32.25 36 32.6977 36 33.25V36C36 36.5523 36.4477 37 37 37H38V20H37C36.4477 20 36 20.4477 36 21V28.5C36 29.0523 35.5523 29.5 35 29.5C34.4477 29.5 34 29.0523 34 28.5V21C34 19.3431 35.3431 18 37 18H38C39.1046 18 40 18.8954 40 20V37Z" fill="#3D75E4"/>
<path d="M14 28C14.5523 28 15 28.4477 15 29C15 31.7614 17.2386 34 20 34C20.5523 34 21 34.4477 21 35C21 35.5523 20.5523 36 20 36C16.134 36 13 32.866 13 29C13 28.4477 13.4477 28 14 28Z" fill="#3D75E4"/>
</svg>
