<svg width="40" height="40" viewBox="0 0 40 40" fill="none" xmlns="http://www.w3.org/2000/svg">
<path d="M20 2C18.8954 2 18 2.89543 18 4C18 4.55228 17.5523 5 17 5C16.4477 5 16 4.55228 16 4C16 1.79086 17.7909 0 20 0C22.2091 0 24 1.79086 24 4V6H29C29.5523 6 30 6.44771 30 7C30 7.55228 29.5523 8 29 8L11 8C10.4477 8 10 7.55228 10 7C10 6.44772 10.4477 6 11 6L22 6V4C22 2.89543 21.1046 2 20 2Z" fill="#3D75E4"/>
<path d="M9 5C8.44772 5 8 5.44772 8 6V37C8 37.5523 8.44772 38 9 38H11.5C12.0523 38 12.5 38.4477 12.5 39C12.5 39.5523 12.0523 40 11.5 40H9C7.34315 40 6 38.6569 6 37V6C6 4.34315 7.34315 3 9 3H13.5C14.0523 3 14.5 3.44772 14.5 4C14.5 4.55228 14.0523 5 13.5 5H9Z" fill="#3D75E4"/>
<path d="M25.5 4C25.5 3.44772 25.9477 3 26.5 3H31C32.6569 3 34 4.34315 34 6V37C34 38.6569 32.6569 40 31 40H18C15.7318 40 14.094 39.1282 13.2509 37.6106C12.7177 36.651 12.5603 35.5337 12.6745 34.407C11.6759 34.5586 10.658 34.4992 9.728 34.2363C9.19654 34.0861 8.88749 33.5335 9.03772 33.002C9.18794 32.4706 9.74056 32.1615 10.272 32.3117C11.3078 32.6045 12.5358 32.5396 13.6061 32.0809C13.968 31.9257 14.3873 31.9975 14.6771 32.2641C14.9669 32.5308 15.0732 32.9426 14.9487 33.3162C14.5023 34.6554 14.5561 35.8418 14.9992 36.6394C15.4061 37.3718 16.2682 38 18 38H31C31.5523 38 32 37.5523 32 37V6C32 5.44772 31.5523 5 31 5H26.5C25.9477 5 25.5 4.55228 25.5 4Z" fill="#3D75E4"/>
<path d="M10 14C10 13.4477 10.4477 13 11 13H20C20.5523 13 21 13.4477 21 14C21 14.5523 20.5523 15 20 15H11C10.4477 15 10 14.5523 10 14Z" fill="#3D75E4"/>
<path d="M11 22C10.4477 22 10 22.4477 10 23C10 23.5523 10.4477 24 11 24H20C20.5523 24 21 23.5523 21 23C21 22.4477 20.5523 22 20 22H11Z" fill="#3D75E4"/>
<path d="M10 17C10 16.4477 10.4477 16 11 16H18C18.5523 16 19 16.4477 19 17C19 17.5523 18.5523 18 18 18H11C10.4477 18 10 17.5523 10 17Z" fill="#3D75E4"/>
<path d="M11 25C10.4477 25 10 25.4477 10 26C10 26.5523 10.4477 27 11 27H18C18.5523 27 19 26.5523 19 26C19 25.4477 18.5523 25 18 25H11Z" fill="#3D75E4"/>
<path d="M20 5C20.5523 5 21 4.55228 21 4C21 3.44772 20.5523 3 20 3C19.4477 3 19 3.44772 19 4C19 4.55228 19.4477 5 20 5Z" fill="#3D75E4"/>
<path d="M29.6001 12.2C30.0419 12.5314 30.1314 13.1582 29.8001 13.6L26.8001 17.6C26.6112 17.8518 26.3148 18 26.0001 18C25.6853 18 25.3889 17.8518 25.2001 17.6L23.7001 15.6C23.3687 15.1582 23.4582 14.5314 23.9001 14.2C24.3419 13.8686 24.9687 13.9582 25.3001 14.4L26.0001 15.3333L28.2001 12.4C28.5314 11.9582 29.1582 11.8686 29.6001 12.2Z" fill="#3D75E4"/>
<path d="M25.7071 21.2929C25.3166 20.9024 24.6834 20.9024 24.2929 21.2929C23.9024 21.6834 23.9024 22.3166 24.2929 22.7071L25.5858 24L24.2929 25.2929C23.9024 25.6834 23.9024 26.3166 24.2929 26.7071C24.6834 27.0976 25.3166 27.0976 25.7071 26.7071L27 25.4142L28.2929 26.7071C28.6834 27.0976 29.3166 27.0976 29.7071 26.7071C30.0976 26.3166 30.0976 25.6834 29.7071 25.2929L28.4142 24L29.7071 22.7071C30.0976 22.3166 30.0976 21.6834 29.7071 21.2929C29.3166 20.9024 28.6834 20.9024 28.2929 21.2929L27 22.5858L25.7071 21.2929Z" fill="#3D75E4"/>
</svg>
