<svg width="40" height="40" viewBox="0 0 40 40" fill="none" xmlns="http://www.w3.org/2000/svg">
<g clip-path="url(#clip0)">
<path d="M12 10C12 5.58172 15.5817 2 20 2C24.4183 2 28 5.58172 28 10C28 10.6155 27.9307 11.2137 27.7998 11.7874C27.677 12.3259 28.0139 12.8619 28.5524 12.9848C29.0908 13.1076 29.6269 12.7706 29.7497 12.2322C29.9136 11.5135 30 10.7662 30 10C30 4.47715 25.5228 0 20 0C14.4772 0 10 4.47715 10 10C10 11.0776 10.1708 12.1174 10.4876 13.0924C10.9055 14.3788 12.3796 14.6957 13.358 14.0662L17.3428 11.5028L19.2879 13.2388C19.952 13.8314 20.9277 13.914 21.6819 13.4413L25.0112 11.3543C25.4792 11.061 25.6208 10.4439 25.3274 9.97592C25.0341 9.50797 24.417 9.3664 23.949 9.65972L20.6197 11.7466L18.6746 10.0106C18.004 9.4122 17.0166 9.33453 16.2608 9.82077L12.3469 12.3385C12.1216 11.6 12 10.8151 12 10Z" fill="#3D75E4"/>
<path d="M28.8857 14.6766C27.9453 14.0604 26.7775 14.3653 26.144 15.1239C24.675 16.8833 22.4683 18 20 18C17.7101 18 15.6462 17.0392 14.1866 15.4959C13.8072 15.0947 13.1742 15.077 12.773 15.4565C12.3717 15.836 12.3541 16.4689 12.7336 16.8702C14.5552 18.7962 17.1378 20 20 20C23.0862 20 25.8464 18.6008 27.6792 16.4058C27.7065 16.3731 27.7417 16.3554 27.7688 16.3503C27.7811 16.348 27.7878 16.349 27.7892 16.3492C27.7896 16.3493 27.7885 16.3488 27.7892 16.3492L38.4517 23.3361C38.9137 23.6388 39.5335 23.5098 39.8362 23.0478C40.1389 22.5859 40.0098 21.966 39.5479 21.6633L28.8857 14.6766Z" fill="#3D75E4"/>
<path d="M12.8653 20.501C13.1421 20.0231 12.9789 19.4113 12.501 19.1346C12.023 18.8579 11.4112 19.021 11.1345 19.499L0.134495 38.499C-0.142219 38.9769 0.0209237 39.5887 0.498885 39.8654C0.976847 40.1422 1.58863 39.979 1.86535 39.501L12.8653 20.501Z" fill="#3D75E4"/>
<path d="M27.1344 20.501C26.8577 20.0231 27.0208 19.4113 27.4988 19.1346C27.9768 18.8579 28.5885 19.021 28.8653 19.499L39.8653 38.499C40.142 38.9769 39.9788 39.5887 39.5009 39.8654C39.0229 40.1422 38.4111 39.979 38.1344 39.501L27.1344 20.501Z" fill="#3D75E4"/>
<path d="M20 21C20.5523 21 21 21.4477 21 22V25C21 25.5523 20.5523 26 20 26C19.4477 26 19 25.5523 19 25V22C19 21.4477 19.4477 21 20 21Z" fill="#3D75E4"/>
<path d="M21 29C21 28.4477 20.5523 28 20 28C19.4477 28 19 28.4477 19 29V32C19 32.5523 19.4477 33 20 33C20.5523 33 21 32.5523 21 32V29Z" fill="#3D75E4"/>
<path d="M20 35C20.5523 35 21 35.4477 21 36V39C21 39.5523 20.5523 40 20 40C19.4477 40 19 39.5523 19 39V36C19 35.4477 19.4477 35 20 35Z" fill="#3D75E4"/>
</g>
<defs>
<clipPath id="clip0">
<rect width="40" height="40" fill="white"/>
</clipPath>
</defs>
</svg>
