<svg width="40" height="40" viewBox="0 0 40 40" fill="none" xmlns="http://www.w3.org/2000/svg">
<path d="M21.0065 1.00134C21.0065 0.448325 20.5587 0 20.0063 0C19.454 0 19.0062 0.448325 19.0062 1.00134V2.6303C19.0062 3.18332 19.454 3.63165 20.0063 3.63165C20.5587 3.63165 21.0065 3.18332 21.0065 2.6303V1.00134Z" fill="#3D75E4"/>
<path d="M18.0407 2.91468C18.3553 2.6648 18.5007 2.23799 18.3738 1.83126C18.2091 1.30339 17.6482 1.00917 17.1209 1.17409C16.5799 1.3433 16.204 1.74077 16.0655 2.25944C15.9493 2.69457 16.0237 3.12538 16.1095 3.43677C16.2858 4.07548 16.6663 4.74239 16.9486 5.1902C17.4442 5.97616 18.3011 6.36829 19.1439 6.36829H20.7174C21.6381 6.36829 22.5811 5.94081 23.1151 5.0708C23.3915 4.62064 23.748 3.97259 23.9022 3.35228C23.9779 3.04758 24.0374 2.62667 23.9078 2.20288C23.7555 1.70407 23.3818 1.33459 22.8686 1.17409C22.3414 1.00917 21.7804 1.30339 21.6157 1.83126C21.4888 2.23802 21.6342 2.66483 21.9488 2.91471C21.8638 3.2159 21.6558 3.6233 21.411 4.02225C21.2913 4.21712 21.0452 4.3656 20.7174 4.3656H19.1439C18.9 4.3656 18.7248 4.25541 18.6402 4.12126C18.3785 3.70624 18.1364 3.25254 18.0407 2.91468Z" fill="#3D75E4"/>
<path d="M3.65233 5.73023C3.43098 5.52289 3.12771 5.42724 2.82762 5.47017C2.52752 5.51311 2.26308 5.68998 2.10851 5.95111C-0.431195 10.2436 -0.598336 15.2678 1.18661 19.3291C2.9806 23.411 6.74913 26.5134 11.9848 26.8876C12.5997 26.9315 13.0896 26.6708 13.4276 26.3828C13.7557 26.1032 13.9954 25.7549 14.1613 25.4723C14.2852 25.2614 14.5825 25.0799 15.0173 25.0799C15.1353 25.0799 15.3788 25.1609 15.6255 25.4469C15.8612 25.7199 16.0124 26.0869 16.0124 26.4566C16.0124 26.8689 15.9613 27.1569 15.8541 27.4364C15.8115 27.5472 15.7575 27.6637 15.6876 27.792C15.5097 27.7252 15.3296 27.6756 15.154 27.64C14.592 27.5263 13.9866 27.5371 13.426 27.6547C12.4153 27.8667 11.0018 28.6007 11.0018 30.1675C11.0018 31.0139 11.4871 31.6941 12.0024 32.121C12.5223 32.5518 13.2266 32.8594 13.944 32.8594C14.4964 32.8594 14.9441 32.4111 14.9441 31.8581C14.9441 31.305 14.4964 30.8567 13.944 30.8567C13.7736 30.8567 13.507 30.7681 13.2778 30.5782C13.0438 30.3844 13.0021 30.2193 13.0021 30.1675C13.0021 30.0875 13.0962 29.77 13.8361 29.6148C14.1507 29.5488 14.4812 29.5471 14.7578 29.603C15.0446 29.6611 15.1893 29.762 15.2423 29.8214C15.4429 30.0468 15.7344 30.1694 16.0356 30.1552C16.3368 30.141 16.6156 29.9916 16.7942 29.7484C17.1985 29.1984 17.5143 28.694 17.7212 28.1549C17.9345 27.5991 18.0127 27.0586 18.0127 26.4566C18.0127 25.5584 17.6561 24.7364 17.139 24.1374C16.633 23.5512 15.8787 23.0772 15.0173 23.0772C14.0865 23.0772 13.0164 23.4706 12.437 24.4572C12.323 24.6513 12.2167 24.7847 12.131 24.8578C12.1141 24.8722 12.1014 24.8815 12.0925 24.8874C7.66786 24.5589 4.53077 21.9657 3.01759 18.5226C1.64091 15.3902 1.61075 11.5493 3.23943 8.08602L9.37638 13.8346C9.72153 14.1579 9.89807 14.6608 10.0237 15.4505C10.1123 16.0079 10.3203 16.6433 10.7463 17.3243C11.7133 18.8703 13.3157 19.3689 14.6817 19.1081C15.99 18.8582 17.298 17.8273 17.298 16.2039C17.298 15.5721 17.2045 14.4166 16.8914 13.2372C16.5876 12.093 16.0249 10.7225 14.9457 9.89289C14.5077 9.55607 13.8798 9.63861 13.5434 10.0773C13.2069 10.5159 13.2895 11.1445 13.7275 11.4813C14.2685 11.8972 14.6863 12.7275 14.9582 13.7516C15.2207 14.7406 15.2977 15.7208 15.2977 16.2039C15.2977 16.5789 14.9851 17.0113 14.3068 17.1408C13.6865 17.2593 12.9369 17.0532 12.4416 16.2614C12.1627 15.8155 12.0468 15.4359 11.9991 15.1356C11.8636 14.2833 11.6106 13.1849 10.743 12.3722L3.65233 5.73023Z" fill="#3D75E4"/>
<path d="M36.3477 5.73023C36.569 5.52289 36.8723 5.42724 37.1724 5.47017C37.4725 5.51311 37.7369 5.68998 37.8915 5.95111C40.4312 10.2436 40.5983 15.2678 38.8134 19.3291C37.0194 23.411 33.2509 26.5134 28.0152 26.8876C27.4003 26.9315 26.9104 26.6708 26.5724 26.3828C26.2443 26.1032 26.0046 25.7549 25.8387 25.4723C25.7148 25.2614 25.4175 25.0799 24.9827 25.0799C24.8647 25.0799 24.6212 25.1609 24.3745 25.4469C24.1388 25.7199 23.9876 26.0869 23.9876 26.4566C23.9876 26.8689 24.0387 27.1569 24.1459 27.4364C24.1885 27.5472 24.2425 27.6637 24.3124 27.792C24.3805 27.7664 24.4489 27.7434 24.5173 27.7227C24.5509 27.7125 24.5845 27.7029 24.6179 27.6938C24.6945 27.6731 24.7706 27.6553 24.846 27.64C25.408 27.5263 26.0134 27.5371 26.574 27.6547C27.5847 27.8667 28.9982 28.6007 28.9982 30.1675C28.9982 31.0139 28.5129 31.6941 27.9976 32.121C27.4777 32.5518 26.7734 32.8594 26.056 32.8594C25.5036 32.8594 25.0558 32.4111 25.0558 31.8581C25.0558 31.305 25.5036 30.8567 26.056 30.8567C26.2264 30.8567 26.493 30.7681 26.7222 30.5782C26.9562 30.3844 26.9979 30.2193 26.9979 30.1675C26.9979 30.0875 26.9038 29.77 26.1639 29.6148C25.8493 29.5488 25.5188 29.5471 25.2422 29.603C24.9554 29.6611 24.8107 29.762 24.7577 29.8214C24.5571 30.0468 24.2656 30.1694 23.9644 30.1552C23.6632 30.141 23.3844 29.9916 23.2058 29.7484C22.8015 29.1984 22.4857 28.694 22.2788 28.1549C22.0655 27.5991 21.9873 27.0586 21.9873 26.4566C21.9873 25.5584 22.3439 24.7364 22.861 24.1374C23.367 23.5512 24.1213 23.0772 24.9827 23.0772C25.9135 23.0772 26.9836 23.4706 27.563 24.4572C27.677 24.6513 27.7833 24.7847 27.869 24.8578C27.8776 24.865 27.885 24.871 27.8915 24.8759L27.9005 24.8826L27.9075 24.8874C32.3321 24.5589 35.4692 21.9657 36.9824 18.5226C38.3591 15.3902 38.3892 11.5493 36.7606 8.08602L30.6236 13.8346C30.2785 14.1579 30.1019 14.6608 29.9763 15.4505C29.8877 16.0079 29.6797 16.6433 29.2537 17.3243C28.2867 18.8703 26.6843 19.3689 25.3183 19.1081C24.01 18.8582 22.702 17.8273 22.702 16.2039C22.702 15.5721 22.7955 14.4166 23.1086 13.2372C23.4124 12.093 23.9751 10.7225 25.0543 9.89289C25.4923 9.55607 26.1202 9.63861 26.4566 10.0773C26.7931 10.5159 26.7105 11.1445 26.2725 11.4813C25.7315 11.8972 25.3137 12.7275 25.0418 13.7516C24.7793 14.7406 24.7023 15.7208 24.7023 16.2039C24.7023 16.5789 25.0149 17.0113 25.6932 17.1408C26.3135 17.2593 27.0631 17.0532 27.5584 16.2614C27.8373 15.8155 27.9532 15.4359 28.0009 15.1356C28.1364 14.2833 28.3894 13.1849 29.257 12.3722L36.3477 5.73023Z" fill="#3D75E4"/>
<path d="M0.306836 23.4378C0.70497 23.0544 1.33813 23.0667 1.721 23.4653L11.8582 34.0169C12.2411 34.4155 12.2288 35.0494 11.8307 35.4328C11.4326 35.8162 10.7995 35.8038 10.4166 35.4053L0.279366 24.8536C-0.103507 24.455 -0.0912982 23.8211 0.306836 23.4378Z" fill="#3D75E4"/>
<path fill-rule="evenodd" clip-rule="evenodd" d="M33.4941 28.703C31.5608 28.703 29.9935 30.2722 29.9935 32.2077C29.9935 34.1433 31.5608 35.7124 33.4941 35.7124C35.4274 35.7124 36.9946 34.1433 36.9946 32.2077C36.9946 30.2722 35.4274 28.703 33.4941 28.703ZM31.9938 32.2077C31.9938 31.3782 32.6656 30.7057 33.4941 30.7057C34.3226 30.7057 34.9943 31.3782 34.9943 32.2077C34.9943 33.0373 34.3226 33.7098 33.4941 33.7098C32.6656 33.7098 31.9938 33.0373 31.9938 32.2077Z" fill="#3D75E4"/>
<path d="M17.0407 30.6474C17.593 30.6474 18.0408 31.0957 18.0408 31.6488C18.0408 32.4556 17.718 33.1228 17.3336 33.6576C16.9605 34.1767 16.4777 34.6389 16.0753 35.0243L16.0719 35.0276C15.6388 35.4422 15.2923 35.7745 15.0418 36.1119C14.8377 36.3866 14.7489 36.5985 14.7266 36.7798C14.7388 36.7867 14.7533 36.7947 14.7708 36.8037C14.994 36.9188 15.3765 37.0229 15.9569 37.1274C16.23 37.1766 16.5214 37.2218 16.8347 37.2704L16.8428 37.2717L16.8497 37.2727C16.9839 37.2935 17.1216 37.3149 17.2615 37.3372C17.4498 37.3673 17.6418 37.3991 17.8339 37.4334C18.4962 37.552 19.2112 37.7102 19.8557 37.9698C19.9466 38.0065 20.0536 38.0065 20.1446 37.9698C20.7892 37.7102 21.504 37.552 22.1664 37.4334C22.501 37.3735 22.8359 37.3215 23.1506 37.2727L23.1576 37.2716C23.2824 37.2523 23.4036 37.2335 23.5217 37.2147L23.7009 37.1859C23.7599 37.1763 23.818 37.1666 23.8752 37.1569C23.932 37.1472 23.9881 37.1374 24.0434 37.1274C24.6238 37.0229 25.0063 36.9188 25.2295 36.8037L25.2549 36.7903L25.2737 36.7798C25.2513 36.5985 25.1626 36.3866 24.9584 36.1119C24.7079 35.7745 24.3614 35.4422 23.9284 35.0276L23.9249 35.0243C23.5225 34.6389 23.0398 34.1767 22.6667 33.6576C22.2822 33.1228 21.9594 32.4556 21.9594 31.6488C21.9594 31.0957 22.4072 30.6474 22.9596 30.6474C23.512 30.6474 23.9597 31.0957 23.9597 31.6488C23.9597 31.8934 24.052 32.1564 24.2902 32.4877C24.5384 32.8331 24.8841 33.1715 25.311 33.5803L25.3671 33.634C25.753 34.0031 26.209 34.4395 26.5635 34.9168C26.9452 35.4305 27.28 36.0819 27.28 36.8753C27.28 37.7671 26.6947 38.3008 26.1456 38.584C25.6309 38.8495 24.9836 38.993 24.3973 39.0985C24.0977 39.1524 23.7833 39.2012 23.4761 39.2488L23.4568 39.2518C23.2725 39.2804 23.0898 39.3088 22.9088 39.3383C22.7779 39.3597 22.6478 39.3817 22.5183 39.4049C21.8951 39.5164 21.342 39.6462 20.8913 39.8278C20.3211 40.0574 19.6791 40.0574 19.109 39.8278C18.6582 39.6462 18.1052 39.5164 17.4819 39.4049C17.1736 39.3497 16.8612 39.3011 16.5434 39.2518L16.5241 39.2488C16.3567 39.2228 16.1873 39.1965 16.0191 39.1693C15.8787 39.1465 15.7393 39.123 15.6029 39.0985C15.0167 38.993 14.3694 38.8495 13.8546 38.584C13.3056 38.3008 12.7203 37.7671 12.7203 36.8753C12.7203 36.0819 13.0551 35.4305 13.4367 34.9168C13.7913 34.4395 14.2473 34.0031 14.6332 33.634L14.6892 33.5803C15.1162 33.1715 15.4618 32.8331 15.71 32.4877C15.9482 32.1564 16.0405 31.8934 16.0405 31.6488C16.0405 31.0957 16.4882 30.6474 17.0407 30.6474Z" fill="#3D75E4"/>
<path d="M16.6206 6.60051C16.3463 6.15548 16.0006 5.79034 15.5832 5.52561C14.8736 5.07551 14.0643 4.98417 13.2935 5.15276C11.7988 5.47974 10.42 6.76592 9.5622 8.49801C9.3168 8.99349 9.51898 9.5943 10.0139 9.83999C10.5088 10.0857 11.1088 9.88317 11.3542 9.38773C12.0442 7.99465 13.0115 7.26439 13.7204 7.10928C14.0517 7.03682 14.3088 7.08807 14.5126 7.2173C14.7248 7.35194 14.986 7.6402 15.1784 8.23224C15.2466 8.44175 15.5231 8.69466 15.7956 8.74798C16.7082 8.92654 18.993 12.2755 18.993 13.0205C18.993 13.5772 19.4438 14.0284 19.9998 14.0284C20.5558 14.0284 21.0065 13.5772 21.0065 13.0205C21.0065 12.274 22.8427 9.32456 24.3046 8.82826C24.636 8.7158 24.7661 8.44175 24.8343 8.23224C25.0267 7.6402 25.2879 7.35194 25.5001 7.2173C25.7039 7.08807 25.961 7.03682 26.2922 7.10928C27.0012 7.26439 27.9685 7.99465 28.6585 9.38773C28.9039 9.88317 29.5039 10.0857 29.9988 9.83999C30.4937 9.5943 30.6959 8.99349 30.4505 8.49801C29.5927 6.76592 28.2139 5.47974 26.7192 5.15276C25.9484 4.98417 25.1391 5.07551 24.4295 5.52561C24.0111 5.79101 23.6646 6.15725 23.3901 6.60378C23.127 7.03157 22.8435 7.45242 22.4691 7.78691C21.4607 8.68803 20.582 9.66367 20.0082 10.6678C19.4331 9.66165 18.5521 8.68411 17.541 7.78144C17.167 7.44756 16.8837 7.02747 16.6206 6.60051Z" fill="#3D75E4"/>
</svg>
