<svg width="40" height="40" viewBox="0 0 40 40" fill="none" xmlns="http://www.w3.org/2000/svg">
<g clip-path="url(#clip0)">
<path d="M11.5 0C6.25329 0 2 4.25329 2 9.5C2 13.3537 4.29458 16.6694 7.5878 18.1594C7.75944 18.237 7.93381 18.3097 8.11073 18.3773C8.62665 18.5744 9.20466 18.3159 9.40174 17.8C9.59882 17.2841 9.34035 16.7061 8.82442 16.509C8.68498 16.4557 8.54753 16.3984 8.4122 16.3372C5.80837 15.1591 4 12.5397 4 9.5C4 5.35786 7.35786 2 11.5 2H28.5C32.6421 2 36 5.35786 36 9.5C36 12.5397 34.1916 15.1591 31.5878 16.3372C31.4432 16.4026 31.2962 16.4635 31.147 16.5198C30.7577 16.6667 30.5 17.0393 30.5 17.4554V22C30.5 22.5523 30.9477 23 31.5 23C32.0523 23 32.5 22.5523 32.5 22V18.1191C35.7461 16.6103 38 13.3194 38 9.5C38 4.25329 33.7467 0 28.5 0H11.5Z" fill="#3D75E4"/>
<path d="M24.3416 19.5528C24.511 19.214 24.8573 19 25.2361 19H28C28.5523 19 29 18.5523 29 18C29 17.4477 28.5523 17 28 17H25.2361C24.0998 17 23.061 17.642 22.5528 18.6584L21.1056 21.5528C20.8586 22.0468 21.0588 22.6474 21.5528 22.8944C22.0468 23.1414 22.6474 22.9412 22.8944 22.4472L24.3416 19.5528Z" fill="#3D75E4"/>
<path fill-rule="evenodd" clip-rule="evenodd" d="M3.33179 28C3.33179 25.7909 5.12265 24 7.33179 24C9.54093 24 11.3318 25.7909 11.3318 28C11.3318 29.0122 10.9558 29.9366 10.3359 30.6412C11.2265 31.0413 12.0226 31.6138 12.6813 32.3156C13.0593 32.7183 13.0392 33.3512 12.6365 33.7292C12.2338 34.1071 11.6009 34.0871 11.223 33.6844C10.2487 32.6463 8.86729 32 7.33332 32C4.38781 32 2 34.3878 2 37.3333C2 37.7015 2.29848 38 2.66668 38H12.6666V37.3333C12.6666 34.3535 14.4438 31.7888 16.9961 30.6414C16.3761 29.9368 16 29.0123 16 28C16 25.7909 17.7909 24 20 24C22.2091 24 24 25.7909 24 28C24 29.0125 23.6238 29.9371 23.0036 30.6417C23.8936 31.0419 24.6893 31.6142 25.3477 32.3156C25.7256 32.7183 25.7056 33.3512 25.3029 33.7292C24.9002 34.1071 24.2673 34.0871 23.8894 33.6844C22.9151 32.6463 21.5337 32 19.9997 32C17.0542 32 14.6666 34.3878 14.6666 37.3333V38H25.333V37.3333C25.333 34.3132 27.1589 31.7196 29.7668 30.5957C29.1704 29.897 28.8103 28.9906 28.8103 28C28.8103 25.7909 30.6012 24 32.8103 24C35.0194 24 36.8103 25.7909 36.8103 28C36.8103 29.0349 36.4173 29.978 35.7724 30.6882C38.27 31.8575 40 34.3934 40 37.3333C40 38.8061 38.8061 40 37.3333 40H2.66668C1.19392 40 0 38.8061 0 37.3333C0 34.354 1.7767 31.7896 4.32837 30.642C3.70804 29.9373 3.33179 29.0126 3.33179 28ZM7.33179 26C6.22722 26 5.33179 26.8954 5.33179 28C5.33179 29.1046 6.22722 30 7.33179 30C8.43636 30 9.33179 29.1046 9.33179 28C9.33179 26.8954 8.43636 26 7.33179 26ZM27.333 38H37.3333C37.7015 38 38 37.7015 38 37.3333C38 34.3878 35.6122 32 32.6667 32C29.7211 32 27.333 34.3879 27.333 37.3333V38ZM18 28C18 26.8954 18.8954 26 20 26C21.1046 26 22 26.8954 22 28C22 29.1046 21.1046 30 20 30C18.8954 30 18 29.1046 18 28ZM32.8103 26C31.7057 26 30.8103 26.8954 30.8103 28C30.8103 29.1046 31.7057 30 32.8103 30C33.9149 30 34.8103 29.1046 34.8103 28C34.8103 26.8954 33.9149 26 32.8103 26Z" fill="#3D75E4"/>
<path d="M10.5528 18.6584C11.0609 17.642 12.0997 17 13.236 17H20C20.5523 17 21 17.4477 21 18C21 18.5523 20.5523 19 20 19H13.236C12.8573 19 12.511 19.214 12.3416 19.5528L10.8944 22.4472C10.6474 22.9412 10.0467 23.1414 9.55276 22.8944C9.05878 22.6474 8.85856 22.0468 9.10555 21.5528L10.5528 18.6584Z" fill="#3D75E4"/>
<path fill-rule="evenodd" clip-rule="evenodd" d="M15.0504 5.86391C13.8788 7.03548 13.8788 8.93498 15.0504 10.1066L19.293 14.3492C19.6836 14.7397 20.3167 14.7397 20.7073 14.3492L24.9499 10.1066C26.1215 8.93498 26.1215 7.03548 24.9499 5.86391C23.7783 4.69234 21.8788 4.69234 20.7073 5.86391L20.0001 6.57102L19.293 5.86391C18.1215 4.69234 16.222 4.69234 15.0504 5.86391ZM16.4646 8.69234C16.0741 8.30181 16.0741 7.66865 16.4646 7.27812C16.8551 6.8876 17.4883 6.8876 17.8788 7.27812L19.293 8.69234C19.6836 9.08286 20.3167 9.08286 20.7073 8.69234L22.1215 7.27812C22.512 6.8876 23.1452 6.8876 23.5357 7.27812C23.9262 7.66865 23.9262 8.30181 23.5357 8.69234L20.0001 12.2279L16.4646 8.69234Z" fill="#3D75E4"/>
</g>
<defs>
<clipPath id="clip0">
<rect width="40" height="40" fill="white"/>
</clipPath>
</defs>
</svg>
