<svg width="40" height="40" viewBox="0 0 40 40" fill="none" xmlns="http://www.w3.org/2000/svg">
<path d="M21.1853 40C19.9953 40 18.9853 38.97 18.9853 37.75V2.01L18.6653 2.09C17.2853 2.44 15.9953 3.32 14.6253 4.24C12.7553 5.5 10.5053 7.02 7.4253 7.58C6.3653 7.77 5.81531 8.52 5.83531 9.17C6.05531 18.76 10.5053 29.62 16.9153 36.19C17.1053 36.38 17.2053 36.64 17.2053 36.91C17.2053 37.18 17.0953 37.43 16.8953 37.62C16.7053 37.81 16.4553 37.91 16.1853 37.91C15.9053 37.91 15.6553 37.8 15.4553 37.6C8.7153 30.69 4.0253 19.28 3.7953 9.21C3.7453 7.22 5.39531 5.88 7.05531 5.58C9.70531 5.1 11.6253 3.81 13.4753 2.56L13.5753 2.5C15.0053 1.53 16.6253 0.440003 18.5053 0.0500031C18.6553 0.0200031 18.8053 0 18.9453 0C20.1653 0 20.9853 1.13 20.9853 2.18V38.13L21.4053 37.77C28.6753 31.46 33.9253 19.7 34.1753 9.17C34.1853 8.53 33.6453 7.78 32.5853 7.58C29.5153 7.03 27.2553 5.5 25.4453 4.28C24.6653 3.75 23.9753 3.29 23.2853 2.9C22.7953 2.63 22.6253 2.01 22.8953 1.52C23.0753 1.2 23.4153 1 23.7853 1C23.9553 1 24.1253 1.04 24.2753 1.13C25.0553 1.57 25.8253 2.09 26.5053 2.55C28.3853 3.82 30.2953 5.11 32.9453 5.59C34.5953 5.89 36.2453 7.23 36.2053 9.22C35.9453 20.4 30.3253 32.84 22.5553 39.46C22.1653 39.81 21.6853 40 21.1853 40Z" fill="#3D75E4"/>
</svg>
