<svg width="40" height="40" viewBox="0 0 40 40" fill="none" xmlns="http://www.w3.org/2000/svg">
<path d="M19.8992 4.05466C19.8992 3.69826 19.7137 3.38534 19.4344 3.2079L14.8926 0.168275C14.4342 -0.138477 13.815 -0.0141409 13.5094 0.445988C13.2038 0.906117 13.3277 1.5278 13.786 1.83455L15.9584 3.2884C7.19449 4.70276 0.5 12.3299 0.5 21.5267C0.5 22.8263 0.63383 24.0955 0.888748 25.321C1.00135 25.8623 1.52977 26.2095 2.069 26.0965C2.60823 25.9835 2.95408 25.453 2.84148 24.9116C2.6144 23.82 2.49485 22.6879 2.49485 21.5267C2.49485 13.8333 7.74908 7.37194 14.8517 5.56161L13.786 6.2748C13.3277 6.58155 13.2038 7.20323 13.5094 7.66336C13.815 8.12349 14.4342 8.24782 14.8926 7.94107L19.4352 4.90088C19.7141 4.72334 19.8992 4.4107 19.8992 4.05466Z" fill="#3D75E4"/>
<path d="M23.2252 4.56816C23.3919 4.0411 23.9527 3.74953 24.4778 3.91693C31.9138 6.28784 37.3035 13.2741 37.3035 21.5267C37.3035 23.6784 36.9367 25.7454 36.2622 27.6672L37.9524 26.5455C38.412 26.2406 39.0308 26.3673 39.3345 26.8287C39.6383 27.29 39.512 27.9112 39.0525 28.2161L34.4785 31.2515C34.2003 31.4361 33.8486 31.4689 33.5413 31.339C33.2339 31.209 33.0116 30.9334 32.9489 30.6046L31.9171 25.1986C31.8134 24.6555 32.168 24.1308 32.709 24.0268C33.25 23.9227 33.7726 24.2786 33.8763 24.8218L34.3232 27.1631C34.9608 25.4053 35.3087 23.5074 35.3087 21.5267C35.3087 14.1716 30.5056 7.94005 23.8739 5.82559C23.3489 5.65819 23.0584 5.09522 23.2252 4.56816Z" fill="#3D75E4"/>
<path d="M6.42626 32.2247L8.63351 33.0079C9.15289 33.1922 9.72274 32.9189 9.90633 32.3976C10.0899 31.8762 9.8177 31.3041 9.29833 31.1198L4.12875 29.2854C3.81432 29.1738 3.46515 29.2274 3.19826 29.4281C2.93137 29.6289 2.78208 29.9502 2.80042 30.2845L3.10199 35.7805C3.13229 36.3327 3.60274 36.7557 4.15277 36.7253C4.7028 36.6948 5.12413 36.2226 5.09383 35.6704L4.98068 33.6082C8.35404 37.522 13.3393 40 18.9018 40C23.5604 40 27.8169 38.2608 31.0582 35.3954C31.4717 35.0299 31.5117 34.3972 31.1476 33.9821C30.7836 33.5671 30.1533 33.527 29.7399 33.8924C26.8488 36.4482 23.0567 37.9974 18.9018 37.9974C13.9091 37.9974 9.43639 35.759 6.42626 32.2247Z" fill="#3D75E4"/>
<path d="M14.248 10.9258C14.1911 10.9156 14.1325 10.9103 14.0727 10.9103C13.5218 10.9103 13.0752 11.3586 13.0752 11.9116V19.9221H12.4285C11.8776 19.9221 11.431 20.3704 11.431 20.9234C11.431 21.4764 11.8776 21.9247 12.4285 21.9247H13.0752V23.9273H12.4285C11.8776 23.9273 11.431 24.3756 11.431 24.9286C11.431 25.4816 11.8776 25.9299 12.4285 25.9299H13.0752V30.8083C13.0752 31.3613 13.5218 31.8096 14.0727 31.8096C14.6235 31.8096 15.0701 31.3613 15.0701 30.8083V25.9299H20.4079C20.9587 25.9299 21.4053 25.4816 21.4053 24.9286C21.4053 24.3756 20.9587 23.9273 20.4079 23.9273H15.0701V12.913H20.4079C22.7128 12.913 24.3976 14.5786 24.3976 16.4175C24.3976 18.2564 22.7128 19.9221 20.4079 19.9221H17.4156C16.8647 19.9221 16.4182 20.3704 16.4182 20.9234C16.4182 21.4764 16.8647 21.9247 17.4156 21.9247H20.4079C23.6116 21.9247 26.3924 19.5557 26.3924 16.4175C26.3924 13.342 23.7215 11.0052 20.5992 10.9132C20.5743 10.9113 20.5492 10.9103 20.5238 10.9103H14.4233C14.3635 10.9103 14.3049 10.9156 14.248 10.9258Z" fill="#3D75E4"/>
</svg>
