<svg width="40" height="40" viewBox="0 0 40 40" fill="none" xmlns="http://www.w3.org/2000/svg">
<path d="M14 14.2655C14 7.49146 19.4915 2 26.2655 2C26.8178 2 27.2655 1.55228 27.2655 1C27.2655 0.447715 26.8178 0 26.2655 0C18.3869 0 12 6.3869 12 14.2655C12 14.8178 12.4477 15.2655 13 15.2655C13.5523 15.2655 14 14.8178 14 14.2655Z" fill="#3D75E4"/>
<path d="M26.2654 5.53748C21.445 5.53748 17.5374 9.44516 17.5374 14.2655C17.5374 14.8178 17.0896 15.2655 16.5374 15.2655C15.9851 15.2655 15.5374 14.8178 15.5374 14.2655C15.5374 8.34059 20.3405 3.53748 26.2654 3.53748C26.8177 3.53748 27.2654 3.98519 27.2654 4.53748C27.2654 5.08976 26.8177 5.53748 26.2654 5.53748Z" fill="#3D75E4"/>
<path fill-rule="evenodd" clip-rule="evenodd" d="M32.1707 9H31C30.4477 9 30 9.44771 30 10C30 10.5523 30.4477 11 31 11H32.1707C32.3892 11.618 32.8044 12.1431 33.3411 12.5C32.8044 12.8569 32.3892 13.382 32.1707 14H31C30.4477 14 30 14.4477 30 15C30 15.5523 30.4477 16 31 16H32.1707C32.3892 16.618 32.8044 17.1431 33.3411 17.5C32.8044 17.8569 32.3892 18.382 32.1707 19H31C30.4477 19 30 19.4477 30 20C30 20.5523 30.4477 21 31 21H32.1707C32.5825 22.1652 33.6938 23 35 23C36.3062 23 37.4175 22.1652 37.8293 21H39C39.5523 21 40 20.5523 40 20C40 19.4477 39.5523 19 39 19H37.8293C37.6108 18.382 37.1956 17.8569 36.6589 17.5C37.1956 17.1431 37.6108 16.618 37.8293 16H39C39.5523 16 40 15.5523 40 15C40 14.4477 39.5523 14 39 14H37.8293C37.6108 13.382 37.1956 12.8569 36.6589 12.5C37.1956 12.1431 37.6108 11.618 37.8293 11H39C39.5523 11 40 10.5523 40 10C40 9.44771 39.5523 9 39 9H37.8293C37.4175 7.83481 36.3062 7 35 7C33.6938 7 32.5825 7.83481 32.1707 9ZM34 10C34 9.44772 34.4477 9 35 9C35.5523 9 36 9.44772 36 10C36 10.5523 35.5523 11 35 11C34.4477 11 34 10.5523 34 10ZM35 14C35.5523 14 36 14.4477 36 15C36 15.5523 35.5523 16 35 16C34.4477 16 34 15.5523 34 15C34 14.4477 34.4477 14 35 14ZM36 20C36 19.4477 35.5523 19 35 19C34.4477 19 34 19.4477 34 20C34 20.5523 34.4477 21 35 21C35.5523 21 36 20.5523 36 20Z" fill="#3D75E4"/>
<path d="M4 32C4 31.4477 4.44772 31 5 31H8C8.55228 31 9 31.4477 9 32C9 32.5523 8.55228 33 8 33H5C4.44772 33 4 32.5523 4 32Z" fill="#3D75E4"/>
<path d="M21 31C20.4477 31 20 31.4477 20 32C20 32.5523 20.4477 33 21 33H24C24.5523 33 25 32.5523 25 32C25 31.4477 24.5523 31 24 31H21Z" fill="#3D75E4"/>
<path d="M12 22C12 21.4477 12.4477 21 13 21H16C16.5523 21 17 21.4477 17 22C17 22.5523 16.5523 23 16 23H13C12.4477 23 12 22.5523 12 22Z" fill="#3D75E4"/>
<path d="M12 32C11.4477 32 11 32.4477 11 33C11 33.5523 11.4477 34 12 34H17C17.5523 34 18 33.5523 18 33C18 32.4477 17.5523 32 17 32H12Z" fill="#3D75E4"/>
<path fill-rule="evenodd" clip-rule="evenodd" d="M4 40C5.42724 40 6.62169 39.0033 6.92535 37.668L8.91715 38H20.0827L22.0746 37.668C22.3783 39.0033 23.5728 40 25 40H26C27.6569 40 29 38.6569 29 37V31.2111C29 30.224 28.7078 29.2589 28.1603 28.4376L25.9938 25.1879C25.9401 25.1074 25.8985 25.0197 25.87 24.9273L24.3902 20.1177C24.0029 18.859 22.8399 18 21.5229 18H7.47715C6.16013 18 4.99713 18.859 4.60981 20.1177L3.12996 24.9273C3.10153 25.0197 3.05985 25.1074 3.00623 25.1879L0.839749 28.4376C0.29219 29.2589 0 30.224 0 31.2111V37C0 38.6569 1.34315 40 3 40H4ZM7.47715 20C7.03814 20 6.65048 20.2863 6.52137 20.7059L5.2049 24.9844L7.0249 25.8944C7.16375 25.9639 7.31687 26 7.47211 26H15.5C16.0523 26 16.5 26.4477 16.5 27C16.5 27.5523 16.0523 28 15.5 28H7.47211C7.00638 28 6.54704 27.8916 6.13047 27.6833L4.34236 26.7892L2.50385 29.547C2.17531 30.0398 2 30.6188 2 31.2111V37C2 37.5523 2.44772 38 3 38H4C4.55228 38 5 37.5523 5 37V36.5233C4.99893 36.475 5.00136 36.4262 5.00749 36.377C5.01725 36.2975 5.03634 36.2208 5.06363 36.1482C5.13118 35.9678 5.2481 35.8151 5.39571 35.7032C5.49419 35.6284 5.60696 35.5714 5.72921 35.5371C5.84047 35.5057 5.95862 35.4934 6.07927 35.5031C6.11474 35.5059 6.14968 35.5105 6.18402 35.5169L9.08267 36H19.9171L22.8176 35.5166C22.8493 35.5107 22.8816 35.5064 22.9143 35.5036C23.0244 35.494 23.1324 35.5029 23.2351 35.5278C23.4112 35.5702 23.5691 35.6593 23.6951 35.7811C23.874 35.9541 23.9885 36.1932 23.9992 36.459C23.9999 36.477 24.0002 36.495 24 36.5128V37C24 37.5523 24.4477 38 25 38H26C26.5523 38 27 37.5523 27 37V31.2111C27 30.6188 26.8247 30.0398 26.4962 29.547L24.5326 26.6017L22.3695 27.6833C21.953 27.8916 21.4936 28 21.0279 28H19C18.4477 28 18 27.5523 18 27C18 26.4477 18.4477 26 19 26H21.0279C21.1831 26 21.3362 25.9639 21.4751 25.8944L23.7284 24.7678L22.4786 20.7059C22.3495 20.2863 21.9619 20 21.5229 20H7.47715Z" fill="#3D75E4"/>
<path d="M31 39C31 38.4477 31.4477 38 32 38H34V25C34 24.4477 34.4477 24 35 24C35.5523 24 36 24.4477 36 25V38H38C38.5523 38 39 38.4477 39 39C39 39.5523 38.5523 40 38 40H32C31.4477 40 31 39.5523 31 39Z" fill="#3D75E4"/>
<path d="M26.2654 12.6124C25.3524 12.6124 24.6123 13.3525 24.6123 14.2655C24.6123 14.8178 24.1646 15.2655 23.6123 15.2655C23.06 15.2655 22.6123 14.8178 22.6123 14.2655C22.6123 12.248 24.2479 10.6124 26.2654 10.6124C26.8177 10.6124 27.2654 11.0601 27.2654 11.6124C27.2654 12.1647 26.8177 12.6124 26.2654 12.6124Z" fill="#3D75E4"/>
<path d="M21.075 14.2655C21.075 11.3989 23.3989 9.07495 26.2655 9.07495C26.8178 9.07495 27.2655 8.62724 27.2655 8.07495C27.2655 7.52267 26.8178 7.07495 26.2655 7.07495C22.2943 7.07495 19.075 10.2943 19.075 14.2655C19.075 14.8178 19.5227 15.2655 20.075 15.2655C20.6272 15.2655 21.075 14.8178 21.075 14.2655Z" fill="#3D75E4"/>
</svg>
