<svg width="40" height="40" viewBox="0 0 40 40" fill="none" xmlns="http://www.w3.org/2000/svg">
<path fill-rule="evenodd" clip-rule="evenodd" d="M16.5634 4.31056C16.5014 4.05071 16.4685 3.77938 16.4685 3.5C16.4685 1.55532 18.0612 0 19.9998 0C21.9383 0 23.531 1.55532 23.531 3.5C23.531 5.44468 21.9383 7 19.9998 7C19.0615 7 18.2043 6.63567 17.5695 6.03921L11.1592 9.68901C10.6792 9.96228 10.0686 9.79473 9.79538 9.31479C9.52211 8.83484 9.68966 8.22425 10.1696 7.95099L16.5634 4.31056ZM18.4685 3.5C18.4685 2.68325 19.1423 2 19.9998 2C20.8572 2 21.531 2.68325 21.531 3.5C21.531 4.31675 20.8572 5 19.9998 5C19.4522 5 18.9794 4.72132 18.7093 4.30717C18.7007 4.2897 18.6915 4.27237 18.6817 4.25521C18.6676 4.23052 18.6527 4.20665 18.6369 4.18362C18.529 3.97761 18.4685 3.7448 18.4685 3.5Z" fill="#3D75E4"/>
<path fill-rule="evenodd" clip-rule="evenodd" d="M6.53094 15.1075C7.9885 14.6813 9.06252 13.3469 9.06252 11.75C9.06252 9.80532 7.46977 8.25 5.53126 8.25C3.59275 8.25 2 9.80532 2 11.75C2 13.3467 3.07371 14.6809 4.53094 15.1073V22.42C4.53094 22.9723 4.97866 23.42 5.53094 23.42C6.08323 23.42 6.53094 22.9723 6.53094 22.42V15.1075ZM4 11.75C4 10.9333 4.67382 10.25 5.53126 10.25C6.38871 10.25 7.06252 10.9333 7.06252 11.75C7.06252 12.5667 6.38871 13.25 5.53126 13.25C4.67382 13.25 4 12.5667 4 11.75Z" fill="#3D75E4"/>
<path fill-rule="evenodd" clip-rule="evenodd" d="M9.06252 28.25C9.06252 28.5295 9.02963 28.8009 8.96753 29.0609L15.0777 32.5411C15.5576 32.8144 15.7251 33.425 15.4517 33.9049C15.1784 34.3848 14.5678 34.5523 14.0879 34.2789L7.96133 30.7894C7.3265 31.3858 6.46937 31.75 5.53126 31.75C3.59275 31.75 2 30.1947 2 28.25C2 26.3053 3.59275 24.75 5.53126 24.75C7.46977 24.75 9.06252 26.3053 9.06252 28.25ZM6.84908 29.0051C6.86352 28.9797 6.8789 28.9552 6.89515 28.9317C7.00238 28.7261 7.06252 28.494 7.06252 28.25C7.06252 27.4333 6.38871 26.75 5.53126 26.75C4.67382 26.75 4 27.4333 4 28.25C4 29.0667 4.67382 29.75 5.53126 29.75C6.07798 29.75 6.55004 29.4722 6.82039 29.0592C6.82934 29.041 6.8389 29.0229 6.84908 29.0051Z" fill="#3D75E4"/>
<path fill-rule="evenodd" clip-rule="evenodd" d="M30.0313 30.7745C30.3049 31.2542 30.1379 31.8649 29.6582 32.1386L23.4359 35.6885C23.4981 35.9487 23.531 36.2203 23.531 36.5C23.531 38.4447 21.9383 40 19.9998 40C18.0612 40 16.4685 38.4447 16.4685 36.5C16.4685 34.5553 18.0612 33 19.9998 33C20.9376 33 21.7946 33.3641 22.4294 33.9602L28.6671 30.4014C29.1468 30.1278 29.7576 30.2948 30.0313 30.7745ZM21.3179 35.7456C21.3076 35.7275 21.2979 35.7092 21.2888 35.6908C21.0185 35.2778 20.5464 35 19.9998 35C19.1423 35 18.4685 35.6833 18.4685 36.5C18.4685 37.3167 19.1423 38 19.9998 38C20.8572 38 21.531 37.3167 21.531 36.5C21.531 36.256 21.4709 36.0239 21.3636 35.8184C21.3475 35.795 21.3323 35.7707 21.3179 35.7456Z" fill="#3D75E4"/>
<path fill-rule="evenodd" clip-rule="evenodd" d="M34.4683 16.48C35.0206 16.48 35.4683 16.9277 35.4683 17.48V24.8926C36.9257 25.3189 37.9996 26.6532 37.9996 28.25C37.9996 30.1947 36.4069 31.75 34.4684 31.75C32.5299 31.75 30.9371 30.1947 30.9371 28.25C30.9371 26.6532 32.0109 25.319 33.4683 24.8927V17.48C33.4683 16.9277 33.916 16.48 34.4683 16.48ZM32.9371 28.25C32.9371 27.4333 33.6109 26.75 34.4684 26.75C35.3258 26.75 35.9996 27.4333 35.9996 28.25C35.9996 29.0667 35.3258 29.75 34.4684 29.75C33.6109 29.75 32.9371 29.0667 32.9371 28.25Z" fill="#3D75E4"/>
<path fill-rule="evenodd" clip-rule="evenodd" d="M24.4163 6.01462C24.6899 5.53486 25.3006 5.36774 25.7803 5.64134L32.0385 9.21036C32.6733 8.61415 33.5304 8.25 34.4684 8.25C36.4069 8.25 37.9996 9.80532 37.9996 11.75C37.9996 13.6947 36.4069 15.25 34.4684 15.25C32.5299 15.25 30.9371 13.6947 30.9371 11.75C30.9371 11.4704 30.97 11.1989 31.0322 10.9388L24.7895 7.37868C24.3098 7.10508 24.1427 6.49437 24.4163 6.01462ZM34.4684 10.25C33.9209 10.25 33.4482 10.5286 33.1781 10.9426C33.1693 10.9604 33.1599 10.978 33.15 10.9954C33.136 11.02 33.1211 11.0437 33.1054 11.0666C32.9976 11.2726 32.9371 11.5053 32.9371 11.75C32.9371 12.5667 33.6109 13.25 34.4684 13.25C35.3258 13.25 35.9996 12.5667 35.9996 11.75C35.9996 10.9333 35.3258 10.25 34.4684 10.25Z" fill="#3D75E4"/>
<path d="M17 12C17 10.8954 17.8954 10 19 10H25C26.1046 10 27 10.8954 27 12V22H30C30.5523 22 31 22.4477 31 23C31 23.5523 30.5523 24 30 24H23V30C23 30.5523 22.5523 31 22 31C21.4477 31 21 30.5523 21 30V18H16V21C16 21.5523 15.5523 22 15 22C14.4477 22 14 21.5523 14 21V18C14 16.8954 14.8954 16 16 16H21C22.1046 16 23 16.8954 23 18V22H25V12H19V14C19 14.5523 18.5523 15 18 15C17.4477 15 17 14.5523 17 14V12Z" fill="#3D75E4"/>
<path d="M9 24C9 23.4477 9.44772 23 10 23H17C18.1046 23 19 23.8954 19 25V30C19 30.5523 18.5523 31 18 31C17.4477 31 17 30.5523 17 30V25H10C9.44772 25 9 24.5523 9 24Z" fill="#3D75E4"/>
</svg>
