<svg width="40" height="40" viewBox="0 0 40 40" fill="none" xmlns="http://www.w3.org/2000/svg">
<g clip-path="url(#clip0)">
<path fill-rule="evenodd" clip-rule="evenodd" d="M5.03202 0C4.1406 0 3.29466 0.390698 2.72046 1.06759L0.477492 3.71173C-0.625899 5.01247 0.305562 7 2.01854 7H34V31C34 31.5523 34.4477 32 35 32C35.5523 32 36 31.5523 36 31V7H37.9815C39.6944 7 40.6259 5.01247 39.5225 3.71173L37.2795 1.06759C36.7053 0.390699 35.8594 0 34.968 0H5.03202ZM37.9815 5L35.7385 2.35586C35.5471 2.13023 35.2651 2 34.968 2H5.03202C4.73488 2 4.4529 2.13023 4.2615 2.35586L2.01853 5H35L37.9815 5Z" fill="#3D75E4"/>
<path d="M34 35H21V39C21 39.5523 20.5523 40 20 40C19.4477 40 19 39.5523 19 39V35H11C9.89543 35 9 34.1046 9 33V32C9 30.8954 9.89543 30 11 30H30C30.5523 30 31 30.4477 31 31C31 31.5523 30.5523 32 30 32H11V33H34C35.1046 33 36 33.8954 36 35V39C36 39.5523 35.5523 40 35 40C34.4477 40 34 39.5523 34 39V35Z" fill="#3D75E4"/>
<path d="M6 9L32 9C32.5523 9 33 9.44771 33 10C33 10.5523 32.5523 11 32 11L6 11V39C6 39.5523 5.55228 40 5 40C4.44771 40 4 39.5523 4 39V11C4 9.89543 4.89543 9 6 9Z" fill="#3D75E4"/>
<path d="M18.71 25.5887C19.3556 24.9431 20.4023 24.9431 21.0478 25.5887C21.4384 25.9792 22.0715 25.9792 22.462 25.5887C22.8526 25.1981 22.8526 24.565 22.462 24.1744C21.0354 22.7478 18.7224 22.7478 17.2958 24.1744C16.9052 24.565 16.9052 25.1981 17.2958 25.5887C17.6863 25.9792 18.3195 25.9792 18.71 25.5887Z" fill="#3D75E4"/>
<path d="M23.5492 23.0873C21.5222 21.0602 18.2357 21.0602 16.2086 23.0873C15.8181 23.4778 15.1849 23.4778 14.7944 23.0873C14.4039 22.6968 14.4039 22.0636 14.7944 21.6731C17.6025 18.865 22.1553 18.865 24.9634 21.6731C25.3539 22.0636 25.3539 22.6968 24.9634 23.0873C24.5729 23.4778 23.9397 23.4778 23.5492 23.0873Z" fill="#3D75E4"/>
<path d="M13.7072 20.5859C17.1158 17.1774 22.6421 17.1774 26.0506 20.5859C26.4411 20.9764 27.0743 20.9764 27.4648 20.5859C27.8553 20.1954 27.8553 19.5622 27.4648 19.1717C23.2752 14.9821 16.4826 14.9821 12.293 19.1717C11.9025 19.5622 11.9025 20.1954 12.293 20.5859C12.6836 20.9764 13.3167 20.9764 13.7072 20.5859Z" fill="#3D75E4"/>
</g>
<defs>
<clipPath id="clip0">
<rect width="40" height="40" fill="white"/>
</clipPath>
</defs>
</svg>
