<svg width="40" height="40" viewBox="0 0 40 40" fill="none" xmlns="http://www.w3.org/2000/svg">
<path d="M24.5667 3.11937C25.057 2.12369 26.2633 1.7174 27.2555 2.21381L29.63 3.40182L27.4575 7.38735C27.3501 7.58439 27.1796 7.73958 26.9734 7.82799L24.1094 9.05622C23.6017 9.27395 23.3665 9.8623 23.5841 10.3703C23.8017 10.8784 24.3897 11.1137 24.8974 10.896L27.7614 9.66775C28.3799 9.40251 28.8913 8.93693 29.2135 8.34581L31.386 4.36029C31.9284 3.36523 31.5376 2.11844 30.5245 1.61154L28.15 0.42353C26.1657 -0.569282 23.753 0.243295 22.7724 2.23466L20.3004 7.25469L19.1797 6.69398C18.2136 6.21062 17.1351 5.99715 16.0579 6.07606L2.26868 7.08626C0.989784 7.17995 0 8.24555 0 9.52871C0 10.8812 1.09573 11.9777 2.44738 11.9777H13.8758L7.31044 24.9726C6.56024 26.4575 7.24359 28.2666 8.78778 28.8837C10.0049 29.3701 11.3965 28.9574 12.1523 27.886L13.3641 26.1682L9.8836 36.5025C9.43651 37.83 10.1029 39.2758 11.4023 39.7973C12.7314 40.3307 14.2431 39.7063 14.8092 38.39L24.551 15.7381L29.0781 17.356C30.3943 17.8264 31.8603 17.5753 32.9453 16.6938L39.0811 11.7086C40.1617 10.8307 40.3112 9.23598 39.4126 8.17226C38.5787 7.18503 37.128 7.00167 36.0749 7.7504L31.0406 11.3297C30.7626 11.5274 30.4032 11.5697 30.087 11.4419L27.6787 10.4692C27.1665 10.2623 26.5837 10.5101 26.3769 11.0226C26.1702 11.5352 26.4178 12.1184 26.93 12.3253L29.3382 13.298C30.2869 13.6812 31.3652 13.5543 32.1992 12.9614L37.2335 9.38206C37.439 9.2359 37.7222 9.2717 37.885 9.46441C38.0604 9.67205 38.0312 9.98335 37.8203 10.1547L31.6845 15.1399C31.142 15.5807 30.4089 15.7062 29.7509 15.471L24.3397 13.5372C23.8427 13.3596 23.2933 13.599 23.0847 14.0841L12.9718 37.5988C12.8347 37.9175 12.4687 38.0687 12.1469 37.9395C11.8322 37.8133 11.6709 37.4632 11.7791 37.1417L17.4501 20.3037C17.6087 19.8328 17.3979 19.3167 16.9551 19.0917C16.5123 18.8667 15.9716 19.0009 15.6852 19.4069L10.5182 26.7317C10.2961 27.0465 9.88723 27.1677 9.52962 27.0248C9.07591 26.8435 8.87513 26.312 9.09556 25.8757L16.3947 11.4284C16.5515 11.1182 16.5361 10.7488 16.3541 10.4526C16.1721 10.1565 15.8496 9.9761 15.5022 9.9761H2.44738C2.20045 9.9761 2.00028 9.7758 2.00028 9.52871C2.00028 9.2943 2.1811 9.09963 2.41473 9.08251L16.2039 8.07231C16.9221 8.0197 17.6411 8.16202 18.2852 8.48426L20.3056 9.49515C20.5438 9.6143 20.8196 9.63351 21.0719 9.54852C21.3243 9.46353 21.5323 9.28136 21.65 9.04236L24.5667 3.11937Z" fill="#3D75E4"/>
<path fill-rule="evenodd" clip-rule="evenodd" d="M27.5038 30.9928C25.0182 30.9928 23.0032 33.0091 23.0032 35.4964C23.0032 37.9837 25.0182 40 27.5038 40C29.9894 40 32.0044 37.9837 32.0044 35.4964C32.0044 33.0091 29.9894 30.9928 27.5038 30.9928ZM25.0035 35.4964C25.0035 34.1146 26.1229 32.9944 27.5038 32.9944C28.8847 32.9944 30.0042 34.1146 30.0042 35.4964C30.0042 36.8782 28.8847 37.9984 27.5038 37.9984C26.1229 37.9984 25.0035 36.8782 25.0035 35.4964Z" fill="#3D75E4"/>
</svg>
