<svg width="40" height="40" viewBox="0 0 40 40" fill="none" xmlns="http://www.w3.org/2000/svg">
<path fill-rule="evenodd" clip-rule="evenodd" d="M2 0C0.895431 0 0 0.895431 0 2V8C0 9.10457 0.895431 10 2 10H8C9.10457 10 10 9.10457 10 8V6H37C37.5523 6 38 6.44772 38 7V18C38 18.5523 37.5523 19 37 19H27.4142L28.7071 17.7071C29.0976 17.3166 29.0976 16.6834 28.7071 16.2929C28.3166 15.9024 27.6834 15.9024 27.2929 16.2929L24.2929 19.2929C23.9024 19.6834 23.9024 20.3166 24.2929 20.7071L27.2929 23.7071C27.6834 24.0976 28.3166 24.0976 28.7071 23.7071C29.0976 23.3166 29.0976 22.6834 28.7071 22.2929L27.4142 21H37C38.6569 21 40 19.6569 40 18V7C40 5.34315 38.6569 4 37 4H10V2C10 0.895431 9.10457 0 8 0H2ZM8 2H2V8H8V2Z" fill="#3D75E4"/>
<path d="M26.2929 37.2929C25.9024 37.6834 25.9024 38.3166 26.2929 38.7071C26.6834 39.0976 27.3166 39.0976 27.7071 38.7071L30.7071 35.7071C31.0976 35.3166 31.0976 34.6834 30.7071 34.2929L27.7071 31.2929C27.3166 30.9024 26.6834 30.9024 26.2929 31.2929C25.9024 31.6834 25.9024 32.3166 26.2929 32.7071L28.5858 35L26.2929 37.2929Z" fill="#3D75E4"/>
<path d="M15 17C15 15.8954 15.8954 15 17 15H23C24.1046 15 25 15.8954 25 17C25 17.5523 24.5523 18 24 18C23.4477 18 23 17.5523 23 17H17V23H23C23 22.4477 23.4477 22 24 22C24.5523 22 25 22.4477 25 23C25 24.1046 24.1046 25 23 25H17C15.8954 25 15 24.1046 15 23V21H13C12.4477 21 12 20.5523 12 20C12 19.4477 12.4477 19 13 19H15V17Z" fill="#3D75E4"/>
<path d="M38 40C39.1046 40 40 39.1046 40 38V32C40 30.8954 39.1046 30 38 30H32C30.8954 30 30 30.8954 30 32C30 32.5523 30.4477 33 31 33C31.5523 33 32 32.5523 32 32H38V38H32C32 37.4477 31.5523 37 31 37C30.4477 37 30 37.4477 30 38C30 39.1046 30.8954 40 32 40H38Z" fill="#3D75E4"/>
<path d="M5 20C5 19.4477 5.44772 19 6 19H10C10.5523 19 11 19.4477 11 20C11 20.5523 10.5523 21 10 21H6C5.44772 21 5 20.5523 5 20Z" fill="#3D75E4"/>
<path d="M7 34C6.44772 34 6 34.4477 6 35C6 35.5523 6.44772 36 7 36H11C11.5523 36 12 35.5523 12 35C12 34.4477 11.5523 34 11 34H7Z" fill="#3D75E4"/>
<path d="M13 35C13 34.4477 13.4477 34 14 34H18C18.5523 34 19 34.4477 19 35C19 35.5523 18.5523 36 18 36H14C13.4477 36 13 35.5523 13 35Z" fill="#3D75E4"/>
<path d="M21 34C20.4477 34 20 34.4477 20 35C20 35.5523 20.4477 36 21 36H25C25.5523 36 26 35.5523 26 35C26 34.4477 25.5523 34 25 34H21Z" fill="#3D75E4"/>
<path d="M1 31C0.447715 31 0 30.5523 0 30V26C0 25.4477 0.447715 25 1 25C1.55228 25 2 25.4477 2 26V30C2 30.5523 1.55228 31 1 31Z" fill="#3D75E4"/>
<path d="M0 22C0 20.3431 1.34315 19 3 19C3.55228 19 4 19.4477 4 20C4 20.5523 3.55228 21 3 21C2.44772 21 2 21.4477 2 22V23C2 23.5523 1.55228 24 1 24C0.447715 24 0 23.5523 0 23V22Z" fill="#3D75E4"/>
<path d="M0 33C0 34.6569 1.34315 36 3 36H4C4.55228 36 5 35.5523 5 35C5 34.4477 4.55228 34 4 34H3C2.44772 34 2 33.5523 2 33C2 32.4477 1.55228 32 1 32C0.447715 32 0 32.4477 0 33Z" fill="#3D75E4"/>
</svg>
