<svg width="40" height="40" viewBox="0 0 40 40" fill="none" xmlns="http://www.w3.org/2000/svg">
<path fill-rule="evenodd" clip-rule="evenodd" d="M12 0C10.8954 0 10 0.895431 10 2V10C10 11.1046 10.8954 12 12 12V12.882C12 13.6077 12.4354 14.1813 12.6358 14.4453L12.6707 14.4915C12.7764 14.6325 12.7764 14.8675 12.6707 15.0085L12.6358 15.0547C12.4354 15.3187 12 15.8923 12 16.618V17C12 18.1046 12.8954 19 14 19H21C21.5523 19 22 18.5523 22 18C22 17.4477 21.5523 17 21 17H14V16.6287C14.0026 16.6197 14.0106 16.5966 14.0323 16.556C14.0798 16.4672 14.1503 16.3693 14.2712 16.2078C14.9096 15.3559 14.9096 14.1441 14.2712 13.2922C14.1503 13.1307 14.0798 13.0328 14.0323 12.944C14.0106 12.9034 14.0026 12.8803 14 12.8713V12H26V12.8713C25.9974 12.8803 25.9894 12.9034 25.9677 12.944C25.9202 13.0328 25.8497 13.1307 25.7288 13.2922C25.0904 14.1441 25.0904 15.3559 25.7288 16.2078C25.8497 16.3693 25.9202 16.4672 25.9677 16.556C25.9894 16.5966 25.9974 16.6197 26 16.6287V17H24C23.4477 17 23 17.4477 23 18C23 18.5523 23.4477 19 24 19H24.5013C24.5152 22.3375 24.6715 25.8498 26.4361 30H18C17.4477 30 17 30.4477 17 31C17 31.5523 17.4477 32 18 32H27.9798L28 32.0002V34H27C26.4477 34 26 34.4477 26 35C26 35.5523 26.4477 36 27 36H30C30.5523 36 31 36.4477 31 37V38H9V37C9 36.4477 9.44772 36 10 36H24C24.5523 36 25 35.5523 25 35C25 34.4477 24.5523 34 24 34H12V32.0002C12.0069 32.0002 12.0138 32.0001 12.0206 32H15C15.5523 32 16 31.5523 16 31C16 30.4477 15.5523 30 15 30H13.5639C14.9706 26.6923 15.3559 23.7902 15.4607 21.0381C15.4817 20.4862 15.0513 20.0217 14.4995 20.0007C13.9476 19.9797 13.4831 20.4101 13.4621 20.962C13.3541 23.7992 12.9374 26.7145 11.3168 30.1197C10.5486 30.3989 10 31.1354 10 32V34C8.34315 34 7 35.3431 7 37V38C7 39.1046 7.89543 40 9 40H31C32.1046 40 33 39.1046 33 38V37C33 35.3431 31.6569 34 30 34V32C30 31.1353 29.4513 30.3988 28.6831 30.1197C26.6829 25.9174 26.5153 22.4657 26.5013 18.9367C27.3632 18.7142 28 17.9315 28 17V16.618C28 15.8923 27.5646 15.3187 27.3642 15.0547L27.3293 15.0085C27.2236 14.8675 27.2236 14.6325 27.3293 14.4915L27.3642 14.4453C27.5646 14.1813 28 13.6077 28 12.882V12C29.1046 12 30 11.1046 30 10V2C30 0.895431 29.1046 0 28 0C26.3431 0 25 1.34315 25 3V4H23V2C23 0.895431 22.1046 0 21 0H19C17.8954 0 17 0.895431 17 2V4H15V3C15 1.34315 13.6569 0 12 0ZM28 10V2C27.4477 2 27 2.44772 27 3V5C27 5.55228 26.5523 6 26 6H22C21.4477 6 21 5.55228 21 5V2H19V5C19 5.55228 18.5523 6 18 6H14C13.4477 6 13 5.55228 13 5V3C13 2.44772 12.5523 2 12 2V10H28Z" fill="#3D75E4"/>
</svg>
