<svg width="40" height="40" viewBox="0 0 40 40" fill="none" xmlns="http://www.w3.org/2000/svg">
<path d="M18.0002 4.49998C18.0002 3.11928 19.1195 2 20.5003 2C21.881 2 23.0003 3.1193 23.0003 4.5C23.0003 6.98528 25.015 9 27.5003 9H29C29.5523 9 30 8.55228 30 8C30 7.44772 29.5523 7 29 7H27.5003C26.1196 7 25.0003 5.88071 25.0003 4.5C25.0003 2.01471 22.9855 0 20.5003 0C18.015 0 16.0003 2.01465 16.0002 4.49991L16 10.0076C16 10.5598 16.4477 11.0076 17 11.0076C17.5523 11.0076 18 10.5599 18 10.0076L18.0002 4.49998Z" fill="#3D75E4"/>
<path fill-rule="evenodd" clip-rule="evenodd" d="M14.9577 9.11209C15.1166 9.64101 14.8167 10.1986 14.2877 10.3575C13.7501 10.5191 13.3774 10.7094 13.1611 10.8787C13.0957 10.9299 13.0547 10.9705 13.0294 10.9997C13.042 11.0142 13.0586 11.0316 13.08 11.0519C13.2106 11.1754 13.4532 11.3326 13.8359 11.4857C14.5957 11.7896 15.7139 12 17 12C18.2861 12 19.4043 11.7896 20.1641 11.4857C20.5468 11.3326 20.7894 11.1754 20.92 11.0519C20.9414 11.0316 20.958 11.0142 20.9706 10.9997C20.9453 10.9705 20.9043 10.9299 20.8389 10.8787C20.6226 10.7094 20.2499 10.5191 19.7123 10.3575C19.1833 10.1986 18.8834 9.64101 19.0423 9.11209C19.2012 8.58316 19.7588 8.28321 20.2877 8.44212C20.9645 8.64547 21.5918 8.92808 22.0719 9.30401C22.5427 9.67263 23 10.2402 23 11V14C23 14.6397 22.6718 15.148 22.2942 15.505C21.9187 15.8601 21.4291 16.1338 20.9069 16.3427C19.8571 16.7626 18.4754 17 17 17C15.7922 17 14.6548 16.8411 13.7123 16.5579C13.1833 16.3989 12.8834 15.8413 13.0423 15.3124C13.2012 14.7835 13.7588 14.4835 14.2877 14.6424C15.0165 14.8614 15.9566 15 17 15C18.2861 15 19.4043 14.7897 20.1641 14.4857C20.5468 14.3327 20.7894 14.1754 20.92 14.0519C20.9656 14.0088 20.9889 13.9787 21 13.9618V13.3046C20.9691 13.3175 20.9381 13.3302 20.9069 13.3427C19.8571 13.7626 18.4754 14 17 14C15.5246 14 14.1429 13.7626 13.0931 13.3427C13.0619 13.3302 13.0309 13.3175 13 13.3046V14C13 14.4449 12.7095 14.8219 12.3079 14.9517C8.0104 16.7793 5 21.0392 5 26C5 32.6274 10.3726 38 17 38C23.6274 38 29 32.6274 29 26C29 22.1581 27.1957 18.7381 24.3841 16.5401C23.949 16.2 23.872 15.5715 24.2122 15.1364C24.5523 14.7013 25.1808 14.6243 25.6159 14.9645C28.8914 17.5252 31 21.5166 31 26C31 33.732 24.732 40 17 40C9.26801 40 3 33.732 3 26C3 20.4137 6.27167 15.5936 11 13.3475V11C11 10.2402 11.4573 9.67263 11.9281 9.30401C12.4082 8.92808 13.0355 8.64547 13.7123 8.44212C14.2412 8.28321 14.7988 8.58316 14.9577 9.11209Z" fill="#3D75E4"/>
<path d="M8.95525 22.0683C9.46982 22.2689 9.72436 22.8486 9.52378 23.3632C9.18559 24.2308 9 25.1731 9 26.16C9 27.1469 9.18559 28.0892 9.52378 28.9568C9.72436 29.4714 9.46982 30.0511 8.95525 30.2517C8.44067 30.4523 7.86093 30.1978 7.66035 29.6832C7.23354 28.5882 7 27.3999 7 26.16C7 24.9201 7.23354 23.7318 7.66035 22.6368C7.86093 22.1222 8.44067 21.8677 8.95525 22.0683Z" fill="#3D75E4"/>
<path d="M29 0C29.5523 0 30 0.447715 30 1V3C30 3.55228 29.5523 4 29 4C28.4477 4 28 3.55228 28 3V1C28 0.447715 28.4477 0 29 0Z" fill="#3D75E4"/>
<path d="M34.1214 4.29289C34.5119 3.90237 34.5119 3.2692 34.1214 2.87868C33.7309 2.48815 33.0977 2.48815 32.7072 2.87868L31.293 4.29289C30.9025 4.68341 30.9025 5.31658 31.293 5.7071C31.6835 6.09763 32.3167 6.09763 32.7072 5.7071L34.1214 4.29289Z" fill="#3D75E4"/>
<path d="M31.2929 10.2929C30.9024 10.6834 30.9024 11.3166 31.2929 11.7071L32.7071 13.1213C33.0976 13.5118 33.7308 13.5118 34.1213 13.1213C34.5118 12.7308 34.5118 12.0976 34.1213 11.7071L32.7071 10.2929C32.3166 9.90237 31.6834 9.90237 31.2929 10.2929Z" fill="#3D75E4"/>
<path d="M36 9C36.5523 9 37 8.55229 37 8C37 7.44772 36.5523 7 36 7H34C33.4477 7 33 7.44772 33 8C33 8.55228 33.4477 9 34 9H36Z" fill="#3D75E4"/>
</svg>
