<svg width="40" height="40" viewBox="0 0 40 40" fill="none" xmlns="http://www.w3.org/2000/svg">
<path fill-rule="evenodd" clip-rule="evenodd" d="M19.5316 3.81373C19.6692 3.27887 20.2144 2.95689 20.7493 3.09455C21.8049 3.36625 22.6337 4.19508 22.9054 5.25072C23.0431 5.78557 22.7211 6.33075 22.1862 6.46841C21.6514 6.60608 21.1062 6.28409 20.9686 5.74924C20.8785 5.39927 20.6007 5.1215 20.2507 5.03142C19.7159 4.89376 19.3939 4.34858 19.5316 3.81373Z" fill="#3D75E4"/>
<path fill-rule="evenodd" clip-rule="evenodd" d="M24.4722 10C25.4223 8.93849 26 7.53671 26 6C26 2.68629 23.3137 0 20 0C16.6863 0 14 2.68629 14 6C14 7.53671 14.5777 8.93849 15.5278 10H15C13.3431 10 12 11.3431 12 13C12 14.6569 13.3431 16 15 16H21C21.5523 16 22 15.5523 22 15C22 14.4477 21.5523 14 21 14H15C14.4477 14 14 13.5523 14 13C14 12.4477 14.4477 12 15 12H25C25.5523 12 26 12.4477 26 13C26 13.5523 25.5523 14 25 14C23.8975 14 22.9943 14.8957 23.0044 16.0094C23.0321 19.0848 23.2015 22.0897 23.8022 24.766C24.2323 26.6822 24.8914 28.4662 25.9046 30H18C17.4477 30 17 30.4477 17 31C17 31.5523 17.4477 32 18 32H27.999L28 34H27C26.4477 34 26 34.4477 26 35C26 35.5523 26.4477 36 27 36H30C30.5523 36 31 36.4477 31 37V38H9V37C9 36.4477 9.44772 36 10 36H24C24.5523 36 25 35.5523 25 35C25 34.4477 24.5523 34 24 34H12V32L12.0048 32H15C15.5523 32 16 31.5523 16 31C16 30.4477 15.5523 30 15 30H14.0952C16.2049 26.8062 16.7995 22.4955 16.9533 18.0345C16.9724 17.4825 16.5403 17.0196 15.9884 17.0006C15.4364 16.9816 14.9736 17.4136 14.9545 17.9656C14.7768 23.1205 13.9938 27.3858 11.5187 30.0583C10.6466 30.2738 10 31.0614 10 32V34C8.34315 34 7 35.3431 7 37V38C7 39.1046 7.89543 40 9 40H31C32.1046 40 33 39.1046 33 38V37C33 35.3431 31.6569 34 30 34V32C30 31.0614 29.3534 30.2738 28.4814 30.0583C27.1328 28.6021 26.2777 26.6625 25.7537 24.328C25.2008 21.8646 25.032 19.0326 25.0044 16C26.6592 15.9976 28 14.6554 28 13C28 11.3431 26.6569 10 25 10H24.4722ZM16 6C16 3.79086 17.7909 2 20 2C22.2091 2 24 3.79086 24 6C24 8.20914 22.2091 10 20 10C17.7909 10 16 8.20914 16 6Z" fill="#3D75E4"/>
</svg>
