<svg width="40" height="40" viewBox="0 0 40 40" fill="none" xmlns="http://www.w3.org/2000/svg">
<path fill-rule="evenodd" clip-rule="evenodd" d="M17.1031 24.4212C16.6345 24.1823 16.3125 24.1435 16.1032 24.2096C13.1855 25.1313 9.00737 27.6299 8.13647 32.1969C8.09834 32.3969 8.15648 32.5757 8.29803 32.7252C8.44828 32.8839 8.69024 33 8.97262 33H31.0274C31.3098 33 31.5517 32.8839 31.702 32.7252C31.8435 32.5757 31.9017 32.3969 31.8635 32.1969C30.9926 27.6299 26.8145 25.1313 23.8968 24.2096C23.6874 24.1435 23.3655 24.1823 22.8969 24.4212C22.0007 24.8782 20.9944 25.0999 20 25.0999M15.4979 22.3029C16.4646 21.9976 17.3858 22.3193 18.0156 22.6404C18.6078 22.9423 19.2979 23.0999 20 23.0999C20.7021 23.0999 21.3922 22.9423 21.9844 22.6404C22.6142 22.3193 23.5354 21.9976 24.5021 22.3029C27.6876 23.3092 32.7563 26.1762 33.8332 31.8231C34.1826 33.6553 32.6224 35 31.0274 35H8.97262C7.37757 35 5.81743 33.6553 6.16682 31.8231C7.24367 26.1762 12.3124 23.3092 15.4979 22.3029ZM17.1031 24.4212C17.9993 24.8782 19.0057 25.0999 20 25.0999L17.1031 24.4212Z" fill="#3D75E4"/>
<path fill-rule="evenodd" clip-rule="evenodd" d="M20 5C17.0307 5 15.1198 5.92069 14.261 7.25488C14.0455 7.58967 13.9851 7.94764 13.9851 8.23607V14C13.9851 16.2167 14.7145 18.176 15.7764 19.5975C16.8126 20.9845 18.2846 22 19.8224 22C21.7673 22 23.3355 20.6415 24.3613 18.8626C25.4028 17.0566 26.0149 14.6281 26.0149 11.9999L26.0147 8.23591C26.0147 7.94762 25.9543 7.58979 25.7389 7.2551C24.8803 5.92071 22.9693 5 20 5ZM15.99 14C15.99 15.7833 16.5784 17.324 17.3841 18.4025C18.2156 19.5155 19.161 20 19.8224 20C20.744 20 21.7708 19.3438 22.6234 17.8653C23.4603 16.414 24.0099 14.3424 24.01 12.0001L24.0098 8.27433C23.6316 7.75388 22.5334 7 20 7C17.4667 7 16.3684 7.75383 15.99 8.27438V9.98991C17.1103 9.62879 18.2409 9.5 19.2418 9.5C20.6697 9.5 21.9499 9.76301 22.6702 10.0896C23.1743 10.3182 23.3971 10.911 23.168 11.4138C22.9389 11.9166 22.3446 12.1389 21.8406 11.9104C21.4582 11.737 20.4829 11.5 19.2418 11.5C18.196 11.5 17.0461 11.669 15.99 12.1242V14Z" fill="#3D75E4"/>
<path fill-rule="evenodd" clip-rule="evenodd" d="M33.4806 21.1961C33.847 21.0637 34.3456 20.9868 34.8574 21.1781C36.6548 21.8496 39.5234 23.888 39.9867 27.8857C40.1281 29.1051 39.1175 30 38.045 30H35.0375C34.4838 30 34.035 29.5523 34.035 29C34.035 28.4477 34.4838 28 35.0375 28H37.9807C37.5923 25.0727 35.5067 23.5714 34.1955 23.0667C34.187 23.0687 34.1763 23.0719 34.1635 23.0765C33.0993 23.4611 32.0579 23.4825 31.0284 23.0917C31.0072 23.0836 30.9897 23.0785 30.9762 23.0753C30.9743 23.0749 30.9725 23.0745 30.9708 23.0741C30.7137 23.1734 30.4167 23.3139 30.1029 23.5002C29.6272 23.7826 29.0119 23.6268 28.7288 23.1522C28.4456 22.6776 28.6018 22.0639 29.0776 21.7815C29.5069 21.5266 29.9247 21.3298 30.3036 21.1874C30.8482 20.9829 31.374 21.0829 31.7415 21.2225C32.2787 21.4264 32.8225 21.4339 33.4806 21.1961ZM34.1541 23.051C34.1541 23.051 34.1542 23.051 34.1541 23.051V23.051Z" fill="#3D75E4"/>
<path fill-rule="evenodd" clip-rule="evenodd" d="M28.2731 9.96852C28.9607 8.9512 30.4203 8.33075 32.5311 8.33075C34.6419 8.33075 36.1017 8.95121 36.7891 9.96872C36.9879 10.2629 37.0422 10.5763 37.0422 10.8213L37.0423 13.3307C37.0423 15.2236 36.6042 16.9154 35.8288 18.1685C35.0568 19.4161 33.8701 20.3307 32.4068 20.3307C31.1136 20.3307 30.0034 19.3375 29.2829 18.1663C28.5245 16.9336 28.0199 15.2498 28.0199 13.3307V10.8215C28.0199 10.5763 28.0742 10.2628 28.2731 9.96852ZM30.0249 10.9816V11.8181C31.6187 11.335 33.4434 11.3349 35.0373 11.8181L35.0372 10.9815C34.7837 10.7313 34.0962 10.3307 32.5311 10.3307C30.9661 10.3307 30.2785 10.7313 30.0249 10.9816ZM30.0456 13.9353C30.1361 15.2477 30.5143 16.3442 30.9917 17.1202C31.5785 18.074 32.1605 18.3307 32.4068 18.3307C32.95 18.3307 33.5798 17.9954 34.1227 17.118C34.5927 16.3584 34.938 15.2675 35.0191 13.9364C33.5237 13.2959 31.5415 13.2955 30.0456 13.9353Z" fill="#3D75E4"/>
<path fill-rule="evenodd" clip-rule="evenodd" d="M6.51942 21.1961C6.15301 21.0637 5.65438 20.9868 5.14258 21.1781C3.34521 21.8496 0.476621 23.888 0.0132685 27.8857C-0.128061 29.1051 0.882497 30 1.95505 30H4.96251C5.51617 30 5.965 29.5523 5.965 29C5.965 28.4477 5.51617 28 4.96251 28H2.01932C2.40769 25.0727 4.49327 23.5714 5.80451 23.0667C5.81297 23.0687 5.82367 23.0719 5.83645 23.0765C6.90065 23.4611 7.94205 23.4825 8.97157 23.0917C8.99277 23.0836 9.01028 23.0785 9.02376 23.0753C9.02569 23.0749 9.0275 23.0745 9.02919 23.0741C9.28634 23.1734 9.58327 23.3139 9.89706 23.5002C10.3728 23.7826 10.9881 23.6268 11.2712 23.1522C11.5544 22.6776 11.3982 22.0639 10.9224 21.7815C10.4931 21.5266 10.0753 21.3298 9.69643 21.1874C9.15183 20.9829 8.62604 21.0829 8.2585 21.2225C7.72125 21.4264 7.1775 21.4339 6.51942 21.1961ZM5.84585 23.051C5.84591 23.051 5.8458 23.051 5.84585 23.051V23.051Z" fill="#3D75E4"/>
<path fill-rule="evenodd" clip-rule="evenodd" d="M11.7269 9.96852C11.0393 8.9512 9.57972 8.33075 7.46889 8.33075C5.35807 8.33075 3.89834 8.95121 3.21087 9.96872C3.01211 10.2629 2.95784 10.5763 2.95782 10.8213L2.95769 13.3307C2.95769 15.2236 3.39581 16.9154 4.17119 18.1685C4.94317 19.4161 6.1299 20.3307 7.59318 20.3307C8.88639 20.3307 9.9966 19.3375 10.7171 18.1663C11.4755 16.9336 11.9801 15.2498 11.9801 13.3307V10.8215C11.9801 10.5763 11.9258 10.2628 11.7269 9.96852ZM9.97511 10.9816V11.8181C8.3813 11.335 6.55657 11.3349 4.96275 11.8181L4.96279 10.9815C5.21632 10.7313 5.90378 10.3307 7.46889 10.3307C9.03393 10.3307 9.72147 10.7313 9.97511 10.9816ZM9.95444 13.9353C9.86392 15.2477 9.48568 16.3442 9.00828 17.1202C8.42146 18.074 7.83946 18.3307 7.59318 18.3307C7.05001 18.3307 6.42024 17.9954 5.87733 17.118C5.40729 16.3584 5.062 15.2675 4.98087 13.9364C6.47629 13.2959 8.45847 13.2955 9.95444 13.9353Z" fill="#3D75E4"/>
</svg>
