<svg width="40" height="40" viewBox="0 0 40 40" fill="none" xmlns="http://www.w3.org/2000/svg">
<g clip-path="url(#clip0)">
<path d="M30.1363 4.96621C30.708 2.83235 32.9014 1.56602 35.0352 2.13779C37.1691 2.70955 38.4354 4.9029 37.8637 7.03677C37.4631 8.53177 36.2662 9.60274 34.8476 9.91173C34.7095 9.41901 34.2155 9.10439 33.7027 9.19944C33.1596 9.30009 32.801 9.82189 32.9016 10.3649C33.3512 12.7906 30.7513 14.8327 28.2868 13.8778C27.7718 13.6783 27.1926 13.934 26.9931 14.449C26.7935 14.964 27.0493 15.5432 27.5643 15.7428C30.5339 16.8933 33.9685 15.195 34.7806 12.2873C34.837 12.0852 34.9951 11.9234 35.2007 11.8812C37.3536 11.4401 39.1869 9.82585 39.7955 7.5544C40.6532 4.35361 38.7537 1.06358 35.5529 0.205934C33.5837 -0.321696 31.5808 0.194186 30.1313 1.4146C29.7376 1.74603 29.1682 1.80898 28.6997 1.59621C26.8287 0.746576 24.4177 1.11303 22.7459 2.58469C22.449 2.84602 22.0422 2.95599 21.6556 2.87257C20.2033 2.5592 18.4991 2.70881 16.981 3.47527C15.1869 4.38112 13.7077 6.12124 13.1946 8.82266C12.8461 10.6576 14.4122 12.0015 16.0001 12.0015H25.0001C25.5524 12.0015 26.0001 11.5538 26.0001 11.0015C26.0001 10.4492 25.5524 10.0015 25.0001 10.0015H16.0001C15.7188 10.0015 15.4751 9.885 15.3229 9.72444C15.1794 9.57304 15.1219 9.39363 15.1595 9.19582C15.5602 7.0859 16.6598 5.87792 17.8824 5.26061C18.9639 4.71458 20.1843 4.60972 21.197 4.81972C21.1402 4.96706 21.0884 5.11867 21.0419 5.27454C20.884 5.80378 21.1851 6.36079 21.7143 6.51866C22.2435 6.67653 22.8006 6.37547 22.9584 5.84623C23.76 3.15901 26.8685 2.52069 28.4148 3.7468C28.4209 3.75165 28.4271 3.75642 28.4333 3.7611C28.3444 3.98277 28.2678 4.21212 28.2044 4.44857C28.0615 4.98204 28.3781 5.53038 28.9115 5.67332C29.445 5.81626 29.9933 5.49968 30.1363 4.96621Z" fill="#3D75E4"/>
<path d="M14.9915 15.0182C14.9916 15.0137 14.9931 15.0098 14.9931 15.0098C14.994 15.0076 14.9955 15.0053 14.9975 15.0033L14.9997 15.0015L24 15.0015L24.0015 15.0026C24.003 15.0041 24.0044 15.0067 24.0044 15.0067C24.0044 15.0067 24.0052 15.0084 24.0052 15.0119C24.03 17.3903 24.1438 19.577 24.3553 21.6052C24.4125 22.1545 24.9043 22.5533 25.4536 22.4961C26.0029 22.4388 26.4018 21.9471 26.3445 21.3978C26.1407 19.4426 26.0293 17.3193 26.0051 14.9911C25.9937 13.8976 25.1074 13.0015 24 13.0015H15C13.891 13.0015 13.0099 13.8979 12.9918 14.9848C12.8489 23.5392 10.8474 31.5333 7.41123 36.7507C6.55706 38.0476 7.38501 40.0015 9.11024 40.0015L37 40.0015C38.6569 40.0015 40 38.6583 40 37.0015V24.0579C40 22.3894 38.0773 21.4545 36.765 22.4848L31.5 26.6183V24.0579C31.5 22.3894 29.5773 21.4545 28.265 22.4848L22.1474 27.2877C21.423 27.8564 21 28.7264 21 29.6473V36.0015C21 36.5537 21.4477 37.0015 22 37.0015C22.5523 37.0015 23 36.5537 23 36.0015V29.6473C23 29.3403 23.141 29.0504 23.3825 28.8608L29.5 24.0579V28.6748C29.5 29.0575 29.7185 29.4067 30.0627 29.5741C30.4069 29.7415 30.8165 29.6977 31.1175 29.4613L38 24.0579V37.0015C38 37.5537 37.5523 38.0015 37 38.0015L9.11024 38.0015L9.10692 38.0014C9.1029 37.9982 9.0925 37.9884 9.08241 37.9682C9.07061 37.9446 9.06563 37.9192 9.06635 37.8983C9.06696 37.8807 9.07128 37.8663 9.08151 37.8507C12.7965 32.2102 14.8448 23.8012 14.9915 15.0182Z" fill="#3D75E4"/>
<path d="M7 19.0015C7 18.4492 7.44771 18.0015 8 18.0015H13.5C14.0523 18.0015 14.5 18.4492 14.5 19.0015C14.5 19.5538 14.0523 20.0015 13.5 20.0015H8C7.44771 20.0015 7 19.5538 7 19.0015Z" fill="#3D75E4"/>
<path d="M8.65662 23.0126C8.63993 23.03 8.6267 23.0581 8.62626 23.0904C8.58745 25.9518 7.70083 29.1324 6.43149 32.0468C5.15976 34.9667 3.46972 37.6975 1.75259 39.66C1.38891 40.0756 0.757146 40.1177 0.341509 39.754C-0.0741271 39.3904 -0.116245 38.7586 0.247437 38.343C1.80708 36.5605 3.39382 34.0126 4.59786 31.2482C5.8043 28.4782 6.59246 25.5689 6.62645 23.0632C6.64101 21.9899 7.49053 21.0015 8.67184 21.0015H13C13.5523 21.0015 14 21.4492 14 22.0015C14 22.5538 13.5523 23.0015 13 23.0015H8.67184L8.67063 23.0015C8.67063 23.0015 8.66413 23.0047 8.65662 23.0126Z" fill="#3D75E4"/>
<path d="M30 32.0015C30 32.5538 29.5523 33.0015 29 33.0015H26C25.4477 33.0015 25 32.5538 25 32.0015C25 31.4492 25.4477 31.0015 26 31.0015H29C29.5523 31.0015 30 31.4492 30 32.0015Z" fill="#3D75E4"/>
<path d="M29 36.0015C29.5523 36.0015 30 35.5538 30 35.0015C30 34.4492 29.5523 34.0015 29 34.0015H26C25.4477 34.0015 25 34.4492 25 35.0015C25 35.5538 25.4477 36.0015 26 36.0015H29Z" fill="#3D75E4"/>
<path d="M36 32.0015C36 32.5538 35.5523 33.0015 35 33.0015H32C31.4477 33.0015 31 32.5538 31 32.0015C31 31.4492 31.4477 31.0015 32 31.0015H35C35.5523 31.0015 36 31.4492 36 32.0015Z" fill="#3D75E4"/>
<path d="M35 36.0015C35.5523 36.0015 36 35.5538 36 35.0015C36 34.4492 35.5523 34.0015 35 34.0015H32C31.4477 34.0015 31 34.4492 31 35.0015C31 35.5538 31.4477 36.0015 32 36.0015H35Z" fill="#3D75E4"/>
</g>
<defs>
<clipPath id="clip0">
<rect width="40" height="40" fill="white"/>
</clipPath>
</defs>
</svg>
