<svg width="40" height="40" viewBox="0 0 40 40" fill="none" xmlns="http://www.w3.org/2000/svg">
<g clip-path="url(#clip0)">
<path fill-rule="evenodd" clip-rule="evenodd" d="M20 0C15.0294 0 11 4.02944 11 9V10.7229L9.05116 13.971C8.4615 14.9538 8.82846 16.1338 9.68494 16.6861C9.29187 17.5102 9.18415 18.4378 9.3261 19.2895C9.5295 20.5099 10.2716 21.6947 11.5424 22.2443C11.7892 24.4449 13.1118 26.9033 15.4917 28.3193C15.4869 28.4382 15.4792 28.5836 15.467 28.7452C15.4363 29.1523 15.3798 29.6234 15.2826 30.0259C13.4957 30.1532 11.635 30.7447 10 31.6743V29H12.5C13.0523 29 13.5 28.5523 13.5 28C13.5 27.4477 13.0523 27 12.5 27H7C6.44772 27 6 26.5523 6 26V23C6 22.4477 6.44772 22 7 22H7.67857C8.23086 22 8.67857 21.5523 8.67857 21C8.67857 20.4477 8.23086 20 7.67857 20H7C5.34315 20 4 21.3431 4 23V26C4 27.6569 5.34315 29 7 29H8V33.0859C6.55935 34.3424 5.44609 35.9581 5.10628 37.826C4.87349 39.1057 5.95478 40 6.99999 40H15.996L16 40L16.0039 40H23.9961L24 40L24.004 40H33C34.0452 40 35.1265 39.1057 34.8937 37.826C34.5539 35.9581 33.4406 34.3424 32 33.0859V29H33C34.6569 29 36 27.6569 36 26V23C36 21.3431 34.6569 20 33 20H32.3214C31.7691 20 31.3214 20.4477 31.3214 21C31.3214 21.5523 31.7691 22 32.3214 22H33C33.5523 22 34 22.4477 34 23V26C34 26.5523 33.5523 27 33 27H27.5C26.9477 27 26.5 27.4477 26.5 28C26.5 28.5523 26.9477 29 27.5 29H30V31.6744C28.365 30.7447 26.5042 30.1532 24.7174 30.0259C24.6202 29.6234 24.5637 29.1523 24.533 28.7452C24.5208 28.5836 24.5131 28.4382 24.5082 28.3193C26.8882 26.9033 28.2108 24.4449 28.4576 22.2443C29.7284 21.6947 30.4705 20.5099 30.6739 19.2895C30.8159 18.4378 30.7081 17.5102 30.315 16.686C31.1715 16.1337 31.5384 14.9538 30.9488 13.971L29 10.7231V9C29 4.02944 24.9706 0 20 0ZM25.0437 38H27.0619C27.2063 36.7066 27.6323 34.8366 28.6347 33.2082C27.3331 32.5328 25.8977 32.1109 24.5489 32.019C23.893 31.9743 23.0706 31.5867 22.8227 30.6868C22.6817 30.1752 22.6043 29.6164 22.5607 29.1556C21.7828 29.3769 20.9291 29.5001 20 29.5001L19.9956 29.5001C19.0682 29.4997 18.2159 29.3765 17.4392 29.1556C17.3957 29.6164 17.3183 30.1752 17.1773 30.6868C16.9293 31.5867 16.107 31.9743 15.451 32.019C14.1023 32.1109 12.6669 32.5328 11.3653 33.2082C12.3677 34.8366 12.7937 36.7066 12.9381 38H14.9563C14.878 36.9943 14.6839 35.6368 14.2934 34.2758C14.1411 33.7449 14.448 33.1911 14.9789 33.0388C15.5097 32.8865 16.0636 33.1934 16.2159 33.7242C16.6663 35.2943 16.8819 36.8529 16.9617 38H23.0383C23.1181 36.8529 23.3337 35.2943 23.7841 33.7242C23.9364 33.1934 24.4903 32.8865 25.0211 33.0388C25.552 33.1911 25.8589 33.7449 25.7066 34.2758C25.3161 35.6368 25.122 36.9943 25.0437 38ZM10.7662 15L12.5662 12H15C15.5522 12 16 11.5523 16 11C16 10.4477 15.5522 10 15 10H13V9C13 5.13401 16.134 2 20 2C23.866 2 27 5.13401 27 9V10H18C17.4477 10 17 10.4477 17 11C17 11.5523 17.4477 12 18 12H27.4338L29.2338 15H10.7662ZM11.2989 18.9607C11.1797 18.2456 11.3809 17.5035 11.8723 17H13.1707C13.0602 17.3128 13 17.6494 13 18C13 19.6569 14.3431 21 16 21H18C18.7684 21 19.4692 20.7111 20 20.2361C20.5308 20.7111 21.2316 21 22 21H24C25.6569 21 27 19.6569 27 18C27 17.6494 26.9398 17.3128 26.8293 17H28.1277C28.6191 17.5035 28.8203 18.2456 28.7011 18.9607C28.5673 19.7639 28.0655 20.3672 27.3039 20.5195C26.8365 20.613 26.5 21.0234 26.5 21.5001C26.5 23.9576 24.4962 27.2774 20.4157 27.4894C20.2807 27.4964 20.1435 27.5 20.004 27.5001L20 27.5001C15.6398 27.5001 13.5 24.0396 13.5 21.5001C13.5 21.0234 13.1635 20.613 12.6961 20.5195C11.9345 20.3672 11.4328 19.7639 11.2989 18.9607ZM24 17H22C21.4477 17 21 17.4477 21 18C21 18.5523 21.4477 19 22 19H24C24.5523 19 25 18.5523 25 18C25 17.4477 24.5523 17 24 17ZM19 18C19 17.4477 18.5523 17 18 17H16C15.4477 17 15 17.4477 15 18C15 18.5523 15.4477 19 16 19H18C18.5523 19 19 18.5523 19 18ZM30.3182 34.2887C29.5762 35.5089 29.2175 36.9478 29.0761 38H32.8887C32.5816 36.6278 31.6496 35.3365 30.3182 34.2887ZM7.11131 38C7.41835 36.6278 8.35034 35.3365 9.68179 34.2887C10.4238 35.5088 10.7825 36.9478 10.9239 38H7.11131Z" fill="#3D75E4"/>
</g>
<defs>
<clipPath id="clip0">
<rect width="40" height="40" fill="white"/>
</clipPath>
</defs>
</svg>
