<svg width="40" height="40" viewBox="0 0 40 40" fill="none" xmlns="http://www.w3.org/2000/svg">
<path d="M28.293 21.1777C27.9025 20.7967 27.9025 20.1789 28.293 19.7979L32.293 15.8955C32.6836 15.5145 33.3167 15.5145 33.7073 15.8955C34.0978 16.2765 34.0978 16.8942 33.7073 17.2752L29.7073 21.1777C29.3167 21.5587 28.6836 21.5587 28.293 21.1777Z" fill="#3D75E4"/>
<path d="M6.29304 19.7979C5.90252 20.1789 5.90252 20.7967 6.29304 21.1777C6.68357 21.5587 7.31673 21.5587 7.70726 21.1777L11.7073 17.2752C12.0978 16.8942 12.0978 16.2765 11.7073 15.8955C11.3167 15.5145 10.6836 15.5145 10.293 15.8955L6.29304 19.7979Z" fill="#3D75E4"/>
<path d="M29.293 24.1045C28.9025 23.7235 28.9025 23.1058 29.293 22.7248L31.293 20.7736C31.6836 20.3926 32.3167 20.3926 32.7073 20.7736C33.0978 21.1546 33.0978 21.7723 32.7073 22.1533L30.7073 24.1045C30.3167 24.4855 29.6836 24.4855 29.293 24.1045Z" fill="#3D75E4"/>
<path d="M7.29304 22.7248C6.90252 23.1058 6.90252 23.7235 7.29304 24.1045C7.68357 24.4855 8.31673 24.4855 8.70726 24.1045L10.7073 22.1533C11.0978 21.7723 11.0978 21.1546 10.7073 20.7736C10.3167 20.3926 9.68357 20.3926 9.29304 20.7736L7.29304 22.7248Z" fill="#3D75E4"/>
<path fill-rule="evenodd" clip-rule="evenodd" d="M10 1.95122C10 0.873591 10.8954 0 12 0H28C29.1046 0 30 0.87359 30 1.95122V6.82927H38C39.1046 6.82927 40 7.70286 40 8.78049V11.7073C40 12.7849 39.1046 13.6585 38 13.6585V26.3415C39.1046 26.3415 40 27.2151 40 28.2927C40 29.7371 39.1956 30.9983 38 31.673V37.0732C38 38.6896 36.6569 40 35 40H5C3.34315 40 2 38.6896 2 37.0732V31.673C0.804397 30.9983 0 29.7371 0 28.2927C0 27.2151 0.895431 26.3415 2 26.3415L2 13.6585C0.895432 13.6585 0 12.7849 0 11.7073V8.78049C0 7.70286 0.895431 6.82927 2 6.82927H10V1.95122ZM36 26.3415V13.6585H4L4 26.3415H14L14 21.4634C14 19.847 15.3431 18.5366 17 18.5366H23C24.6569 18.5366 26 19.847 26 21.4634V26.3415H36ZM2 28.2927C2 29.3703 2.89543 30.2439 4 30.2439H36C37.1046 30.2439 38 29.3703 38 28.2927H2ZM38 11.7073V8.78049H2V11.7073H38ZM28 1.95122V6.82927H12V1.95122H28ZM4 32.1951L4 37.0732C4 37.612 4.44772 38.0488 5 38.0488H35C35.5523 38.0488 36 37.612 36 37.0732V32.1951H4ZM24 26.3415V21.4634C24 20.9246 23.5523 20.4878 23 20.4878H17C16.4477 20.4878 16 20.9246 16 21.4634L16 26.3415H24Z" fill="#3D75E4"/>
</svg>
