<svg width="40" height="40" viewBox="0 0 40 40" fill="none" xmlns="http://www.w3.org/2000/svg">
<g clip-path="url(#clip0)">
<path d="M20.4623 0.113025C20.4399 0.101351 20.4171 0.0904974 20.3937 0.0805039C20.2676 0.026391 20.1339 -6.38876e-05 20.0008 -5.97196e-05C19.8667 -0.000276797 19.7319 0.0263681 19.6049 0.081097C19.5822 0.0908675 19.5599 0.101454 19.5381 0.112819C19.4586 0.154182 19.3838 0.206697 19.3164 0.270008C19.2664 0.316659 19.2222 0.367531 19.1838 0.421648L16.2001 4.4C15.8687 4.84183 15.9582 5.46863 16.4001 5.8C16.8419 6.13137 17.4687 6.04183 17.8001 5.6L19 4.00008V14C19 14.5523 19.4477 15 20 15C20.5523 15 21 14.5523 21 14V4.00008L22.1999 5.6C22.5313 6.04183 23.1581 6.13137 23.5999 5.8C24.0418 5.46863 24.1313 4.84183 23.7999 4.4L20.8162 0.42164C20.778 0.367788 20.734 0.317151 20.6844 0.270688C20.6169 0.207178 20.542 0.154504 20.4623 0.113025Z" fill="#3D75E4"/>
<path d="M11.5 10C7.91015 10 5 12.9102 5 16.5V21.9999L3.80006 20.3999C3.46869 19.9581 2.84189 19.8686 2.40006 20.1999C1.95823 20.5313 1.86869 21.1581 2.20006 21.5999L5.1845 25.5792C5.22303 25.6334 5.26744 25.6844 5.31761 25.7311C5.38122 25.7906 5.45131 25.8405 5.5258 25.8806C5.79066 26.0237 6.09996 26.036 6.36865 25.9298C6.50225 25.877 6.62581 25.7948 6.72888 25.6849C6.75905 25.6529 6.78678 25.6192 6.81203 25.5841L9.80006 21.6001C10.1314 21.1582 10.0419 20.5314 9.60006 20.2001C9.15823 19.8687 8.53143 19.9582 8.20006 20.4001L7 22.0001V16.5C7 14.0147 9.01472 12 11.5 12C13.9853 12 16 14.0147 16 16.5V28.083C13.1623 28.559 11 31.027 11 34C11 37.3137 13.6863 40 17 40C20.3137 40 23 37.3137 23 34C23 32.0366 22.0559 30.2935 20.6012 29.2005C20.1596 28.8688 19.5327 28.9578 19.201 29.3993C18.8693 29.8409 18.9583 30.4678 19.3998 30.7995C20.3734 31.531 21 32.6922 21 34C21 36.2091 19.2091 38 17 38C14.7909 38 13 36.2091 13 34C13 32.1362 14.2748 30.5701 16 30.126V34C16 34.5523 16.4477 35 17 35C17.5523 35 18 34.5523 18 34V25C18 22.5467 18.9802 20.3244 20.5727 18.7C22.2073 17.0326 24.4821 16 27 16H34.0001L32.4001 17.2C31.9582 17.5314 31.8687 18.1582 32.2001 18.6C32.5314 19.0418 33.1582 19.1314 33.6001 18.8L37.5841 15.812C37.6191 15.7868 37.6527 15.7591 37.6846 15.7291C37.7819 15.6379 37.8574 15.5308 37.9102 15.4148C37.9378 15.3543 37.9596 15.2905 37.9748 15.2242C37.9848 15.1806 37.9919 15.1359 37.996 15.0903C38.0117 14.9176 37.9828 14.7404 37.9065 14.5773C37.898 14.559 37.8889 14.5409 37.8792 14.5232C37.8395 14.4499 37.7902 14.3808 37.7316 14.3181C37.6848 14.2677 37.6336 14.2231 37.5792 14.1844L33.5999 11.2C33.1581 10.8686 32.5313 10.9582 32.1999 11.4C31.8686 11.8418 31.9581 12.4686 32.3999 12.8L33.9999 14H27C23.9231 14 21.1397 15.2646 19.1445 17.3C18.7272 17.7256 18.3442 18.1851 18 18.6741V16.5C18 12.9102 15.0899 10 11.5 10Z" fill="#3D75E4"/>
</g>
<defs>
<clipPath id="clip0">
<rect width="40" height="40" fill="white"/>
</clipPath>
</defs>
</svg>
