<svg width="40" height="40" viewBox="0 0 40 40" fill="none" xmlns="http://www.w3.org/2000/svg">
<path d="M13.7334 4.62482C17.1943 1.16511 22.8057 1.16511 26.2666 4.62482C26.6632 5.02121 27.3061 5.02121 27.7026 4.62482C28.0991 4.22843 28.0991 3.58576 27.7026 3.18937C23.4486 -1.06312 16.5514 -1.06312 12.2974 3.18937C11.9009 3.58576 11.9009 4.22843 12.2974 4.62482C12.6939 5.02121 13.3368 5.02121 13.7334 4.62482Z" fill="#3D75E4"/>
<path d="M23.7268 7.1637C21.6685 5.10621 18.3315 5.10621 16.2732 7.1637C15.8767 7.56009 15.2338 7.56009 14.8373 7.1637C14.4407 6.76731 14.4407 6.12464 14.8373 5.72825C17.6886 2.87798 22.3114 2.87798 25.1627 5.72825C25.5593 6.12464 25.5593 6.76731 25.1627 7.1637C24.7662 7.56009 24.1233 7.56009 23.7268 7.1637Z" fill="#3D75E4"/>
<path d="M21.1869 9.70271C20.5314 9.04743 19.4686 9.04743 18.8131 9.70271C18.4166 10.0991 17.7737 10.0991 17.3771 9.70271C16.9806 9.30632 16.9806 8.66364 17.3771 8.26725C18.8257 6.8192 21.1743 6.8192 22.6229 8.26725C23.0194 8.66364 23.0194 9.30632 22.6229 9.70271C22.2263 10.0991 21.5834 10.0991 21.1869 9.70271Z" fill="#3D75E4"/>
<path d="M11 32.9706C11 32.4183 11.4477 31.9706 12 31.9706H15C15.5523 31.9706 16 32.4183 16 32.9706C16 33.5229 15.5523 33.9706 15 33.9706H12C11.4477 33.9706 11 33.5229 11 32.9706Z" fill="#3D75E4"/>
<path d="M24 32.9706C24 32.4183 24.4477 31.9706 25 31.9706H28C28.5523 31.9706 29 32.4183 29 32.9706C29 33.5229 28.5523 33.9706 28 33.9706H25C24.4477 33.9706 24 33.5229 24 32.9706Z" fill="#3D75E4"/>
<path fill-rule="evenodd" clip-rule="evenodd" d="M20 14.9706C19.4477 14.9706 19 14.5229 19 13.9706V11.9706C19 11.4183 19.4477 10.9706 20 10.9706C20.5523 10.9706 21 11.4183 21 11.9706V12.9706H27C30.3137 12.9706 33 15.6569 33 18.9706V23.9706H34C34.5523 23.9706 35 24.4183 35 24.9706C35 25.5229 34.5523 25.9706 34 25.9706H33V37.9706C33 39.0751 32.1046 39.9706 31 39.9706H29C27.8954 39.9706 27 39.0751 27 37.9706H13C13 39.0751 12.1046 39.9706 11 39.9706H9C7.89543 39.9706 7 39.0751 7 37.9706V25.9706H6C5.44772 25.9706 5 25.5229 5 24.9706C5 24.4183 5.44772 23.9706 6 23.9706H7V18.9706C7 15.6569 9.68629 12.9706 13 12.9706H17C17.5523 12.9706 18 13.4183 18 13.9706C18 14.5229 17.5523 14.9706 17 14.9706H13C10.7909 14.9706 9 16.7614 9 18.9706V27.9706H31V18.9706C31 16.7614 29.2091 14.9706 27 14.9706H20ZM9 37.9706V29.9706H31V37.9706H29C29 36.866 28.1046 35.9706 27 35.9706H13C11.8954 35.9706 11 36.866 11 37.9706H9Z" fill="#3D75E4"/>
<path d="M30 18.9706C30 19.5229 29.5523 19.9706 29 19.9706H21V24.9706C21 25.5229 20.5523 25.9706 20 25.9706C19.4477 25.9706 19 25.5229 19 24.9706V19.9706H11C10.4477 19.9706 10 19.5229 10 18.9706C10 18.4183 10.4477 17.9706 11 17.9706H29C29.5523 17.9706 30 18.4183 30 18.9706Z" fill="#3D75E4"/>
</svg>
