<svg width="40" height="40" viewBox="0 0 40 40" fill="none" xmlns="http://www.w3.org/2000/svg">
<g clip-path="url(#clip0)">
<path d="M11.1207 34.6923C6.3641 34.6923 2.5 30.8331 2.5 26.0826C2.5 22.2436 5.01521 19.7518 7.17546 18.7794L7.38844 18.6883L7.31744 18.4756C5.91785 14.3733 6.62779 9.77462 9.22414 6.15852C12.0335 2.23854 16.6481 0 21.9016 0C29.1024 0 34.9645 5.72297 34.9645 12.7526C34.9645 14.1707 34.7211 15.5786 34.2546 16.9258L34.1937 17.098L34.3357 17.2094C36.354 18.8503 37.5 21.2813 37.5 23.8744C37.5 28.625 33.6359 32.4842 28.8793 32.4842C28.3215 32.4842 27.8651 32.0284 27.8651 31.4713C27.8651 30.9142 28.3215 30.4583 28.8793 30.4583C32.5101 30.4583 35.4716 27.5006 35.4716 23.8744C35.4716 21.7169 34.4067 19.6911 32.6318 18.4553L32.571 18.4148H32.4899C32.0233 18.1818 31.7901 17.5842 32.0233 17.0777C32.6318 15.7103 32.9463 14.2618 32.9463 12.7729C32.9463 6.85743 27.997 2.04609 21.9118 2.04609C16.6684 2.04609 12.2262 4.55812 10.0254 8.75158C8.0071 12.6108 8.26065 17.1892 10.7049 20.7141C10.857 20.9369 10.9179 21.2003 10.8671 21.4738C10.8164 21.7371 10.6744 21.9701 10.4513 22.1221C10.2789 22.2436 10.0761 22.3044 9.87322 22.3044C9.53854 22.3044 9.22414 22.1423 9.04158 21.8688C8.79817 21.5143 8.56491 21.1497 8.35192 20.7749L8.24036 20.5723L8.02738 20.6635C6.42495 21.3826 4.54868 23.2464 4.54868 26.1129C4.54868 29.7392 7.51014 32.6969 11.141 32.6969C11.6988 32.6969 12.1552 33.1527 12.1552 33.7098C12.1552 34.2669 11.6785 34.6923 11.1207 34.6923Z" fill="#3D75E4"/>
<path d="M22.53 40C21.9722 40 21.5158 39.5442 21.5158 38.9871V23.7934C21.4955 22.0613 20.7856 20.39 19.386 18.7794C18.169 17.3715 16.6984 16.3383 15.7146 15.8319C15.4712 15.7002 15.2988 15.4875 15.2176 15.2241C15.1365 14.9709 15.1669 14.6974 15.2886 14.4644C15.4712 14.12 15.816 13.9174 16.2014 13.9174C16.3637 13.9174 16.5158 13.958 16.6679 14.0289C17.2258 14.3226 19.173 15.4368 20.9174 17.4525C21.6477 18.2932 22.2055 19.1238 22.6213 19.9949L22.7937 20.3393L23.0473 20.0456C23.098 19.9848 23.1487 19.9342 23.1892 19.8835C24.3049 18.6376 25.5321 17.9894 25.8769 17.8273C26.029 17.7564 26.1811 17.7159 26.3333 17.7159C26.7187 17.7159 27.0635 17.9286 27.2359 18.273C27.3576 18.5161 27.3779 18.7997 27.2866 19.0529C27.2055 19.3062 27.0229 19.5087 26.7795 19.6202C26.2116 19.9139 25.3698 20.4913 24.7004 21.2206C23.9398 22.0512 23.5544 22.902 23.5341 23.7326V27.0752L23.9499 26.7106C24.5584 26.1838 25.2582 25.7078 25.8667 25.414C26.0189 25.3431 26.171 25.3026 26.3231 25.3026C26.7085 25.3026 27.0533 25.5153 27.2258 25.8597C27.3475 26.1028 27.3677 26.3864 27.2765 26.6397C27.1953 26.8929 27.0128 27.0955 26.7694 27.2069C26.2014 27.5006 25.3596 28.078 24.6903 28.8073C23.9195 29.6581 23.5239 30.5191 23.5239 31.37V38.9668C23.5442 39.5442 23.0878 40 22.53 40Z" fill="#3D75E4"/>
<path d="M17.4592 40C16.9014 40 16.445 39.5442 16.445 38.9871V28.8579C16.445 28.0071 16.0495 27.1461 15.2787 26.2953C14.5992 25.5558 13.7675 24.9886 13.1996 24.6949C12.9562 24.5733 12.7736 24.3707 12.6925 24.1175C12.6012 23.8541 12.6215 23.5807 12.7432 23.3274C12.9156 22.983 13.2604 22.7703 13.6458 22.7703C13.8081 22.7703 13.9602 22.8108 14.1022 22.8817C14.4572 23.0539 15.6742 23.7022 16.7797 24.9278C17.5505 25.7686 18.4734 27.1259 18.4734 28.8478V38.977C18.4734 39.5442 18.017 40 17.4592 40Z" fill="#3D75E4"/>
</g>
<defs>
<clipPath id="clip0">
<rect width="40" height="40" fill="white"/>
</clipPath>
</defs>
</svg>
