<svg width="40" height="40" viewBox="0 0 40 40" fill="none" xmlns="http://www.w3.org/2000/svg">
<path d="M2 5C2 4.44772 2.44772 4 3 4H6C6.55228 4 7 3.55229 7 3C7 2.44771 6.55228 2 6 2H3C1.34315 2 0 3.34315 0 5V30.5C0 31.0523 0.447715 31.5 1 31.5C1.55228 31.5 2 31.0523 2 30.5V5Z" fill="#3D75E4"/>
<path fill-rule="evenodd" clip-rule="evenodd" d="M35 33H1C0.447715 33 0 33.4477 0 34C0 34.5523 0.447715 35 1 35H5C5 36.6569 6.34315 38 8 38H13C13.5523 38 14 37.5523 14 37C14 36.4477 13.5523 36 13 36H8C7.44772 36 7 35.5523 7 35H15C15 36.6569 16.3431 38 18 38H23C23.5523 38 24 37.5523 24 37C24 36.4477 23.5523 36 23 36H18C17.4477 36 17 35.5523 17 35H25C25 36.6569 26.3431 38 28 38H33C34.6569 38 36 36.6569 36 35V34.9C38.2822 34.4367 40 32.419 40 30V12C40 9.23858 37.7614 7 35 7H4C3.44772 7 3 7.44772 3 8C3 8.55228 3.44772 9 4 9H35C36.6569 9 38 10.3431 38 12V30C38 31.6569 36.6569 33 35 33ZM27 35H34C34 35.5523 33.5523 36 33 36H28C27.4477 36 27 35.5523 27 35Z" fill="#3D75E4"/>
<path d="M16 21C16 16.0294 20.0294 12 25 12C27.0287 12 28.8981 12.67 30.4027 13.8013C30.8442 14.1332 31.4711 14.0444 31.8029 13.603C32.1348 13.1615 32.046 12.5346 31.6046 12.2027C29.7654 10.8199 27.477 10 25 10C18.9249 10 14 14.9249 14 21C14 27.0751 18.9249 32 25 32C31.0751 32 36 27.0751 36 21C36 18.9251 35.4246 16.9816 34.424 15.3237C34.1386 14.8508 33.524 14.6988 33.0511 14.9842C32.5783 15.2696 32.4263 15.8842 32.7117 16.3571C33.5293 17.7119 34 19.2995 34 21C34 25.9706 29.9706 30 25 30C20.0294 30 16 25.9706 16 21Z" fill="#3D75E4"/>
<path d="M25.0669 12.992L25.0684 12.9921L25.0703 12.9922L25.0752 12.9925L25.089 12.9934L25.133 12.9966C25.1694 12.9995 25.2197 13.0039 25.2823 13.0105C25.4075 13.0236 25.5828 13.0454 25.7963 13.0807C26.2216 13.1509 26.8072 13.2764 27.4528 13.4988C28.726 13.9373 30.3459 14.7933 31.3448 16.4641C31.58 16.8574 31.5177 17.3603 31.1936 17.6843L28.7046 20.1733C28.3141 20.5638 27.681 20.5638 27.2904 20.1733C26.8999 19.7828 26.8999 19.1496 27.2904 18.7591L29.1745 16.875C28.5184 16.1414 27.6385 15.678 26.8015 15.3897C26.5203 15.2929 26.2521 15.2187 26.0107 15.1621V20.3824L31.544 23.5782C31.7923 23.7216 31.9671 23.9647 32.024 24.2458C32.0809 24.5268 32.0144 24.8187 31.8415 25.0474C30.51 24.0404 31.8425 25.046 31.8415 25.0474L31.8397 25.0497L31.837 25.0533L31.8287 25.0641L31.8009 25.0999C31.7773 25.1299 31.744 25.1719 31.7014 25.2241C31.6162 25.3284 31.4938 25.4741 31.3388 25.6468C31.0304 25.9908 30.5863 26.45 30.0459 26.9059C29.0144 27.7759 27.4181 28.8166 25.6447 28.6872C25.2207 28.6562 24.8627 28.3607 24.752 27.9503L23.836 24.5553C23.6922 24.0221 24.0078 23.4732 24.541 23.3293C25.0743 23.1855 25.6231 23.5011 25.767 24.0343L26.47 26.64C27.2296 26.4781 28.0269 25.9923 28.7564 25.3771C29.0294 25.1468 29.2754 24.9132 29.4859 24.6991L25.0106 22.1144L19.4774 25.3101C19.2387 25.448 18.9537 25.4812 18.6897 25.402C18.4257 25.3227 18.2061 25.138 18.0828 24.8914L18.0822 24.8901L18.0813 24.8884L18.0792 24.8841L18.0731 24.8716L18.0539 24.8315C18.0382 24.7983 18.0168 24.752 17.991 24.6937C17.9395 24.5773 17.8702 24.4125 17.7934 24.2076C17.6406 23.7995 17.4549 23.2237 17.3236 22.5495C17.0655 21.224 16.993 19.3829 17.9628 17.7102C18.1896 17.3189 18.6509 17.1286 19.0877 17.2461L22.4926 18.162C23.0259 18.3055 23.342 18.8542 23.1985 19.3875C23.0551 19.9208 22.5064 20.2368 21.9731 20.0934L19.3848 19.3971C19.0795 20.3045 19.116 21.29 19.2867 22.1673C19.3454 22.4686 19.4181 22.747 19.4924 22.9919L24.0107 20.3823V13.9904C24.0107 13.7155 24.124 13.4526 24.3238 13.2637C24.5236 13.0749 24.7923 12.9766 25.0669 12.992Z" fill="#3D75E4"/>
<path d="M6 12C5.44772 12 5 12.4477 5 13C5 13.5523 5.44772 14 6 14H12C12.5523 14 13 13.5523 13 13C13 12.4477 12.5523 12 12 12H6Z" fill="#3D75E4"/>
<path d="M5 17C5 16.4477 5.44772 16 6 16H9C9.55228 16 10 16.4477 10 17C10 17.5523 9.55228 18 9 18H6C5.44772 18 5 17.5523 5 17Z" fill="#3D75E4"/>
<path d="M6 20C5.44772 20 5 20.4477 5 21C5 21.5523 5.44772 22 6 22H9C9.55228 22 10 21.5523 10 21C10 20.4477 9.55228 20 9 20H6Z" fill="#3D75E4"/>
</svg>
