<svg width="40" height="40" viewBox="0 0 40 40" fill="none" xmlns="http://www.w3.org/2000/svg">
<path d="M18.1216 11.1704C17.6903 11.5189 17.6203 12.1547 17.9653 12.5904C18.3102 13.0261 18.9395 13.0968 19.3708 12.7484L26.3993 7.06939C26.8306 6.7209 26.9006 6.08517 26.5557 5.64944C26.2107 5.21372 25.5815 5.143 25.1502 5.49149L18.1216 11.1704Z" fill="#3D75E4"/>
<path d="M20.4633 15.7459C20.1183 15.3102 20.1883 14.6745 20.6197 14.326L27.6482 8.64704C28.0795 8.29855 28.7088 8.36927 29.0537 8.80499C29.3987 9.24072 29.3287 9.87645 28.8974 10.2249L21.8688 15.9039C21.4375 16.2524 20.8083 16.1817 20.4633 15.7459Z" fill="#3D75E4"/>
<path d="M16.2469 15.2724C16.6782 14.9239 16.7482 14.2882 16.4033 13.8524C16.0583 13.4167 15.4291 13.346 14.9977 13.6945C14.5664 14.043 14.4964 14.6787 14.8414 15.1144C15.1863 15.5502 15.8156 15.6209 16.2469 15.2724Z" fill="#3D75E4"/>
<path d="M18.9013 17.008C19.2463 17.4437 19.1763 18.0794 18.745 18.4279C18.3137 18.7764 17.6844 18.7057 17.3394 18.27C16.9945 17.8342 17.0645 17.1985 17.4958 16.85C17.9271 16.5015 18.5564 16.5723 18.9013 17.008Z" fill="#3D75E4"/>
<path fill-rule="evenodd" clip-rule="evenodd" d="M9.84294 15.2715C9.15303 14.4 9.29304 13.1286 10.1556 12.4316L24.9937 0.442666C25.8563 -0.254313 27.1149 -0.112872 27.8048 0.758582L34.0507 8.64812C34.7406 9.51957 34.6006 10.791 33.738 11.488L22.2065 20.8053H29.6004C30.1527 20.8053 30.6004 21.2576 30.6004 21.8155C30.6004 22.3735 30.1527 22.8258 29.6004 22.8258H10.4004C9.84811 22.8258 9.40039 22.3735 9.40039 21.8155C9.40039 21.2576 9.84811 20.8053 10.4004 20.8053H14.2239L9.84294 15.2715ZM32.4888 9.91011L19.0045 20.8053H16.7849L11.4048 14.0095L26.2429 2.02057L32.4888 9.91011Z" fill="#3D75E4"/>
<path fill-rule="evenodd" clip-rule="evenodd" d="M17 27.877C16.4477 27.877 16 28.3293 16 28.8873V33.9385C16 35.0544 16.8954 35.959 18 35.959H18.9957L18.9998 35.9595C19 36.5172 19.4479 36.9693 20 36.9693C20.5521 36.9693 20.9997 36.5172 21 35.9595L21.0043 35.959H22C23.1046 35.959 24 35.0544 24 33.9385V28.8873C24 28.3293 23.5523 27.877 23 27.877H17ZM21 33.9385C20.7273 33.9385 20.3564 34.0017 20 34.198C19.6436 34.0017 19.2727 33.9385 19 33.9385H18V29.8975H22V33.9385H21Z" fill="#3D75E4"/>
<path fill-rule="evenodd" clip-rule="evenodd" d="M7.93422 16.7643C6.89333 16.7643 5.92682 17.3094 5.38056 18.2045L0.504753 26.1939C0.463495 26.2562 0.424463 26.3202 0.387771 26.3856L0.365716 26.4217C0.332464 26.4762 0.30495 26.5327 0.283005 26.5903C0.101459 26.9809 0 27.417 0 27.877V36.9693C0 38.6431 1.34314 40 3 40H37C38.6569 40 40 38.6431 40 36.9693V27.877C40 27.3401 39.8618 26.8357 39.6193 26.3983C39.606 26.3715 39.5914 26.345 39.5755 26.3189L34.6194 18.2036C34.073 17.309 33.1068 16.7643 32.0662 16.7643H30.0005C29.4482 16.7643 29.0005 17.2166 29.0005 17.7745C29.0005 18.3325 29.4482 18.7848 30.0005 18.7848H32.0662C32.4131 18.7848 32.7352 18.9664 32.9173 19.2646L36.3261 24.8463H3.67676L7.083 19.2648C7.26509 18.9665 7.58726 18.7848 7.93422 18.7848H8.99954C9.55183 18.7848 9.99954 18.3325 9.99954 17.7745C9.99954 17.2166 9.55183 16.7643 8.99954 16.7643H7.93422ZM2.1183 27.3999L2.1811 27.2971C2.362 27.0368 2.66134 26.8668 3 26.8668H37C37.5523 26.8668 38 27.3191 38 27.877V36.9693C38 37.5272 37.5523 37.9795 37 37.9795H3C2.44771 37.9795 2 37.5272 2 36.9693V27.877C2 27.7045 2.04282 27.542 2.1183 27.3999Z" fill="#3D75E4"/>
</svg>
