<svg width="40" height="40" viewBox="0 0 40 40" fill="none" xmlns="http://www.w3.org/2000/svg">
<path d="M19.4901 24.2079C14.4401 24.2079 10.3301 20.1 10.3301 15.0425C10.3301 12.064 11.7601 8.66567 14.5901 4.92754C15.4201 3.82809 16.3901 2.70865 17.4501 1.57921C17.8401 1.17941 18.1601 0.849575 18.3901 0.629685C18.5101 0.509745 18.6001 0.429785 18.6601 0.369815L18.7301 0.29985L18.8101 0.23988L18.8201 0.21989C19.0101 0.07996 19.2401 0 19.4901 0C19.7301 0 19.9601 0.07996 20.1401 0.21989L20.1501 0.23988L20.2601 0.31984C20.2601 0.31984 20.4701 0.51974 20.5801 0.61969C20.8201 0.83958 21.1401 1.17941 21.5301 1.57921C22.5801 2.68866 23.5501 3.81809 24.3901 4.92754C27.2201 8.66567 28.6501 12.064 28.6501 15.0425C28.6401 20.09 24.5301 24.2079 19.4901 24.2079ZM19.1801 2.84858C19.1201 2.91854 19.0601 2.98851 18.9901 3.05847C18.4601 3.6082 17.4101 4.73763 16.2901 6.2069C14.5401 8.51574 12.4601 11.924 12.4601 15.0325C12.4601 18.9105 15.6101 22.069 19.4901 22.069C23.3701 22.069 26.5201 18.9105 26.5201 15.0325C26.5201 11.924 24.4401 8.51574 22.6901 6.2069C21.5601 4.72764 20.5101 3.5982 19.9801 3.04848L19.4801 2.49875L19.1801 2.84858Z" fill="#3D75E4"/>
<path d="M30.9 32.6237C29.62 32.6237 28.42 32.054 27.52 31.0245C26.95 30.3848 26.22 30.045 25.45 30.045C24.69 30.045 23.97 30.3848 23.42 30.9945L23.37 31.0445C22.47 32.074 21.28 32.6337 20.01 32.6337C18.73 32.6337 17.53 32.064 16.63 31.0345C16.06 30.3948 15.33 30.055 14.56 30.055C13.79 30.055 13.07 30.3948 12.53 31.0045L12.48 31.0545C11.58 32.084 10.39 32.6437 9.12 32.6437C7.84 32.6437 6.64 32.074 5.74 31.0445C5.17 30.4048 4.44 30.065 3.67 30.065C2.89 30.065 2.15 30.4148 1.6 31.0545C1.43 31.2544 1.19 31.3643 0.95 31.3643C0.71 31.3643 0.47 31.2544 0.29 31.0545C0.1 30.8246 0 30.5547 0 30.2649C0 29.985 0.1 29.7151 0.27 29.5152C1.17 28.4758 2.38 27.906 3.65 27.906C4.92 27.906 6.13 28.4758 7.03 29.5152C7.59 30.1549 8.32 30.4947 9.09 30.4947C9.87 30.4947 10.61 30.1449 11.16 29.5152C12.08 28.4658 13.27 27.906 14.54 27.906C15.82 27.906 17.02 28.4758 17.93 29.5152C18.49 30.1549 19.22 30.4947 19.99 30.4947C20.77 30.4947 21.51 30.1449 22.06 29.5152C22.98 28.4658 24.17 27.906 25.44 27.906C26.72 27.906 27.92 28.4758 28.83 29.5152C29.4 30.1549 30.13 30.5047 30.9 30.5047C31.68 30.5047 32.41 30.1549 32.97 29.5152C33.89 28.4758 35.08 27.916 36.35 27.916C37.63 27.916 38.83 28.4858 39.74 29.5252C39.9 29.7151 40 29.985 40 30.2649C40 30.5547 39.9 30.8246 39.73 31.0245C39.56 31.2244 39.32 31.3343 39.08 31.3343C38.83 31.3343 38.6 31.2244 38.42 31.0245C37.87 30.3948 37.13 30.045 36.35 30.045C35.58 30.045 34.86 30.3748 34.32 30.9845L34.26 31.0345C33.36 32.064 32.16 32.6237 30.9 32.6237Z" fill="#3D75E4"/>
<path d="M30.89 39.98C29.62 39.98 28.42 39.4103 27.52 38.3808C26.95 37.7411 26.22 37.4013 25.45 37.4013C24.68 37.4013 23.96 37.7411 23.42 38.3508L23.37 38.4008C22.47 39.4203 21.27 39.99 20 39.99C18.73 39.99 17.53 39.4203 16.63 38.3908C16.06 37.7511 15.33 37.4113 14.56 37.4113C13.79 37.4113 13.07 37.7511 12.53 38.3608L12.48 38.4108C11.58 39.4303 10.38 40 9.11 40C7.84 40 6.64 39.4303 5.74 38.4008C5.17 37.7611 4.44 37.4213 3.67 37.4213C2.89 37.4213 2.15 37.7711 1.6 38.4108C1.43 38.6107 1.19 38.7206 0.95 38.7206C0.71 38.7206 0.45 38.5807 0.27 38.3808C0.1 38.1809 0 37.911 0 37.6212C0 37.3413 0.1 37.0715 0.27 36.8716C1.17 35.8321 2.38 35.2624 3.65 35.2624C4.92 35.2624 6.13 35.8321 7.03 36.8716C7.59 37.5112 8.32 37.8511 9.09 37.8511C9.87 37.8511 10.61 37.5012 11.16 36.8716C12.08 35.8221 13.27 35.2624 14.54 35.2624C15.82 35.2624 17.02 35.8321 17.93 36.8716C18.49 37.5112 19.22 37.8511 19.99 37.8511C20.77 37.8511 21.51 37.5012 22.06 36.8716C22.98 35.8221 24.17 35.2624 25.44 35.2624C26.72 35.2624 27.92 35.8321 28.83 36.8716C29.39 37.5112 30.12 37.8511 30.89 37.8511C31.67 37.8511 32.41 37.5012 32.96 36.8716C33.88 35.8221 35.07 35.2624 36.34 35.2624C37.62 35.2624 38.82 35.8321 39.73 36.8716C39.91 37.0715 40 37.3313 40 37.6212C40 37.911 39.9 38.1809 39.73 38.3808C39.56 38.5807 39.32 38.6907 39.08 38.6907C38.83 38.6907 38.6 38.5807 38.42 38.3808C37.87 37.7511 37.13 37.4013 36.35 37.4013C35.58 37.4013 34.86 37.7311 34.32 38.3408L34.27 38.3908C33.36 39.4203 32.16 39.98 30.89 39.98Z" fill="#3D75E4"/>
</svg>
