<svg width="40" height="40" viewBox="0 0 40 40" fill="none" xmlns="http://www.w3.org/2000/svg">
<path d="M20 12C18.8954 12 18 11.1046 18 10C18 8.89543 18.8954 8 20 8C20.1791 8 20.3527 8.02355 20.5179 8.06771L22.7927 5.79289C23.1833 5.40237 23.8164 5.40237 24.207 5.79289C24.5975 6.18342 24.5975 6.81658 24.207 7.20711L21.9322 9.48184C21.9764 9.6471 22 9.8208 22 10C22 11.1046 21.1046 12 20 12Z" fill="#3D75E4"/>
<path fill-rule="evenodd" clip-rule="evenodd" d="M10 10C10 4.47715 14.4772 0 20 0C25.5228 0 30 4.47715 30 10C30 15.5228 25.5228 20 20 20C14.4772 20 10 15.5228 10 10ZM12.0619 11H13C13.5523 11 14 10.5523 14 10C14 9.44771 13.5523 9 13 9H12.0619C12.554 5.05369 15.9204 2 20 2C24.0796 2 27.446 5.05369 27.9381 9H27C26.4477 9 26 9.44771 26 10C26 10.5523 26.4477 11 27 11H27.9381C27.4869 14.6187 24.6187 17.4869 21 17.9381V17C21 16.4477 20.5523 16 20 16C19.4477 16 19 16.4477 19 17V17.9381C15.3813 17.4869 12.5131 14.6187 12.0619 11Z" fill="#3D75E4"/>
<path fill-rule="evenodd" clip-rule="evenodd" d="M0 16C0 14.3431 1.34315 13 3 13C4.30622 13 5.41746 13.8348 5.82929 15H10C10.5523 15 11 15.4477 11 16C11 16.5523 10.5523 17 10 17H6V25H7C7.55228 25 8 25.4477 8 26V35C8 36.5494 9.45302 38 11.5 38C13.5465 38 14.9993 36.5501 15 35.0012L15 34.857C14.033 35.5781 12.8009 36 11.5 36C10.8722 36 10.2663 35.9042 9.70029 35.7264C9.1734 35.5609 8.88046 34.9996 9.046 34.4727C9.21154 33.9458 9.77286 33.6528 10.2998 33.8184C10.6721 33.9354 11.0759 34 11.5 34C13.5423 34 14.9933 32.5561 15 31.0108L15 27C14.4477 27 14 26.5523 14 26C14 25.4477 14.4477 25 15 25H25C25.5523 25 26 25.4477 26 26C26 26.5523 25.5523 27 25 27L25 35C25 36.5494 26.453 38 28.5 38C30.547 38 32 36.5494 32 35V34.857C31.033 35.5781 29.8009 36 28.5 36C27.8722 36 27.2663 35.9042 26.7003 35.7264C26.1734 35.5609 25.8805 34.9996 26.046 34.4727C26.2115 33.9458 26.7729 33.6528 27.2998 33.8184C27.6721 33.9354 28.0759 34 28.5 34C30.5423 34 31.9934 32.556 32 31.0107V26C32 25.4477 32.4477 25 33 25H34V17H30C29.4477 17 29 16.5523 29 16C29 15.4477 29.4477 15 30 15H34.1707C34.5825 13.8348 35.6938 13 37 13C38.6569 13 40 14.3431 40 16V25C40 26.6569 38.6569 28 37 28C36.1115 28 35.3132 27.6137 34.7639 27H34V30.9932L34 31L34 31.0148V35C34 37.8689 31.4236 40 28.5 40C25.5775 40 23.0019 37.8705 23 35.0032L23 35L23 27H17V30.993L17 31L17 31.0151V35C17 37.8689 14.4236 40 11.5 40C8.57642 40 6 37.8689 6 35V27H5.23611C4.68679 27.6137 3.8885 28 3 28C1.34315 28 0 26.6569 0 25V16ZM4 16C4 15.4477 3.55228 15 3 15C2.44772 15 2 15.4477 2 16V25C2 25.5523 2.44772 26 3 26C3.55228 26 4 25.5523 4 25V16ZM36 25V16C36 15.4477 36.4477 15 37 15C37.5523 15 38 15.4477 38 16V25C38 25.5523 37.5523 26 37 26C36.4477 26 36 25.5523 36 25Z" fill="#3D75E4"/>
</svg>
