<svg width="40" height="40" viewBox="0 0 40 40" fill="none" xmlns="http://www.w3.org/2000/svg">
<path d="M13.3841 8.50605C13.3841 5.61735 15.7761 3.00018 18.8381 2.22417C20.3378 1.84412 21.944 1.92754 23.4279 2.62489C24.9065 3.31975 26.3377 4.65928 27.4294 6.92007C27.6607 7.39925 28.2268 7.61332 28.7174 7.40713C32.3586 5.87665 36.4163 9.56756 35.0484 13.5676C34.9601 13.826 34.9812 14.1092 35.1069 14.3515C35.2325 14.5939 35.4518 14.7743 35.7138 14.851C37.4841 15.3689 38.1998 16.8848 37.953 18.2729C37.7147 19.6127 36.5214 20.9999 33.992 20.9999H30.9999C30.4476 20.9999 29.9999 21.4477 29.9999 21.9999C29.9999 22.5522 30.4476 22.9999 30.9999 22.9999H33.992C37.4015 22.9999 39.4989 21.0027 39.9221 18.623C40.2884 16.5625 39.3527 14.3403 37.1913 13.2844C38.1604 8.37697 33.534 4.00491 28.8205 5.2626C27.6043 3.09126 26.0273 1.63662 24.2786 0.814808C22.3315 -0.100216 20.2454 -0.195701 18.3468 0.285465C15.2433 1.07198 12.4896 3.46024 11.6475 6.54528C9.77576 5.44384 7.5043 5.70675 5.91368 6.79378C4.87206 7.50562 4.06595 8.60145 3.84547 9.95802C3.70463 10.8246 3.81134 11.7428 4.18887 12.6727C3.25443 12.8207 2.44108 13.2166 1.78311 13.7921C0.73234 14.7113 0.139524 16.0327 0.021887 17.3624C-0.0959697 18.6946 0.257275 20.1109 1.2 21.206C2.15866 22.3196 3.63931 22.9999 5.56897 22.9999H8.99992C9.5522 22.9999 9.99992 22.5522 9.99992 21.9999C9.99992 21.4477 9.5522 20.9999 8.99992 20.9999H5.56897C4.13241 20.9999 3.23986 20.51 2.71574 19.9012C2.17568 19.2738 1.93655 18.4153 2.01411 17.5386C2.09189 16.6595 2.48227 15.8377 3.09987 15.2975C3.69446 14.7774 4.56039 14.4627 5.74405 14.6748C6.14868 14.7474 6.55648 14.5649 6.77201 14.2148C6.98755 13.8648 6.9669 13.4185 6.71997 13.0898C5.87652 11.9672 5.70099 11.0085 5.81957 10.2789C5.94003 9.53768 6.38597 8.89344 7.04213 8.44502C8.37901 7.5314 10.3584 7.55657 11.5997 9.12633C11.8638 9.46026 12.3103 9.59039 12.7125 9.45061C13.1146 9.31082 13.3841 8.93177 13.3841 8.50605Z" fill="#3D75E4"/>
<path d="M13 17.9999C13 17.4477 12.5523 16.9999 12 16.9999C11.4477 16.9999 11 17.4477 11 17.9999V27.9999C11 28.5522 11.4477 28.9999 12 28.9999C12.5523 28.9999 13 28.5522 13 27.9999V17.9999Z" fill="#3D75E4"/>
<path fill-rule="evenodd" clip-rule="evenodd" d="M9 32.9999C9 34.3062 9.83481 35.4174 11 35.8292V38.9999C11 39.5522 11.4477 39.9999 12 39.9999C12.5523 39.9999 13 39.5522 13 38.9999V35.8292C14.1652 35.4174 15 34.3062 15 32.9999C15 31.3431 13.6569 29.9999 12 29.9999C10.3431 29.9999 9 31.3431 9 32.9999ZM12 31.9999C11.4477 31.9999 11 32.4477 11 32.9999C11 33.5522 11.4477 33.9999 12 33.9999C12.5523 33.9999 13 33.5522 13 32.9999C13 32.4477 12.5523 31.9999 12 31.9999Z" fill="#3D75E4"/>
<path fill-rule="evenodd" clip-rule="evenodd" d="M29 38.9999V31.8292C30.1652 31.4174 31 30.3062 31 28.9999C31 27.3431 29.6569 25.9999 28 25.9999C26.3431 25.9999 25 27.3431 25 28.9999C25 30.3062 25.8348 31.4174 27 31.8292V38.9999C27 39.5522 27.4477 39.9999 28 39.9999C28.5523 39.9999 29 39.5522 29 38.9999ZM28 29.9999C28.5523 29.9999 29 29.5522 29 28.9999C29 28.4477 28.5523 27.9999 28 27.9999C27.4477 27.9999 27 28.4477 27 28.9999C27 29.5522 27.4477 29.9999 28 29.9999Z" fill="#3D75E4"/>
<path d="M28 16.9999C28.5523 16.9999 29 17.4477 29 17.9999V23.9999C29 24.5522 28.5523 24.9999 28 24.9999C27.4477 24.9999 27 24.5522 27 23.9999V17.9999C27 17.4477 27.4477 16.9999 28 16.9999Z" fill="#3D75E4"/>
<path fill-rule="evenodd" clip-rule="evenodd" d="M21 17.9999C21 17.4477 20.5523 16.9999 20 16.9999C19.4477 16.9999 19 17.4477 19 17.9999V21.1707C17.8348 21.5825 17 22.6937 17 23.9999C17 25.6568 18.3431 26.9999 20 26.9999C21.6569 26.9999 23 25.6568 23 23.9999C23 22.6937 22.1652 21.5825 21 21.1707V17.9999ZM20 22.9999C19.4477 22.9999 19 23.4477 19 23.9999C19 24.5522 19.4477 24.9999 20 24.9999C20.5523 24.9999 21 24.5522 21 23.9999C21 23.4477 20.5523 22.9999 20 22.9999Z" fill="#3D75E4"/>
<path d="M20 27.9999C20.5523 27.9999 21 28.4477 21 28.9999V38.9999C21 39.5522 20.5523 39.9999 20 39.9999C19.4477 39.9999 19 39.5522 19 38.9999V28.9999C19 28.4477 19.4477 27.9999 20 27.9999Z" fill="#3D75E4"/>
</svg>
