<svg width="40" height="40" viewBox="0 0 40 40" fill="none" xmlns="http://www.w3.org/2000/svg">
<g clip-path="url(#clip0)">
<path d="M6 5C6 2.23858 8.23858 0 11 0H29C31.7614 0 34 2.23858 34 5V14C34 14.5523 33.5523 15 33 15C32.4477 15 32 14.5523 32 14V5C32 3.34315 30.6569 2 29 2H11C9.34315 2 8 3.34315 8 5V14C8 14.5523 7.55228 15 7 15C6.44772 15 6 14.5523 6 14V5Z" fill="#3D75E4"/>
<path fill-rule="evenodd" clip-rule="evenodd" d="M30.9413 13.6616L29.4045 9.05132C28.9962 7.82629 27.8498 7 26.5585 7H13.4415C12.1502 7 11.0038 7.82629 10.5955 9.05132L9.0587 13.6616C9.05348 13.6762 9.04858 13.6908 9.04403 13.7056L8.27924 16H8C6.34315 16 5 17.3431 5 19V24C5 24.5523 5.44772 25 6 25C6.55228 25 7 24.5523 7 24V19C7 18.4477 7.44772 18 8 18H8.27924C9.1401 18 9.90438 17.4491 10.1766 16.6325L10.7208 15H29.2792L29.8234 16.6325C30.0956 17.4491 30.8599 18 31.7208 18H32C32.5523 18 33 18.4477 33 19V24C33 24.5523 33.4477 25 34 25C34.5523 25 35 24.5523 35 24V19C35 17.3431 33.6569 16 32 16H31.7208L30.956 13.7057C30.9514 13.6908 30.9465 13.6761 30.9413 13.6616ZM13.4415 9C13.0111 9 12.629 9.27543 12.4928 9.68377L11.3874 13H28.6126L27.5072 9.68377C27.371 9.27543 26.9889 9 26.5585 9H13.4415Z" fill="#3D75E4"/>
<path d="M13 26C11.8954 26 11 26.8954 11 28V29C11 29.5523 10.5523 30 10 30H8C7.44772 30 7 29.5523 7 29V27.5C7 26.9477 6.55228 26.5 6 26.5C5.44772 26.5 5 26.9477 5 27.5V29C5 30.6569 6.34315 32 8 32H10C11.6569 32 13 30.6569 13 29V28H27V29C27 30.6569 28.3431 32 30 32H32C33.6569 32 35 30.6569 35 29V27.5C35 26.9477 34.5523 26.5 34 26.5C33.4477 26.5 33 26.9477 33 27.5V29C33 29.5523 32.5523 30 32 30H30C29.4477 30 29 29.5523 29 29V28C29 26.8954 28.1046 26 27 26H13Z" fill="#3D75E4"/>
<path d="M8 24C8 23.4477 8.44771 23 9 23H10C10.5523 23 11 23.4477 11 24C11 24.5523 10.5523 25 10 25H9C8.44771 25 8 24.5523 8 24Z" fill="#3D75E4"/>
<path d="M1 33C0.447715 33 0 33.4477 0 34C0 34.5523 0.447715 35 1 35H39C39.5523 35 40 34.5523 40 34C40 33.4477 39.5523 33 39 33H1Z" fill="#3D75E4"/>
<path d="M31 25C31.5523 25 32 24.5523 32 24C32 23.4477 31.5523 23 31 23H30C29.4477 23 29 23.4477 29 24C29 24.5523 29.4477 25 30 25H31Z" fill="#3D75E4"/>
<path d="M32.5548 36.1679L35 37.7981L37.4452 36.1679C37.9047 35.8616 38.5256 35.9858 38.8319 36.4453C39.1383 36.9048 39.0141 37.5257 38.5546 37.8321L35.578 39.8165C35.5172 39.8595 35.4522 39.8952 35.3844 39.9233C35.1343 40.0278 34.857 40.0236 34.6154 39.9233C34.5477 39.8951 34.4828 39.8594 34.4221 39.8165L31.4454 37.8321C30.9859 37.5257 30.8617 36.9048 31.1681 36.4453C31.4744 35.9858 32.0953 35.8616 32.5548 36.1679Z" fill="#3D75E4"/>
<path d="M2.55481 36.1679L5 37.7981L7.44519 36.1679C7.90472 35.8616 8.52559 35.9858 8.83194 36.4453C9.1383 36.9048 9.01412 37.5257 8.55459 37.8321L5.57794 39.8165C5.51719 39.8595 5.45225 39.8952 5.38451 39.9233C5.13427 40.0278 4.85685 40.0236 4.61517 39.9231C4.54756 39.895 4.48274 39.8594 4.4221 39.8165L1.44541 37.8321C0.985878 37.5257 0.861704 36.9048 1.16806 36.4453C1.47441 35.9858 2.09528 35.8616 2.55481 36.1679Z" fill="#3D75E4"/>
<path d="M17.5548 36.1679L20 37.7981L22.4452 36.1679C22.9047 35.8616 23.5256 35.9858 23.8319 36.4453C24.1383 36.9048 24.0141 37.5257 23.5546 37.8321L20.5779 39.8165C20.5172 39.8594 20.4523 39.8951 20.3846 39.9232C20.1343 40.0279 19.8569 40.0236 19.6152 39.9231C19.5476 39.895 19.4827 39.8594 19.4221 39.8165L16.4454 37.8321C15.9859 37.5257 15.8617 36.9048 16.1681 36.4453C16.4744 35.9858 17.0953 35.8616 17.5548 36.1679Z" fill="#3D75E4"/>
<path d="M9.5 22C10.3284 22 11 21.3284 11 20.5C11 19.6716 10.3284 19 9.5 19C8.67157 19 8 19.6716 8 20.5C8 21.3284 8.67157 22 9.5 22Z" fill="#3D75E4"/>
<path d="M30.5 22C29.6716 22 29 21.3284 29 20.5C29 19.6716 29.6716 19 30.5 19C31.3284 19 32 19.6716 32 20.5C32 21.3284 31.3284 22 30.5 22Z" fill="#3D75E4"/>
<path d="M14 19C14 18.4477 14.4477 18 15 18H25C25.5523 18 26 18.4477 26 19V24C26 24.5523 26.4477 25 27 25C27.5523 25 28 24.5523 28 24V19C28 17.3431 26.6569 16 25 16H15C13.3431 16 12 17.3431 12 19V24C12 24.5523 12.4477 25 13 25C13.5523 25 14 24.5523 14 24V19Z" fill="#3D75E4"/>
</g>
<defs>
<clipPath id="clip0">
<rect width="40" height="40" fill="white"/>
</clipPath>
</defs>
</svg>
